G04 (created by PCBNEW (2013-may-18)-stable) date Tue 16 Jul 2013 10:20:31 AM EDT*
%MOIN*%
G04 Gerber Fmt 3.4, Leading zero omitted, Abs format*
%FSLAX34Y34*%
G01*
G70*
G90*
G04 APERTURE LIST*
%ADD10C,0.00590551*%
%ADD11C,0.00805138*%
%ADD12C,0.011811*%
%ADD13C,0.010811*%
%ADD14C,0.0039*%
%ADD15C,0.0001*%
%ADD16C,0.00669291*%
%ADD17R,0.0354331X0.023622*%
%ADD18R,0.023622X0.0354331*%
%ADD19R,0.019685X0.023622*%
%ADD20R,0.023622X0.019685*%
%ADD21C,0.0314*%
%ADD22R,0.0708661X0.0393701*%
%ADD23R,0.0511811X0.0275591*%
%ADD24C,0.04*%
%ADD25R,0.04X0.04*%
%ADD26C,0.016*%
%ADD27C,0.042*%
%ADD28R,0.042X0.042*%
%ADD29C,0.09*%
G04 APERTURE END LIST*
G54D10*
G54D11*
X75125Y-48370D02*
X75125Y-48089D01*
X75125Y-48169D02*
X75105Y-48129D01*
X75085Y-48109D01*
X75045Y-48089D01*
X75005Y-48089D01*
X74885Y-47989D02*
X74865Y-47969D01*
X74825Y-47949D01*
X74725Y-47949D01*
X74684Y-47969D01*
X74664Y-47989D01*
X74644Y-48029D01*
X74644Y-48069D01*
X74664Y-48129D01*
X74905Y-48370D01*
X74644Y-48370D01*
X74464Y-48370D02*
X74464Y-47949D01*
X74464Y-48109D02*
X74424Y-48089D01*
X74344Y-48089D01*
X74304Y-48109D01*
X74284Y-48129D01*
X74264Y-48169D01*
X74264Y-48290D01*
X74284Y-48330D01*
X74304Y-48350D01*
X74344Y-48370D01*
X74424Y-48370D01*
X74464Y-48350D01*
G54D12*
X73723Y-46647D02*
X73886Y-46647D01*
X73886Y-46904D02*
X73886Y-46414D01*
X73653Y-46414D01*
X73372Y-46414D02*
X73279Y-46414D01*
X73232Y-46437D01*
X73186Y-46484D01*
X73162Y-46577D01*
X73162Y-46741D01*
X73186Y-46834D01*
X73232Y-46881D01*
X73279Y-46904D01*
X73372Y-46904D01*
X73419Y-46881D01*
X73466Y-46834D01*
X73489Y-46741D01*
X73489Y-46577D01*
X73466Y-46484D01*
X73419Y-46437D01*
X73372Y-46414D01*
X72672Y-46904D02*
X72835Y-46670D01*
X72952Y-46904D02*
X72952Y-46414D01*
X72765Y-46414D01*
X72718Y-46437D01*
X72695Y-46460D01*
X72672Y-46507D01*
X72672Y-46577D01*
X72695Y-46624D01*
X72718Y-46647D01*
X72765Y-46670D01*
X72952Y-46670D01*
X72181Y-46857D02*
X72204Y-46881D01*
X72275Y-46904D01*
X72321Y-46904D01*
X72391Y-46881D01*
X72438Y-46834D01*
X72461Y-46787D01*
X72485Y-46694D01*
X72485Y-46624D01*
X72461Y-46530D01*
X72438Y-46484D01*
X72391Y-46437D01*
X72321Y-46414D01*
X72275Y-46414D01*
X72204Y-46437D01*
X72181Y-46460D01*
X71971Y-46647D02*
X71807Y-46647D01*
X71737Y-46904D02*
X71971Y-46904D01*
X71971Y-46414D01*
X71737Y-46414D01*
X78520Y-45864D02*
X78450Y-45887D01*
X78333Y-45887D01*
X78286Y-45864D01*
X78263Y-45840D01*
X78239Y-45794D01*
X78239Y-45747D01*
X78263Y-45700D01*
X78286Y-45677D01*
X78333Y-45653D01*
X78426Y-45630D01*
X78473Y-45607D01*
X78496Y-45583D01*
X78520Y-45537D01*
X78520Y-45490D01*
X78496Y-45443D01*
X78473Y-45420D01*
X78426Y-45397D01*
X78310Y-45397D01*
X78239Y-45420D01*
X78099Y-45397D02*
X77819Y-45397D01*
X77959Y-45887D02*
X77959Y-45397D01*
X77375Y-45887D02*
X77539Y-45653D01*
X77655Y-45887D02*
X77655Y-45397D01*
X77469Y-45397D01*
X77422Y-45420D01*
X77399Y-45443D01*
X77375Y-45490D01*
X77375Y-45560D01*
X77399Y-45607D01*
X77422Y-45630D01*
X77469Y-45653D01*
X77655Y-45653D01*
X77165Y-45887D02*
X77165Y-45397D01*
X76931Y-45887D02*
X76931Y-45397D01*
X76651Y-45887D02*
X76861Y-45607D01*
X76651Y-45397D02*
X76931Y-45677D01*
X76441Y-45630D02*
X76277Y-45630D01*
X76207Y-45887D02*
X76441Y-45887D01*
X76441Y-45397D01*
X76207Y-45397D01*
G54D13*
X72654Y-51884D02*
X72634Y-51863D01*
X72592Y-51843D01*
X72489Y-51843D01*
X72448Y-51863D01*
X72427Y-51884D01*
X72407Y-51925D01*
X72407Y-51966D01*
X72427Y-52028D01*
X72675Y-52276D01*
X72407Y-52276D01*
X72139Y-51843D02*
X72097Y-51843D01*
X72056Y-51863D01*
X72036Y-51884D01*
X72015Y-51925D01*
X71994Y-52008D01*
X71994Y-52111D01*
X72015Y-52193D01*
X72036Y-52235D01*
X72056Y-52255D01*
X72097Y-52276D01*
X72139Y-52276D01*
X72180Y-52255D01*
X72201Y-52235D01*
X72221Y-52193D01*
X72242Y-52111D01*
X72242Y-52008D01*
X72221Y-51925D01*
X72201Y-51884D01*
X72180Y-51863D01*
X72139Y-51843D01*
X71582Y-52276D02*
X71829Y-52276D01*
X71706Y-52276D02*
X71706Y-51843D01*
X71747Y-51905D01*
X71788Y-51946D01*
X71829Y-51966D01*
X71438Y-51843D02*
X71169Y-51843D01*
X71314Y-52008D01*
X71252Y-52008D01*
X71211Y-52028D01*
X71190Y-52049D01*
X71169Y-52090D01*
X71169Y-52193D01*
X71190Y-52235D01*
X71211Y-52255D01*
X71252Y-52276D01*
X71376Y-52276D01*
X71417Y-52255D01*
X71438Y-52235D01*
X70654Y-52276D02*
X70654Y-51843D01*
X70510Y-52152D01*
X70365Y-51843D01*
X70365Y-52276D01*
X69973Y-52255D02*
X70015Y-52276D01*
X70097Y-52276D01*
X70138Y-52255D01*
X70159Y-52235D01*
X70180Y-52193D01*
X70180Y-52070D01*
X70159Y-52028D01*
X70138Y-52008D01*
X70097Y-51987D01*
X70015Y-51987D01*
X69973Y-52008D01*
X69561Y-51863D02*
X69602Y-51843D01*
X69664Y-51843D01*
X69726Y-51863D01*
X69767Y-51905D01*
X69788Y-51946D01*
X69808Y-52028D01*
X69808Y-52090D01*
X69788Y-52173D01*
X69767Y-52214D01*
X69726Y-52255D01*
X69664Y-52276D01*
X69623Y-52276D01*
X69561Y-52255D01*
X69540Y-52235D01*
X69540Y-52090D01*
X69623Y-52090D01*
X69355Y-52276D02*
X69355Y-51987D01*
X69355Y-51843D02*
X69375Y-51863D01*
X69355Y-51884D01*
X69334Y-51863D01*
X69355Y-51843D01*
X69355Y-51884D01*
X69087Y-52276D02*
X69128Y-52255D01*
X69148Y-52214D01*
X69148Y-51843D01*
X68860Y-52276D02*
X68901Y-52255D01*
X68922Y-52214D01*
X68922Y-51843D01*
X68365Y-52276D02*
X68365Y-51843D01*
X68159Y-52276D02*
X68159Y-51843D01*
X68014Y-52152D01*
X67870Y-51843D01*
X67870Y-52276D01*
X67457Y-52276D02*
X67664Y-52276D01*
X67664Y-51843D01*
G54D12*
X77642Y-62400D02*
X77193Y-62400D01*
X75773Y-62480D02*
X75324Y-62480D01*
X75549Y-62705D02*
X75549Y-62255D01*
G54D10*
X77611Y-59035D02*
X77611Y-58444D01*
X78024Y-59035D02*
X78024Y-58444D01*
X72506Y-56754D02*
X72506Y-57345D01*
X72093Y-56754D02*
X72093Y-57345D01*
X74702Y-54559D02*
X75293Y-54559D01*
X74702Y-54972D02*
X75293Y-54972D01*
X73010Y-55056D02*
X72419Y-55056D01*
X73010Y-54643D02*
X72419Y-54643D01*
X74587Y-57685D02*
X74587Y-57094D01*
X75000Y-57685D02*
X75000Y-57094D01*
X73061Y-56729D02*
X73061Y-57320D01*
X72648Y-56729D02*
X72648Y-57320D01*
X75356Y-55450D02*
X75356Y-56041D01*
X74943Y-55450D02*
X74943Y-56041D01*
X75073Y-57325D02*
X75073Y-56734D01*
X75486Y-57325D02*
X75486Y-56734D01*
X69880Y-44364D02*
X69880Y-44955D01*
X69467Y-44364D02*
X69467Y-44955D01*
X71681Y-43702D02*
X71288Y-43702D01*
X71681Y-43407D02*
X71288Y-43407D01*
X72982Y-59495D02*
X73375Y-59495D01*
X72982Y-59790D02*
X73375Y-59790D01*
X70687Y-56795D02*
X70687Y-57188D01*
X70392Y-56795D02*
X70392Y-57188D01*
X68899Y-53592D02*
X69292Y-53592D01*
X68899Y-53887D02*
X69292Y-53887D01*
X76183Y-53297D02*
X76183Y-53690D01*
X75888Y-53297D02*
X75888Y-53690D01*
X71113Y-44993D02*
X71113Y-45386D01*
X70818Y-44993D02*
X70818Y-45386D01*
X68237Y-62368D02*
X68630Y-62368D01*
X68237Y-62663D02*
X68630Y-62663D01*
X69571Y-62347D02*
X69571Y-62740D01*
X69276Y-62347D02*
X69276Y-62740D01*
X68938Y-62305D02*
X68545Y-62305D01*
X68938Y-62010D02*
X68545Y-62010D01*
X72007Y-45140D02*
X72400Y-45140D01*
X72007Y-45435D02*
X72400Y-45435D01*
X72233Y-56118D02*
X72626Y-56118D01*
X72233Y-56413D02*
X72626Y-56413D01*
X73115Y-57840D02*
X73508Y-57840D01*
X73115Y-58135D02*
X73508Y-58135D01*
X72391Y-57795D02*
X72391Y-58188D01*
X72096Y-57795D02*
X72096Y-58188D01*
X73877Y-55076D02*
X74270Y-55076D01*
X73877Y-55371D02*
X74270Y-55371D01*
X74075Y-54240D02*
X74468Y-54240D01*
X74075Y-54535D02*
X74468Y-54535D01*
X71240Y-46897D02*
X70847Y-46897D01*
X71240Y-46602D02*
X70847Y-46602D01*
X75483Y-61400D02*
X75876Y-61400D01*
X75483Y-61695D02*
X75876Y-61695D01*
X75619Y-61792D02*
X76012Y-61792D01*
X75619Y-62087D02*
X76012Y-62087D01*
X67950Y-53907D02*
X68305Y-53907D01*
X68305Y-54320D02*
X67950Y-54320D01*
X68246Y-54232D02*
X68246Y-53995D01*
X68246Y-53995D02*
X68009Y-53995D01*
X68009Y-53995D02*
X68009Y-54232D01*
X68009Y-54232D02*
X68246Y-54232D01*
X68423Y-54743D02*
X68423Y-53484D01*
X68423Y-53484D02*
X67832Y-53484D01*
X67832Y-53484D02*
X67832Y-54743D01*
X67832Y-54743D02*
X68423Y-54743D01*
X78455Y-62309D02*
X78455Y-61561D01*
X77884Y-62309D02*
X77884Y-61561D01*
X77388Y-44240D02*
X77388Y-44831D01*
X76975Y-44240D02*
X76975Y-44831D01*
X74055Y-61596D02*
X73464Y-61596D01*
X74055Y-61183D02*
X73464Y-61183D01*
X67570Y-56035D02*
X68161Y-56035D01*
X67570Y-56448D02*
X68161Y-56448D01*
X68320Y-55217D02*
X67927Y-55217D01*
X68320Y-54922D02*
X67927Y-54922D01*
X68693Y-53154D02*
X69086Y-53154D01*
X68693Y-53449D02*
X69086Y-53449D01*
X74266Y-47713D02*
X73873Y-47713D01*
X74266Y-47418D02*
X73873Y-47418D01*
X68265Y-43925D02*
X68265Y-44318D01*
X67970Y-43925D02*
X67970Y-44318D01*
X70178Y-46828D02*
X70178Y-46435D01*
X70473Y-46828D02*
X70473Y-46435D01*
X68275Y-57533D02*
X68275Y-57926D01*
X67980Y-57533D02*
X67980Y-57926D01*
X67653Y-49885D02*
X67653Y-50278D01*
X67358Y-49885D02*
X67358Y-50278D01*
X68219Y-46059D02*
X68219Y-46452D01*
X67924Y-46059D02*
X67924Y-46452D01*
X67988Y-58726D02*
X67988Y-58333D01*
X68283Y-58726D02*
X68283Y-58333D01*
X68067Y-49957D02*
X68067Y-50350D01*
X67772Y-49957D02*
X67772Y-50350D01*
X67930Y-47660D02*
X67930Y-47267D01*
X68225Y-47660D02*
X68225Y-47267D01*
X67597Y-44886D02*
X67990Y-44886D01*
X67597Y-45181D02*
X67990Y-45181D01*
G54D14*
X70154Y-51453D02*
X73698Y-51453D01*
X73698Y-51453D02*
X73698Y-47123D01*
X73698Y-47123D02*
X70154Y-47123D01*
X70154Y-47123D02*
X70154Y-51453D01*
G54D10*
X74693Y-50046D02*
X75086Y-50046D01*
X74693Y-50341D02*
X75086Y-50341D01*
X74689Y-49562D02*
X75082Y-49562D01*
X74689Y-49857D02*
X75082Y-49857D01*
G54D15*
G36*
X76499Y-48984D02*
X76500Y-48985D01*
X76513Y-48981D01*
X76541Y-48972D01*
X76580Y-48957D01*
X76627Y-48939D01*
X76653Y-48928D01*
X76708Y-48907D01*
X76750Y-48891D01*
X76783Y-48881D01*
X76813Y-48874D01*
X76846Y-48871D01*
X76885Y-48868D01*
X76914Y-48867D01*
X76974Y-48866D01*
X77030Y-48869D01*
X77077Y-48873D01*
X77114Y-48880D01*
X77135Y-48889D01*
X77140Y-48896D01*
X77132Y-48910D01*
X77109Y-48932D01*
X77080Y-48955D01*
X77063Y-48968D01*
X77062Y-48979D01*
X77074Y-48994D01*
X77074Y-48994D01*
X77107Y-49016D01*
X77150Y-49021D01*
X77202Y-49009D01*
X77208Y-49007D01*
X77240Y-48995D01*
X77262Y-48992D01*
X77280Y-48997D01*
X77288Y-49000D01*
X77327Y-49013D01*
X77372Y-49019D01*
X77408Y-49018D01*
X77426Y-49009D01*
X77427Y-48993D01*
X77413Y-48972D01*
X77404Y-48963D01*
X77401Y-48955D01*
X77405Y-48947D01*
X77420Y-48934D01*
X77448Y-48914D01*
X77462Y-48903D01*
X77485Y-48886D01*
X77452Y-48875D01*
X77428Y-48861D01*
X77422Y-48847D01*
X77431Y-48835D01*
X77452Y-48814D01*
X77483Y-48787D01*
X77492Y-48779D01*
X77492Y-48237D01*
X77497Y-48227D01*
X77504Y-48225D01*
X77518Y-48233D01*
X77520Y-48241D01*
X77514Y-48252D01*
X77502Y-48250D01*
X77492Y-48237D01*
X77492Y-48779D01*
X77510Y-48765D01*
X77571Y-48713D01*
X77613Y-48663D01*
X77639Y-48614D01*
X77648Y-48562D01*
X77642Y-48505D01*
X77630Y-48463D01*
X77618Y-48427D01*
X77613Y-48405D01*
X77614Y-48392D01*
X77620Y-48381D01*
X77625Y-48374D01*
X77638Y-48356D01*
X77635Y-48340D01*
X77632Y-48335D01*
X77621Y-48311D01*
X77627Y-48294D01*
X77645Y-48283D01*
X77665Y-48271D01*
X77667Y-48259D01*
X77650Y-48246D01*
X77637Y-48239D01*
X77613Y-48224D01*
X77597Y-48209D01*
X77597Y-48208D01*
X77574Y-48187D01*
X77538Y-48173D01*
X77494Y-48167D01*
X77447Y-48168D01*
X77405Y-48179D01*
X77386Y-48188D01*
X77347Y-48215D01*
X77321Y-48247D01*
X77307Y-48288D01*
X77302Y-48335D01*
X77295Y-48385D01*
X77282Y-48417D01*
X77258Y-48436D01*
X77220Y-48444D01*
X77196Y-48445D01*
X77164Y-48444D01*
X77132Y-48440D01*
X77098Y-48431D01*
X77056Y-48417D01*
X77004Y-48397D01*
X76947Y-48374D01*
X76902Y-48355D01*
X76864Y-48341D01*
X76835Y-48332D01*
X76821Y-48330D01*
X76820Y-48330D01*
X76819Y-48341D01*
X76828Y-48365D01*
X76840Y-48390D01*
X76858Y-48423D01*
X76861Y-48443D01*
X76851Y-48452D01*
X76826Y-48451D01*
X76815Y-48449D01*
X76791Y-48447D01*
X76781Y-48452D01*
X76780Y-48457D01*
X76786Y-48477D01*
X76802Y-48505D01*
X76825Y-48536D01*
X76849Y-48565D01*
X76870Y-48585D01*
X76871Y-48586D01*
X76894Y-48610D01*
X76898Y-48637D01*
X76882Y-48666D01*
X76865Y-48683D01*
X76835Y-48704D01*
X76799Y-48717D01*
X76753Y-48722D01*
X76696Y-48720D01*
X76633Y-48713D01*
X76590Y-48708D01*
X76554Y-48705D01*
X76531Y-48705D01*
X76524Y-48707D01*
X76529Y-48716D01*
X76547Y-48731D01*
X76574Y-48750D01*
X76603Y-48769D01*
X76623Y-48784D01*
X76630Y-48791D01*
X76624Y-48801D01*
X76608Y-48822D01*
X76586Y-48848D01*
X76556Y-48885D01*
X76531Y-48921D01*
X76511Y-48951D01*
X76500Y-48974D01*
X76499Y-48984D01*
X76499Y-48984D01*
X76499Y-48984D01*
G37*
G36*
X75823Y-48011D02*
X75823Y-48012D01*
X75833Y-48009D01*
X75857Y-48000D01*
X75892Y-47986D01*
X75925Y-47971D01*
X75995Y-47941D01*
X76050Y-47919D01*
X76095Y-47903D01*
X76135Y-47892D01*
X76174Y-47886D01*
X76216Y-47883D01*
X76264Y-47881D01*
X76280Y-47881D01*
X76348Y-47883D01*
X76404Y-47887D01*
X76446Y-47894D01*
X76472Y-47904D01*
X76480Y-47915D01*
X76472Y-47925D01*
X76453Y-47942D01*
X76440Y-47952D01*
X76412Y-47974D01*
X76402Y-47992D01*
X76408Y-48007D01*
X76422Y-48019D01*
X76456Y-48032D01*
X76499Y-48034D01*
X76548Y-48024D01*
X76556Y-48022D01*
X76586Y-48013D01*
X76609Y-48015D01*
X76625Y-48021D01*
X76653Y-48029D01*
X76690Y-48034D01*
X76707Y-48034D01*
X76739Y-48034D01*
X76755Y-48029D01*
X76760Y-48020D01*
X76760Y-48018D01*
X76753Y-47998D01*
X76744Y-47984D01*
X76736Y-47973D01*
X76738Y-47963D01*
X76754Y-47950D01*
X76770Y-47940D01*
X76797Y-47919D01*
X76806Y-47902D01*
X76797Y-47891D01*
X76782Y-47887D01*
X76766Y-47881D01*
X76762Y-47871D01*
X76770Y-47854D01*
X76792Y-47830D01*
X76828Y-47797D01*
X76830Y-47794D01*
X76830Y-47260D01*
X76836Y-47244D01*
X76839Y-47240D01*
X76851Y-47241D01*
X76858Y-47253D01*
X76855Y-47265D01*
X76842Y-47275D01*
X76832Y-47269D01*
X76830Y-47260D01*
X76830Y-47794D01*
X76879Y-47754D01*
X76892Y-47743D01*
X76939Y-47693D01*
X76968Y-47635D01*
X76979Y-47570D01*
X76972Y-47501D01*
X76960Y-47464D01*
X76950Y-47435D01*
X76946Y-47417D01*
X76950Y-47406D01*
X76960Y-47394D01*
X76976Y-47376D01*
X76978Y-47364D01*
X76965Y-47349D01*
X76965Y-47348D01*
X76951Y-47329D01*
X76957Y-47314D01*
X76975Y-47303D01*
X76996Y-47288D01*
X76997Y-47272D01*
X76978Y-47256D01*
X76965Y-47249D01*
X76939Y-47235D01*
X76922Y-47218D01*
X76920Y-47216D01*
X76900Y-47198D01*
X76867Y-47187D01*
X76825Y-47183D01*
X76781Y-47186D01*
X76739Y-47196D01*
X76723Y-47203D01*
X76678Y-47234D01*
X76649Y-47273D01*
X76636Y-47323D01*
X76634Y-47351D01*
X76632Y-47391D01*
X76627Y-47416D01*
X76617Y-47432D01*
X76598Y-47446D01*
X76588Y-47451D01*
X76552Y-47462D01*
X76506Y-47461D01*
X76449Y-47450D01*
X76379Y-47426D01*
X76349Y-47415D01*
X76282Y-47388D01*
X76231Y-47368D01*
X76195Y-47356D01*
X76171Y-47348D01*
X76158Y-47347D01*
X76153Y-47348D01*
X76155Y-47359D01*
X76164Y-47382D01*
X76174Y-47399D01*
X76189Y-47426D01*
X76198Y-47447D01*
X76200Y-47454D01*
X76191Y-47461D01*
X76169Y-47465D01*
X76160Y-47465D01*
X76132Y-47467D01*
X76121Y-47475D01*
X76120Y-47481D01*
X76126Y-47501D01*
X76143Y-47530D01*
X76166Y-47561D01*
X76191Y-47589D01*
X76210Y-47605D01*
X76230Y-47624D01*
X76240Y-47642D01*
X76240Y-47645D01*
X76234Y-47661D01*
X76218Y-47683D01*
X76198Y-47706D01*
X76180Y-47722D01*
X76172Y-47725D01*
X76159Y-47727D01*
X76133Y-47732D01*
X76123Y-47734D01*
X76088Y-47737D01*
X76039Y-47735D01*
X75983Y-47729D01*
X75940Y-47723D01*
X75904Y-47719D01*
X75880Y-47716D01*
X75873Y-47715D01*
X75863Y-47720D01*
X75868Y-47732D01*
X75883Y-47747D01*
X75906Y-47763D01*
X75909Y-47764D01*
X75944Y-47784D01*
X75960Y-47801D01*
X75960Y-47819D01*
X75944Y-47843D01*
X75932Y-47857D01*
X75911Y-47882D01*
X75887Y-47913D01*
X75863Y-47945D01*
X75843Y-47975D01*
X75829Y-47998D01*
X75823Y-48011D01*
X75823Y-48011D01*
X75823Y-48011D01*
G37*
G36*
X77224Y-47971D02*
X77231Y-47973D01*
X77253Y-47967D01*
X77285Y-47954D01*
X77299Y-47948D01*
X77346Y-47928D01*
X77401Y-47906D01*
X77455Y-47886D01*
X77465Y-47883D01*
X77510Y-47869D01*
X77549Y-47860D01*
X77588Y-47854D01*
X77635Y-47852D01*
X77665Y-47852D01*
X77724Y-47853D01*
X77777Y-47858D01*
X77819Y-47864D01*
X77847Y-47873D01*
X77860Y-47883D01*
X77860Y-47884D01*
X77853Y-47896D01*
X77835Y-47914D01*
X77822Y-47927D01*
X77796Y-47952D01*
X77789Y-47971D01*
X77799Y-47987D01*
X77820Y-48000D01*
X77840Y-48009D01*
X77856Y-48013D01*
X77877Y-48011D01*
X77907Y-48004D01*
X77929Y-47998D01*
X77969Y-47990D01*
X77998Y-47991D01*
X78013Y-47994D01*
X78041Y-48001D01*
X78074Y-48004D01*
X78107Y-48004D01*
X78134Y-48002D01*
X78149Y-47996D01*
X78150Y-47993D01*
X78144Y-47977D01*
X78133Y-47962D01*
X78121Y-47947D01*
X78123Y-47938D01*
X78134Y-47931D01*
X78170Y-47907D01*
X78192Y-47887D01*
X78198Y-47872D01*
X78188Y-47865D01*
X78181Y-47865D01*
X78160Y-47859D01*
X78152Y-47852D01*
X78147Y-47841D01*
X78153Y-47826D01*
X78170Y-47806D01*
X78201Y-47779D01*
X78218Y-47765D01*
X78218Y-47230D01*
X78226Y-47218D01*
X78229Y-47217D01*
X78238Y-47222D01*
X78240Y-47230D01*
X78235Y-47242D01*
X78229Y-47243D01*
X78219Y-47233D01*
X78218Y-47230D01*
X78218Y-47765D01*
X78236Y-47751D01*
X78298Y-47696D01*
X78339Y-47640D01*
X78362Y-47581D01*
X78365Y-47518D01*
X78350Y-47451D01*
X78339Y-47417D01*
X78335Y-47396D01*
X78338Y-47382D01*
X78346Y-47367D01*
X78356Y-47346D01*
X78353Y-47327D01*
X78349Y-47318D01*
X78341Y-47298D01*
X78346Y-47286D01*
X78354Y-47279D01*
X78374Y-47267D01*
X78384Y-47262D01*
X78388Y-47254D01*
X78380Y-47240D01*
X78367Y-47229D01*
X78355Y-47225D01*
X78340Y-47218D01*
X78324Y-47203D01*
X78285Y-47174D01*
X78236Y-47158D01*
X78182Y-47157D01*
X78128Y-47169D01*
X78110Y-47177D01*
X78064Y-47209D01*
X78035Y-47248D01*
X78021Y-47300D01*
X78020Y-47327D01*
X78019Y-47363D01*
X78013Y-47386D01*
X78002Y-47403D01*
X77995Y-47409D01*
X77968Y-47427D01*
X77941Y-47437D01*
X77897Y-47437D01*
X77840Y-47425D01*
X77772Y-47404D01*
X77695Y-47372D01*
X77691Y-47371D01*
X77647Y-47351D01*
X77605Y-47334D01*
X77573Y-47323D01*
X77557Y-47318D01*
X77526Y-47312D01*
X77558Y-47368D01*
X77574Y-47398D01*
X77586Y-47420D01*
X77590Y-47430D01*
X77581Y-47433D01*
X77558Y-47435D01*
X77544Y-47435D01*
X77517Y-47436D01*
X77504Y-47440D01*
X77504Y-47450D01*
X77506Y-47458D01*
X77513Y-47475D01*
X77524Y-47494D01*
X77544Y-47518D01*
X77574Y-47551D01*
X77588Y-47566D01*
X77632Y-47612D01*
X77616Y-47644D01*
X77591Y-47676D01*
X77555Y-47697D01*
X77505Y-47709D01*
X77441Y-47710D01*
X77361Y-47702D01*
X77351Y-47701D01*
X77308Y-47695D01*
X77272Y-47690D01*
X77249Y-47689D01*
X77243Y-47689D01*
X77243Y-47692D01*
X77249Y-47699D01*
X77264Y-47712D01*
X77290Y-47733D01*
X77329Y-47763D01*
X77333Y-47767D01*
X77355Y-47783D01*
X77313Y-47833D01*
X77282Y-47871D01*
X77256Y-47909D01*
X77235Y-47943D01*
X77225Y-47967D01*
X77224Y-47971D01*
X77224Y-47971D01*
X77224Y-47971D01*
G37*
G36*
X73681Y-45357D02*
X73683Y-45369D01*
X73685Y-45378D01*
X73697Y-45401D01*
X73717Y-45420D01*
X73737Y-45429D01*
X73749Y-45436D01*
X73754Y-45444D01*
X73751Y-45454D01*
X73738Y-45466D01*
X73720Y-45480D01*
X73709Y-45487D01*
X73719Y-45517D01*
X73726Y-45537D01*
X73731Y-45558D01*
X73733Y-45568D01*
X73736Y-45581D01*
X73744Y-45600D01*
X73754Y-45624D01*
X73766Y-45649D01*
X73771Y-45659D01*
X73789Y-45694D01*
X73805Y-45721D01*
X73821Y-45743D01*
X73838Y-45762D01*
X73858Y-45780D01*
X73859Y-45781D01*
X73872Y-45795D01*
X73875Y-45810D01*
X73867Y-45824D01*
X73859Y-45832D01*
X73849Y-45841D01*
X73844Y-45851D01*
X73843Y-45865D01*
X73843Y-45868D01*
X73846Y-45891D01*
X73855Y-45920D01*
X73862Y-45938D01*
X73872Y-45963D01*
X73884Y-45993D01*
X73894Y-46022D01*
X73899Y-46035D01*
X73909Y-46063D01*
X73919Y-46085D01*
X73930Y-46101D01*
X73937Y-46110D01*
X73971Y-46147D01*
X74000Y-46176D01*
X74024Y-46198D01*
X74043Y-46211D01*
X74046Y-46213D01*
X74069Y-46230D01*
X74085Y-46249D01*
X74097Y-46266D01*
X74112Y-46282D01*
X74119Y-46288D01*
X74127Y-46294D01*
X74135Y-46298D01*
X74145Y-46301D01*
X74158Y-46303D01*
X74178Y-46304D01*
X74205Y-46305D01*
X74236Y-46307D01*
X74259Y-46309D01*
X74277Y-46312D01*
X74290Y-46317D01*
X74296Y-46319D01*
X74313Y-46329D01*
X74328Y-46342D01*
X74338Y-46354D01*
X74340Y-46363D01*
X74344Y-46372D01*
X74356Y-46379D01*
X74371Y-46384D01*
X74380Y-46385D01*
X74398Y-46388D01*
X74407Y-46394D01*
X74419Y-46405D01*
X74436Y-46416D01*
X74455Y-46427D01*
X74472Y-46435D01*
X74486Y-46440D01*
X74488Y-46440D01*
X74502Y-46438D01*
X74519Y-46433D01*
X74523Y-46432D01*
X74540Y-46427D01*
X74552Y-46426D01*
X74560Y-46433D01*
X74567Y-46447D01*
X74569Y-46452D01*
X74577Y-46468D01*
X74586Y-46479D01*
X74590Y-46482D01*
X74605Y-46482D01*
X74623Y-46472D01*
X74645Y-46454D01*
X74664Y-46436D01*
X74678Y-46420D01*
X74688Y-46411D01*
X74695Y-46407D01*
X74699Y-46408D01*
X74702Y-46410D01*
X74709Y-46422D01*
X74717Y-46442D01*
X74724Y-46468D01*
X74730Y-46498D01*
X74731Y-46500D01*
X74734Y-46518D01*
X74734Y-46531D01*
X74732Y-46540D01*
X74727Y-46549D01*
X74723Y-46555D01*
X74704Y-46578D01*
X74676Y-46601D01*
X74641Y-46623D01*
X74618Y-46636D01*
X74596Y-46647D01*
X74575Y-46660D01*
X74559Y-46671D01*
X74556Y-46674D01*
X74545Y-46681D01*
X74527Y-46692D01*
X74504Y-46705D01*
X74476Y-46720D01*
X74445Y-46736D01*
X74431Y-46743D01*
X74383Y-46768D01*
X74343Y-46789D01*
X74310Y-46807D01*
X74283Y-46822D01*
X74262Y-46835D01*
X74246Y-46847D01*
X74233Y-46858D01*
X74223Y-46868D01*
X74214Y-46880D01*
X74207Y-46892D01*
X74206Y-46893D01*
X74194Y-46914D01*
X74181Y-46935D01*
X74172Y-46947D01*
X74161Y-46964D01*
X74156Y-46977D01*
X74157Y-46988D01*
X74164Y-47001D01*
X74165Y-47003D01*
X74177Y-47017D01*
X74192Y-47023D01*
X74203Y-47025D01*
X74209Y-47030D01*
X74210Y-47041D01*
X74210Y-47047D01*
X74212Y-47069D01*
X74219Y-47094D01*
X74228Y-47117D01*
X74239Y-47136D01*
X74243Y-47141D01*
X74258Y-47151D01*
X74280Y-47160D01*
X74306Y-47168D01*
X74334Y-47173D01*
X74361Y-47174D01*
X74368Y-47174D01*
X74386Y-47174D01*
X74398Y-47175D01*
X74407Y-47180D01*
X74411Y-47184D01*
X74422Y-47192D01*
X74433Y-47194D01*
X74445Y-47189D01*
X74459Y-47180D01*
X74475Y-47169D01*
X74485Y-47165D01*
X74490Y-47168D01*
X74491Y-47171D01*
X74492Y-47181D01*
X74492Y-47183D01*
X74494Y-47192D01*
X74494Y-47193D01*
X74500Y-47199D01*
X74512Y-47204D01*
X74527Y-47208D01*
X74542Y-47208D01*
X74548Y-47208D01*
X74565Y-47204D01*
X74565Y-47225D01*
X74567Y-47240D01*
X74572Y-47248D01*
X74572Y-47248D01*
X74583Y-47247D01*
X74597Y-47241D01*
X74613Y-47231D01*
X74627Y-47218D01*
X74634Y-47210D01*
X74643Y-47198D01*
X74652Y-47192D01*
X74655Y-47191D01*
X74662Y-47196D01*
X74671Y-47207D01*
X74679Y-47217D01*
X74689Y-47232D01*
X74697Y-47244D01*
X74701Y-47249D01*
X74710Y-47254D01*
X74724Y-47252D01*
X74744Y-47244D01*
X74772Y-47229D01*
X74775Y-47227D01*
X74794Y-47216D01*
X74807Y-47210D01*
X74818Y-47207D01*
X74830Y-47207D01*
X74845Y-47208D01*
X74846Y-47208D01*
X74864Y-47209D01*
X74876Y-47209D01*
X74884Y-47205D01*
X74892Y-47199D01*
X74902Y-47187D01*
X74911Y-47170D01*
X74912Y-47168D01*
X74919Y-47147D01*
X74954Y-47146D01*
X74983Y-47147D01*
X75005Y-47151D01*
X75007Y-47152D01*
X75018Y-47156D01*
X75026Y-47156D01*
X75033Y-47150D01*
X75040Y-47142D01*
X75049Y-47130D01*
X75061Y-47113D01*
X75074Y-47093D01*
X75081Y-47082D01*
X75092Y-47064D01*
X75102Y-47049D01*
X75109Y-47039D01*
X75111Y-47037D01*
X75116Y-47039D01*
X75121Y-47049D01*
X75127Y-47067D01*
X75132Y-47090D01*
X75135Y-47108D01*
X75138Y-47128D01*
X75142Y-47146D01*
X75145Y-47158D01*
X75146Y-47159D01*
X75151Y-47168D01*
X75161Y-47175D01*
X75177Y-47181D01*
X75198Y-47184D01*
X75228Y-47187D01*
X75266Y-47189D01*
X75268Y-47189D01*
X75348Y-47191D01*
X75354Y-47232D01*
X75358Y-47256D01*
X75364Y-47272D01*
X75371Y-47281D01*
X75383Y-47286D01*
X75400Y-47286D01*
X75404Y-47286D01*
X75429Y-47287D01*
X75447Y-47296D01*
X75460Y-47311D01*
X75466Y-47327D01*
X75477Y-47352D01*
X75496Y-47371D01*
X75523Y-47384D01*
X75557Y-47392D01*
X75560Y-47393D01*
X75588Y-47396D01*
X75572Y-47383D01*
X75548Y-47357D01*
X75529Y-47324D01*
X75520Y-47300D01*
X75515Y-47283D01*
X75512Y-47271D01*
X75512Y-47267D01*
X75517Y-47267D01*
X75529Y-47270D01*
X75546Y-47274D01*
X75550Y-47276D01*
X75582Y-47283D01*
X75609Y-47284D01*
X75611Y-47284D01*
X75623Y-47283D01*
X75630Y-47284D01*
X75634Y-47289D01*
X75635Y-47299D01*
X75633Y-47317D01*
X75631Y-47334D01*
X75629Y-47349D01*
X75629Y-47357D01*
X75633Y-47360D01*
X75640Y-47360D01*
X75660Y-47358D01*
X75679Y-47351D01*
X75694Y-47343D01*
X75698Y-47338D01*
X75701Y-47331D01*
X75702Y-47322D01*
X75701Y-47309D01*
X75698Y-47295D01*
X75689Y-47260D01*
X75679Y-47234D01*
X75668Y-47217D01*
X75654Y-47206D01*
X75642Y-47202D01*
X75630Y-47198D01*
X75625Y-47191D01*
X75625Y-47188D01*
X75623Y-47175D01*
X75617Y-47166D01*
X75605Y-47160D01*
X75585Y-47158D01*
X75569Y-47157D01*
X75540Y-47155D01*
X75509Y-47150D01*
X75471Y-47141D01*
X75466Y-47140D01*
X75405Y-47124D01*
X75405Y-47093D01*
X75403Y-47054D01*
X75397Y-47017D01*
X75385Y-46980D01*
X75369Y-46943D01*
X75358Y-46917D01*
X75349Y-46893D01*
X75343Y-46873D01*
X75341Y-46864D01*
X75340Y-46849D01*
X75342Y-46841D01*
X75348Y-46837D01*
X75353Y-46835D01*
X75367Y-46832D01*
X75383Y-46836D01*
X75400Y-46846D01*
X75420Y-46863D01*
X75433Y-46876D01*
X75453Y-46896D01*
X75473Y-46911D01*
X75493Y-46922D01*
X75517Y-46931D01*
X75546Y-46939D01*
X75582Y-46946D01*
X75611Y-46952D01*
X75632Y-46957D01*
X75645Y-46962D01*
X75653Y-46970D01*
X75655Y-46981D01*
X75654Y-46996D01*
X75652Y-47009D01*
X75649Y-47031D01*
X75651Y-47049D01*
X75658Y-47066D01*
X75672Y-47084D01*
X75688Y-47099D01*
X75711Y-47119D01*
X75732Y-47131D01*
X75751Y-47135D01*
X75771Y-47130D01*
X75792Y-47118D01*
X75794Y-47117D01*
X75807Y-47107D01*
X75817Y-47097D01*
X75823Y-47088D01*
X75823Y-47082D01*
X75818Y-47082D01*
X75810Y-47085D01*
X75797Y-47089D01*
X75778Y-47091D01*
X75759Y-47091D01*
X75743Y-47088D01*
X75741Y-47088D01*
X75730Y-47079D01*
X75723Y-47062D01*
X75721Y-47036D01*
X75721Y-47017D01*
X75722Y-46997D01*
X75725Y-46984D01*
X75729Y-46975D01*
X75735Y-46969D01*
X75750Y-46961D01*
X75765Y-46962D01*
X75780Y-46973D01*
X75785Y-46978D01*
X75801Y-47001D01*
X75809Y-47021D01*
X75808Y-47033D01*
X75807Y-47044D01*
X75811Y-47046D01*
X75819Y-47041D01*
X75832Y-47028D01*
X75838Y-47021D01*
X75851Y-47003D01*
X75858Y-46987D01*
X75858Y-46973D01*
X75853Y-46956D01*
X75853Y-46954D01*
X75852Y-46950D01*
X75855Y-46947D01*
X75863Y-46944D01*
X75877Y-46942D01*
X75898Y-46940D01*
X75923Y-46937D01*
X75958Y-46934D01*
X75956Y-46969D01*
X75956Y-46988D01*
X75957Y-47003D01*
X75959Y-47013D01*
X75963Y-47018D01*
X75968Y-47016D01*
X75973Y-47011D01*
X75983Y-46998D01*
X75993Y-46980D01*
X76003Y-46959D01*
X76011Y-46940D01*
X76015Y-46925D01*
X76015Y-46920D01*
X76010Y-46905D01*
X75998Y-46888D01*
X75978Y-46872D01*
X75957Y-46859D01*
X75947Y-46855D01*
X75937Y-46852D01*
X75926Y-46850D01*
X75912Y-46849D01*
X75892Y-46849D01*
X75865Y-46850D01*
X75860Y-46850D01*
X75804Y-46851D01*
X75758Y-46851D01*
X75722Y-46849D01*
X75695Y-46846D01*
X75677Y-46842D01*
X75668Y-46837D01*
X75664Y-46829D01*
X75659Y-46814D01*
X75655Y-46795D01*
X75653Y-46785D01*
X75646Y-46750D01*
X75639Y-46722D01*
X75631Y-46700D01*
X75620Y-46681D01*
X75605Y-46663D01*
X75586Y-46645D01*
X75560Y-46623D01*
X75559Y-46623D01*
X75537Y-46605D01*
X75522Y-46590D01*
X75512Y-46578D01*
X75505Y-46565D01*
X75500Y-46550D01*
X75499Y-46543D01*
X75496Y-46528D01*
X75496Y-46517D01*
X75499Y-46506D01*
X75505Y-46491D01*
X75510Y-46483D01*
X75524Y-46459D01*
X75542Y-46439D01*
X75565Y-46421D01*
X75595Y-46404D01*
X75628Y-46389D01*
X75677Y-46369D01*
X75721Y-46414D01*
X75739Y-46433D01*
X75751Y-46447D01*
X75759Y-46458D01*
X75763Y-46467D01*
X75765Y-46477D01*
X75766Y-46486D01*
X75771Y-46507D01*
X75780Y-46521D01*
X75791Y-46527D01*
X75804Y-46525D01*
X75818Y-46517D01*
X75831Y-46502D01*
X75842Y-46482D01*
X75850Y-46457D01*
X75851Y-46451D01*
X75853Y-46434D01*
X75854Y-46418D01*
X75852Y-46398D01*
X75849Y-46371D01*
X75848Y-46367D01*
X75844Y-46335D01*
X75841Y-46311D01*
X75841Y-46292D01*
X75842Y-46274D01*
X75845Y-46255D01*
X75848Y-46242D01*
X75852Y-46222D01*
X75853Y-46204D01*
X75853Y-46192D01*
X75847Y-46177D01*
X75836Y-46157D01*
X75820Y-46134D01*
X75801Y-46110D01*
X75780Y-46086D01*
X75768Y-46073D01*
X75748Y-46055D01*
X75729Y-46041D01*
X75708Y-46030D01*
X75691Y-46023D01*
X75665Y-46011D01*
X75647Y-46003D01*
X75635Y-45996D01*
X75629Y-45989D01*
X75626Y-45981D01*
X75625Y-45972D01*
X75625Y-45972D01*
X75627Y-45960D01*
X75632Y-45941D01*
X75641Y-45916D01*
X75652Y-45887D01*
X75657Y-45872D01*
X75690Y-45791D01*
X75690Y-45737D01*
X75690Y-45715D01*
X75691Y-45696D01*
X75693Y-45680D01*
X75697Y-45664D01*
X75704Y-45645D01*
X75714Y-45622D01*
X75728Y-45594D01*
X75735Y-45579D01*
X75762Y-45528D01*
X75793Y-45486D01*
X75827Y-45453D01*
X75833Y-45449D01*
X75845Y-45440D01*
X75865Y-45427D01*
X75888Y-45412D01*
X75915Y-45396D01*
X75934Y-45384D01*
X75960Y-45368D01*
X75985Y-45352D01*
X76006Y-45338D01*
X76022Y-45326D01*
X76029Y-45320D01*
X76046Y-45300D01*
X76056Y-45278D01*
X76060Y-45258D01*
X76058Y-45239D01*
X76048Y-45226D01*
X76039Y-45217D01*
X76035Y-45210D01*
X76038Y-45203D01*
X76044Y-45190D01*
X76053Y-45173D01*
X76062Y-45158D01*
X76080Y-45126D01*
X76095Y-45100D01*
X76106Y-45077D01*
X76115Y-45055D01*
X76123Y-45030D01*
X76132Y-45001D01*
X76132Y-45001D01*
X76141Y-44969D01*
X76149Y-44935D01*
X76157Y-44903D01*
X76163Y-44873D01*
X76168Y-44848D01*
X76170Y-44830D01*
X76170Y-44825D01*
X76167Y-44812D01*
X76162Y-44805D01*
X76149Y-44799D01*
X76131Y-44800D01*
X76111Y-44805D01*
X76093Y-44815D01*
X76084Y-44823D01*
X76080Y-44831D01*
X76074Y-44847D01*
X76067Y-44868D01*
X76060Y-44893D01*
X76057Y-44905D01*
X76038Y-44977D01*
X76035Y-44927D01*
X76033Y-44901D01*
X76030Y-44882D01*
X76026Y-44866D01*
X76019Y-44850D01*
X76018Y-44847D01*
X76004Y-44823D01*
X75990Y-44805D01*
X75976Y-44797D01*
X75965Y-44796D01*
X75955Y-44805D01*
X75954Y-44806D01*
X75952Y-44816D01*
X75949Y-44835D01*
X75947Y-44863D01*
X75946Y-44900D01*
X75945Y-44909D01*
X75943Y-45001D01*
X75923Y-44955D01*
X75911Y-44929D01*
X75901Y-44912D01*
X75891Y-44903D01*
X75883Y-44903D01*
X75874Y-44910D01*
X75874Y-44910D01*
X75871Y-44915D01*
X75868Y-44923D01*
X75867Y-44934D01*
X75866Y-44950D01*
X75865Y-44974D01*
X75865Y-44999D01*
X75865Y-45077D01*
X75851Y-45061D01*
X75833Y-45046D01*
X75815Y-45036D01*
X75799Y-45031D01*
X75793Y-45032D01*
X75783Y-45039D01*
X75774Y-45051D01*
X75767Y-45066D01*
X75765Y-45077D01*
X75764Y-45082D01*
X75759Y-45080D01*
X75751Y-45075D01*
X75740Y-45068D01*
X75730Y-45067D01*
X75717Y-45069D01*
X75698Y-45077D01*
X75686Y-45088D01*
X75682Y-45100D01*
X75682Y-45104D01*
X75684Y-45109D01*
X75682Y-45113D01*
X75676Y-45117D01*
X75664Y-45120D01*
X75644Y-45124D01*
X75639Y-45125D01*
X75623Y-45129D01*
X75609Y-45135D01*
X75604Y-45138D01*
X75600Y-45149D01*
X75598Y-45168D01*
X75597Y-45187D01*
X75596Y-45216D01*
X75591Y-45236D01*
X75584Y-45247D01*
X75576Y-45250D01*
X75566Y-45252D01*
X75552Y-45258D01*
X75542Y-45263D01*
X75513Y-45274D01*
X75493Y-45277D01*
X75478Y-45278D01*
X75467Y-45283D01*
X75460Y-45291D01*
X75457Y-45304D01*
X75456Y-45324D01*
X75459Y-45352D01*
X75463Y-45384D01*
X75465Y-45398D01*
X75464Y-45404D01*
X75460Y-45404D01*
X75457Y-45403D01*
X75426Y-45393D01*
X75401Y-45392D01*
X75380Y-45399D01*
X75365Y-45413D01*
X75362Y-45417D01*
X75358Y-45426D01*
X75356Y-45435D01*
X75356Y-45444D01*
X75358Y-45459D01*
X75361Y-45475D01*
X75370Y-45516D01*
X75358Y-45539D01*
X75351Y-45558D01*
X75345Y-45577D01*
X75344Y-45584D01*
X75340Y-45602D01*
X75331Y-45616D01*
X75316Y-45628D01*
X75299Y-45638D01*
X75288Y-45645D01*
X75279Y-45652D01*
X75273Y-45662D01*
X75268Y-45675D01*
X75264Y-45694D01*
X75259Y-45721D01*
X75258Y-45731D01*
X75253Y-45758D01*
X75249Y-45778D01*
X75244Y-45793D01*
X75238Y-45807D01*
X75229Y-45822D01*
X75222Y-45832D01*
X75210Y-45855D01*
X75203Y-45877D01*
X75201Y-45902D01*
X75204Y-45933D01*
X75207Y-45950D01*
X75212Y-45974D01*
X75212Y-45990D01*
X75211Y-45996D01*
X75202Y-45999D01*
X75188Y-45995D01*
X75172Y-45986D01*
X75155Y-45972D01*
X75152Y-45969D01*
X75140Y-45959D01*
X75122Y-45944D01*
X75100Y-45928D01*
X75077Y-45912D01*
X75075Y-45911D01*
X75044Y-45889D01*
X75020Y-45869D01*
X75004Y-45853D01*
X75002Y-45850D01*
X74985Y-45828D01*
X74972Y-45813D01*
X74960Y-45802D01*
X74948Y-45796D01*
X74932Y-45791D01*
X74921Y-45788D01*
X74900Y-45783D01*
X74881Y-45777D01*
X74864Y-45769D01*
X74847Y-45759D01*
X74828Y-45746D01*
X74806Y-45729D01*
X74781Y-45707D01*
X74750Y-45679D01*
X74736Y-45665D01*
X74711Y-45642D01*
X74693Y-45623D01*
X74679Y-45607D01*
X74669Y-45594D01*
X74662Y-45581D01*
X74660Y-45577D01*
X74645Y-45542D01*
X74630Y-45501D01*
X74616Y-45457D01*
X74604Y-45414D01*
X74603Y-45410D01*
X74592Y-45370D01*
X74582Y-45338D01*
X74571Y-45313D01*
X74559Y-45292D01*
X74545Y-45273D01*
X74531Y-45258D01*
X74514Y-45243D01*
X74502Y-45237D01*
X74494Y-45239D01*
X74491Y-45249D01*
X74490Y-45261D01*
X74489Y-45280D01*
X74486Y-45300D01*
X74486Y-45302D01*
X74482Y-45322D01*
X74457Y-45277D01*
X74446Y-45257D01*
X74437Y-45240D01*
X74430Y-45227D01*
X74428Y-45222D01*
X74424Y-45207D01*
X74419Y-45183D01*
X74416Y-45155D01*
X74413Y-45123D01*
X74411Y-45092D01*
X74410Y-45065D01*
X74410Y-45038D01*
X74408Y-45011D01*
X74407Y-44987D01*
X74405Y-44975D01*
X74402Y-44946D01*
X74398Y-44910D01*
X74395Y-44870D01*
X74392Y-44828D01*
X74390Y-44786D01*
X74388Y-44747D01*
X74387Y-44711D01*
X74388Y-44682D01*
X74388Y-44670D01*
X74389Y-44645D01*
X74389Y-44628D01*
X74389Y-44616D01*
X74386Y-44607D01*
X74382Y-44600D01*
X74379Y-44595D01*
X74365Y-44581D01*
X74349Y-44576D01*
X74334Y-44580D01*
X74321Y-44592D01*
X74314Y-44604D01*
X74308Y-44628D01*
X74302Y-44662D01*
X74298Y-44704D01*
X74295Y-44754D01*
X74293Y-44812D01*
X74293Y-44835D01*
X74293Y-44875D01*
X74292Y-44906D01*
X74291Y-44929D01*
X74290Y-44945D01*
X74288Y-44955D01*
X74286Y-44961D01*
X74286Y-44962D01*
X74279Y-44968D01*
X74273Y-44970D01*
X74267Y-44966D01*
X74261Y-44956D01*
X74254Y-44938D01*
X74246Y-44911D01*
X74241Y-44894D01*
X74234Y-44869D01*
X74229Y-44844D01*
X74224Y-44817D01*
X74221Y-44787D01*
X74218Y-44753D01*
X74216Y-44712D01*
X74214Y-44664D01*
X74213Y-44615D01*
X74211Y-44563D01*
X74210Y-44520D01*
X74207Y-44485D01*
X74204Y-44458D01*
X74200Y-44437D01*
X74195Y-44423D01*
X74188Y-44413D01*
X74180Y-44407D01*
X74170Y-44405D01*
X74166Y-44405D01*
X74157Y-44407D01*
X74150Y-44413D01*
X74143Y-44424D01*
X74137Y-44442D01*
X74132Y-44467D01*
X74126Y-44501D01*
X74125Y-44511D01*
X74120Y-44548D01*
X74116Y-44591D01*
X74114Y-44637D01*
X74113Y-44685D01*
X74113Y-44730D01*
X74114Y-44772D01*
X74117Y-44807D01*
X74118Y-44817D01*
X74121Y-44836D01*
X74122Y-44851D01*
X74122Y-44859D01*
X74122Y-44859D01*
X74119Y-44857D01*
X74113Y-44846D01*
X74106Y-44829D01*
X74097Y-44807D01*
X74088Y-44781D01*
X74078Y-44754D01*
X74068Y-44725D01*
X74060Y-44698D01*
X74052Y-44673D01*
X74047Y-44652D01*
X74046Y-44645D01*
X74035Y-44600D01*
X74024Y-44557D01*
X74011Y-44519D01*
X73998Y-44486D01*
X73985Y-44459D01*
X73972Y-44439D01*
X73960Y-44428D01*
X73951Y-44425D01*
X73941Y-44429D01*
X73931Y-44441D01*
X73922Y-44456D01*
X73918Y-44471D01*
X73918Y-44491D01*
X73921Y-44519D01*
X73928Y-44555D01*
X73938Y-44598D01*
X73951Y-44648D01*
X73968Y-44703D01*
X73987Y-44763D01*
X73989Y-44770D01*
X73996Y-44791D01*
X73999Y-44804D01*
X73999Y-44811D01*
X73997Y-44814D01*
X73996Y-44814D01*
X73989Y-44813D01*
X73981Y-44807D01*
X73971Y-44794D01*
X73958Y-44774D01*
X73943Y-44746D01*
X73942Y-44743D01*
X73925Y-44711D01*
X73911Y-44688D01*
X73899Y-44672D01*
X73888Y-44663D01*
X73877Y-44660D01*
X73877Y-44660D01*
X73865Y-44664D01*
X73857Y-44677D01*
X73852Y-44694D01*
X73851Y-44713D01*
X73854Y-44726D01*
X73861Y-44745D01*
X73870Y-44767D01*
X73879Y-44787D01*
X73904Y-44840D01*
X73890Y-44840D01*
X73873Y-44835D01*
X73858Y-44821D01*
X73845Y-44798D01*
X73840Y-44788D01*
X73833Y-44779D01*
X73821Y-44770D01*
X73804Y-44759D01*
X73794Y-44754D01*
X73775Y-44744D01*
X73758Y-44737D01*
X73747Y-44733D01*
X73743Y-44733D01*
X73736Y-44739D01*
X73730Y-44750D01*
X73727Y-44763D01*
X73729Y-44776D01*
X73736Y-44791D01*
X73750Y-44810D01*
X73760Y-44823D01*
X73772Y-44837D01*
X73781Y-44849D01*
X73785Y-44855D01*
X73785Y-44856D01*
X73780Y-44863D01*
X73768Y-44869D01*
X73751Y-44875D01*
X73735Y-44879D01*
X73719Y-44881D01*
X73710Y-44885D01*
X73707Y-44891D01*
X73706Y-44895D01*
X73706Y-44906D01*
X73710Y-44922D01*
X73715Y-44942D01*
X73716Y-44944D01*
X73722Y-44968D01*
X73723Y-44984D01*
X73719Y-44994D01*
X73709Y-44997D01*
X73707Y-44997D01*
X73700Y-45001D01*
X73699Y-45011D01*
X73701Y-45025D01*
X73708Y-45042D01*
X73717Y-45059D01*
X73728Y-45074D01*
X73739Y-45084D01*
X73750Y-45095D01*
X73761Y-45109D01*
X73769Y-45123D01*
X73773Y-45135D01*
X73772Y-45140D01*
X73766Y-45143D01*
X73754Y-45145D01*
X73750Y-45145D01*
X73734Y-45147D01*
X73727Y-45153D01*
X73728Y-45165D01*
X73735Y-45178D01*
X73742Y-45192D01*
X73744Y-45201D01*
X73739Y-45204D01*
X73728Y-45205D01*
X73710Y-45208D01*
X73697Y-45218D01*
X73691Y-45232D01*
X73692Y-45240D01*
X73697Y-45267D01*
X73699Y-45288D01*
X73698Y-45305D01*
X73693Y-45321D01*
X73690Y-45329D01*
X73684Y-45345D01*
X73681Y-45357D01*
X73681Y-45357D01*
X73681Y-45357D01*
G37*
G36*
X70571Y-60187D02*
X70571Y-60230D01*
X70574Y-60262D01*
X70580Y-60284D01*
X70591Y-60301D01*
X70607Y-60315D01*
X70619Y-60323D01*
X70628Y-60326D01*
X70628Y-60183D01*
X70632Y-60150D01*
X70642Y-60123D01*
X70654Y-60108D01*
X70676Y-60098D01*
X70701Y-60100D01*
X70724Y-60111D01*
X70726Y-60113D01*
X70733Y-60127D01*
X70738Y-60151D01*
X70740Y-60180D01*
X70740Y-60209D01*
X70738Y-60234D01*
X70735Y-60244D01*
X70720Y-60265D01*
X70698Y-60276D01*
X70673Y-60275D01*
X70654Y-60266D01*
X70639Y-60245D01*
X70630Y-60216D01*
X70628Y-60183D01*
X70628Y-60326D01*
X70652Y-60335D01*
X70687Y-60333D01*
X70714Y-60323D01*
X70741Y-60309D01*
X70741Y-60419D01*
X70741Y-60529D01*
X70722Y-60514D01*
X70697Y-60502D01*
X70666Y-60498D01*
X70635Y-60503D01*
X70617Y-60510D01*
X70601Y-60521D01*
X70590Y-60533D01*
X70582Y-60550D01*
X70577Y-60572D01*
X70574Y-60603D01*
X70573Y-60645D01*
X70573Y-60677D01*
X70573Y-60792D01*
X70598Y-60792D01*
X70623Y-60792D01*
X70625Y-60693D01*
X70626Y-60653D01*
X70628Y-60625D01*
X70630Y-60606D01*
X70634Y-60593D01*
X70639Y-60584D01*
X70646Y-60576D01*
X70669Y-60560D01*
X70694Y-60558D01*
X70718Y-60570D01*
X70723Y-60575D01*
X70731Y-60583D01*
X70736Y-60592D01*
X70739Y-60603D01*
X70740Y-60621D01*
X70741Y-60649D01*
X70741Y-60687D01*
X70741Y-60692D01*
X70741Y-60792D01*
X70771Y-60792D01*
X70800Y-60792D01*
X70800Y-60418D01*
X70800Y-60044D01*
X70771Y-60044D01*
X70750Y-60046D01*
X70741Y-60052D01*
X70741Y-60054D01*
X70739Y-60059D01*
X70729Y-60057D01*
X70714Y-60050D01*
X70677Y-60038D01*
X70643Y-60040D01*
X70619Y-60051D01*
X70599Y-60064D01*
X70586Y-60079D01*
X70577Y-60098D01*
X70573Y-60124D01*
X70571Y-60161D01*
X70571Y-60187D01*
X70571Y-60187D01*
X70571Y-60187D01*
G37*
G36*
X70294Y-60792D02*
X70323Y-60792D01*
X70343Y-60790D01*
X70352Y-60785D01*
X70353Y-60780D01*
X70353Y-60692D01*
X70353Y-60667D01*
X70395Y-60667D01*
X70430Y-60670D01*
X70455Y-60680D01*
X70468Y-60695D01*
X70470Y-60704D01*
X70463Y-60720D01*
X70446Y-60733D01*
X70421Y-60740D01*
X70411Y-60740D01*
X70389Y-60737D01*
X70369Y-60729D01*
X70369Y-60729D01*
X70356Y-60713D01*
X70353Y-60692D01*
X70353Y-60780D01*
X70354Y-60772D01*
X70359Y-60774D01*
X70366Y-60780D01*
X70384Y-60788D01*
X70411Y-60792D01*
X70441Y-60791D01*
X70470Y-60786D01*
X70489Y-60778D01*
X70512Y-60756D01*
X70525Y-60727D01*
X70527Y-60696D01*
X70517Y-60666D01*
X70499Y-60643D01*
X70487Y-60633D01*
X70475Y-60627D01*
X70459Y-60624D01*
X70434Y-60623D01*
X70415Y-60623D01*
X70353Y-60623D01*
X70353Y-60598D01*
X70355Y-60579D01*
X70361Y-60566D01*
X70362Y-60566D01*
X70386Y-60555D01*
X70415Y-60553D01*
X70444Y-60560D01*
X70463Y-60567D01*
X70475Y-60567D01*
X70489Y-60559D01*
X70493Y-60556D01*
X70507Y-60545D01*
X70509Y-60536D01*
X70506Y-60530D01*
X70484Y-60514D01*
X70453Y-60503D01*
X70416Y-60498D01*
X70379Y-60500D01*
X70346Y-60508D01*
X70341Y-60510D01*
X70324Y-60519D01*
X70312Y-60531D01*
X70304Y-60546D01*
X70299Y-60568D01*
X70296Y-60599D01*
X70294Y-60641D01*
X70294Y-60678D01*
X70294Y-60792D01*
X70294Y-60792D01*
X70294Y-60792D01*
G37*
G36*
X70039Y-60524D02*
X70048Y-60539D01*
X70056Y-60549D01*
X70070Y-60563D01*
X70081Y-60567D01*
X70089Y-60564D01*
X70115Y-60557D01*
X70139Y-60565D01*
X70151Y-60575D01*
X70159Y-60583D01*
X70164Y-60592D01*
X70167Y-60603D01*
X70168Y-60621D01*
X70169Y-60649D01*
X70169Y-60687D01*
X70169Y-60692D01*
X70169Y-60792D01*
X70199Y-60792D01*
X70228Y-60792D01*
X70228Y-60645D01*
X70228Y-60498D01*
X70199Y-60498D01*
X70180Y-60500D01*
X70171Y-60504D01*
X70169Y-60514D01*
X70169Y-60529D01*
X70150Y-60514D01*
X70127Y-60503D01*
X70098Y-60498D01*
X70069Y-60500D01*
X70052Y-60506D01*
X70040Y-60514D01*
X70039Y-60524D01*
X70039Y-60524D01*
X70039Y-60524D01*
G37*
G36*
X69803Y-60792D02*
X69832Y-60792D01*
X69852Y-60790D01*
X69861Y-60784D01*
X69861Y-60783D01*
X69861Y-60667D01*
X69861Y-60634D01*
X69866Y-60603D01*
X69874Y-60580D01*
X69877Y-60576D01*
X69897Y-60560D01*
X69921Y-60557D01*
X69945Y-60566D01*
X69957Y-60577D01*
X69965Y-60590D01*
X69970Y-60603D01*
X69971Y-60623D01*
X69970Y-60652D01*
X69970Y-60655D01*
X69967Y-60690D01*
X69960Y-60713D01*
X69949Y-60726D01*
X69930Y-60732D01*
X69912Y-60733D01*
X69889Y-60730D01*
X69874Y-60718D01*
X69873Y-60717D01*
X69865Y-60696D01*
X69861Y-60667D01*
X69861Y-60783D01*
X69861Y-60780D01*
X69863Y-60773D01*
X69869Y-60775D01*
X69878Y-60780D01*
X69898Y-60788D01*
X69926Y-60791D01*
X69956Y-60790D01*
X69981Y-60783D01*
X69986Y-60781D01*
X70004Y-60768D01*
X70017Y-60751D01*
X70025Y-60727D01*
X70029Y-60693D01*
X70029Y-60649D01*
X70029Y-60635D01*
X70026Y-60549D01*
X69999Y-60524D01*
X69979Y-60508D01*
X69961Y-60500D01*
X69937Y-60498D01*
X69936Y-60498D01*
X69911Y-60501D01*
X69892Y-60506D01*
X69887Y-60509D01*
X69874Y-60518D01*
X69867Y-60520D01*
X69865Y-60513D01*
X69863Y-60495D01*
X69861Y-60469D01*
X69861Y-60451D01*
X69861Y-60381D01*
X69832Y-60381D01*
X69803Y-60381D01*
X69803Y-60586D01*
X69803Y-60792D01*
X69803Y-60792D01*
X69803Y-60792D01*
G37*
G36*
X69357Y-60504D02*
X69357Y-60508D01*
X69360Y-60517D01*
X69367Y-60538D01*
X69377Y-60569D01*
X69389Y-60607D01*
X69402Y-60649D01*
X69404Y-60654D01*
X69447Y-60792D01*
X69474Y-60792D01*
X69484Y-60792D01*
X69493Y-60790D01*
X69499Y-60785D01*
X69506Y-60774D01*
X69513Y-60756D01*
X69521Y-60729D01*
X69532Y-60690D01*
X69539Y-60667D01*
X69547Y-60640D01*
X69554Y-60619D01*
X69559Y-60607D01*
X69560Y-60606D01*
X69564Y-60611D01*
X69571Y-60627D01*
X69580Y-60653D01*
X69590Y-60685D01*
X69594Y-60696D01*
X69622Y-60792D01*
X69650Y-60792D01*
X69668Y-60791D01*
X69678Y-60790D01*
X69678Y-60789D01*
X69680Y-60782D01*
X69686Y-60762D01*
X69695Y-60733D01*
X69707Y-60697D01*
X69720Y-60655D01*
X69722Y-60649D01*
X69736Y-60606D01*
X69747Y-60568D01*
X69757Y-60537D01*
X69763Y-60515D01*
X69766Y-60505D01*
X69766Y-60504D01*
X69760Y-60501D01*
X69743Y-60499D01*
X69735Y-60500D01*
X69705Y-60502D01*
X69677Y-60601D01*
X69667Y-60636D01*
X69658Y-60663D01*
X69651Y-60682D01*
X69647Y-60690D01*
X69646Y-60689D01*
X69642Y-60678D01*
X69635Y-60656D01*
X69625Y-60627D01*
X69614Y-60592D01*
X69614Y-60590D01*
X69602Y-60554D01*
X69594Y-60529D01*
X69587Y-60513D01*
X69580Y-60505D01*
X69573Y-60501D01*
X69563Y-60500D01*
X69563Y-60500D01*
X69540Y-60498D01*
X69509Y-60597D01*
X69496Y-60634D01*
X69486Y-60663D01*
X69478Y-60682D01*
X69473Y-60688D01*
X69472Y-60687D01*
X69468Y-60677D01*
X69462Y-60656D01*
X69453Y-60626D01*
X69444Y-60591D01*
X69443Y-60588D01*
X69419Y-60498D01*
X69386Y-60498D01*
X69365Y-60500D01*
X69357Y-60504D01*
X69357Y-60504D01*
X69357Y-60504D01*
G37*
G36*
X69121Y-60792D02*
X69150Y-60792D01*
X69168Y-60790D01*
X69179Y-60786D01*
X69179Y-60784D01*
X69179Y-60696D01*
X69179Y-60667D01*
X69218Y-60667D01*
X69254Y-60671D01*
X69280Y-60680D01*
X69294Y-60695D01*
X69295Y-60701D01*
X69291Y-60717D01*
X69276Y-60730D01*
X69254Y-60738D01*
X69229Y-60741D01*
X69204Y-60737D01*
X69194Y-60733D01*
X69183Y-60722D01*
X69179Y-60702D01*
X69179Y-60696D01*
X69179Y-60784D01*
X69184Y-60780D01*
X69194Y-60784D01*
X69214Y-60790D01*
X69242Y-60792D01*
X69273Y-60790D01*
X69300Y-60785D01*
X69313Y-60779D01*
X69334Y-60759D01*
X69346Y-60730D01*
X69348Y-60703D01*
X69344Y-60671D01*
X69332Y-60649D01*
X69310Y-60634D01*
X69277Y-60625D01*
X69235Y-60623D01*
X69179Y-60623D01*
X69179Y-60598D01*
X69182Y-60577D01*
X69194Y-60563D01*
X69216Y-60555D01*
X69221Y-60554D01*
X69253Y-60554D01*
X69270Y-60561D01*
X69288Y-60568D01*
X69299Y-60568D01*
X69312Y-60561D01*
X69315Y-60559D01*
X69329Y-60545D01*
X69329Y-60532D01*
X69315Y-60519D01*
X69304Y-60512D01*
X69276Y-60503D01*
X69240Y-60499D01*
X69203Y-60500D01*
X69171Y-60508D01*
X69169Y-60509D01*
X69152Y-60517D01*
X69140Y-60526D01*
X69131Y-60539D01*
X69126Y-60557D01*
X69122Y-60584D01*
X69121Y-60621D01*
X69121Y-60670D01*
X69121Y-60672D01*
X69121Y-60792D01*
X69121Y-60792D01*
X69121Y-60792D01*
G37*
G36*
X68858Y-60517D02*
X68860Y-60524D01*
X68870Y-60537D01*
X68875Y-60544D01*
X68889Y-60560D01*
X68899Y-60566D01*
X68912Y-60563D01*
X68916Y-60562D01*
X68943Y-60558D01*
X68968Y-60566D01*
X68986Y-60585D01*
X68987Y-60586D01*
X68991Y-60604D01*
X68994Y-60635D01*
X68996Y-60678D01*
X68996Y-60698D01*
X68996Y-60792D01*
X69025Y-60792D01*
X69055Y-60792D01*
X69055Y-60645D01*
X69055Y-60498D01*
X69025Y-60498D01*
X69006Y-60500D01*
X68998Y-60505D01*
X68996Y-60513D01*
X68995Y-60522D01*
X68991Y-60523D01*
X68979Y-60517D01*
X68972Y-60513D01*
X68942Y-60502D01*
X68909Y-60499D01*
X68877Y-60506D01*
X68858Y-60517D01*
X68858Y-60517D01*
X68858Y-60517D01*
G37*
G36*
X68613Y-60667D02*
X68677Y-60667D01*
X68677Y-60604D01*
X68685Y-60586D01*
X68697Y-60570D01*
X68711Y-60558D01*
X68713Y-60557D01*
X68740Y-60554D01*
X68766Y-60564D01*
X68785Y-60585D01*
X68786Y-60585D01*
X68793Y-60602D01*
X68795Y-60614D01*
X68794Y-60616D01*
X68785Y-60619D01*
X68766Y-60622D01*
X68741Y-60623D01*
X68715Y-60623D01*
X68693Y-60621D01*
X68679Y-60618D01*
X68677Y-60616D01*
X68677Y-60604D01*
X68677Y-60667D01*
X68706Y-60667D01*
X68800Y-60667D01*
X68795Y-60687D01*
X68781Y-60715D01*
X68759Y-60733D01*
X68731Y-60739D01*
X68699Y-60732D01*
X68689Y-60728D01*
X68661Y-60714D01*
X68641Y-60730D01*
X68628Y-60742D01*
X68622Y-60750D01*
X68622Y-60751D01*
X68627Y-60757D01*
X68641Y-60768D01*
X68649Y-60773D01*
X68681Y-60787D01*
X68718Y-60793D01*
X68756Y-60791D01*
X68789Y-60781D01*
X68798Y-60775D01*
X68824Y-60753D01*
X68841Y-60726D01*
X68850Y-60692D01*
X68853Y-60649D01*
X68848Y-60596D01*
X68835Y-60555D01*
X68812Y-60524D01*
X68780Y-60506D01*
X68740Y-60498D01*
X68736Y-60498D01*
X68694Y-60505D01*
X68660Y-60523D01*
X68635Y-60552D01*
X68620Y-60591D01*
X68616Y-60619D01*
X68613Y-60667D01*
X68613Y-60667D01*
X68613Y-60667D01*
G37*
G36*
X70855Y-60187D02*
X70855Y-60222D01*
X70857Y-60247D01*
X70860Y-60264D01*
X70866Y-60276D01*
X70870Y-60283D01*
X70901Y-60314D01*
X70910Y-60318D01*
X70910Y-60187D01*
X70911Y-60159D01*
X70914Y-60142D01*
X70921Y-60129D01*
X70932Y-60116D01*
X70949Y-60101D01*
X70963Y-60097D01*
X70978Y-60098D01*
X71003Y-60106D01*
X71019Y-60120D01*
X71028Y-60143D01*
X71031Y-60176D01*
X71031Y-60186D01*
X71029Y-60221D01*
X71024Y-60245D01*
X71013Y-60261D01*
X70995Y-60271D01*
X70970Y-60277D01*
X70950Y-60272D01*
X70932Y-60257D01*
X70920Y-60244D01*
X70913Y-60231D01*
X70911Y-60212D01*
X70910Y-60187D01*
X70910Y-60318D01*
X70937Y-60332D01*
X70976Y-60336D01*
X71017Y-60326D01*
X71027Y-60321D01*
X71057Y-60301D01*
X71077Y-60275D01*
X71089Y-60241D01*
X71093Y-60196D01*
X71093Y-60187D01*
X71090Y-60140D01*
X71080Y-60104D01*
X71061Y-60077D01*
X71034Y-60056D01*
X71027Y-60052D01*
X70987Y-60039D01*
X70947Y-60039D01*
X70910Y-60054D01*
X70877Y-60081D01*
X70870Y-60091D01*
X70863Y-60102D01*
X70859Y-60116D01*
X70856Y-60135D01*
X70855Y-60164D01*
X70855Y-60187D01*
X70855Y-60187D01*
X70855Y-60187D01*
G37*
G36*
X70285Y-60212D02*
X70353Y-60212D01*
X70353Y-60145D01*
X70358Y-60128D01*
X70369Y-60112D01*
X70391Y-60098D01*
X70416Y-60095D01*
X70439Y-60104D01*
X70458Y-60121D01*
X70467Y-60141D01*
X70472Y-60161D01*
X70412Y-60161D01*
X70383Y-60161D01*
X70365Y-60159D01*
X70356Y-60156D01*
X70353Y-60151D01*
X70353Y-60145D01*
X70353Y-60212D01*
X70377Y-60212D01*
X70417Y-60213D01*
X70444Y-60214D01*
X70461Y-60216D01*
X70468Y-60222D01*
X70468Y-60230D01*
X70463Y-60242D01*
X70461Y-60244D01*
X70442Y-60267D01*
X70416Y-60278D01*
X70383Y-60276D01*
X70357Y-60266D01*
X70339Y-60259D01*
X70329Y-60258D01*
X70317Y-60266D01*
X70312Y-60271D01*
X70301Y-60285D01*
X70302Y-60297D01*
X70315Y-60309D01*
X70341Y-60323D01*
X70342Y-60323D01*
X70385Y-60335D01*
X70429Y-60333D01*
X70463Y-60321D01*
X70493Y-60298D01*
X70514Y-60264D01*
X70527Y-60223D01*
X70530Y-60176D01*
X70522Y-60126D01*
X70521Y-60121D01*
X70504Y-60086D01*
X70477Y-60059D01*
X70444Y-60043D01*
X70405Y-60038D01*
X70365Y-60046D01*
X70363Y-60047D01*
X70330Y-60066D01*
X70307Y-60095D01*
X70293Y-60135D01*
X70289Y-60165D01*
X70285Y-60212D01*
X70285Y-60212D01*
X70285Y-60212D01*
G37*
G36*
X69600Y-60244D02*
X69605Y-60274D01*
X69621Y-60299D01*
X69647Y-60319D01*
X69680Y-60332D01*
X69719Y-60336D01*
X69762Y-60331D01*
X69773Y-60328D01*
X69803Y-60316D01*
X69837Y-60295D01*
X69846Y-60288D01*
X69844Y-60282D01*
X69834Y-60269D01*
X69829Y-60264D01*
X69808Y-60243D01*
X69788Y-60257D01*
X69763Y-60271D01*
X69733Y-60277D01*
X69705Y-60277D01*
X69680Y-60271D01*
X69664Y-60258D01*
X69663Y-60256D01*
X69661Y-60240D01*
X69671Y-60226D01*
X69691Y-60216D01*
X69718Y-60212D01*
X69747Y-60210D01*
X69775Y-60203D01*
X69780Y-60201D01*
X69807Y-60183D01*
X69824Y-60157D01*
X69830Y-60127D01*
X69824Y-60095D01*
X69810Y-60070D01*
X69786Y-60052D01*
X69754Y-60041D01*
X69716Y-60038D01*
X69676Y-60043D01*
X69638Y-60056D01*
X69634Y-60058D01*
X69605Y-60073D01*
X69621Y-60095D01*
X69635Y-60111D01*
X69647Y-60116D01*
X69664Y-60110D01*
X69671Y-60106D01*
X69695Y-60097D01*
X69722Y-60095D01*
X69746Y-60100D01*
X69761Y-60109D01*
X69770Y-60125D01*
X69765Y-60141D01*
X69753Y-60149D01*
X69739Y-60152D01*
X69716Y-60155D01*
X69696Y-60158D01*
X69659Y-60164D01*
X69634Y-60176D01*
X69616Y-60193D01*
X69607Y-60211D01*
X69600Y-60244D01*
X69600Y-60244D01*
X69600Y-60244D01*
G37*
G36*
X69326Y-60187D02*
X69331Y-60237D01*
X69346Y-60278D01*
X69370Y-60310D01*
X69379Y-60318D01*
X69388Y-60322D01*
X69388Y-60187D01*
X69389Y-60157D01*
X69392Y-60138D01*
X69397Y-60125D01*
X69405Y-60116D01*
X69428Y-60102D01*
X69454Y-60100D01*
X69480Y-60108D01*
X69489Y-60115D01*
X69499Y-60134D01*
X69506Y-60161D01*
X69509Y-60192D01*
X69507Y-60221D01*
X69500Y-60242D01*
X69482Y-60264D01*
X69457Y-60274D01*
X69430Y-60272D01*
X69405Y-60258D01*
X69403Y-60256D01*
X69395Y-60245D01*
X69391Y-60231D01*
X69389Y-60208D01*
X69388Y-60187D01*
X69388Y-60322D01*
X69403Y-60329D01*
X69435Y-60334D01*
X69469Y-60334D01*
X69497Y-60328D01*
X69499Y-60327D01*
X69530Y-60305D01*
X69552Y-60273D01*
X69564Y-60230D01*
X69567Y-60178D01*
X69566Y-60168D01*
X69558Y-60120D01*
X69542Y-60083D01*
X69517Y-60058D01*
X69483Y-60044D01*
X69447Y-60040D01*
X69404Y-60046D01*
X69371Y-60063D01*
X69347Y-60091D01*
X69332Y-60131D01*
X69326Y-60182D01*
X69326Y-60187D01*
X69326Y-60187D01*
X69326Y-60187D01*
G37*
G36*
X69047Y-60330D02*
X69077Y-60330D01*
X69097Y-60328D01*
X69106Y-60322D01*
X69106Y-60319D01*
X69108Y-60313D01*
X69117Y-60315D01*
X69130Y-60322D01*
X69164Y-60335D01*
X69200Y-60333D01*
X69221Y-60326D01*
X69240Y-60316D01*
X69254Y-60303D01*
X69264Y-60286D01*
X69270Y-60261D01*
X69273Y-60226D01*
X69275Y-60180D01*
X69275Y-60156D01*
X69275Y-60044D01*
X69245Y-60044D01*
X69216Y-60044D01*
X69216Y-60142D01*
X69215Y-60189D01*
X69213Y-60224D01*
X69208Y-60248D01*
X69199Y-60263D01*
X69187Y-60271D01*
X69169Y-60274D01*
X69161Y-60274D01*
X69141Y-60272D01*
X69127Y-60266D01*
X69117Y-60254D01*
X69111Y-60234D01*
X69107Y-60203D01*
X69106Y-60160D01*
X69106Y-60142D01*
X69106Y-60044D01*
X69077Y-60044D01*
X69047Y-60044D01*
X69047Y-60187D01*
X69047Y-60330D01*
X69047Y-60330D01*
X69047Y-60330D01*
G37*
G36*
X68552Y-60087D02*
X68573Y-60107D01*
X68587Y-60120D01*
X68597Y-60123D01*
X68606Y-60119D01*
X68639Y-60102D01*
X68670Y-60099D01*
X68696Y-60108D01*
X68716Y-60130D01*
X68728Y-60162D01*
X68730Y-60174D01*
X68729Y-60211D01*
X68718Y-60240D01*
X68700Y-60262D01*
X68677Y-60275D01*
X68650Y-60277D01*
X68624Y-60266D01*
X68613Y-60259D01*
X68597Y-60253D01*
X68578Y-60260D01*
X68564Y-60274D01*
X68559Y-60288D01*
X68566Y-60302D01*
X68583Y-60315D01*
X68607Y-60325D01*
X68635Y-60332D01*
X68666Y-60335D01*
X68695Y-60332D01*
X68706Y-60330D01*
X68737Y-60313D01*
X68762Y-60286D01*
X68780Y-60252D01*
X68789Y-60212D01*
X68790Y-60172D01*
X68783Y-60132D01*
X68767Y-60095D01*
X68741Y-60065D01*
X68740Y-60064D01*
X68708Y-60046D01*
X68670Y-60038D01*
X68630Y-60041D01*
X68593Y-60055D01*
X68573Y-60069D01*
X68552Y-60087D01*
X68552Y-60087D01*
X68552Y-60087D01*
G37*
G36*
X68298Y-60212D02*
X68358Y-60212D01*
X68358Y-60153D01*
X68362Y-60138D01*
X68373Y-60119D01*
X68385Y-60104D01*
X68391Y-60100D01*
X68421Y-60095D01*
X68448Y-60104D01*
X68469Y-60124D01*
X68479Y-60145D01*
X68481Y-60152D01*
X68478Y-60157D01*
X68469Y-60160D01*
X68451Y-60161D01*
X68421Y-60161D01*
X68388Y-60160D01*
X68367Y-60158D01*
X68358Y-60154D01*
X68358Y-60153D01*
X68358Y-60212D01*
X68391Y-60212D01*
X68429Y-60212D01*
X68455Y-60213D01*
X68471Y-60214D01*
X68478Y-60217D01*
X68481Y-60221D01*
X68479Y-60228D01*
X68479Y-60229D01*
X68466Y-60252D01*
X68445Y-60269D01*
X68420Y-60278D01*
X68416Y-60278D01*
X68393Y-60275D01*
X68370Y-60267D01*
X68368Y-60266D01*
X68351Y-60259D01*
X68340Y-60259D01*
X68329Y-60268D01*
X68325Y-60271D01*
X68314Y-60285D01*
X68315Y-60297D01*
X68328Y-60310D01*
X68354Y-60323D01*
X68354Y-60323D01*
X68398Y-60335D01*
X68441Y-60333D01*
X68474Y-60321D01*
X68503Y-60302D01*
X68522Y-60276D01*
X68533Y-60240D01*
X68537Y-60194D01*
X68538Y-60187D01*
X68534Y-60137D01*
X68522Y-60100D01*
X68501Y-60071D01*
X68472Y-60051D01*
X68436Y-60039D01*
X68403Y-60039D01*
X68368Y-60050D01*
X68337Y-60070D01*
X68316Y-60098D01*
X68304Y-60134D01*
X68301Y-60163D01*
X68298Y-60212D01*
X68298Y-60212D01*
X68298Y-60212D01*
G37*
G36*
X70008Y-60330D02*
X70037Y-60330D01*
X70067Y-60330D01*
X70067Y-60232D01*
X70067Y-60185D01*
X70070Y-60152D01*
X70074Y-60129D01*
X70082Y-60113D01*
X70094Y-60104D01*
X70111Y-60099D01*
X70115Y-60098D01*
X70135Y-60098D01*
X70153Y-60107D01*
X70159Y-60112D01*
X70180Y-60130D01*
X70183Y-60230D01*
X70186Y-60330D01*
X70214Y-60330D01*
X70243Y-60330D01*
X70243Y-60187D01*
X70243Y-60044D01*
X70213Y-60044D01*
X70193Y-60046D01*
X70185Y-60051D01*
X70184Y-60055D01*
X70183Y-60063D01*
X70178Y-60064D01*
X70165Y-60058D01*
X70153Y-60051D01*
X70120Y-60039D01*
X70086Y-60039D01*
X70054Y-60051D01*
X70028Y-60074D01*
X70023Y-60082D01*
X70017Y-60093D01*
X70013Y-60105D01*
X70010Y-60122D01*
X70009Y-60146D01*
X70008Y-60179D01*
X70008Y-60218D01*
X70008Y-60330D01*
X70008Y-60330D01*
X70008Y-60330D01*
G37*
G36*
X68783Y-60059D02*
X68802Y-60084D01*
X68815Y-60101D01*
X68823Y-60108D01*
X68831Y-60108D01*
X68844Y-60102D01*
X68845Y-60101D01*
X68869Y-60098D01*
X68893Y-60106D01*
X68911Y-60123D01*
X68914Y-60129D01*
X68918Y-60144D01*
X68921Y-60170D01*
X68922Y-60205D01*
X68923Y-60238D01*
X68923Y-60330D01*
X68952Y-60330D01*
X68981Y-60330D01*
X68981Y-60187D01*
X68981Y-60044D01*
X68952Y-60044D01*
X68932Y-60046D01*
X68923Y-60051D01*
X68923Y-60055D01*
X68921Y-60060D01*
X68912Y-60059D01*
X68895Y-60051D01*
X68860Y-60038D01*
X68826Y-60039D01*
X68805Y-60048D01*
X68783Y-60059D01*
X68783Y-60059D01*
X68783Y-60059D01*
G37*
G36*
X68607Y-58947D02*
X68608Y-58997D01*
X68609Y-59039D01*
X68610Y-59070D01*
X68613Y-59088D01*
X68615Y-59094D01*
X68623Y-59096D01*
X68643Y-59101D01*
X68671Y-59107D01*
X68706Y-59114D01*
X68745Y-59121D01*
X68783Y-59129D01*
X68820Y-59136D01*
X68852Y-59142D01*
X68876Y-59147D01*
X68889Y-59149D01*
X68891Y-59149D01*
X68894Y-59155D01*
X68901Y-59173D01*
X68912Y-59200D01*
X68926Y-59234D01*
X68937Y-59262D01*
X68982Y-59375D01*
X68908Y-59483D01*
X68884Y-59518D01*
X68862Y-59550D01*
X68845Y-59576D01*
X68834Y-59594D01*
X68829Y-59602D01*
X68833Y-59611D01*
X68848Y-59630D01*
X68873Y-59659D01*
X68909Y-59696D01*
X68927Y-59714D01*
X68959Y-59746D01*
X68987Y-59773D01*
X69010Y-59795D01*
X69026Y-59810D01*
X69034Y-59816D01*
X69035Y-59816D01*
X69042Y-59812D01*
X69060Y-59801D01*
X69086Y-59785D01*
X69117Y-59763D01*
X69152Y-59740D01*
X69263Y-59664D01*
X69320Y-59692D01*
X69377Y-59721D01*
X69385Y-59705D01*
X69391Y-59692D01*
X69402Y-59669D01*
X69416Y-59636D01*
X69432Y-59597D01*
X69451Y-59552D01*
X69470Y-59504D01*
X69491Y-59455D01*
X69510Y-59407D01*
X69529Y-59362D01*
X69545Y-59321D01*
X69559Y-59286D01*
X69569Y-59260D01*
X69574Y-59245D01*
X69575Y-59241D01*
X69570Y-59233D01*
X69555Y-59220D01*
X69534Y-59204D01*
X69531Y-59202D01*
X69478Y-59156D01*
X69438Y-59106D01*
X69412Y-59050D01*
X69398Y-58986D01*
X69396Y-58951D01*
X69399Y-58895D01*
X69411Y-58847D01*
X69432Y-58802D01*
X69454Y-58769D01*
X69495Y-58724D01*
X69546Y-58688D01*
X69602Y-58662D01*
X69661Y-58648D01*
X69720Y-58647D01*
X69741Y-58650D01*
X69803Y-58668D01*
X69861Y-58699D01*
X69910Y-58740D01*
X69912Y-58742D01*
X69953Y-58795D01*
X69981Y-58852D01*
X69995Y-58912D01*
X69997Y-58972D01*
X69986Y-59032D01*
X69962Y-59089D01*
X69925Y-59142D01*
X69876Y-59189D01*
X69865Y-59198D01*
X69842Y-59215D01*
X69826Y-59231D01*
X69818Y-59242D01*
X69817Y-59244D01*
X69820Y-59253D01*
X69828Y-59274D01*
X69839Y-59304D01*
X69855Y-59342D01*
X69872Y-59386D01*
X69891Y-59433D01*
X69912Y-59483D01*
X69932Y-59532D01*
X69951Y-59578D01*
X69969Y-59621D01*
X69985Y-59658D01*
X69998Y-59687D01*
X70006Y-59705D01*
X70010Y-59712D01*
X70017Y-59715D01*
X70029Y-59712D01*
X70050Y-59703D01*
X70071Y-59692D01*
X70125Y-59662D01*
X70238Y-59739D01*
X70274Y-59764D01*
X70307Y-59785D01*
X70332Y-59801D01*
X70350Y-59812D01*
X70358Y-59816D01*
X70358Y-59816D01*
X70365Y-59811D01*
X70380Y-59798D01*
X70402Y-59776D01*
X70430Y-59750D01*
X70461Y-59719D01*
X70465Y-59716D01*
X70496Y-59684D01*
X70523Y-59656D01*
X70545Y-59633D01*
X70559Y-59617D01*
X70565Y-59609D01*
X70565Y-59609D01*
X70562Y-59601D01*
X70550Y-59583D01*
X70534Y-59558D01*
X70512Y-59526D01*
X70488Y-59490D01*
X70487Y-59489D01*
X70409Y-59375D01*
X70452Y-59267D01*
X70466Y-59230D01*
X70480Y-59198D01*
X70490Y-59173D01*
X70497Y-59158D01*
X70499Y-59154D01*
X70507Y-59152D01*
X70527Y-59147D01*
X70555Y-59141D01*
X70590Y-59133D01*
X70628Y-59125D01*
X70667Y-59118D01*
X70703Y-59110D01*
X70736Y-59104D01*
X70760Y-59100D01*
X70775Y-59098D01*
X70776Y-59098D01*
X70777Y-59091D01*
X70777Y-59071D01*
X70778Y-59041D01*
X70778Y-59004D01*
X70778Y-58960D01*
X70778Y-58947D01*
X70778Y-58897D01*
X70778Y-58859D01*
X70777Y-58832D01*
X70776Y-58814D01*
X70774Y-58803D01*
X70771Y-58798D01*
X70766Y-58795D01*
X70762Y-58794D01*
X70749Y-58791D01*
X70725Y-58786D01*
X70692Y-58780D01*
X70653Y-58773D01*
X70620Y-58767D01*
X70580Y-58760D01*
X70544Y-58753D01*
X70517Y-58747D01*
X70499Y-58744D01*
X70494Y-58742D01*
X70490Y-58735D01*
X70482Y-58717D01*
X70470Y-58691D01*
X70457Y-58660D01*
X70443Y-58627D01*
X70429Y-58595D01*
X70418Y-58567D01*
X70409Y-58545D01*
X70404Y-58533D01*
X70404Y-58531D01*
X70408Y-58524D01*
X70419Y-58506D01*
X70436Y-58480D01*
X70458Y-58448D01*
X70482Y-58412D01*
X70485Y-58408D01*
X70510Y-58372D01*
X70532Y-58340D01*
X70549Y-58313D01*
X70561Y-58295D01*
X70565Y-58286D01*
X70565Y-58286D01*
X70560Y-58279D01*
X70547Y-58263D01*
X70526Y-58242D01*
X70501Y-58216D01*
X70473Y-58188D01*
X70444Y-58159D01*
X70417Y-58132D01*
X70392Y-58109D01*
X70372Y-58091D01*
X70360Y-58080D01*
X70356Y-58078D01*
X70348Y-58082D01*
X70330Y-58093D01*
X70304Y-58110D01*
X70272Y-58132D01*
X70235Y-58157D01*
X70232Y-58159D01*
X70195Y-58184D01*
X70162Y-58206D01*
X70135Y-58223D01*
X70116Y-58235D01*
X70106Y-58240D01*
X70106Y-58240D01*
X70095Y-58237D01*
X70073Y-58229D01*
X70045Y-58218D01*
X70013Y-58205D01*
X69980Y-58192D01*
X69950Y-58178D01*
X69926Y-58167D01*
X69911Y-58159D01*
X69908Y-58157D01*
X69904Y-58148D01*
X69899Y-58128D01*
X69892Y-58098D01*
X69884Y-58062D01*
X69876Y-58023D01*
X69867Y-57983D01*
X69860Y-57944D01*
X69853Y-57910D01*
X69849Y-57884D01*
X69847Y-57867D01*
X69847Y-57865D01*
X69840Y-57863D01*
X69820Y-57861D01*
X69790Y-57860D01*
X69751Y-57859D01*
X69705Y-57858D01*
X69697Y-57858D01*
X69647Y-57858D01*
X69609Y-57859D01*
X69583Y-57859D01*
X69564Y-57861D01*
X69554Y-57863D01*
X69548Y-57866D01*
X69545Y-57870D01*
X69544Y-57875D01*
X69541Y-57887D01*
X69537Y-57911D01*
X69530Y-57944D01*
X69523Y-57984D01*
X69516Y-58020D01*
X69508Y-58062D01*
X69500Y-58099D01*
X69494Y-58129D01*
X69488Y-58149D01*
X69485Y-58157D01*
X69475Y-58163D01*
X69455Y-58172D01*
X69427Y-58185D01*
X69396Y-58198D01*
X69363Y-58212D01*
X69333Y-58224D01*
X69307Y-58233D01*
X69290Y-58239D01*
X69286Y-58240D01*
X69277Y-58236D01*
X69259Y-58225D01*
X69232Y-58208D01*
X69200Y-58186D01*
X69163Y-58162D01*
X69159Y-58159D01*
X69122Y-58134D01*
X69089Y-58112D01*
X69063Y-58095D01*
X69044Y-58083D01*
X69035Y-58078D01*
X69035Y-58078D01*
X69028Y-58083D01*
X69013Y-58097D01*
X68990Y-58118D01*
X68963Y-58145D01*
X68931Y-58176D01*
X68926Y-58181D01*
X68891Y-58216D01*
X68866Y-58243D01*
X68848Y-58262D01*
X68837Y-58275D01*
X68831Y-58285D01*
X68830Y-58292D01*
X68832Y-58298D01*
X68835Y-58302D01*
X68842Y-58314D01*
X68857Y-58336D01*
X68876Y-58365D01*
X68899Y-58399D01*
X68918Y-58426D01*
X68990Y-58531D01*
X68948Y-58629D01*
X68933Y-58665D01*
X68919Y-58696D01*
X68908Y-58720D01*
X68901Y-58734D01*
X68900Y-58736D01*
X68890Y-58740D01*
X68869Y-58746D01*
X68839Y-58753D01*
X68801Y-58761D01*
X68767Y-58767D01*
X68724Y-58775D01*
X68686Y-58783D01*
X68655Y-58790D01*
X68633Y-58795D01*
X68624Y-58797D01*
X68618Y-58800D01*
X68614Y-58804D01*
X68611Y-58812D01*
X68609Y-58825D01*
X68608Y-58846D01*
X68607Y-58876D01*
X68607Y-58918D01*
X68607Y-58947D01*
X68607Y-58947D01*
X68607Y-58947D01*
G37*
G54D10*
X73502Y-56403D02*
X73109Y-56403D01*
X73502Y-56108D02*
X73109Y-56108D01*
X74488Y-49028D02*
X74488Y-48635D01*
X74783Y-49028D02*
X74783Y-48635D01*
X73958Y-49026D02*
X73958Y-48633D01*
X74253Y-49026D02*
X74253Y-48633D01*
X74227Y-56556D02*
X74620Y-56556D01*
X74227Y-56851D02*
X74620Y-56851D01*
X74220Y-57711D02*
X73827Y-57711D01*
X74220Y-57416D02*
X73827Y-57416D01*
X74029Y-56108D02*
X74422Y-56108D01*
X74029Y-56403D02*
X74422Y-56403D01*
X74248Y-44281D02*
X73855Y-44281D01*
X74248Y-43986D02*
X73855Y-43986D01*
X73214Y-44173D02*
X72821Y-44173D01*
X73214Y-43878D02*
X72821Y-43878D01*
X69804Y-47518D02*
X69804Y-47125D01*
X70099Y-47518D02*
X70099Y-47125D01*
X69847Y-49299D02*
X69847Y-49692D01*
X69552Y-49299D02*
X69552Y-49692D01*
X77821Y-44331D02*
X77821Y-44724D01*
X77526Y-44331D02*
X77526Y-44724D01*
X77753Y-43610D02*
X78146Y-43610D01*
X77753Y-43905D02*
X78146Y-43905D01*
X69282Y-47368D02*
X69282Y-46975D01*
X69577Y-47368D02*
X69577Y-46975D01*
X71032Y-53991D02*
X71032Y-53598D01*
X71327Y-53991D02*
X71327Y-53598D01*
G54D16*
X78414Y-58538D02*
X78428Y-58524D01*
X78442Y-58483D01*
X78442Y-58455D01*
X78428Y-58414D01*
X78400Y-58386D01*
X78373Y-58372D01*
X78318Y-58359D01*
X78276Y-58359D01*
X78221Y-58372D01*
X78193Y-58386D01*
X78166Y-58414D01*
X78152Y-58455D01*
X78152Y-58483D01*
X78166Y-58524D01*
X78180Y-58538D01*
X78152Y-58635D02*
X78152Y-58814D01*
X78262Y-58718D01*
X78262Y-58759D01*
X78276Y-58787D01*
X78290Y-58800D01*
X78318Y-58814D01*
X78387Y-58814D01*
X78414Y-58800D01*
X78428Y-58787D01*
X78442Y-58759D01*
X78442Y-58676D01*
X78428Y-58649D01*
X78414Y-58635D01*
X78276Y-58980D02*
X78262Y-58952D01*
X78249Y-58939D01*
X78221Y-58925D01*
X78207Y-58925D01*
X78180Y-58939D01*
X78166Y-58952D01*
X78152Y-58980D01*
X78152Y-59035D01*
X78166Y-59063D01*
X78180Y-59077D01*
X78207Y-59090D01*
X78221Y-59090D01*
X78249Y-59077D01*
X78262Y-59063D01*
X78276Y-59035D01*
X78276Y-58980D01*
X78290Y-58952D01*
X78304Y-58939D01*
X78331Y-58925D01*
X78387Y-58925D01*
X78414Y-58939D01*
X78428Y-58952D01*
X78442Y-58980D01*
X78442Y-59035D01*
X78428Y-59063D01*
X78414Y-59077D01*
X78387Y-59090D01*
X78331Y-59090D01*
X78304Y-59077D01*
X78290Y-59063D01*
X78276Y-59035D01*
X71914Y-56888D02*
X71928Y-56874D01*
X71942Y-56833D01*
X71942Y-56805D01*
X71928Y-56764D01*
X71900Y-56736D01*
X71873Y-56722D01*
X71818Y-56709D01*
X71776Y-56709D01*
X71721Y-56722D01*
X71693Y-56736D01*
X71666Y-56764D01*
X71652Y-56805D01*
X71652Y-56833D01*
X71666Y-56874D01*
X71680Y-56888D01*
X71749Y-57137D02*
X71942Y-57137D01*
X71638Y-57068D02*
X71845Y-56999D01*
X71845Y-57178D01*
X71652Y-57427D02*
X71652Y-57289D01*
X71790Y-57275D01*
X71776Y-57289D01*
X71762Y-57316D01*
X71762Y-57385D01*
X71776Y-57413D01*
X71790Y-57427D01*
X71818Y-57440D01*
X71887Y-57440D01*
X71914Y-57427D01*
X71928Y-57413D01*
X71942Y-57385D01*
X71942Y-57316D01*
X71928Y-57289D01*
X71914Y-57275D01*
X76062Y-54879D02*
X76076Y-54893D01*
X76117Y-54907D01*
X76145Y-54907D01*
X76186Y-54893D01*
X76214Y-54865D01*
X76228Y-54838D01*
X76241Y-54783D01*
X76241Y-54741D01*
X76228Y-54686D01*
X76214Y-54658D01*
X76186Y-54631D01*
X76145Y-54617D01*
X76117Y-54617D01*
X76076Y-54631D01*
X76062Y-54645D01*
X75813Y-54714D02*
X75813Y-54907D01*
X75882Y-54603D02*
X75951Y-54810D01*
X75772Y-54810D01*
X75537Y-54617D02*
X75592Y-54617D01*
X75620Y-54631D01*
X75634Y-54645D01*
X75661Y-54686D01*
X75675Y-54741D01*
X75675Y-54852D01*
X75661Y-54879D01*
X75648Y-54893D01*
X75620Y-54907D01*
X75565Y-54907D01*
X75537Y-54893D01*
X75523Y-54879D01*
X75510Y-54852D01*
X75510Y-54783D01*
X75523Y-54755D01*
X75537Y-54741D01*
X75565Y-54727D01*
X75620Y-54727D01*
X75648Y-54741D01*
X75661Y-54755D01*
X75675Y-54783D01*
X72920Y-55431D02*
X72934Y-55445D01*
X72975Y-55459D01*
X73003Y-55459D01*
X73044Y-55445D01*
X73072Y-55417D01*
X73086Y-55390D01*
X73099Y-55335D01*
X73099Y-55293D01*
X73086Y-55238D01*
X73072Y-55210D01*
X73044Y-55183D01*
X73003Y-55169D01*
X72975Y-55169D01*
X72934Y-55183D01*
X72920Y-55197D01*
X72671Y-55266D02*
X72671Y-55459D01*
X72740Y-55155D02*
X72809Y-55362D01*
X72630Y-55362D01*
X72547Y-55169D02*
X72354Y-55169D01*
X72478Y-55459D01*
X75303Y-58154D02*
X75317Y-58168D01*
X75358Y-58182D01*
X75386Y-58182D01*
X75427Y-58168D01*
X75455Y-58140D01*
X75469Y-58113D01*
X75482Y-58058D01*
X75482Y-58016D01*
X75469Y-57961D01*
X75455Y-57933D01*
X75427Y-57906D01*
X75386Y-57892D01*
X75358Y-57892D01*
X75317Y-57906D01*
X75303Y-57920D01*
X75054Y-57989D02*
X75054Y-58182D01*
X75123Y-57878D02*
X75192Y-58085D01*
X75013Y-58085D01*
X74930Y-57892D02*
X74751Y-57892D01*
X74847Y-58002D01*
X74806Y-58002D01*
X74778Y-58016D01*
X74764Y-58030D01*
X74751Y-58058D01*
X74751Y-58127D01*
X74764Y-58154D01*
X74778Y-58168D01*
X74806Y-58182D01*
X74889Y-58182D01*
X74916Y-58168D01*
X74930Y-58154D01*
X73412Y-57130D02*
X73426Y-57116D01*
X73440Y-57075D01*
X73440Y-57047D01*
X73426Y-57006D01*
X73398Y-56978D01*
X73371Y-56964D01*
X73316Y-56951D01*
X73274Y-56951D01*
X73219Y-56964D01*
X73191Y-56978D01*
X73164Y-57006D01*
X73150Y-57047D01*
X73150Y-57075D01*
X73164Y-57116D01*
X73178Y-57130D01*
X73247Y-57379D02*
X73440Y-57379D01*
X73136Y-57310D02*
X73343Y-57241D01*
X73343Y-57420D01*
X73247Y-57655D02*
X73440Y-57655D01*
X73136Y-57586D02*
X73343Y-57517D01*
X73343Y-57696D01*
X75714Y-55588D02*
X75728Y-55574D01*
X75742Y-55533D01*
X75742Y-55505D01*
X75728Y-55464D01*
X75700Y-55436D01*
X75673Y-55422D01*
X75618Y-55409D01*
X75576Y-55409D01*
X75521Y-55422D01*
X75493Y-55436D01*
X75466Y-55464D01*
X75452Y-55505D01*
X75452Y-55533D01*
X75466Y-55574D01*
X75480Y-55588D01*
X75549Y-55837D02*
X75742Y-55837D01*
X75438Y-55768D02*
X75645Y-55699D01*
X75645Y-55878D01*
X75742Y-56002D02*
X75742Y-56058D01*
X75728Y-56085D01*
X75714Y-56099D01*
X75673Y-56127D01*
X75618Y-56140D01*
X75507Y-56140D01*
X75480Y-56127D01*
X75466Y-56113D01*
X75452Y-56085D01*
X75452Y-56030D01*
X75466Y-56002D01*
X75480Y-55989D01*
X75507Y-55975D01*
X75576Y-55975D01*
X75604Y-55989D01*
X75618Y-56002D01*
X75631Y-56030D01*
X75631Y-56085D01*
X75618Y-56113D01*
X75604Y-56127D01*
X75576Y-56140D01*
X75833Y-56824D02*
X75847Y-56810D01*
X75861Y-56769D01*
X75861Y-56741D01*
X75847Y-56700D01*
X75819Y-56672D01*
X75792Y-56658D01*
X75737Y-56645D01*
X75695Y-56645D01*
X75640Y-56658D01*
X75612Y-56672D01*
X75585Y-56700D01*
X75571Y-56741D01*
X75571Y-56769D01*
X75585Y-56810D01*
X75599Y-56824D01*
X75668Y-57073D02*
X75861Y-57073D01*
X75557Y-57004D02*
X75764Y-56935D01*
X75764Y-57114D01*
X75695Y-57266D02*
X75681Y-57238D01*
X75668Y-57225D01*
X75640Y-57211D01*
X75626Y-57211D01*
X75599Y-57225D01*
X75585Y-57238D01*
X75571Y-57266D01*
X75571Y-57321D01*
X75585Y-57349D01*
X75599Y-57363D01*
X75626Y-57376D01*
X75640Y-57376D01*
X75668Y-57363D01*
X75681Y-57349D01*
X75695Y-57321D01*
X75695Y-57266D01*
X75709Y-57238D01*
X75723Y-57225D01*
X75750Y-57211D01*
X75806Y-57211D01*
X75833Y-57225D01*
X75847Y-57238D01*
X75861Y-57266D01*
X75861Y-57321D01*
X75847Y-57349D01*
X75833Y-57363D01*
X75806Y-57376D01*
X75750Y-57376D01*
X75723Y-57363D01*
X75709Y-57349D01*
X75695Y-57321D01*
X69339Y-44513D02*
X69353Y-44499D01*
X69367Y-44458D01*
X69367Y-44430D01*
X69353Y-44389D01*
X69325Y-44361D01*
X69298Y-44347D01*
X69243Y-44334D01*
X69201Y-44334D01*
X69146Y-44347D01*
X69118Y-44361D01*
X69091Y-44389D01*
X69077Y-44430D01*
X69077Y-44458D01*
X69091Y-44499D01*
X69105Y-44513D01*
X69077Y-44610D02*
X69077Y-44789D01*
X69187Y-44693D01*
X69187Y-44734D01*
X69201Y-44762D01*
X69215Y-44775D01*
X69243Y-44789D01*
X69312Y-44789D01*
X69339Y-44775D01*
X69353Y-44762D01*
X69367Y-44734D01*
X69367Y-44651D01*
X69353Y-44624D01*
X69339Y-44610D01*
X69077Y-44886D02*
X69077Y-45079D01*
X69367Y-44955D01*
X71622Y-44189D02*
X71719Y-44051D01*
X71788Y-44189D02*
X71788Y-43899D01*
X71677Y-43899D01*
X71650Y-43913D01*
X71636Y-43927D01*
X71622Y-43954D01*
X71622Y-43996D01*
X71636Y-44023D01*
X71650Y-44037D01*
X71677Y-44051D01*
X71788Y-44051D01*
X71511Y-43927D02*
X71498Y-43913D01*
X71470Y-43899D01*
X71401Y-43899D01*
X71373Y-43913D01*
X71360Y-43927D01*
X71346Y-43954D01*
X71346Y-43982D01*
X71360Y-44023D01*
X71525Y-44189D01*
X71346Y-44189D01*
X71070Y-44189D02*
X71235Y-44189D01*
X71152Y-44189D02*
X71152Y-43899D01*
X71180Y-43940D01*
X71208Y-43968D01*
X71235Y-43982D01*
X73367Y-59358D02*
X73464Y-59220D01*
X73533Y-59358D02*
X73533Y-59068D01*
X73422Y-59068D01*
X73395Y-59082D01*
X73381Y-59096D01*
X73367Y-59123D01*
X73367Y-59165D01*
X73381Y-59192D01*
X73395Y-59206D01*
X73422Y-59220D01*
X73533Y-59220D01*
X73091Y-59358D02*
X73256Y-59358D01*
X73174Y-59358D02*
X73174Y-59068D01*
X73201Y-59109D01*
X73229Y-59137D01*
X73256Y-59151D01*
X72842Y-59068D02*
X72897Y-59068D01*
X72925Y-59082D01*
X72939Y-59096D01*
X72966Y-59137D01*
X72980Y-59192D01*
X72980Y-59303D01*
X72966Y-59330D01*
X72953Y-59344D01*
X72925Y-59358D01*
X72870Y-59358D01*
X72842Y-59344D01*
X72828Y-59330D01*
X72815Y-59303D01*
X72815Y-59234D01*
X72828Y-59206D01*
X72842Y-59192D01*
X72870Y-59178D01*
X72925Y-59178D01*
X72953Y-59192D01*
X72966Y-59206D01*
X72980Y-59234D01*
X70223Y-56972D02*
X70085Y-56875D01*
X70223Y-56806D02*
X69933Y-56806D01*
X69933Y-56917D01*
X69947Y-56944D01*
X69961Y-56958D01*
X69988Y-56972D01*
X70030Y-56972D01*
X70057Y-56958D01*
X70071Y-56944D01*
X70085Y-56917D01*
X70085Y-56806D01*
X70223Y-57248D02*
X70223Y-57083D01*
X70223Y-57165D02*
X69933Y-57165D01*
X69974Y-57138D01*
X70002Y-57110D01*
X70016Y-57083D01*
X69933Y-57345D02*
X69933Y-57538D01*
X70223Y-57414D01*
X70061Y-53867D02*
X70158Y-53729D01*
X70227Y-53867D02*
X70227Y-53577D01*
X70116Y-53577D01*
X70089Y-53591D01*
X70075Y-53605D01*
X70061Y-53632D01*
X70061Y-53674D01*
X70075Y-53701D01*
X70089Y-53715D01*
X70116Y-53729D01*
X70227Y-53729D01*
X69785Y-53867D02*
X69950Y-53867D01*
X69868Y-53867D02*
X69868Y-53577D01*
X69895Y-53618D01*
X69923Y-53646D01*
X69950Y-53660D01*
X69619Y-53701D02*
X69647Y-53687D01*
X69660Y-53674D01*
X69674Y-53646D01*
X69674Y-53632D01*
X69660Y-53605D01*
X69647Y-53591D01*
X69619Y-53577D01*
X69564Y-53577D01*
X69536Y-53591D01*
X69522Y-53605D01*
X69509Y-53632D01*
X69509Y-53646D01*
X69522Y-53674D01*
X69536Y-53687D01*
X69564Y-53701D01*
X69619Y-53701D01*
X69647Y-53715D01*
X69660Y-53729D01*
X69674Y-53756D01*
X69674Y-53812D01*
X69660Y-53839D01*
X69647Y-53853D01*
X69619Y-53867D01*
X69564Y-53867D01*
X69536Y-53853D01*
X69522Y-53839D01*
X69509Y-53812D01*
X69509Y-53756D01*
X69522Y-53729D01*
X69536Y-53715D01*
X69564Y-53701D01*
X76558Y-53291D02*
X76572Y-53277D01*
X76586Y-53236D01*
X76586Y-53208D01*
X76572Y-53167D01*
X76544Y-53139D01*
X76517Y-53125D01*
X76462Y-53112D01*
X76420Y-53112D01*
X76365Y-53125D01*
X76337Y-53139D01*
X76310Y-53167D01*
X76296Y-53208D01*
X76296Y-53236D01*
X76310Y-53277D01*
X76324Y-53291D01*
X76296Y-53388D02*
X76296Y-53567D01*
X76406Y-53471D01*
X76406Y-53512D01*
X76420Y-53540D01*
X76434Y-53553D01*
X76462Y-53567D01*
X76531Y-53567D01*
X76558Y-53553D01*
X76572Y-53540D01*
X76586Y-53512D01*
X76586Y-53429D01*
X76572Y-53402D01*
X76558Y-53388D01*
X76586Y-53705D02*
X76586Y-53761D01*
X76572Y-53788D01*
X76558Y-53802D01*
X76517Y-53830D01*
X76462Y-53843D01*
X76351Y-53843D01*
X76324Y-53830D01*
X76310Y-53816D01*
X76296Y-53788D01*
X76296Y-53733D01*
X76310Y-53705D01*
X76324Y-53692D01*
X76351Y-53678D01*
X76420Y-53678D01*
X76448Y-53692D01*
X76462Y-53705D01*
X76475Y-53733D01*
X76475Y-53788D01*
X76462Y-53816D01*
X76448Y-53830D01*
X76420Y-53843D01*
X70692Y-45113D02*
X70554Y-45016D01*
X70692Y-44947D02*
X70402Y-44947D01*
X70402Y-45058D01*
X70416Y-45085D01*
X70430Y-45099D01*
X70457Y-45113D01*
X70499Y-45113D01*
X70526Y-45099D01*
X70540Y-45085D01*
X70554Y-45058D01*
X70554Y-44947D01*
X70692Y-45389D02*
X70692Y-45224D01*
X70692Y-45306D02*
X70402Y-45306D01*
X70443Y-45279D01*
X70471Y-45251D01*
X70485Y-45224D01*
X70692Y-45527D02*
X70692Y-45583D01*
X70678Y-45610D01*
X70664Y-45624D01*
X70623Y-45652D01*
X70568Y-45665D01*
X70457Y-45665D01*
X70430Y-45652D01*
X70416Y-45638D01*
X70402Y-45610D01*
X70402Y-45555D01*
X70416Y-45527D01*
X70430Y-45514D01*
X70457Y-45500D01*
X70526Y-45500D01*
X70554Y-45514D01*
X70568Y-45527D01*
X70581Y-45555D01*
X70581Y-45610D01*
X70568Y-45638D01*
X70554Y-45652D01*
X70526Y-45665D01*
X68146Y-62303D02*
X68243Y-62165D01*
X68312Y-62303D02*
X68312Y-62013D01*
X68201Y-62013D01*
X68174Y-62027D01*
X68160Y-62041D01*
X68146Y-62068D01*
X68146Y-62110D01*
X68160Y-62137D01*
X68174Y-62151D01*
X68201Y-62165D01*
X68312Y-62165D01*
X67870Y-62303D02*
X68035Y-62303D01*
X67953Y-62303D02*
X67953Y-62013D01*
X67980Y-62054D01*
X68008Y-62082D01*
X68035Y-62096D01*
X67607Y-62013D02*
X67745Y-62013D01*
X67759Y-62151D01*
X67745Y-62137D01*
X67718Y-62123D01*
X67649Y-62123D01*
X67621Y-62137D01*
X67607Y-62151D01*
X67594Y-62179D01*
X67594Y-62248D01*
X67607Y-62275D01*
X67621Y-62289D01*
X67649Y-62303D01*
X67718Y-62303D01*
X67745Y-62289D01*
X67759Y-62275D01*
X70516Y-62761D02*
X70613Y-62623D01*
X70682Y-62761D02*
X70682Y-62471D01*
X70571Y-62471D01*
X70544Y-62485D01*
X70530Y-62499D01*
X70516Y-62526D01*
X70516Y-62568D01*
X70530Y-62595D01*
X70544Y-62609D01*
X70571Y-62623D01*
X70682Y-62623D01*
X70240Y-62761D02*
X70405Y-62761D01*
X70323Y-62761D02*
X70323Y-62471D01*
X70350Y-62512D01*
X70378Y-62540D01*
X70405Y-62554D01*
X69991Y-62568D02*
X69991Y-62761D01*
X70060Y-62457D02*
X70129Y-62664D01*
X69950Y-62664D01*
X68694Y-61811D02*
X68708Y-61825D01*
X68749Y-61839D01*
X68777Y-61839D01*
X68818Y-61825D01*
X68846Y-61797D01*
X68860Y-61770D01*
X68873Y-61715D01*
X68873Y-61673D01*
X68860Y-61618D01*
X68846Y-61590D01*
X68818Y-61563D01*
X68777Y-61549D01*
X68749Y-61549D01*
X68708Y-61563D01*
X68694Y-61577D01*
X68583Y-61577D02*
X68570Y-61563D01*
X68542Y-61549D01*
X68473Y-61549D01*
X68445Y-61563D01*
X68432Y-61577D01*
X68418Y-61604D01*
X68418Y-61632D01*
X68432Y-61673D01*
X68597Y-61839D01*
X68418Y-61839D01*
X68169Y-61549D02*
X68224Y-61549D01*
X68252Y-61563D01*
X68266Y-61577D01*
X68293Y-61618D01*
X68307Y-61673D01*
X68307Y-61784D01*
X68293Y-61811D01*
X68280Y-61825D01*
X68252Y-61839D01*
X68197Y-61839D01*
X68169Y-61825D01*
X68155Y-61811D01*
X68142Y-61784D01*
X68142Y-61715D01*
X68155Y-61687D01*
X68169Y-61673D01*
X68197Y-61659D01*
X68252Y-61659D01*
X68280Y-61673D01*
X68293Y-61687D01*
X68307Y-61715D01*
X72361Y-45867D02*
X72458Y-45729D01*
X72527Y-45867D02*
X72527Y-45577D01*
X72416Y-45577D01*
X72389Y-45591D01*
X72375Y-45605D01*
X72361Y-45632D01*
X72361Y-45674D01*
X72375Y-45701D01*
X72389Y-45715D01*
X72416Y-45729D01*
X72527Y-45729D01*
X72250Y-45605D02*
X72237Y-45591D01*
X72209Y-45577D01*
X72140Y-45577D01*
X72112Y-45591D01*
X72099Y-45605D01*
X72085Y-45632D01*
X72085Y-45660D01*
X72099Y-45701D01*
X72264Y-45867D01*
X72085Y-45867D01*
X71905Y-45577D02*
X71878Y-45577D01*
X71850Y-45591D01*
X71836Y-45605D01*
X71822Y-45632D01*
X71809Y-45687D01*
X71809Y-45756D01*
X71822Y-45812D01*
X71836Y-45839D01*
X71850Y-45853D01*
X71878Y-45867D01*
X71905Y-45867D01*
X71933Y-45853D01*
X71947Y-45839D01*
X71960Y-45812D01*
X71974Y-45756D01*
X71974Y-45687D01*
X71960Y-45632D01*
X71947Y-45605D01*
X71933Y-45591D01*
X71905Y-45577D01*
X72611Y-55989D02*
X72625Y-56003D01*
X72666Y-56017D01*
X72694Y-56017D01*
X72735Y-56003D01*
X72763Y-55975D01*
X72777Y-55948D01*
X72790Y-55893D01*
X72790Y-55851D01*
X72777Y-55796D01*
X72763Y-55768D01*
X72735Y-55741D01*
X72694Y-55727D01*
X72666Y-55727D01*
X72625Y-55741D01*
X72611Y-55755D01*
X72349Y-55727D02*
X72487Y-55727D01*
X72500Y-55865D01*
X72487Y-55851D01*
X72459Y-55837D01*
X72390Y-55837D01*
X72362Y-55851D01*
X72349Y-55865D01*
X72335Y-55893D01*
X72335Y-55962D01*
X72349Y-55989D01*
X72362Y-56003D01*
X72390Y-56017D01*
X72459Y-56017D01*
X72487Y-56003D01*
X72500Y-55989D01*
X72086Y-55727D02*
X72141Y-55727D01*
X72169Y-55741D01*
X72183Y-55755D01*
X72210Y-55796D01*
X72224Y-55851D01*
X72224Y-55962D01*
X72210Y-55989D01*
X72197Y-56003D01*
X72169Y-56017D01*
X72114Y-56017D01*
X72086Y-56003D01*
X72072Y-55989D01*
X72059Y-55962D01*
X72059Y-55893D01*
X72072Y-55865D01*
X72086Y-55851D01*
X72114Y-55837D01*
X72169Y-55837D01*
X72197Y-55851D01*
X72210Y-55865D01*
X72224Y-55893D01*
X73506Y-58523D02*
X73520Y-58537D01*
X73561Y-58551D01*
X73589Y-58551D01*
X73630Y-58537D01*
X73658Y-58509D01*
X73672Y-58482D01*
X73685Y-58427D01*
X73685Y-58385D01*
X73672Y-58330D01*
X73658Y-58302D01*
X73630Y-58275D01*
X73589Y-58261D01*
X73561Y-58261D01*
X73520Y-58275D01*
X73506Y-58289D01*
X73244Y-58261D02*
X73382Y-58261D01*
X73395Y-58399D01*
X73382Y-58385D01*
X73354Y-58371D01*
X73285Y-58371D01*
X73257Y-58385D01*
X73244Y-58399D01*
X73230Y-58427D01*
X73230Y-58496D01*
X73244Y-58523D01*
X73257Y-58537D01*
X73285Y-58551D01*
X73354Y-58551D01*
X73382Y-58537D01*
X73395Y-58523D01*
X73133Y-58261D02*
X72940Y-58261D01*
X73064Y-58551D01*
X72782Y-57800D02*
X72796Y-57786D01*
X72810Y-57745D01*
X72810Y-57717D01*
X72796Y-57676D01*
X72768Y-57648D01*
X72741Y-57634D01*
X72686Y-57621D01*
X72644Y-57621D01*
X72589Y-57634D01*
X72561Y-57648D01*
X72534Y-57676D01*
X72520Y-57717D01*
X72520Y-57745D01*
X72534Y-57786D01*
X72548Y-57800D01*
X72520Y-58062D02*
X72520Y-57924D01*
X72658Y-57911D01*
X72644Y-57924D01*
X72630Y-57952D01*
X72630Y-58021D01*
X72644Y-58049D01*
X72658Y-58062D01*
X72686Y-58076D01*
X72755Y-58076D01*
X72782Y-58062D01*
X72796Y-58049D01*
X72810Y-58021D01*
X72810Y-57952D01*
X72796Y-57924D01*
X72782Y-57911D01*
X72644Y-58242D02*
X72630Y-58214D01*
X72617Y-58201D01*
X72589Y-58187D01*
X72575Y-58187D01*
X72548Y-58201D01*
X72534Y-58214D01*
X72520Y-58242D01*
X72520Y-58297D01*
X72534Y-58325D01*
X72548Y-58339D01*
X72575Y-58352D01*
X72589Y-58352D01*
X72617Y-58339D01*
X72630Y-58325D01*
X72644Y-58297D01*
X72644Y-58242D01*
X72658Y-58214D01*
X72672Y-58201D01*
X72699Y-58187D01*
X72755Y-58187D01*
X72782Y-58201D01*
X72796Y-58214D01*
X72810Y-58242D01*
X72810Y-58297D01*
X72796Y-58325D01*
X72782Y-58339D01*
X72755Y-58352D01*
X72699Y-58352D01*
X72672Y-58339D01*
X72658Y-58325D01*
X72644Y-58297D01*
X74136Y-54964D02*
X74150Y-54978D01*
X74191Y-54992D01*
X74219Y-54992D01*
X74260Y-54978D01*
X74288Y-54950D01*
X74302Y-54923D01*
X74315Y-54868D01*
X74315Y-54826D01*
X74302Y-54771D01*
X74288Y-54743D01*
X74260Y-54716D01*
X74219Y-54702D01*
X74191Y-54702D01*
X74150Y-54716D01*
X74136Y-54730D01*
X73874Y-54702D02*
X74012Y-54702D01*
X74025Y-54840D01*
X74012Y-54826D01*
X73984Y-54812D01*
X73915Y-54812D01*
X73887Y-54826D01*
X73874Y-54840D01*
X73860Y-54868D01*
X73860Y-54937D01*
X73874Y-54964D01*
X73887Y-54978D01*
X73915Y-54992D01*
X73984Y-54992D01*
X74012Y-54978D01*
X74025Y-54964D01*
X73611Y-54799D02*
X73611Y-54992D01*
X73680Y-54688D02*
X73749Y-54895D01*
X73570Y-54895D01*
X73711Y-54542D02*
X73808Y-54404D01*
X73877Y-54542D02*
X73877Y-54252D01*
X73766Y-54252D01*
X73739Y-54266D01*
X73725Y-54280D01*
X73711Y-54307D01*
X73711Y-54349D01*
X73725Y-54376D01*
X73739Y-54390D01*
X73766Y-54404D01*
X73877Y-54404D01*
X73600Y-54280D02*
X73587Y-54266D01*
X73559Y-54252D01*
X73490Y-54252D01*
X73462Y-54266D01*
X73449Y-54280D01*
X73435Y-54307D01*
X73435Y-54335D01*
X73449Y-54376D01*
X73614Y-54542D01*
X73435Y-54542D01*
X73324Y-54280D02*
X73310Y-54266D01*
X73283Y-54252D01*
X73214Y-54252D01*
X73186Y-54266D01*
X73172Y-54280D01*
X73159Y-54307D01*
X73159Y-54335D01*
X73172Y-54376D01*
X73338Y-54542D01*
X73159Y-54542D01*
X71073Y-46542D02*
X71170Y-46404D01*
X71239Y-46542D02*
X71239Y-46252D01*
X71128Y-46252D01*
X71100Y-46266D01*
X71087Y-46280D01*
X71073Y-46307D01*
X71073Y-46349D01*
X71087Y-46376D01*
X71100Y-46390D01*
X71128Y-46404D01*
X71239Y-46404D01*
X70810Y-46252D02*
X70949Y-46252D01*
X70962Y-46390D01*
X70949Y-46376D01*
X70921Y-46362D01*
X70852Y-46362D01*
X70824Y-46376D01*
X70810Y-46390D01*
X70797Y-46418D01*
X70797Y-46487D01*
X70810Y-46514D01*
X70824Y-46528D01*
X70852Y-46542D01*
X70921Y-46542D01*
X70949Y-46528D01*
X70962Y-46514D01*
X75673Y-61317D02*
X75770Y-61179D01*
X75839Y-61317D02*
X75839Y-61027D01*
X75728Y-61027D01*
X75700Y-61041D01*
X75687Y-61055D01*
X75673Y-61082D01*
X75673Y-61124D01*
X75687Y-61151D01*
X75700Y-61165D01*
X75728Y-61179D01*
X75839Y-61179D01*
X75507Y-61151D02*
X75535Y-61137D01*
X75549Y-61124D01*
X75562Y-61096D01*
X75562Y-61082D01*
X75549Y-61055D01*
X75535Y-61041D01*
X75507Y-61027D01*
X75452Y-61027D01*
X75424Y-61041D01*
X75410Y-61055D01*
X75397Y-61082D01*
X75397Y-61096D01*
X75410Y-61124D01*
X75424Y-61137D01*
X75452Y-61151D01*
X75507Y-61151D01*
X75535Y-61165D01*
X75549Y-61179D01*
X75562Y-61206D01*
X75562Y-61262D01*
X75549Y-61289D01*
X75535Y-61303D01*
X75507Y-61317D01*
X75452Y-61317D01*
X75424Y-61303D01*
X75410Y-61289D01*
X75397Y-61262D01*
X75397Y-61206D01*
X75410Y-61179D01*
X75424Y-61165D01*
X75452Y-61151D01*
X76780Y-62060D02*
X76877Y-61922D01*
X76946Y-62060D02*
X76946Y-61770D01*
X76835Y-61770D01*
X76808Y-61784D01*
X76794Y-61798D01*
X76780Y-61825D01*
X76780Y-61867D01*
X76794Y-61894D01*
X76808Y-61908D01*
X76835Y-61922D01*
X76946Y-61922D01*
X76504Y-62060D02*
X76669Y-62060D01*
X76587Y-62060D02*
X76587Y-61770D01*
X76614Y-61811D01*
X76642Y-61839D01*
X76669Y-61853D01*
X76324Y-61770D02*
X76297Y-61770D01*
X76269Y-61784D01*
X76255Y-61798D01*
X76241Y-61825D01*
X76228Y-61880D01*
X76228Y-61949D01*
X76241Y-62005D01*
X76255Y-62032D01*
X76269Y-62046D01*
X76297Y-62060D01*
X76324Y-62060D01*
X76352Y-62046D01*
X76366Y-62032D01*
X76379Y-62005D01*
X76393Y-61949D01*
X76393Y-61880D01*
X76379Y-61825D01*
X76366Y-61798D01*
X76352Y-61784D01*
X76324Y-61770D01*
X67267Y-54033D02*
X67567Y-54233D01*
X67267Y-54233D02*
X67567Y-54033D01*
X67296Y-54333D02*
X67281Y-54347D01*
X67267Y-54376D01*
X67267Y-54447D01*
X67281Y-54476D01*
X67296Y-54490D01*
X67324Y-54504D01*
X67353Y-54504D01*
X67396Y-54490D01*
X67567Y-54318D01*
X67567Y-54504D01*
X77534Y-61787D02*
X77548Y-61773D01*
X77562Y-61732D01*
X77562Y-61704D01*
X77548Y-61663D01*
X77520Y-61635D01*
X77493Y-61621D01*
X77438Y-61608D01*
X77396Y-61608D01*
X77341Y-61621D01*
X77313Y-61635D01*
X77286Y-61663D01*
X77272Y-61704D01*
X77272Y-61732D01*
X77286Y-61773D01*
X77300Y-61787D01*
X77300Y-61898D02*
X77286Y-61911D01*
X77272Y-61939D01*
X77272Y-62008D01*
X77286Y-62036D01*
X77300Y-62049D01*
X77327Y-62063D01*
X77355Y-62063D01*
X77396Y-62049D01*
X77562Y-61884D01*
X77562Y-62063D01*
X77300Y-62174D02*
X77286Y-62188D01*
X77272Y-62215D01*
X77272Y-62284D01*
X77286Y-62312D01*
X77300Y-62326D01*
X77327Y-62339D01*
X77355Y-62339D01*
X77396Y-62326D01*
X77562Y-62160D01*
X77562Y-62339D01*
X76850Y-44501D02*
X76864Y-44487D01*
X76878Y-44446D01*
X76878Y-44418D01*
X76864Y-44377D01*
X76836Y-44349D01*
X76809Y-44335D01*
X76754Y-44322D01*
X76712Y-44322D01*
X76657Y-44335D01*
X76629Y-44349D01*
X76602Y-44377D01*
X76588Y-44418D01*
X76588Y-44446D01*
X76602Y-44487D01*
X76616Y-44501D01*
X76588Y-44598D02*
X76588Y-44777D01*
X76698Y-44681D01*
X76698Y-44722D01*
X76712Y-44750D01*
X76726Y-44764D01*
X76754Y-44777D01*
X76823Y-44777D01*
X76850Y-44764D01*
X76864Y-44750D01*
X76878Y-44722D01*
X76878Y-44639D01*
X76864Y-44612D01*
X76850Y-44598D01*
X73946Y-60967D02*
X73960Y-60981D01*
X74001Y-60995D01*
X74029Y-60995D01*
X74070Y-60981D01*
X74098Y-60954D01*
X74112Y-60926D01*
X74125Y-60871D01*
X74125Y-60829D01*
X74112Y-60774D01*
X74098Y-60746D01*
X74070Y-60719D01*
X74029Y-60705D01*
X74001Y-60705D01*
X73960Y-60719D01*
X73946Y-60733D01*
X73835Y-60733D02*
X73822Y-60719D01*
X73794Y-60705D01*
X73725Y-60705D01*
X73697Y-60719D01*
X73684Y-60733D01*
X73670Y-60760D01*
X73670Y-60788D01*
X73684Y-60829D01*
X73849Y-60995D01*
X73670Y-60995D01*
X73490Y-60705D02*
X73463Y-60705D01*
X73435Y-60719D01*
X73421Y-60733D01*
X73407Y-60760D01*
X73394Y-60816D01*
X73394Y-60885D01*
X73407Y-60940D01*
X73421Y-60967D01*
X73435Y-60981D01*
X73463Y-60995D01*
X73490Y-60995D01*
X73518Y-60981D01*
X73532Y-60967D01*
X73545Y-60940D01*
X73559Y-60885D01*
X73559Y-60816D01*
X73545Y-60760D01*
X73532Y-60733D01*
X73518Y-60719D01*
X73490Y-60705D01*
X68936Y-56264D02*
X68950Y-56278D01*
X68991Y-56292D01*
X69019Y-56292D01*
X69060Y-56278D01*
X69088Y-56250D01*
X69102Y-56223D01*
X69115Y-56168D01*
X69115Y-56126D01*
X69102Y-56071D01*
X69088Y-56043D01*
X69060Y-56016D01*
X69019Y-56002D01*
X68991Y-56002D01*
X68950Y-56016D01*
X68936Y-56030D01*
X68825Y-56030D02*
X68812Y-56016D01*
X68784Y-56002D01*
X68715Y-56002D01*
X68687Y-56016D01*
X68674Y-56030D01*
X68660Y-56057D01*
X68660Y-56085D01*
X68674Y-56126D01*
X68839Y-56292D01*
X68660Y-56292D01*
X68563Y-56002D02*
X68370Y-56002D01*
X68494Y-56292D01*
X68061Y-55639D02*
X68075Y-55653D01*
X68116Y-55667D01*
X68144Y-55667D01*
X68185Y-55653D01*
X68213Y-55625D01*
X68227Y-55598D01*
X68240Y-55543D01*
X68240Y-55501D01*
X68227Y-55446D01*
X68213Y-55418D01*
X68185Y-55391D01*
X68144Y-55377D01*
X68116Y-55377D01*
X68075Y-55391D01*
X68061Y-55405D01*
X67950Y-55405D02*
X67937Y-55391D01*
X67909Y-55377D01*
X67840Y-55377D01*
X67812Y-55391D01*
X67799Y-55405D01*
X67785Y-55432D01*
X67785Y-55460D01*
X67799Y-55501D01*
X67964Y-55667D01*
X67785Y-55667D01*
X67619Y-55501D02*
X67647Y-55487D01*
X67660Y-55474D01*
X67674Y-55446D01*
X67674Y-55432D01*
X67660Y-55405D01*
X67647Y-55391D01*
X67619Y-55377D01*
X67564Y-55377D01*
X67536Y-55391D01*
X67522Y-55405D01*
X67509Y-55432D01*
X67509Y-55446D01*
X67522Y-55474D01*
X67536Y-55487D01*
X67564Y-55501D01*
X67619Y-55501D01*
X67647Y-55515D01*
X67660Y-55529D01*
X67674Y-55556D01*
X67674Y-55612D01*
X67660Y-55639D01*
X67647Y-55653D01*
X67619Y-55667D01*
X67564Y-55667D01*
X67536Y-55653D01*
X67522Y-55639D01*
X67509Y-55612D01*
X67509Y-55556D01*
X67522Y-55529D01*
X67536Y-55515D01*
X67564Y-55501D01*
X69107Y-53015D02*
X69121Y-53029D01*
X69162Y-53043D01*
X69190Y-53043D01*
X69231Y-53029D01*
X69259Y-53001D01*
X69273Y-52974D01*
X69286Y-52919D01*
X69286Y-52877D01*
X69273Y-52822D01*
X69259Y-52794D01*
X69231Y-52767D01*
X69190Y-52753D01*
X69162Y-52753D01*
X69121Y-52767D01*
X69107Y-52781D01*
X68996Y-52781D02*
X68983Y-52767D01*
X68955Y-52753D01*
X68886Y-52753D01*
X68858Y-52767D01*
X68845Y-52781D01*
X68831Y-52808D01*
X68831Y-52836D01*
X68845Y-52877D01*
X69010Y-53043D01*
X68831Y-53043D01*
X68693Y-53043D02*
X68637Y-53043D01*
X68610Y-53029D01*
X68596Y-53015D01*
X68568Y-52974D01*
X68555Y-52919D01*
X68555Y-52808D01*
X68568Y-52781D01*
X68582Y-52767D01*
X68610Y-52753D01*
X68665Y-52753D01*
X68693Y-52767D01*
X68706Y-52781D01*
X68720Y-52808D01*
X68720Y-52877D01*
X68706Y-52905D01*
X68693Y-52919D01*
X68665Y-52932D01*
X68610Y-52932D01*
X68582Y-52919D01*
X68568Y-52905D01*
X68555Y-52877D01*
X75030Y-47690D02*
X75044Y-47704D01*
X75085Y-47718D01*
X75113Y-47718D01*
X75154Y-47704D01*
X75182Y-47676D01*
X75196Y-47649D01*
X75209Y-47594D01*
X75209Y-47552D01*
X75196Y-47497D01*
X75182Y-47469D01*
X75154Y-47442D01*
X75113Y-47428D01*
X75085Y-47428D01*
X75044Y-47442D01*
X75030Y-47456D01*
X74754Y-47718D02*
X74919Y-47718D01*
X74837Y-47718D02*
X74837Y-47428D01*
X74864Y-47469D01*
X74892Y-47497D01*
X74919Y-47511D01*
X74505Y-47428D02*
X74560Y-47428D01*
X74588Y-47442D01*
X74602Y-47456D01*
X74629Y-47497D01*
X74643Y-47552D01*
X74643Y-47663D01*
X74629Y-47690D01*
X74616Y-47704D01*
X74588Y-47718D01*
X74533Y-47718D01*
X74505Y-47704D01*
X74491Y-47690D01*
X74478Y-47663D01*
X74478Y-47594D01*
X74491Y-47566D01*
X74505Y-47552D01*
X74533Y-47538D01*
X74588Y-47538D01*
X74616Y-47552D01*
X74629Y-47566D01*
X74643Y-47594D01*
X69011Y-44142D02*
X69108Y-44004D01*
X69177Y-44142D02*
X69177Y-43852D01*
X69066Y-43852D01*
X69039Y-43866D01*
X69025Y-43880D01*
X69011Y-43907D01*
X69011Y-43949D01*
X69025Y-43976D01*
X69039Y-43990D01*
X69066Y-44004D01*
X69177Y-44004D01*
X68914Y-43852D02*
X68735Y-43852D01*
X68831Y-43962D01*
X68790Y-43962D01*
X68762Y-43976D01*
X68749Y-43990D01*
X68735Y-44018D01*
X68735Y-44087D01*
X68749Y-44114D01*
X68762Y-44128D01*
X68790Y-44142D01*
X68873Y-44142D01*
X68900Y-44128D01*
X68914Y-44114D01*
X68555Y-43852D02*
X68528Y-43852D01*
X68500Y-43866D01*
X68486Y-43880D01*
X68472Y-43907D01*
X68459Y-43962D01*
X68459Y-44031D01*
X68472Y-44087D01*
X68486Y-44114D01*
X68500Y-44128D01*
X68528Y-44142D01*
X68555Y-44142D01*
X68583Y-44128D01*
X68597Y-44114D01*
X68610Y-44087D01*
X68624Y-44031D01*
X68624Y-43962D01*
X68610Y-43907D01*
X68597Y-43880D01*
X68583Y-43866D01*
X68555Y-43852D01*
X69927Y-46667D02*
X69941Y-46681D01*
X69982Y-46695D01*
X70010Y-46695D01*
X70051Y-46681D01*
X70079Y-46653D01*
X70093Y-46626D01*
X70106Y-46571D01*
X70106Y-46529D01*
X70093Y-46474D01*
X70079Y-46446D01*
X70051Y-46419D01*
X70010Y-46405D01*
X69982Y-46405D01*
X69941Y-46419D01*
X69927Y-46433D01*
X69651Y-46695D02*
X69816Y-46695D01*
X69734Y-46695D02*
X69734Y-46405D01*
X69761Y-46446D01*
X69789Y-46474D01*
X69816Y-46488D01*
X69554Y-46405D02*
X69375Y-46405D01*
X69471Y-46515D01*
X69430Y-46515D01*
X69402Y-46529D01*
X69388Y-46543D01*
X69375Y-46571D01*
X69375Y-46640D01*
X69388Y-46667D01*
X69402Y-46681D01*
X69430Y-46695D01*
X69513Y-46695D01*
X69540Y-46681D01*
X69554Y-46667D01*
X68082Y-57326D02*
X68179Y-57188D01*
X68248Y-57326D02*
X68248Y-57036D01*
X68137Y-57036D01*
X68110Y-57050D01*
X68096Y-57064D01*
X68082Y-57091D01*
X68082Y-57133D01*
X68096Y-57160D01*
X68110Y-57174D01*
X68137Y-57188D01*
X68248Y-57188D01*
X67985Y-57036D02*
X67806Y-57036D01*
X67902Y-57146D01*
X67861Y-57146D01*
X67833Y-57160D01*
X67820Y-57174D01*
X67806Y-57202D01*
X67806Y-57271D01*
X67820Y-57298D01*
X67833Y-57312D01*
X67861Y-57326D01*
X67944Y-57326D01*
X67971Y-57312D01*
X67985Y-57298D01*
X67709Y-57036D02*
X67530Y-57036D01*
X67626Y-57146D01*
X67585Y-57146D01*
X67557Y-57160D01*
X67543Y-57174D01*
X67530Y-57202D01*
X67530Y-57271D01*
X67543Y-57298D01*
X67557Y-57312D01*
X67585Y-57326D01*
X67668Y-57326D01*
X67695Y-57312D01*
X67709Y-57298D01*
X67692Y-50738D02*
X67554Y-50641D01*
X67692Y-50572D02*
X67402Y-50572D01*
X67402Y-50683D01*
X67416Y-50710D01*
X67430Y-50724D01*
X67457Y-50738D01*
X67499Y-50738D01*
X67526Y-50724D01*
X67540Y-50710D01*
X67554Y-50683D01*
X67554Y-50572D01*
X67402Y-50835D02*
X67402Y-51014D01*
X67512Y-50918D01*
X67512Y-50959D01*
X67526Y-50987D01*
X67540Y-51000D01*
X67568Y-51014D01*
X67637Y-51014D01*
X67664Y-51000D01*
X67678Y-50987D01*
X67692Y-50959D01*
X67692Y-50876D01*
X67678Y-50849D01*
X67664Y-50835D01*
X67430Y-51125D02*
X67416Y-51139D01*
X67402Y-51166D01*
X67402Y-51235D01*
X67416Y-51263D01*
X67430Y-51277D01*
X67457Y-51290D01*
X67485Y-51290D01*
X67526Y-51277D01*
X67692Y-51111D01*
X67692Y-51290D01*
X68773Y-45999D02*
X68635Y-45902D01*
X68773Y-45833D02*
X68483Y-45833D01*
X68483Y-45944D01*
X68497Y-45971D01*
X68511Y-45985D01*
X68538Y-45999D01*
X68580Y-45999D01*
X68607Y-45985D01*
X68621Y-45971D01*
X68635Y-45944D01*
X68635Y-45833D01*
X68483Y-46096D02*
X68483Y-46275D01*
X68593Y-46179D01*
X68593Y-46220D01*
X68607Y-46248D01*
X68621Y-46261D01*
X68649Y-46275D01*
X68718Y-46275D01*
X68745Y-46261D01*
X68759Y-46248D01*
X68773Y-46220D01*
X68773Y-46137D01*
X68759Y-46110D01*
X68745Y-46096D01*
X68773Y-46551D02*
X68773Y-46386D01*
X68773Y-46469D02*
X68483Y-46469D01*
X68524Y-46441D01*
X68552Y-46413D01*
X68566Y-46386D01*
X67789Y-58488D02*
X67803Y-58474D01*
X67817Y-58433D01*
X67817Y-58405D01*
X67803Y-58364D01*
X67775Y-58336D01*
X67748Y-58322D01*
X67693Y-58309D01*
X67651Y-58309D01*
X67596Y-58322D01*
X67568Y-58336D01*
X67541Y-58364D01*
X67527Y-58405D01*
X67527Y-58433D01*
X67541Y-58474D01*
X67555Y-58488D01*
X67527Y-58737D02*
X67527Y-58681D01*
X67541Y-58654D01*
X67555Y-58640D01*
X67596Y-58612D01*
X67651Y-58599D01*
X67762Y-58599D01*
X67789Y-58612D01*
X67803Y-58626D01*
X67817Y-58654D01*
X67817Y-58709D01*
X67803Y-58737D01*
X67789Y-58750D01*
X67762Y-58764D01*
X67693Y-58764D01*
X67665Y-58750D01*
X67651Y-58737D01*
X67637Y-58709D01*
X67637Y-58654D01*
X67651Y-58626D01*
X67665Y-58612D01*
X67693Y-58599D01*
X67624Y-59013D02*
X67817Y-59013D01*
X67513Y-58944D02*
X67720Y-58875D01*
X67720Y-59054D01*
X68539Y-50088D02*
X68553Y-50074D01*
X68567Y-50033D01*
X68567Y-50005D01*
X68553Y-49964D01*
X68525Y-49936D01*
X68498Y-49922D01*
X68443Y-49909D01*
X68401Y-49909D01*
X68346Y-49922D01*
X68318Y-49936D01*
X68291Y-49964D01*
X68277Y-50005D01*
X68277Y-50033D01*
X68291Y-50074D01*
X68305Y-50088D01*
X68277Y-50337D02*
X68277Y-50281D01*
X68291Y-50254D01*
X68305Y-50240D01*
X68346Y-50212D01*
X68401Y-50199D01*
X68512Y-50199D01*
X68539Y-50212D01*
X68553Y-50226D01*
X68567Y-50254D01*
X68567Y-50309D01*
X68553Y-50337D01*
X68539Y-50350D01*
X68512Y-50364D01*
X68443Y-50364D01*
X68415Y-50350D01*
X68401Y-50337D01*
X68387Y-50309D01*
X68387Y-50254D01*
X68401Y-50226D01*
X68415Y-50212D01*
X68443Y-50199D01*
X68277Y-50461D02*
X68277Y-50640D01*
X68387Y-50544D01*
X68387Y-50585D01*
X68401Y-50613D01*
X68415Y-50627D01*
X68443Y-50640D01*
X68512Y-50640D01*
X68539Y-50627D01*
X68553Y-50613D01*
X68567Y-50585D01*
X68567Y-50502D01*
X68553Y-50475D01*
X68539Y-50461D01*
X68214Y-48138D02*
X68228Y-48124D01*
X68242Y-48083D01*
X68242Y-48055D01*
X68228Y-48014D01*
X68200Y-47986D01*
X68173Y-47972D01*
X68118Y-47959D01*
X68076Y-47959D01*
X68021Y-47972D01*
X67993Y-47986D01*
X67966Y-48014D01*
X67952Y-48055D01*
X67952Y-48083D01*
X67966Y-48124D01*
X67980Y-48138D01*
X67952Y-48387D02*
X67952Y-48331D01*
X67966Y-48304D01*
X67980Y-48290D01*
X68021Y-48262D01*
X68076Y-48249D01*
X68187Y-48249D01*
X68214Y-48262D01*
X68228Y-48276D01*
X68242Y-48304D01*
X68242Y-48359D01*
X68228Y-48387D01*
X68214Y-48400D01*
X68187Y-48414D01*
X68118Y-48414D01*
X68090Y-48400D01*
X68076Y-48387D01*
X68062Y-48359D01*
X68062Y-48304D01*
X68076Y-48276D01*
X68090Y-48262D01*
X68118Y-48249D01*
X67980Y-48525D02*
X67966Y-48539D01*
X67952Y-48566D01*
X67952Y-48635D01*
X67966Y-48663D01*
X67980Y-48677D01*
X68007Y-48690D01*
X68035Y-48690D01*
X68076Y-48677D01*
X68242Y-48511D01*
X68242Y-48690D01*
X68036Y-45564D02*
X68050Y-45578D01*
X68091Y-45592D01*
X68119Y-45592D01*
X68160Y-45578D01*
X68188Y-45550D01*
X68202Y-45523D01*
X68215Y-45468D01*
X68215Y-45426D01*
X68202Y-45371D01*
X68188Y-45343D01*
X68160Y-45316D01*
X68119Y-45302D01*
X68091Y-45302D01*
X68050Y-45316D01*
X68036Y-45330D01*
X67787Y-45302D02*
X67843Y-45302D01*
X67870Y-45316D01*
X67884Y-45330D01*
X67912Y-45371D01*
X67925Y-45426D01*
X67925Y-45537D01*
X67912Y-45564D01*
X67898Y-45578D01*
X67870Y-45592D01*
X67815Y-45592D01*
X67787Y-45578D01*
X67774Y-45564D01*
X67760Y-45537D01*
X67760Y-45468D01*
X67774Y-45440D01*
X67787Y-45426D01*
X67815Y-45412D01*
X67870Y-45412D01*
X67898Y-45426D01*
X67912Y-45440D01*
X67925Y-45468D01*
X67484Y-45592D02*
X67649Y-45592D01*
X67566Y-45592D02*
X67566Y-45302D01*
X67594Y-45343D01*
X67622Y-45371D01*
X67649Y-45385D01*
X73603Y-51546D02*
X73603Y-51830D01*
X73587Y-51863D01*
X73570Y-51880D01*
X73537Y-51896D01*
X73470Y-51896D01*
X73437Y-51880D01*
X73420Y-51863D01*
X73403Y-51830D01*
X73403Y-51546D01*
X73053Y-51896D02*
X73253Y-51896D01*
X73153Y-51896D02*
X73153Y-51546D01*
X73187Y-51596D01*
X73220Y-51630D01*
X73253Y-51646D01*
X74861Y-50767D02*
X74958Y-50629D01*
X75027Y-50767D02*
X75027Y-50477D01*
X74916Y-50477D01*
X74889Y-50491D01*
X74875Y-50505D01*
X74861Y-50532D01*
X74861Y-50574D01*
X74875Y-50601D01*
X74889Y-50615D01*
X74916Y-50629D01*
X75027Y-50629D01*
X74764Y-50477D02*
X74585Y-50477D01*
X74681Y-50587D01*
X74640Y-50587D01*
X74612Y-50601D01*
X74599Y-50615D01*
X74585Y-50643D01*
X74585Y-50712D01*
X74599Y-50739D01*
X74612Y-50753D01*
X74640Y-50767D01*
X74723Y-50767D01*
X74750Y-50753D01*
X74764Y-50739D01*
X74322Y-50477D02*
X74460Y-50477D01*
X74474Y-50615D01*
X74460Y-50601D01*
X74433Y-50587D01*
X74364Y-50587D01*
X74336Y-50601D01*
X74322Y-50615D01*
X74309Y-50643D01*
X74309Y-50712D01*
X74322Y-50739D01*
X74336Y-50753D01*
X74364Y-50767D01*
X74433Y-50767D01*
X74460Y-50753D01*
X74474Y-50739D01*
X74342Y-50090D02*
X74439Y-49952D01*
X74508Y-50090D02*
X74508Y-49800D01*
X74397Y-49800D01*
X74370Y-49814D01*
X74356Y-49828D01*
X74342Y-49855D01*
X74342Y-49897D01*
X74356Y-49924D01*
X74370Y-49938D01*
X74397Y-49952D01*
X74508Y-49952D01*
X74245Y-49800D02*
X74066Y-49800D01*
X74162Y-49910D01*
X74121Y-49910D01*
X74093Y-49924D01*
X74080Y-49938D01*
X74066Y-49966D01*
X74066Y-50035D01*
X74080Y-50062D01*
X74093Y-50076D01*
X74121Y-50090D01*
X74204Y-50090D01*
X74231Y-50076D01*
X74245Y-50062D01*
X73817Y-49897D02*
X73817Y-50090D01*
X73886Y-49786D02*
X73955Y-49993D01*
X73776Y-49993D01*
X73514Y-55970D02*
X73528Y-55984D01*
X73569Y-55998D01*
X73597Y-55998D01*
X73638Y-55984D01*
X73666Y-55956D01*
X73680Y-55929D01*
X73693Y-55874D01*
X73693Y-55832D01*
X73680Y-55777D01*
X73666Y-55749D01*
X73638Y-55722D01*
X73597Y-55708D01*
X73569Y-55708D01*
X73528Y-55722D01*
X73514Y-55736D01*
X73252Y-55708D02*
X73390Y-55708D01*
X73403Y-55846D01*
X73390Y-55832D01*
X73362Y-55818D01*
X73293Y-55818D01*
X73265Y-55832D01*
X73252Y-55846D01*
X73238Y-55874D01*
X73238Y-55943D01*
X73252Y-55970D01*
X73265Y-55984D01*
X73293Y-55998D01*
X73362Y-55998D01*
X73390Y-55984D01*
X73403Y-55970D01*
X73127Y-55736D02*
X73113Y-55722D01*
X73086Y-55708D01*
X73017Y-55708D01*
X72989Y-55722D01*
X72975Y-55736D01*
X72962Y-55763D01*
X72962Y-55791D01*
X72975Y-55832D01*
X73141Y-55998D01*
X72962Y-55998D01*
X74742Y-49460D02*
X74756Y-49474D01*
X74797Y-49488D01*
X74825Y-49488D01*
X74866Y-49474D01*
X74894Y-49446D01*
X74908Y-49419D01*
X74921Y-49364D01*
X74921Y-49322D01*
X74908Y-49267D01*
X74894Y-49239D01*
X74866Y-49212D01*
X74825Y-49198D01*
X74797Y-49198D01*
X74756Y-49212D01*
X74742Y-49226D01*
X74631Y-49226D02*
X74618Y-49212D01*
X74590Y-49198D01*
X74521Y-49198D01*
X74493Y-49212D01*
X74479Y-49226D01*
X74466Y-49253D01*
X74466Y-49281D01*
X74479Y-49322D01*
X74645Y-49488D01*
X74466Y-49488D01*
X74082Y-49459D02*
X74096Y-49473D01*
X74137Y-49487D01*
X74165Y-49487D01*
X74206Y-49473D01*
X74234Y-49445D01*
X74248Y-49418D01*
X74261Y-49363D01*
X74261Y-49321D01*
X74248Y-49266D01*
X74234Y-49238D01*
X74206Y-49211D01*
X74165Y-49197D01*
X74137Y-49197D01*
X74096Y-49211D01*
X74082Y-49225D01*
X73806Y-49487D02*
X73971Y-49487D01*
X73889Y-49487D02*
X73889Y-49197D01*
X73916Y-49238D01*
X73944Y-49266D01*
X73971Y-49280D01*
X73856Y-56816D02*
X73870Y-56830D01*
X73911Y-56844D01*
X73939Y-56844D01*
X73980Y-56830D01*
X74008Y-56802D01*
X74022Y-56775D01*
X74035Y-56720D01*
X74035Y-56678D01*
X74022Y-56623D01*
X74008Y-56595D01*
X73980Y-56568D01*
X73939Y-56554D01*
X73911Y-56554D01*
X73870Y-56568D01*
X73856Y-56582D01*
X73594Y-56554D02*
X73732Y-56554D01*
X73745Y-56692D01*
X73732Y-56678D01*
X73704Y-56664D01*
X73635Y-56664D01*
X73607Y-56678D01*
X73594Y-56692D01*
X73580Y-56720D01*
X73580Y-56789D01*
X73594Y-56816D01*
X73607Y-56830D01*
X73635Y-56844D01*
X73704Y-56844D01*
X73732Y-56830D01*
X73745Y-56816D01*
X73483Y-56554D02*
X73304Y-56554D01*
X73400Y-56664D01*
X73359Y-56664D01*
X73331Y-56678D01*
X73317Y-56692D01*
X73304Y-56720D01*
X73304Y-56789D01*
X73317Y-56816D01*
X73331Y-56830D01*
X73359Y-56844D01*
X73442Y-56844D01*
X73469Y-56830D01*
X73483Y-56816D01*
X74277Y-58103D02*
X74291Y-58117D01*
X74332Y-58131D01*
X74360Y-58131D01*
X74401Y-58117D01*
X74429Y-58089D01*
X74443Y-58062D01*
X74456Y-58007D01*
X74456Y-57965D01*
X74443Y-57910D01*
X74429Y-57882D01*
X74401Y-57855D01*
X74360Y-57841D01*
X74332Y-57841D01*
X74291Y-57855D01*
X74277Y-57869D01*
X74015Y-57841D02*
X74153Y-57841D01*
X74166Y-57979D01*
X74153Y-57965D01*
X74125Y-57951D01*
X74056Y-57951D01*
X74028Y-57965D01*
X74015Y-57979D01*
X74001Y-58007D01*
X74001Y-58076D01*
X74015Y-58103D01*
X74028Y-58117D01*
X74056Y-58131D01*
X74125Y-58131D01*
X74153Y-58117D01*
X74166Y-58103D01*
X73821Y-57841D02*
X73794Y-57841D01*
X73766Y-57855D01*
X73752Y-57869D01*
X73738Y-57896D01*
X73725Y-57951D01*
X73725Y-58020D01*
X73738Y-58076D01*
X73752Y-58103D01*
X73766Y-58117D01*
X73794Y-58131D01*
X73821Y-58131D01*
X73849Y-58117D01*
X73863Y-58103D01*
X73876Y-58076D01*
X73890Y-58020D01*
X73890Y-57951D01*
X73876Y-57896D01*
X73863Y-57869D01*
X73849Y-57855D01*
X73821Y-57841D01*
X74418Y-55984D02*
X74432Y-55998D01*
X74473Y-56012D01*
X74501Y-56012D01*
X74542Y-55998D01*
X74570Y-55970D01*
X74584Y-55943D01*
X74597Y-55888D01*
X74597Y-55846D01*
X74584Y-55791D01*
X74570Y-55763D01*
X74542Y-55736D01*
X74501Y-55722D01*
X74473Y-55722D01*
X74432Y-55736D01*
X74418Y-55750D01*
X74156Y-55722D02*
X74294Y-55722D01*
X74307Y-55860D01*
X74294Y-55846D01*
X74266Y-55832D01*
X74197Y-55832D01*
X74169Y-55846D01*
X74156Y-55860D01*
X74142Y-55888D01*
X74142Y-55957D01*
X74156Y-55984D01*
X74169Y-55998D01*
X74197Y-56012D01*
X74266Y-56012D01*
X74294Y-55998D01*
X74307Y-55984D01*
X73866Y-56012D02*
X74031Y-56012D01*
X73948Y-56012D02*
X73948Y-55722D01*
X73976Y-55763D01*
X74004Y-55791D01*
X74031Y-55805D01*
X74238Y-43731D02*
X74252Y-43745D01*
X74293Y-43759D01*
X74321Y-43759D01*
X74362Y-43745D01*
X74390Y-43717D01*
X74404Y-43690D01*
X74417Y-43634D01*
X74417Y-43593D01*
X74404Y-43538D01*
X74390Y-43510D01*
X74362Y-43483D01*
X74321Y-43469D01*
X74293Y-43469D01*
X74252Y-43483D01*
X74238Y-43496D01*
X74141Y-43469D02*
X73962Y-43469D01*
X74058Y-43579D01*
X74017Y-43579D01*
X73989Y-43593D01*
X73976Y-43607D01*
X73962Y-43634D01*
X73962Y-43704D01*
X73976Y-43731D01*
X73989Y-43745D01*
X74017Y-43759D01*
X74100Y-43759D01*
X74127Y-43745D01*
X74141Y-43731D01*
X73713Y-43565D02*
X73713Y-43759D01*
X73782Y-43455D02*
X73851Y-43662D01*
X73672Y-43662D01*
X73204Y-43623D02*
X73218Y-43637D01*
X73259Y-43651D01*
X73287Y-43651D01*
X73328Y-43637D01*
X73356Y-43609D01*
X73370Y-43582D01*
X73383Y-43526D01*
X73383Y-43485D01*
X73370Y-43430D01*
X73356Y-43402D01*
X73328Y-43375D01*
X73287Y-43361D01*
X73259Y-43361D01*
X73218Y-43375D01*
X73204Y-43388D01*
X73107Y-43361D02*
X72928Y-43361D01*
X73024Y-43471D01*
X72983Y-43471D01*
X72955Y-43485D01*
X72942Y-43499D01*
X72928Y-43526D01*
X72928Y-43596D01*
X72942Y-43623D01*
X72955Y-43637D01*
X72983Y-43651D01*
X73066Y-43651D01*
X73093Y-43637D01*
X73107Y-43623D01*
X72665Y-43361D02*
X72803Y-43361D01*
X72817Y-43499D01*
X72803Y-43485D01*
X72776Y-43471D01*
X72707Y-43471D01*
X72679Y-43485D01*
X72665Y-43499D01*
X72652Y-43526D01*
X72652Y-43596D01*
X72665Y-43623D01*
X72679Y-43637D01*
X72707Y-43651D01*
X72776Y-43651D01*
X72803Y-43637D01*
X72817Y-43623D01*
X69921Y-47910D02*
X69935Y-47896D01*
X69949Y-47855D01*
X69949Y-47827D01*
X69935Y-47786D01*
X69907Y-47758D01*
X69880Y-47744D01*
X69825Y-47731D01*
X69783Y-47731D01*
X69728Y-47744D01*
X69700Y-47758D01*
X69673Y-47786D01*
X69659Y-47827D01*
X69659Y-47855D01*
X69673Y-47896D01*
X69687Y-47910D01*
X69949Y-48186D02*
X69949Y-48021D01*
X69949Y-48103D02*
X69659Y-48103D01*
X69700Y-48076D01*
X69728Y-48048D01*
X69742Y-48021D01*
X69659Y-48283D02*
X69659Y-48476D01*
X69949Y-48352D01*
X69297Y-49309D02*
X69311Y-49295D01*
X69325Y-49254D01*
X69325Y-49226D01*
X69311Y-49185D01*
X69283Y-49157D01*
X69256Y-49143D01*
X69200Y-49130D01*
X69159Y-49130D01*
X69104Y-49143D01*
X69076Y-49157D01*
X69049Y-49185D01*
X69035Y-49226D01*
X69035Y-49254D01*
X69049Y-49295D01*
X69062Y-49309D01*
X69325Y-49585D02*
X69325Y-49420D01*
X69325Y-49502D02*
X69035Y-49502D01*
X69076Y-49475D01*
X69104Y-49447D01*
X69118Y-49420D01*
X69035Y-49848D02*
X69035Y-49710D01*
X69173Y-49696D01*
X69159Y-49710D01*
X69145Y-49737D01*
X69145Y-49806D01*
X69159Y-49834D01*
X69173Y-49848D01*
X69200Y-49861D01*
X69270Y-49861D01*
X69297Y-49848D01*
X69311Y-49834D01*
X69325Y-49806D01*
X69325Y-49737D01*
X69311Y-49710D01*
X69297Y-49696D01*
X78233Y-44633D02*
X78247Y-44619D01*
X78261Y-44578D01*
X78261Y-44550D01*
X78247Y-44509D01*
X78219Y-44481D01*
X78192Y-44467D01*
X78137Y-44454D01*
X78095Y-44454D01*
X78040Y-44467D01*
X78012Y-44481D01*
X77985Y-44509D01*
X77971Y-44550D01*
X77971Y-44578D01*
X77985Y-44619D01*
X77999Y-44633D01*
X78261Y-44771D02*
X78261Y-44827D01*
X78247Y-44854D01*
X78233Y-44868D01*
X78192Y-44896D01*
X78137Y-44909D01*
X78026Y-44909D01*
X77999Y-44896D01*
X77985Y-44882D01*
X77971Y-44854D01*
X77971Y-44799D01*
X77985Y-44771D01*
X77999Y-44757D01*
X78026Y-44744D01*
X78095Y-44744D01*
X78123Y-44757D01*
X78137Y-44771D01*
X78150Y-44799D01*
X78150Y-44854D01*
X78137Y-44882D01*
X78123Y-44896D01*
X78095Y-44909D01*
X77411Y-43717D02*
X77425Y-43731D01*
X77466Y-43745D01*
X77494Y-43745D01*
X77535Y-43731D01*
X77563Y-43703D01*
X77577Y-43676D01*
X77590Y-43621D01*
X77590Y-43579D01*
X77577Y-43524D01*
X77563Y-43496D01*
X77535Y-43469D01*
X77494Y-43455D01*
X77466Y-43455D01*
X77425Y-43469D01*
X77411Y-43483D01*
X77135Y-43745D02*
X77300Y-43745D01*
X77218Y-43745D02*
X77218Y-43455D01*
X77245Y-43496D01*
X77273Y-43524D01*
X77300Y-43538D01*
X76859Y-43745D02*
X77024Y-43745D01*
X76941Y-43745D02*
X76941Y-43455D01*
X76969Y-43496D01*
X76997Y-43524D01*
X77024Y-43538D01*
X69164Y-47572D02*
X69178Y-47558D01*
X69192Y-47517D01*
X69192Y-47489D01*
X69178Y-47448D01*
X69150Y-47420D01*
X69123Y-47406D01*
X69068Y-47393D01*
X69026Y-47393D01*
X68971Y-47406D01*
X68943Y-47420D01*
X68916Y-47448D01*
X68902Y-47489D01*
X68902Y-47517D01*
X68916Y-47558D01*
X68930Y-47572D01*
X69192Y-47848D02*
X69192Y-47683D01*
X69192Y-47765D02*
X68902Y-47765D01*
X68943Y-47738D01*
X68971Y-47710D01*
X68985Y-47683D01*
X69026Y-48014D02*
X69012Y-47986D01*
X68999Y-47973D01*
X68971Y-47959D01*
X68957Y-47959D01*
X68930Y-47973D01*
X68916Y-47986D01*
X68902Y-48014D01*
X68902Y-48069D01*
X68916Y-48097D01*
X68930Y-48111D01*
X68957Y-48124D01*
X68971Y-48124D01*
X68999Y-48111D01*
X69012Y-48097D01*
X69026Y-48069D01*
X69026Y-48014D01*
X69040Y-47986D01*
X69054Y-47973D01*
X69081Y-47959D01*
X69137Y-47959D01*
X69164Y-47973D01*
X69178Y-47986D01*
X69192Y-48014D01*
X69192Y-48069D01*
X69178Y-48097D01*
X69164Y-48111D01*
X69137Y-48124D01*
X69081Y-48124D01*
X69054Y-48111D01*
X69040Y-48097D01*
X69026Y-48069D01*
X71761Y-53608D02*
X71775Y-53594D01*
X71789Y-53553D01*
X71789Y-53525D01*
X71775Y-53484D01*
X71748Y-53456D01*
X71720Y-53442D01*
X71665Y-53429D01*
X71623Y-53429D01*
X71568Y-53442D01*
X71540Y-53456D01*
X71513Y-53484D01*
X71499Y-53525D01*
X71499Y-53553D01*
X71513Y-53594D01*
X71527Y-53608D01*
X71499Y-53857D02*
X71499Y-53801D01*
X71513Y-53774D01*
X71527Y-53760D01*
X71568Y-53732D01*
X71623Y-53719D01*
X71734Y-53719D01*
X71761Y-53732D01*
X71775Y-53746D01*
X71789Y-53774D01*
X71789Y-53829D01*
X71775Y-53857D01*
X71761Y-53870D01*
X71734Y-53884D01*
X71665Y-53884D01*
X71637Y-53870D01*
X71623Y-53857D01*
X71609Y-53829D01*
X71609Y-53774D01*
X71623Y-53746D01*
X71637Y-53732D01*
X71665Y-53719D01*
X71623Y-54050D02*
X71609Y-54022D01*
X71596Y-54009D01*
X71568Y-53995D01*
X71554Y-53995D01*
X71527Y-54009D01*
X71513Y-54022D01*
X71499Y-54050D01*
X71499Y-54105D01*
X71513Y-54133D01*
X71527Y-54147D01*
X71554Y-54160D01*
X71568Y-54160D01*
X71596Y-54147D01*
X71609Y-54133D01*
X71623Y-54105D01*
X71623Y-54050D01*
X71637Y-54022D01*
X71651Y-54009D01*
X71679Y-53995D01*
X71734Y-53995D01*
X71761Y-54009D01*
X71775Y-54022D01*
X71789Y-54050D01*
X71789Y-54105D01*
X71775Y-54133D01*
X71761Y-54147D01*
X71734Y-54160D01*
X71679Y-54160D01*
X71651Y-54147D01*
X71637Y-54133D01*
X71623Y-54105D01*
%LPC*%
G54D12*
X74412Y-62392D02*
X74312Y-62426D01*
X74279Y-62459D01*
X74246Y-62526D01*
X74246Y-62626D01*
X74279Y-62692D01*
X74312Y-62726D01*
X74379Y-62759D01*
X74646Y-62759D01*
X74646Y-62059D01*
X74412Y-62059D01*
X74346Y-62092D01*
X74312Y-62126D01*
X74279Y-62192D01*
X74279Y-62259D01*
X74312Y-62326D01*
X74346Y-62359D01*
X74412Y-62392D01*
X74646Y-62392D01*
X73546Y-62759D02*
X73779Y-62426D01*
X73946Y-62759D02*
X73946Y-62059D01*
X73679Y-62059D01*
X73612Y-62092D01*
X73579Y-62126D01*
X73546Y-62192D01*
X73546Y-62292D01*
X73579Y-62359D01*
X73612Y-62392D01*
X73679Y-62426D01*
X73946Y-62426D01*
X73246Y-62759D02*
X73246Y-62059D01*
X72846Y-62759D01*
X72846Y-62059D01*
G54D17*
X77818Y-58444D03*
X77818Y-59035D03*
X72300Y-57345D03*
X72300Y-56754D03*
G54D18*
X75293Y-54766D03*
X74702Y-54766D03*
X72419Y-54850D03*
X73010Y-54850D03*
G54D17*
X74794Y-57094D03*
X74794Y-57685D03*
X72855Y-57320D03*
X72855Y-56729D03*
X75150Y-56041D03*
X75150Y-55450D03*
X75280Y-56734D03*
X75280Y-57325D03*
X69674Y-44955D03*
X69674Y-44364D03*
G54D19*
X71288Y-43555D03*
X71681Y-43555D03*
X73375Y-59643D03*
X72982Y-59643D03*
G54D20*
X70540Y-57188D03*
X70540Y-56795D03*
G54D19*
X69292Y-53740D03*
X68899Y-53740D03*
G54D20*
X76036Y-53690D03*
X76036Y-53297D03*
X70966Y-45386D03*
X70966Y-44993D03*
G54D19*
X68630Y-62516D03*
X68237Y-62516D03*
G54D20*
X69424Y-62740D03*
X69424Y-62347D03*
G54D19*
X68545Y-62158D03*
X68938Y-62158D03*
X72400Y-45288D03*
X72007Y-45288D03*
X72626Y-56266D03*
X72233Y-56266D03*
X73508Y-57988D03*
X73115Y-57988D03*
G54D20*
X72244Y-58188D03*
X72244Y-57795D03*
G54D19*
X74270Y-55224D03*
X73877Y-55224D03*
X74468Y-54388D03*
X74075Y-54388D03*
X70847Y-46750D03*
X71240Y-46750D03*
X75876Y-61548D03*
X75483Y-61548D03*
X76012Y-61940D03*
X75619Y-61940D03*
G54D21*
X68681Y-44524D03*
X67499Y-44524D03*
X68677Y-46996D03*
X67495Y-46996D03*
X68681Y-49498D03*
X67499Y-49498D03*
X68711Y-57800D03*
X67529Y-57800D03*
G54D22*
X68128Y-53621D03*
X68128Y-54606D03*
G54D23*
X78170Y-61570D03*
X78170Y-62319D03*
G54D17*
X77182Y-44831D03*
X77182Y-44240D03*
G54D18*
X73464Y-61390D03*
X74055Y-61390D03*
X68161Y-56242D03*
X67570Y-56242D03*
G54D19*
X67927Y-55070D03*
X68320Y-55070D03*
X69086Y-53302D03*
X68693Y-53302D03*
X73873Y-47566D03*
X74266Y-47566D03*
G54D20*
X68118Y-44318D03*
X68118Y-43925D03*
X70326Y-46435D03*
X70326Y-46828D03*
X68128Y-57926D03*
X68128Y-57533D03*
X67506Y-50278D03*
X67506Y-49885D03*
X68072Y-46452D03*
X68072Y-46059D03*
X68136Y-58333D03*
X68136Y-58726D03*
X67920Y-50350D03*
X67920Y-49957D03*
X68078Y-47267D03*
X68078Y-47660D03*
G54D19*
X67990Y-45034D03*
X67597Y-45034D03*
G54D24*
X71654Y-60130D03*
X72654Y-60130D03*
X72154Y-60130D03*
X73154Y-60130D03*
G54D25*
X73654Y-60130D03*
G54D24*
X76630Y-62508D03*
G54D25*
X76130Y-62508D03*
G54D24*
X75470Y-51750D03*
X75470Y-51250D03*
X75470Y-50750D03*
X75470Y-49750D03*
X75470Y-50250D03*
X75470Y-49250D03*
X75970Y-49250D03*
X75970Y-50250D03*
X75970Y-49750D03*
X75970Y-50750D03*
X75970Y-51250D03*
G54D25*
X75970Y-51750D03*
G54D26*
X72714Y-50075D03*
X72714Y-49760D03*
X72714Y-49445D03*
X72714Y-48185D03*
X72714Y-48500D03*
X72714Y-49130D03*
X72714Y-48815D03*
X72399Y-48815D03*
X72399Y-49130D03*
X72399Y-48500D03*
X72399Y-48185D03*
X72399Y-49445D03*
X72399Y-49760D03*
X72399Y-50075D03*
X71769Y-50075D03*
X71769Y-49760D03*
X71769Y-49445D03*
X71769Y-48185D03*
X71769Y-48500D03*
X71769Y-49130D03*
X71769Y-48815D03*
X72084Y-48815D03*
X72084Y-49130D03*
X72084Y-48500D03*
X72084Y-48185D03*
X72084Y-49445D03*
X72084Y-49760D03*
X72084Y-50075D03*
X71454Y-50075D03*
X71454Y-49760D03*
X71454Y-49445D03*
X71454Y-48185D03*
X71454Y-48500D03*
X71454Y-49130D03*
X71454Y-48815D03*
X73029Y-51019D03*
X73344Y-50704D03*
X73344Y-51019D03*
X73344Y-47869D03*
X73344Y-47554D03*
X73029Y-47554D03*
X73029Y-47869D03*
X70509Y-47869D03*
X70509Y-47554D03*
X70824Y-47554D03*
X73028Y-50705D03*
X70824Y-51019D03*
X70824Y-47871D03*
X70509Y-50704D03*
X70509Y-51019D03*
X71139Y-48815D03*
X71139Y-49130D03*
X71139Y-48500D03*
X71139Y-48185D03*
X72714Y-50390D03*
X72399Y-50390D03*
X72084Y-50390D03*
X71139Y-49445D03*
X71139Y-49760D03*
X71139Y-50390D03*
X71139Y-50075D03*
X71454Y-50390D03*
X71769Y-50390D03*
G54D19*
X75086Y-50194D03*
X74693Y-50194D03*
X75082Y-49710D03*
X74689Y-49710D03*
G54D27*
X78056Y-55998D03*
X77556Y-55998D03*
X78056Y-56998D03*
X77556Y-56998D03*
X77556Y-56498D03*
X78056Y-56498D03*
X78056Y-57498D03*
X77556Y-57498D03*
X77556Y-57998D03*
G54D28*
X78056Y-57998D03*
G54D29*
X67698Y-59948D03*
X75264Y-44226D03*
X78008Y-60670D03*
X69638Y-45828D03*
G54D19*
X73109Y-56256D03*
X73502Y-56256D03*
G54D20*
X74636Y-48635D03*
X74636Y-49028D03*
X74106Y-48633D03*
X74106Y-49026D03*
G54D19*
X74620Y-56704D03*
X74227Y-56704D03*
X73827Y-57564D03*
X74220Y-57564D03*
X74422Y-56256D03*
X74029Y-56256D03*
X73855Y-44134D03*
X74248Y-44134D03*
X72821Y-44026D03*
X73214Y-44026D03*
G54D20*
X69952Y-47125D03*
X69952Y-47518D03*
X69700Y-49692D03*
X69700Y-49299D03*
X77674Y-44724D03*
X77674Y-44331D03*
G54D19*
X78146Y-43758D03*
X77753Y-43758D03*
G54D20*
X69430Y-46975D03*
X69430Y-47368D03*
X71180Y-53598D03*
X71180Y-53991D03*
M02*
