G04 (created by PCBNEW (2013-may-18)-stable) date Tue 16 Jul 2013 10:20:31 AM EDT*
%MOIN*%
G04 Gerber Fmt 3.4, Leading zero omitted, Abs format*
%FSLAX34Y34*%
G01*
G70*
G90*
G04 APERTURE LIST*
%ADD10C,0.00590551*%
%ADD11C,0.011811*%
%ADD12R,0.0354331X0.023622*%
%ADD13R,0.023622X0.0354331*%
%ADD14R,0.019685X0.023622*%
%ADD15R,0.023622X0.019685*%
%ADD16C,0.0314*%
%ADD17R,0.0708661X0.0393701*%
%ADD18R,0.0511811X0.0275591*%
%ADD19C,0.04*%
%ADD20R,0.04X0.04*%
%ADD21C,0.016*%
%ADD22C,0.042*%
%ADD23R,0.042X0.042*%
%ADD24C,0.09*%
G04 APERTURE END LIST*
G54D10*
G54D11*
X74412Y-62392D02*
X74312Y-62426D01*
X74279Y-62459D01*
X74246Y-62526D01*
X74246Y-62626D01*
X74279Y-62692D01*
X74312Y-62726D01*
X74379Y-62759D01*
X74646Y-62759D01*
X74646Y-62059D01*
X74412Y-62059D01*
X74346Y-62092D01*
X74312Y-62126D01*
X74279Y-62192D01*
X74279Y-62259D01*
X74312Y-62326D01*
X74346Y-62359D01*
X74412Y-62392D01*
X74646Y-62392D01*
X73546Y-62759D02*
X73779Y-62426D01*
X73946Y-62759D02*
X73946Y-62059D01*
X73679Y-62059D01*
X73612Y-62092D01*
X73579Y-62126D01*
X73546Y-62192D01*
X73546Y-62292D01*
X73579Y-62359D01*
X73612Y-62392D01*
X73679Y-62426D01*
X73946Y-62426D01*
X73246Y-62759D02*
X73246Y-62059D01*
X72846Y-62759D01*
X72846Y-62059D01*
G54D12*
X77818Y-58444D03*
X77818Y-59035D03*
X72300Y-57345D03*
X72300Y-56754D03*
G54D13*
X75293Y-54766D03*
X74702Y-54766D03*
X72419Y-54850D03*
X73010Y-54850D03*
G54D12*
X74794Y-57094D03*
X74794Y-57685D03*
X72855Y-57320D03*
X72855Y-56729D03*
X75150Y-56041D03*
X75150Y-55450D03*
X75280Y-56734D03*
X75280Y-57325D03*
X69674Y-44955D03*
X69674Y-44364D03*
G54D14*
X71288Y-43555D03*
X71681Y-43555D03*
X73375Y-59643D03*
X72982Y-59643D03*
G54D15*
X70540Y-57188D03*
X70540Y-56795D03*
G54D14*
X69292Y-53740D03*
X68899Y-53740D03*
G54D15*
X76036Y-53690D03*
X76036Y-53297D03*
X70966Y-45386D03*
X70966Y-44993D03*
G54D14*
X68630Y-62516D03*
X68237Y-62516D03*
G54D15*
X69424Y-62740D03*
X69424Y-62347D03*
G54D14*
X68545Y-62158D03*
X68938Y-62158D03*
X72400Y-45288D03*
X72007Y-45288D03*
X72626Y-56266D03*
X72233Y-56266D03*
X73508Y-57988D03*
X73115Y-57988D03*
G54D15*
X72244Y-58188D03*
X72244Y-57795D03*
G54D14*
X74270Y-55224D03*
X73877Y-55224D03*
X74468Y-54388D03*
X74075Y-54388D03*
X70847Y-46750D03*
X71240Y-46750D03*
X75876Y-61548D03*
X75483Y-61548D03*
X76012Y-61940D03*
X75619Y-61940D03*
G54D16*
X68681Y-44524D03*
X67499Y-44524D03*
X68677Y-46996D03*
X67495Y-46996D03*
X68681Y-49498D03*
X67499Y-49498D03*
X68711Y-57800D03*
X67529Y-57800D03*
G54D17*
X68128Y-53621D03*
X68128Y-54606D03*
G54D18*
X78170Y-61570D03*
X78170Y-62319D03*
G54D12*
X77182Y-44831D03*
X77182Y-44240D03*
G54D13*
X73464Y-61390D03*
X74055Y-61390D03*
X68161Y-56242D03*
X67570Y-56242D03*
G54D14*
X67927Y-55070D03*
X68320Y-55070D03*
X69086Y-53302D03*
X68693Y-53302D03*
X73873Y-47566D03*
X74266Y-47566D03*
G54D15*
X68118Y-44318D03*
X68118Y-43925D03*
X70326Y-46435D03*
X70326Y-46828D03*
X68128Y-57926D03*
X68128Y-57533D03*
X67506Y-50278D03*
X67506Y-49885D03*
X68072Y-46452D03*
X68072Y-46059D03*
X68136Y-58333D03*
X68136Y-58726D03*
X67920Y-50350D03*
X67920Y-49957D03*
X68078Y-47267D03*
X68078Y-47660D03*
G54D14*
X67990Y-45034D03*
X67597Y-45034D03*
G54D19*
X71654Y-60130D03*
X72654Y-60130D03*
X72154Y-60130D03*
X73154Y-60130D03*
G54D20*
X73654Y-60130D03*
G54D19*
X76630Y-62508D03*
G54D20*
X76130Y-62508D03*
G54D19*
X75470Y-51750D03*
X75470Y-51250D03*
X75470Y-50750D03*
X75470Y-49750D03*
X75470Y-50250D03*
X75470Y-49250D03*
X75970Y-49250D03*
X75970Y-50250D03*
X75970Y-49750D03*
X75970Y-50750D03*
X75970Y-51250D03*
G54D20*
X75970Y-51750D03*
G54D21*
X72714Y-50075D03*
X72714Y-49760D03*
X72714Y-49445D03*
X72714Y-48185D03*
X72714Y-48500D03*
X72714Y-49130D03*
X72714Y-48815D03*
X72399Y-48815D03*
X72399Y-49130D03*
X72399Y-48500D03*
X72399Y-48185D03*
X72399Y-49445D03*
X72399Y-49760D03*
X72399Y-50075D03*
X71769Y-50075D03*
X71769Y-49760D03*
X71769Y-49445D03*
X71769Y-48185D03*
X71769Y-48500D03*
X71769Y-49130D03*
X71769Y-48815D03*
X72084Y-48815D03*
X72084Y-49130D03*
X72084Y-48500D03*
X72084Y-48185D03*
X72084Y-49445D03*
X72084Y-49760D03*
X72084Y-50075D03*
X71454Y-50075D03*
X71454Y-49760D03*
X71454Y-49445D03*
X71454Y-48185D03*
X71454Y-48500D03*
X71454Y-49130D03*
X71454Y-48815D03*
X73029Y-51019D03*
X73344Y-50704D03*
X73344Y-51019D03*
X73344Y-47869D03*
X73344Y-47554D03*
X73029Y-47554D03*
X73029Y-47869D03*
X70509Y-47869D03*
X70509Y-47554D03*
X70824Y-47554D03*
X73028Y-50705D03*
X70824Y-51019D03*
X70824Y-47871D03*
X70509Y-50704D03*
X70509Y-51019D03*
X71139Y-48815D03*
X71139Y-49130D03*
X71139Y-48500D03*
X71139Y-48185D03*
X72714Y-50390D03*
X72399Y-50390D03*
X72084Y-50390D03*
X71139Y-49445D03*
X71139Y-49760D03*
X71139Y-50390D03*
X71139Y-50075D03*
X71454Y-50390D03*
X71769Y-50390D03*
G54D14*
X75086Y-50194D03*
X74693Y-50194D03*
X75082Y-49710D03*
X74689Y-49710D03*
G54D22*
X78056Y-55998D03*
X77556Y-55998D03*
X78056Y-56998D03*
X77556Y-56998D03*
X77556Y-56498D03*
X78056Y-56498D03*
X78056Y-57498D03*
X77556Y-57498D03*
X77556Y-57998D03*
G54D23*
X78056Y-57998D03*
G54D24*
X67698Y-59948D03*
X75264Y-44226D03*
X78008Y-60670D03*
X69638Y-45828D03*
G54D14*
X73109Y-56256D03*
X73502Y-56256D03*
G54D15*
X74636Y-48635D03*
X74636Y-49028D03*
X74106Y-48633D03*
X74106Y-49026D03*
G54D14*
X74620Y-56704D03*
X74227Y-56704D03*
X73827Y-57564D03*
X74220Y-57564D03*
X74422Y-56256D03*
X74029Y-56256D03*
X73855Y-44134D03*
X74248Y-44134D03*
X72821Y-44026D03*
X73214Y-44026D03*
G54D15*
X69952Y-47125D03*
X69952Y-47518D03*
X69700Y-49692D03*
X69700Y-49299D03*
X77674Y-44724D03*
X77674Y-44331D03*
G54D14*
X78146Y-43758D03*
X77753Y-43758D03*
G54D15*
X69430Y-46975D03*
X69430Y-47368D03*
X71180Y-53598D03*
X71180Y-53991D03*
M02*
