M48
;DRILL file {Pcbnew (2013-may-18)-stable} date Tue 16 Jul 2013 10:20:41 AM EDT
;FORMAT={2:4/ absolute / inch / keep zeros}
FMAT,2
INCH,TZ
T1C0.010
T2C0.012
T3C0.012
T4C0.013
T5C0.015
T6C0.020
T7C0.022
T8C0.025
T9C0.028
T10C0.035
T11C0.090
%
G90
G05
M72
T1
X067570Y-055235
X068260Y-050386
X069255Y-058857
X069304Y-059406
X070035Y-056716
X070282Y-056756
X070582Y-058302
X070602Y-056496
X070658Y-058070
X070858Y-046202
X070965Y-056148
X071028Y-053520
X071272Y-046366
X071626Y-048664
X071912Y-055852
X071914Y-056800
X072325Y-054435
X072589Y-058318
X072596Y-050594
X072950Y-050346
X073060Y-050134
X073359Y-049866
X073364Y-055543
X073473Y-049521
X073544Y-054023
X073660Y-054374
X073748Y-055572
X073976Y-049336
X074013Y-048266
X074016Y-044676
X074037Y-049641
X074416Y-055534
X075119Y-060147
X075190Y-049040
X075544Y-062664
X075944Y-057435
X076000Y-056172
X076868Y-048274
X077482Y-046022
X078028Y-044074
T2
X069269Y-054345
T3
X067230Y-057416
T4
X067188Y-061054
X067204Y-061834
X067212Y-061446
X067225Y-053765
X067236Y-045034
X067248Y-050794
X067256Y-044038
X067342Y-055868
X067516Y-047500
X067530Y-053765
X067632Y-061048
X067852Y-050788
X067876Y-055838
X067946Y-062274
X067950Y-062738
X068016Y-044664
X068019Y-056777
X068056Y-054602
X068072Y-049580
X068078Y-061070
X068135Y-054120
X068144Y-059044
X068252Y-045928
X068284Y-043602
X068310Y-055670
X068338Y-047358
X068350Y-062770
X068362Y-050884
X068514Y-056524
X068530Y-057394
X068712Y-053704
X068746Y-048840
X068848Y-061014
X068858Y-049868
X068876Y-056514
X068896Y-062752
X068938Y-051312
X069126Y-047206
X069152Y-050772
X069188Y-056962
X069231Y-060566
X069231Y-061453
X069231Y-061768
X069231Y-062083
X069240Y-058550
X069269Y-054739
X069269Y-055133
X069269Y-055527
X069390Y-057676
X069546Y-061453
X069546Y-061768
X069546Y-062083
X069642Y-046756
X069663Y-054345
X069663Y-054739
X069663Y-055133
X069663Y-055527
X069726Y-060412
X069792Y-056922
X069814Y-050874
X069814Y-058204
X069861Y-061453
X069861Y-061768
X069861Y-062083
X069906Y-049280
X069956Y-051194
X070022Y-049624
X070038Y-048090
X070057Y-054345
X070057Y-054739
X070057Y-055133
X070057Y-055527
X070068Y-044308
X070116Y-043998
X070248Y-045172
X070248Y-053296
X070302Y-062796
X070342Y-047308
X070396Y-044178
X070451Y-054345
X070451Y-054739
X070451Y-055133
X070451Y-055527
X070516Y-049972
X070534Y-059040
X070578Y-046462
X070617Y-059520
X070618Y-048516
X070728Y-060420
X070828Y-062350
X070848Y-050008
X070906Y-044806
X071010Y-043540
X071020Y-061690
X071106Y-062170
X071286Y-044718
X071388Y-047044
X071394Y-045572
X071398Y-047756
X071436Y-054998
X071488Y-059094
X071636Y-058376
X071660Y-044904
X071688Y-055224
X071764Y-046404
X071780Y-058076
X071782Y-044594
X071784Y-055546
X071795Y-058710
X071822Y-054556
X071844Y-053970
X071892Y-051610
X071932Y-056468
X071972Y-050636
X071996Y-044932
X071998Y-053378
X072120Y-044610
X072176Y-046720
X072202Y-052756
X072255Y-058488
X072326Y-046212
X072515Y-054160
X072522Y-053804
X072582Y-058958
X072608Y-044768
X072675Y-060900
X072816Y-043552
X072858Y-052336
X072888Y-051904
X072964Y-048626
X072976Y-053146
X073083Y-061653
X073108Y-045570
X073146Y-043518
X073232Y-056812
X073240Y-050350
X073324Y-051454
X073330Y-044614
X073341Y-048987
X073594Y-046234
X073600Y-057090
X073601Y-047565
X073667Y-047903
X073679Y-044676
X073697Y-059084
X073702Y-048232
X073752Y-050356
X073792Y-059698
X073880Y-051755
X073958Y-051418
X074070Y-057160
X074238Y-059142
X074238Y-059472
X074250Y-058808
X074368Y-045300
X074398Y-043848
X074650Y-060484
X074662Y-047274
X074666Y-057092
X074756Y-055786
X074770Y-056152
X074914Y-054016
X074924Y-048224
X074990Y-045288
X075006Y-059250
X075104Y-053278
X075178Y-053802
X075181Y-045998
X075232Y-047898
X075368Y-059784
X075510Y-053682
X075534Y-044976
X075564Y-048528
X075676Y-053982
X075758Y-058294
X075976Y-056862
X076015Y-057934
X076028Y-056532
X076075Y-058455
X076164Y-060083
X076164Y-060397
X076199Y-061509
X076202Y-044096
X076216Y-048820
X076248Y-046380
X076256Y-052194
X076338Y-057153
X076400Y-060240
X076407Y-058395
X076458Y-061734
X076544Y-044116
X076545Y-057623
X076636Y-060083
X076636Y-060397
X076752Y-058949
X076770Y-058458
X076791Y-060755
X076798Y-049594
X076799Y-043857
X076829Y-057429
X077012Y-053478
X077038Y-049944
X077044Y-054790
X077048Y-058646
X077122Y-046400
X077164Y-053818
X077283Y-061199
X077290Y-045150
X077290Y-062581
X077298Y-053074
X077378Y-055216
X077390Y-058480
X077458Y-059378
X077484Y-046750
X077492Y-061469
X077522Y-054392
X077644Y-053326
X077872Y-053862
X077886Y-055200
X077960Y-054188
X077976Y-049167
X078072Y-048580
X078156Y-059696
X078189Y-049436
X078250Y-061945
T5
X069400Y-053330
X070384Y-052216
X072284Y-060900
X073336Y-059100
X073524Y-053278
X073960Y-051012
X074458Y-059746
X074782Y-046946
X075042Y-060478
X075690Y-047422
X075748Y-059926
X076726Y-050698
X077686Y-059684
X077840Y-061380
X078034Y-059368
X078456Y-055234
T8
X077556Y-055998
X077556Y-056498
X077556Y-056998
X077556Y-057498
X077556Y-057998
X078056Y-055998
X078056Y-056498
X078056Y-056998
X078056Y-057498
X078056Y-057998
T9
X071654Y-060130
X072154Y-060130
X072654Y-060130
X073154Y-060130
X073654Y-060130
X075470Y-049250
X075470Y-049750
X075470Y-050250
X075470Y-050750
X075470Y-051250
X075470Y-051750
X075970Y-049250
X075970Y-049750
X075970Y-050250
X075970Y-050750
X075970Y-051250
X075970Y-051750
X076130Y-062508
X076630Y-062508
T10
X067495Y-046996
X067499Y-044524
X067499Y-049498
X067529Y-057800
X068677Y-046996
X068681Y-044524
X068681Y-049498
X068711Y-057800
T11
X067698Y-059948
X069638Y-045828
X075264Y-044226
X078008Y-060670
T6
X072366Y-062308G85X072366Y-062564
G05
X075122Y-062308G85X075122Y-062564
G05
T7
X072701Y-061373G85X072819Y-061373
G05
X074669Y-061373G85X074787Y-061373
G05
T0
M30
