G04 (created by PCBNEW (2013-may-18)-stable) date Fri 27 Sep 2013 03:03:58 PM EDT*
%MOIN*%
G04 Gerber Fmt 3.4, Leading zero omitted, Abs format*
%FSLAX34Y34*%
G01*
G70*
G90*
G04 APERTURE LIST*
%ADD10C,0.00590551*%
%ADD11O,0.0492X0.0492*%
%ADD12O,0.063X0.063*%
%ADD13C,0.0354*%
%ADD14C,0.013*%
%ADD15C,0.04*%
%ADD16R,0.04X0.04*%
%ADD17C,0.042*%
%ADD18R,0.042X0.042*%
%ADD19C,0.023622*%
%ADD20R,0.019685X0.019685*%
%ADD21C,0.027*%
%ADD22C,0.018*%
%ADD23C,0.03*%
%ADD24C,0.008*%
%ADD25C,0.006*%
%ADD26C,0.016*%
%ADD27C,0.01*%
G04 APERTURE END LIST*
G54D10*
G54D11*
X73819Y-61419D03*
G54D12*
X74213Y-62482D03*
X71457Y-62482D03*
G54D11*
X71851Y-61419D03*
G54D13*
X68681Y-44524D03*
X67499Y-44524D03*
X68677Y-46996D03*
X67495Y-46996D03*
X68681Y-49498D03*
X67499Y-49498D03*
X68711Y-57800D03*
X67529Y-57800D03*
G54D14*
X69231Y-61768D03*
X69546Y-61768D03*
X69231Y-62083D03*
X69861Y-62083D03*
X69546Y-62083D03*
X69546Y-61453D03*
X69861Y-61768D03*
X69861Y-61453D03*
X69231Y-61453D03*
G54D15*
X71654Y-60130D03*
X72654Y-60130D03*
X72154Y-60130D03*
X73154Y-60130D03*
G54D16*
X73654Y-60130D03*
G54D15*
X76243Y-62520D03*
G54D16*
X75743Y-62520D03*
G54D15*
X75470Y-51750D03*
X75470Y-51250D03*
X75470Y-50750D03*
X75470Y-49750D03*
X75470Y-50250D03*
X75470Y-49250D03*
X75970Y-49250D03*
X75970Y-50250D03*
X75970Y-49750D03*
X75970Y-50750D03*
X75970Y-51250D03*
G54D16*
X75970Y-51750D03*
G54D17*
X78056Y-55998D03*
X77556Y-55998D03*
X78056Y-56998D03*
X77556Y-56998D03*
X77556Y-56498D03*
X78056Y-56498D03*
X78056Y-57498D03*
X77556Y-57498D03*
X77556Y-57998D03*
G54D18*
X78056Y-57998D03*
G54D19*
X76400Y-60240D03*
X76636Y-60082D03*
X76636Y-60397D03*
X76163Y-60397D03*
X76163Y-60082D03*
G54D20*
X70056Y-55526D03*
X70056Y-54345D03*
X70056Y-54739D03*
X70056Y-55132D03*
X70450Y-55132D03*
X70450Y-54739D03*
X70450Y-54345D03*
X70450Y-55526D03*
X69663Y-55526D03*
X69663Y-54345D03*
X69663Y-54739D03*
X69663Y-55132D03*
X69269Y-55132D03*
X69269Y-54739D03*
X69269Y-54345D03*
X69269Y-55526D03*
G54D21*
X68019Y-56777D03*
G54D22*
X69255Y-58857D03*
G54D21*
X67876Y-55838D03*
G54D22*
X71742Y-53858D03*
G54D21*
X69814Y-58204D03*
G54D22*
X70282Y-56756D03*
X71582Y-58378D03*
X72138Y-59178D03*
X73384Y-59052D03*
X71548Y-55117D03*
X71836Y-59295D03*
X73660Y-59057D03*
X71349Y-58363D03*
X71354Y-55263D03*
X67276Y-62838D03*
X67276Y-62664D03*
X67275Y-62475D03*
X67276Y-62278D03*
X71610Y-44713D03*
X71519Y-54510D03*
X73645Y-46905D03*
X72130Y-47013D03*
X72312Y-46422D03*
X72606Y-47341D03*
X72257Y-48357D03*
X73492Y-50260D03*
X71886Y-53649D03*
X73650Y-59658D03*
X77948Y-62768D03*
X71932Y-56468D03*
X73071Y-49464D03*
G54D21*
X72522Y-53804D03*
G54D22*
X73074Y-52209D03*
X71912Y-55852D03*
G54D21*
X69814Y-50874D03*
X68016Y-44664D03*
X72976Y-53146D03*
G54D22*
X68260Y-50386D03*
G54D21*
X68338Y-47358D03*
G54D22*
X77862Y-54154D03*
G54D21*
X69390Y-57676D03*
G54D22*
X71914Y-56800D03*
G54D21*
X69240Y-58550D03*
G54D22*
X76234Y-46330D03*
X76036Y-56423D03*
X76320Y-49525D03*
X72287Y-48073D03*
X71046Y-51034D03*
G54D21*
X77044Y-54790D03*
X77644Y-53326D03*
G54D22*
X73748Y-55572D03*
X70602Y-56496D03*
G54D21*
X69188Y-56962D03*
G54D22*
X73364Y-55543D03*
X78002Y-48882D03*
X74158Y-59293D03*
G54D21*
X77390Y-58480D03*
G54D22*
X75205Y-48786D03*
X77286Y-49010D03*
X74154Y-59608D03*
G54D21*
X77458Y-59378D03*
G54D22*
X72232Y-45946D03*
G54D21*
X73880Y-51755D03*
X73594Y-46234D03*
G54D22*
X71745Y-45168D03*
X74624Y-45764D03*
X71882Y-54432D03*
G54D21*
X73752Y-50356D03*
X72120Y-44610D03*
X75178Y-53802D03*
X74368Y-45300D03*
G54D22*
X73802Y-59244D03*
G54D21*
X76752Y-58949D03*
G54D22*
X73960Y-59425D03*
G54D21*
X76791Y-60755D03*
G54D22*
X72557Y-49288D03*
X77068Y-46922D03*
X77210Y-50442D03*
X77252Y-51374D03*
X72227Y-58960D03*
G54D21*
X77872Y-53862D03*
X77048Y-58646D03*
G54D22*
X76824Y-47250D03*
X76512Y-49956D03*
X72588Y-58444D03*
G54D21*
X76075Y-58455D03*
G54D22*
X72279Y-58585D03*
G54D21*
X76407Y-58395D03*
G54D22*
X78093Y-54240D03*
X71756Y-58182D03*
X76313Y-51985D03*
G54D21*
X76770Y-58458D03*
G54D22*
X76015Y-57934D03*
X75758Y-58294D03*
X75976Y-56862D03*
G54D21*
X76798Y-49594D03*
X75006Y-59250D03*
X74650Y-60484D03*
X76202Y-44096D03*
X77298Y-53074D03*
X69956Y-51194D03*
G54D22*
X71787Y-51886D03*
G54D21*
X76799Y-43857D03*
X77012Y-53478D03*
G54D22*
X72813Y-52484D03*
G54D21*
X77164Y-53818D03*
G54D22*
X70810Y-62526D03*
X70659Y-58338D03*
X76662Y-57384D03*
X77218Y-52483D03*
X70689Y-50835D03*
X70462Y-58492D03*
X70780Y-62204D03*
X77341Y-51975D03*
X76600Y-57142D03*
X70713Y-50004D03*
X70920Y-48685D03*
X75726Y-46216D03*
X70527Y-62520D03*
X70494Y-58167D03*
X70632Y-47290D03*
X76428Y-57360D03*
X70051Y-48109D03*
X70274Y-50008D03*
X73614Y-47730D03*
G54D21*
X75232Y-47898D03*
X75676Y-53982D03*
G54D22*
X73410Y-48405D03*
X72745Y-48004D03*
X74450Y-46988D03*
G54D21*
X77492Y-61469D03*
G54D22*
X76836Y-50769D03*
X76894Y-62293D03*
X71698Y-57249D03*
X74863Y-54070D03*
G54D21*
X72816Y-43552D03*
X70116Y-43998D03*
X70068Y-44308D03*
G54D22*
X74748Y-61747D03*
X72190Y-52720D03*
X69304Y-59406D03*
X78028Y-44074D03*
X75190Y-49040D03*
X73359Y-49866D03*
X72596Y-50594D03*
X70035Y-56716D03*
G54D21*
X77976Y-49167D03*
X70342Y-47308D03*
X68072Y-49580D03*
X68876Y-56514D03*
X69906Y-49280D03*
X67225Y-53765D03*
X67530Y-53765D03*
G54D22*
X67570Y-55235D03*
G54D23*
X73524Y-53278D03*
G54D22*
X72515Y-54160D03*
X73544Y-54022D03*
G54D21*
X78250Y-61945D03*
X75368Y-59784D03*
X67342Y-55868D03*
X76544Y-44116D03*
X67950Y-62738D03*
X67946Y-62274D03*
X67204Y-61834D03*
X67212Y-61446D03*
X67188Y-61054D03*
X67632Y-61048D03*
X68938Y-51312D03*
X68362Y-50884D03*
X67852Y-50788D03*
X67248Y-50794D03*
G54D22*
X74756Y-55786D03*
X73976Y-49336D03*
G54D21*
X71398Y-47756D03*
X71998Y-53378D03*
X68078Y-61070D03*
X75104Y-53278D03*
G54D23*
X75042Y-60478D03*
X70384Y-52216D03*
G54D21*
X69126Y-47206D03*
X67516Y-47500D03*
X67236Y-45034D03*
X67256Y-44038D03*
X67230Y-57416D03*
X70728Y-60420D03*
X68144Y-59044D03*
X69726Y-60412D03*
G54D22*
X74070Y-57160D03*
G54D21*
X68252Y-45928D03*
X77038Y-49944D03*
X78189Y-49436D03*
X77522Y-54392D03*
G54D22*
X73660Y-54374D03*
G54D21*
X70578Y-46462D03*
X76199Y-61509D03*
X76458Y-61734D03*
X68530Y-57394D03*
X77283Y-61199D03*
X78156Y-59696D03*
X68896Y-62752D03*
X68350Y-62770D03*
X68858Y-49868D03*
X68746Y-48840D03*
X68712Y-53704D03*
X68514Y-56524D03*
X68284Y-43602D03*
X68135Y-54120D03*
X68056Y-54602D03*
X70396Y-44178D03*
X71010Y-43540D03*
G54D22*
X74016Y-44676D03*
G54D21*
X74398Y-43848D03*
X73679Y-44676D03*
X73330Y-44614D03*
X75510Y-53682D03*
X74990Y-45288D03*
G54D22*
X77346Y-45884D03*
X74666Y-57092D03*
X73232Y-56812D03*
X78010Y-54844D03*
X77049Y-46503D03*
X73821Y-57088D03*
X72291Y-54348D03*
X73588Y-47424D03*
X71930Y-48975D03*
X70680Y-49581D03*
X71028Y-53520D03*
G54D21*
X72964Y-48626D03*
X71972Y-50636D03*
X70248Y-53296D03*
G54D22*
X70965Y-56148D03*
G54D21*
X70302Y-62796D03*
X71020Y-61690D03*
X69231Y-60566D03*
X68848Y-61014D03*
X69792Y-56922D03*
X75534Y-44976D03*
X72608Y-44768D03*
X68310Y-55670D03*
G54D22*
X74770Y-56152D03*
G54D23*
X77840Y-61380D03*
G54D21*
X77290Y-45150D03*
G54D23*
X69400Y-53330D03*
G54D21*
X71388Y-47044D03*
G54D22*
X74416Y-55534D03*
G54D21*
X70022Y-49624D03*
X69642Y-46756D03*
G54D22*
X73600Y-57090D03*
X71544Y-59284D03*
X75118Y-60147D03*
G54D21*
X73146Y-43518D03*
G54D23*
X74782Y-46946D03*
X77686Y-59684D03*
X75748Y-59926D03*
X78034Y-59368D03*
X75690Y-47422D03*
X78456Y-55234D03*
G54D22*
X74606Y-61274D03*
X72194Y-61826D03*
G54D23*
X74458Y-59746D03*
X73960Y-51012D03*
G54D24*
X71698Y-57249D02*
X71697Y-57249D01*
G54D25*
X75106Y-53280D02*
X75110Y-53280D01*
X75104Y-53278D02*
X75106Y-53280D01*
G54D26*
X75042Y-60478D02*
X75042Y-60474D01*
G54D27*
X70390Y-52222D02*
X70392Y-52222D01*
X70384Y-52216D02*
X70390Y-52222D01*
X69126Y-47206D02*
X69130Y-47206D01*
G54D10*
G36*
X78132Y-57503D02*
X78061Y-57574D01*
X78056Y-57568D01*
X78050Y-57574D01*
X77979Y-57503D01*
X77985Y-57498D01*
X77979Y-57492D01*
X78009Y-57462D01*
X78096Y-57456D01*
X78132Y-57492D01*
X78126Y-57498D01*
X78132Y-57503D01*
X78132Y-57503D01*
G37*
G54D27*
X78132Y-57503D02*
X78061Y-57574D01*
X78056Y-57568D01*
X78050Y-57574D01*
X77979Y-57503D01*
X77985Y-57498D01*
X77979Y-57492D01*
X78009Y-57462D01*
X78096Y-57456D01*
X78132Y-57492D01*
X78126Y-57498D01*
X78132Y-57503D01*
G54D10*
G36*
X78608Y-62860D02*
X78147Y-62860D01*
X78167Y-62811D01*
X78168Y-62724D01*
X78134Y-62643D01*
X78072Y-62581D01*
X77991Y-62548D01*
X77904Y-62547D01*
X77823Y-62581D01*
X77761Y-62643D01*
X77728Y-62724D01*
X77727Y-62811D01*
X77748Y-62860D01*
X77548Y-62860D01*
X77548Y-61146D01*
X77507Y-61049D01*
X77433Y-60974D01*
X77335Y-60934D01*
X77230Y-60933D01*
X77133Y-60974D01*
X77058Y-61048D01*
X77056Y-61054D01*
X77056Y-60702D01*
X77015Y-60605D01*
X76971Y-60560D01*
X77009Y-60435D01*
X76995Y-60289D01*
X76973Y-60236D01*
X77009Y-60120D01*
X76995Y-59974D01*
X76966Y-59904D01*
X76889Y-59899D01*
X76743Y-60045D01*
X76683Y-60026D01*
X76700Y-60010D01*
X76668Y-59979D01*
X76819Y-59828D01*
X76814Y-59752D01*
X76674Y-59709D01*
X76528Y-59722D01*
X76458Y-59752D01*
X76453Y-59828D01*
X76514Y-59890D01*
X76438Y-59866D01*
X76295Y-59880D01*
X76346Y-59828D01*
X76341Y-59752D01*
X76201Y-59709D01*
X76056Y-59722D01*
X75985Y-59752D01*
X75984Y-59766D01*
X75906Y-59688D01*
X75803Y-59646D01*
X75692Y-59645D01*
X75589Y-59688D01*
X75510Y-59767D01*
X75468Y-59870D01*
X75467Y-59981D01*
X75510Y-60084D01*
X75589Y-60163D01*
X75692Y-60205D01*
X75803Y-60206D01*
X75809Y-60203D01*
X75826Y-60243D01*
X75790Y-60359D01*
X75804Y-60505D01*
X75833Y-60575D01*
X75910Y-60580D01*
X76056Y-60434D01*
X76116Y-60453D01*
X76099Y-60469D01*
X76131Y-60500D01*
X75980Y-60651D01*
X75985Y-60727D01*
X76125Y-60770D01*
X76271Y-60757D01*
X76341Y-60727D01*
X76346Y-60651D01*
X76285Y-60589D01*
X76361Y-60613D01*
X76504Y-60599D01*
X76453Y-60651D01*
X76458Y-60727D01*
X76526Y-60748D01*
X76525Y-60807D01*
X76566Y-60904D01*
X76640Y-60979D01*
X76738Y-61019D01*
X76843Y-61020D01*
X76940Y-60979D01*
X77015Y-60905D01*
X77055Y-60807D01*
X77056Y-60702D01*
X77056Y-61054D01*
X77018Y-61146D01*
X77017Y-61251D01*
X77058Y-61348D01*
X77132Y-61423D01*
X77230Y-61463D01*
X77335Y-61464D01*
X77432Y-61423D01*
X77507Y-61349D01*
X77547Y-61251D01*
X77548Y-61146D01*
X77548Y-62860D01*
X76723Y-62860D01*
X76723Y-61681D01*
X76682Y-61584D01*
X76608Y-61509D01*
X76510Y-61469D01*
X76464Y-61469D01*
X76464Y-61456D01*
X76423Y-61359D01*
X76349Y-61284D01*
X76251Y-61244D01*
X76146Y-61243D01*
X76049Y-61284D01*
X75974Y-61358D01*
X75934Y-61456D01*
X75933Y-61561D01*
X75974Y-61658D01*
X76048Y-61733D01*
X76146Y-61773D01*
X76192Y-61773D01*
X76192Y-61786D01*
X76233Y-61883D01*
X76307Y-61958D01*
X76405Y-61998D01*
X76510Y-61999D01*
X76607Y-61958D01*
X76682Y-61884D01*
X76722Y-61786D01*
X76723Y-61681D01*
X76723Y-62860D01*
X76073Y-62860D01*
X76073Y-62694D01*
X76073Y-62294D01*
X76053Y-62246D01*
X76016Y-62209D01*
X75968Y-62190D01*
X75917Y-62189D01*
X75517Y-62189D01*
X75469Y-62209D01*
X75432Y-62246D01*
X75413Y-62294D01*
X75412Y-62345D01*
X75412Y-62745D01*
X75432Y-62793D01*
X75469Y-62830D01*
X75517Y-62849D01*
X75568Y-62850D01*
X75968Y-62850D01*
X76016Y-62830D01*
X76053Y-62793D01*
X76072Y-62745D01*
X76073Y-62694D01*
X76073Y-62860D01*
X75338Y-62860D01*
X75338Y-60103D01*
X75305Y-60022D01*
X75271Y-59988D01*
X75271Y-59197D01*
X75230Y-59100D01*
X75156Y-59025D01*
X75058Y-58985D01*
X74990Y-58984D01*
X74990Y-56108D01*
X74956Y-56027D01*
X74894Y-55965D01*
X74813Y-55932D01*
X74726Y-55931D01*
X74645Y-55965D01*
X74636Y-55974D01*
X74636Y-55490D01*
X74602Y-55409D01*
X74540Y-55347D01*
X74459Y-55314D01*
X74372Y-55313D01*
X74291Y-55347D01*
X74240Y-55398D01*
X74240Y-50956D01*
X74197Y-50853D01*
X74118Y-50774D01*
X74017Y-50732D01*
X74017Y-50303D01*
X73976Y-50206D01*
X73902Y-50131D01*
X73865Y-50116D01*
X73865Y-46861D01*
X73859Y-46845D01*
X73859Y-46181D01*
X73818Y-46084D01*
X73744Y-46009D01*
X73646Y-45969D01*
X73541Y-45968D01*
X73444Y-46009D01*
X73369Y-46083D01*
X73329Y-46181D01*
X73328Y-46286D01*
X73369Y-46383D01*
X73443Y-46458D01*
X73541Y-46498D01*
X73646Y-46499D01*
X73743Y-46458D01*
X73818Y-46384D01*
X73858Y-46286D01*
X73859Y-46181D01*
X73859Y-46845D01*
X73832Y-46780D01*
X73770Y-46718D01*
X73689Y-46685D01*
X73601Y-46684D01*
X73521Y-46718D01*
X73459Y-46780D01*
X73425Y-46861D01*
X73425Y-46948D01*
X73458Y-47029D01*
X73520Y-47091D01*
X73601Y-47124D01*
X73689Y-47125D01*
X73769Y-47091D01*
X73831Y-47029D01*
X73865Y-46948D01*
X73865Y-46861D01*
X73865Y-50116D01*
X73834Y-50103D01*
X73834Y-47686D01*
X73800Y-47605D01*
X73759Y-47564D01*
X73774Y-47548D01*
X73807Y-47467D01*
X73808Y-47380D01*
X73774Y-47299D01*
X73712Y-47237D01*
X73631Y-47204D01*
X73544Y-47203D01*
X73463Y-47237D01*
X73401Y-47299D01*
X73368Y-47380D01*
X73367Y-47467D01*
X73401Y-47548D01*
X73442Y-47589D01*
X73427Y-47605D01*
X73394Y-47686D01*
X73393Y-47773D01*
X73427Y-47854D01*
X73489Y-47916D01*
X73570Y-47949D01*
X73657Y-47950D01*
X73738Y-47916D01*
X73800Y-47854D01*
X73833Y-47773D01*
X73834Y-47686D01*
X73834Y-50103D01*
X73804Y-50091D01*
X73699Y-50090D01*
X73653Y-50110D01*
X73616Y-50073D01*
X73535Y-50040D01*
X73448Y-50039D01*
X73367Y-50073D01*
X73305Y-50135D01*
X73291Y-50170D01*
X73291Y-49420D01*
X73257Y-49339D01*
X73229Y-49310D01*
X73229Y-48573D01*
X73188Y-48476D01*
X73114Y-48401D01*
X73016Y-48361D01*
X72911Y-48360D01*
X72873Y-48376D01*
X72873Y-44715D01*
X72832Y-44618D01*
X72758Y-44543D01*
X72660Y-44503D01*
X72555Y-44502D01*
X72458Y-44543D01*
X72384Y-44616D01*
X72385Y-44557D01*
X72344Y-44460D01*
X72270Y-44385D01*
X72172Y-44345D01*
X72067Y-44344D01*
X71970Y-44385D01*
X71895Y-44459D01*
X71855Y-44557D01*
X71854Y-44662D01*
X71895Y-44759D01*
X71969Y-44834D01*
X72067Y-44874D01*
X72172Y-44875D01*
X72269Y-44834D01*
X72343Y-44761D01*
X72342Y-44820D01*
X72383Y-44917D01*
X72457Y-44992D01*
X72555Y-45032D01*
X72660Y-45033D01*
X72757Y-44992D01*
X72832Y-44918D01*
X72872Y-44820D01*
X72873Y-44715D01*
X72873Y-48376D01*
X72826Y-48396D01*
X72826Y-47297D01*
X72792Y-47217D01*
X72730Y-47155D01*
X72649Y-47121D01*
X72562Y-47121D01*
X72532Y-47134D01*
X72532Y-46378D01*
X72498Y-46297D01*
X72452Y-46250D01*
X72452Y-45902D01*
X72418Y-45821D01*
X72356Y-45759D01*
X72275Y-45726D01*
X72188Y-45725D01*
X72107Y-45759D01*
X72045Y-45821D01*
X72012Y-45902D01*
X72011Y-45989D01*
X72045Y-46070D01*
X72107Y-46132D01*
X72188Y-46165D01*
X72275Y-46166D01*
X72356Y-46132D01*
X72418Y-46070D01*
X72451Y-45989D01*
X72452Y-45902D01*
X72452Y-46250D01*
X72436Y-46235D01*
X72355Y-46202D01*
X72268Y-46201D01*
X72187Y-46235D01*
X72125Y-46297D01*
X72092Y-46378D01*
X72091Y-46465D01*
X72125Y-46546D01*
X72187Y-46608D01*
X72268Y-46641D01*
X72355Y-46642D01*
X72436Y-46608D01*
X72498Y-46546D01*
X72531Y-46465D01*
X72532Y-46378D01*
X72532Y-47134D01*
X72481Y-47154D01*
X72419Y-47216D01*
X72386Y-47297D01*
X72385Y-47385D01*
X72419Y-47465D01*
X72481Y-47527D01*
X72562Y-47561D01*
X72649Y-47561D01*
X72730Y-47528D01*
X72792Y-47466D01*
X72825Y-47385D01*
X72826Y-47297D01*
X72826Y-48396D01*
X72814Y-48401D01*
X72739Y-48475D01*
X72699Y-48573D01*
X72698Y-48678D01*
X72739Y-48775D01*
X72813Y-48850D01*
X72911Y-48890D01*
X73016Y-48891D01*
X73113Y-48850D01*
X73188Y-48776D01*
X73228Y-48678D01*
X73229Y-48573D01*
X73229Y-49310D01*
X73195Y-49277D01*
X73114Y-49244D01*
X73027Y-49243D01*
X72946Y-49277D01*
X72884Y-49339D01*
X72851Y-49420D01*
X72850Y-49507D01*
X72884Y-49588D01*
X72946Y-49650D01*
X73027Y-49683D01*
X73114Y-49684D01*
X73195Y-49650D01*
X73257Y-49588D01*
X73290Y-49507D01*
X73291Y-49420D01*
X73291Y-50170D01*
X73272Y-50216D01*
X73271Y-50303D01*
X73305Y-50384D01*
X73367Y-50446D01*
X73448Y-50479D01*
X73516Y-50480D01*
X73527Y-50505D01*
X73601Y-50580D01*
X73699Y-50620D01*
X73804Y-50621D01*
X73901Y-50580D01*
X73976Y-50506D01*
X74016Y-50408D01*
X74017Y-50303D01*
X74017Y-50732D01*
X74015Y-50732D01*
X73904Y-50731D01*
X73801Y-50774D01*
X73722Y-50853D01*
X73680Y-50956D01*
X73679Y-51067D01*
X73722Y-51170D01*
X73801Y-51249D01*
X73904Y-51291D01*
X74015Y-51292D01*
X74118Y-51249D01*
X74197Y-51170D01*
X74239Y-51067D01*
X74240Y-50956D01*
X74240Y-55398D01*
X74229Y-55409D01*
X74196Y-55490D01*
X74195Y-55577D01*
X74229Y-55658D01*
X74291Y-55720D01*
X74372Y-55753D01*
X74459Y-55754D01*
X74540Y-55720D01*
X74602Y-55658D01*
X74635Y-55577D01*
X74636Y-55490D01*
X74636Y-55974D01*
X74583Y-56027D01*
X74550Y-56108D01*
X74549Y-56195D01*
X74583Y-56276D01*
X74645Y-56338D01*
X74726Y-56371D01*
X74813Y-56372D01*
X74894Y-56338D01*
X74956Y-56276D01*
X74989Y-56195D01*
X74990Y-56108D01*
X74990Y-58984D01*
X74953Y-58984D01*
X74886Y-59012D01*
X74886Y-57048D01*
X74852Y-56967D01*
X74790Y-56905D01*
X74709Y-56872D01*
X74622Y-56871D01*
X74541Y-56905D01*
X74479Y-56967D01*
X74446Y-57048D01*
X74445Y-57135D01*
X74479Y-57216D01*
X74541Y-57278D01*
X74622Y-57311D01*
X74709Y-57312D01*
X74790Y-57278D01*
X74852Y-57216D01*
X74885Y-57135D01*
X74886Y-57048D01*
X74886Y-59012D01*
X74856Y-59025D01*
X74781Y-59099D01*
X74741Y-59197D01*
X74740Y-59302D01*
X74781Y-59399D01*
X74855Y-59474D01*
X74953Y-59514D01*
X75058Y-59515D01*
X75155Y-59474D01*
X75230Y-59400D01*
X75270Y-59302D01*
X75271Y-59197D01*
X75271Y-59988D01*
X75243Y-59960D01*
X75162Y-59927D01*
X75074Y-59926D01*
X74994Y-59960D01*
X74932Y-60022D01*
X74898Y-60103D01*
X74898Y-60190D01*
X74931Y-60271D01*
X74993Y-60333D01*
X75074Y-60366D01*
X75162Y-60367D01*
X75242Y-60333D01*
X75304Y-60271D01*
X75338Y-60190D01*
X75338Y-60103D01*
X75338Y-62860D01*
X74915Y-62860D01*
X74915Y-60431D01*
X74874Y-60334D01*
X74800Y-60259D01*
X74738Y-60233D01*
X74738Y-59690D01*
X74695Y-59587D01*
X74616Y-59508D01*
X74513Y-59466D01*
X74402Y-59465D01*
X74343Y-59490D01*
X74340Y-59483D01*
X74310Y-59452D01*
X74344Y-59418D01*
X74378Y-59337D01*
X74378Y-59249D01*
X74345Y-59169D01*
X74283Y-59107D01*
X74202Y-59073D01*
X74145Y-59073D01*
X74145Y-51702D01*
X74104Y-51605D01*
X74030Y-51530D01*
X73932Y-51490D01*
X73827Y-51489D01*
X73730Y-51530D01*
X73655Y-51604D01*
X73615Y-51702D01*
X73614Y-51807D01*
X73655Y-51904D01*
X73729Y-51979D01*
X73827Y-52019D01*
X73932Y-52020D01*
X74029Y-51979D01*
X74104Y-51905D01*
X74144Y-51807D01*
X74145Y-51702D01*
X74145Y-59073D01*
X74114Y-59073D01*
X74041Y-59103D01*
X74041Y-57044D01*
X74007Y-56963D01*
X73968Y-56923D01*
X73968Y-55528D01*
X73934Y-55447D01*
X73880Y-55392D01*
X73880Y-54330D01*
X73846Y-54249D01*
X73784Y-54187D01*
X73703Y-54154D01*
X73616Y-54153D01*
X73535Y-54187D01*
X73473Y-54249D01*
X73440Y-54330D01*
X73439Y-54417D01*
X73473Y-54498D01*
X73535Y-54560D01*
X73616Y-54593D01*
X73703Y-54594D01*
X73784Y-54560D01*
X73846Y-54498D01*
X73879Y-54417D01*
X73880Y-54330D01*
X73880Y-55392D01*
X73872Y-55385D01*
X73791Y-55352D01*
X73704Y-55351D01*
X73623Y-55385D01*
X73562Y-55446D01*
X73550Y-55418D01*
X73488Y-55356D01*
X73407Y-55323D01*
X73320Y-55322D01*
X73294Y-55333D01*
X73294Y-52165D01*
X73260Y-52084D01*
X73198Y-52022D01*
X73117Y-51989D01*
X73030Y-51988D01*
X72949Y-52022D01*
X72887Y-52084D01*
X72854Y-52165D01*
X72853Y-52252D01*
X72859Y-52264D01*
X72856Y-52264D01*
X72777Y-52263D01*
X72777Y-49244D01*
X72743Y-49163D01*
X72681Y-49101D01*
X72600Y-49068D01*
X72513Y-49067D01*
X72507Y-49070D01*
X72507Y-48029D01*
X72473Y-47948D01*
X72411Y-47886D01*
X72350Y-47861D01*
X72350Y-46969D01*
X72317Y-46888D01*
X72255Y-46826D01*
X72174Y-46793D01*
X72086Y-46792D01*
X72006Y-46826D01*
X71965Y-46867D01*
X71965Y-45124D01*
X71931Y-45043D01*
X71869Y-44981D01*
X71830Y-44965D01*
X71830Y-44669D01*
X71796Y-44589D01*
X71734Y-44527D01*
X71653Y-44493D01*
X71566Y-44493D01*
X71485Y-44526D01*
X71423Y-44588D01*
X71390Y-44669D01*
X71389Y-44757D01*
X71423Y-44837D01*
X71485Y-44899D01*
X71566Y-44933D01*
X71653Y-44933D01*
X71734Y-44900D01*
X71796Y-44838D01*
X71829Y-44757D01*
X71830Y-44669D01*
X71830Y-44965D01*
X71788Y-44948D01*
X71701Y-44947D01*
X71620Y-44981D01*
X71558Y-45043D01*
X71525Y-45124D01*
X71524Y-45211D01*
X71558Y-45292D01*
X71620Y-45354D01*
X71701Y-45387D01*
X71788Y-45388D01*
X71869Y-45354D01*
X71931Y-45292D01*
X71964Y-45211D01*
X71965Y-45124D01*
X71965Y-46867D01*
X71944Y-46888D01*
X71910Y-46969D01*
X71910Y-47056D01*
X71943Y-47137D01*
X72005Y-47199D01*
X72086Y-47232D01*
X72174Y-47233D01*
X72254Y-47199D01*
X72316Y-47137D01*
X72350Y-47056D01*
X72350Y-46969D01*
X72350Y-47861D01*
X72330Y-47853D01*
X72243Y-47852D01*
X72162Y-47886D01*
X72100Y-47948D01*
X72067Y-48029D01*
X72066Y-48116D01*
X72100Y-48197D01*
X72103Y-48200D01*
X72070Y-48232D01*
X72037Y-48313D01*
X72036Y-48401D01*
X72070Y-48481D01*
X72132Y-48543D01*
X72213Y-48577D01*
X72300Y-48577D01*
X72381Y-48544D01*
X72443Y-48482D01*
X72476Y-48401D01*
X72477Y-48313D01*
X72443Y-48233D01*
X72440Y-48230D01*
X72473Y-48197D01*
X72506Y-48116D01*
X72507Y-48029D01*
X72507Y-49070D01*
X72432Y-49101D01*
X72370Y-49163D01*
X72337Y-49244D01*
X72336Y-49331D01*
X72370Y-49412D01*
X72432Y-49474D01*
X72513Y-49507D01*
X72600Y-49508D01*
X72681Y-49474D01*
X72743Y-49412D01*
X72776Y-49331D01*
X72777Y-49244D01*
X72777Y-52263D01*
X72769Y-52263D01*
X72688Y-52297D01*
X72626Y-52359D01*
X72593Y-52440D01*
X72592Y-52527D01*
X72626Y-52608D01*
X72688Y-52670D01*
X72769Y-52703D01*
X72856Y-52704D01*
X72937Y-52670D01*
X72999Y-52608D01*
X73032Y-52527D01*
X73033Y-52440D01*
X73027Y-52428D01*
X73030Y-52428D01*
X73117Y-52429D01*
X73198Y-52395D01*
X73260Y-52333D01*
X73293Y-52252D01*
X73294Y-52165D01*
X73294Y-55333D01*
X73241Y-55355D01*
X73241Y-53093D01*
X73200Y-52996D01*
X73126Y-52921D01*
X73028Y-52881D01*
X72923Y-52880D01*
X72826Y-52921D01*
X72751Y-52995D01*
X72711Y-53093D01*
X72710Y-53198D01*
X72751Y-53295D01*
X72825Y-53370D01*
X72923Y-53410D01*
X73028Y-53411D01*
X73125Y-53370D01*
X73200Y-53296D01*
X73240Y-53198D01*
X73241Y-53093D01*
X73241Y-55355D01*
X73239Y-55356D01*
X73177Y-55418D01*
X73144Y-55499D01*
X73143Y-55586D01*
X73177Y-55667D01*
X73239Y-55729D01*
X73320Y-55762D01*
X73407Y-55763D01*
X73488Y-55729D01*
X73549Y-55668D01*
X73561Y-55696D01*
X73623Y-55758D01*
X73704Y-55791D01*
X73791Y-55792D01*
X73872Y-55758D01*
X73934Y-55696D01*
X73967Y-55615D01*
X73968Y-55528D01*
X73968Y-56923D01*
X73945Y-56901D01*
X73864Y-56868D01*
X73777Y-56867D01*
X73708Y-56896D01*
X73643Y-56870D01*
X73556Y-56869D01*
X73475Y-56903D01*
X73452Y-56926D01*
X73452Y-56768D01*
X73418Y-56687D01*
X73356Y-56625D01*
X73275Y-56592D01*
X73188Y-56591D01*
X73107Y-56625D01*
X73045Y-56687D01*
X73012Y-56768D01*
X73011Y-56855D01*
X73045Y-56936D01*
X73107Y-56998D01*
X73188Y-57031D01*
X73275Y-57032D01*
X73356Y-56998D01*
X73418Y-56936D01*
X73451Y-56855D01*
X73452Y-56768D01*
X73452Y-56926D01*
X73413Y-56965D01*
X73380Y-57046D01*
X73379Y-57133D01*
X73413Y-57214D01*
X73475Y-57276D01*
X73556Y-57309D01*
X73643Y-57310D01*
X73712Y-57281D01*
X73777Y-57307D01*
X73864Y-57308D01*
X73945Y-57274D01*
X74007Y-57212D01*
X74040Y-57131D01*
X74041Y-57044D01*
X74041Y-59103D01*
X74034Y-59106D01*
X73998Y-59142D01*
X73988Y-59119D01*
X73926Y-59057D01*
X73880Y-59038D01*
X73880Y-59013D01*
X73846Y-58932D01*
X73784Y-58870D01*
X73703Y-58837D01*
X73616Y-58836D01*
X73535Y-58870D01*
X73524Y-58881D01*
X73509Y-58865D01*
X73428Y-58832D01*
X73340Y-58831D01*
X73260Y-58865D01*
X73198Y-58927D01*
X73164Y-59008D01*
X73164Y-59095D01*
X73197Y-59176D01*
X73259Y-59238D01*
X73340Y-59271D01*
X73428Y-59272D01*
X73508Y-59238D01*
X73519Y-59227D01*
X73535Y-59243D01*
X73581Y-59262D01*
X73581Y-59287D01*
X73615Y-59368D01*
X73677Y-59430D01*
X73740Y-59456D01*
X73740Y-59457D01*
X73693Y-59438D01*
X73606Y-59437D01*
X73525Y-59471D01*
X73463Y-59533D01*
X73430Y-59614D01*
X73429Y-59701D01*
X73463Y-59782D01*
X73480Y-59799D01*
X73428Y-59799D01*
X73380Y-59819D01*
X73343Y-59856D01*
X73324Y-59904D01*
X73323Y-59955D01*
X73323Y-60355D01*
X73343Y-60403D01*
X73380Y-60440D01*
X73428Y-60459D01*
X73479Y-60460D01*
X73879Y-60460D01*
X73927Y-60440D01*
X73964Y-60403D01*
X73983Y-60355D01*
X73984Y-60304D01*
X73984Y-59904D01*
X73964Y-59856D01*
X73927Y-59819D01*
X73879Y-59800D01*
X73828Y-59799D01*
X73819Y-59799D01*
X73836Y-59782D01*
X73869Y-59701D01*
X73870Y-59626D01*
X73916Y-59645D01*
X73933Y-59645D01*
X73933Y-59651D01*
X73967Y-59732D01*
X74029Y-59794D01*
X74110Y-59827D01*
X74188Y-59828D01*
X74220Y-59904D01*
X74299Y-59983D01*
X74402Y-60025D01*
X74513Y-60026D01*
X74616Y-59983D01*
X74695Y-59904D01*
X74737Y-59801D01*
X74738Y-59690D01*
X74738Y-60233D01*
X74702Y-60219D01*
X74597Y-60218D01*
X74500Y-60259D01*
X74425Y-60333D01*
X74385Y-60431D01*
X74384Y-60536D01*
X74425Y-60633D01*
X74499Y-60708D01*
X74597Y-60748D01*
X74702Y-60749D01*
X74799Y-60708D01*
X74874Y-60634D01*
X74914Y-60536D01*
X74915Y-60431D01*
X74915Y-62860D01*
X74826Y-62860D01*
X74826Y-61230D01*
X74792Y-61149D01*
X74730Y-61087D01*
X74649Y-61054D01*
X74562Y-61053D01*
X74481Y-61087D01*
X74419Y-61149D01*
X74386Y-61230D01*
X74385Y-61317D01*
X74419Y-61398D01*
X74481Y-61460D01*
X74562Y-61493D01*
X74649Y-61494D01*
X74730Y-61460D01*
X74792Y-61398D01*
X74825Y-61317D01*
X74826Y-61230D01*
X74826Y-62860D01*
X74441Y-62860D01*
X74536Y-62796D01*
X74632Y-62652D01*
X74666Y-62482D01*
X74632Y-62311D01*
X74536Y-62167D01*
X74392Y-62070D01*
X74221Y-62037D01*
X74204Y-62037D01*
X74202Y-62037D01*
X74202Y-61419D01*
X74173Y-61275D01*
X74092Y-61153D01*
X73970Y-61071D01*
X73826Y-61043D01*
X73811Y-61043D01*
X73667Y-61071D01*
X73545Y-61153D01*
X73464Y-61275D01*
X73435Y-61419D01*
X73464Y-61562D01*
X73545Y-61684D01*
X73667Y-61766D01*
X73811Y-61795D01*
X73826Y-61795D01*
X73970Y-61766D01*
X74092Y-61684D01*
X74173Y-61562D01*
X74202Y-61419D01*
X74202Y-62037D01*
X74033Y-62070D01*
X73889Y-62167D01*
X73793Y-62311D01*
X73759Y-62482D01*
X73793Y-62652D01*
X73889Y-62796D01*
X73984Y-62860D01*
X72984Y-62860D01*
X72984Y-60064D01*
X72933Y-59943D01*
X72841Y-59850D01*
X72808Y-59836D01*
X72808Y-58400D01*
X72787Y-58349D01*
X72787Y-53751D01*
X72746Y-53654D01*
X72672Y-53579D01*
X72574Y-53539D01*
X72469Y-53538D01*
X72372Y-53579D01*
X72297Y-53653D01*
X72257Y-53751D01*
X72256Y-53856D01*
X72297Y-53953D01*
X72371Y-54028D01*
X72469Y-54068D01*
X72574Y-54069D01*
X72671Y-54028D01*
X72746Y-53954D01*
X72786Y-53856D01*
X72787Y-53751D01*
X72787Y-58349D01*
X72774Y-58319D01*
X72712Y-58257D01*
X72631Y-58224D01*
X72544Y-58223D01*
X72511Y-58237D01*
X72511Y-54304D01*
X72477Y-54223D01*
X72415Y-54161D01*
X72334Y-54128D01*
X72247Y-54127D01*
X72237Y-54132D01*
X72237Y-50583D01*
X72196Y-50486D01*
X72150Y-50439D01*
X72150Y-48931D01*
X72116Y-48850D01*
X72054Y-48788D01*
X71973Y-48755D01*
X71886Y-48754D01*
X71805Y-48788D01*
X71743Y-48850D01*
X71710Y-48931D01*
X71709Y-49018D01*
X71743Y-49099D01*
X71805Y-49161D01*
X71886Y-49194D01*
X71973Y-49195D01*
X72054Y-49161D01*
X72116Y-49099D01*
X72149Y-49018D01*
X72150Y-48931D01*
X72150Y-50439D01*
X72122Y-50411D01*
X72024Y-50371D01*
X71919Y-50370D01*
X71822Y-50411D01*
X71747Y-50485D01*
X71707Y-50583D01*
X71706Y-50688D01*
X71747Y-50785D01*
X71821Y-50860D01*
X71919Y-50900D01*
X72024Y-50901D01*
X72121Y-50860D01*
X72196Y-50786D01*
X72236Y-50688D01*
X72237Y-50583D01*
X72237Y-54132D01*
X72166Y-54161D01*
X72106Y-54221D01*
X72106Y-53605D01*
X72072Y-53524D01*
X72010Y-53462D01*
X72007Y-53461D01*
X72007Y-51842D01*
X71973Y-51761D01*
X71911Y-51699D01*
X71830Y-51666D01*
X71743Y-51665D01*
X71662Y-51699D01*
X71653Y-51708D01*
X71653Y-46991D01*
X71612Y-46894D01*
X71538Y-46819D01*
X71440Y-46779D01*
X71335Y-46778D01*
X71238Y-46819D01*
X71163Y-46893D01*
X71123Y-46991D01*
X71122Y-47096D01*
X71163Y-47193D01*
X71237Y-47268D01*
X71335Y-47308D01*
X71440Y-47309D01*
X71537Y-47268D01*
X71612Y-47194D01*
X71652Y-47096D01*
X71653Y-46991D01*
X71653Y-51708D01*
X71600Y-51761D01*
X71567Y-51842D01*
X71566Y-51929D01*
X71600Y-52010D01*
X71662Y-52072D01*
X71743Y-52105D01*
X71830Y-52106D01*
X71911Y-52072D01*
X71973Y-52010D01*
X72006Y-51929D01*
X72007Y-51842D01*
X72007Y-53461D01*
X71929Y-53429D01*
X71842Y-53428D01*
X71761Y-53462D01*
X71699Y-53524D01*
X71666Y-53605D01*
X71665Y-53651D01*
X71617Y-53671D01*
X71555Y-53733D01*
X71522Y-53814D01*
X71521Y-53901D01*
X71555Y-53982D01*
X71617Y-54044D01*
X71698Y-54077D01*
X71785Y-54078D01*
X71866Y-54044D01*
X71928Y-53982D01*
X71961Y-53901D01*
X71962Y-53855D01*
X72010Y-53835D01*
X72072Y-53773D01*
X72105Y-53692D01*
X72106Y-53605D01*
X72106Y-54221D01*
X72104Y-54223D01*
X72071Y-54304D01*
X72071Y-54313D01*
X72068Y-54307D01*
X72006Y-54245D01*
X71925Y-54212D01*
X71838Y-54211D01*
X71757Y-54245D01*
X71695Y-54307D01*
X71675Y-54355D01*
X71643Y-54324D01*
X71562Y-54290D01*
X71475Y-54290D01*
X71394Y-54323D01*
X71332Y-54385D01*
X71299Y-54466D01*
X71298Y-54554D01*
X71332Y-54634D01*
X71394Y-54696D01*
X71475Y-54730D01*
X71562Y-54730D01*
X71643Y-54697D01*
X71705Y-54635D01*
X71725Y-54586D01*
X71757Y-54618D01*
X71838Y-54651D01*
X71925Y-54652D01*
X72006Y-54618D01*
X72068Y-54556D01*
X72101Y-54475D01*
X72101Y-54466D01*
X72104Y-54472D01*
X72166Y-54534D01*
X72247Y-54567D01*
X72334Y-54568D01*
X72415Y-54534D01*
X72477Y-54472D01*
X72510Y-54391D01*
X72511Y-54304D01*
X72511Y-58237D01*
X72463Y-58257D01*
X72401Y-58319D01*
X72373Y-58386D01*
X72322Y-58365D01*
X72235Y-58365D01*
X72154Y-58398D01*
X72152Y-58401D01*
X72152Y-56424D01*
X72132Y-56376D01*
X72132Y-55808D01*
X72098Y-55727D01*
X72036Y-55665D01*
X71955Y-55632D01*
X71868Y-55631D01*
X71787Y-55665D01*
X71768Y-55684D01*
X71768Y-55073D01*
X71735Y-54993D01*
X71673Y-54931D01*
X71592Y-54897D01*
X71504Y-54897D01*
X71424Y-54930D01*
X71362Y-54992D01*
X71341Y-55042D01*
X71310Y-55042D01*
X71266Y-55061D01*
X71266Y-50990D01*
X71232Y-50909D01*
X71170Y-50847D01*
X71140Y-50834D01*
X71140Y-48641D01*
X71106Y-48561D01*
X71044Y-48499D01*
X70963Y-48465D01*
X70876Y-48465D01*
X70852Y-48475D01*
X70852Y-47246D01*
X70843Y-47225D01*
X70843Y-46409D01*
X70802Y-46312D01*
X70728Y-46237D01*
X70661Y-46209D01*
X70661Y-44125D01*
X70620Y-44028D01*
X70546Y-43953D01*
X70448Y-43913D01*
X70343Y-43912D01*
X70246Y-43953D01*
X70171Y-44027D01*
X70131Y-44125D01*
X70130Y-44230D01*
X70171Y-44327D01*
X70245Y-44402D01*
X70343Y-44442D01*
X70448Y-44443D01*
X70545Y-44402D01*
X70620Y-44328D01*
X70660Y-44230D01*
X70661Y-44125D01*
X70661Y-46209D01*
X70630Y-46197D01*
X70525Y-46196D01*
X70428Y-46237D01*
X70353Y-46311D01*
X70313Y-46409D01*
X70312Y-46514D01*
X70353Y-46611D01*
X70427Y-46686D01*
X70525Y-46726D01*
X70630Y-46727D01*
X70727Y-46686D01*
X70802Y-46612D01*
X70842Y-46514D01*
X70843Y-46409D01*
X70843Y-47225D01*
X70818Y-47166D01*
X70756Y-47104D01*
X70675Y-47070D01*
X70588Y-47070D01*
X70507Y-47103D01*
X70445Y-47165D01*
X70412Y-47246D01*
X70411Y-47334D01*
X70445Y-47414D01*
X70507Y-47476D01*
X70588Y-47510D01*
X70675Y-47510D01*
X70756Y-47477D01*
X70818Y-47415D01*
X70851Y-47334D01*
X70852Y-47246D01*
X70852Y-48475D01*
X70795Y-48498D01*
X70733Y-48560D01*
X70700Y-48641D01*
X70699Y-48729D01*
X70733Y-48809D01*
X70795Y-48871D01*
X70876Y-48905D01*
X70963Y-48905D01*
X71044Y-48872D01*
X71106Y-48810D01*
X71139Y-48729D01*
X71140Y-48641D01*
X71140Y-50834D01*
X71089Y-50814D01*
X71002Y-50813D01*
X70933Y-50842D01*
X70933Y-49960D01*
X70899Y-49879D01*
X70837Y-49817D01*
X70760Y-49785D01*
X70804Y-49767D01*
X70866Y-49705D01*
X70899Y-49624D01*
X70900Y-49537D01*
X70866Y-49456D01*
X70804Y-49394D01*
X70723Y-49361D01*
X70636Y-49360D01*
X70555Y-49394D01*
X70493Y-49456D01*
X70460Y-49537D01*
X70459Y-49624D01*
X70493Y-49705D01*
X70555Y-49767D01*
X70632Y-49799D01*
X70588Y-49817D01*
X70526Y-49879D01*
X70493Y-49960D01*
X70493Y-49962D01*
X70460Y-49883D01*
X70398Y-49821D01*
X70317Y-49788D01*
X70232Y-49787D01*
X70246Y-49774D01*
X70286Y-49676D01*
X70287Y-49571D01*
X70271Y-49533D01*
X70271Y-48065D01*
X70238Y-47985D01*
X70204Y-47950D01*
X70204Y-45663D01*
X70115Y-45450D01*
X69952Y-45287D01*
X69739Y-45198D01*
X69509Y-45198D01*
X69295Y-45286D01*
X69132Y-45449D01*
X69044Y-45662D01*
X69043Y-45893D01*
X69132Y-46106D01*
X69295Y-46269D01*
X69508Y-46358D01*
X69738Y-46358D01*
X69952Y-46270D01*
X70115Y-46107D01*
X70203Y-45894D01*
X70204Y-45663D01*
X70204Y-47950D01*
X70176Y-47923D01*
X70095Y-47889D01*
X70007Y-47889D01*
X69927Y-47922D01*
X69907Y-47942D01*
X69907Y-46703D01*
X69866Y-46606D01*
X69792Y-46531D01*
X69694Y-46491D01*
X69589Y-46490D01*
X69492Y-46531D01*
X69417Y-46605D01*
X69377Y-46703D01*
X69376Y-46808D01*
X69417Y-46905D01*
X69491Y-46980D01*
X69589Y-47020D01*
X69694Y-47021D01*
X69791Y-46980D01*
X69866Y-46906D01*
X69906Y-46808D01*
X69907Y-46703D01*
X69907Y-47942D01*
X69865Y-47984D01*
X69831Y-48065D01*
X69831Y-48153D01*
X69864Y-48233D01*
X69926Y-48295D01*
X70007Y-48329D01*
X70095Y-48329D01*
X70175Y-48296D01*
X70237Y-48234D01*
X70271Y-48153D01*
X70271Y-48065D01*
X70271Y-49533D01*
X70246Y-49474D01*
X70172Y-49399D01*
X70074Y-49359D01*
X69969Y-49358D01*
X69872Y-49399D01*
X69797Y-49473D01*
X69757Y-49571D01*
X69756Y-49676D01*
X69797Y-49773D01*
X69871Y-49848D01*
X69969Y-49888D01*
X70074Y-49889D01*
X70087Y-49883D01*
X70054Y-49964D01*
X70053Y-50051D01*
X70087Y-50132D01*
X70149Y-50194D01*
X70230Y-50227D01*
X70317Y-50228D01*
X70398Y-50194D01*
X70460Y-50132D01*
X70493Y-50051D01*
X70493Y-50049D01*
X70526Y-50128D01*
X70588Y-50190D01*
X70669Y-50223D01*
X70756Y-50224D01*
X70837Y-50190D01*
X70899Y-50128D01*
X70932Y-50047D01*
X70933Y-49960D01*
X70933Y-50842D01*
X70921Y-50847D01*
X70908Y-50859D01*
X70909Y-50791D01*
X70875Y-50710D01*
X70813Y-50648D01*
X70732Y-50615D01*
X70645Y-50614D01*
X70564Y-50648D01*
X70502Y-50710D01*
X70469Y-50791D01*
X70468Y-50878D01*
X70502Y-50959D01*
X70564Y-51021D01*
X70645Y-51054D01*
X70732Y-51055D01*
X70813Y-51021D01*
X70826Y-51009D01*
X70825Y-51077D01*
X70859Y-51158D01*
X70921Y-51220D01*
X71002Y-51253D01*
X71089Y-51254D01*
X71170Y-51220D01*
X71232Y-51158D01*
X71265Y-51077D01*
X71266Y-50990D01*
X71266Y-55061D01*
X71248Y-55068D01*
X71248Y-53476D01*
X71214Y-53395D01*
X71152Y-53333D01*
X71071Y-53300D01*
X70984Y-53299D01*
X70903Y-53333D01*
X70841Y-53395D01*
X70808Y-53476D01*
X70807Y-53563D01*
X70841Y-53644D01*
X70903Y-53706D01*
X70984Y-53739D01*
X71071Y-53740D01*
X71152Y-53706D01*
X71214Y-53644D01*
X71247Y-53563D01*
X71248Y-53476D01*
X71248Y-55068D01*
X71229Y-55076D01*
X71167Y-55138D01*
X71134Y-55219D01*
X71133Y-55306D01*
X71167Y-55387D01*
X71229Y-55449D01*
X71310Y-55482D01*
X71397Y-55483D01*
X71478Y-55449D01*
X71540Y-55387D01*
X71561Y-55337D01*
X71592Y-55337D01*
X71672Y-55304D01*
X71734Y-55242D01*
X71768Y-55161D01*
X71768Y-55073D01*
X71768Y-55684D01*
X71725Y-55727D01*
X71692Y-55808D01*
X71691Y-55895D01*
X71725Y-55976D01*
X71787Y-56038D01*
X71868Y-56071D01*
X71955Y-56072D01*
X72036Y-56038D01*
X72098Y-55976D01*
X72131Y-55895D01*
X72132Y-55808D01*
X72132Y-56376D01*
X72118Y-56343D01*
X72056Y-56281D01*
X71975Y-56248D01*
X71888Y-56247D01*
X71807Y-56281D01*
X71745Y-56343D01*
X71712Y-56424D01*
X71711Y-56511D01*
X71745Y-56592D01*
X71777Y-56625D01*
X71727Y-56675D01*
X71694Y-56756D01*
X71693Y-56843D01*
X71727Y-56924D01*
X71789Y-56986D01*
X71870Y-57019D01*
X71957Y-57020D01*
X72038Y-56986D01*
X72100Y-56924D01*
X72133Y-56843D01*
X72134Y-56756D01*
X72100Y-56675D01*
X72068Y-56642D01*
X72118Y-56592D01*
X72151Y-56511D01*
X72152Y-56424D01*
X72152Y-58401D01*
X72092Y-58460D01*
X72059Y-58541D01*
X72058Y-58629D01*
X72092Y-58709D01*
X72140Y-58757D01*
X72102Y-58773D01*
X72040Y-58835D01*
X72007Y-58916D01*
X72006Y-58997D01*
X71976Y-59028D01*
X71976Y-58138D01*
X71942Y-58057D01*
X71880Y-57995D01*
X71799Y-57962D01*
X71712Y-57961D01*
X71631Y-57995D01*
X71569Y-58057D01*
X71536Y-58138D01*
X71536Y-58159D01*
X71479Y-58182D01*
X71473Y-58177D01*
X71392Y-58143D01*
X71305Y-58143D01*
X71224Y-58176D01*
X71185Y-58216D01*
X71185Y-56104D01*
X71151Y-56023D01*
X71089Y-55961D01*
X71008Y-55928D01*
X70921Y-55927D01*
X70840Y-55961D01*
X70798Y-56002D01*
X70798Y-55638D01*
X70798Y-55414D01*
X70798Y-55378D01*
X70778Y-55329D01*
X70798Y-55281D01*
X70798Y-55244D01*
X70798Y-55021D01*
X70798Y-54984D01*
X70778Y-54936D01*
X70798Y-54887D01*
X70798Y-54850D01*
X70798Y-54627D01*
X70798Y-54590D01*
X70778Y-54542D01*
X70798Y-54493D01*
X70798Y-54457D01*
X70798Y-54233D01*
X70798Y-54197D01*
X70760Y-54105D01*
X70690Y-54034D01*
X70598Y-53996D01*
X70562Y-53997D01*
X70513Y-54046D01*
X70513Y-53243D01*
X70472Y-53146D01*
X70398Y-53071D01*
X70300Y-53031D01*
X70221Y-53030D01*
X70221Y-51141D01*
X70180Y-51044D01*
X70106Y-50969D01*
X70067Y-50953D01*
X70078Y-50926D01*
X70079Y-50821D01*
X70038Y-50724D01*
X69964Y-50649D01*
X69866Y-50609D01*
X69761Y-50608D01*
X69664Y-50649D01*
X69589Y-50723D01*
X69549Y-50821D01*
X69548Y-50926D01*
X69589Y-51023D01*
X69663Y-51098D01*
X69702Y-51114D01*
X69691Y-51141D01*
X69690Y-51246D01*
X69731Y-51343D01*
X69805Y-51418D01*
X69903Y-51458D01*
X70008Y-51459D01*
X70105Y-51418D01*
X70180Y-51344D01*
X70220Y-51246D01*
X70221Y-51141D01*
X70221Y-53030D01*
X70195Y-53030D01*
X70098Y-53071D01*
X70023Y-53145D01*
X69983Y-53243D01*
X69982Y-53348D01*
X70023Y-53445D01*
X70097Y-53520D01*
X70195Y-53560D01*
X70300Y-53561D01*
X70397Y-53520D01*
X70472Y-53446D01*
X70512Y-53348D01*
X70513Y-53243D01*
X70513Y-54046D01*
X70499Y-54059D01*
X70499Y-54296D01*
X70736Y-54296D01*
X70798Y-54233D01*
X70798Y-54457D01*
X70736Y-54394D01*
X70608Y-54394D01*
X70598Y-54390D01*
X70562Y-54390D01*
X70558Y-54394D01*
X70499Y-54394D01*
X70499Y-54453D01*
X70499Y-54631D01*
X70499Y-54689D01*
X70558Y-54689D01*
X70562Y-54693D01*
X70598Y-54693D01*
X70608Y-54689D01*
X70736Y-54689D01*
X70798Y-54627D01*
X70798Y-54850D01*
X70736Y-54788D01*
X70608Y-54788D01*
X70598Y-54784D01*
X70562Y-54784D01*
X70558Y-54788D01*
X70499Y-54788D01*
X70499Y-54846D01*
X70499Y-55025D01*
X70499Y-55083D01*
X70558Y-55083D01*
X70562Y-55087D01*
X70598Y-55087D01*
X70608Y-55083D01*
X70736Y-55083D01*
X70798Y-55021D01*
X70798Y-55244D01*
X70736Y-55182D01*
X70608Y-55182D01*
X70598Y-55178D01*
X70562Y-55178D01*
X70558Y-55182D01*
X70499Y-55182D01*
X70499Y-55240D01*
X70499Y-55418D01*
X70499Y-55477D01*
X70558Y-55477D01*
X70562Y-55481D01*
X70598Y-55481D01*
X70608Y-55477D01*
X70736Y-55477D01*
X70798Y-55414D01*
X70798Y-55638D01*
X70736Y-55575D01*
X70499Y-55575D01*
X70499Y-55812D01*
X70562Y-55874D01*
X70598Y-55875D01*
X70690Y-55837D01*
X70760Y-55766D01*
X70798Y-55674D01*
X70798Y-55638D01*
X70798Y-56002D01*
X70778Y-56023D01*
X70745Y-56104D01*
X70744Y-56191D01*
X70778Y-56272D01*
X70840Y-56334D01*
X70921Y-56367D01*
X71008Y-56368D01*
X71089Y-56334D01*
X71151Y-56272D01*
X71184Y-56191D01*
X71185Y-56104D01*
X71185Y-58216D01*
X71162Y-58238D01*
X71129Y-58319D01*
X71128Y-58407D01*
X71162Y-58487D01*
X71224Y-58549D01*
X71305Y-58583D01*
X71392Y-58583D01*
X71451Y-58559D01*
X71457Y-58564D01*
X71538Y-58598D01*
X71626Y-58598D01*
X71706Y-58565D01*
X71768Y-58503D01*
X71802Y-58422D01*
X71802Y-58400D01*
X71880Y-58368D01*
X71942Y-58306D01*
X71975Y-58225D01*
X71976Y-58138D01*
X71976Y-59028D01*
X71951Y-59053D01*
X71933Y-59097D01*
X71880Y-59075D01*
X71792Y-59074D01*
X71712Y-59108D01*
X71695Y-59124D01*
X71668Y-59097D01*
X71587Y-59064D01*
X71500Y-59063D01*
X71419Y-59097D01*
X71357Y-59159D01*
X71324Y-59240D01*
X71323Y-59327D01*
X71357Y-59408D01*
X71419Y-59470D01*
X71500Y-59503D01*
X71587Y-59504D01*
X71668Y-59470D01*
X71684Y-59454D01*
X71711Y-59481D01*
X71792Y-59514D01*
X71880Y-59515D01*
X71960Y-59481D01*
X72022Y-59419D01*
X72041Y-59375D01*
X72094Y-59397D01*
X72181Y-59398D01*
X72262Y-59364D01*
X72324Y-59302D01*
X72357Y-59221D01*
X72358Y-59140D01*
X72413Y-59084D01*
X72446Y-59003D01*
X72447Y-58916D01*
X72413Y-58835D01*
X72365Y-58787D01*
X72403Y-58772D01*
X72465Y-58710D01*
X72493Y-58642D01*
X72544Y-58663D01*
X72631Y-58664D01*
X72712Y-58630D01*
X72774Y-58568D01*
X72807Y-58487D01*
X72808Y-58400D01*
X72808Y-59836D01*
X72719Y-59800D01*
X72588Y-59799D01*
X72467Y-59850D01*
X72403Y-59913D01*
X72341Y-59850D01*
X72219Y-59800D01*
X72088Y-59799D01*
X71967Y-59850D01*
X71903Y-59913D01*
X71841Y-59850D01*
X71719Y-59800D01*
X71588Y-59799D01*
X71467Y-59850D01*
X71374Y-59942D01*
X71324Y-60064D01*
X71323Y-60195D01*
X71374Y-60316D01*
X71466Y-60409D01*
X71588Y-60459D01*
X71719Y-60460D01*
X71840Y-60409D01*
X71904Y-60346D01*
X71966Y-60409D01*
X72088Y-60459D01*
X72219Y-60460D01*
X72340Y-60409D01*
X72404Y-60346D01*
X72466Y-60409D01*
X72588Y-60459D01*
X72719Y-60460D01*
X72840Y-60409D01*
X72933Y-60317D01*
X72983Y-60195D01*
X72984Y-60064D01*
X72984Y-62860D01*
X72414Y-62860D01*
X72414Y-61782D01*
X72380Y-61701D01*
X72318Y-61639D01*
X72237Y-61606D01*
X72176Y-61605D01*
X72205Y-61562D01*
X72234Y-61419D01*
X72205Y-61275D01*
X72124Y-61153D01*
X72002Y-61071D01*
X71858Y-61043D01*
X71843Y-61043D01*
X71699Y-61071D01*
X71577Y-61153D01*
X71496Y-61275D01*
X71467Y-61419D01*
X71496Y-61562D01*
X71577Y-61684D01*
X71699Y-61766D01*
X71843Y-61795D01*
X71858Y-61795D01*
X71978Y-61771D01*
X71974Y-61782D01*
X71973Y-61869D01*
X72007Y-61950D01*
X72069Y-62012D01*
X72150Y-62045D01*
X72237Y-62046D01*
X72318Y-62012D01*
X72380Y-61950D01*
X72413Y-61869D01*
X72414Y-61782D01*
X72414Y-62860D01*
X71685Y-62860D01*
X71780Y-62796D01*
X71876Y-62652D01*
X71910Y-62482D01*
X71876Y-62311D01*
X71780Y-62167D01*
X71636Y-62070D01*
X71465Y-62037D01*
X71448Y-62037D01*
X71285Y-62069D01*
X71285Y-61637D01*
X71244Y-61540D01*
X71170Y-61465D01*
X71072Y-61425D01*
X70967Y-61424D01*
X70879Y-61461D01*
X70879Y-58294D01*
X70845Y-58213D01*
X70822Y-58189D01*
X70822Y-56452D01*
X70788Y-56371D01*
X70726Y-56309D01*
X70645Y-56276D01*
X70558Y-56275D01*
X70477Y-56309D01*
X70415Y-56371D01*
X70405Y-56396D01*
X70405Y-55638D01*
X70405Y-55414D01*
X70405Y-55378D01*
X70401Y-55368D01*
X70401Y-55290D01*
X70405Y-55281D01*
X70405Y-55244D01*
X70405Y-55021D01*
X70405Y-54984D01*
X70401Y-54975D01*
X70401Y-54896D01*
X70405Y-54887D01*
X70405Y-54850D01*
X70405Y-54627D01*
X70405Y-54590D01*
X70401Y-54581D01*
X70401Y-54503D01*
X70405Y-54493D01*
X70405Y-54457D01*
X70405Y-54233D01*
X70405Y-54197D01*
X70401Y-54187D01*
X70401Y-54059D01*
X70338Y-53997D01*
X70302Y-53996D01*
X70253Y-54017D01*
X70204Y-53996D01*
X70168Y-53997D01*
X70106Y-54059D01*
X70106Y-54187D01*
X70102Y-54197D01*
X70102Y-54233D01*
X70106Y-54237D01*
X70106Y-54296D01*
X70164Y-54296D01*
X70342Y-54296D01*
X70401Y-54296D01*
X70401Y-54237D01*
X70405Y-54233D01*
X70405Y-54457D01*
X70401Y-54453D01*
X70401Y-54394D01*
X70342Y-54394D01*
X70338Y-54390D01*
X70302Y-54390D01*
X70292Y-54394D01*
X70214Y-54394D01*
X70204Y-54390D01*
X70168Y-54390D01*
X70164Y-54394D01*
X70106Y-54394D01*
X70106Y-54453D01*
X70102Y-54457D01*
X70102Y-54493D01*
X70106Y-54503D01*
X70106Y-54581D01*
X70102Y-54590D01*
X70102Y-54627D01*
X70106Y-54631D01*
X70106Y-54689D01*
X70164Y-54689D01*
X70168Y-54693D01*
X70204Y-54693D01*
X70214Y-54689D01*
X70292Y-54689D01*
X70302Y-54693D01*
X70338Y-54693D01*
X70342Y-54689D01*
X70401Y-54689D01*
X70401Y-54631D01*
X70405Y-54627D01*
X70405Y-54850D01*
X70401Y-54846D01*
X70401Y-54788D01*
X70342Y-54788D01*
X70338Y-54784D01*
X70302Y-54784D01*
X70292Y-54788D01*
X70214Y-54788D01*
X70204Y-54784D01*
X70168Y-54784D01*
X70164Y-54788D01*
X70106Y-54788D01*
X70106Y-54846D01*
X70102Y-54850D01*
X70102Y-54887D01*
X70106Y-54896D01*
X70106Y-54975D01*
X70102Y-54984D01*
X70102Y-55021D01*
X70106Y-55025D01*
X70106Y-55083D01*
X70164Y-55083D01*
X70168Y-55087D01*
X70204Y-55087D01*
X70214Y-55083D01*
X70292Y-55083D01*
X70302Y-55087D01*
X70338Y-55087D01*
X70342Y-55083D01*
X70401Y-55083D01*
X70401Y-55025D01*
X70405Y-55021D01*
X70405Y-55244D01*
X70401Y-55240D01*
X70401Y-55182D01*
X70342Y-55182D01*
X70338Y-55178D01*
X70302Y-55178D01*
X70292Y-55182D01*
X70214Y-55182D01*
X70204Y-55178D01*
X70168Y-55178D01*
X70164Y-55182D01*
X70106Y-55182D01*
X70106Y-55240D01*
X70102Y-55244D01*
X70102Y-55281D01*
X70106Y-55290D01*
X70106Y-55368D01*
X70102Y-55378D01*
X70102Y-55414D01*
X70106Y-55418D01*
X70106Y-55477D01*
X70164Y-55477D01*
X70168Y-55481D01*
X70204Y-55481D01*
X70214Y-55477D01*
X70292Y-55477D01*
X70302Y-55481D01*
X70338Y-55481D01*
X70342Y-55477D01*
X70401Y-55477D01*
X70401Y-55418D01*
X70405Y-55414D01*
X70405Y-55638D01*
X70401Y-55634D01*
X70401Y-55575D01*
X70342Y-55575D01*
X70164Y-55575D01*
X70106Y-55575D01*
X70106Y-55634D01*
X70102Y-55638D01*
X70102Y-55674D01*
X70106Y-55684D01*
X70106Y-55812D01*
X70168Y-55874D01*
X70204Y-55875D01*
X70253Y-55854D01*
X70302Y-55875D01*
X70338Y-55874D01*
X70401Y-55812D01*
X70401Y-55684D01*
X70405Y-55674D01*
X70405Y-55638D01*
X70405Y-56396D01*
X70382Y-56452D01*
X70381Y-56539D01*
X70391Y-56563D01*
X70325Y-56536D01*
X70238Y-56535D01*
X70157Y-56569D01*
X70095Y-56631D01*
X70062Y-56712D01*
X70061Y-56799D01*
X70095Y-56880D01*
X70157Y-56942D01*
X70238Y-56975D01*
X70325Y-56976D01*
X70406Y-56942D01*
X70468Y-56880D01*
X70501Y-56799D01*
X70502Y-56712D01*
X70492Y-56688D01*
X70558Y-56715D01*
X70645Y-56716D01*
X70726Y-56682D01*
X70788Y-56620D01*
X70821Y-56539D01*
X70822Y-56452D01*
X70822Y-58189D01*
X70783Y-58151D01*
X70713Y-58122D01*
X70680Y-58042D01*
X70618Y-57980D01*
X70537Y-57947D01*
X70450Y-57946D01*
X70369Y-57980D01*
X70307Y-58042D01*
X70274Y-58123D01*
X70273Y-58210D01*
X70307Y-58291D01*
X70329Y-58314D01*
X70276Y-58367D01*
X70242Y-58448D01*
X70242Y-58536D01*
X70275Y-58616D01*
X70337Y-58678D01*
X70418Y-58712D01*
X70506Y-58712D01*
X70586Y-58679D01*
X70648Y-58617D01*
X70673Y-58558D01*
X70702Y-58558D01*
X70783Y-58524D01*
X70845Y-58462D01*
X70878Y-58381D01*
X70879Y-58294D01*
X70879Y-61461D01*
X70870Y-61465D01*
X70795Y-61539D01*
X70755Y-61637D01*
X70754Y-61742D01*
X70795Y-61839D01*
X70869Y-61914D01*
X70967Y-61954D01*
X71072Y-61955D01*
X71169Y-61914D01*
X71244Y-61840D01*
X71284Y-61742D01*
X71285Y-61637D01*
X71285Y-62069D01*
X71277Y-62070D01*
X71133Y-62167D01*
X71037Y-62311D01*
X71011Y-62438D01*
X70996Y-62401D01*
X70945Y-62350D01*
X70966Y-62328D01*
X71000Y-62247D01*
X71000Y-62160D01*
X70967Y-62079D01*
X70905Y-62017D01*
X70824Y-61984D01*
X70736Y-61983D01*
X70656Y-62017D01*
X70594Y-62079D01*
X70560Y-62160D01*
X70560Y-62247D01*
X70584Y-62305D01*
X70570Y-62300D01*
X70483Y-62299D01*
X70402Y-62333D01*
X70340Y-62395D01*
X70307Y-62476D01*
X70306Y-62531D01*
X70249Y-62530D01*
X70179Y-62559D01*
X70179Y-62125D01*
X70171Y-62000D01*
X70140Y-61925D01*
X70179Y-61810D01*
X70171Y-61685D01*
X70140Y-61610D01*
X70179Y-61495D01*
X70171Y-61370D01*
X70138Y-61291D01*
X70079Y-61293D01*
X70079Y-58151D01*
X70057Y-58098D01*
X70057Y-56869D01*
X70016Y-56772D01*
X70011Y-56766D01*
X70011Y-55638D01*
X70011Y-55414D01*
X70011Y-55378D01*
X70007Y-55368D01*
X70007Y-55290D01*
X70011Y-55281D01*
X70011Y-55244D01*
X70011Y-55021D01*
X70011Y-54984D01*
X70007Y-54975D01*
X70007Y-54896D01*
X70011Y-54887D01*
X70011Y-54850D01*
X70011Y-54627D01*
X70011Y-54590D01*
X70007Y-54581D01*
X70007Y-54503D01*
X70011Y-54493D01*
X70011Y-54457D01*
X70011Y-54233D01*
X70011Y-54197D01*
X70007Y-54187D01*
X70007Y-54059D01*
X69945Y-53997D01*
X69908Y-53996D01*
X69860Y-54017D01*
X69811Y-53996D01*
X69774Y-53997D01*
X69712Y-54059D01*
X69712Y-54187D01*
X69708Y-54197D01*
X69708Y-54233D01*
X69712Y-54237D01*
X69712Y-54296D01*
X69770Y-54296D01*
X69949Y-54296D01*
X70007Y-54296D01*
X70007Y-54237D01*
X70011Y-54233D01*
X70011Y-54457D01*
X70007Y-54453D01*
X70007Y-54394D01*
X69949Y-54394D01*
X69945Y-54390D01*
X69908Y-54390D01*
X69899Y-54394D01*
X69820Y-54394D01*
X69811Y-54390D01*
X69774Y-54390D01*
X69770Y-54394D01*
X69712Y-54394D01*
X69712Y-54453D01*
X69708Y-54457D01*
X69708Y-54493D01*
X69712Y-54503D01*
X69712Y-54581D01*
X69708Y-54590D01*
X69708Y-54627D01*
X69712Y-54631D01*
X69712Y-54689D01*
X69770Y-54689D01*
X69774Y-54693D01*
X69811Y-54693D01*
X69820Y-54689D01*
X69899Y-54689D01*
X69908Y-54693D01*
X69945Y-54693D01*
X69949Y-54689D01*
X70007Y-54689D01*
X70007Y-54631D01*
X70011Y-54627D01*
X70011Y-54850D01*
X70007Y-54846D01*
X70007Y-54788D01*
X69949Y-54788D01*
X69945Y-54784D01*
X69908Y-54784D01*
X69899Y-54788D01*
X69820Y-54788D01*
X69811Y-54784D01*
X69774Y-54784D01*
X69770Y-54788D01*
X69712Y-54788D01*
X69712Y-54846D01*
X69708Y-54850D01*
X69708Y-54887D01*
X69712Y-54896D01*
X69712Y-54975D01*
X69708Y-54984D01*
X69708Y-55021D01*
X69712Y-55025D01*
X69712Y-55083D01*
X69770Y-55083D01*
X69774Y-55087D01*
X69811Y-55087D01*
X69820Y-55083D01*
X69899Y-55083D01*
X69908Y-55087D01*
X69945Y-55087D01*
X69949Y-55083D01*
X70007Y-55083D01*
X70007Y-55025D01*
X70011Y-55021D01*
X70011Y-55244D01*
X70007Y-55240D01*
X70007Y-55182D01*
X69949Y-55182D01*
X69945Y-55178D01*
X69908Y-55178D01*
X69899Y-55182D01*
X69820Y-55182D01*
X69811Y-55178D01*
X69774Y-55178D01*
X69770Y-55182D01*
X69712Y-55182D01*
X69712Y-55240D01*
X69708Y-55244D01*
X69708Y-55281D01*
X69712Y-55290D01*
X69712Y-55368D01*
X69708Y-55378D01*
X69708Y-55414D01*
X69712Y-55418D01*
X69712Y-55477D01*
X69770Y-55477D01*
X69774Y-55481D01*
X69811Y-55481D01*
X69820Y-55477D01*
X69899Y-55477D01*
X69908Y-55481D01*
X69945Y-55481D01*
X69949Y-55477D01*
X70007Y-55477D01*
X70007Y-55418D01*
X70011Y-55414D01*
X70011Y-55638D01*
X70007Y-55634D01*
X70007Y-55575D01*
X69949Y-55575D01*
X69770Y-55575D01*
X69712Y-55575D01*
X69712Y-55634D01*
X69708Y-55638D01*
X69708Y-55674D01*
X69712Y-55684D01*
X69712Y-55812D01*
X69774Y-55874D01*
X69811Y-55875D01*
X69860Y-55854D01*
X69908Y-55875D01*
X69945Y-55874D01*
X70007Y-55812D01*
X70007Y-55684D01*
X70011Y-55674D01*
X70011Y-55638D01*
X70011Y-56766D01*
X69942Y-56697D01*
X69844Y-56657D01*
X69739Y-56656D01*
X69680Y-56681D01*
X69680Y-53274D01*
X69637Y-53171D01*
X69558Y-53092D01*
X69455Y-53050D01*
X69344Y-53049D01*
X69241Y-53092D01*
X69162Y-53171D01*
X69123Y-53266D01*
X69123Y-49815D01*
X69082Y-49718D01*
X69011Y-49646D01*
X69011Y-48787D01*
X68988Y-48731D01*
X68988Y-44463D01*
X68941Y-44350D01*
X68855Y-44263D01*
X68742Y-44217D01*
X68620Y-44216D01*
X68507Y-44263D01*
X68420Y-44349D01*
X68374Y-44462D01*
X68373Y-44584D01*
X68420Y-44697D01*
X68506Y-44784D01*
X68619Y-44830D01*
X68741Y-44831D01*
X68854Y-44784D01*
X68941Y-44698D01*
X68987Y-44585D01*
X68988Y-44463D01*
X68988Y-48731D01*
X68984Y-48722D01*
X68984Y-46935D01*
X68937Y-46822D01*
X68851Y-46735D01*
X68738Y-46689D01*
X68616Y-46688D01*
X68517Y-46729D01*
X68517Y-45875D01*
X68476Y-45778D01*
X68402Y-45703D01*
X68304Y-45663D01*
X68281Y-45663D01*
X68281Y-44611D01*
X68240Y-44514D01*
X68166Y-44439D01*
X68068Y-44399D01*
X67963Y-44398D01*
X67866Y-44439D01*
X67806Y-44499D01*
X67806Y-44463D01*
X67759Y-44350D01*
X67673Y-44263D01*
X67560Y-44217D01*
X67438Y-44216D01*
X67325Y-44263D01*
X67238Y-44349D01*
X67192Y-44462D01*
X67191Y-44584D01*
X67238Y-44697D01*
X67324Y-44784D01*
X67437Y-44830D01*
X67559Y-44831D01*
X67672Y-44784D01*
X67750Y-44706D01*
X67750Y-44716D01*
X67791Y-44813D01*
X67865Y-44888D01*
X67963Y-44928D01*
X68068Y-44929D01*
X68165Y-44888D01*
X68240Y-44814D01*
X68280Y-44716D01*
X68281Y-44611D01*
X68281Y-45663D01*
X68199Y-45662D01*
X68102Y-45703D01*
X68027Y-45777D01*
X67987Y-45875D01*
X67986Y-45980D01*
X68027Y-46077D01*
X68101Y-46152D01*
X68199Y-46192D01*
X68304Y-46193D01*
X68401Y-46152D01*
X68476Y-46078D01*
X68516Y-45980D01*
X68517Y-45875D01*
X68517Y-46729D01*
X68503Y-46735D01*
X68416Y-46821D01*
X68370Y-46934D01*
X68369Y-47056D01*
X68384Y-47093D01*
X68285Y-47092D01*
X68188Y-47133D01*
X68113Y-47207D01*
X68073Y-47305D01*
X68072Y-47410D01*
X68113Y-47507D01*
X68187Y-47582D01*
X68285Y-47622D01*
X68390Y-47623D01*
X68487Y-47582D01*
X68562Y-47508D01*
X68602Y-47410D01*
X68603Y-47305D01*
X68599Y-47296D01*
X68615Y-47302D01*
X68737Y-47303D01*
X68850Y-47256D01*
X68937Y-47170D01*
X68983Y-47057D01*
X68984Y-46935D01*
X68984Y-48722D01*
X68970Y-48690D01*
X68896Y-48615D01*
X68798Y-48575D01*
X68693Y-48574D01*
X68596Y-48615D01*
X68521Y-48689D01*
X68481Y-48787D01*
X68480Y-48892D01*
X68521Y-48989D01*
X68595Y-49064D01*
X68693Y-49104D01*
X68798Y-49105D01*
X68895Y-49064D01*
X68970Y-48990D01*
X69010Y-48892D01*
X69011Y-48787D01*
X69011Y-49646D01*
X69008Y-49643D01*
X68961Y-49623D01*
X68987Y-49559D01*
X68988Y-49437D01*
X68941Y-49324D01*
X68855Y-49237D01*
X68742Y-49191D01*
X68620Y-49190D01*
X68507Y-49237D01*
X68420Y-49323D01*
X68374Y-49436D01*
X68373Y-49558D01*
X68420Y-49671D01*
X68506Y-49758D01*
X68600Y-49797D01*
X68593Y-49815D01*
X68592Y-49920D01*
X68633Y-50017D01*
X68707Y-50092D01*
X68805Y-50132D01*
X68910Y-50133D01*
X69007Y-50092D01*
X69082Y-50018D01*
X69122Y-49920D01*
X69123Y-49815D01*
X69123Y-53266D01*
X69120Y-53274D01*
X69119Y-53385D01*
X69162Y-53488D01*
X69241Y-53567D01*
X69344Y-53609D01*
X69455Y-53610D01*
X69558Y-53567D01*
X69637Y-53488D01*
X69679Y-53385D01*
X69680Y-53274D01*
X69680Y-56681D01*
X69642Y-56697D01*
X69617Y-56721D01*
X69617Y-55638D01*
X69617Y-55414D01*
X69617Y-55378D01*
X69613Y-55368D01*
X69613Y-55290D01*
X69617Y-55281D01*
X69617Y-55244D01*
X69617Y-55021D01*
X69617Y-54984D01*
X69613Y-54975D01*
X69613Y-54896D01*
X69617Y-54887D01*
X69617Y-54850D01*
X69617Y-54627D01*
X69617Y-54590D01*
X69613Y-54581D01*
X69613Y-54503D01*
X69617Y-54493D01*
X69617Y-54457D01*
X69617Y-54233D01*
X69617Y-54197D01*
X69613Y-54187D01*
X69613Y-54059D01*
X69551Y-53997D01*
X69515Y-53996D01*
X69466Y-54017D01*
X69417Y-53996D01*
X69381Y-53997D01*
X69318Y-54059D01*
X69318Y-54187D01*
X69314Y-54197D01*
X69314Y-54233D01*
X69318Y-54237D01*
X69318Y-54296D01*
X69377Y-54296D01*
X69555Y-54296D01*
X69613Y-54296D01*
X69613Y-54237D01*
X69617Y-54233D01*
X69617Y-54457D01*
X69613Y-54453D01*
X69613Y-54394D01*
X69555Y-54394D01*
X69551Y-54390D01*
X69515Y-54390D01*
X69505Y-54394D01*
X69427Y-54394D01*
X69417Y-54390D01*
X69381Y-54390D01*
X69377Y-54394D01*
X69318Y-54394D01*
X69318Y-54453D01*
X69314Y-54457D01*
X69314Y-54493D01*
X69318Y-54503D01*
X69318Y-54581D01*
X69314Y-54590D01*
X69314Y-54627D01*
X69318Y-54631D01*
X69318Y-54689D01*
X69377Y-54689D01*
X69381Y-54693D01*
X69417Y-54693D01*
X69427Y-54689D01*
X69505Y-54689D01*
X69515Y-54693D01*
X69551Y-54693D01*
X69555Y-54689D01*
X69613Y-54689D01*
X69613Y-54631D01*
X69617Y-54627D01*
X69617Y-54850D01*
X69613Y-54846D01*
X69613Y-54788D01*
X69555Y-54788D01*
X69551Y-54784D01*
X69515Y-54784D01*
X69505Y-54788D01*
X69427Y-54788D01*
X69417Y-54784D01*
X69381Y-54784D01*
X69377Y-54788D01*
X69318Y-54788D01*
X69318Y-54846D01*
X69314Y-54850D01*
X69314Y-54887D01*
X69318Y-54896D01*
X69318Y-54975D01*
X69314Y-54984D01*
X69314Y-55021D01*
X69318Y-55025D01*
X69318Y-55083D01*
X69377Y-55083D01*
X69381Y-55087D01*
X69417Y-55087D01*
X69427Y-55083D01*
X69505Y-55083D01*
X69515Y-55087D01*
X69551Y-55087D01*
X69555Y-55083D01*
X69613Y-55083D01*
X69613Y-55025D01*
X69617Y-55021D01*
X69617Y-55244D01*
X69613Y-55240D01*
X69613Y-55182D01*
X69555Y-55182D01*
X69551Y-55178D01*
X69515Y-55178D01*
X69505Y-55182D01*
X69427Y-55182D01*
X69417Y-55178D01*
X69381Y-55178D01*
X69377Y-55182D01*
X69318Y-55182D01*
X69318Y-55240D01*
X69314Y-55244D01*
X69314Y-55281D01*
X69318Y-55290D01*
X69318Y-55368D01*
X69314Y-55378D01*
X69314Y-55414D01*
X69318Y-55418D01*
X69318Y-55477D01*
X69377Y-55477D01*
X69381Y-55481D01*
X69417Y-55481D01*
X69427Y-55477D01*
X69505Y-55477D01*
X69515Y-55481D01*
X69551Y-55481D01*
X69555Y-55477D01*
X69613Y-55477D01*
X69613Y-55418D01*
X69617Y-55414D01*
X69617Y-55638D01*
X69613Y-55634D01*
X69613Y-55575D01*
X69555Y-55575D01*
X69377Y-55575D01*
X69318Y-55575D01*
X69318Y-55634D01*
X69314Y-55638D01*
X69314Y-55674D01*
X69318Y-55684D01*
X69318Y-55812D01*
X69381Y-55874D01*
X69417Y-55875D01*
X69466Y-55854D01*
X69515Y-55875D01*
X69551Y-55874D01*
X69613Y-55812D01*
X69613Y-55684D01*
X69617Y-55674D01*
X69617Y-55638D01*
X69617Y-56721D01*
X69567Y-56771D01*
X69527Y-56869D01*
X69526Y-56974D01*
X69567Y-57071D01*
X69641Y-57146D01*
X69739Y-57186D01*
X69844Y-57187D01*
X69941Y-57146D01*
X70016Y-57072D01*
X70056Y-56974D01*
X70057Y-56869D01*
X70057Y-58098D01*
X70038Y-58054D01*
X69964Y-57979D01*
X69866Y-57939D01*
X69761Y-57938D01*
X69664Y-57979D01*
X69655Y-57988D01*
X69655Y-57623D01*
X69614Y-57526D01*
X69540Y-57451D01*
X69453Y-57415D01*
X69453Y-56909D01*
X69412Y-56812D01*
X69338Y-56737D01*
X69240Y-56697D01*
X69220Y-56697D01*
X69220Y-55812D01*
X69220Y-55575D01*
X69220Y-55477D01*
X69220Y-55418D01*
X69220Y-55240D01*
X69220Y-55182D01*
X69220Y-55083D01*
X69220Y-55025D01*
X69220Y-54846D01*
X69220Y-54788D01*
X69220Y-54689D01*
X69220Y-54631D01*
X69220Y-54453D01*
X69220Y-54394D01*
X69220Y-54296D01*
X69220Y-54059D01*
X69157Y-53997D01*
X69121Y-53996D01*
X69029Y-54034D01*
X68977Y-54087D01*
X68977Y-53651D01*
X68936Y-53554D01*
X68862Y-53479D01*
X68764Y-53439D01*
X68659Y-53438D01*
X68562Y-53479D01*
X68487Y-53553D01*
X68480Y-53571D01*
X68480Y-50342D01*
X68446Y-50261D01*
X68384Y-50199D01*
X68303Y-50166D01*
X68216Y-50165D01*
X68135Y-50199D01*
X68073Y-50261D01*
X68040Y-50342D01*
X68039Y-50429D01*
X68073Y-50510D01*
X68135Y-50572D01*
X68216Y-50605D01*
X68303Y-50606D01*
X68384Y-50572D01*
X68446Y-50510D01*
X68479Y-50429D01*
X68480Y-50342D01*
X68480Y-53571D01*
X68447Y-53651D01*
X68446Y-53756D01*
X68487Y-53853D01*
X68561Y-53928D01*
X68659Y-53968D01*
X68764Y-53969D01*
X68861Y-53928D01*
X68936Y-53854D01*
X68976Y-53756D01*
X68977Y-53651D01*
X68977Y-54087D01*
X68959Y-54105D01*
X68921Y-54197D01*
X68921Y-54233D01*
X68983Y-54296D01*
X69220Y-54296D01*
X69220Y-54394D01*
X69161Y-54394D01*
X69157Y-54390D01*
X69121Y-54390D01*
X69111Y-54394D01*
X68983Y-54394D01*
X68921Y-54457D01*
X68921Y-54493D01*
X68941Y-54542D01*
X68921Y-54590D01*
X68921Y-54627D01*
X68983Y-54689D01*
X69111Y-54689D01*
X69121Y-54693D01*
X69157Y-54693D01*
X69161Y-54689D01*
X69220Y-54689D01*
X69220Y-54788D01*
X69161Y-54788D01*
X69157Y-54784D01*
X69121Y-54784D01*
X69111Y-54788D01*
X68983Y-54788D01*
X68921Y-54850D01*
X68921Y-54887D01*
X68941Y-54936D01*
X68921Y-54984D01*
X68921Y-55021D01*
X68983Y-55083D01*
X69111Y-55083D01*
X69121Y-55087D01*
X69157Y-55087D01*
X69161Y-55083D01*
X69220Y-55083D01*
X69220Y-55182D01*
X69161Y-55182D01*
X69157Y-55178D01*
X69121Y-55178D01*
X69111Y-55182D01*
X68983Y-55182D01*
X68921Y-55244D01*
X68921Y-55281D01*
X68941Y-55329D01*
X68921Y-55378D01*
X68921Y-55414D01*
X68983Y-55477D01*
X69111Y-55477D01*
X69121Y-55481D01*
X69157Y-55481D01*
X69161Y-55477D01*
X69220Y-55477D01*
X69220Y-55575D01*
X68983Y-55575D01*
X68921Y-55638D01*
X68921Y-55674D01*
X68959Y-55766D01*
X69029Y-55837D01*
X69121Y-55875D01*
X69157Y-55874D01*
X69220Y-55812D01*
X69220Y-56697D01*
X69135Y-56696D01*
X69038Y-56737D01*
X68963Y-56811D01*
X68923Y-56909D01*
X68922Y-57014D01*
X68963Y-57111D01*
X69037Y-57186D01*
X69135Y-57226D01*
X69240Y-57227D01*
X69337Y-57186D01*
X69412Y-57112D01*
X69452Y-57014D01*
X69453Y-56909D01*
X69453Y-57415D01*
X69442Y-57411D01*
X69337Y-57410D01*
X69240Y-57451D01*
X69165Y-57525D01*
X69125Y-57623D01*
X69124Y-57728D01*
X69165Y-57825D01*
X69239Y-57900D01*
X69337Y-57940D01*
X69442Y-57941D01*
X69539Y-57900D01*
X69614Y-57826D01*
X69654Y-57728D01*
X69655Y-57623D01*
X69655Y-57988D01*
X69589Y-58053D01*
X69549Y-58151D01*
X69548Y-58256D01*
X69589Y-58353D01*
X69663Y-58428D01*
X69761Y-58468D01*
X69866Y-58469D01*
X69963Y-58428D01*
X70038Y-58354D01*
X70078Y-58256D01*
X70079Y-58151D01*
X70079Y-61293D01*
X70065Y-61294D01*
X69908Y-61451D01*
X69903Y-61449D01*
X69861Y-61452D01*
X69858Y-61404D01*
X69861Y-61407D01*
X70019Y-61248D01*
X70022Y-61175D01*
X69903Y-61134D01*
X69778Y-61142D01*
X69703Y-61173D01*
X69588Y-61134D01*
X69505Y-61139D01*
X69505Y-58497D01*
X69464Y-58400D01*
X69390Y-58325D01*
X69292Y-58285D01*
X69187Y-58284D01*
X69090Y-58325D01*
X69018Y-58397D01*
X69018Y-57739D01*
X68971Y-57626D01*
X68885Y-57539D01*
X68775Y-57494D01*
X68794Y-57446D01*
X68795Y-57341D01*
X68779Y-57302D01*
X68779Y-56471D01*
X68738Y-56374D01*
X68664Y-56299D01*
X68575Y-56262D01*
X68575Y-55617D01*
X68534Y-55520D01*
X68460Y-55445D01*
X68400Y-55420D01*
X68400Y-54067D01*
X68359Y-53970D01*
X68285Y-53895D01*
X68187Y-53855D01*
X68082Y-53854D01*
X67985Y-53895D01*
X67910Y-53969D01*
X67870Y-54067D01*
X67869Y-54172D01*
X67910Y-54269D01*
X67984Y-54344D01*
X67984Y-54344D01*
X67906Y-54377D01*
X67831Y-54451D01*
X67806Y-54512D01*
X67806Y-49437D01*
X67802Y-49427D01*
X67802Y-46935D01*
X67755Y-46822D01*
X67669Y-46735D01*
X67556Y-46689D01*
X67434Y-46688D01*
X67321Y-46735D01*
X67234Y-46821D01*
X67188Y-46934D01*
X67187Y-47056D01*
X67234Y-47169D01*
X67320Y-47256D01*
X67433Y-47302D01*
X67555Y-47303D01*
X67668Y-47256D01*
X67755Y-47170D01*
X67801Y-47057D01*
X67802Y-46935D01*
X67802Y-49427D01*
X67759Y-49324D01*
X67673Y-49237D01*
X67560Y-49191D01*
X67438Y-49190D01*
X67325Y-49237D01*
X67238Y-49323D01*
X67192Y-49436D01*
X67191Y-49558D01*
X67238Y-49671D01*
X67324Y-49758D01*
X67437Y-49804D01*
X67559Y-49805D01*
X67672Y-49758D01*
X67759Y-49672D01*
X67805Y-49559D01*
X67806Y-49437D01*
X67806Y-54512D01*
X67791Y-54549D01*
X67790Y-54654D01*
X67831Y-54751D01*
X67905Y-54826D01*
X68003Y-54866D01*
X68108Y-54867D01*
X68205Y-54826D01*
X68280Y-54752D01*
X68320Y-54654D01*
X68321Y-54549D01*
X68280Y-54452D01*
X68206Y-54377D01*
X68206Y-54377D01*
X68284Y-54344D01*
X68359Y-54270D01*
X68399Y-54172D01*
X68400Y-54067D01*
X68400Y-55420D01*
X68362Y-55405D01*
X68257Y-55404D01*
X68160Y-55445D01*
X68085Y-55519D01*
X68045Y-55617D01*
X68045Y-55632D01*
X68026Y-55613D01*
X67928Y-55573D01*
X67823Y-55572D01*
X67726Y-55613D01*
X67651Y-55687D01*
X67611Y-55785D01*
X67610Y-55890D01*
X67651Y-55987D01*
X67725Y-56062D01*
X67823Y-56102D01*
X67928Y-56103D01*
X68025Y-56062D01*
X68100Y-55988D01*
X68140Y-55890D01*
X68140Y-55875D01*
X68159Y-55894D01*
X68257Y-55934D01*
X68362Y-55935D01*
X68459Y-55894D01*
X68534Y-55820D01*
X68574Y-55722D01*
X68575Y-55617D01*
X68575Y-56262D01*
X68566Y-56259D01*
X68461Y-56258D01*
X68364Y-56299D01*
X68289Y-56373D01*
X68249Y-56471D01*
X68248Y-56576D01*
X68289Y-56673D01*
X68363Y-56748D01*
X68461Y-56788D01*
X68566Y-56789D01*
X68663Y-56748D01*
X68738Y-56674D01*
X68778Y-56576D01*
X68779Y-56471D01*
X68779Y-57302D01*
X68754Y-57244D01*
X68680Y-57169D01*
X68582Y-57129D01*
X68477Y-57128D01*
X68380Y-57169D01*
X68305Y-57243D01*
X68284Y-57295D01*
X68284Y-56724D01*
X68243Y-56627D01*
X68169Y-56552D01*
X68071Y-56512D01*
X67966Y-56511D01*
X67869Y-56552D01*
X67794Y-56626D01*
X67754Y-56724D01*
X67753Y-56829D01*
X67794Y-56926D01*
X67868Y-57001D01*
X67966Y-57041D01*
X68071Y-57042D01*
X68168Y-57001D01*
X68243Y-56927D01*
X68283Y-56829D01*
X68284Y-56724D01*
X68284Y-57295D01*
X68265Y-57341D01*
X68264Y-57446D01*
X68305Y-57543D01*
X68379Y-57618D01*
X68443Y-57644D01*
X68404Y-57738D01*
X68403Y-57860D01*
X68450Y-57973D01*
X68536Y-58060D01*
X68649Y-58106D01*
X68771Y-58107D01*
X68884Y-58060D01*
X68971Y-57974D01*
X69017Y-57861D01*
X69018Y-57739D01*
X69018Y-58397D01*
X69015Y-58399D01*
X68975Y-58497D01*
X68974Y-58602D01*
X69015Y-58699D01*
X69062Y-58747D01*
X69035Y-58813D01*
X69034Y-58900D01*
X69068Y-58981D01*
X69130Y-59043D01*
X69211Y-59076D01*
X69298Y-59077D01*
X69379Y-59043D01*
X69441Y-58981D01*
X69474Y-58900D01*
X69475Y-58813D01*
X69441Y-58732D01*
X69436Y-58727D01*
X69464Y-58700D01*
X69504Y-58602D01*
X69505Y-58497D01*
X69505Y-61139D01*
X69496Y-61140D01*
X69496Y-60513D01*
X69455Y-60416D01*
X69381Y-60341D01*
X69283Y-60301D01*
X69178Y-60300D01*
X69081Y-60341D01*
X69006Y-60415D01*
X68966Y-60513D01*
X68965Y-60618D01*
X69006Y-60715D01*
X69080Y-60790D01*
X69178Y-60830D01*
X69283Y-60831D01*
X69380Y-60790D01*
X69455Y-60716D01*
X69495Y-60618D01*
X69496Y-60513D01*
X69496Y-61140D01*
X69463Y-61142D01*
X69388Y-61173D01*
X69273Y-61134D01*
X69148Y-61142D01*
X69113Y-61157D01*
X69069Y-61175D01*
X69071Y-61222D01*
X69042Y-61194D01*
X69072Y-61164D01*
X69112Y-61066D01*
X69113Y-60961D01*
X69072Y-60864D01*
X68998Y-60789D01*
X68900Y-60749D01*
X68795Y-60748D01*
X68698Y-60789D01*
X68623Y-60863D01*
X68583Y-60961D01*
X68582Y-61066D01*
X68623Y-61163D01*
X68697Y-61238D01*
X68795Y-61278D01*
X68900Y-61279D01*
X68988Y-61242D01*
X68969Y-61261D01*
X69000Y-61293D01*
X68953Y-61291D01*
X68912Y-61410D01*
X68920Y-61535D01*
X68951Y-61610D01*
X68912Y-61725D01*
X68920Y-61850D01*
X68951Y-61925D01*
X68912Y-62040D01*
X68920Y-62165D01*
X68953Y-62244D01*
X69026Y-62241D01*
X69183Y-62084D01*
X69188Y-62086D01*
X69230Y-62083D01*
X69233Y-62131D01*
X69231Y-62128D01*
X69072Y-62287D01*
X69069Y-62360D01*
X69188Y-62401D01*
X69313Y-62393D01*
X69388Y-62362D01*
X69503Y-62401D01*
X69628Y-62393D01*
X69703Y-62362D01*
X69818Y-62401D01*
X69943Y-62393D01*
X70022Y-62360D01*
X70019Y-62287D01*
X69862Y-62130D01*
X69864Y-62125D01*
X69861Y-62083D01*
X69909Y-62080D01*
X69906Y-62083D01*
X70065Y-62241D01*
X70138Y-62244D01*
X70179Y-62125D01*
X70179Y-62559D01*
X70152Y-62571D01*
X70077Y-62645D01*
X70037Y-62743D01*
X70036Y-62848D01*
X70041Y-62860D01*
X69138Y-62860D01*
X69160Y-62804D01*
X69161Y-62699D01*
X69120Y-62602D01*
X69046Y-62527D01*
X68948Y-62487D01*
X68843Y-62486D01*
X68746Y-62527D01*
X68671Y-62601D01*
X68631Y-62699D01*
X68630Y-62804D01*
X68653Y-62860D01*
X68599Y-62860D01*
X68614Y-62822D01*
X68615Y-62717D01*
X68574Y-62620D01*
X68500Y-62545D01*
X68402Y-62505D01*
X68319Y-62504D01*
X68319Y-59952D01*
X68230Y-59738D01*
X68067Y-59575D01*
X67854Y-59487D01*
X67836Y-59487D01*
X67836Y-57739D01*
X67789Y-57626D01*
X67703Y-57539D01*
X67590Y-57493D01*
X67468Y-57492D01*
X67355Y-57539D01*
X67268Y-57625D01*
X67222Y-57738D01*
X67221Y-57860D01*
X67268Y-57973D01*
X67354Y-58060D01*
X67467Y-58106D01*
X67589Y-58107D01*
X67702Y-58060D01*
X67789Y-57974D01*
X67835Y-57861D01*
X67836Y-57739D01*
X67836Y-59487D01*
X67624Y-59486D01*
X67410Y-59575D01*
X67247Y-59738D01*
X67159Y-59951D01*
X67158Y-60181D01*
X67247Y-60395D01*
X67410Y-60558D01*
X67623Y-60646D01*
X67853Y-60647D01*
X68067Y-60558D01*
X68230Y-60395D01*
X68318Y-60182D01*
X68319Y-59952D01*
X68319Y-62504D01*
X68297Y-62504D01*
X68200Y-62545D01*
X68125Y-62619D01*
X68085Y-62717D01*
X68084Y-62822D01*
X68100Y-62860D01*
X67844Y-62860D01*
X67844Y-61934D01*
X67061Y-61934D01*
X67061Y-43439D01*
X68072Y-43439D01*
X68059Y-43451D01*
X68019Y-43549D01*
X68018Y-43654D01*
X68059Y-43751D01*
X68133Y-43826D01*
X68231Y-43866D01*
X68336Y-43867D01*
X68433Y-43826D01*
X68508Y-43752D01*
X68548Y-43654D01*
X68549Y-43549D01*
X68508Y-43452D01*
X68495Y-43439D01*
X70764Y-43439D01*
X70745Y-43487D01*
X70744Y-43592D01*
X70785Y-43689D01*
X70859Y-43764D01*
X70957Y-43804D01*
X71062Y-43805D01*
X71159Y-43764D01*
X71234Y-43690D01*
X71274Y-43592D01*
X71275Y-43487D01*
X71255Y-43439D01*
X72891Y-43439D01*
X72881Y-43465D01*
X72880Y-43570D01*
X72921Y-43667D01*
X72995Y-43742D01*
X73093Y-43782D01*
X73198Y-43783D01*
X73295Y-43742D01*
X73370Y-43668D01*
X73410Y-43570D01*
X73411Y-43465D01*
X73400Y-43439D01*
X78608Y-43439D01*
X78608Y-54994D01*
X78511Y-54954D01*
X78454Y-54953D01*
X78454Y-49383D01*
X78413Y-49286D01*
X78339Y-49211D01*
X78241Y-49171D01*
X78222Y-49171D01*
X78222Y-48838D01*
X78188Y-48757D01*
X78126Y-48695D01*
X78045Y-48662D01*
X77958Y-48661D01*
X77942Y-48668D01*
X77942Y-48274D01*
X77890Y-48146D01*
X77792Y-48049D01*
X77665Y-47996D01*
X77566Y-47996D01*
X77566Y-45840D01*
X77555Y-45813D01*
X77555Y-45097D01*
X77514Y-45000D01*
X77440Y-44925D01*
X77342Y-44885D01*
X77237Y-44884D01*
X77140Y-44925D01*
X77065Y-44999D01*
X77064Y-45003D01*
X77064Y-43804D01*
X77023Y-43707D01*
X76949Y-43632D01*
X76851Y-43592D01*
X76746Y-43591D01*
X76649Y-43632D01*
X76574Y-43706D01*
X76534Y-43804D01*
X76533Y-43909D01*
X76574Y-44006D01*
X76648Y-44081D01*
X76746Y-44121D01*
X76851Y-44122D01*
X76948Y-44081D01*
X77023Y-44007D01*
X77063Y-43909D01*
X77064Y-43804D01*
X77064Y-45003D01*
X77025Y-45097D01*
X77024Y-45202D01*
X77065Y-45299D01*
X77139Y-45374D01*
X77237Y-45414D01*
X77342Y-45415D01*
X77439Y-45374D01*
X77514Y-45300D01*
X77554Y-45202D01*
X77555Y-45097D01*
X77555Y-45813D01*
X77532Y-45759D01*
X77470Y-45697D01*
X77389Y-45664D01*
X77302Y-45663D01*
X77221Y-45697D01*
X77159Y-45759D01*
X77126Y-45840D01*
X77125Y-45927D01*
X77159Y-46008D01*
X77221Y-46070D01*
X77302Y-46103D01*
X77389Y-46104D01*
X77470Y-46070D01*
X77532Y-46008D01*
X77565Y-45927D01*
X77566Y-45840D01*
X77566Y-47996D01*
X77527Y-47996D01*
X77400Y-48048D01*
X77302Y-48146D01*
X77288Y-48181D01*
X77288Y-46878D01*
X77254Y-46797D01*
X77192Y-46735D01*
X77127Y-46708D01*
X77173Y-46689D01*
X77235Y-46627D01*
X77268Y-46546D01*
X77269Y-46459D01*
X77235Y-46378D01*
X77173Y-46316D01*
X77092Y-46283D01*
X77005Y-46282D01*
X76924Y-46316D01*
X76862Y-46378D01*
X76829Y-46459D01*
X76828Y-46546D01*
X76862Y-46627D01*
X76924Y-46689D01*
X76989Y-46716D01*
X76943Y-46735D01*
X76881Y-46797D01*
X76848Y-46878D01*
X76847Y-46965D01*
X76875Y-47033D01*
X76867Y-47030D01*
X76780Y-47029D01*
X76699Y-47063D01*
X76637Y-47125D01*
X76604Y-47206D01*
X76603Y-47293D01*
X76637Y-47374D01*
X76699Y-47436D01*
X76780Y-47469D01*
X76867Y-47470D01*
X76948Y-47436D01*
X77010Y-47374D01*
X77043Y-47293D01*
X77044Y-47206D01*
X77016Y-47138D01*
X77024Y-47141D01*
X77111Y-47142D01*
X77192Y-47108D01*
X77254Y-47046D01*
X77287Y-46965D01*
X77288Y-46878D01*
X77288Y-48181D01*
X77249Y-48273D01*
X77249Y-48411D01*
X77302Y-48538D01*
X77399Y-48636D01*
X77527Y-48689D01*
X77664Y-48689D01*
X77792Y-48636D01*
X77889Y-48539D01*
X77942Y-48411D01*
X77942Y-48274D01*
X77942Y-48668D01*
X77877Y-48695D01*
X77815Y-48757D01*
X77782Y-48838D01*
X77781Y-48925D01*
X77815Y-49006D01*
X77877Y-49068D01*
X77958Y-49101D01*
X78045Y-49102D01*
X78126Y-49068D01*
X78188Y-49006D01*
X78221Y-48925D01*
X78222Y-48838D01*
X78222Y-49171D01*
X78136Y-49170D01*
X78039Y-49211D01*
X77964Y-49285D01*
X77924Y-49383D01*
X77923Y-49488D01*
X77964Y-49585D01*
X78038Y-49660D01*
X78136Y-49700D01*
X78241Y-49701D01*
X78338Y-49660D01*
X78413Y-49586D01*
X78453Y-49488D01*
X78454Y-49383D01*
X78454Y-54953D01*
X78400Y-54953D01*
X78313Y-54990D01*
X78313Y-54196D01*
X78279Y-54115D01*
X78217Y-54053D01*
X78136Y-54020D01*
X78088Y-54019D01*
X78096Y-54012D01*
X78136Y-53914D01*
X78137Y-53809D01*
X78096Y-53712D01*
X78022Y-53637D01*
X77924Y-53597D01*
X77909Y-53597D01*
X77909Y-53273D01*
X77868Y-53176D01*
X77794Y-53101D01*
X77696Y-53061D01*
X77591Y-53060D01*
X77563Y-53072D01*
X77563Y-53021D01*
X77561Y-53017D01*
X77561Y-51931D01*
X77528Y-51851D01*
X77506Y-51828D01*
X77506Y-48966D01*
X77472Y-48885D01*
X77410Y-48823D01*
X77329Y-48790D01*
X77242Y-48789D01*
X77161Y-48823D01*
X77099Y-48885D01*
X77066Y-48966D01*
X77065Y-49053D01*
X77099Y-49134D01*
X77161Y-49196D01*
X77242Y-49229D01*
X77329Y-49230D01*
X77410Y-49196D01*
X77472Y-49134D01*
X77505Y-49053D01*
X77506Y-48966D01*
X77506Y-51828D01*
X77472Y-51794D01*
X77472Y-51330D01*
X77438Y-51249D01*
X77430Y-51240D01*
X77430Y-50398D01*
X77396Y-50317D01*
X77334Y-50255D01*
X77303Y-50242D01*
X77303Y-49891D01*
X77262Y-49794D01*
X77188Y-49719D01*
X77090Y-49679D01*
X77049Y-49679D01*
X77062Y-49646D01*
X77063Y-49541D01*
X77022Y-49444D01*
X76948Y-49369D01*
X76850Y-49329D01*
X76745Y-49328D01*
X76648Y-49369D01*
X76573Y-49443D01*
X76540Y-49524D01*
X76540Y-49481D01*
X76506Y-49401D01*
X76467Y-49361D01*
X76467Y-44043D01*
X76426Y-43946D01*
X76352Y-43871D01*
X76254Y-43831D01*
X76149Y-43830D01*
X76052Y-43871D01*
X75977Y-43945D01*
X75937Y-44043D01*
X75936Y-44148D01*
X75977Y-44245D01*
X76051Y-44320D01*
X76149Y-44360D01*
X76254Y-44361D01*
X76351Y-44320D01*
X76426Y-44246D01*
X76466Y-44148D01*
X76467Y-44043D01*
X76467Y-49361D01*
X76454Y-49348D01*
X76454Y-46286D01*
X76421Y-46206D01*
X76359Y-46144D01*
X76278Y-46110D01*
X76190Y-46110D01*
X76110Y-46143D01*
X76048Y-46205D01*
X76014Y-46286D01*
X76014Y-46374D01*
X76047Y-46454D01*
X76109Y-46516D01*
X76190Y-46550D01*
X76278Y-46550D01*
X76358Y-46517D01*
X76420Y-46455D01*
X76454Y-46374D01*
X76454Y-46286D01*
X76454Y-49348D01*
X76444Y-49339D01*
X76363Y-49305D01*
X76299Y-49305D01*
X76300Y-49184D01*
X76249Y-49063D01*
X76157Y-48970D01*
X76035Y-48920D01*
X75970Y-48919D01*
X75970Y-47366D01*
X75946Y-47308D01*
X75946Y-46172D01*
X75912Y-46092D01*
X75886Y-46065D01*
X75886Y-44129D01*
X75797Y-43915D01*
X75634Y-43752D01*
X75421Y-43664D01*
X75191Y-43663D01*
X74977Y-43752D01*
X74814Y-43915D01*
X74726Y-44128D01*
X74725Y-44358D01*
X74814Y-44572D01*
X74977Y-44735D01*
X75190Y-44823D01*
X75311Y-44824D01*
X75309Y-44825D01*
X75269Y-44923D01*
X75268Y-45028D01*
X75309Y-45125D01*
X75383Y-45200D01*
X75481Y-45240D01*
X75586Y-45241D01*
X75683Y-45200D01*
X75758Y-45126D01*
X75798Y-45028D01*
X75799Y-44923D01*
X75758Y-44826D01*
X75684Y-44751D01*
X75637Y-44732D01*
X75797Y-44572D01*
X75885Y-44359D01*
X75886Y-44129D01*
X75886Y-46065D01*
X75850Y-46030D01*
X75769Y-45996D01*
X75682Y-45996D01*
X75601Y-46029D01*
X75539Y-46091D01*
X75506Y-46172D01*
X75505Y-46260D01*
X75539Y-46340D01*
X75601Y-46402D01*
X75682Y-46436D01*
X75769Y-46436D01*
X75850Y-46403D01*
X75912Y-46341D01*
X75945Y-46260D01*
X75946Y-46172D01*
X75946Y-47308D01*
X75927Y-47263D01*
X75848Y-47184D01*
X75745Y-47142D01*
X75634Y-47141D01*
X75531Y-47184D01*
X75452Y-47263D01*
X75410Y-47366D01*
X75409Y-47477D01*
X75452Y-47580D01*
X75531Y-47659D01*
X75634Y-47701D01*
X75745Y-47702D01*
X75848Y-47659D01*
X75927Y-47580D01*
X75969Y-47477D01*
X75970Y-47366D01*
X75970Y-48919D01*
X75904Y-48919D01*
X75783Y-48970D01*
X75719Y-49033D01*
X75657Y-48970D01*
X75535Y-48920D01*
X75497Y-48920D01*
X75497Y-47845D01*
X75456Y-47748D01*
X75382Y-47673D01*
X75284Y-47633D01*
X75255Y-47633D01*
X75255Y-45235D01*
X75214Y-45138D01*
X75140Y-45063D01*
X75042Y-45023D01*
X74937Y-45022D01*
X74840Y-45063D01*
X74765Y-45137D01*
X74725Y-45235D01*
X74724Y-45340D01*
X74765Y-45437D01*
X74839Y-45512D01*
X74937Y-45552D01*
X75042Y-45553D01*
X75139Y-45512D01*
X75214Y-45438D01*
X75254Y-45340D01*
X75255Y-45235D01*
X75255Y-47633D01*
X75179Y-47632D01*
X75082Y-47673D01*
X75062Y-47693D01*
X75062Y-46890D01*
X75019Y-46787D01*
X74940Y-46708D01*
X74844Y-46668D01*
X74844Y-45720D01*
X74810Y-45639D01*
X74748Y-45577D01*
X74667Y-45544D01*
X74663Y-45544D01*
X74663Y-43795D01*
X74622Y-43698D01*
X74548Y-43623D01*
X74450Y-43583D01*
X74345Y-43582D01*
X74248Y-43623D01*
X74173Y-43697D01*
X74133Y-43795D01*
X74132Y-43900D01*
X74173Y-43997D01*
X74247Y-44072D01*
X74345Y-44112D01*
X74450Y-44113D01*
X74547Y-44072D01*
X74622Y-43998D01*
X74662Y-43900D01*
X74663Y-43795D01*
X74663Y-45544D01*
X74633Y-45544D01*
X74633Y-45247D01*
X74592Y-45150D01*
X74518Y-45075D01*
X74420Y-45035D01*
X74315Y-45034D01*
X74236Y-45067D01*
X74236Y-44632D01*
X74202Y-44551D01*
X74140Y-44489D01*
X74059Y-44456D01*
X73972Y-44455D01*
X73891Y-44489D01*
X73879Y-44501D01*
X73829Y-44451D01*
X73731Y-44411D01*
X73626Y-44410D01*
X73538Y-44447D01*
X73480Y-44389D01*
X73382Y-44349D01*
X73277Y-44348D01*
X73180Y-44389D01*
X73105Y-44463D01*
X73065Y-44561D01*
X73064Y-44666D01*
X73105Y-44763D01*
X73179Y-44838D01*
X73277Y-44878D01*
X73382Y-44879D01*
X73470Y-44842D01*
X73528Y-44900D01*
X73626Y-44940D01*
X73731Y-44941D01*
X73828Y-44900D01*
X73879Y-44850D01*
X73891Y-44862D01*
X73972Y-44895D01*
X74059Y-44896D01*
X74140Y-44862D01*
X74202Y-44800D01*
X74235Y-44719D01*
X74236Y-44632D01*
X74236Y-45067D01*
X74218Y-45075D01*
X74143Y-45149D01*
X74103Y-45247D01*
X74102Y-45352D01*
X74143Y-45449D01*
X74217Y-45524D01*
X74315Y-45564D01*
X74420Y-45565D01*
X74517Y-45524D01*
X74592Y-45450D01*
X74632Y-45352D01*
X74633Y-45247D01*
X74633Y-45544D01*
X74580Y-45543D01*
X74499Y-45577D01*
X74437Y-45639D01*
X74404Y-45720D01*
X74403Y-45807D01*
X74437Y-45888D01*
X74499Y-45950D01*
X74580Y-45983D01*
X74667Y-45984D01*
X74748Y-45950D01*
X74810Y-45888D01*
X74843Y-45807D01*
X74844Y-45720D01*
X74844Y-46668D01*
X74837Y-46666D01*
X74726Y-46665D01*
X74623Y-46708D01*
X74544Y-46787D01*
X74502Y-46890D01*
X74501Y-47001D01*
X74544Y-47104D01*
X74623Y-47183D01*
X74726Y-47225D01*
X74837Y-47226D01*
X74940Y-47183D01*
X75019Y-47104D01*
X75061Y-47001D01*
X75062Y-46890D01*
X75062Y-47693D01*
X75007Y-47747D01*
X74967Y-47845D01*
X74966Y-47950D01*
X75007Y-48047D01*
X75081Y-48122D01*
X75179Y-48162D01*
X75284Y-48163D01*
X75381Y-48122D01*
X75456Y-48048D01*
X75496Y-47950D01*
X75497Y-47845D01*
X75497Y-48920D01*
X75404Y-48919D01*
X75367Y-48935D01*
X75391Y-48910D01*
X75425Y-48829D01*
X75425Y-48742D01*
X75392Y-48661D01*
X75330Y-48599D01*
X75249Y-48566D01*
X75161Y-48565D01*
X75081Y-48599D01*
X75019Y-48661D01*
X74985Y-48742D01*
X74985Y-48829D01*
X75018Y-48910D01*
X75080Y-48972D01*
X75161Y-49005D01*
X75247Y-49006D01*
X75190Y-49062D01*
X75140Y-49184D01*
X75139Y-49315D01*
X75190Y-49436D01*
X75253Y-49500D01*
X75190Y-49562D01*
X75140Y-49684D01*
X75139Y-49815D01*
X75190Y-49936D01*
X75253Y-50000D01*
X75190Y-50062D01*
X75140Y-50184D01*
X75139Y-50315D01*
X75190Y-50436D01*
X75253Y-50500D01*
X75190Y-50562D01*
X75140Y-50684D01*
X75139Y-50815D01*
X75190Y-50936D01*
X75253Y-51000D01*
X75190Y-51062D01*
X75140Y-51184D01*
X75139Y-51315D01*
X75190Y-51436D01*
X75282Y-51529D01*
X75404Y-51579D01*
X75535Y-51580D01*
X75640Y-51536D01*
X75639Y-51575D01*
X75639Y-51975D01*
X75659Y-52023D01*
X75696Y-52060D01*
X75744Y-52079D01*
X75795Y-52080D01*
X76114Y-52080D01*
X76126Y-52109D01*
X76188Y-52171D01*
X76269Y-52204D01*
X76356Y-52205D01*
X76437Y-52171D01*
X76499Y-52109D01*
X76532Y-52028D01*
X76533Y-51941D01*
X76499Y-51860D01*
X76437Y-51798D01*
X76356Y-51765D01*
X76300Y-51764D01*
X76300Y-51524D01*
X76280Y-51476D01*
X76245Y-51441D01*
X76249Y-51437D01*
X76299Y-51315D01*
X76300Y-51184D01*
X76249Y-51063D01*
X76186Y-50999D01*
X76249Y-50937D01*
X76299Y-50815D01*
X76300Y-50684D01*
X76249Y-50563D01*
X76186Y-50499D01*
X76249Y-50437D01*
X76299Y-50315D01*
X76300Y-50184D01*
X76249Y-50063D01*
X76186Y-49999D01*
X76249Y-49937D01*
X76299Y-49815D01*
X76300Y-49745D01*
X76363Y-49745D01*
X76444Y-49712D01*
X76506Y-49650D01*
X76533Y-49586D01*
X76532Y-49646D01*
X76572Y-49743D01*
X76555Y-49736D01*
X76468Y-49735D01*
X76387Y-49769D01*
X76325Y-49831D01*
X76292Y-49912D01*
X76291Y-49999D01*
X76325Y-50080D01*
X76387Y-50142D01*
X76468Y-50175D01*
X76555Y-50176D01*
X76636Y-50142D01*
X76698Y-50080D01*
X76731Y-49999D01*
X76732Y-49912D01*
X76702Y-49841D01*
X76745Y-49858D01*
X76786Y-49858D01*
X76773Y-49891D01*
X76772Y-49996D01*
X76813Y-50093D01*
X76887Y-50168D01*
X76985Y-50208D01*
X77090Y-50209D01*
X77187Y-50168D01*
X77262Y-50094D01*
X77302Y-49996D01*
X77303Y-49891D01*
X77303Y-50242D01*
X77253Y-50222D01*
X77166Y-50221D01*
X77085Y-50255D01*
X77023Y-50317D01*
X76990Y-50398D01*
X76989Y-50485D01*
X77023Y-50566D01*
X77085Y-50628D01*
X77166Y-50661D01*
X77253Y-50662D01*
X77334Y-50628D01*
X77396Y-50566D01*
X77429Y-50485D01*
X77430Y-50398D01*
X77430Y-51240D01*
X77376Y-51187D01*
X77295Y-51154D01*
X77208Y-51153D01*
X77127Y-51187D01*
X77065Y-51249D01*
X77032Y-51330D01*
X77031Y-51417D01*
X77065Y-51498D01*
X77127Y-51560D01*
X77208Y-51593D01*
X77295Y-51594D01*
X77376Y-51560D01*
X77438Y-51498D01*
X77471Y-51417D01*
X77472Y-51330D01*
X77472Y-51794D01*
X77466Y-51789D01*
X77385Y-51755D01*
X77297Y-51755D01*
X77217Y-51788D01*
X77155Y-51850D01*
X77121Y-51931D01*
X77121Y-52019D01*
X77154Y-52099D01*
X77216Y-52161D01*
X77297Y-52195D01*
X77385Y-52195D01*
X77465Y-52162D01*
X77527Y-52100D01*
X77561Y-52019D01*
X77561Y-51931D01*
X77561Y-53017D01*
X77522Y-52924D01*
X77448Y-52849D01*
X77438Y-52845D01*
X77438Y-52439D01*
X77405Y-52359D01*
X77343Y-52297D01*
X77262Y-52263D01*
X77174Y-52263D01*
X77094Y-52296D01*
X77032Y-52358D01*
X76998Y-52439D01*
X76998Y-52527D01*
X77031Y-52607D01*
X77093Y-52669D01*
X77174Y-52703D01*
X77262Y-52703D01*
X77342Y-52670D01*
X77404Y-52608D01*
X77438Y-52527D01*
X77438Y-52439D01*
X77438Y-52845D01*
X77350Y-52809D01*
X77245Y-52808D01*
X77148Y-52849D01*
X77073Y-52923D01*
X77033Y-53021D01*
X77032Y-53126D01*
X77069Y-53214D01*
X77064Y-53213D01*
X76959Y-53212D01*
X76862Y-53253D01*
X76787Y-53327D01*
X76747Y-53425D01*
X76746Y-53530D01*
X76787Y-53627D01*
X76861Y-53702D01*
X76915Y-53724D01*
X76899Y-53765D01*
X76898Y-53870D01*
X76939Y-53967D01*
X77013Y-54042D01*
X77111Y-54082D01*
X77216Y-54083D01*
X77313Y-54042D01*
X77388Y-53968D01*
X77428Y-53870D01*
X77429Y-53765D01*
X77388Y-53668D01*
X77314Y-53593D01*
X77260Y-53571D01*
X77276Y-53530D01*
X77277Y-53425D01*
X77240Y-53337D01*
X77245Y-53338D01*
X77350Y-53339D01*
X77378Y-53327D01*
X77378Y-53378D01*
X77419Y-53475D01*
X77493Y-53550D01*
X77591Y-53590D01*
X77696Y-53591D01*
X77793Y-53550D01*
X77868Y-53476D01*
X77908Y-53378D01*
X77909Y-53273D01*
X77909Y-53597D01*
X77819Y-53596D01*
X77722Y-53637D01*
X77647Y-53711D01*
X77607Y-53809D01*
X77606Y-53914D01*
X77647Y-54011D01*
X77672Y-54037D01*
X77642Y-54110D01*
X77641Y-54154D01*
X77574Y-54127D01*
X77469Y-54126D01*
X77372Y-54167D01*
X77297Y-54241D01*
X77257Y-54339D01*
X77256Y-54444D01*
X77297Y-54541D01*
X77371Y-54616D01*
X77469Y-54656D01*
X77574Y-54657D01*
X77671Y-54616D01*
X77746Y-54542D01*
X77786Y-54444D01*
X77787Y-54361D01*
X77818Y-54373D01*
X77905Y-54374D01*
X77912Y-54371D01*
X77968Y-54426D01*
X78049Y-54459D01*
X78136Y-54460D01*
X78217Y-54426D01*
X78279Y-54364D01*
X78312Y-54283D01*
X78313Y-54196D01*
X78313Y-54990D01*
X78297Y-54996D01*
X78230Y-55063D01*
X78230Y-54800D01*
X78196Y-54719D01*
X78134Y-54657D01*
X78053Y-54624D01*
X77966Y-54623D01*
X77885Y-54657D01*
X77823Y-54719D01*
X77790Y-54800D01*
X77789Y-54887D01*
X77823Y-54968D01*
X77885Y-55030D01*
X77966Y-55063D01*
X78053Y-55064D01*
X78134Y-55030D01*
X78196Y-54968D01*
X78229Y-54887D01*
X78230Y-54800D01*
X78230Y-55063D01*
X78218Y-55075D01*
X78176Y-55178D01*
X78175Y-55289D01*
X78218Y-55392D01*
X78297Y-55471D01*
X78400Y-55513D01*
X78511Y-55514D01*
X78608Y-55474D01*
X78608Y-60377D01*
X78521Y-60290D01*
X78521Y-57558D01*
X78508Y-57375D01*
X78462Y-57264D01*
X78376Y-57248D01*
X78376Y-57248D01*
X78376Y-57247D01*
X78462Y-57231D01*
X78521Y-57058D01*
X78521Y-56058D01*
X78508Y-55875D01*
X78462Y-55764D01*
X78376Y-55748D01*
X78305Y-55818D01*
X78305Y-55677D01*
X78289Y-55591D01*
X78116Y-55532D01*
X77933Y-55545D01*
X77822Y-55591D01*
X77806Y-55677D01*
X78056Y-55927D01*
X78305Y-55677D01*
X78305Y-55818D01*
X78126Y-55998D01*
X78376Y-56247D01*
X78462Y-56231D01*
X78521Y-56058D01*
X78521Y-57058D01*
X78508Y-56875D01*
X78462Y-56764D01*
X78376Y-56748D01*
X78126Y-56998D01*
X78132Y-57003D01*
X78102Y-57033D01*
X78015Y-57039D01*
X77979Y-57003D01*
X77985Y-56998D01*
X77979Y-56992D01*
X78050Y-56921D01*
X78056Y-56927D01*
X78160Y-56822D01*
X78248Y-56786D01*
X78344Y-56690D01*
X78395Y-56565D01*
X78396Y-56430D01*
X78344Y-56305D01*
X78248Y-56209D01*
X78160Y-56173D01*
X78056Y-56068D01*
X78050Y-56074D01*
X77979Y-56003D01*
X77985Y-55998D01*
X77880Y-55893D01*
X77844Y-55805D01*
X77748Y-55709D01*
X77623Y-55658D01*
X77488Y-55657D01*
X77363Y-55709D01*
X77309Y-55764D01*
X77309Y-54737D01*
X77268Y-54640D01*
X77194Y-54565D01*
X77096Y-54525D01*
X76991Y-54524D01*
X76894Y-54565D01*
X76819Y-54639D01*
X76779Y-54737D01*
X76778Y-54842D01*
X76819Y-54939D01*
X76893Y-55014D01*
X76991Y-55054D01*
X77096Y-55055D01*
X77193Y-55014D01*
X77268Y-54940D01*
X77308Y-54842D01*
X77309Y-54737D01*
X77309Y-55764D01*
X77267Y-55805D01*
X77216Y-55930D01*
X77215Y-56065D01*
X77267Y-56190D01*
X77325Y-56248D01*
X77267Y-56305D01*
X77216Y-56430D01*
X77215Y-56565D01*
X77267Y-56690D01*
X77325Y-56748D01*
X77267Y-56805D01*
X77216Y-56930D01*
X77215Y-57065D01*
X77267Y-57190D01*
X77325Y-57248D01*
X77267Y-57305D01*
X77216Y-57430D01*
X77215Y-57565D01*
X77267Y-57690D01*
X77325Y-57748D01*
X77267Y-57805D01*
X77216Y-57930D01*
X77215Y-58065D01*
X77267Y-58190D01*
X77305Y-58228D01*
X77240Y-58255D01*
X77165Y-58329D01*
X77137Y-58396D01*
X77100Y-58381D01*
X77024Y-58380D01*
X76994Y-58308D01*
X76920Y-58233D01*
X76882Y-58217D01*
X76882Y-57340D01*
X76848Y-57259D01*
X76807Y-57218D01*
X76820Y-57186D01*
X76820Y-57098D01*
X76787Y-57018D01*
X76725Y-56956D01*
X76644Y-56922D01*
X76556Y-56922D01*
X76476Y-56955D01*
X76414Y-57017D01*
X76380Y-57098D01*
X76380Y-57141D01*
X76303Y-57173D01*
X76256Y-57220D01*
X76256Y-56379D01*
X76222Y-56298D01*
X76160Y-56236D01*
X76079Y-56203D01*
X75992Y-56202D01*
X75941Y-56224D01*
X75941Y-53929D01*
X75900Y-53832D01*
X75826Y-53757D01*
X75774Y-53735D01*
X75774Y-53734D01*
X75775Y-53629D01*
X75734Y-53532D01*
X75660Y-53457D01*
X75562Y-53417D01*
X75457Y-53416D01*
X75360Y-53457D01*
X75285Y-53531D01*
X75275Y-53555D01*
X75230Y-53537D01*
X75125Y-53536D01*
X75028Y-53577D01*
X74953Y-53651D01*
X74913Y-53749D01*
X74912Y-53854D01*
X74953Y-53951D01*
X75027Y-54026D01*
X75125Y-54066D01*
X75230Y-54067D01*
X75327Y-54026D01*
X75402Y-53952D01*
X75411Y-53931D01*
X75410Y-54034D01*
X75451Y-54131D01*
X75525Y-54206D01*
X75623Y-54246D01*
X75728Y-54247D01*
X75825Y-54206D01*
X75900Y-54132D01*
X75940Y-54034D01*
X75941Y-53929D01*
X75941Y-56224D01*
X75911Y-56236D01*
X75849Y-56298D01*
X75816Y-56379D01*
X75815Y-56466D01*
X75849Y-56547D01*
X75911Y-56609D01*
X75989Y-56642D01*
X75932Y-56641D01*
X75851Y-56675D01*
X75789Y-56737D01*
X75756Y-56818D01*
X75755Y-56905D01*
X75789Y-56986D01*
X75851Y-57048D01*
X75932Y-57081D01*
X76019Y-57082D01*
X76100Y-57048D01*
X76162Y-56986D01*
X76195Y-56905D01*
X76196Y-56818D01*
X76162Y-56737D01*
X76100Y-56675D01*
X76022Y-56642D01*
X76079Y-56643D01*
X76160Y-56609D01*
X76222Y-56547D01*
X76255Y-56466D01*
X76256Y-56379D01*
X76256Y-57220D01*
X76241Y-57235D01*
X76208Y-57316D01*
X76207Y-57403D01*
X76241Y-57484D01*
X76303Y-57546D01*
X76384Y-57579D01*
X76471Y-57580D01*
X76524Y-57558D01*
X76537Y-57570D01*
X76618Y-57603D01*
X76705Y-57604D01*
X76786Y-57570D01*
X76848Y-57508D01*
X76881Y-57427D01*
X76882Y-57340D01*
X76882Y-58217D01*
X76822Y-58193D01*
X76717Y-58192D01*
X76620Y-58233D01*
X76620Y-58233D01*
X76557Y-58170D01*
X76459Y-58130D01*
X76354Y-58129D01*
X76257Y-58170D01*
X76205Y-58222D01*
X76127Y-58190D01*
X76022Y-58189D01*
X75963Y-58214D01*
X75944Y-58169D01*
X75899Y-58124D01*
X75971Y-58153D01*
X76058Y-58154D01*
X76139Y-58120D01*
X76201Y-58058D01*
X76234Y-57977D01*
X76235Y-57890D01*
X76201Y-57809D01*
X76139Y-57747D01*
X76058Y-57714D01*
X75971Y-57713D01*
X75890Y-57747D01*
X75828Y-57809D01*
X75795Y-57890D01*
X75794Y-57977D01*
X75828Y-58058D01*
X75873Y-58103D01*
X75801Y-58074D01*
X75714Y-58073D01*
X75633Y-58107D01*
X75571Y-58169D01*
X75538Y-58250D01*
X75537Y-58337D01*
X75571Y-58418D01*
X75633Y-58480D01*
X75714Y-58513D01*
X75801Y-58514D01*
X75811Y-58510D01*
X75850Y-58604D01*
X75924Y-58679D01*
X76022Y-58719D01*
X76127Y-58720D01*
X76224Y-58679D01*
X76276Y-58627D01*
X76354Y-58659D01*
X76459Y-58660D01*
X76556Y-58619D01*
X76556Y-58619D01*
X76619Y-58682D01*
X76661Y-58699D01*
X76602Y-58724D01*
X76527Y-58798D01*
X76487Y-58896D01*
X76486Y-59001D01*
X76527Y-59098D01*
X76601Y-59173D01*
X76699Y-59213D01*
X76804Y-59214D01*
X76901Y-59173D01*
X76976Y-59099D01*
X77016Y-59001D01*
X77017Y-58910D01*
X77100Y-58911D01*
X77197Y-58870D01*
X77272Y-58796D01*
X77300Y-58729D01*
X77337Y-58744D01*
X77442Y-58745D01*
X77539Y-58704D01*
X77614Y-58630D01*
X77654Y-58532D01*
X77655Y-58427D01*
X77618Y-58338D01*
X77623Y-58338D01*
X77742Y-58288D01*
X77772Y-58318D01*
X77820Y-58337D01*
X77871Y-58338D01*
X78291Y-58338D01*
X78339Y-58318D01*
X78376Y-58281D01*
X78395Y-58233D01*
X78396Y-58182D01*
X78396Y-57819D01*
X78422Y-57793D01*
X78396Y-57767D01*
X78396Y-57762D01*
X78389Y-57745D01*
X78462Y-57731D01*
X78521Y-57558D01*
X78521Y-60290D01*
X78457Y-60227D01*
X78421Y-60211D01*
X78421Y-59643D01*
X78380Y-59546D01*
X78306Y-59471D01*
X78295Y-59467D01*
X78313Y-59423D01*
X78314Y-59312D01*
X78271Y-59209D01*
X78192Y-59130D01*
X78089Y-59088D01*
X77978Y-59087D01*
X77875Y-59130D01*
X77796Y-59209D01*
X77754Y-59312D01*
X77753Y-59409D01*
X77741Y-59404D01*
X77722Y-59404D01*
X77723Y-59325D01*
X77682Y-59228D01*
X77608Y-59153D01*
X77510Y-59113D01*
X77405Y-59112D01*
X77308Y-59153D01*
X77233Y-59227D01*
X77193Y-59325D01*
X77192Y-59430D01*
X77233Y-59527D01*
X77307Y-59602D01*
X77405Y-59642D01*
X77406Y-59642D01*
X77405Y-59739D01*
X77448Y-59842D01*
X77527Y-59921D01*
X77630Y-59963D01*
X77741Y-59964D01*
X77844Y-59921D01*
X77923Y-59842D01*
X77926Y-59834D01*
X77931Y-59845D01*
X78005Y-59920D01*
X78103Y-59960D01*
X78208Y-59961D01*
X78305Y-59920D01*
X78380Y-59846D01*
X78420Y-59748D01*
X78421Y-59643D01*
X78421Y-60211D01*
X78244Y-60138D01*
X78014Y-60138D01*
X77800Y-60226D01*
X77637Y-60389D01*
X77549Y-60602D01*
X77548Y-60833D01*
X77637Y-61046D01*
X77717Y-61127D01*
X77681Y-61142D01*
X77602Y-61221D01*
X77560Y-61324D01*
X77559Y-61435D01*
X77602Y-61538D01*
X77681Y-61617D01*
X77784Y-61659D01*
X77895Y-61660D01*
X77998Y-61617D01*
X78077Y-61538D01*
X78119Y-61435D01*
X78120Y-61324D01*
X78109Y-61298D01*
X78243Y-61298D01*
X78457Y-61210D01*
X78608Y-61059D01*
X78608Y-62860D01*
X78608Y-62860D01*
G37*
G54D27*
X78608Y-62860D02*
X78147Y-62860D01*
X78167Y-62811D01*
X78168Y-62724D01*
X78134Y-62643D01*
X78072Y-62581D01*
X77991Y-62548D01*
X77904Y-62547D01*
X77823Y-62581D01*
X77761Y-62643D01*
X77728Y-62724D01*
X77727Y-62811D01*
X77748Y-62860D01*
X77548Y-62860D01*
X77548Y-61146D01*
X77507Y-61049D01*
X77433Y-60974D01*
X77335Y-60934D01*
X77230Y-60933D01*
X77133Y-60974D01*
X77058Y-61048D01*
X77056Y-61054D01*
X77056Y-60702D01*
X77015Y-60605D01*
X76971Y-60560D01*
X77009Y-60435D01*
X76995Y-60289D01*
X76973Y-60236D01*
X77009Y-60120D01*
X76995Y-59974D01*
X76966Y-59904D01*
X76889Y-59899D01*
X76743Y-60045D01*
X76683Y-60026D01*
X76700Y-60010D01*
X76668Y-59979D01*
X76819Y-59828D01*
X76814Y-59752D01*
X76674Y-59709D01*
X76528Y-59722D01*
X76458Y-59752D01*
X76453Y-59828D01*
X76514Y-59890D01*
X76438Y-59866D01*
X76295Y-59880D01*
X76346Y-59828D01*
X76341Y-59752D01*
X76201Y-59709D01*
X76056Y-59722D01*
X75985Y-59752D01*
X75984Y-59766D01*
X75906Y-59688D01*
X75803Y-59646D01*
X75692Y-59645D01*
X75589Y-59688D01*
X75510Y-59767D01*
X75468Y-59870D01*
X75467Y-59981D01*
X75510Y-60084D01*
X75589Y-60163D01*
X75692Y-60205D01*
X75803Y-60206D01*
X75809Y-60203D01*
X75826Y-60243D01*
X75790Y-60359D01*
X75804Y-60505D01*
X75833Y-60575D01*
X75910Y-60580D01*
X76056Y-60434D01*
X76116Y-60453D01*
X76099Y-60469D01*
X76131Y-60500D01*
X75980Y-60651D01*
X75985Y-60727D01*
X76125Y-60770D01*
X76271Y-60757D01*
X76341Y-60727D01*
X76346Y-60651D01*
X76285Y-60589D01*
X76361Y-60613D01*
X76504Y-60599D01*
X76453Y-60651D01*
X76458Y-60727D01*
X76526Y-60748D01*
X76525Y-60807D01*
X76566Y-60904D01*
X76640Y-60979D01*
X76738Y-61019D01*
X76843Y-61020D01*
X76940Y-60979D01*
X77015Y-60905D01*
X77055Y-60807D01*
X77056Y-60702D01*
X77056Y-61054D01*
X77018Y-61146D01*
X77017Y-61251D01*
X77058Y-61348D01*
X77132Y-61423D01*
X77230Y-61463D01*
X77335Y-61464D01*
X77432Y-61423D01*
X77507Y-61349D01*
X77547Y-61251D01*
X77548Y-61146D01*
X77548Y-62860D01*
X76723Y-62860D01*
X76723Y-61681D01*
X76682Y-61584D01*
X76608Y-61509D01*
X76510Y-61469D01*
X76464Y-61469D01*
X76464Y-61456D01*
X76423Y-61359D01*
X76349Y-61284D01*
X76251Y-61244D01*
X76146Y-61243D01*
X76049Y-61284D01*
X75974Y-61358D01*
X75934Y-61456D01*
X75933Y-61561D01*
X75974Y-61658D01*
X76048Y-61733D01*
X76146Y-61773D01*
X76192Y-61773D01*
X76192Y-61786D01*
X76233Y-61883D01*
X76307Y-61958D01*
X76405Y-61998D01*
X76510Y-61999D01*
X76607Y-61958D01*
X76682Y-61884D01*
X76722Y-61786D01*
X76723Y-61681D01*
X76723Y-62860D01*
X76073Y-62860D01*
X76073Y-62694D01*
X76073Y-62294D01*
X76053Y-62246D01*
X76016Y-62209D01*
X75968Y-62190D01*
X75917Y-62189D01*
X75517Y-62189D01*
X75469Y-62209D01*
X75432Y-62246D01*
X75413Y-62294D01*
X75412Y-62345D01*
X75412Y-62745D01*
X75432Y-62793D01*
X75469Y-62830D01*
X75517Y-62849D01*
X75568Y-62850D01*
X75968Y-62850D01*
X76016Y-62830D01*
X76053Y-62793D01*
X76072Y-62745D01*
X76073Y-62694D01*
X76073Y-62860D01*
X75338Y-62860D01*
X75338Y-60103D01*
X75305Y-60022D01*
X75271Y-59988D01*
X75271Y-59197D01*
X75230Y-59100D01*
X75156Y-59025D01*
X75058Y-58985D01*
X74990Y-58984D01*
X74990Y-56108D01*
X74956Y-56027D01*
X74894Y-55965D01*
X74813Y-55932D01*
X74726Y-55931D01*
X74645Y-55965D01*
X74636Y-55974D01*
X74636Y-55490D01*
X74602Y-55409D01*
X74540Y-55347D01*
X74459Y-55314D01*
X74372Y-55313D01*
X74291Y-55347D01*
X74240Y-55398D01*
X74240Y-50956D01*
X74197Y-50853D01*
X74118Y-50774D01*
X74017Y-50732D01*
X74017Y-50303D01*
X73976Y-50206D01*
X73902Y-50131D01*
X73865Y-50116D01*
X73865Y-46861D01*
X73859Y-46845D01*
X73859Y-46181D01*
X73818Y-46084D01*
X73744Y-46009D01*
X73646Y-45969D01*
X73541Y-45968D01*
X73444Y-46009D01*
X73369Y-46083D01*
X73329Y-46181D01*
X73328Y-46286D01*
X73369Y-46383D01*
X73443Y-46458D01*
X73541Y-46498D01*
X73646Y-46499D01*
X73743Y-46458D01*
X73818Y-46384D01*
X73858Y-46286D01*
X73859Y-46181D01*
X73859Y-46845D01*
X73832Y-46780D01*
X73770Y-46718D01*
X73689Y-46685D01*
X73601Y-46684D01*
X73521Y-46718D01*
X73459Y-46780D01*
X73425Y-46861D01*
X73425Y-46948D01*
X73458Y-47029D01*
X73520Y-47091D01*
X73601Y-47124D01*
X73689Y-47125D01*
X73769Y-47091D01*
X73831Y-47029D01*
X73865Y-46948D01*
X73865Y-46861D01*
X73865Y-50116D01*
X73834Y-50103D01*
X73834Y-47686D01*
X73800Y-47605D01*
X73759Y-47564D01*
X73774Y-47548D01*
X73807Y-47467D01*
X73808Y-47380D01*
X73774Y-47299D01*
X73712Y-47237D01*
X73631Y-47204D01*
X73544Y-47203D01*
X73463Y-47237D01*
X73401Y-47299D01*
X73368Y-47380D01*
X73367Y-47467D01*
X73401Y-47548D01*
X73442Y-47589D01*
X73427Y-47605D01*
X73394Y-47686D01*
X73393Y-47773D01*
X73427Y-47854D01*
X73489Y-47916D01*
X73570Y-47949D01*
X73657Y-47950D01*
X73738Y-47916D01*
X73800Y-47854D01*
X73833Y-47773D01*
X73834Y-47686D01*
X73834Y-50103D01*
X73804Y-50091D01*
X73699Y-50090D01*
X73653Y-50110D01*
X73616Y-50073D01*
X73535Y-50040D01*
X73448Y-50039D01*
X73367Y-50073D01*
X73305Y-50135D01*
X73291Y-50170D01*
X73291Y-49420D01*
X73257Y-49339D01*
X73229Y-49310D01*
X73229Y-48573D01*
X73188Y-48476D01*
X73114Y-48401D01*
X73016Y-48361D01*
X72911Y-48360D01*
X72873Y-48376D01*
X72873Y-44715D01*
X72832Y-44618D01*
X72758Y-44543D01*
X72660Y-44503D01*
X72555Y-44502D01*
X72458Y-44543D01*
X72384Y-44616D01*
X72385Y-44557D01*
X72344Y-44460D01*
X72270Y-44385D01*
X72172Y-44345D01*
X72067Y-44344D01*
X71970Y-44385D01*
X71895Y-44459D01*
X71855Y-44557D01*
X71854Y-44662D01*
X71895Y-44759D01*
X71969Y-44834D01*
X72067Y-44874D01*
X72172Y-44875D01*
X72269Y-44834D01*
X72343Y-44761D01*
X72342Y-44820D01*
X72383Y-44917D01*
X72457Y-44992D01*
X72555Y-45032D01*
X72660Y-45033D01*
X72757Y-44992D01*
X72832Y-44918D01*
X72872Y-44820D01*
X72873Y-44715D01*
X72873Y-48376D01*
X72826Y-48396D01*
X72826Y-47297D01*
X72792Y-47217D01*
X72730Y-47155D01*
X72649Y-47121D01*
X72562Y-47121D01*
X72532Y-47134D01*
X72532Y-46378D01*
X72498Y-46297D01*
X72452Y-46250D01*
X72452Y-45902D01*
X72418Y-45821D01*
X72356Y-45759D01*
X72275Y-45726D01*
X72188Y-45725D01*
X72107Y-45759D01*
X72045Y-45821D01*
X72012Y-45902D01*
X72011Y-45989D01*
X72045Y-46070D01*
X72107Y-46132D01*
X72188Y-46165D01*
X72275Y-46166D01*
X72356Y-46132D01*
X72418Y-46070D01*
X72451Y-45989D01*
X72452Y-45902D01*
X72452Y-46250D01*
X72436Y-46235D01*
X72355Y-46202D01*
X72268Y-46201D01*
X72187Y-46235D01*
X72125Y-46297D01*
X72092Y-46378D01*
X72091Y-46465D01*
X72125Y-46546D01*
X72187Y-46608D01*
X72268Y-46641D01*
X72355Y-46642D01*
X72436Y-46608D01*
X72498Y-46546D01*
X72531Y-46465D01*
X72532Y-46378D01*
X72532Y-47134D01*
X72481Y-47154D01*
X72419Y-47216D01*
X72386Y-47297D01*
X72385Y-47385D01*
X72419Y-47465D01*
X72481Y-47527D01*
X72562Y-47561D01*
X72649Y-47561D01*
X72730Y-47528D01*
X72792Y-47466D01*
X72825Y-47385D01*
X72826Y-47297D01*
X72826Y-48396D01*
X72814Y-48401D01*
X72739Y-48475D01*
X72699Y-48573D01*
X72698Y-48678D01*
X72739Y-48775D01*
X72813Y-48850D01*
X72911Y-48890D01*
X73016Y-48891D01*
X73113Y-48850D01*
X73188Y-48776D01*
X73228Y-48678D01*
X73229Y-48573D01*
X73229Y-49310D01*
X73195Y-49277D01*
X73114Y-49244D01*
X73027Y-49243D01*
X72946Y-49277D01*
X72884Y-49339D01*
X72851Y-49420D01*
X72850Y-49507D01*
X72884Y-49588D01*
X72946Y-49650D01*
X73027Y-49683D01*
X73114Y-49684D01*
X73195Y-49650D01*
X73257Y-49588D01*
X73290Y-49507D01*
X73291Y-49420D01*
X73291Y-50170D01*
X73272Y-50216D01*
X73271Y-50303D01*
X73305Y-50384D01*
X73367Y-50446D01*
X73448Y-50479D01*
X73516Y-50480D01*
X73527Y-50505D01*
X73601Y-50580D01*
X73699Y-50620D01*
X73804Y-50621D01*
X73901Y-50580D01*
X73976Y-50506D01*
X74016Y-50408D01*
X74017Y-50303D01*
X74017Y-50732D01*
X74015Y-50732D01*
X73904Y-50731D01*
X73801Y-50774D01*
X73722Y-50853D01*
X73680Y-50956D01*
X73679Y-51067D01*
X73722Y-51170D01*
X73801Y-51249D01*
X73904Y-51291D01*
X74015Y-51292D01*
X74118Y-51249D01*
X74197Y-51170D01*
X74239Y-51067D01*
X74240Y-50956D01*
X74240Y-55398D01*
X74229Y-55409D01*
X74196Y-55490D01*
X74195Y-55577D01*
X74229Y-55658D01*
X74291Y-55720D01*
X74372Y-55753D01*
X74459Y-55754D01*
X74540Y-55720D01*
X74602Y-55658D01*
X74635Y-55577D01*
X74636Y-55490D01*
X74636Y-55974D01*
X74583Y-56027D01*
X74550Y-56108D01*
X74549Y-56195D01*
X74583Y-56276D01*
X74645Y-56338D01*
X74726Y-56371D01*
X74813Y-56372D01*
X74894Y-56338D01*
X74956Y-56276D01*
X74989Y-56195D01*
X74990Y-56108D01*
X74990Y-58984D01*
X74953Y-58984D01*
X74886Y-59012D01*
X74886Y-57048D01*
X74852Y-56967D01*
X74790Y-56905D01*
X74709Y-56872D01*
X74622Y-56871D01*
X74541Y-56905D01*
X74479Y-56967D01*
X74446Y-57048D01*
X74445Y-57135D01*
X74479Y-57216D01*
X74541Y-57278D01*
X74622Y-57311D01*
X74709Y-57312D01*
X74790Y-57278D01*
X74852Y-57216D01*
X74885Y-57135D01*
X74886Y-57048D01*
X74886Y-59012D01*
X74856Y-59025D01*
X74781Y-59099D01*
X74741Y-59197D01*
X74740Y-59302D01*
X74781Y-59399D01*
X74855Y-59474D01*
X74953Y-59514D01*
X75058Y-59515D01*
X75155Y-59474D01*
X75230Y-59400D01*
X75270Y-59302D01*
X75271Y-59197D01*
X75271Y-59988D01*
X75243Y-59960D01*
X75162Y-59927D01*
X75074Y-59926D01*
X74994Y-59960D01*
X74932Y-60022D01*
X74898Y-60103D01*
X74898Y-60190D01*
X74931Y-60271D01*
X74993Y-60333D01*
X75074Y-60366D01*
X75162Y-60367D01*
X75242Y-60333D01*
X75304Y-60271D01*
X75338Y-60190D01*
X75338Y-60103D01*
X75338Y-62860D01*
X74915Y-62860D01*
X74915Y-60431D01*
X74874Y-60334D01*
X74800Y-60259D01*
X74738Y-60233D01*
X74738Y-59690D01*
X74695Y-59587D01*
X74616Y-59508D01*
X74513Y-59466D01*
X74402Y-59465D01*
X74343Y-59490D01*
X74340Y-59483D01*
X74310Y-59452D01*
X74344Y-59418D01*
X74378Y-59337D01*
X74378Y-59249D01*
X74345Y-59169D01*
X74283Y-59107D01*
X74202Y-59073D01*
X74145Y-59073D01*
X74145Y-51702D01*
X74104Y-51605D01*
X74030Y-51530D01*
X73932Y-51490D01*
X73827Y-51489D01*
X73730Y-51530D01*
X73655Y-51604D01*
X73615Y-51702D01*
X73614Y-51807D01*
X73655Y-51904D01*
X73729Y-51979D01*
X73827Y-52019D01*
X73932Y-52020D01*
X74029Y-51979D01*
X74104Y-51905D01*
X74144Y-51807D01*
X74145Y-51702D01*
X74145Y-59073D01*
X74114Y-59073D01*
X74041Y-59103D01*
X74041Y-57044D01*
X74007Y-56963D01*
X73968Y-56923D01*
X73968Y-55528D01*
X73934Y-55447D01*
X73880Y-55392D01*
X73880Y-54330D01*
X73846Y-54249D01*
X73784Y-54187D01*
X73703Y-54154D01*
X73616Y-54153D01*
X73535Y-54187D01*
X73473Y-54249D01*
X73440Y-54330D01*
X73439Y-54417D01*
X73473Y-54498D01*
X73535Y-54560D01*
X73616Y-54593D01*
X73703Y-54594D01*
X73784Y-54560D01*
X73846Y-54498D01*
X73879Y-54417D01*
X73880Y-54330D01*
X73880Y-55392D01*
X73872Y-55385D01*
X73791Y-55352D01*
X73704Y-55351D01*
X73623Y-55385D01*
X73562Y-55446D01*
X73550Y-55418D01*
X73488Y-55356D01*
X73407Y-55323D01*
X73320Y-55322D01*
X73294Y-55333D01*
X73294Y-52165D01*
X73260Y-52084D01*
X73198Y-52022D01*
X73117Y-51989D01*
X73030Y-51988D01*
X72949Y-52022D01*
X72887Y-52084D01*
X72854Y-52165D01*
X72853Y-52252D01*
X72859Y-52264D01*
X72856Y-52264D01*
X72777Y-52263D01*
X72777Y-49244D01*
X72743Y-49163D01*
X72681Y-49101D01*
X72600Y-49068D01*
X72513Y-49067D01*
X72507Y-49070D01*
X72507Y-48029D01*
X72473Y-47948D01*
X72411Y-47886D01*
X72350Y-47861D01*
X72350Y-46969D01*
X72317Y-46888D01*
X72255Y-46826D01*
X72174Y-46793D01*
X72086Y-46792D01*
X72006Y-46826D01*
X71965Y-46867D01*
X71965Y-45124D01*
X71931Y-45043D01*
X71869Y-44981D01*
X71830Y-44965D01*
X71830Y-44669D01*
X71796Y-44589D01*
X71734Y-44527D01*
X71653Y-44493D01*
X71566Y-44493D01*
X71485Y-44526D01*
X71423Y-44588D01*
X71390Y-44669D01*
X71389Y-44757D01*
X71423Y-44837D01*
X71485Y-44899D01*
X71566Y-44933D01*
X71653Y-44933D01*
X71734Y-44900D01*
X71796Y-44838D01*
X71829Y-44757D01*
X71830Y-44669D01*
X71830Y-44965D01*
X71788Y-44948D01*
X71701Y-44947D01*
X71620Y-44981D01*
X71558Y-45043D01*
X71525Y-45124D01*
X71524Y-45211D01*
X71558Y-45292D01*
X71620Y-45354D01*
X71701Y-45387D01*
X71788Y-45388D01*
X71869Y-45354D01*
X71931Y-45292D01*
X71964Y-45211D01*
X71965Y-45124D01*
X71965Y-46867D01*
X71944Y-46888D01*
X71910Y-46969D01*
X71910Y-47056D01*
X71943Y-47137D01*
X72005Y-47199D01*
X72086Y-47232D01*
X72174Y-47233D01*
X72254Y-47199D01*
X72316Y-47137D01*
X72350Y-47056D01*
X72350Y-46969D01*
X72350Y-47861D01*
X72330Y-47853D01*
X72243Y-47852D01*
X72162Y-47886D01*
X72100Y-47948D01*
X72067Y-48029D01*
X72066Y-48116D01*
X72100Y-48197D01*
X72103Y-48200D01*
X72070Y-48232D01*
X72037Y-48313D01*
X72036Y-48401D01*
X72070Y-48481D01*
X72132Y-48543D01*
X72213Y-48577D01*
X72300Y-48577D01*
X72381Y-48544D01*
X72443Y-48482D01*
X72476Y-48401D01*
X72477Y-48313D01*
X72443Y-48233D01*
X72440Y-48230D01*
X72473Y-48197D01*
X72506Y-48116D01*
X72507Y-48029D01*
X72507Y-49070D01*
X72432Y-49101D01*
X72370Y-49163D01*
X72337Y-49244D01*
X72336Y-49331D01*
X72370Y-49412D01*
X72432Y-49474D01*
X72513Y-49507D01*
X72600Y-49508D01*
X72681Y-49474D01*
X72743Y-49412D01*
X72776Y-49331D01*
X72777Y-49244D01*
X72777Y-52263D01*
X72769Y-52263D01*
X72688Y-52297D01*
X72626Y-52359D01*
X72593Y-52440D01*
X72592Y-52527D01*
X72626Y-52608D01*
X72688Y-52670D01*
X72769Y-52703D01*
X72856Y-52704D01*
X72937Y-52670D01*
X72999Y-52608D01*
X73032Y-52527D01*
X73033Y-52440D01*
X73027Y-52428D01*
X73030Y-52428D01*
X73117Y-52429D01*
X73198Y-52395D01*
X73260Y-52333D01*
X73293Y-52252D01*
X73294Y-52165D01*
X73294Y-55333D01*
X73241Y-55355D01*
X73241Y-53093D01*
X73200Y-52996D01*
X73126Y-52921D01*
X73028Y-52881D01*
X72923Y-52880D01*
X72826Y-52921D01*
X72751Y-52995D01*
X72711Y-53093D01*
X72710Y-53198D01*
X72751Y-53295D01*
X72825Y-53370D01*
X72923Y-53410D01*
X73028Y-53411D01*
X73125Y-53370D01*
X73200Y-53296D01*
X73240Y-53198D01*
X73241Y-53093D01*
X73241Y-55355D01*
X73239Y-55356D01*
X73177Y-55418D01*
X73144Y-55499D01*
X73143Y-55586D01*
X73177Y-55667D01*
X73239Y-55729D01*
X73320Y-55762D01*
X73407Y-55763D01*
X73488Y-55729D01*
X73549Y-55668D01*
X73561Y-55696D01*
X73623Y-55758D01*
X73704Y-55791D01*
X73791Y-55792D01*
X73872Y-55758D01*
X73934Y-55696D01*
X73967Y-55615D01*
X73968Y-55528D01*
X73968Y-56923D01*
X73945Y-56901D01*
X73864Y-56868D01*
X73777Y-56867D01*
X73708Y-56896D01*
X73643Y-56870D01*
X73556Y-56869D01*
X73475Y-56903D01*
X73452Y-56926D01*
X73452Y-56768D01*
X73418Y-56687D01*
X73356Y-56625D01*
X73275Y-56592D01*
X73188Y-56591D01*
X73107Y-56625D01*
X73045Y-56687D01*
X73012Y-56768D01*
X73011Y-56855D01*
X73045Y-56936D01*
X73107Y-56998D01*
X73188Y-57031D01*
X73275Y-57032D01*
X73356Y-56998D01*
X73418Y-56936D01*
X73451Y-56855D01*
X73452Y-56768D01*
X73452Y-56926D01*
X73413Y-56965D01*
X73380Y-57046D01*
X73379Y-57133D01*
X73413Y-57214D01*
X73475Y-57276D01*
X73556Y-57309D01*
X73643Y-57310D01*
X73712Y-57281D01*
X73777Y-57307D01*
X73864Y-57308D01*
X73945Y-57274D01*
X74007Y-57212D01*
X74040Y-57131D01*
X74041Y-57044D01*
X74041Y-59103D01*
X74034Y-59106D01*
X73998Y-59142D01*
X73988Y-59119D01*
X73926Y-59057D01*
X73880Y-59038D01*
X73880Y-59013D01*
X73846Y-58932D01*
X73784Y-58870D01*
X73703Y-58837D01*
X73616Y-58836D01*
X73535Y-58870D01*
X73524Y-58881D01*
X73509Y-58865D01*
X73428Y-58832D01*
X73340Y-58831D01*
X73260Y-58865D01*
X73198Y-58927D01*
X73164Y-59008D01*
X73164Y-59095D01*
X73197Y-59176D01*
X73259Y-59238D01*
X73340Y-59271D01*
X73428Y-59272D01*
X73508Y-59238D01*
X73519Y-59227D01*
X73535Y-59243D01*
X73581Y-59262D01*
X73581Y-59287D01*
X73615Y-59368D01*
X73677Y-59430D01*
X73740Y-59456D01*
X73740Y-59457D01*
X73693Y-59438D01*
X73606Y-59437D01*
X73525Y-59471D01*
X73463Y-59533D01*
X73430Y-59614D01*
X73429Y-59701D01*
X73463Y-59782D01*
X73480Y-59799D01*
X73428Y-59799D01*
X73380Y-59819D01*
X73343Y-59856D01*
X73324Y-59904D01*
X73323Y-59955D01*
X73323Y-60355D01*
X73343Y-60403D01*
X73380Y-60440D01*
X73428Y-60459D01*
X73479Y-60460D01*
X73879Y-60460D01*
X73927Y-60440D01*
X73964Y-60403D01*
X73983Y-60355D01*
X73984Y-60304D01*
X73984Y-59904D01*
X73964Y-59856D01*
X73927Y-59819D01*
X73879Y-59800D01*
X73828Y-59799D01*
X73819Y-59799D01*
X73836Y-59782D01*
X73869Y-59701D01*
X73870Y-59626D01*
X73916Y-59645D01*
X73933Y-59645D01*
X73933Y-59651D01*
X73967Y-59732D01*
X74029Y-59794D01*
X74110Y-59827D01*
X74188Y-59828D01*
X74220Y-59904D01*
X74299Y-59983D01*
X74402Y-60025D01*
X74513Y-60026D01*
X74616Y-59983D01*
X74695Y-59904D01*
X74737Y-59801D01*
X74738Y-59690D01*
X74738Y-60233D01*
X74702Y-60219D01*
X74597Y-60218D01*
X74500Y-60259D01*
X74425Y-60333D01*
X74385Y-60431D01*
X74384Y-60536D01*
X74425Y-60633D01*
X74499Y-60708D01*
X74597Y-60748D01*
X74702Y-60749D01*
X74799Y-60708D01*
X74874Y-60634D01*
X74914Y-60536D01*
X74915Y-60431D01*
X74915Y-62860D01*
X74826Y-62860D01*
X74826Y-61230D01*
X74792Y-61149D01*
X74730Y-61087D01*
X74649Y-61054D01*
X74562Y-61053D01*
X74481Y-61087D01*
X74419Y-61149D01*
X74386Y-61230D01*
X74385Y-61317D01*
X74419Y-61398D01*
X74481Y-61460D01*
X74562Y-61493D01*
X74649Y-61494D01*
X74730Y-61460D01*
X74792Y-61398D01*
X74825Y-61317D01*
X74826Y-61230D01*
X74826Y-62860D01*
X74441Y-62860D01*
X74536Y-62796D01*
X74632Y-62652D01*
X74666Y-62482D01*
X74632Y-62311D01*
X74536Y-62167D01*
X74392Y-62070D01*
X74221Y-62037D01*
X74204Y-62037D01*
X74202Y-62037D01*
X74202Y-61419D01*
X74173Y-61275D01*
X74092Y-61153D01*
X73970Y-61071D01*
X73826Y-61043D01*
X73811Y-61043D01*
X73667Y-61071D01*
X73545Y-61153D01*
X73464Y-61275D01*
X73435Y-61419D01*
X73464Y-61562D01*
X73545Y-61684D01*
X73667Y-61766D01*
X73811Y-61795D01*
X73826Y-61795D01*
X73970Y-61766D01*
X74092Y-61684D01*
X74173Y-61562D01*
X74202Y-61419D01*
X74202Y-62037D01*
X74033Y-62070D01*
X73889Y-62167D01*
X73793Y-62311D01*
X73759Y-62482D01*
X73793Y-62652D01*
X73889Y-62796D01*
X73984Y-62860D01*
X72984Y-62860D01*
X72984Y-60064D01*
X72933Y-59943D01*
X72841Y-59850D01*
X72808Y-59836D01*
X72808Y-58400D01*
X72787Y-58349D01*
X72787Y-53751D01*
X72746Y-53654D01*
X72672Y-53579D01*
X72574Y-53539D01*
X72469Y-53538D01*
X72372Y-53579D01*
X72297Y-53653D01*
X72257Y-53751D01*
X72256Y-53856D01*
X72297Y-53953D01*
X72371Y-54028D01*
X72469Y-54068D01*
X72574Y-54069D01*
X72671Y-54028D01*
X72746Y-53954D01*
X72786Y-53856D01*
X72787Y-53751D01*
X72787Y-58349D01*
X72774Y-58319D01*
X72712Y-58257D01*
X72631Y-58224D01*
X72544Y-58223D01*
X72511Y-58237D01*
X72511Y-54304D01*
X72477Y-54223D01*
X72415Y-54161D01*
X72334Y-54128D01*
X72247Y-54127D01*
X72237Y-54132D01*
X72237Y-50583D01*
X72196Y-50486D01*
X72150Y-50439D01*
X72150Y-48931D01*
X72116Y-48850D01*
X72054Y-48788D01*
X71973Y-48755D01*
X71886Y-48754D01*
X71805Y-48788D01*
X71743Y-48850D01*
X71710Y-48931D01*
X71709Y-49018D01*
X71743Y-49099D01*
X71805Y-49161D01*
X71886Y-49194D01*
X71973Y-49195D01*
X72054Y-49161D01*
X72116Y-49099D01*
X72149Y-49018D01*
X72150Y-48931D01*
X72150Y-50439D01*
X72122Y-50411D01*
X72024Y-50371D01*
X71919Y-50370D01*
X71822Y-50411D01*
X71747Y-50485D01*
X71707Y-50583D01*
X71706Y-50688D01*
X71747Y-50785D01*
X71821Y-50860D01*
X71919Y-50900D01*
X72024Y-50901D01*
X72121Y-50860D01*
X72196Y-50786D01*
X72236Y-50688D01*
X72237Y-50583D01*
X72237Y-54132D01*
X72166Y-54161D01*
X72106Y-54221D01*
X72106Y-53605D01*
X72072Y-53524D01*
X72010Y-53462D01*
X72007Y-53461D01*
X72007Y-51842D01*
X71973Y-51761D01*
X71911Y-51699D01*
X71830Y-51666D01*
X71743Y-51665D01*
X71662Y-51699D01*
X71653Y-51708D01*
X71653Y-46991D01*
X71612Y-46894D01*
X71538Y-46819D01*
X71440Y-46779D01*
X71335Y-46778D01*
X71238Y-46819D01*
X71163Y-46893D01*
X71123Y-46991D01*
X71122Y-47096D01*
X71163Y-47193D01*
X71237Y-47268D01*
X71335Y-47308D01*
X71440Y-47309D01*
X71537Y-47268D01*
X71612Y-47194D01*
X71652Y-47096D01*
X71653Y-46991D01*
X71653Y-51708D01*
X71600Y-51761D01*
X71567Y-51842D01*
X71566Y-51929D01*
X71600Y-52010D01*
X71662Y-52072D01*
X71743Y-52105D01*
X71830Y-52106D01*
X71911Y-52072D01*
X71973Y-52010D01*
X72006Y-51929D01*
X72007Y-51842D01*
X72007Y-53461D01*
X71929Y-53429D01*
X71842Y-53428D01*
X71761Y-53462D01*
X71699Y-53524D01*
X71666Y-53605D01*
X71665Y-53651D01*
X71617Y-53671D01*
X71555Y-53733D01*
X71522Y-53814D01*
X71521Y-53901D01*
X71555Y-53982D01*
X71617Y-54044D01*
X71698Y-54077D01*
X71785Y-54078D01*
X71866Y-54044D01*
X71928Y-53982D01*
X71961Y-53901D01*
X71962Y-53855D01*
X72010Y-53835D01*
X72072Y-53773D01*
X72105Y-53692D01*
X72106Y-53605D01*
X72106Y-54221D01*
X72104Y-54223D01*
X72071Y-54304D01*
X72071Y-54313D01*
X72068Y-54307D01*
X72006Y-54245D01*
X71925Y-54212D01*
X71838Y-54211D01*
X71757Y-54245D01*
X71695Y-54307D01*
X71675Y-54355D01*
X71643Y-54324D01*
X71562Y-54290D01*
X71475Y-54290D01*
X71394Y-54323D01*
X71332Y-54385D01*
X71299Y-54466D01*
X71298Y-54554D01*
X71332Y-54634D01*
X71394Y-54696D01*
X71475Y-54730D01*
X71562Y-54730D01*
X71643Y-54697D01*
X71705Y-54635D01*
X71725Y-54586D01*
X71757Y-54618D01*
X71838Y-54651D01*
X71925Y-54652D01*
X72006Y-54618D01*
X72068Y-54556D01*
X72101Y-54475D01*
X72101Y-54466D01*
X72104Y-54472D01*
X72166Y-54534D01*
X72247Y-54567D01*
X72334Y-54568D01*
X72415Y-54534D01*
X72477Y-54472D01*
X72510Y-54391D01*
X72511Y-54304D01*
X72511Y-58237D01*
X72463Y-58257D01*
X72401Y-58319D01*
X72373Y-58386D01*
X72322Y-58365D01*
X72235Y-58365D01*
X72154Y-58398D01*
X72152Y-58401D01*
X72152Y-56424D01*
X72132Y-56376D01*
X72132Y-55808D01*
X72098Y-55727D01*
X72036Y-55665D01*
X71955Y-55632D01*
X71868Y-55631D01*
X71787Y-55665D01*
X71768Y-55684D01*
X71768Y-55073D01*
X71735Y-54993D01*
X71673Y-54931D01*
X71592Y-54897D01*
X71504Y-54897D01*
X71424Y-54930D01*
X71362Y-54992D01*
X71341Y-55042D01*
X71310Y-55042D01*
X71266Y-55061D01*
X71266Y-50990D01*
X71232Y-50909D01*
X71170Y-50847D01*
X71140Y-50834D01*
X71140Y-48641D01*
X71106Y-48561D01*
X71044Y-48499D01*
X70963Y-48465D01*
X70876Y-48465D01*
X70852Y-48475D01*
X70852Y-47246D01*
X70843Y-47225D01*
X70843Y-46409D01*
X70802Y-46312D01*
X70728Y-46237D01*
X70661Y-46209D01*
X70661Y-44125D01*
X70620Y-44028D01*
X70546Y-43953D01*
X70448Y-43913D01*
X70343Y-43912D01*
X70246Y-43953D01*
X70171Y-44027D01*
X70131Y-44125D01*
X70130Y-44230D01*
X70171Y-44327D01*
X70245Y-44402D01*
X70343Y-44442D01*
X70448Y-44443D01*
X70545Y-44402D01*
X70620Y-44328D01*
X70660Y-44230D01*
X70661Y-44125D01*
X70661Y-46209D01*
X70630Y-46197D01*
X70525Y-46196D01*
X70428Y-46237D01*
X70353Y-46311D01*
X70313Y-46409D01*
X70312Y-46514D01*
X70353Y-46611D01*
X70427Y-46686D01*
X70525Y-46726D01*
X70630Y-46727D01*
X70727Y-46686D01*
X70802Y-46612D01*
X70842Y-46514D01*
X70843Y-46409D01*
X70843Y-47225D01*
X70818Y-47166D01*
X70756Y-47104D01*
X70675Y-47070D01*
X70588Y-47070D01*
X70507Y-47103D01*
X70445Y-47165D01*
X70412Y-47246D01*
X70411Y-47334D01*
X70445Y-47414D01*
X70507Y-47476D01*
X70588Y-47510D01*
X70675Y-47510D01*
X70756Y-47477D01*
X70818Y-47415D01*
X70851Y-47334D01*
X70852Y-47246D01*
X70852Y-48475D01*
X70795Y-48498D01*
X70733Y-48560D01*
X70700Y-48641D01*
X70699Y-48729D01*
X70733Y-48809D01*
X70795Y-48871D01*
X70876Y-48905D01*
X70963Y-48905D01*
X71044Y-48872D01*
X71106Y-48810D01*
X71139Y-48729D01*
X71140Y-48641D01*
X71140Y-50834D01*
X71089Y-50814D01*
X71002Y-50813D01*
X70933Y-50842D01*
X70933Y-49960D01*
X70899Y-49879D01*
X70837Y-49817D01*
X70760Y-49785D01*
X70804Y-49767D01*
X70866Y-49705D01*
X70899Y-49624D01*
X70900Y-49537D01*
X70866Y-49456D01*
X70804Y-49394D01*
X70723Y-49361D01*
X70636Y-49360D01*
X70555Y-49394D01*
X70493Y-49456D01*
X70460Y-49537D01*
X70459Y-49624D01*
X70493Y-49705D01*
X70555Y-49767D01*
X70632Y-49799D01*
X70588Y-49817D01*
X70526Y-49879D01*
X70493Y-49960D01*
X70493Y-49962D01*
X70460Y-49883D01*
X70398Y-49821D01*
X70317Y-49788D01*
X70232Y-49787D01*
X70246Y-49774D01*
X70286Y-49676D01*
X70287Y-49571D01*
X70271Y-49533D01*
X70271Y-48065D01*
X70238Y-47985D01*
X70204Y-47950D01*
X70204Y-45663D01*
X70115Y-45450D01*
X69952Y-45287D01*
X69739Y-45198D01*
X69509Y-45198D01*
X69295Y-45286D01*
X69132Y-45449D01*
X69044Y-45662D01*
X69043Y-45893D01*
X69132Y-46106D01*
X69295Y-46269D01*
X69508Y-46358D01*
X69738Y-46358D01*
X69952Y-46270D01*
X70115Y-46107D01*
X70203Y-45894D01*
X70204Y-45663D01*
X70204Y-47950D01*
X70176Y-47923D01*
X70095Y-47889D01*
X70007Y-47889D01*
X69927Y-47922D01*
X69907Y-47942D01*
X69907Y-46703D01*
X69866Y-46606D01*
X69792Y-46531D01*
X69694Y-46491D01*
X69589Y-46490D01*
X69492Y-46531D01*
X69417Y-46605D01*
X69377Y-46703D01*
X69376Y-46808D01*
X69417Y-46905D01*
X69491Y-46980D01*
X69589Y-47020D01*
X69694Y-47021D01*
X69791Y-46980D01*
X69866Y-46906D01*
X69906Y-46808D01*
X69907Y-46703D01*
X69907Y-47942D01*
X69865Y-47984D01*
X69831Y-48065D01*
X69831Y-48153D01*
X69864Y-48233D01*
X69926Y-48295D01*
X70007Y-48329D01*
X70095Y-48329D01*
X70175Y-48296D01*
X70237Y-48234D01*
X70271Y-48153D01*
X70271Y-48065D01*
X70271Y-49533D01*
X70246Y-49474D01*
X70172Y-49399D01*
X70074Y-49359D01*
X69969Y-49358D01*
X69872Y-49399D01*
X69797Y-49473D01*
X69757Y-49571D01*
X69756Y-49676D01*
X69797Y-49773D01*
X69871Y-49848D01*
X69969Y-49888D01*
X70074Y-49889D01*
X70087Y-49883D01*
X70054Y-49964D01*
X70053Y-50051D01*
X70087Y-50132D01*
X70149Y-50194D01*
X70230Y-50227D01*
X70317Y-50228D01*
X70398Y-50194D01*
X70460Y-50132D01*
X70493Y-50051D01*
X70493Y-50049D01*
X70526Y-50128D01*
X70588Y-50190D01*
X70669Y-50223D01*
X70756Y-50224D01*
X70837Y-50190D01*
X70899Y-50128D01*
X70932Y-50047D01*
X70933Y-49960D01*
X70933Y-50842D01*
X70921Y-50847D01*
X70908Y-50859D01*
X70909Y-50791D01*
X70875Y-50710D01*
X70813Y-50648D01*
X70732Y-50615D01*
X70645Y-50614D01*
X70564Y-50648D01*
X70502Y-50710D01*
X70469Y-50791D01*
X70468Y-50878D01*
X70502Y-50959D01*
X70564Y-51021D01*
X70645Y-51054D01*
X70732Y-51055D01*
X70813Y-51021D01*
X70826Y-51009D01*
X70825Y-51077D01*
X70859Y-51158D01*
X70921Y-51220D01*
X71002Y-51253D01*
X71089Y-51254D01*
X71170Y-51220D01*
X71232Y-51158D01*
X71265Y-51077D01*
X71266Y-50990D01*
X71266Y-55061D01*
X71248Y-55068D01*
X71248Y-53476D01*
X71214Y-53395D01*
X71152Y-53333D01*
X71071Y-53300D01*
X70984Y-53299D01*
X70903Y-53333D01*
X70841Y-53395D01*
X70808Y-53476D01*
X70807Y-53563D01*
X70841Y-53644D01*
X70903Y-53706D01*
X70984Y-53739D01*
X71071Y-53740D01*
X71152Y-53706D01*
X71214Y-53644D01*
X71247Y-53563D01*
X71248Y-53476D01*
X71248Y-55068D01*
X71229Y-55076D01*
X71167Y-55138D01*
X71134Y-55219D01*
X71133Y-55306D01*
X71167Y-55387D01*
X71229Y-55449D01*
X71310Y-55482D01*
X71397Y-55483D01*
X71478Y-55449D01*
X71540Y-55387D01*
X71561Y-55337D01*
X71592Y-55337D01*
X71672Y-55304D01*
X71734Y-55242D01*
X71768Y-55161D01*
X71768Y-55073D01*
X71768Y-55684D01*
X71725Y-55727D01*
X71692Y-55808D01*
X71691Y-55895D01*
X71725Y-55976D01*
X71787Y-56038D01*
X71868Y-56071D01*
X71955Y-56072D01*
X72036Y-56038D01*
X72098Y-55976D01*
X72131Y-55895D01*
X72132Y-55808D01*
X72132Y-56376D01*
X72118Y-56343D01*
X72056Y-56281D01*
X71975Y-56248D01*
X71888Y-56247D01*
X71807Y-56281D01*
X71745Y-56343D01*
X71712Y-56424D01*
X71711Y-56511D01*
X71745Y-56592D01*
X71777Y-56625D01*
X71727Y-56675D01*
X71694Y-56756D01*
X71693Y-56843D01*
X71727Y-56924D01*
X71789Y-56986D01*
X71870Y-57019D01*
X71957Y-57020D01*
X72038Y-56986D01*
X72100Y-56924D01*
X72133Y-56843D01*
X72134Y-56756D01*
X72100Y-56675D01*
X72068Y-56642D01*
X72118Y-56592D01*
X72151Y-56511D01*
X72152Y-56424D01*
X72152Y-58401D01*
X72092Y-58460D01*
X72059Y-58541D01*
X72058Y-58629D01*
X72092Y-58709D01*
X72140Y-58757D01*
X72102Y-58773D01*
X72040Y-58835D01*
X72007Y-58916D01*
X72006Y-58997D01*
X71976Y-59028D01*
X71976Y-58138D01*
X71942Y-58057D01*
X71880Y-57995D01*
X71799Y-57962D01*
X71712Y-57961D01*
X71631Y-57995D01*
X71569Y-58057D01*
X71536Y-58138D01*
X71536Y-58159D01*
X71479Y-58182D01*
X71473Y-58177D01*
X71392Y-58143D01*
X71305Y-58143D01*
X71224Y-58176D01*
X71185Y-58216D01*
X71185Y-56104D01*
X71151Y-56023D01*
X71089Y-55961D01*
X71008Y-55928D01*
X70921Y-55927D01*
X70840Y-55961D01*
X70798Y-56002D01*
X70798Y-55638D01*
X70798Y-55414D01*
X70798Y-55378D01*
X70778Y-55329D01*
X70798Y-55281D01*
X70798Y-55244D01*
X70798Y-55021D01*
X70798Y-54984D01*
X70778Y-54936D01*
X70798Y-54887D01*
X70798Y-54850D01*
X70798Y-54627D01*
X70798Y-54590D01*
X70778Y-54542D01*
X70798Y-54493D01*
X70798Y-54457D01*
X70798Y-54233D01*
X70798Y-54197D01*
X70760Y-54105D01*
X70690Y-54034D01*
X70598Y-53996D01*
X70562Y-53997D01*
X70513Y-54046D01*
X70513Y-53243D01*
X70472Y-53146D01*
X70398Y-53071D01*
X70300Y-53031D01*
X70221Y-53030D01*
X70221Y-51141D01*
X70180Y-51044D01*
X70106Y-50969D01*
X70067Y-50953D01*
X70078Y-50926D01*
X70079Y-50821D01*
X70038Y-50724D01*
X69964Y-50649D01*
X69866Y-50609D01*
X69761Y-50608D01*
X69664Y-50649D01*
X69589Y-50723D01*
X69549Y-50821D01*
X69548Y-50926D01*
X69589Y-51023D01*
X69663Y-51098D01*
X69702Y-51114D01*
X69691Y-51141D01*
X69690Y-51246D01*
X69731Y-51343D01*
X69805Y-51418D01*
X69903Y-51458D01*
X70008Y-51459D01*
X70105Y-51418D01*
X70180Y-51344D01*
X70220Y-51246D01*
X70221Y-51141D01*
X70221Y-53030D01*
X70195Y-53030D01*
X70098Y-53071D01*
X70023Y-53145D01*
X69983Y-53243D01*
X69982Y-53348D01*
X70023Y-53445D01*
X70097Y-53520D01*
X70195Y-53560D01*
X70300Y-53561D01*
X70397Y-53520D01*
X70472Y-53446D01*
X70512Y-53348D01*
X70513Y-53243D01*
X70513Y-54046D01*
X70499Y-54059D01*
X70499Y-54296D01*
X70736Y-54296D01*
X70798Y-54233D01*
X70798Y-54457D01*
X70736Y-54394D01*
X70608Y-54394D01*
X70598Y-54390D01*
X70562Y-54390D01*
X70558Y-54394D01*
X70499Y-54394D01*
X70499Y-54453D01*
X70499Y-54631D01*
X70499Y-54689D01*
X70558Y-54689D01*
X70562Y-54693D01*
X70598Y-54693D01*
X70608Y-54689D01*
X70736Y-54689D01*
X70798Y-54627D01*
X70798Y-54850D01*
X70736Y-54788D01*
X70608Y-54788D01*
X70598Y-54784D01*
X70562Y-54784D01*
X70558Y-54788D01*
X70499Y-54788D01*
X70499Y-54846D01*
X70499Y-55025D01*
X70499Y-55083D01*
X70558Y-55083D01*
X70562Y-55087D01*
X70598Y-55087D01*
X70608Y-55083D01*
X70736Y-55083D01*
X70798Y-55021D01*
X70798Y-55244D01*
X70736Y-55182D01*
X70608Y-55182D01*
X70598Y-55178D01*
X70562Y-55178D01*
X70558Y-55182D01*
X70499Y-55182D01*
X70499Y-55240D01*
X70499Y-55418D01*
X70499Y-55477D01*
X70558Y-55477D01*
X70562Y-55481D01*
X70598Y-55481D01*
X70608Y-55477D01*
X70736Y-55477D01*
X70798Y-55414D01*
X70798Y-55638D01*
X70736Y-55575D01*
X70499Y-55575D01*
X70499Y-55812D01*
X70562Y-55874D01*
X70598Y-55875D01*
X70690Y-55837D01*
X70760Y-55766D01*
X70798Y-55674D01*
X70798Y-55638D01*
X70798Y-56002D01*
X70778Y-56023D01*
X70745Y-56104D01*
X70744Y-56191D01*
X70778Y-56272D01*
X70840Y-56334D01*
X70921Y-56367D01*
X71008Y-56368D01*
X71089Y-56334D01*
X71151Y-56272D01*
X71184Y-56191D01*
X71185Y-56104D01*
X71185Y-58216D01*
X71162Y-58238D01*
X71129Y-58319D01*
X71128Y-58407D01*
X71162Y-58487D01*
X71224Y-58549D01*
X71305Y-58583D01*
X71392Y-58583D01*
X71451Y-58559D01*
X71457Y-58564D01*
X71538Y-58598D01*
X71626Y-58598D01*
X71706Y-58565D01*
X71768Y-58503D01*
X71802Y-58422D01*
X71802Y-58400D01*
X71880Y-58368D01*
X71942Y-58306D01*
X71975Y-58225D01*
X71976Y-58138D01*
X71976Y-59028D01*
X71951Y-59053D01*
X71933Y-59097D01*
X71880Y-59075D01*
X71792Y-59074D01*
X71712Y-59108D01*
X71695Y-59124D01*
X71668Y-59097D01*
X71587Y-59064D01*
X71500Y-59063D01*
X71419Y-59097D01*
X71357Y-59159D01*
X71324Y-59240D01*
X71323Y-59327D01*
X71357Y-59408D01*
X71419Y-59470D01*
X71500Y-59503D01*
X71587Y-59504D01*
X71668Y-59470D01*
X71684Y-59454D01*
X71711Y-59481D01*
X71792Y-59514D01*
X71880Y-59515D01*
X71960Y-59481D01*
X72022Y-59419D01*
X72041Y-59375D01*
X72094Y-59397D01*
X72181Y-59398D01*
X72262Y-59364D01*
X72324Y-59302D01*
X72357Y-59221D01*
X72358Y-59140D01*
X72413Y-59084D01*
X72446Y-59003D01*
X72447Y-58916D01*
X72413Y-58835D01*
X72365Y-58787D01*
X72403Y-58772D01*
X72465Y-58710D01*
X72493Y-58642D01*
X72544Y-58663D01*
X72631Y-58664D01*
X72712Y-58630D01*
X72774Y-58568D01*
X72807Y-58487D01*
X72808Y-58400D01*
X72808Y-59836D01*
X72719Y-59800D01*
X72588Y-59799D01*
X72467Y-59850D01*
X72403Y-59913D01*
X72341Y-59850D01*
X72219Y-59800D01*
X72088Y-59799D01*
X71967Y-59850D01*
X71903Y-59913D01*
X71841Y-59850D01*
X71719Y-59800D01*
X71588Y-59799D01*
X71467Y-59850D01*
X71374Y-59942D01*
X71324Y-60064D01*
X71323Y-60195D01*
X71374Y-60316D01*
X71466Y-60409D01*
X71588Y-60459D01*
X71719Y-60460D01*
X71840Y-60409D01*
X71904Y-60346D01*
X71966Y-60409D01*
X72088Y-60459D01*
X72219Y-60460D01*
X72340Y-60409D01*
X72404Y-60346D01*
X72466Y-60409D01*
X72588Y-60459D01*
X72719Y-60460D01*
X72840Y-60409D01*
X72933Y-60317D01*
X72983Y-60195D01*
X72984Y-60064D01*
X72984Y-62860D01*
X72414Y-62860D01*
X72414Y-61782D01*
X72380Y-61701D01*
X72318Y-61639D01*
X72237Y-61606D01*
X72176Y-61605D01*
X72205Y-61562D01*
X72234Y-61419D01*
X72205Y-61275D01*
X72124Y-61153D01*
X72002Y-61071D01*
X71858Y-61043D01*
X71843Y-61043D01*
X71699Y-61071D01*
X71577Y-61153D01*
X71496Y-61275D01*
X71467Y-61419D01*
X71496Y-61562D01*
X71577Y-61684D01*
X71699Y-61766D01*
X71843Y-61795D01*
X71858Y-61795D01*
X71978Y-61771D01*
X71974Y-61782D01*
X71973Y-61869D01*
X72007Y-61950D01*
X72069Y-62012D01*
X72150Y-62045D01*
X72237Y-62046D01*
X72318Y-62012D01*
X72380Y-61950D01*
X72413Y-61869D01*
X72414Y-61782D01*
X72414Y-62860D01*
X71685Y-62860D01*
X71780Y-62796D01*
X71876Y-62652D01*
X71910Y-62482D01*
X71876Y-62311D01*
X71780Y-62167D01*
X71636Y-62070D01*
X71465Y-62037D01*
X71448Y-62037D01*
X71285Y-62069D01*
X71285Y-61637D01*
X71244Y-61540D01*
X71170Y-61465D01*
X71072Y-61425D01*
X70967Y-61424D01*
X70879Y-61461D01*
X70879Y-58294D01*
X70845Y-58213D01*
X70822Y-58189D01*
X70822Y-56452D01*
X70788Y-56371D01*
X70726Y-56309D01*
X70645Y-56276D01*
X70558Y-56275D01*
X70477Y-56309D01*
X70415Y-56371D01*
X70405Y-56396D01*
X70405Y-55638D01*
X70405Y-55414D01*
X70405Y-55378D01*
X70401Y-55368D01*
X70401Y-55290D01*
X70405Y-55281D01*
X70405Y-55244D01*
X70405Y-55021D01*
X70405Y-54984D01*
X70401Y-54975D01*
X70401Y-54896D01*
X70405Y-54887D01*
X70405Y-54850D01*
X70405Y-54627D01*
X70405Y-54590D01*
X70401Y-54581D01*
X70401Y-54503D01*
X70405Y-54493D01*
X70405Y-54457D01*
X70405Y-54233D01*
X70405Y-54197D01*
X70401Y-54187D01*
X70401Y-54059D01*
X70338Y-53997D01*
X70302Y-53996D01*
X70253Y-54017D01*
X70204Y-53996D01*
X70168Y-53997D01*
X70106Y-54059D01*
X70106Y-54187D01*
X70102Y-54197D01*
X70102Y-54233D01*
X70106Y-54237D01*
X70106Y-54296D01*
X70164Y-54296D01*
X70342Y-54296D01*
X70401Y-54296D01*
X70401Y-54237D01*
X70405Y-54233D01*
X70405Y-54457D01*
X70401Y-54453D01*
X70401Y-54394D01*
X70342Y-54394D01*
X70338Y-54390D01*
X70302Y-54390D01*
X70292Y-54394D01*
X70214Y-54394D01*
X70204Y-54390D01*
X70168Y-54390D01*
X70164Y-54394D01*
X70106Y-54394D01*
X70106Y-54453D01*
X70102Y-54457D01*
X70102Y-54493D01*
X70106Y-54503D01*
X70106Y-54581D01*
X70102Y-54590D01*
X70102Y-54627D01*
X70106Y-54631D01*
X70106Y-54689D01*
X70164Y-54689D01*
X70168Y-54693D01*
X70204Y-54693D01*
X70214Y-54689D01*
X70292Y-54689D01*
X70302Y-54693D01*
X70338Y-54693D01*
X70342Y-54689D01*
X70401Y-54689D01*
X70401Y-54631D01*
X70405Y-54627D01*
X70405Y-54850D01*
X70401Y-54846D01*
X70401Y-54788D01*
X70342Y-54788D01*
X70338Y-54784D01*
X70302Y-54784D01*
X70292Y-54788D01*
X70214Y-54788D01*
X70204Y-54784D01*
X70168Y-54784D01*
X70164Y-54788D01*
X70106Y-54788D01*
X70106Y-54846D01*
X70102Y-54850D01*
X70102Y-54887D01*
X70106Y-54896D01*
X70106Y-54975D01*
X70102Y-54984D01*
X70102Y-55021D01*
X70106Y-55025D01*
X70106Y-55083D01*
X70164Y-55083D01*
X70168Y-55087D01*
X70204Y-55087D01*
X70214Y-55083D01*
X70292Y-55083D01*
X70302Y-55087D01*
X70338Y-55087D01*
X70342Y-55083D01*
X70401Y-55083D01*
X70401Y-55025D01*
X70405Y-55021D01*
X70405Y-55244D01*
X70401Y-55240D01*
X70401Y-55182D01*
X70342Y-55182D01*
X70338Y-55178D01*
X70302Y-55178D01*
X70292Y-55182D01*
X70214Y-55182D01*
X70204Y-55178D01*
X70168Y-55178D01*
X70164Y-55182D01*
X70106Y-55182D01*
X70106Y-55240D01*
X70102Y-55244D01*
X70102Y-55281D01*
X70106Y-55290D01*
X70106Y-55368D01*
X70102Y-55378D01*
X70102Y-55414D01*
X70106Y-55418D01*
X70106Y-55477D01*
X70164Y-55477D01*
X70168Y-55481D01*
X70204Y-55481D01*
X70214Y-55477D01*
X70292Y-55477D01*
X70302Y-55481D01*
X70338Y-55481D01*
X70342Y-55477D01*
X70401Y-55477D01*
X70401Y-55418D01*
X70405Y-55414D01*
X70405Y-55638D01*
X70401Y-55634D01*
X70401Y-55575D01*
X70342Y-55575D01*
X70164Y-55575D01*
X70106Y-55575D01*
X70106Y-55634D01*
X70102Y-55638D01*
X70102Y-55674D01*
X70106Y-55684D01*
X70106Y-55812D01*
X70168Y-55874D01*
X70204Y-55875D01*
X70253Y-55854D01*
X70302Y-55875D01*
X70338Y-55874D01*
X70401Y-55812D01*
X70401Y-55684D01*
X70405Y-55674D01*
X70405Y-55638D01*
X70405Y-56396D01*
X70382Y-56452D01*
X70381Y-56539D01*
X70391Y-56563D01*
X70325Y-56536D01*
X70238Y-56535D01*
X70157Y-56569D01*
X70095Y-56631D01*
X70062Y-56712D01*
X70061Y-56799D01*
X70095Y-56880D01*
X70157Y-56942D01*
X70238Y-56975D01*
X70325Y-56976D01*
X70406Y-56942D01*
X70468Y-56880D01*
X70501Y-56799D01*
X70502Y-56712D01*
X70492Y-56688D01*
X70558Y-56715D01*
X70645Y-56716D01*
X70726Y-56682D01*
X70788Y-56620D01*
X70821Y-56539D01*
X70822Y-56452D01*
X70822Y-58189D01*
X70783Y-58151D01*
X70713Y-58122D01*
X70680Y-58042D01*
X70618Y-57980D01*
X70537Y-57947D01*
X70450Y-57946D01*
X70369Y-57980D01*
X70307Y-58042D01*
X70274Y-58123D01*
X70273Y-58210D01*
X70307Y-58291D01*
X70329Y-58314D01*
X70276Y-58367D01*
X70242Y-58448D01*
X70242Y-58536D01*
X70275Y-58616D01*
X70337Y-58678D01*
X70418Y-58712D01*
X70506Y-58712D01*
X70586Y-58679D01*
X70648Y-58617D01*
X70673Y-58558D01*
X70702Y-58558D01*
X70783Y-58524D01*
X70845Y-58462D01*
X70878Y-58381D01*
X70879Y-58294D01*
X70879Y-61461D01*
X70870Y-61465D01*
X70795Y-61539D01*
X70755Y-61637D01*
X70754Y-61742D01*
X70795Y-61839D01*
X70869Y-61914D01*
X70967Y-61954D01*
X71072Y-61955D01*
X71169Y-61914D01*
X71244Y-61840D01*
X71284Y-61742D01*
X71285Y-61637D01*
X71285Y-62069D01*
X71277Y-62070D01*
X71133Y-62167D01*
X71037Y-62311D01*
X71011Y-62438D01*
X70996Y-62401D01*
X70945Y-62350D01*
X70966Y-62328D01*
X71000Y-62247D01*
X71000Y-62160D01*
X70967Y-62079D01*
X70905Y-62017D01*
X70824Y-61984D01*
X70736Y-61983D01*
X70656Y-62017D01*
X70594Y-62079D01*
X70560Y-62160D01*
X70560Y-62247D01*
X70584Y-62305D01*
X70570Y-62300D01*
X70483Y-62299D01*
X70402Y-62333D01*
X70340Y-62395D01*
X70307Y-62476D01*
X70306Y-62531D01*
X70249Y-62530D01*
X70179Y-62559D01*
X70179Y-62125D01*
X70171Y-62000D01*
X70140Y-61925D01*
X70179Y-61810D01*
X70171Y-61685D01*
X70140Y-61610D01*
X70179Y-61495D01*
X70171Y-61370D01*
X70138Y-61291D01*
X70079Y-61293D01*
X70079Y-58151D01*
X70057Y-58098D01*
X70057Y-56869D01*
X70016Y-56772D01*
X70011Y-56766D01*
X70011Y-55638D01*
X70011Y-55414D01*
X70011Y-55378D01*
X70007Y-55368D01*
X70007Y-55290D01*
X70011Y-55281D01*
X70011Y-55244D01*
X70011Y-55021D01*
X70011Y-54984D01*
X70007Y-54975D01*
X70007Y-54896D01*
X70011Y-54887D01*
X70011Y-54850D01*
X70011Y-54627D01*
X70011Y-54590D01*
X70007Y-54581D01*
X70007Y-54503D01*
X70011Y-54493D01*
X70011Y-54457D01*
X70011Y-54233D01*
X70011Y-54197D01*
X70007Y-54187D01*
X70007Y-54059D01*
X69945Y-53997D01*
X69908Y-53996D01*
X69860Y-54017D01*
X69811Y-53996D01*
X69774Y-53997D01*
X69712Y-54059D01*
X69712Y-54187D01*
X69708Y-54197D01*
X69708Y-54233D01*
X69712Y-54237D01*
X69712Y-54296D01*
X69770Y-54296D01*
X69949Y-54296D01*
X70007Y-54296D01*
X70007Y-54237D01*
X70011Y-54233D01*
X70011Y-54457D01*
X70007Y-54453D01*
X70007Y-54394D01*
X69949Y-54394D01*
X69945Y-54390D01*
X69908Y-54390D01*
X69899Y-54394D01*
X69820Y-54394D01*
X69811Y-54390D01*
X69774Y-54390D01*
X69770Y-54394D01*
X69712Y-54394D01*
X69712Y-54453D01*
X69708Y-54457D01*
X69708Y-54493D01*
X69712Y-54503D01*
X69712Y-54581D01*
X69708Y-54590D01*
X69708Y-54627D01*
X69712Y-54631D01*
X69712Y-54689D01*
X69770Y-54689D01*
X69774Y-54693D01*
X69811Y-54693D01*
X69820Y-54689D01*
X69899Y-54689D01*
X69908Y-54693D01*
X69945Y-54693D01*
X69949Y-54689D01*
X70007Y-54689D01*
X70007Y-54631D01*
X70011Y-54627D01*
X70011Y-54850D01*
X70007Y-54846D01*
X70007Y-54788D01*
X69949Y-54788D01*
X69945Y-54784D01*
X69908Y-54784D01*
X69899Y-54788D01*
X69820Y-54788D01*
X69811Y-54784D01*
X69774Y-54784D01*
X69770Y-54788D01*
X69712Y-54788D01*
X69712Y-54846D01*
X69708Y-54850D01*
X69708Y-54887D01*
X69712Y-54896D01*
X69712Y-54975D01*
X69708Y-54984D01*
X69708Y-55021D01*
X69712Y-55025D01*
X69712Y-55083D01*
X69770Y-55083D01*
X69774Y-55087D01*
X69811Y-55087D01*
X69820Y-55083D01*
X69899Y-55083D01*
X69908Y-55087D01*
X69945Y-55087D01*
X69949Y-55083D01*
X70007Y-55083D01*
X70007Y-55025D01*
X70011Y-55021D01*
X70011Y-55244D01*
X70007Y-55240D01*
X70007Y-55182D01*
X69949Y-55182D01*
X69945Y-55178D01*
X69908Y-55178D01*
X69899Y-55182D01*
X69820Y-55182D01*
X69811Y-55178D01*
X69774Y-55178D01*
X69770Y-55182D01*
X69712Y-55182D01*
X69712Y-55240D01*
X69708Y-55244D01*
X69708Y-55281D01*
X69712Y-55290D01*
X69712Y-55368D01*
X69708Y-55378D01*
X69708Y-55414D01*
X69712Y-55418D01*
X69712Y-55477D01*
X69770Y-55477D01*
X69774Y-55481D01*
X69811Y-55481D01*
X69820Y-55477D01*
X69899Y-55477D01*
X69908Y-55481D01*
X69945Y-55481D01*
X69949Y-55477D01*
X70007Y-55477D01*
X70007Y-55418D01*
X70011Y-55414D01*
X70011Y-55638D01*
X70007Y-55634D01*
X70007Y-55575D01*
X69949Y-55575D01*
X69770Y-55575D01*
X69712Y-55575D01*
X69712Y-55634D01*
X69708Y-55638D01*
X69708Y-55674D01*
X69712Y-55684D01*
X69712Y-55812D01*
X69774Y-55874D01*
X69811Y-55875D01*
X69860Y-55854D01*
X69908Y-55875D01*
X69945Y-55874D01*
X70007Y-55812D01*
X70007Y-55684D01*
X70011Y-55674D01*
X70011Y-55638D01*
X70011Y-56766D01*
X69942Y-56697D01*
X69844Y-56657D01*
X69739Y-56656D01*
X69680Y-56681D01*
X69680Y-53274D01*
X69637Y-53171D01*
X69558Y-53092D01*
X69455Y-53050D01*
X69344Y-53049D01*
X69241Y-53092D01*
X69162Y-53171D01*
X69123Y-53266D01*
X69123Y-49815D01*
X69082Y-49718D01*
X69011Y-49646D01*
X69011Y-48787D01*
X68988Y-48731D01*
X68988Y-44463D01*
X68941Y-44350D01*
X68855Y-44263D01*
X68742Y-44217D01*
X68620Y-44216D01*
X68507Y-44263D01*
X68420Y-44349D01*
X68374Y-44462D01*
X68373Y-44584D01*
X68420Y-44697D01*
X68506Y-44784D01*
X68619Y-44830D01*
X68741Y-44831D01*
X68854Y-44784D01*
X68941Y-44698D01*
X68987Y-44585D01*
X68988Y-44463D01*
X68988Y-48731D01*
X68984Y-48722D01*
X68984Y-46935D01*
X68937Y-46822D01*
X68851Y-46735D01*
X68738Y-46689D01*
X68616Y-46688D01*
X68517Y-46729D01*
X68517Y-45875D01*
X68476Y-45778D01*
X68402Y-45703D01*
X68304Y-45663D01*
X68281Y-45663D01*
X68281Y-44611D01*
X68240Y-44514D01*
X68166Y-44439D01*
X68068Y-44399D01*
X67963Y-44398D01*
X67866Y-44439D01*
X67806Y-44499D01*
X67806Y-44463D01*
X67759Y-44350D01*
X67673Y-44263D01*
X67560Y-44217D01*
X67438Y-44216D01*
X67325Y-44263D01*
X67238Y-44349D01*
X67192Y-44462D01*
X67191Y-44584D01*
X67238Y-44697D01*
X67324Y-44784D01*
X67437Y-44830D01*
X67559Y-44831D01*
X67672Y-44784D01*
X67750Y-44706D01*
X67750Y-44716D01*
X67791Y-44813D01*
X67865Y-44888D01*
X67963Y-44928D01*
X68068Y-44929D01*
X68165Y-44888D01*
X68240Y-44814D01*
X68280Y-44716D01*
X68281Y-44611D01*
X68281Y-45663D01*
X68199Y-45662D01*
X68102Y-45703D01*
X68027Y-45777D01*
X67987Y-45875D01*
X67986Y-45980D01*
X68027Y-46077D01*
X68101Y-46152D01*
X68199Y-46192D01*
X68304Y-46193D01*
X68401Y-46152D01*
X68476Y-46078D01*
X68516Y-45980D01*
X68517Y-45875D01*
X68517Y-46729D01*
X68503Y-46735D01*
X68416Y-46821D01*
X68370Y-46934D01*
X68369Y-47056D01*
X68384Y-47093D01*
X68285Y-47092D01*
X68188Y-47133D01*
X68113Y-47207D01*
X68073Y-47305D01*
X68072Y-47410D01*
X68113Y-47507D01*
X68187Y-47582D01*
X68285Y-47622D01*
X68390Y-47623D01*
X68487Y-47582D01*
X68562Y-47508D01*
X68602Y-47410D01*
X68603Y-47305D01*
X68599Y-47296D01*
X68615Y-47302D01*
X68737Y-47303D01*
X68850Y-47256D01*
X68937Y-47170D01*
X68983Y-47057D01*
X68984Y-46935D01*
X68984Y-48722D01*
X68970Y-48690D01*
X68896Y-48615D01*
X68798Y-48575D01*
X68693Y-48574D01*
X68596Y-48615D01*
X68521Y-48689D01*
X68481Y-48787D01*
X68480Y-48892D01*
X68521Y-48989D01*
X68595Y-49064D01*
X68693Y-49104D01*
X68798Y-49105D01*
X68895Y-49064D01*
X68970Y-48990D01*
X69010Y-48892D01*
X69011Y-48787D01*
X69011Y-49646D01*
X69008Y-49643D01*
X68961Y-49623D01*
X68987Y-49559D01*
X68988Y-49437D01*
X68941Y-49324D01*
X68855Y-49237D01*
X68742Y-49191D01*
X68620Y-49190D01*
X68507Y-49237D01*
X68420Y-49323D01*
X68374Y-49436D01*
X68373Y-49558D01*
X68420Y-49671D01*
X68506Y-49758D01*
X68600Y-49797D01*
X68593Y-49815D01*
X68592Y-49920D01*
X68633Y-50017D01*
X68707Y-50092D01*
X68805Y-50132D01*
X68910Y-50133D01*
X69007Y-50092D01*
X69082Y-50018D01*
X69122Y-49920D01*
X69123Y-49815D01*
X69123Y-53266D01*
X69120Y-53274D01*
X69119Y-53385D01*
X69162Y-53488D01*
X69241Y-53567D01*
X69344Y-53609D01*
X69455Y-53610D01*
X69558Y-53567D01*
X69637Y-53488D01*
X69679Y-53385D01*
X69680Y-53274D01*
X69680Y-56681D01*
X69642Y-56697D01*
X69617Y-56721D01*
X69617Y-55638D01*
X69617Y-55414D01*
X69617Y-55378D01*
X69613Y-55368D01*
X69613Y-55290D01*
X69617Y-55281D01*
X69617Y-55244D01*
X69617Y-55021D01*
X69617Y-54984D01*
X69613Y-54975D01*
X69613Y-54896D01*
X69617Y-54887D01*
X69617Y-54850D01*
X69617Y-54627D01*
X69617Y-54590D01*
X69613Y-54581D01*
X69613Y-54503D01*
X69617Y-54493D01*
X69617Y-54457D01*
X69617Y-54233D01*
X69617Y-54197D01*
X69613Y-54187D01*
X69613Y-54059D01*
X69551Y-53997D01*
X69515Y-53996D01*
X69466Y-54017D01*
X69417Y-53996D01*
X69381Y-53997D01*
X69318Y-54059D01*
X69318Y-54187D01*
X69314Y-54197D01*
X69314Y-54233D01*
X69318Y-54237D01*
X69318Y-54296D01*
X69377Y-54296D01*
X69555Y-54296D01*
X69613Y-54296D01*
X69613Y-54237D01*
X69617Y-54233D01*
X69617Y-54457D01*
X69613Y-54453D01*
X69613Y-54394D01*
X69555Y-54394D01*
X69551Y-54390D01*
X69515Y-54390D01*
X69505Y-54394D01*
X69427Y-54394D01*
X69417Y-54390D01*
X69381Y-54390D01*
X69377Y-54394D01*
X69318Y-54394D01*
X69318Y-54453D01*
X69314Y-54457D01*
X69314Y-54493D01*
X69318Y-54503D01*
X69318Y-54581D01*
X69314Y-54590D01*
X69314Y-54627D01*
X69318Y-54631D01*
X69318Y-54689D01*
X69377Y-54689D01*
X69381Y-54693D01*
X69417Y-54693D01*
X69427Y-54689D01*
X69505Y-54689D01*
X69515Y-54693D01*
X69551Y-54693D01*
X69555Y-54689D01*
X69613Y-54689D01*
X69613Y-54631D01*
X69617Y-54627D01*
X69617Y-54850D01*
X69613Y-54846D01*
X69613Y-54788D01*
X69555Y-54788D01*
X69551Y-54784D01*
X69515Y-54784D01*
X69505Y-54788D01*
X69427Y-54788D01*
X69417Y-54784D01*
X69381Y-54784D01*
X69377Y-54788D01*
X69318Y-54788D01*
X69318Y-54846D01*
X69314Y-54850D01*
X69314Y-54887D01*
X69318Y-54896D01*
X69318Y-54975D01*
X69314Y-54984D01*
X69314Y-55021D01*
X69318Y-55025D01*
X69318Y-55083D01*
X69377Y-55083D01*
X69381Y-55087D01*
X69417Y-55087D01*
X69427Y-55083D01*
X69505Y-55083D01*
X69515Y-55087D01*
X69551Y-55087D01*
X69555Y-55083D01*
X69613Y-55083D01*
X69613Y-55025D01*
X69617Y-55021D01*
X69617Y-55244D01*
X69613Y-55240D01*
X69613Y-55182D01*
X69555Y-55182D01*
X69551Y-55178D01*
X69515Y-55178D01*
X69505Y-55182D01*
X69427Y-55182D01*
X69417Y-55178D01*
X69381Y-55178D01*
X69377Y-55182D01*
X69318Y-55182D01*
X69318Y-55240D01*
X69314Y-55244D01*
X69314Y-55281D01*
X69318Y-55290D01*
X69318Y-55368D01*
X69314Y-55378D01*
X69314Y-55414D01*
X69318Y-55418D01*
X69318Y-55477D01*
X69377Y-55477D01*
X69381Y-55481D01*
X69417Y-55481D01*
X69427Y-55477D01*
X69505Y-55477D01*
X69515Y-55481D01*
X69551Y-55481D01*
X69555Y-55477D01*
X69613Y-55477D01*
X69613Y-55418D01*
X69617Y-55414D01*
X69617Y-55638D01*
X69613Y-55634D01*
X69613Y-55575D01*
X69555Y-55575D01*
X69377Y-55575D01*
X69318Y-55575D01*
X69318Y-55634D01*
X69314Y-55638D01*
X69314Y-55674D01*
X69318Y-55684D01*
X69318Y-55812D01*
X69381Y-55874D01*
X69417Y-55875D01*
X69466Y-55854D01*
X69515Y-55875D01*
X69551Y-55874D01*
X69613Y-55812D01*
X69613Y-55684D01*
X69617Y-55674D01*
X69617Y-55638D01*
X69617Y-56721D01*
X69567Y-56771D01*
X69527Y-56869D01*
X69526Y-56974D01*
X69567Y-57071D01*
X69641Y-57146D01*
X69739Y-57186D01*
X69844Y-57187D01*
X69941Y-57146D01*
X70016Y-57072D01*
X70056Y-56974D01*
X70057Y-56869D01*
X70057Y-58098D01*
X70038Y-58054D01*
X69964Y-57979D01*
X69866Y-57939D01*
X69761Y-57938D01*
X69664Y-57979D01*
X69655Y-57988D01*
X69655Y-57623D01*
X69614Y-57526D01*
X69540Y-57451D01*
X69453Y-57415D01*
X69453Y-56909D01*
X69412Y-56812D01*
X69338Y-56737D01*
X69240Y-56697D01*
X69220Y-56697D01*
X69220Y-55812D01*
X69220Y-55575D01*
X69220Y-55477D01*
X69220Y-55418D01*
X69220Y-55240D01*
X69220Y-55182D01*
X69220Y-55083D01*
X69220Y-55025D01*
X69220Y-54846D01*
X69220Y-54788D01*
X69220Y-54689D01*
X69220Y-54631D01*
X69220Y-54453D01*
X69220Y-54394D01*
X69220Y-54296D01*
X69220Y-54059D01*
X69157Y-53997D01*
X69121Y-53996D01*
X69029Y-54034D01*
X68977Y-54087D01*
X68977Y-53651D01*
X68936Y-53554D01*
X68862Y-53479D01*
X68764Y-53439D01*
X68659Y-53438D01*
X68562Y-53479D01*
X68487Y-53553D01*
X68480Y-53571D01*
X68480Y-50342D01*
X68446Y-50261D01*
X68384Y-50199D01*
X68303Y-50166D01*
X68216Y-50165D01*
X68135Y-50199D01*
X68073Y-50261D01*
X68040Y-50342D01*
X68039Y-50429D01*
X68073Y-50510D01*
X68135Y-50572D01*
X68216Y-50605D01*
X68303Y-50606D01*
X68384Y-50572D01*
X68446Y-50510D01*
X68479Y-50429D01*
X68480Y-50342D01*
X68480Y-53571D01*
X68447Y-53651D01*
X68446Y-53756D01*
X68487Y-53853D01*
X68561Y-53928D01*
X68659Y-53968D01*
X68764Y-53969D01*
X68861Y-53928D01*
X68936Y-53854D01*
X68976Y-53756D01*
X68977Y-53651D01*
X68977Y-54087D01*
X68959Y-54105D01*
X68921Y-54197D01*
X68921Y-54233D01*
X68983Y-54296D01*
X69220Y-54296D01*
X69220Y-54394D01*
X69161Y-54394D01*
X69157Y-54390D01*
X69121Y-54390D01*
X69111Y-54394D01*
X68983Y-54394D01*
X68921Y-54457D01*
X68921Y-54493D01*
X68941Y-54542D01*
X68921Y-54590D01*
X68921Y-54627D01*
X68983Y-54689D01*
X69111Y-54689D01*
X69121Y-54693D01*
X69157Y-54693D01*
X69161Y-54689D01*
X69220Y-54689D01*
X69220Y-54788D01*
X69161Y-54788D01*
X69157Y-54784D01*
X69121Y-54784D01*
X69111Y-54788D01*
X68983Y-54788D01*
X68921Y-54850D01*
X68921Y-54887D01*
X68941Y-54936D01*
X68921Y-54984D01*
X68921Y-55021D01*
X68983Y-55083D01*
X69111Y-55083D01*
X69121Y-55087D01*
X69157Y-55087D01*
X69161Y-55083D01*
X69220Y-55083D01*
X69220Y-55182D01*
X69161Y-55182D01*
X69157Y-55178D01*
X69121Y-55178D01*
X69111Y-55182D01*
X68983Y-55182D01*
X68921Y-55244D01*
X68921Y-55281D01*
X68941Y-55329D01*
X68921Y-55378D01*
X68921Y-55414D01*
X68983Y-55477D01*
X69111Y-55477D01*
X69121Y-55481D01*
X69157Y-55481D01*
X69161Y-55477D01*
X69220Y-55477D01*
X69220Y-55575D01*
X68983Y-55575D01*
X68921Y-55638D01*
X68921Y-55674D01*
X68959Y-55766D01*
X69029Y-55837D01*
X69121Y-55875D01*
X69157Y-55874D01*
X69220Y-55812D01*
X69220Y-56697D01*
X69135Y-56696D01*
X69038Y-56737D01*
X68963Y-56811D01*
X68923Y-56909D01*
X68922Y-57014D01*
X68963Y-57111D01*
X69037Y-57186D01*
X69135Y-57226D01*
X69240Y-57227D01*
X69337Y-57186D01*
X69412Y-57112D01*
X69452Y-57014D01*
X69453Y-56909D01*
X69453Y-57415D01*
X69442Y-57411D01*
X69337Y-57410D01*
X69240Y-57451D01*
X69165Y-57525D01*
X69125Y-57623D01*
X69124Y-57728D01*
X69165Y-57825D01*
X69239Y-57900D01*
X69337Y-57940D01*
X69442Y-57941D01*
X69539Y-57900D01*
X69614Y-57826D01*
X69654Y-57728D01*
X69655Y-57623D01*
X69655Y-57988D01*
X69589Y-58053D01*
X69549Y-58151D01*
X69548Y-58256D01*
X69589Y-58353D01*
X69663Y-58428D01*
X69761Y-58468D01*
X69866Y-58469D01*
X69963Y-58428D01*
X70038Y-58354D01*
X70078Y-58256D01*
X70079Y-58151D01*
X70079Y-61293D01*
X70065Y-61294D01*
X69908Y-61451D01*
X69903Y-61449D01*
X69861Y-61452D01*
X69858Y-61404D01*
X69861Y-61407D01*
X70019Y-61248D01*
X70022Y-61175D01*
X69903Y-61134D01*
X69778Y-61142D01*
X69703Y-61173D01*
X69588Y-61134D01*
X69505Y-61139D01*
X69505Y-58497D01*
X69464Y-58400D01*
X69390Y-58325D01*
X69292Y-58285D01*
X69187Y-58284D01*
X69090Y-58325D01*
X69018Y-58397D01*
X69018Y-57739D01*
X68971Y-57626D01*
X68885Y-57539D01*
X68775Y-57494D01*
X68794Y-57446D01*
X68795Y-57341D01*
X68779Y-57302D01*
X68779Y-56471D01*
X68738Y-56374D01*
X68664Y-56299D01*
X68575Y-56262D01*
X68575Y-55617D01*
X68534Y-55520D01*
X68460Y-55445D01*
X68400Y-55420D01*
X68400Y-54067D01*
X68359Y-53970D01*
X68285Y-53895D01*
X68187Y-53855D01*
X68082Y-53854D01*
X67985Y-53895D01*
X67910Y-53969D01*
X67870Y-54067D01*
X67869Y-54172D01*
X67910Y-54269D01*
X67984Y-54344D01*
X67984Y-54344D01*
X67906Y-54377D01*
X67831Y-54451D01*
X67806Y-54512D01*
X67806Y-49437D01*
X67802Y-49427D01*
X67802Y-46935D01*
X67755Y-46822D01*
X67669Y-46735D01*
X67556Y-46689D01*
X67434Y-46688D01*
X67321Y-46735D01*
X67234Y-46821D01*
X67188Y-46934D01*
X67187Y-47056D01*
X67234Y-47169D01*
X67320Y-47256D01*
X67433Y-47302D01*
X67555Y-47303D01*
X67668Y-47256D01*
X67755Y-47170D01*
X67801Y-47057D01*
X67802Y-46935D01*
X67802Y-49427D01*
X67759Y-49324D01*
X67673Y-49237D01*
X67560Y-49191D01*
X67438Y-49190D01*
X67325Y-49237D01*
X67238Y-49323D01*
X67192Y-49436D01*
X67191Y-49558D01*
X67238Y-49671D01*
X67324Y-49758D01*
X67437Y-49804D01*
X67559Y-49805D01*
X67672Y-49758D01*
X67759Y-49672D01*
X67805Y-49559D01*
X67806Y-49437D01*
X67806Y-54512D01*
X67791Y-54549D01*
X67790Y-54654D01*
X67831Y-54751D01*
X67905Y-54826D01*
X68003Y-54866D01*
X68108Y-54867D01*
X68205Y-54826D01*
X68280Y-54752D01*
X68320Y-54654D01*
X68321Y-54549D01*
X68280Y-54452D01*
X68206Y-54377D01*
X68206Y-54377D01*
X68284Y-54344D01*
X68359Y-54270D01*
X68399Y-54172D01*
X68400Y-54067D01*
X68400Y-55420D01*
X68362Y-55405D01*
X68257Y-55404D01*
X68160Y-55445D01*
X68085Y-55519D01*
X68045Y-55617D01*
X68045Y-55632D01*
X68026Y-55613D01*
X67928Y-55573D01*
X67823Y-55572D01*
X67726Y-55613D01*
X67651Y-55687D01*
X67611Y-55785D01*
X67610Y-55890D01*
X67651Y-55987D01*
X67725Y-56062D01*
X67823Y-56102D01*
X67928Y-56103D01*
X68025Y-56062D01*
X68100Y-55988D01*
X68140Y-55890D01*
X68140Y-55875D01*
X68159Y-55894D01*
X68257Y-55934D01*
X68362Y-55935D01*
X68459Y-55894D01*
X68534Y-55820D01*
X68574Y-55722D01*
X68575Y-55617D01*
X68575Y-56262D01*
X68566Y-56259D01*
X68461Y-56258D01*
X68364Y-56299D01*
X68289Y-56373D01*
X68249Y-56471D01*
X68248Y-56576D01*
X68289Y-56673D01*
X68363Y-56748D01*
X68461Y-56788D01*
X68566Y-56789D01*
X68663Y-56748D01*
X68738Y-56674D01*
X68778Y-56576D01*
X68779Y-56471D01*
X68779Y-57302D01*
X68754Y-57244D01*
X68680Y-57169D01*
X68582Y-57129D01*
X68477Y-57128D01*
X68380Y-57169D01*
X68305Y-57243D01*
X68284Y-57295D01*
X68284Y-56724D01*
X68243Y-56627D01*
X68169Y-56552D01*
X68071Y-56512D01*
X67966Y-56511D01*
X67869Y-56552D01*
X67794Y-56626D01*
X67754Y-56724D01*
X67753Y-56829D01*
X67794Y-56926D01*
X67868Y-57001D01*
X67966Y-57041D01*
X68071Y-57042D01*
X68168Y-57001D01*
X68243Y-56927D01*
X68283Y-56829D01*
X68284Y-56724D01*
X68284Y-57295D01*
X68265Y-57341D01*
X68264Y-57446D01*
X68305Y-57543D01*
X68379Y-57618D01*
X68443Y-57644D01*
X68404Y-57738D01*
X68403Y-57860D01*
X68450Y-57973D01*
X68536Y-58060D01*
X68649Y-58106D01*
X68771Y-58107D01*
X68884Y-58060D01*
X68971Y-57974D01*
X69017Y-57861D01*
X69018Y-57739D01*
X69018Y-58397D01*
X69015Y-58399D01*
X68975Y-58497D01*
X68974Y-58602D01*
X69015Y-58699D01*
X69062Y-58747D01*
X69035Y-58813D01*
X69034Y-58900D01*
X69068Y-58981D01*
X69130Y-59043D01*
X69211Y-59076D01*
X69298Y-59077D01*
X69379Y-59043D01*
X69441Y-58981D01*
X69474Y-58900D01*
X69475Y-58813D01*
X69441Y-58732D01*
X69436Y-58727D01*
X69464Y-58700D01*
X69504Y-58602D01*
X69505Y-58497D01*
X69505Y-61139D01*
X69496Y-61140D01*
X69496Y-60513D01*
X69455Y-60416D01*
X69381Y-60341D01*
X69283Y-60301D01*
X69178Y-60300D01*
X69081Y-60341D01*
X69006Y-60415D01*
X68966Y-60513D01*
X68965Y-60618D01*
X69006Y-60715D01*
X69080Y-60790D01*
X69178Y-60830D01*
X69283Y-60831D01*
X69380Y-60790D01*
X69455Y-60716D01*
X69495Y-60618D01*
X69496Y-60513D01*
X69496Y-61140D01*
X69463Y-61142D01*
X69388Y-61173D01*
X69273Y-61134D01*
X69148Y-61142D01*
X69113Y-61157D01*
X69069Y-61175D01*
X69071Y-61222D01*
X69042Y-61194D01*
X69072Y-61164D01*
X69112Y-61066D01*
X69113Y-60961D01*
X69072Y-60864D01*
X68998Y-60789D01*
X68900Y-60749D01*
X68795Y-60748D01*
X68698Y-60789D01*
X68623Y-60863D01*
X68583Y-60961D01*
X68582Y-61066D01*
X68623Y-61163D01*
X68697Y-61238D01*
X68795Y-61278D01*
X68900Y-61279D01*
X68988Y-61242D01*
X68969Y-61261D01*
X69000Y-61293D01*
X68953Y-61291D01*
X68912Y-61410D01*
X68920Y-61535D01*
X68951Y-61610D01*
X68912Y-61725D01*
X68920Y-61850D01*
X68951Y-61925D01*
X68912Y-62040D01*
X68920Y-62165D01*
X68953Y-62244D01*
X69026Y-62241D01*
X69183Y-62084D01*
X69188Y-62086D01*
X69230Y-62083D01*
X69233Y-62131D01*
X69231Y-62128D01*
X69072Y-62287D01*
X69069Y-62360D01*
X69188Y-62401D01*
X69313Y-62393D01*
X69388Y-62362D01*
X69503Y-62401D01*
X69628Y-62393D01*
X69703Y-62362D01*
X69818Y-62401D01*
X69943Y-62393D01*
X70022Y-62360D01*
X70019Y-62287D01*
X69862Y-62130D01*
X69864Y-62125D01*
X69861Y-62083D01*
X69909Y-62080D01*
X69906Y-62083D01*
X70065Y-62241D01*
X70138Y-62244D01*
X70179Y-62125D01*
X70179Y-62559D01*
X70152Y-62571D01*
X70077Y-62645D01*
X70037Y-62743D01*
X70036Y-62848D01*
X70041Y-62860D01*
X69138Y-62860D01*
X69160Y-62804D01*
X69161Y-62699D01*
X69120Y-62602D01*
X69046Y-62527D01*
X68948Y-62487D01*
X68843Y-62486D01*
X68746Y-62527D01*
X68671Y-62601D01*
X68631Y-62699D01*
X68630Y-62804D01*
X68653Y-62860D01*
X68599Y-62860D01*
X68614Y-62822D01*
X68615Y-62717D01*
X68574Y-62620D01*
X68500Y-62545D01*
X68402Y-62505D01*
X68319Y-62504D01*
X68319Y-59952D01*
X68230Y-59738D01*
X68067Y-59575D01*
X67854Y-59487D01*
X67836Y-59487D01*
X67836Y-57739D01*
X67789Y-57626D01*
X67703Y-57539D01*
X67590Y-57493D01*
X67468Y-57492D01*
X67355Y-57539D01*
X67268Y-57625D01*
X67222Y-57738D01*
X67221Y-57860D01*
X67268Y-57973D01*
X67354Y-58060D01*
X67467Y-58106D01*
X67589Y-58107D01*
X67702Y-58060D01*
X67789Y-57974D01*
X67835Y-57861D01*
X67836Y-57739D01*
X67836Y-59487D01*
X67624Y-59486D01*
X67410Y-59575D01*
X67247Y-59738D01*
X67159Y-59951D01*
X67158Y-60181D01*
X67247Y-60395D01*
X67410Y-60558D01*
X67623Y-60646D01*
X67853Y-60647D01*
X68067Y-60558D01*
X68230Y-60395D01*
X68318Y-60182D01*
X68319Y-59952D01*
X68319Y-62504D01*
X68297Y-62504D01*
X68200Y-62545D01*
X68125Y-62619D01*
X68085Y-62717D01*
X68084Y-62822D01*
X68100Y-62860D01*
X67844Y-62860D01*
X67844Y-61934D01*
X67061Y-61934D01*
X67061Y-43439D01*
X68072Y-43439D01*
X68059Y-43451D01*
X68019Y-43549D01*
X68018Y-43654D01*
X68059Y-43751D01*
X68133Y-43826D01*
X68231Y-43866D01*
X68336Y-43867D01*
X68433Y-43826D01*
X68508Y-43752D01*
X68548Y-43654D01*
X68549Y-43549D01*
X68508Y-43452D01*
X68495Y-43439D01*
X70764Y-43439D01*
X70745Y-43487D01*
X70744Y-43592D01*
X70785Y-43689D01*
X70859Y-43764D01*
X70957Y-43804D01*
X71062Y-43805D01*
X71159Y-43764D01*
X71234Y-43690D01*
X71274Y-43592D01*
X71275Y-43487D01*
X71255Y-43439D01*
X72891Y-43439D01*
X72881Y-43465D01*
X72880Y-43570D01*
X72921Y-43667D01*
X72995Y-43742D01*
X73093Y-43782D01*
X73198Y-43783D01*
X73295Y-43742D01*
X73370Y-43668D01*
X73410Y-43570D01*
X73411Y-43465D01*
X73400Y-43439D01*
X78608Y-43439D01*
X78608Y-54994D01*
X78511Y-54954D01*
X78454Y-54953D01*
X78454Y-49383D01*
X78413Y-49286D01*
X78339Y-49211D01*
X78241Y-49171D01*
X78222Y-49171D01*
X78222Y-48838D01*
X78188Y-48757D01*
X78126Y-48695D01*
X78045Y-48662D01*
X77958Y-48661D01*
X77942Y-48668D01*
X77942Y-48274D01*
X77890Y-48146D01*
X77792Y-48049D01*
X77665Y-47996D01*
X77566Y-47996D01*
X77566Y-45840D01*
X77555Y-45813D01*
X77555Y-45097D01*
X77514Y-45000D01*
X77440Y-44925D01*
X77342Y-44885D01*
X77237Y-44884D01*
X77140Y-44925D01*
X77065Y-44999D01*
X77064Y-45003D01*
X77064Y-43804D01*
X77023Y-43707D01*
X76949Y-43632D01*
X76851Y-43592D01*
X76746Y-43591D01*
X76649Y-43632D01*
X76574Y-43706D01*
X76534Y-43804D01*
X76533Y-43909D01*
X76574Y-44006D01*
X76648Y-44081D01*
X76746Y-44121D01*
X76851Y-44122D01*
X76948Y-44081D01*
X77023Y-44007D01*
X77063Y-43909D01*
X77064Y-43804D01*
X77064Y-45003D01*
X77025Y-45097D01*
X77024Y-45202D01*
X77065Y-45299D01*
X77139Y-45374D01*
X77237Y-45414D01*
X77342Y-45415D01*
X77439Y-45374D01*
X77514Y-45300D01*
X77554Y-45202D01*
X77555Y-45097D01*
X77555Y-45813D01*
X77532Y-45759D01*
X77470Y-45697D01*
X77389Y-45664D01*
X77302Y-45663D01*
X77221Y-45697D01*
X77159Y-45759D01*
X77126Y-45840D01*
X77125Y-45927D01*
X77159Y-46008D01*
X77221Y-46070D01*
X77302Y-46103D01*
X77389Y-46104D01*
X77470Y-46070D01*
X77532Y-46008D01*
X77565Y-45927D01*
X77566Y-45840D01*
X77566Y-47996D01*
X77527Y-47996D01*
X77400Y-48048D01*
X77302Y-48146D01*
X77288Y-48181D01*
X77288Y-46878D01*
X77254Y-46797D01*
X77192Y-46735D01*
X77127Y-46708D01*
X77173Y-46689D01*
X77235Y-46627D01*
X77268Y-46546D01*
X77269Y-46459D01*
X77235Y-46378D01*
X77173Y-46316D01*
X77092Y-46283D01*
X77005Y-46282D01*
X76924Y-46316D01*
X76862Y-46378D01*
X76829Y-46459D01*
X76828Y-46546D01*
X76862Y-46627D01*
X76924Y-46689D01*
X76989Y-46716D01*
X76943Y-46735D01*
X76881Y-46797D01*
X76848Y-46878D01*
X76847Y-46965D01*
X76875Y-47033D01*
X76867Y-47030D01*
X76780Y-47029D01*
X76699Y-47063D01*
X76637Y-47125D01*
X76604Y-47206D01*
X76603Y-47293D01*
X76637Y-47374D01*
X76699Y-47436D01*
X76780Y-47469D01*
X76867Y-47470D01*
X76948Y-47436D01*
X77010Y-47374D01*
X77043Y-47293D01*
X77044Y-47206D01*
X77016Y-47138D01*
X77024Y-47141D01*
X77111Y-47142D01*
X77192Y-47108D01*
X77254Y-47046D01*
X77287Y-46965D01*
X77288Y-46878D01*
X77288Y-48181D01*
X77249Y-48273D01*
X77249Y-48411D01*
X77302Y-48538D01*
X77399Y-48636D01*
X77527Y-48689D01*
X77664Y-48689D01*
X77792Y-48636D01*
X77889Y-48539D01*
X77942Y-48411D01*
X77942Y-48274D01*
X77942Y-48668D01*
X77877Y-48695D01*
X77815Y-48757D01*
X77782Y-48838D01*
X77781Y-48925D01*
X77815Y-49006D01*
X77877Y-49068D01*
X77958Y-49101D01*
X78045Y-49102D01*
X78126Y-49068D01*
X78188Y-49006D01*
X78221Y-48925D01*
X78222Y-48838D01*
X78222Y-49171D01*
X78136Y-49170D01*
X78039Y-49211D01*
X77964Y-49285D01*
X77924Y-49383D01*
X77923Y-49488D01*
X77964Y-49585D01*
X78038Y-49660D01*
X78136Y-49700D01*
X78241Y-49701D01*
X78338Y-49660D01*
X78413Y-49586D01*
X78453Y-49488D01*
X78454Y-49383D01*
X78454Y-54953D01*
X78400Y-54953D01*
X78313Y-54990D01*
X78313Y-54196D01*
X78279Y-54115D01*
X78217Y-54053D01*
X78136Y-54020D01*
X78088Y-54019D01*
X78096Y-54012D01*
X78136Y-53914D01*
X78137Y-53809D01*
X78096Y-53712D01*
X78022Y-53637D01*
X77924Y-53597D01*
X77909Y-53597D01*
X77909Y-53273D01*
X77868Y-53176D01*
X77794Y-53101D01*
X77696Y-53061D01*
X77591Y-53060D01*
X77563Y-53072D01*
X77563Y-53021D01*
X77561Y-53017D01*
X77561Y-51931D01*
X77528Y-51851D01*
X77506Y-51828D01*
X77506Y-48966D01*
X77472Y-48885D01*
X77410Y-48823D01*
X77329Y-48790D01*
X77242Y-48789D01*
X77161Y-48823D01*
X77099Y-48885D01*
X77066Y-48966D01*
X77065Y-49053D01*
X77099Y-49134D01*
X77161Y-49196D01*
X77242Y-49229D01*
X77329Y-49230D01*
X77410Y-49196D01*
X77472Y-49134D01*
X77505Y-49053D01*
X77506Y-48966D01*
X77506Y-51828D01*
X77472Y-51794D01*
X77472Y-51330D01*
X77438Y-51249D01*
X77430Y-51240D01*
X77430Y-50398D01*
X77396Y-50317D01*
X77334Y-50255D01*
X77303Y-50242D01*
X77303Y-49891D01*
X77262Y-49794D01*
X77188Y-49719D01*
X77090Y-49679D01*
X77049Y-49679D01*
X77062Y-49646D01*
X77063Y-49541D01*
X77022Y-49444D01*
X76948Y-49369D01*
X76850Y-49329D01*
X76745Y-49328D01*
X76648Y-49369D01*
X76573Y-49443D01*
X76540Y-49524D01*
X76540Y-49481D01*
X76506Y-49401D01*
X76467Y-49361D01*
X76467Y-44043D01*
X76426Y-43946D01*
X76352Y-43871D01*
X76254Y-43831D01*
X76149Y-43830D01*
X76052Y-43871D01*
X75977Y-43945D01*
X75937Y-44043D01*
X75936Y-44148D01*
X75977Y-44245D01*
X76051Y-44320D01*
X76149Y-44360D01*
X76254Y-44361D01*
X76351Y-44320D01*
X76426Y-44246D01*
X76466Y-44148D01*
X76467Y-44043D01*
X76467Y-49361D01*
X76454Y-49348D01*
X76454Y-46286D01*
X76421Y-46206D01*
X76359Y-46144D01*
X76278Y-46110D01*
X76190Y-46110D01*
X76110Y-46143D01*
X76048Y-46205D01*
X76014Y-46286D01*
X76014Y-46374D01*
X76047Y-46454D01*
X76109Y-46516D01*
X76190Y-46550D01*
X76278Y-46550D01*
X76358Y-46517D01*
X76420Y-46455D01*
X76454Y-46374D01*
X76454Y-46286D01*
X76454Y-49348D01*
X76444Y-49339D01*
X76363Y-49305D01*
X76299Y-49305D01*
X76300Y-49184D01*
X76249Y-49063D01*
X76157Y-48970D01*
X76035Y-48920D01*
X75970Y-48919D01*
X75970Y-47366D01*
X75946Y-47308D01*
X75946Y-46172D01*
X75912Y-46092D01*
X75886Y-46065D01*
X75886Y-44129D01*
X75797Y-43915D01*
X75634Y-43752D01*
X75421Y-43664D01*
X75191Y-43663D01*
X74977Y-43752D01*
X74814Y-43915D01*
X74726Y-44128D01*
X74725Y-44358D01*
X74814Y-44572D01*
X74977Y-44735D01*
X75190Y-44823D01*
X75311Y-44824D01*
X75309Y-44825D01*
X75269Y-44923D01*
X75268Y-45028D01*
X75309Y-45125D01*
X75383Y-45200D01*
X75481Y-45240D01*
X75586Y-45241D01*
X75683Y-45200D01*
X75758Y-45126D01*
X75798Y-45028D01*
X75799Y-44923D01*
X75758Y-44826D01*
X75684Y-44751D01*
X75637Y-44732D01*
X75797Y-44572D01*
X75885Y-44359D01*
X75886Y-44129D01*
X75886Y-46065D01*
X75850Y-46030D01*
X75769Y-45996D01*
X75682Y-45996D01*
X75601Y-46029D01*
X75539Y-46091D01*
X75506Y-46172D01*
X75505Y-46260D01*
X75539Y-46340D01*
X75601Y-46402D01*
X75682Y-46436D01*
X75769Y-46436D01*
X75850Y-46403D01*
X75912Y-46341D01*
X75945Y-46260D01*
X75946Y-46172D01*
X75946Y-47308D01*
X75927Y-47263D01*
X75848Y-47184D01*
X75745Y-47142D01*
X75634Y-47141D01*
X75531Y-47184D01*
X75452Y-47263D01*
X75410Y-47366D01*
X75409Y-47477D01*
X75452Y-47580D01*
X75531Y-47659D01*
X75634Y-47701D01*
X75745Y-47702D01*
X75848Y-47659D01*
X75927Y-47580D01*
X75969Y-47477D01*
X75970Y-47366D01*
X75970Y-48919D01*
X75904Y-48919D01*
X75783Y-48970D01*
X75719Y-49033D01*
X75657Y-48970D01*
X75535Y-48920D01*
X75497Y-48920D01*
X75497Y-47845D01*
X75456Y-47748D01*
X75382Y-47673D01*
X75284Y-47633D01*
X75255Y-47633D01*
X75255Y-45235D01*
X75214Y-45138D01*
X75140Y-45063D01*
X75042Y-45023D01*
X74937Y-45022D01*
X74840Y-45063D01*
X74765Y-45137D01*
X74725Y-45235D01*
X74724Y-45340D01*
X74765Y-45437D01*
X74839Y-45512D01*
X74937Y-45552D01*
X75042Y-45553D01*
X75139Y-45512D01*
X75214Y-45438D01*
X75254Y-45340D01*
X75255Y-45235D01*
X75255Y-47633D01*
X75179Y-47632D01*
X75082Y-47673D01*
X75062Y-47693D01*
X75062Y-46890D01*
X75019Y-46787D01*
X74940Y-46708D01*
X74844Y-46668D01*
X74844Y-45720D01*
X74810Y-45639D01*
X74748Y-45577D01*
X74667Y-45544D01*
X74663Y-45544D01*
X74663Y-43795D01*
X74622Y-43698D01*
X74548Y-43623D01*
X74450Y-43583D01*
X74345Y-43582D01*
X74248Y-43623D01*
X74173Y-43697D01*
X74133Y-43795D01*
X74132Y-43900D01*
X74173Y-43997D01*
X74247Y-44072D01*
X74345Y-44112D01*
X74450Y-44113D01*
X74547Y-44072D01*
X74622Y-43998D01*
X74662Y-43900D01*
X74663Y-43795D01*
X74663Y-45544D01*
X74633Y-45544D01*
X74633Y-45247D01*
X74592Y-45150D01*
X74518Y-45075D01*
X74420Y-45035D01*
X74315Y-45034D01*
X74236Y-45067D01*
X74236Y-44632D01*
X74202Y-44551D01*
X74140Y-44489D01*
X74059Y-44456D01*
X73972Y-44455D01*
X73891Y-44489D01*
X73879Y-44501D01*
X73829Y-44451D01*
X73731Y-44411D01*
X73626Y-44410D01*
X73538Y-44447D01*
X73480Y-44389D01*
X73382Y-44349D01*
X73277Y-44348D01*
X73180Y-44389D01*
X73105Y-44463D01*
X73065Y-44561D01*
X73064Y-44666D01*
X73105Y-44763D01*
X73179Y-44838D01*
X73277Y-44878D01*
X73382Y-44879D01*
X73470Y-44842D01*
X73528Y-44900D01*
X73626Y-44940D01*
X73731Y-44941D01*
X73828Y-44900D01*
X73879Y-44850D01*
X73891Y-44862D01*
X73972Y-44895D01*
X74059Y-44896D01*
X74140Y-44862D01*
X74202Y-44800D01*
X74235Y-44719D01*
X74236Y-44632D01*
X74236Y-45067D01*
X74218Y-45075D01*
X74143Y-45149D01*
X74103Y-45247D01*
X74102Y-45352D01*
X74143Y-45449D01*
X74217Y-45524D01*
X74315Y-45564D01*
X74420Y-45565D01*
X74517Y-45524D01*
X74592Y-45450D01*
X74632Y-45352D01*
X74633Y-45247D01*
X74633Y-45544D01*
X74580Y-45543D01*
X74499Y-45577D01*
X74437Y-45639D01*
X74404Y-45720D01*
X74403Y-45807D01*
X74437Y-45888D01*
X74499Y-45950D01*
X74580Y-45983D01*
X74667Y-45984D01*
X74748Y-45950D01*
X74810Y-45888D01*
X74843Y-45807D01*
X74844Y-45720D01*
X74844Y-46668D01*
X74837Y-46666D01*
X74726Y-46665D01*
X74623Y-46708D01*
X74544Y-46787D01*
X74502Y-46890D01*
X74501Y-47001D01*
X74544Y-47104D01*
X74623Y-47183D01*
X74726Y-47225D01*
X74837Y-47226D01*
X74940Y-47183D01*
X75019Y-47104D01*
X75061Y-47001D01*
X75062Y-46890D01*
X75062Y-47693D01*
X75007Y-47747D01*
X74967Y-47845D01*
X74966Y-47950D01*
X75007Y-48047D01*
X75081Y-48122D01*
X75179Y-48162D01*
X75284Y-48163D01*
X75381Y-48122D01*
X75456Y-48048D01*
X75496Y-47950D01*
X75497Y-47845D01*
X75497Y-48920D01*
X75404Y-48919D01*
X75367Y-48935D01*
X75391Y-48910D01*
X75425Y-48829D01*
X75425Y-48742D01*
X75392Y-48661D01*
X75330Y-48599D01*
X75249Y-48566D01*
X75161Y-48565D01*
X75081Y-48599D01*
X75019Y-48661D01*
X74985Y-48742D01*
X74985Y-48829D01*
X75018Y-48910D01*
X75080Y-48972D01*
X75161Y-49005D01*
X75247Y-49006D01*
X75190Y-49062D01*
X75140Y-49184D01*
X75139Y-49315D01*
X75190Y-49436D01*
X75253Y-49500D01*
X75190Y-49562D01*
X75140Y-49684D01*
X75139Y-49815D01*
X75190Y-49936D01*
X75253Y-50000D01*
X75190Y-50062D01*
X75140Y-50184D01*
X75139Y-50315D01*
X75190Y-50436D01*
X75253Y-50500D01*
X75190Y-50562D01*
X75140Y-50684D01*
X75139Y-50815D01*
X75190Y-50936D01*
X75253Y-51000D01*
X75190Y-51062D01*
X75140Y-51184D01*
X75139Y-51315D01*
X75190Y-51436D01*
X75282Y-51529D01*
X75404Y-51579D01*
X75535Y-51580D01*
X75640Y-51536D01*
X75639Y-51575D01*
X75639Y-51975D01*
X75659Y-52023D01*
X75696Y-52060D01*
X75744Y-52079D01*
X75795Y-52080D01*
X76114Y-52080D01*
X76126Y-52109D01*
X76188Y-52171D01*
X76269Y-52204D01*
X76356Y-52205D01*
X76437Y-52171D01*
X76499Y-52109D01*
X76532Y-52028D01*
X76533Y-51941D01*
X76499Y-51860D01*
X76437Y-51798D01*
X76356Y-51765D01*
X76300Y-51764D01*
X76300Y-51524D01*
X76280Y-51476D01*
X76245Y-51441D01*
X76249Y-51437D01*
X76299Y-51315D01*
X76300Y-51184D01*
X76249Y-51063D01*
X76186Y-50999D01*
X76249Y-50937D01*
X76299Y-50815D01*
X76300Y-50684D01*
X76249Y-50563D01*
X76186Y-50499D01*
X76249Y-50437D01*
X76299Y-50315D01*
X76300Y-50184D01*
X76249Y-50063D01*
X76186Y-49999D01*
X76249Y-49937D01*
X76299Y-49815D01*
X76300Y-49745D01*
X76363Y-49745D01*
X76444Y-49712D01*
X76506Y-49650D01*
X76533Y-49586D01*
X76532Y-49646D01*
X76572Y-49743D01*
X76555Y-49736D01*
X76468Y-49735D01*
X76387Y-49769D01*
X76325Y-49831D01*
X76292Y-49912D01*
X76291Y-49999D01*
X76325Y-50080D01*
X76387Y-50142D01*
X76468Y-50175D01*
X76555Y-50176D01*
X76636Y-50142D01*
X76698Y-50080D01*
X76731Y-49999D01*
X76732Y-49912D01*
X76702Y-49841D01*
X76745Y-49858D01*
X76786Y-49858D01*
X76773Y-49891D01*
X76772Y-49996D01*
X76813Y-50093D01*
X76887Y-50168D01*
X76985Y-50208D01*
X77090Y-50209D01*
X77187Y-50168D01*
X77262Y-50094D01*
X77302Y-49996D01*
X77303Y-49891D01*
X77303Y-50242D01*
X77253Y-50222D01*
X77166Y-50221D01*
X77085Y-50255D01*
X77023Y-50317D01*
X76990Y-50398D01*
X76989Y-50485D01*
X77023Y-50566D01*
X77085Y-50628D01*
X77166Y-50661D01*
X77253Y-50662D01*
X77334Y-50628D01*
X77396Y-50566D01*
X77429Y-50485D01*
X77430Y-50398D01*
X77430Y-51240D01*
X77376Y-51187D01*
X77295Y-51154D01*
X77208Y-51153D01*
X77127Y-51187D01*
X77065Y-51249D01*
X77032Y-51330D01*
X77031Y-51417D01*
X77065Y-51498D01*
X77127Y-51560D01*
X77208Y-51593D01*
X77295Y-51594D01*
X77376Y-51560D01*
X77438Y-51498D01*
X77471Y-51417D01*
X77472Y-51330D01*
X77472Y-51794D01*
X77466Y-51789D01*
X77385Y-51755D01*
X77297Y-51755D01*
X77217Y-51788D01*
X77155Y-51850D01*
X77121Y-51931D01*
X77121Y-52019D01*
X77154Y-52099D01*
X77216Y-52161D01*
X77297Y-52195D01*
X77385Y-52195D01*
X77465Y-52162D01*
X77527Y-52100D01*
X77561Y-52019D01*
X77561Y-51931D01*
X77561Y-53017D01*
X77522Y-52924D01*
X77448Y-52849D01*
X77438Y-52845D01*
X77438Y-52439D01*
X77405Y-52359D01*
X77343Y-52297D01*
X77262Y-52263D01*
X77174Y-52263D01*
X77094Y-52296D01*
X77032Y-52358D01*
X76998Y-52439D01*
X76998Y-52527D01*
X77031Y-52607D01*
X77093Y-52669D01*
X77174Y-52703D01*
X77262Y-52703D01*
X77342Y-52670D01*
X77404Y-52608D01*
X77438Y-52527D01*
X77438Y-52439D01*
X77438Y-52845D01*
X77350Y-52809D01*
X77245Y-52808D01*
X77148Y-52849D01*
X77073Y-52923D01*
X77033Y-53021D01*
X77032Y-53126D01*
X77069Y-53214D01*
X77064Y-53213D01*
X76959Y-53212D01*
X76862Y-53253D01*
X76787Y-53327D01*
X76747Y-53425D01*
X76746Y-53530D01*
X76787Y-53627D01*
X76861Y-53702D01*
X76915Y-53724D01*
X76899Y-53765D01*
X76898Y-53870D01*
X76939Y-53967D01*
X77013Y-54042D01*
X77111Y-54082D01*
X77216Y-54083D01*
X77313Y-54042D01*
X77388Y-53968D01*
X77428Y-53870D01*
X77429Y-53765D01*
X77388Y-53668D01*
X77314Y-53593D01*
X77260Y-53571D01*
X77276Y-53530D01*
X77277Y-53425D01*
X77240Y-53337D01*
X77245Y-53338D01*
X77350Y-53339D01*
X77378Y-53327D01*
X77378Y-53378D01*
X77419Y-53475D01*
X77493Y-53550D01*
X77591Y-53590D01*
X77696Y-53591D01*
X77793Y-53550D01*
X77868Y-53476D01*
X77908Y-53378D01*
X77909Y-53273D01*
X77909Y-53597D01*
X77819Y-53596D01*
X77722Y-53637D01*
X77647Y-53711D01*
X77607Y-53809D01*
X77606Y-53914D01*
X77647Y-54011D01*
X77672Y-54037D01*
X77642Y-54110D01*
X77641Y-54154D01*
X77574Y-54127D01*
X77469Y-54126D01*
X77372Y-54167D01*
X77297Y-54241D01*
X77257Y-54339D01*
X77256Y-54444D01*
X77297Y-54541D01*
X77371Y-54616D01*
X77469Y-54656D01*
X77574Y-54657D01*
X77671Y-54616D01*
X77746Y-54542D01*
X77786Y-54444D01*
X77787Y-54361D01*
X77818Y-54373D01*
X77905Y-54374D01*
X77912Y-54371D01*
X77968Y-54426D01*
X78049Y-54459D01*
X78136Y-54460D01*
X78217Y-54426D01*
X78279Y-54364D01*
X78312Y-54283D01*
X78313Y-54196D01*
X78313Y-54990D01*
X78297Y-54996D01*
X78230Y-55063D01*
X78230Y-54800D01*
X78196Y-54719D01*
X78134Y-54657D01*
X78053Y-54624D01*
X77966Y-54623D01*
X77885Y-54657D01*
X77823Y-54719D01*
X77790Y-54800D01*
X77789Y-54887D01*
X77823Y-54968D01*
X77885Y-55030D01*
X77966Y-55063D01*
X78053Y-55064D01*
X78134Y-55030D01*
X78196Y-54968D01*
X78229Y-54887D01*
X78230Y-54800D01*
X78230Y-55063D01*
X78218Y-55075D01*
X78176Y-55178D01*
X78175Y-55289D01*
X78218Y-55392D01*
X78297Y-55471D01*
X78400Y-55513D01*
X78511Y-55514D01*
X78608Y-55474D01*
X78608Y-60377D01*
X78521Y-60290D01*
X78521Y-57558D01*
X78508Y-57375D01*
X78462Y-57264D01*
X78376Y-57248D01*
X78376Y-57248D01*
X78376Y-57247D01*
X78462Y-57231D01*
X78521Y-57058D01*
X78521Y-56058D01*
X78508Y-55875D01*
X78462Y-55764D01*
X78376Y-55748D01*
X78305Y-55818D01*
X78305Y-55677D01*
X78289Y-55591D01*
X78116Y-55532D01*
X77933Y-55545D01*
X77822Y-55591D01*
X77806Y-55677D01*
X78056Y-55927D01*
X78305Y-55677D01*
X78305Y-55818D01*
X78126Y-55998D01*
X78376Y-56247D01*
X78462Y-56231D01*
X78521Y-56058D01*
X78521Y-57058D01*
X78508Y-56875D01*
X78462Y-56764D01*
X78376Y-56748D01*
X78126Y-56998D01*
X78132Y-57003D01*
X78102Y-57033D01*
X78015Y-57039D01*
X77979Y-57003D01*
X77985Y-56998D01*
X77979Y-56992D01*
X78050Y-56921D01*
X78056Y-56927D01*
X78160Y-56822D01*
X78248Y-56786D01*
X78344Y-56690D01*
X78395Y-56565D01*
X78396Y-56430D01*
X78344Y-56305D01*
X78248Y-56209D01*
X78160Y-56173D01*
X78056Y-56068D01*
X78050Y-56074D01*
X77979Y-56003D01*
X77985Y-55998D01*
X77880Y-55893D01*
X77844Y-55805D01*
X77748Y-55709D01*
X77623Y-55658D01*
X77488Y-55657D01*
X77363Y-55709D01*
X77309Y-55764D01*
X77309Y-54737D01*
X77268Y-54640D01*
X77194Y-54565D01*
X77096Y-54525D01*
X76991Y-54524D01*
X76894Y-54565D01*
X76819Y-54639D01*
X76779Y-54737D01*
X76778Y-54842D01*
X76819Y-54939D01*
X76893Y-55014D01*
X76991Y-55054D01*
X77096Y-55055D01*
X77193Y-55014D01*
X77268Y-54940D01*
X77308Y-54842D01*
X77309Y-54737D01*
X77309Y-55764D01*
X77267Y-55805D01*
X77216Y-55930D01*
X77215Y-56065D01*
X77267Y-56190D01*
X77325Y-56248D01*
X77267Y-56305D01*
X77216Y-56430D01*
X77215Y-56565D01*
X77267Y-56690D01*
X77325Y-56748D01*
X77267Y-56805D01*
X77216Y-56930D01*
X77215Y-57065D01*
X77267Y-57190D01*
X77325Y-57248D01*
X77267Y-57305D01*
X77216Y-57430D01*
X77215Y-57565D01*
X77267Y-57690D01*
X77325Y-57748D01*
X77267Y-57805D01*
X77216Y-57930D01*
X77215Y-58065D01*
X77267Y-58190D01*
X77305Y-58228D01*
X77240Y-58255D01*
X77165Y-58329D01*
X77137Y-58396D01*
X77100Y-58381D01*
X77024Y-58380D01*
X76994Y-58308D01*
X76920Y-58233D01*
X76882Y-58217D01*
X76882Y-57340D01*
X76848Y-57259D01*
X76807Y-57218D01*
X76820Y-57186D01*
X76820Y-57098D01*
X76787Y-57018D01*
X76725Y-56956D01*
X76644Y-56922D01*
X76556Y-56922D01*
X76476Y-56955D01*
X76414Y-57017D01*
X76380Y-57098D01*
X76380Y-57141D01*
X76303Y-57173D01*
X76256Y-57220D01*
X76256Y-56379D01*
X76222Y-56298D01*
X76160Y-56236D01*
X76079Y-56203D01*
X75992Y-56202D01*
X75941Y-56224D01*
X75941Y-53929D01*
X75900Y-53832D01*
X75826Y-53757D01*
X75774Y-53735D01*
X75774Y-53734D01*
X75775Y-53629D01*
X75734Y-53532D01*
X75660Y-53457D01*
X75562Y-53417D01*
X75457Y-53416D01*
X75360Y-53457D01*
X75285Y-53531D01*
X75275Y-53555D01*
X75230Y-53537D01*
X75125Y-53536D01*
X75028Y-53577D01*
X74953Y-53651D01*
X74913Y-53749D01*
X74912Y-53854D01*
X74953Y-53951D01*
X75027Y-54026D01*
X75125Y-54066D01*
X75230Y-54067D01*
X75327Y-54026D01*
X75402Y-53952D01*
X75411Y-53931D01*
X75410Y-54034D01*
X75451Y-54131D01*
X75525Y-54206D01*
X75623Y-54246D01*
X75728Y-54247D01*
X75825Y-54206D01*
X75900Y-54132D01*
X75940Y-54034D01*
X75941Y-53929D01*
X75941Y-56224D01*
X75911Y-56236D01*
X75849Y-56298D01*
X75816Y-56379D01*
X75815Y-56466D01*
X75849Y-56547D01*
X75911Y-56609D01*
X75989Y-56642D01*
X75932Y-56641D01*
X75851Y-56675D01*
X75789Y-56737D01*
X75756Y-56818D01*
X75755Y-56905D01*
X75789Y-56986D01*
X75851Y-57048D01*
X75932Y-57081D01*
X76019Y-57082D01*
X76100Y-57048D01*
X76162Y-56986D01*
X76195Y-56905D01*
X76196Y-56818D01*
X76162Y-56737D01*
X76100Y-56675D01*
X76022Y-56642D01*
X76079Y-56643D01*
X76160Y-56609D01*
X76222Y-56547D01*
X76255Y-56466D01*
X76256Y-56379D01*
X76256Y-57220D01*
X76241Y-57235D01*
X76208Y-57316D01*
X76207Y-57403D01*
X76241Y-57484D01*
X76303Y-57546D01*
X76384Y-57579D01*
X76471Y-57580D01*
X76524Y-57558D01*
X76537Y-57570D01*
X76618Y-57603D01*
X76705Y-57604D01*
X76786Y-57570D01*
X76848Y-57508D01*
X76881Y-57427D01*
X76882Y-57340D01*
X76882Y-58217D01*
X76822Y-58193D01*
X76717Y-58192D01*
X76620Y-58233D01*
X76620Y-58233D01*
X76557Y-58170D01*
X76459Y-58130D01*
X76354Y-58129D01*
X76257Y-58170D01*
X76205Y-58222D01*
X76127Y-58190D01*
X76022Y-58189D01*
X75963Y-58214D01*
X75944Y-58169D01*
X75899Y-58124D01*
X75971Y-58153D01*
X76058Y-58154D01*
X76139Y-58120D01*
X76201Y-58058D01*
X76234Y-57977D01*
X76235Y-57890D01*
X76201Y-57809D01*
X76139Y-57747D01*
X76058Y-57714D01*
X75971Y-57713D01*
X75890Y-57747D01*
X75828Y-57809D01*
X75795Y-57890D01*
X75794Y-57977D01*
X75828Y-58058D01*
X75873Y-58103D01*
X75801Y-58074D01*
X75714Y-58073D01*
X75633Y-58107D01*
X75571Y-58169D01*
X75538Y-58250D01*
X75537Y-58337D01*
X75571Y-58418D01*
X75633Y-58480D01*
X75714Y-58513D01*
X75801Y-58514D01*
X75811Y-58510D01*
X75850Y-58604D01*
X75924Y-58679D01*
X76022Y-58719D01*
X76127Y-58720D01*
X76224Y-58679D01*
X76276Y-58627D01*
X76354Y-58659D01*
X76459Y-58660D01*
X76556Y-58619D01*
X76556Y-58619D01*
X76619Y-58682D01*
X76661Y-58699D01*
X76602Y-58724D01*
X76527Y-58798D01*
X76487Y-58896D01*
X76486Y-59001D01*
X76527Y-59098D01*
X76601Y-59173D01*
X76699Y-59213D01*
X76804Y-59214D01*
X76901Y-59173D01*
X76976Y-59099D01*
X77016Y-59001D01*
X77017Y-58910D01*
X77100Y-58911D01*
X77197Y-58870D01*
X77272Y-58796D01*
X77300Y-58729D01*
X77337Y-58744D01*
X77442Y-58745D01*
X77539Y-58704D01*
X77614Y-58630D01*
X77654Y-58532D01*
X77655Y-58427D01*
X77618Y-58338D01*
X77623Y-58338D01*
X77742Y-58288D01*
X77772Y-58318D01*
X77820Y-58337D01*
X77871Y-58338D01*
X78291Y-58338D01*
X78339Y-58318D01*
X78376Y-58281D01*
X78395Y-58233D01*
X78396Y-58182D01*
X78396Y-57819D01*
X78422Y-57793D01*
X78396Y-57767D01*
X78396Y-57762D01*
X78389Y-57745D01*
X78462Y-57731D01*
X78521Y-57558D01*
X78521Y-60290D01*
X78457Y-60227D01*
X78421Y-60211D01*
X78421Y-59643D01*
X78380Y-59546D01*
X78306Y-59471D01*
X78295Y-59467D01*
X78313Y-59423D01*
X78314Y-59312D01*
X78271Y-59209D01*
X78192Y-59130D01*
X78089Y-59088D01*
X77978Y-59087D01*
X77875Y-59130D01*
X77796Y-59209D01*
X77754Y-59312D01*
X77753Y-59409D01*
X77741Y-59404D01*
X77722Y-59404D01*
X77723Y-59325D01*
X77682Y-59228D01*
X77608Y-59153D01*
X77510Y-59113D01*
X77405Y-59112D01*
X77308Y-59153D01*
X77233Y-59227D01*
X77193Y-59325D01*
X77192Y-59430D01*
X77233Y-59527D01*
X77307Y-59602D01*
X77405Y-59642D01*
X77406Y-59642D01*
X77405Y-59739D01*
X77448Y-59842D01*
X77527Y-59921D01*
X77630Y-59963D01*
X77741Y-59964D01*
X77844Y-59921D01*
X77923Y-59842D01*
X77926Y-59834D01*
X77931Y-59845D01*
X78005Y-59920D01*
X78103Y-59960D01*
X78208Y-59961D01*
X78305Y-59920D01*
X78380Y-59846D01*
X78420Y-59748D01*
X78421Y-59643D01*
X78421Y-60211D01*
X78244Y-60138D01*
X78014Y-60138D01*
X77800Y-60226D01*
X77637Y-60389D01*
X77549Y-60602D01*
X77548Y-60833D01*
X77637Y-61046D01*
X77717Y-61127D01*
X77681Y-61142D01*
X77602Y-61221D01*
X77560Y-61324D01*
X77559Y-61435D01*
X77602Y-61538D01*
X77681Y-61617D01*
X77784Y-61659D01*
X77895Y-61660D01*
X77998Y-61617D01*
X78077Y-61538D01*
X78119Y-61435D01*
X78120Y-61324D01*
X78109Y-61298D01*
X78243Y-61298D01*
X78457Y-61210D01*
X78608Y-61059D01*
X78608Y-62860D01*
M02*
