G04 (created by PCBNEW (2013-may-18)-stable) date Tue 16 Jul 2013 10:20:31 AM EDT*
%MOIN*%
G04 Gerber Fmt 3.4, Leading zero omitted, Abs format*
%FSLAX34Y34*%
G01*
G70*
G90*
G04 APERTURE LIST*
%ADD10C,0.00590551*%
%ADD11O,0.0492X0.0374*%
%ADD12O,0.0354X0.063*%
%ADD13C,0.0354*%
%ADD14C,0.013*%
%ADD15C,0.04*%
%ADD16R,0.04X0.04*%
%ADD17C,0.042*%
%ADD18R,0.042X0.042*%
%ADD19C,0.09*%
%ADD20C,0.023622*%
%ADD21R,0.019685X0.019685*%
%ADD22C,0.027*%
%ADD23C,0.018*%
%ADD24C,0.03*%
%ADD25C,0.006*%
%ADD26C,0.008*%
%ADD27C,0.016*%
%ADD28C,0.01*%
G04 APERTURE END LIST*
G54D10*
G54D11*
X74728Y-61373D03*
G54D12*
X75122Y-62436D03*
X72366Y-62436D03*
G54D11*
X72760Y-61373D03*
G54D13*
X68681Y-44524D03*
X67499Y-44524D03*
X68677Y-46996D03*
X67495Y-46996D03*
X68681Y-49498D03*
X67499Y-49498D03*
X68711Y-57800D03*
X67529Y-57800D03*
G54D14*
X69231Y-61768D03*
X69546Y-61768D03*
X69231Y-62083D03*
X69861Y-62083D03*
X69546Y-62083D03*
X69546Y-61453D03*
X69861Y-61768D03*
X69861Y-61453D03*
X69231Y-61453D03*
G54D15*
X71654Y-60130D03*
X72654Y-60130D03*
X72154Y-60130D03*
X73154Y-60130D03*
G54D16*
X73654Y-60130D03*
G54D15*
X76630Y-62508D03*
G54D16*
X76130Y-62508D03*
G54D15*
X75470Y-51750D03*
X75470Y-51250D03*
X75470Y-50750D03*
X75470Y-49750D03*
X75470Y-50250D03*
X75470Y-49250D03*
X75970Y-49250D03*
X75970Y-50250D03*
X75970Y-49750D03*
X75970Y-50750D03*
X75970Y-51250D03*
G54D16*
X75970Y-51750D03*
G54D17*
X78056Y-55998D03*
X77556Y-55998D03*
X78056Y-56998D03*
X77556Y-56998D03*
X77556Y-56498D03*
X78056Y-56498D03*
X78056Y-57498D03*
X77556Y-57498D03*
X77556Y-57998D03*
G54D18*
X78056Y-57998D03*
G54D19*
X67698Y-59948D03*
X75264Y-44226D03*
X78008Y-60670D03*
X69638Y-45828D03*
G54D20*
X76400Y-60240D03*
X76636Y-60082D03*
X76636Y-60397D03*
X76163Y-60397D03*
X76163Y-60082D03*
G54D21*
X70056Y-55526D03*
X70056Y-54345D03*
X70056Y-54739D03*
X70056Y-55132D03*
X70450Y-55132D03*
X70450Y-54739D03*
X70450Y-54345D03*
X70450Y-55526D03*
X69663Y-55526D03*
X69663Y-54345D03*
X69663Y-54739D03*
X69663Y-55132D03*
X69269Y-55132D03*
X69269Y-54739D03*
X69269Y-54345D03*
X69269Y-55526D03*
G54D22*
X68019Y-56777D03*
G54D23*
X69255Y-58857D03*
G54D22*
X67876Y-55838D03*
X69814Y-58204D03*
G54D23*
X70282Y-56756D03*
G54D22*
X71844Y-53970D03*
X75181Y-45998D03*
X71394Y-45572D03*
X72816Y-43552D03*
X71996Y-44932D03*
X70116Y-43998D03*
X70248Y-45172D03*
X70068Y-44308D03*
X77122Y-46400D03*
X76545Y-57623D03*
X71660Y-44904D03*
X77484Y-46750D03*
X76829Y-57429D03*
G54D23*
X75944Y-57435D03*
G54D22*
X73108Y-45570D03*
X71286Y-44718D03*
X73792Y-59698D03*
G54D23*
X75544Y-62664D03*
G54D22*
X71932Y-56468D03*
G54D23*
X73473Y-49521D03*
G54D22*
X72522Y-53804D03*
X69814Y-50874D03*
X68016Y-44664D03*
X73324Y-51454D03*
G54D23*
X71912Y-55852D03*
G54D22*
X72976Y-53146D03*
G54D23*
X68260Y-50386D03*
G54D22*
X68338Y-47358D03*
X74914Y-54016D03*
X69390Y-57676D03*
G54D23*
X71914Y-56800D03*
G54D22*
X69240Y-58550D03*
G54D23*
X71626Y-48664D03*
G54D22*
X76248Y-46380D03*
X77644Y-53326D03*
X73958Y-51418D03*
X77044Y-54790D03*
G54D23*
X72950Y-50346D03*
G54D22*
X70848Y-50008D03*
G54D23*
X73748Y-55572D03*
X70602Y-56496D03*
G54D22*
X69188Y-56962D03*
G54D23*
X73364Y-55543D03*
G54D22*
X78072Y-48580D03*
X75564Y-48528D03*
X77390Y-58480D03*
X74238Y-59142D03*
X74924Y-48224D03*
G54D23*
X76868Y-48274D03*
G54D22*
X77458Y-59378D03*
X74238Y-59472D03*
X73880Y-51755D03*
X73594Y-46234D03*
X71764Y-46404D03*
X71782Y-44594D03*
X71822Y-54556D03*
X73752Y-50356D03*
X72326Y-46212D03*
X72120Y-44610D03*
X74368Y-45300D03*
X75178Y-53802D03*
X76752Y-58949D03*
X74250Y-58808D03*
X73697Y-59084D03*
X76791Y-60755D03*
X72582Y-58958D03*
X77048Y-58646D03*
X77872Y-53862D03*
G54D23*
X72589Y-58318D03*
G54D22*
X76075Y-58455D03*
X76407Y-58395D03*
X77960Y-54188D03*
X72255Y-58488D03*
X71488Y-59094D03*
G54D23*
X70658Y-58070D03*
G54D22*
X76770Y-58458D03*
X76256Y-52194D03*
X76338Y-57153D03*
X76216Y-48820D03*
X76015Y-57934D03*
X75758Y-58294D03*
X75976Y-56862D03*
X76028Y-56532D03*
G54D23*
X76000Y-56172D03*
G54D22*
X77378Y-55216D03*
X76798Y-49594D03*
X75006Y-59250D03*
X74650Y-60484D03*
X77298Y-53074D03*
X69956Y-51194D03*
X76202Y-44096D03*
X76799Y-43857D03*
X71892Y-51610D03*
X77012Y-53478D03*
X77164Y-53818D03*
X72858Y-52336D03*
X69152Y-50772D03*
X72202Y-52756D03*
X71780Y-58076D03*
X70534Y-59040D03*
X70828Y-62350D03*
X71784Y-55546D03*
G54D23*
X73060Y-50134D03*
G54D22*
X70617Y-59520D03*
X71106Y-62170D03*
X71636Y-58376D03*
X71688Y-55224D03*
X72176Y-46720D03*
X71795Y-58710D03*
X71436Y-54998D03*
X70038Y-48090D03*
X73240Y-50350D03*
X70516Y-49972D03*
X75676Y-53982D03*
X75232Y-47898D03*
X73702Y-48232D03*
G54D23*
X74013Y-48265D03*
G54D22*
X73341Y-48987D03*
G54D23*
X69304Y-59406D03*
X78028Y-44074D03*
X75190Y-49040D03*
X73359Y-49866D03*
X72596Y-50594D03*
X70035Y-56716D03*
G54D22*
X77492Y-61469D03*
X73667Y-47903D03*
X77976Y-49167D03*
G54D23*
X70858Y-46202D03*
G54D22*
X70342Y-47308D03*
X68072Y-49580D03*
X72888Y-51904D03*
X68876Y-56514D03*
X69906Y-49280D03*
X67225Y-53765D03*
X67530Y-53765D03*
G54D23*
X67570Y-55235D03*
G54D24*
X73524Y-53278D03*
G54D22*
X72515Y-54160D03*
G54D23*
X73544Y-54022D03*
G54D22*
X78250Y-61945D03*
X77290Y-62581D03*
X75368Y-59784D03*
X70906Y-44806D03*
G54D23*
X71272Y-46366D03*
G54D22*
X67342Y-55868D03*
X76544Y-44116D03*
X67950Y-62738D03*
X67946Y-62274D03*
X67204Y-61834D03*
X67212Y-61446D03*
X67188Y-61054D03*
X67632Y-61048D03*
X68938Y-51312D03*
X68362Y-50884D03*
X67852Y-50788D03*
X67248Y-50794D03*
X74662Y-47274D03*
X74756Y-55786D03*
G54D24*
X76726Y-50698D03*
X73336Y-59100D03*
G54D23*
X73976Y-49336D03*
G54D22*
X71398Y-47756D03*
X71998Y-53378D03*
X68078Y-61070D03*
X75104Y-53278D03*
G54D24*
X75042Y-60478D03*
X70384Y-52216D03*
G54D22*
X69126Y-47206D03*
X67516Y-47500D03*
X67236Y-45034D03*
X67256Y-44038D03*
X70618Y-48516D03*
X67230Y-57416D03*
X70728Y-60420D03*
X68144Y-59044D03*
X69726Y-60412D03*
X74070Y-57160D03*
X77038Y-49944D03*
X78189Y-49436D03*
X77522Y-54392D03*
G54D23*
X73660Y-54374D03*
G54D22*
X70578Y-46462D03*
X76199Y-61509D03*
X76458Y-61734D03*
X77283Y-61199D03*
X78156Y-59696D03*
X68896Y-62752D03*
X68350Y-62770D03*
X68135Y-54120D03*
X68056Y-54602D03*
X68712Y-53704D03*
X68514Y-56524D03*
X70396Y-44178D03*
X71010Y-43540D03*
X73330Y-44614D03*
X74398Y-43848D03*
G54D23*
X74016Y-44676D03*
G54D22*
X73679Y-44676D03*
X68530Y-57394D03*
X68858Y-49868D03*
X68746Y-48840D03*
X68252Y-45928D03*
X68284Y-43602D03*
X73232Y-56812D03*
X75510Y-53682D03*
X74990Y-45288D03*
G54D23*
X77482Y-46022D03*
G54D22*
X74666Y-57092D03*
X77886Y-55200D03*
G54D23*
X71028Y-53520D03*
G54D22*
X72964Y-48626D03*
G54D23*
X74037Y-49641D03*
G54D22*
X71972Y-50636D03*
X70248Y-53296D03*
G54D23*
X70965Y-56148D03*
G54D22*
X72675Y-60900D03*
G54D24*
X72284Y-60900D03*
G54D22*
X70302Y-62796D03*
X71020Y-61690D03*
X69231Y-60566D03*
X68848Y-61014D03*
X69792Y-56922D03*
X73601Y-47565D03*
X75534Y-44976D03*
X72608Y-44768D03*
X68310Y-55670D03*
X74770Y-56152D03*
G54D23*
X72325Y-54435D03*
G54D24*
X77840Y-61380D03*
G54D22*
X77290Y-45150D03*
G54D24*
X69400Y-53330D03*
G54D22*
X71388Y-47044D03*
G54D23*
X74416Y-55534D03*
G54D22*
X70022Y-49624D03*
X69642Y-46756D03*
X73600Y-57090D03*
G54D23*
X75118Y-60147D03*
X70582Y-58302D03*
G54D24*
X74782Y-46946D03*
G54D22*
X73146Y-43518D03*
G54D24*
X77686Y-59684D03*
X75748Y-59926D03*
X78034Y-59368D03*
X78456Y-55234D03*
X75690Y-47422D03*
G54D22*
X73083Y-61653D03*
G54D24*
X73960Y-51012D03*
X74458Y-59746D03*
G54D25*
X71058Y-45220D02*
X71060Y-45220D01*
X70068Y-44308D02*
X70068Y-44612D01*
X70068Y-44612D02*
X70850Y-45394D01*
G54D26*
X73666Y-47880D02*
X73670Y-47880D01*
X73660Y-47886D02*
X73666Y-47880D01*
G54D25*
X75106Y-53280D02*
X75110Y-53280D01*
X75104Y-53278D02*
X75106Y-53280D01*
G54D27*
X75042Y-60478D02*
X75042Y-60474D01*
G54D28*
X70390Y-52222D02*
X70392Y-52222D01*
X70384Y-52216D02*
X70390Y-52222D01*
X69126Y-47206D02*
X69130Y-47206D01*
G54D10*
G36*
X74587Y-44409D02*
X74276Y-44831D01*
X74276Y-44624D01*
X74236Y-44528D01*
X74163Y-44455D01*
X74067Y-44416D01*
X73964Y-44415D01*
X73883Y-44449D01*
X73851Y-44417D01*
X73739Y-44371D01*
X73618Y-44370D01*
X73547Y-44400D01*
X73502Y-44355D01*
X73390Y-44309D01*
X73269Y-44308D01*
X73157Y-44355D01*
X73071Y-44441D01*
X73025Y-44553D01*
X73024Y-44674D01*
X73071Y-44786D01*
X73157Y-44872D01*
X73269Y-44918D01*
X73390Y-44919D01*
X73461Y-44889D01*
X73506Y-44934D01*
X73618Y-44980D01*
X73739Y-44981D01*
X73851Y-44934D01*
X73883Y-44902D01*
X73964Y-44935D01*
X74067Y-44936D01*
X74163Y-44896D01*
X74236Y-44823D01*
X74275Y-44727D01*
X74276Y-44624D01*
X74276Y-44831D01*
X74136Y-45020D01*
X73443Y-45833D01*
X73269Y-45833D01*
X73280Y-45828D01*
X73366Y-45742D01*
X73412Y-45630D01*
X73413Y-45509D01*
X73366Y-45397D01*
X73280Y-45311D01*
X73168Y-45265D01*
X73047Y-45264D01*
X72935Y-45311D01*
X72849Y-45397D01*
X72803Y-45509D01*
X72802Y-45630D01*
X72849Y-45742D01*
X72935Y-45828D01*
X72943Y-45832D01*
X71569Y-45827D01*
X71652Y-45744D01*
X71698Y-45632D01*
X71699Y-45511D01*
X71652Y-45399D01*
X71566Y-45313D01*
X71454Y-45267D01*
X71333Y-45266D01*
X71238Y-45306D01*
X71244Y-45296D01*
X71260Y-45220D01*
X71244Y-45143D01*
X71201Y-45078D01*
X71136Y-45035D01*
X71112Y-45030D01*
X71151Y-44992D01*
X71225Y-45022D01*
X71346Y-45023D01*
X71374Y-45011D01*
X71401Y-45076D01*
X71487Y-45162D01*
X71599Y-45208D01*
X71720Y-45209D01*
X71832Y-45162D01*
X71918Y-45076D01*
X71964Y-44964D01*
X71965Y-44875D01*
X72059Y-44914D01*
X72180Y-44915D01*
X72292Y-44868D01*
X72311Y-44849D01*
X72349Y-44940D01*
X72435Y-45026D01*
X72547Y-45072D01*
X72668Y-45073D01*
X72780Y-45026D01*
X72866Y-44940D01*
X72912Y-44828D01*
X72913Y-44707D01*
X72866Y-44595D01*
X72780Y-44509D01*
X72668Y-44463D01*
X72547Y-44462D01*
X72435Y-44509D01*
X72416Y-44528D01*
X72378Y-44437D01*
X72292Y-44351D01*
X72180Y-44305D01*
X72059Y-44304D01*
X71963Y-44344D01*
X71954Y-44335D01*
X71842Y-44289D01*
X71721Y-44288D01*
X71609Y-44335D01*
X71523Y-44421D01*
X71493Y-44493D01*
X71458Y-44459D01*
X71346Y-44413D01*
X71225Y-44412D01*
X71113Y-44459D01*
X71040Y-44531D01*
X70966Y-44501D01*
X70845Y-44500D01*
X70733Y-44547D01*
X70701Y-44579D01*
X70701Y-44117D01*
X70654Y-44005D01*
X70568Y-43919D01*
X70456Y-43873D01*
X70335Y-43872D01*
X70223Y-43919D01*
X70137Y-44005D01*
X70091Y-44117D01*
X70090Y-44238D01*
X70137Y-44350D01*
X70223Y-44436D01*
X70335Y-44482D01*
X70456Y-44483D01*
X70568Y-44436D01*
X70654Y-44350D01*
X70700Y-44238D01*
X70701Y-44117D01*
X70701Y-44579D01*
X70647Y-44633D01*
X70601Y-44745D01*
X70600Y-44866D01*
X70647Y-44978D01*
X70733Y-45064D01*
X70845Y-45110D01*
X70894Y-45110D01*
X70873Y-45143D01*
X70858Y-45220D01*
X70873Y-45296D01*
X70916Y-45361D01*
X70981Y-45404D01*
X71058Y-45420D01*
X71060Y-45420D01*
X71132Y-45405D01*
X71089Y-45511D01*
X71088Y-45632D01*
X71135Y-45744D01*
X71217Y-45826D01*
X70258Y-45823D01*
X70258Y-45705D01*
X70163Y-45477D01*
X69989Y-45302D01*
X69761Y-45208D01*
X69515Y-45207D01*
X69385Y-45261D01*
X69384Y-43479D01*
X70705Y-43479D01*
X70705Y-43479D01*
X70704Y-43600D01*
X70751Y-43712D01*
X70837Y-43798D01*
X70949Y-43844D01*
X71070Y-43845D01*
X71182Y-43798D01*
X71268Y-43712D01*
X71314Y-43600D01*
X71315Y-43479D01*
X71314Y-43479D01*
X72841Y-43479D01*
X72840Y-43578D01*
X72887Y-43690D01*
X72973Y-43776D01*
X73085Y-43822D01*
X73206Y-43823D01*
X73318Y-43776D01*
X73404Y-43690D01*
X73450Y-43578D01*
X73451Y-43479D01*
X74586Y-43479D01*
X74586Y-43605D01*
X74570Y-43589D01*
X74458Y-43543D01*
X74337Y-43542D01*
X74225Y-43589D01*
X74139Y-43675D01*
X74093Y-43787D01*
X74092Y-43908D01*
X74139Y-44020D01*
X74225Y-44106D01*
X74337Y-44152D01*
X74458Y-44153D01*
X74570Y-44106D01*
X74587Y-44089D01*
X74587Y-44409D01*
X74587Y-44409D01*
G37*
G54D28*
X74587Y-44409D02*
X74276Y-44831D01*
X74276Y-44624D01*
X74236Y-44528D01*
X74163Y-44455D01*
X74067Y-44416D01*
X73964Y-44415D01*
X73883Y-44449D01*
X73851Y-44417D01*
X73739Y-44371D01*
X73618Y-44370D01*
X73547Y-44400D01*
X73502Y-44355D01*
X73390Y-44309D01*
X73269Y-44308D01*
X73157Y-44355D01*
X73071Y-44441D01*
X73025Y-44553D01*
X73024Y-44674D01*
X73071Y-44786D01*
X73157Y-44872D01*
X73269Y-44918D01*
X73390Y-44919D01*
X73461Y-44889D01*
X73506Y-44934D01*
X73618Y-44980D01*
X73739Y-44981D01*
X73851Y-44934D01*
X73883Y-44902D01*
X73964Y-44935D01*
X74067Y-44936D01*
X74163Y-44896D01*
X74236Y-44823D01*
X74275Y-44727D01*
X74276Y-44624D01*
X74276Y-44831D01*
X74136Y-45020D01*
X73443Y-45833D01*
X73269Y-45833D01*
X73280Y-45828D01*
X73366Y-45742D01*
X73412Y-45630D01*
X73413Y-45509D01*
X73366Y-45397D01*
X73280Y-45311D01*
X73168Y-45265D01*
X73047Y-45264D01*
X72935Y-45311D01*
X72849Y-45397D01*
X72803Y-45509D01*
X72802Y-45630D01*
X72849Y-45742D01*
X72935Y-45828D01*
X72943Y-45832D01*
X71569Y-45827D01*
X71652Y-45744D01*
X71698Y-45632D01*
X71699Y-45511D01*
X71652Y-45399D01*
X71566Y-45313D01*
X71454Y-45267D01*
X71333Y-45266D01*
X71238Y-45306D01*
X71244Y-45296D01*
X71260Y-45220D01*
X71244Y-45143D01*
X71201Y-45078D01*
X71136Y-45035D01*
X71112Y-45030D01*
X71151Y-44992D01*
X71225Y-45022D01*
X71346Y-45023D01*
X71374Y-45011D01*
X71401Y-45076D01*
X71487Y-45162D01*
X71599Y-45208D01*
X71720Y-45209D01*
X71832Y-45162D01*
X71918Y-45076D01*
X71964Y-44964D01*
X71965Y-44875D01*
X72059Y-44914D01*
X72180Y-44915D01*
X72292Y-44868D01*
X72311Y-44849D01*
X72349Y-44940D01*
X72435Y-45026D01*
X72547Y-45072D01*
X72668Y-45073D01*
X72780Y-45026D01*
X72866Y-44940D01*
X72912Y-44828D01*
X72913Y-44707D01*
X72866Y-44595D01*
X72780Y-44509D01*
X72668Y-44463D01*
X72547Y-44462D01*
X72435Y-44509D01*
X72416Y-44528D01*
X72378Y-44437D01*
X72292Y-44351D01*
X72180Y-44305D01*
X72059Y-44304D01*
X71963Y-44344D01*
X71954Y-44335D01*
X71842Y-44289D01*
X71721Y-44288D01*
X71609Y-44335D01*
X71523Y-44421D01*
X71493Y-44493D01*
X71458Y-44459D01*
X71346Y-44413D01*
X71225Y-44412D01*
X71113Y-44459D01*
X71040Y-44531D01*
X70966Y-44501D01*
X70845Y-44500D01*
X70733Y-44547D01*
X70701Y-44579D01*
X70701Y-44117D01*
X70654Y-44005D01*
X70568Y-43919D01*
X70456Y-43873D01*
X70335Y-43872D01*
X70223Y-43919D01*
X70137Y-44005D01*
X70091Y-44117D01*
X70090Y-44238D01*
X70137Y-44350D01*
X70223Y-44436D01*
X70335Y-44482D01*
X70456Y-44483D01*
X70568Y-44436D01*
X70654Y-44350D01*
X70700Y-44238D01*
X70701Y-44117D01*
X70701Y-44579D01*
X70647Y-44633D01*
X70601Y-44745D01*
X70600Y-44866D01*
X70647Y-44978D01*
X70733Y-45064D01*
X70845Y-45110D01*
X70894Y-45110D01*
X70873Y-45143D01*
X70858Y-45220D01*
X70873Y-45296D01*
X70916Y-45361D01*
X70981Y-45404D01*
X71058Y-45420D01*
X71060Y-45420D01*
X71132Y-45405D01*
X71089Y-45511D01*
X71088Y-45632D01*
X71135Y-45744D01*
X71217Y-45826D01*
X70258Y-45823D01*
X70258Y-45705D01*
X70163Y-45477D01*
X69989Y-45302D01*
X69761Y-45208D01*
X69515Y-45207D01*
X69385Y-45261D01*
X69384Y-43479D01*
X70705Y-43479D01*
X70705Y-43479D01*
X70704Y-43600D01*
X70751Y-43712D01*
X70837Y-43798D01*
X70949Y-43844D01*
X71070Y-43845D01*
X71182Y-43798D01*
X71268Y-43712D01*
X71314Y-43600D01*
X71315Y-43479D01*
X71314Y-43479D01*
X72841Y-43479D01*
X72840Y-43578D01*
X72887Y-43690D01*
X72973Y-43776D01*
X73085Y-43822D01*
X73206Y-43823D01*
X73318Y-43776D01*
X73404Y-43690D01*
X73450Y-43578D01*
X73451Y-43479D01*
X74586Y-43479D01*
X74586Y-43605D01*
X74570Y-43589D01*
X74458Y-43543D01*
X74337Y-43542D01*
X74225Y-43589D01*
X74139Y-43675D01*
X74093Y-43787D01*
X74092Y-43908D01*
X74139Y-44020D01*
X74225Y-44106D01*
X74337Y-44152D01*
X74458Y-44153D01*
X74570Y-44106D01*
X74587Y-44089D01*
X74587Y-44409D01*
G54D10*
G36*
X69609Y-61785D02*
X69563Y-61831D01*
X69546Y-61813D01*
X69528Y-61831D01*
X69482Y-61785D01*
X69500Y-61768D01*
X69482Y-61750D01*
X69528Y-61704D01*
X69546Y-61722D01*
X69563Y-61704D01*
X69609Y-61750D01*
X69591Y-61768D01*
X69609Y-61785D01*
X69609Y-61785D01*
G37*
G54D28*
X69609Y-61785D02*
X69563Y-61831D01*
X69546Y-61813D01*
X69528Y-61831D01*
X69482Y-61785D01*
X69500Y-61768D01*
X69482Y-61750D01*
X69528Y-61704D01*
X69546Y-61722D01*
X69563Y-61704D01*
X69609Y-61750D01*
X69591Y-61768D01*
X69609Y-61785D01*
G54D10*
G36*
X76408Y-60239D02*
X76399Y-60248D01*
X76391Y-60239D01*
X76400Y-60231D01*
X76408Y-60239D01*
X76408Y-60239D01*
G37*
G54D28*
X76408Y-60239D02*
X76399Y-60248D01*
X76391Y-60239D01*
X76400Y-60231D01*
X76408Y-60239D01*
G54D10*
G36*
X78608Y-62860D02*
X78588Y-62860D01*
X78588Y-60555D01*
X78499Y-60341D01*
X78441Y-60283D01*
X78441Y-57539D01*
X78441Y-57039D01*
X78441Y-56039D01*
X78427Y-55888D01*
X78396Y-55812D01*
X78332Y-55792D01*
X78261Y-55862D01*
X78261Y-55721D01*
X78241Y-55657D01*
X78151Y-55629D01*
X78151Y-55147D01*
X78110Y-55050D01*
X78036Y-54975D01*
X77938Y-54935D01*
X77833Y-54934D01*
X77736Y-54975D01*
X77661Y-55049D01*
X77628Y-55128D01*
X77602Y-55066D01*
X77528Y-54991D01*
X77430Y-54951D01*
X77325Y-54950D01*
X77309Y-54957D01*
X77309Y-54737D01*
X77268Y-54640D01*
X77194Y-54565D01*
X77096Y-54525D01*
X76991Y-54524D01*
X76894Y-54565D01*
X76819Y-54639D01*
X76779Y-54737D01*
X76778Y-54842D01*
X76819Y-54939D01*
X76893Y-55014D01*
X76991Y-55054D01*
X77096Y-55055D01*
X77193Y-55014D01*
X77268Y-54940D01*
X77308Y-54842D01*
X77309Y-54737D01*
X77309Y-54957D01*
X77228Y-54991D01*
X77153Y-55065D01*
X77113Y-55163D01*
X77112Y-55268D01*
X77153Y-55365D01*
X77227Y-55440D01*
X77325Y-55480D01*
X77430Y-55481D01*
X77527Y-55440D01*
X77602Y-55366D01*
X77635Y-55287D01*
X77661Y-55349D01*
X77735Y-55424D01*
X77833Y-55464D01*
X77938Y-55465D01*
X78035Y-55424D01*
X78110Y-55350D01*
X78150Y-55252D01*
X78151Y-55147D01*
X78151Y-55629D01*
X78097Y-55612D01*
X77946Y-55626D01*
X77870Y-55657D01*
X77850Y-55721D01*
X78056Y-55927D01*
X78261Y-55721D01*
X78261Y-55862D01*
X78126Y-55998D01*
X78332Y-56203D01*
X78396Y-56183D01*
X78441Y-56039D01*
X78441Y-57039D01*
X78427Y-56888D01*
X78396Y-56812D01*
X78332Y-56792D01*
X78126Y-56998D01*
X78332Y-57203D01*
X78396Y-57183D01*
X78441Y-57039D01*
X78441Y-57539D01*
X78427Y-57388D01*
X78396Y-57312D01*
X78332Y-57292D01*
X78261Y-57362D01*
X78126Y-57498D01*
X78132Y-57503D01*
X78061Y-57574D01*
X78056Y-57568D01*
X78050Y-57574D01*
X77979Y-57503D01*
X77985Y-57498D01*
X77979Y-57492D01*
X78050Y-57421D01*
X78056Y-57427D01*
X78108Y-57374D01*
X78165Y-57369D01*
X78241Y-57338D01*
X78261Y-57274D01*
X78235Y-57248D01*
X78261Y-57221D01*
X78241Y-57157D01*
X78101Y-57114D01*
X78056Y-57068D01*
X78050Y-57074D01*
X77979Y-57003D01*
X77985Y-56998D01*
X77979Y-56992D01*
X78050Y-56921D01*
X78056Y-56927D01*
X78160Y-56822D01*
X78248Y-56786D01*
X78344Y-56690D01*
X78395Y-56565D01*
X78396Y-56430D01*
X78344Y-56305D01*
X78248Y-56209D01*
X78160Y-56173D01*
X78056Y-56068D01*
X78050Y-56074D01*
X77979Y-56003D01*
X77985Y-55998D01*
X77880Y-55893D01*
X77844Y-55805D01*
X77748Y-55709D01*
X77623Y-55658D01*
X77488Y-55657D01*
X77363Y-55709D01*
X77267Y-55805D01*
X77216Y-55930D01*
X77215Y-56065D01*
X77267Y-56190D01*
X77325Y-56248D01*
X77267Y-56305D01*
X77216Y-56430D01*
X77215Y-56565D01*
X77267Y-56690D01*
X77325Y-56748D01*
X77267Y-56805D01*
X77216Y-56930D01*
X77215Y-57065D01*
X77267Y-57190D01*
X77325Y-57248D01*
X77267Y-57305D01*
X77216Y-57430D01*
X77215Y-57565D01*
X77267Y-57690D01*
X77325Y-57748D01*
X77267Y-57805D01*
X77216Y-57930D01*
X77215Y-58065D01*
X77267Y-58190D01*
X77305Y-58228D01*
X77240Y-58255D01*
X77165Y-58329D01*
X77137Y-58396D01*
X77100Y-58381D01*
X77094Y-58381D01*
X77094Y-57376D01*
X77053Y-57279D01*
X76979Y-57204D01*
X76881Y-57164D01*
X76776Y-57163D01*
X76679Y-57204D01*
X76604Y-57278D01*
X76571Y-57358D01*
X76507Y-57357D01*
X76562Y-57303D01*
X76602Y-57205D01*
X76603Y-57100D01*
X76562Y-57003D01*
X76521Y-56961D01*
X76521Y-52141D01*
X76513Y-52122D01*
X76513Y-46327D01*
X76472Y-46230D01*
X76467Y-46224D01*
X76467Y-44043D01*
X76426Y-43946D01*
X76352Y-43871D01*
X76254Y-43831D01*
X76149Y-43830D01*
X76052Y-43871D01*
X75977Y-43945D01*
X75937Y-44043D01*
X75936Y-44148D01*
X75977Y-44245D01*
X76051Y-44320D01*
X76149Y-44360D01*
X76254Y-44361D01*
X76351Y-44320D01*
X76426Y-44246D01*
X76466Y-44148D01*
X76467Y-44043D01*
X76467Y-46224D01*
X76398Y-46155D01*
X76300Y-46115D01*
X76195Y-46114D01*
X76098Y-46155D01*
X76023Y-46229D01*
X75983Y-46327D01*
X75982Y-46432D01*
X76023Y-46529D01*
X76097Y-46604D01*
X76195Y-46644D01*
X76300Y-46645D01*
X76397Y-46604D01*
X76472Y-46530D01*
X76512Y-46432D01*
X76513Y-46327D01*
X76513Y-52122D01*
X76480Y-52044D01*
X76406Y-51969D01*
X76308Y-51929D01*
X76300Y-51929D01*
X76300Y-51924D01*
X76300Y-51524D01*
X76280Y-51476D01*
X76245Y-51441D01*
X76249Y-51437D01*
X76299Y-51315D01*
X76300Y-51184D01*
X76249Y-51063D01*
X76186Y-50999D01*
X76249Y-50937D01*
X76299Y-50815D01*
X76300Y-50684D01*
X76249Y-50563D01*
X76186Y-50499D01*
X76249Y-50437D01*
X76299Y-50315D01*
X76300Y-50184D01*
X76249Y-50063D01*
X76186Y-49999D01*
X76249Y-49937D01*
X76299Y-49815D01*
X76300Y-49684D01*
X76249Y-49563D01*
X76186Y-49499D01*
X76249Y-49437D01*
X76299Y-49315D01*
X76300Y-49184D01*
X76258Y-49085D01*
X76268Y-49085D01*
X76365Y-49044D01*
X76440Y-48970D01*
X76480Y-48872D01*
X76481Y-48767D01*
X76440Y-48670D01*
X76366Y-48595D01*
X76268Y-48555D01*
X76163Y-48554D01*
X76066Y-48595D01*
X75991Y-48669D01*
X75970Y-48721D01*
X75970Y-47366D01*
X75927Y-47263D01*
X75848Y-47184D01*
X75745Y-47142D01*
X75634Y-47141D01*
X75531Y-47184D01*
X75452Y-47263D01*
X75446Y-47279D01*
X75446Y-45945D01*
X75405Y-45848D01*
X75331Y-45773D01*
X75255Y-45741D01*
X75255Y-45235D01*
X75214Y-45138D01*
X75140Y-45063D01*
X75042Y-45023D01*
X74937Y-45022D01*
X74840Y-45063D01*
X74765Y-45137D01*
X74725Y-45235D01*
X74724Y-45340D01*
X74765Y-45437D01*
X74839Y-45512D01*
X74937Y-45552D01*
X75042Y-45553D01*
X75139Y-45512D01*
X75214Y-45438D01*
X75254Y-45340D01*
X75255Y-45235D01*
X75255Y-45741D01*
X75233Y-45733D01*
X75128Y-45732D01*
X75031Y-45773D01*
X74956Y-45847D01*
X74916Y-45945D01*
X74915Y-46050D01*
X74956Y-46147D01*
X75030Y-46222D01*
X75128Y-46262D01*
X75233Y-46263D01*
X75330Y-46222D01*
X75405Y-46148D01*
X75445Y-46050D01*
X75446Y-45945D01*
X75446Y-47279D01*
X75410Y-47366D01*
X75409Y-47477D01*
X75452Y-47580D01*
X75531Y-47659D01*
X75634Y-47701D01*
X75745Y-47702D01*
X75848Y-47659D01*
X75927Y-47580D01*
X75969Y-47477D01*
X75970Y-47366D01*
X75970Y-48721D01*
X75951Y-48767D01*
X75950Y-48872D01*
X75970Y-48920D01*
X75904Y-48919D01*
X75829Y-48951D01*
X75829Y-48475D01*
X75788Y-48378D01*
X75714Y-48303D01*
X75616Y-48263D01*
X75511Y-48262D01*
X75497Y-48268D01*
X75497Y-47845D01*
X75456Y-47748D01*
X75382Y-47673D01*
X75284Y-47633D01*
X75179Y-47632D01*
X75082Y-47673D01*
X75062Y-47693D01*
X75062Y-46890D01*
X75019Y-46787D01*
X74940Y-46708D01*
X74837Y-46666D01*
X74726Y-46665D01*
X74623Y-46708D01*
X74544Y-46787D01*
X74502Y-46890D01*
X74501Y-47001D01*
X74544Y-47104D01*
X74623Y-47183D01*
X74726Y-47225D01*
X74837Y-47226D01*
X74940Y-47183D01*
X75019Y-47104D01*
X75061Y-47001D01*
X75062Y-46890D01*
X75062Y-47693D01*
X75007Y-47747D01*
X74967Y-47845D01*
X74966Y-47950D01*
X74970Y-47959D01*
X74871Y-47958D01*
X74774Y-47999D01*
X74699Y-48073D01*
X74659Y-48171D01*
X74658Y-48276D01*
X74699Y-48373D01*
X74773Y-48448D01*
X74871Y-48488D01*
X74976Y-48489D01*
X75073Y-48448D01*
X75148Y-48374D01*
X75188Y-48276D01*
X75189Y-48171D01*
X75185Y-48162D01*
X75284Y-48163D01*
X75381Y-48122D01*
X75456Y-48048D01*
X75496Y-47950D01*
X75497Y-47845D01*
X75497Y-48268D01*
X75414Y-48303D01*
X75339Y-48377D01*
X75299Y-48475D01*
X75298Y-48580D01*
X75339Y-48677D01*
X75413Y-48752D01*
X75511Y-48792D01*
X75616Y-48793D01*
X75713Y-48752D01*
X75788Y-48678D01*
X75828Y-48580D01*
X75829Y-48475D01*
X75829Y-48951D01*
X75783Y-48970D01*
X75719Y-49033D01*
X75657Y-48970D01*
X75535Y-48920D01*
X75404Y-48919D01*
X75283Y-48970D01*
X75190Y-49062D01*
X75140Y-49184D01*
X75139Y-49315D01*
X75190Y-49436D01*
X75253Y-49500D01*
X75190Y-49562D01*
X75140Y-49684D01*
X75139Y-49815D01*
X75190Y-49936D01*
X75253Y-50000D01*
X75190Y-50062D01*
X75140Y-50184D01*
X75139Y-50315D01*
X75190Y-50436D01*
X75253Y-50500D01*
X75190Y-50562D01*
X75140Y-50684D01*
X75139Y-50815D01*
X75190Y-50936D01*
X75253Y-51000D01*
X75190Y-51062D01*
X75140Y-51184D01*
X75139Y-51315D01*
X75190Y-51436D01*
X75282Y-51529D01*
X75404Y-51579D01*
X75535Y-51580D01*
X75640Y-51536D01*
X75639Y-51575D01*
X75639Y-51975D01*
X75659Y-52023D01*
X75696Y-52060D01*
X75744Y-52079D01*
X75795Y-52080D01*
X76016Y-52080D01*
X75991Y-52141D01*
X75990Y-52246D01*
X76031Y-52343D01*
X76105Y-52418D01*
X76203Y-52458D01*
X76308Y-52459D01*
X76405Y-52418D01*
X76480Y-52344D01*
X76520Y-52246D01*
X76521Y-52141D01*
X76521Y-56961D01*
X76488Y-56928D01*
X76390Y-56888D01*
X76285Y-56887D01*
X76240Y-56906D01*
X76241Y-56809D01*
X76207Y-56727D01*
X76252Y-56682D01*
X76292Y-56584D01*
X76293Y-56479D01*
X76252Y-56382D01*
X76178Y-56307D01*
X76176Y-56306D01*
X76186Y-56296D01*
X76219Y-56215D01*
X76220Y-56128D01*
X76186Y-56047D01*
X76124Y-55985D01*
X76043Y-55952D01*
X75956Y-55951D01*
X75941Y-55958D01*
X75941Y-53929D01*
X75900Y-53832D01*
X75826Y-53757D01*
X75774Y-53735D01*
X75774Y-53734D01*
X75775Y-53629D01*
X75734Y-53532D01*
X75660Y-53457D01*
X75562Y-53417D01*
X75457Y-53416D01*
X75360Y-53457D01*
X75285Y-53531D01*
X75275Y-53555D01*
X75230Y-53537D01*
X75125Y-53536D01*
X75028Y-53577D01*
X74953Y-53651D01*
X74913Y-53749D01*
X74913Y-53750D01*
X74861Y-53750D01*
X74764Y-53791D01*
X74689Y-53865D01*
X74649Y-53963D01*
X74648Y-54068D01*
X74689Y-54165D01*
X74763Y-54240D01*
X74861Y-54280D01*
X74966Y-54281D01*
X75063Y-54240D01*
X75138Y-54166D01*
X75178Y-54068D01*
X75178Y-54067D01*
X75230Y-54067D01*
X75327Y-54026D01*
X75402Y-53952D01*
X75411Y-53931D01*
X75410Y-54034D01*
X75451Y-54131D01*
X75525Y-54206D01*
X75623Y-54246D01*
X75728Y-54247D01*
X75825Y-54206D01*
X75900Y-54132D01*
X75940Y-54034D01*
X75941Y-53929D01*
X75941Y-55958D01*
X75875Y-55985D01*
X75813Y-56047D01*
X75780Y-56128D01*
X75779Y-56215D01*
X75813Y-56296D01*
X75851Y-56334D01*
X75803Y-56381D01*
X75763Y-56479D01*
X75762Y-56584D01*
X75796Y-56666D01*
X75751Y-56711D01*
X75711Y-56809D01*
X75710Y-56914D01*
X75751Y-57011D01*
X75825Y-57086D01*
X75923Y-57126D01*
X76028Y-57127D01*
X76073Y-57108D01*
X76072Y-57205D01*
X76106Y-57286D01*
X76068Y-57248D01*
X75987Y-57215D01*
X75900Y-57214D01*
X75819Y-57248D01*
X75757Y-57310D01*
X75724Y-57391D01*
X75723Y-57478D01*
X75757Y-57559D01*
X75819Y-57621D01*
X75900Y-57654D01*
X75987Y-57655D01*
X76068Y-57621D01*
X76130Y-57559D01*
X76163Y-57478D01*
X76164Y-57391D01*
X76137Y-57327D01*
X76187Y-57377D01*
X76285Y-57417D01*
X76375Y-57418D01*
X76320Y-57472D01*
X76280Y-57570D01*
X76279Y-57675D01*
X76320Y-57772D01*
X76394Y-57847D01*
X76492Y-57887D01*
X76597Y-57888D01*
X76694Y-57847D01*
X76769Y-57773D01*
X76802Y-57693D01*
X76881Y-57694D01*
X76978Y-57653D01*
X77053Y-57579D01*
X77093Y-57481D01*
X77094Y-57376D01*
X77094Y-58381D01*
X77024Y-58380D01*
X76994Y-58308D01*
X76920Y-58233D01*
X76822Y-58193D01*
X76717Y-58192D01*
X76620Y-58233D01*
X76620Y-58233D01*
X76557Y-58170D01*
X76459Y-58130D01*
X76354Y-58129D01*
X76257Y-58170D01*
X76205Y-58222D01*
X76127Y-58190D01*
X76089Y-58190D01*
X76164Y-58158D01*
X76239Y-58084D01*
X76279Y-57986D01*
X76280Y-57881D01*
X76239Y-57784D01*
X76165Y-57709D01*
X76067Y-57669D01*
X75962Y-57668D01*
X75865Y-57709D01*
X75790Y-57783D01*
X75750Y-57881D01*
X75749Y-57986D01*
X75767Y-58029D01*
X75705Y-58028D01*
X75608Y-58069D01*
X75533Y-58143D01*
X75493Y-58241D01*
X75492Y-58346D01*
X75533Y-58443D01*
X75607Y-58518D01*
X75705Y-58558D01*
X75810Y-58559D01*
X75828Y-58551D01*
X75850Y-58604D01*
X75924Y-58679D01*
X76022Y-58719D01*
X76127Y-58720D01*
X76224Y-58679D01*
X76276Y-58627D01*
X76354Y-58659D01*
X76459Y-58660D01*
X76556Y-58619D01*
X76556Y-58619D01*
X76619Y-58682D01*
X76661Y-58699D01*
X76602Y-58724D01*
X76527Y-58798D01*
X76487Y-58896D01*
X76486Y-59001D01*
X76527Y-59098D01*
X76601Y-59173D01*
X76699Y-59213D01*
X76804Y-59214D01*
X76901Y-59173D01*
X76976Y-59099D01*
X77016Y-59001D01*
X77017Y-58910D01*
X77100Y-58911D01*
X77197Y-58870D01*
X77272Y-58796D01*
X77300Y-58729D01*
X77337Y-58744D01*
X77442Y-58745D01*
X77539Y-58704D01*
X77614Y-58630D01*
X77654Y-58532D01*
X77655Y-58427D01*
X77618Y-58338D01*
X77623Y-58338D01*
X77742Y-58288D01*
X77772Y-58318D01*
X77820Y-58337D01*
X77871Y-58338D01*
X78291Y-58338D01*
X78339Y-58318D01*
X78376Y-58281D01*
X78395Y-58233D01*
X78396Y-58182D01*
X78396Y-57762D01*
X78376Y-57714D01*
X78357Y-57695D01*
X78396Y-57683D01*
X78441Y-57539D01*
X78441Y-60283D01*
X78421Y-60262D01*
X78421Y-59643D01*
X78380Y-59546D01*
X78306Y-59471D01*
X78295Y-59467D01*
X78313Y-59423D01*
X78314Y-59312D01*
X78271Y-59209D01*
X78192Y-59130D01*
X78089Y-59088D01*
X77978Y-59087D01*
X77875Y-59130D01*
X77796Y-59209D01*
X77754Y-59312D01*
X77753Y-59409D01*
X77741Y-59404D01*
X77722Y-59404D01*
X77723Y-59325D01*
X77682Y-59228D01*
X77608Y-59153D01*
X77510Y-59113D01*
X77405Y-59112D01*
X77308Y-59153D01*
X77233Y-59227D01*
X77193Y-59325D01*
X77192Y-59430D01*
X77233Y-59527D01*
X77307Y-59602D01*
X77405Y-59642D01*
X77406Y-59642D01*
X77405Y-59739D01*
X77448Y-59842D01*
X77527Y-59921D01*
X77630Y-59963D01*
X77741Y-59964D01*
X77844Y-59921D01*
X77923Y-59842D01*
X77926Y-59834D01*
X77931Y-59845D01*
X78005Y-59920D01*
X78103Y-59960D01*
X78208Y-59961D01*
X78305Y-59920D01*
X78380Y-59846D01*
X78420Y-59748D01*
X78421Y-59643D01*
X78421Y-60262D01*
X78336Y-60178D01*
X78123Y-60090D01*
X77893Y-60089D01*
X77679Y-60178D01*
X77516Y-60341D01*
X77428Y-60554D01*
X77427Y-60784D01*
X77516Y-60998D01*
X77670Y-61153D01*
X77602Y-61221D01*
X77560Y-61324D01*
X77559Y-61435D01*
X77602Y-61538D01*
X77681Y-61617D01*
X77784Y-61659D01*
X77895Y-61660D01*
X77998Y-61617D01*
X78077Y-61538D01*
X78119Y-61435D01*
X78120Y-61324D01*
X78089Y-61250D01*
X78122Y-61250D01*
X78336Y-61161D01*
X78499Y-60998D01*
X78587Y-60785D01*
X78588Y-60555D01*
X78588Y-62860D01*
X77548Y-62860D01*
X77548Y-61146D01*
X77507Y-61049D01*
X77433Y-60974D01*
X77335Y-60934D01*
X77230Y-60933D01*
X77133Y-60974D01*
X77058Y-61048D01*
X77056Y-61054D01*
X77056Y-60702D01*
X77015Y-60605D01*
X76941Y-60530D01*
X76903Y-60514D01*
X76929Y-60416D01*
X76914Y-60302D01*
X76899Y-60267D01*
X76869Y-60262D01*
X76878Y-60254D01*
X76864Y-60239D01*
X76878Y-60225D01*
X76869Y-60217D01*
X76899Y-60212D01*
X76929Y-60101D01*
X76914Y-59987D01*
X76899Y-59952D01*
X76845Y-59943D01*
X76774Y-60014D01*
X76774Y-59873D01*
X76765Y-59818D01*
X76655Y-59789D01*
X76541Y-59804D01*
X76506Y-59818D01*
X76497Y-59873D01*
X76636Y-60011D01*
X76774Y-59873D01*
X76774Y-60014D01*
X76706Y-60082D01*
X76712Y-60088D01*
X76687Y-60112D01*
X76655Y-60104D01*
X76639Y-60106D01*
X76609Y-60101D01*
X76598Y-60111D01*
X76585Y-60113D01*
X76559Y-60088D01*
X76565Y-60082D01*
X76526Y-60043D01*
X76538Y-60030D01*
X76529Y-59976D01*
X76433Y-59950D01*
X76426Y-59943D01*
X76400Y-59948D01*
X76373Y-59943D01*
X76362Y-59954D01*
X76305Y-59961D01*
X76270Y-59976D01*
X76261Y-60030D01*
X76273Y-60043D01*
X76234Y-60082D01*
X76240Y-60088D01*
X76215Y-60112D01*
X76197Y-60108D01*
X76190Y-60101D01*
X76136Y-60110D01*
X76136Y-60110D01*
X76112Y-60113D01*
X76087Y-60088D01*
X76093Y-60082D01*
X76087Y-60076D01*
X76158Y-60006D01*
X76163Y-60011D01*
X76302Y-59873D01*
X76293Y-59818D01*
X76182Y-59789D01*
X76069Y-59804D01*
X76034Y-59818D01*
X76026Y-59866D01*
X75985Y-59767D01*
X75906Y-59688D01*
X75803Y-59646D01*
X75692Y-59645D01*
X75589Y-59688D01*
X75510Y-59767D01*
X75468Y-59870D01*
X75467Y-59981D01*
X75510Y-60084D01*
X75589Y-60163D01*
X75692Y-60205D01*
X75803Y-60206D01*
X75885Y-60172D01*
X75885Y-60177D01*
X75900Y-60212D01*
X75930Y-60217D01*
X75921Y-60225D01*
X75935Y-60239D01*
X75921Y-60254D01*
X75930Y-60262D01*
X75900Y-60267D01*
X75870Y-60378D01*
X75885Y-60492D01*
X75900Y-60527D01*
X75954Y-60536D01*
X76093Y-60397D01*
X76087Y-60391D01*
X76112Y-60367D01*
X76144Y-60375D01*
X76160Y-60373D01*
X76190Y-60378D01*
X76201Y-60368D01*
X76214Y-60366D01*
X76240Y-60391D01*
X76234Y-60397D01*
X76273Y-60436D01*
X76261Y-60449D01*
X76270Y-60503D01*
X76366Y-60529D01*
X76373Y-60536D01*
X76400Y-60531D01*
X76426Y-60536D01*
X76437Y-60525D01*
X76494Y-60518D01*
X76529Y-60503D01*
X76538Y-60449D01*
X76526Y-60436D01*
X76565Y-60397D01*
X76559Y-60391D01*
X76584Y-60367D01*
X76602Y-60371D01*
X76609Y-60378D01*
X76663Y-60369D01*
X76663Y-60369D01*
X76687Y-60366D01*
X76712Y-60391D01*
X76706Y-60397D01*
X76712Y-60403D01*
X76641Y-60473D01*
X76636Y-60468D01*
X76497Y-60606D01*
X76506Y-60661D01*
X76539Y-60669D01*
X76526Y-60702D01*
X76525Y-60807D01*
X76566Y-60904D01*
X76640Y-60979D01*
X76738Y-61019D01*
X76843Y-61020D01*
X76940Y-60979D01*
X77015Y-60905D01*
X77055Y-60807D01*
X77056Y-60702D01*
X77056Y-61054D01*
X77018Y-61146D01*
X77017Y-61251D01*
X77058Y-61348D01*
X77132Y-61423D01*
X77230Y-61463D01*
X77335Y-61464D01*
X77432Y-61423D01*
X77507Y-61349D01*
X77547Y-61251D01*
X77548Y-61146D01*
X77548Y-62860D01*
X76723Y-62860D01*
X76723Y-61681D01*
X76682Y-61584D01*
X76608Y-61509D01*
X76510Y-61469D01*
X76464Y-61469D01*
X76464Y-61456D01*
X76423Y-61359D01*
X76349Y-61284D01*
X76302Y-61265D01*
X76302Y-60606D01*
X76163Y-60468D01*
X76025Y-60606D01*
X76034Y-60661D01*
X76144Y-60690D01*
X76258Y-60675D01*
X76293Y-60661D01*
X76302Y-60606D01*
X76302Y-61265D01*
X76251Y-61244D01*
X76146Y-61243D01*
X76049Y-61284D01*
X75974Y-61358D01*
X75934Y-61456D01*
X75933Y-61561D01*
X75974Y-61658D01*
X76048Y-61733D01*
X76146Y-61773D01*
X76192Y-61773D01*
X76192Y-61786D01*
X76233Y-61883D01*
X76307Y-61958D01*
X76405Y-61998D01*
X76510Y-61999D01*
X76607Y-61958D01*
X76682Y-61884D01*
X76722Y-61786D01*
X76723Y-61681D01*
X76723Y-62860D01*
X76460Y-62860D01*
X76460Y-62682D01*
X76460Y-62282D01*
X76440Y-62234D01*
X76403Y-62197D01*
X76355Y-62178D01*
X76304Y-62177D01*
X75904Y-62177D01*
X75856Y-62197D01*
X75819Y-62234D01*
X75800Y-62282D01*
X75799Y-62333D01*
X75799Y-62733D01*
X75819Y-62781D01*
X75856Y-62818D01*
X75904Y-62837D01*
X75955Y-62838D01*
X76355Y-62838D01*
X76403Y-62818D01*
X76440Y-62781D01*
X76459Y-62733D01*
X76460Y-62682D01*
X76460Y-62860D01*
X75645Y-62860D01*
X75668Y-62850D01*
X75730Y-62788D01*
X75763Y-62707D01*
X75764Y-62620D01*
X75730Y-62539D01*
X75668Y-62477D01*
X75587Y-62444D01*
X75500Y-62443D01*
X75429Y-62473D01*
X75429Y-62289D01*
X75405Y-62171D01*
X75339Y-62072D01*
X75338Y-62071D01*
X75338Y-60103D01*
X75305Y-60022D01*
X75271Y-59988D01*
X75271Y-59197D01*
X75230Y-59100D01*
X75156Y-59025D01*
X75058Y-58985D01*
X75035Y-58985D01*
X75035Y-56099D01*
X74994Y-56002D01*
X74920Y-55927D01*
X74822Y-55887D01*
X74717Y-55886D01*
X74636Y-55920D01*
X74636Y-55490D01*
X74602Y-55409D01*
X74540Y-55347D01*
X74459Y-55314D01*
X74372Y-55313D01*
X74291Y-55347D01*
X74257Y-55381D01*
X74257Y-49597D01*
X74233Y-49539D01*
X74233Y-48221D01*
X74199Y-48141D01*
X74137Y-48079D01*
X74056Y-48045D01*
X73969Y-48045D01*
X73913Y-48068D01*
X73866Y-48021D01*
X73866Y-47512D01*
X73825Y-47415D01*
X73751Y-47340D01*
X73653Y-47300D01*
X73548Y-47299D01*
X73451Y-47340D01*
X73376Y-47414D01*
X73336Y-47512D01*
X73335Y-47617D01*
X73376Y-47714D01*
X73450Y-47789D01*
X73548Y-47829D01*
X73653Y-47830D01*
X73750Y-47789D01*
X73825Y-47715D01*
X73865Y-47617D01*
X73866Y-47512D01*
X73866Y-48021D01*
X73852Y-48007D01*
X73754Y-47967D01*
X73649Y-47966D01*
X73552Y-48007D01*
X73477Y-48081D01*
X73437Y-48179D01*
X73436Y-48284D01*
X73477Y-48381D01*
X73551Y-48456D01*
X73649Y-48496D01*
X73754Y-48497D01*
X73851Y-48456D01*
X73872Y-48436D01*
X73888Y-48451D01*
X73969Y-48485D01*
X74056Y-48485D01*
X74137Y-48452D01*
X74199Y-48390D01*
X74232Y-48309D01*
X74233Y-48221D01*
X74233Y-49539D01*
X74223Y-49516D01*
X74161Y-49454D01*
X74080Y-49421D01*
X73993Y-49420D01*
X73912Y-49454D01*
X73850Y-49516D01*
X73817Y-49597D01*
X73816Y-49684D01*
X73850Y-49765D01*
X73912Y-49827D01*
X73993Y-49860D01*
X74080Y-49861D01*
X74161Y-49827D01*
X74223Y-49765D01*
X74256Y-49684D01*
X74257Y-49597D01*
X74257Y-55381D01*
X74240Y-55398D01*
X74240Y-50956D01*
X74197Y-50853D01*
X74118Y-50774D01*
X74017Y-50732D01*
X74017Y-50303D01*
X73976Y-50206D01*
X73902Y-50131D01*
X73804Y-50091D01*
X73699Y-50090D01*
X73693Y-50093D01*
X73693Y-49477D01*
X73659Y-49396D01*
X73606Y-49342D01*
X73606Y-48934D01*
X73565Y-48837D01*
X73491Y-48762D01*
X73393Y-48722D01*
X73288Y-48721D01*
X73195Y-48760D01*
X73228Y-48678D01*
X73229Y-48573D01*
X73188Y-48476D01*
X73114Y-48401D01*
X73016Y-48361D01*
X72911Y-48360D01*
X72814Y-48401D01*
X72739Y-48475D01*
X72699Y-48573D01*
X72698Y-48678D01*
X72739Y-48775D01*
X72813Y-48850D01*
X72911Y-48890D01*
X73016Y-48891D01*
X73109Y-48852D01*
X73076Y-48934D01*
X73075Y-49039D01*
X73116Y-49136D01*
X73190Y-49211D01*
X73288Y-49251D01*
X73393Y-49252D01*
X73490Y-49211D01*
X73565Y-49137D01*
X73605Y-49039D01*
X73606Y-48934D01*
X73606Y-49342D01*
X73597Y-49334D01*
X73516Y-49301D01*
X73429Y-49300D01*
X73348Y-49334D01*
X73286Y-49396D01*
X73253Y-49477D01*
X73252Y-49564D01*
X73286Y-49645D01*
X73348Y-49707D01*
X73429Y-49740D01*
X73516Y-49741D01*
X73597Y-49707D01*
X73659Y-49645D01*
X73692Y-49564D01*
X73693Y-49477D01*
X73693Y-50093D01*
X73602Y-50131D01*
X73527Y-50205D01*
X73497Y-50278D01*
X73464Y-50200D01*
X73390Y-50125D01*
X73292Y-50085D01*
X73277Y-50085D01*
X73246Y-50009D01*
X73184Y-49947D01*
X73103Y-49914D01*
X73016Y-49913D01*
X72935Y-49947D01*
X72873Y-50009D01*
X72840Y-50090D01*
X72839Y-50153D01*
X72825Y-50159D01*
X72763Y-50221D01*
X72730Y-50302D01*
X72729Y-50389D01*
X72763Y-50470D01*
X72825Y-50532D01*
X72906Y-50565D01*
X72993Y-50566D01*
X73055Y-50540D01*
X73089Y-50574D01*
X73187Y-50614D01*
X73292Y-50615D01*
X73389Y-50574D01*
X73464Y-50500D01*
X73494Y-50427D01*
X73527Y-50505D01*
X73601Y-50580D01*
X73699Y-50620D01*
X73804Y-50621D01*
X73901Y-50580D01*
X73976Y-50506D01*
X74016Y-50408D01*
X74017Y-50303D01*
X74017Y-50732D01*
X74015Y-50732D01*
X73904Y-50731D01*
X73801Y-50774D01*
X73722Y-50853D01*
X73680Y-50956D01*
X73679Y-51067D01*
X73722Y-51170D01*
X73776Y-51224D01*
X73733Y-51267D01*
X73693Y-51365D01*
X73692Y-51470D01*
X73721Y-51539D01*
X73655Y-51604D01*
X73615Y-51702D01*
X73614Y-51807D01*
X73655Y-51904D01*
X73729Y-51979D01*
X73827Y-52019D01*
X73932Y-52020D01*
X74029Y-51979D01*
X74104Y-51905D01*
X74144Y-51807D01*
X74145Y-51702D01*
X74116Y-51633D01*
X74182Y-51568D01*
X74222Y-51470D01*
X74223Y-51365D01*
X74182Y-51268D01*
X74141Y-51226D01*
X74197Y-51170D01*
X74239Y-51067D01*
X74240Y-50956D01*
X74240Y-55398D01*
X74229Y-55409D01*
X74196Y-55490D01*
X74195Y-55577D01*
X74229Y-55658D01*
X74291Y-55720D01*
X74372Y-55753D01*
X74459Y-55754D01*
X74540Y-55720D01*
X74602Y-55658D01*
X74635Y-55577D01*
X74636Y-55490D01*
X74636Y-55920D01*
X74620Y-55927D01*
X74545Y-56001D01*
X74505Y-56099D01*
X74504Y-56204D01*
X74545Y-56301D01*
X74619Y-56376D01*
X74717Y-56416D01*
X74822Y-56417D01*
X74919Y-56376D01*
X74994Y-56302D01*
X75034Y-56204D01*
X75035Y-56099D01*
X75035Y-58985D01*
X74953Y-58984D01*
X74931Y-58994D01*
X74931Y-57039D01*
X74890Y-56942D01*
X74816Y-56867D01*
X74718Y-56827D01*
X74613Y-56826D01*
X74516Y-56867D01*
X74441Y-56941D01*
X74401Y-57039D01*
X74400Y-57144D01*
X74441Y-57241D01*
X74515Y-57316D01*
X74613Y-57356D01*
X74718Y-57357D01*
X74815Y-57316D01*
X74890Y-57242D01*
X74930Y-57144D01*
X74931Y-57039D01*
X74931Y-58994D01*
X74856Y-59025D01*
X74781Y-59099D01*
X74741Y-59197D01*
X74740Y-59302D01*
X74781Y-59399D01*
X74855Y-59474D01*
X74953Y-59514D01*
X75058Y-59515D01*
X75155Y-59474D01*
X75230Y-59400D01*
X75270Y-59302D01*
X75271Y-59197D01*
X75271Y-59988D01*
X75243Y-59960D01*
X75162Y-59927D01*
X75074Y-59926D01*
X74994Y-59960D01*
X74932Y-60022D01*
X74898Y-60103D01*
X74898Y-60190D01*
X74931Y-60271D01*
X74993Y-60333D01*
X75074Y-60366D01*
X75162Y-60367D01*
X75242Y-60333D01*
X75304Y-60271D01*
X75338Y-60190D01*
X75338Y-60103D01*
X75338Y-62071D01*
X75239Y-62005D01*
X75122Y-61982D01*
X75111Y-61984D01*
X75111Y-61373D01*
X75087Y-61251D01*
X75018Y-61148D01*
X74915Y-61080D01*
X74915Y-61080D01*
X74915Y-60431D01*
X74874Y-60334D01*
X74800Y-60259D01*
X74738Y-60233D01*
X74738Y-59690D01*
X74695Y-59587D01*
X74616Y-59508D01*
X74513Y-59466D01*
X74503Y-59466D01*
X74503Y-59419D01*
X74462Y-59322D01*
X74447Y-59307D01*
X74462Y-59292D01*
X74502Y-59194D01*
X74503Y-59089D01*
X74462Y-58992D01*
X74451Y-58981D01*
X74474Y-58958D01*
X74514Y-58860D01*
X74515Y-58755D01*
X74474Y-58658D01*
X74400Y-58583D01*
X74302Y-58543D01*
X74197Y-58542D01*
X74100Y-58583D01*
X74025Y-58657D01*
X73985Y-58755D01*
X73984Y-58860D01*
X74025Y-58957D01*
X74036Y-58968D01*
X74013Y-58991D01*
X73973Y-59089D01*
X73972Y-59194D01*
X74013Y-59291D01*
X74028Y-59306D01*
X74013Y-59321D01*
X73973Y-59419D01*
X73972Y-59504D01*
X73968Y-59499D01*
X73968Y-55528D01*
X73934Y-55447D01*
X73880Y-55392D01*
X73880Y-54330D01*
X73846Y-54249D01*
X73784Y-54187D01*
X73703Y-54154D01*
X73616Y-54153D01*
X73589Y-54165D01*
X73589Y-51401D01*
X73548Y-51304D01*
X73474Y-51229D01*
X73376Y-51189D01*
X73271Y-51188D01*
X73174Y-51229D01*
X73099Y-51303D01*
X73059Y-51401D01*
X73058Y-51506D01*
X73099Y-51603D01*
X73173Y-51678D01*
X73271Y-51718D01*
X73376Y-51719D01*
X73473Y-51678D01*
X73548Y-51604D01*
X73588Y-51506D01*
X73589Y-51401D01*
X73589Y-54165D01*
X73535Y-54187D01*
X73473Y-54249D01*
X73440Y-54330D01*
X73439Y-54417D01*
X73473Y-54498D01*
X73535Y-54560D01*
X73616Y-54593D01*
X73703Y-54594D01*
X73784Y-54560D01*
X73846Y-54498D01*
X73879Y-54417D01*
X73880Y-54330D01*
X73880Y-55392D01*
X73872Y-55385D01*
X73791Y-55352D01*
X73704Y-55351D01*
X73623Y-55385D01*
X73562Y-55446D01*
X73550Y-55418D01*
X73488Y-55356D01*
X73407Y-55323D01*
X73320Y-55322D01*
X73241Y-55355D01*
X73241Y-53093D01*
X73200Y-52996D01*
X73126Y-52921D01*
X73123Y-52920D01*
X73123Y-52283D01*
X73082Y-52186D01*
X73008Y-52111D01*
X72910Y-52071D01*
X72805Y-52070D01*
X72708Y-52111D01*
X72633Y-52185D01*
X72593Y-52283D01*
X72592Y-52388D01*
X72633Y-52485D01*
X72707Y-52560D01*
X72805Y-52600D01*
X72910Y-52601D01*
X73007Y-52560D01*
X73082Y-52486D01*
X73122Y-52388D01*
X73123Y-52283D01*
X73123Y-52920D01*
X73028Y-52881D01*
X72923Y-52880D01*
X72826Y-52921D01*
X72751Y-52995D01*
X72711Y-53093D01*
X72710Y-53198D01*
X72751Y-53295D01*
X72825Y-53370D01*
X72923Y-53410D01*
X73028Y-53411D01*
X73125Y-53370D01*
X73200Y-53296D01*
X73240Y-53198D01*
X73241Y-53093D01*
X73241Y-55355D01*
X73239Y-55356D01*
X73177Y-55418D01*
X73144Y-55499D01*
X73143Y-55586D01*
X73177Y-55667D01*
X73239Y-55729D01*
X73320Y-55762D01*
X73407Y-55763D01*
X73488Y-55729D01*
X73549Y-55668D01*
X73561Y-55696D01*
X73623Y-55758D01*
X73704Y-55791D01*
X73791Y-55792D01*
X73872Y-55758D01*
X73934Y-55696D01*
X73967Y-55615D01*
X73968Y-55528D01*
X73968Y-59499D01*
X73962Y-59493D01*
X73962Y-59031D01*
X73921Y-58934D01*
X73865Y-58877D01*
X73865Y-57037D01*
X73824Y-56940D01*
X73750Y-56865D01*
X73652Y-56825D01*
X73547Y-56824D01*
X73496Y-56845D01*
X73497Y-56759D01*
X73456Y-56662D01*
X73382Y-56587D01*
X73284Y-56547D01*
X73179Y-56546D01*
X73082Y-56587D01*
X73007Y-56661D01*
X72967Y-56759D01*
X72966Y-56864D01*
X73007Y-56961D01*
X73081Y-57036D01*
X73179Y-57076D01*
X73284Y-57077D01*
X73335Y-57056D01*
X73334Y-57142D01*
X73375Y-57239D01*
X73449Y-57314D01*
X73547Y-57354D01*
X73652Y-57355D01*
X73749Y-57314D01*
X73824Y-57240D01*
X73864Y-57142D01*
X73865Y-57037D01*
X73865Y-58877D01*
X73847Y-58859D01*
X73749Y-58819D01*
X73644Y-58818D01*
X73547Y-58859D01*
X73472Y-58933D01*
X73432Y-59031D01*
X73431Y-59136D01*
X73472Y-59233D01*
X73546Y-59308D01*
X73644Y-59348D01*
X73749Y-59349D01*
X73846Y-59308D01*
X73921Y-59234D01*
X73961Y-59136D01*
X73962Y-59031D01*
X73962Y-59493D01*
X73942Y-59473D01*
X73844Y-59433D01*
X73739Y-59432D01*
X73642Y-59473D01*
X73567Y-59547D01*
X73527Y-59645D01*
X73526Y-59750D01*
X73547Y-59799D01*
X73428Y-59799D01*
X73380Y-59819D01*
X73343Y-59856D01*
X73324Y-59904D01*
X73323Y-59955D01*
X73323Y-60355D01*
X73343Y-60403D01*
X73380Y-60440D01*
X73428Y-60459D01*
X73479Y-60460D01*
X73879Y-60460D01*
X73927Y-60440D01*
X73964Y-60403D01*
X73983Y-60355D01*
X73984Y-60304D01*
X73984Y-59904D01*
X73977Y-59887D01*
X74016Y-59848D01*
X74056Y-59750D01*
X74057Y-59665D01*
X74087Y-59696D01*
X74178Y-59734D01*
X74177Y-59801D01*
X74220Y-59904D01*
X74299Y-59983D01*
X74402Y-60025D01*
X74513Y-60026D01*
X74616Y-59983D01*
X74695Y-59904D01*
X74737Y-59801D01*
X74738Y-59690D01*
X74738Y-60233D01*
X74702Y-60219D01*
X74597Y-60218D01*
X74500Y-60259D01*
X74425Y-60333D01*
X74385Y-60431D01*
X74384Y-60536D01*
X74425Y-60633D01*
X74499Y-60708D01*
X74597Y-60748D01*
X74702Y-60749D01*
X74799Y-60708D01*
X74874Y-60634D01*
X74914Y-60536D01*
X74915Y-60431D01*
X74915Y-61080D01*
X74794Y-61056D01*
X74661Y-61056D01*
X74540Y-61080D01*
X74437Y-61148D01*
X74368Y-61251D01*
X74344Y-61373D01*
X74368Y-61494D01*
X74437Y-61597D01*
X74540Y-61665D01*
X74661Y-61690D01*
X74794Y-61690D01*
X74915Y-61665D01*
X75018Y-61597D01*
X75087Y-61494D01*
X75111Y-61373D01*
X75111Y-61984D01*
X75004Y-62005D01*
X74904Y-62072D01*
X74838Y-62171D01*
X74815Y-62289D01*
X74815Y-62582D01*
X74838Y-62700D01*
X74904Y-62799D01*
X74995Y-62860D01*
X73348Y-62860D01*
X73348Y-61600D01*
X73307Y-61503D01*
X73233Y-61428D01*
X73140Y-61389D01*
X73143Y-61373D01*
X73119Y-61251D01*
X73050Y-61148D01*
X72984Y-61104D01*
X72984Y-60064D01*
X72933Y-59943D01*
X72847Y-59856D01*
X72847Y-58905D01*
X72809Y-58813D01*
X72809Y-58274D01*
X72787Y-58221D01*
X72787Y-53751D01*
X72746Y-53654D01*
X72672Y-53579D01*
X72574Y-53539D01*
X72469Y-53538D01*
X72467Y-53539D01*
X72467Y-52703D01*
X72426Y-52606D01*
X72352Y-52531D01*
X72254Y-52491D01*
X72237Y-52491D01*
X72237Y-50583D01*
X72196Y-50486D01*
X72122Y-50411D01*
X72024Y-50371D01*
X71919Y-50370D01*
X71846Y-50401D01*
X71846Y-48620D01*
X71812Y-48539D01*
X71750Y-48477D01*
X71669Y-48444D01*
X71653Y-48444D01*
X71653Y-46991D01*
X71612Y-46894D01*
X71538Y-46819D01*
X71440Y-46779D01*
X71335Y-46778D01*
X71238Y-46819D01*
X71163Y-46893D01*
X71123Y-46991D01*
X71122Y-47096D01*
X71163Y-47193D01*
X71237Y-47268D01*
X71335Y-47308D01*
X71440Y-47309D01*
X71537Y-47268D01*
X71612Y-47194D01*
X71652Y-47096D01*
X71653Y-46991D01*
X71653Y-48444D01*
X71582Y-48443D01*
X71501Y-48477D01*
X71439Y-48539D01*
X71406Y-48620D01*
X71405Y-48707D01*
X71439Y-48788D01*
X71501Y-48850D01*
X71582Y-48883D01*
X71669Y-48884D01*
X71750Y-48850D01*
X71812Y-48788D01*
X71845Y-48707D01*
X71846Y-48620D01*
X71846Y-50401D01*
X71822Y-50411D01*
X71747Y-50485D01*
X71707Y-50583D01*
X71706Y-50688D01*
X71747Y-50785D01*
X71821Y-50860D01*
X71919Y-50900D01*
X72024Y-50901D01*
X72121Y-50860D01*
X72196Y-50786D01*
X72236Y-50688D01*
X72237Y-50583D01*
X72237Y-52491D01*
X72157Y-52490D01*
X72157Y-51557D01*
X72116Y-51460D01*
X72042Y-51385D01*
X71944Y-51345D01*
X71839Y-51344D01*
X71742Y-51385D01*
X71667Y-51459D01*
X71627Y-51557D01*
X71626Y-51662D01*
X71667Y-51759D01*
X71741Y-51834D01*
X71839Y-51874D01*
X71944Y-51875D01*
X72041Y-51834D01*
X72116Y-51760D01*
X72156Y-51662D01*
X72157Y-51557D01*
X72157Y-52490D01*
X72149Y-52490D01*
X72052Y-52531D01*
X71977Y-52605D01*
X71937Y-52703D01*
X71936Y-52808D01*
X71977Y-52905D01*
X72051Y-52980D01*
X72149Y-53020D01*
X72254Y-53021D01*
X72351Y-52980D01*
X72426Y-52906D01*
X72466Y-52808D01*
X72467Y-52703D01*
X72467Y-53539D01*
X72372Y-53579D01*
X72297Y-53653D01*
X72257Y-53751D01*
X72256Y-53856D01*
X72297Y-53953D01*
X72371Y-54028D01*
X72469Y-54068D01*
X72574Y-54069D01*
X72671Y-54028D01*
X72746Y-53954D01*
X72786Y-53856D01*
X72787Y-53751D01*
X72787Y-58221D01*
X72775Y-58193D01*
X72713Y-58131D01*
X72632Y-58098D01*
X72545Y-58097D01*
X72545Y-58098D01*
X72545Y-54391D01*
X72511Y-54310D01*
X72449Y-54248D01*
X72368Y-54215D01*
X72281Y-54214D01*
X72200Y-54248D01*
X72138Y-54310D01*
X72109Y-54381D01*
X72109Y-53917D01*
X72068Y-53820D01*
X71994Y-53745D01*
X71896Y-53705D01*
X71791Y-53704D01*
X71694Y-53745D01*
X71619Y-53819D01*
X71579Y-53917D01*
X71578Y-54022D01*
X71619Y-54119D01*
X71693Y-54194D01*
X71791Y-54234D01*
X71896Y-54235D01*
X71993Y-54194D01*
X72068Y-54120D01*
X72108Y-54022D01*
X72109Y-53917D01*
X72109Y-54381D01*
X72105Y-54391D01*
X72104Y-54478D01*
X72138Y-54559D01*
X72200Y-54621D01*
X72281Y-54654D01*
X72368Y-54655D01*
X72449Y-54621D01*
X72511Y-54559D01*
X72544Y-54478D01*
X72545Y-54391D01*
X72545Y-58098D01*
X72464Y-58131D01*
X72402Y-58193D01*
X72378Y-58252D01*
X72307Y-58223D01*
X72202Y-58222D01*
X72197Y-58225D01*
X72197Y-56415D01*
X72156Y-56318D01*
X72132Y-56293D01*
X72132Y-55808D01*
X72098Y-55727D01*
X72087Y-55715D01*
X72087Y-54503D01*
X72046Y-54406D01*
X71972Y-54331D01*
X71874Y-54291D01*
X71769Y-54290D01*
X71672Y-54331D01*
X71597Y-54405D01*
X71557Y-54503D01*
X71556Y-54608D01*
X71597Y-54705D01*
X71671Y-54780D01*
X71769Y-54820D01*
X71874Y-54821D01*
X71971Y-54780D01*
X72046Y-54706D01*
X72086Y-54608D01*
X72087Y-54503D01*
X72087Y-55715D01*
X72036Y-55665D01*
X72023Y-55660D01*
X72048Y-55598D01*
X72049Y-55493D01*
X72008Y-55396D01*
X71934Y-55321D01*
X71952Y-55276D01*
X71953Y-55171D01*
X71912Y-55074D01*
X71838Y-54999D01*
X71740Y-54959D01*
X71701Y-54959D01*
X71701Y-54945D01*
X71660Y-54848D01*
X71586Y-54773D01*
X71488Y-54733D01*
X71383Y-54732D01*
X71286Y-54773D01*
X71248Y-54811D01*
X71248Y-53476D01*
X71214Y-53395D01*
X71152Y-53333D01*
X71113Y-53317D01*
X71113Y-49955D01*
X71072Y-49858D01*
X70998Y-49783D01*
X70900Y-49743D01*
X70843Y-49742D01*
X70843Y-46409D01*
X70802Y-46312D01*
X70728Y-46237D01*
X70630Y-46197D01*
X70525Y-46196D01*
X70428Y-46237D01*
X70353Y-46311D01*
X70313Y-46409D01*
X70312Y-46514D01*
X70353Y-46611D01*
X70427Y-46686D01*
X70525Y-46726D01*
X70630Y-46727D01*
X70727Y-46686D01*
X70802Y-46612D01*
X70842Y-46514D01*
X70843Y-46409D01*
X70843Y-49742D01*
X70795Y-49742D01*
X70700Y-49782D01*
X70666Y-49747D01*
X70568Y-49707D01*
X70463Y-49706D01*
X70366Y-49747D01*
X70303Y-49810D01*
X70303Y-48037D01*
X70262Y-47940D01*
X70188Y-47865D01*
X70090Y-47825D01*
X69985Y-47824D01*
X69907Y-47857D01*
X69907Y-46703D01*
X69866Y-46606D01*
X69792Y-46531D01*
X69694Y-46491D01*
X69589Y-46490D01*
X69492Y-46531D01*
X69417Y-46605D01*
X69377Y-46703D01*
X69376Y-46808D01*
X69417Y-46905D01*
X69491Y-46980D01*
X69589Y-47020D01*
X69694Y-47021D01*
X69791Y-46980D01*
X69866Y-46906D01*
X69906Y-46808D01*
X69907Y-46703D01*
X69907Y-47857D01*
X69888Y-47865D01*
X69813Y-47939D01*
X69773Y-48037D01*
X69772Y-48142D01*
X69813Y-48239D01*
X69887Y-48314D01*
X69985Y-48354D01*
X70090Y-48355D01*
X70187Y-48314D01*
X70262Y-48240D01*
X70302Y-48142D01*
X70303Y-48037D01*
X70303Y-49810D01*
X70291Y-49821D01*
X70287Y-49832D01*
X70287Y-49571D01*
X70246Y-49474D01*
X70172Y-49399D01*
X70074Y-49359D01*
X69969Y-49358D01*
X69872Y-49399D01*
X69797Y-49473D01*
X69757Y-49571D01*
X69756Y-49676D01*
X69797Y-49773D01*
X69871Y-49848D01*
X69969Y-49888D01*
X70074Y-49889D01*
X70171Y-49848D01*
X70246Y-49774D01*
X70286Y-49676D01*
X70287Y-49571D01*
X70287Y-49832D01*
X70251Y-49919D01*
X70250Y-50024D01*
X70291Y-50121D01*
X70365Y-50196D01*
X70463Y-50236D01*
X70568Y-50237D01*
X70663Y-50197D01*
X70697Y-50232D01*
X70795Y-50272D01*
X70900Y-50273D01*
X70997Y-50232D01*
X71072Y-50158D01*
X71112Y-50060D01*
X71113Y-49955D01*
X71113Y-53317D01*
X71071Y-53300D01*
X70984Y-53299D01*
X70903Y-53333D01*
X70841Y-53395D01*
X70808Y-53476D01*
X70807Y-53563D01*
X70841Y-53644D01*
X70903Y-53706D01*
X70984Y-53739D01*
X71071Y-53740D01*
X71152Y-53706D01*
X71214Y-53644D01*
X71247Y-53563D01*
X71248Y-53476D01*
X71248Y-54811D01*
X71211Y-54847D01*
X71171Y-54945D01*
X71170Y-55050D01*
X71211Y-55147D01*
X71285Y-55222D01*
X71383Y-55262D01*
X71422Y-55262D01*
X71422Y-55276D01*
X71463Y-55373D01*
X71537Y-55448D01*
X71519Y-55493D01*
X71518Y-55598D01*
X71559Y-55695D01*
X71633Y-55770D01*
X71696Y-55796D01*
X71692Y-55808D01*
X71691Y-55895D01*
X71725Y-55976D01*
X71787Y-56038D01*
X71868Y-56071D01*
X71955Y-56072D01*
X72036Y-56038D01*
X72098Y-55976D01*
X72131Y-55895D01*
X72132Y-55808D01*
X72132Y-56293D01*
X72082Y-56243D01*
X71984Y-56203D01*
X71879Y-56202D01*
X71782Y-56243D01*
X71707Y-56317D01*
X71667Y-56415D01*
X71666Y-56520D01*
X71707Y-56617D01*
X71746Y-56656D01*
X71727Y-56675D01*
X71694Y-56756D01*
X71693Y-56843D01*
X71727Y-56924D01*
X71789Y-56986D01*
X71870Y-57019D01*
X71957Y-57020D01*
X72038Y-56986D01*
X72100Y-56924D01*
X72133Y-56843D01*
X72134Y-56756D01*
X72100Y-56675D01*
X72099Y-56674D01*
X72156Y-56618D01*
X72196Y-56520D01*
X72197Y-56415D01*
X72197Y-58225D01*
X72105Y-58263D01*
X72030Y-58337D01*
X71990Y-58435D01*
X71989Y-58530D01*
X71945Y-58485D01*
X71887Y-58461D01*
X71900Y-58428D01*
X71901Y-58323D01*
X71897Y-58314D01*
X71929Y-58300D01*
X72004Y-58226D01*
X72044Y-58128D01*
X72045Y-58023D01*
X72004Y-57926D01*
X71930Y-57851D01*
X71832Y-57811D01*
X71727Y-57810D01*
X71630Y-57851D01*
X71555Y-57925D01*
X71515Y-58023D01*
X71514Y-58128D01*
X71518Y-58137D01*
X71486Y-58151D01*
X71411Y-58225D01*
X71371Y-58323D01*
X71370Y-58428D01*
X71411Y-58525D01*
X71485Y-58600D01*
X71543Y-58624D01*
X71530Y-58657D01*
X71529Y-58762D01*
X71560Y-58837D01*
X71540Y-58829D01*
X71435Y-58828D01*
X71338Y-58869D01*
X71263Y-58943D01*
X71223Y-59041D01*
X71222Y-59146D01*
X71263Y-59243D01*
X71337Y-59318D01*
X71435Y-59358D01*
X71540Y-59359D01*
X71637Y-59318D01*
X71712Y-59244D01*
X71752Y-59146D01*
X71753Y-59041D01*
X71722Y-58966D01*
X71742Y-58974D01*
X71847Y-58975D01*
X71944Y-58934D01*
X72019Y-58860D01*
X72059Y-58762D01*
X72060Y-58667D01*
X72104Y-58712D01*
X72202Y-58752D01*
X72307Y-58753D01*
X72404Y-58712D01*
X72479Y-58638D01*
X72519Y-58540D01*
X72519Y-58527D01*
X72545Y-58537D01*
X72632Y-58538D01*
X72713Y-58504D01*
X72775Y-58442D01*
X72808Y-58361D01*
X72809Y-58274D01*
X72809Y-58813D01*
X72806Y-58808D01*
X72732Y-58733D01*
X72634Y-58693D01*
X72529Y-58692D01*
X72432Y-58733D01*
X72357Y-58807D01*
X72317Y-58905D01*
X72316Y-59010D01*
X72357Y-59107D01*
X72431Y-59182D01*
X72529Y-59222D01*
X72634Y-59223D01*
X72731Y-59182D01*
X72806Y-59108D01*
X72846Y-59010D01*
X72847Y-58905D01*
X72847Y-59856D01*
X72841Y-59850D01*
X72719Y-59800D01*
X72588Y-59799D01*
X72467Y-59850D01*
X72403Y-59913D01*
X72341Y-59850D01*
X72219Y-59800D01*
X72088Y-59799D01*
X71967Y-59850D01*
X71903Y-59913D01*
X71841Y-59850D01*
X71719Y-59800D01*
X71588Y-59799D01*
X71467Y-59850D01*
X71374Y-59942D01*
X71324Y-60064D01*
X71323Y-60195D01*
X71374Y-60316D01*
X71466Y-60409D01*
X71588Y-60459D01*
X71719Y-60460D01*
X71840Y-60409D01*
X71904Y-60346D01*
X71966Y-60409D01*
X72088Y-60459D01*
X72219Y-60460D01*
X72340Y-60409D01*
X72404Y-60346D01*
X72466Y-60409D01*
X72588Y-60459D01*
X72719Y-60460D01*
X72840Y-60409D01*
X72933Y-60317D01*
X72983Y-60195D01*
X72984Y-60064D01*
X72984Y-61104D01*
X72947Y-61080D01*
X72882Y-61067D01*
X72899Y-61050D01*
X72939Y-60952D01*
X72940Y-60847D01*
X72899Y-60750D01*
X72825Y-60675D01*
X72727Y-60635D01*
X72622Y-60634D01*
X72525Y-60675D01*
X72490Y-60710D01*
X72442Y-60662D01*
X72339Y-60620D01*
X72228Y-60619D01*
X72125Y-60662D01*
X72046Y-60741D01*
X72004Y-60844D01*
X72003Y-60955D01*
X72046Y-61058D01*
X72125Y-61137D01*
X72228Y-61179D01*
X72339Y-61180D01*
X72442Y-61137D01*
X72490Y-61089D01*
X72517Y-61116D01*
X72469Y-61148D01*
X72400Y-61251D01*
X72376Y-61373D01*
X72400Y-61494D01*
X72469Y-61597D01*
X72572Y-61665D01*
X72693Y-61690D01*
X72817Y-61690D01*
X72817Y-61705D01*
X72858Y-61802D01*
X72932Y-61877D01*
X73030Y-61917D01*
X73135Y-61918D01*
X73232Y-61877D01*
X73307Y-61803D01*
X73347Y-61705D01*
X73348Y-61600D01*
X73348Y-62860D01*
X72492Y-62860D01*
X72583Y-62799D01*
X72649Y-62700D01*
X72673Y-62582D01*
X72673Y-62289D01*
X72649Y-62171D01*
X72583Y-62072D01*
X72483Y-62005D01*
X72366Y-61982D01*
X72248Y-62005D01*
X72148Y-62072D01*
X72082Y-62171D01*
X72059Y-62289D01*
X72059Y-62582D01*
X72082Y-62700D01*
X72148Y-62799D01*
X72239Y-62860D01*
X71371Y-62860D01*
X71371Y-62117D01*
X71330Y-62020D01*
X71256Y-61945D01*
X71173Y-61911D01*
X71244Y-61840D01*
X71284Y-61742D01*
X71285Y-61637D01*
X71244Y-61540D01*
X71185Y-61480D01*
X71185Y-56104D01*
X71151Y-56023D01*
X71089Y-55961D01*
X71008Y-55928D01*
X70921Y-55927D01*
X70840Y-55961D01*
X70778Y-56023D01*
X70745Y-56104D01*
X70744Y-56191D01*
X70778Y-56272D01*
X70840Y-56334D01*
X70921Y-56367D01*
X71008Y-56368D01*
X71089Y-56334D01*
X71151Y-56272D01*
X71184Y-56191D01*
X71185Y-56104D01*
X71185Y-61480D01*
X71170Y-61465D01*
X71072Y-61425D01*
X70967Y-61424D01*
X70882Y-61460D01*
X70882Y-59467D01*
X70878Y-59457D01*
X70878Y-58026D01*
X70844Y-57945D01*
X70822Y-57922D01*
X70822Y-56452D01*
X70788Y-56371D01*
X70726Y-56309D01*
X70719Y-56306D01*
X70719Y-55591D01*
X70719Y-55461D01*
X70718Y-55394D01*
X70693Y-55331D01*
X70691Y-55329D01*
X70693Y-55327D01*
X70718Y-55265D01*
X70719Y-55197D01*
X70719Y-55068D01*
X70718Y-55000D01*
X70693Y-54938D01*
X70691Y-54936D01*
X70693Y-54933D01*
X70718Y-54871D01*
X70719Y-54803D01*
X70719Y-54674D01*
X70718Y-54606D01*
X70693Y-54544D01*
X70691Y-54542D01*
X70693Y-54540D01*
X70718Y-54477D01*
X70719Y-54410D01*
X70719Y-54280D01*
X70718Y-54213D01*
X70693Y-54150D01*
X70645Y-54102D01*
X70582Y-54076D01*
X70542Y-54077D01*
X70513Y-54106D01*
X70513Y-53243D01*
X70472Y-53146D01*
X70398Y-53071D01*
X70300Y-53031D01*
X70221Y-53030D01*
X70221Y-51141D01*
X70180Y-51044D01*
X70106Y-50969D01*
X70067Y-50953D01*
X70078Y-50926D01*
X70079Y-50821D01*
X70038Y-50724D01*
X69964Y-50649D01*
X69866Y-50609D01*
X69761Y-50608D01*
X69664Y-50649D01*
X69589Y-50723D01*
X69549Y-50821D01*
X69548Y-50926D01*
X69589Y-51023D01*
X69663Y-51098D01*
X69702Y-51114D01*
X69691Y-51141D01*
X69690Y-51246D01*
X69731Y-51343D01*
X69805Y-51418D01*
X69903Y-51458D01*
X70008Y-51459D01*
X70105Y-51418D01*
X70180Y-51344D01*
X70220Y-51246D01*
X70221Y-51141D01*
X70221Y-53030D01*
X70195Y-53030D01*
X70098Y-53071D01*
X70023Y-53145D01*
X69983Y-53243D01*
X69982Y-53348D01*
X70023Y-53445D01*
X70097Y-53520D01*
X70195Y-53560D01*
X70300Y-53561D01*
X70397Y-53520D01*
X70472Y-53446D01*
X70512Y-53348D01*
X70513Y-53243D01*
X70513Y-54106D01*
X70499Y-54119D01*
X70499Y-54296D01*
X70676Y-54296D01*
X70718Y-54253D01*
X70719Y-54280D01*
X70719Y-54410D01*
X70718Y-54437D01*
X70676Y-54394D01*
X70499Y-54394D01*
X70499Y-54513D01*
X70499Y-54571D01*
X70499Y-54689D01*
X70676Y-54689D01*
X70718Y-54647D01*
X70719Y-54674D01*
X70719Y-54803D01*
X70718Y-54830D01*
X70676Y-54788D01*
X70499Y-54788D01*
X70499Y-54906D01*
X70499Y-54965D01*
X70499Y-55083D01*
X70676Y-55083D01*
X70718Y-55041D01*
X70719Y-55068D01*
X70719Y-55197D01*
X70718Y-55224D01*
X70676Y-55182D01*
X70499Y-55182D01*
X70499Y-55300D01*
X70499Y-55358D01*
X70499Y-55477D01*
X70676Y-55477D01*
X70718Y-55434D01*
X70719Y-55461D01*
X70719Y-55591D01*
X70718Y-55618D01*
X70676Y-55575D01*
X70499Y-55575D01*
X70499Y-55752D01*
X70542Y-55794D01*
X70582Y-55795D01*
X70645Y-55769D01*
X70693Y-55721D01*
X70718Y-55658D01*
X70719Y-55591D01*
X70719Y-56306D01*
X70645Y-56276D01*
X70558Y-56275D01*
X70477Y-56309D01*
X70415Y-56371D01*
X70401Y-56405D01*
X70401Y-55752D01*
X70401Y-55575D01*
X70401Y-55477D01*
X70401Y-55358D01*
X70401Y-55300D01*
X70401Y-55182D01*
X70401Y-55083D01*
X70401Y-54965D01*
X70401Y-54906D01*
X70401Y-54788D01*
X70401Y-54689D01*
X70401Y-54571D01*
X70401Y-54513D01*
X70401Y-54394D01*
X70401Y-54296D01*
X70401Y-54119D01*
X70358Y-54077D01*
X70318Y-54076D01*
X70255Y-54102D01*
X70253Y-54105D01*
X70251Y-54102D01*
X70188Y-54076D01*
X70148Y-54077D01*
X70106Y-54119D01*
X70106Y-54296D01*
X70224Y-54296D01*
X70282Y-54296D01*
X70401Y-54296D01*
X70401Y-54394D01*
X70282Y-54394D01*
X70224Y-54394D01*
X70106Y-54394D01*
X70106Y-54513D01*
X70106Y-54571D01*
X70106Y-54689D01*
X70224Y-54689D01*
X70282Y-54689D01*
X70401Y-54689D01*
X70401Y-54788D01*
X70282Y-54788D01*
X70224Y-54788D01*
X70106Y-54788D01*
X70106Y-54906D01*
X70106Y-54965D01*
X70106Y-55083D01*
X70224Y-55083D01*
X70282Y-55083D01*
X70401Y-55083D01*
X70401Y-55182D01*
X70282Y-55182D01*
X70224Y-55182D01*
X70106Y-55182D01*
X70106Y-55300D01*
X70106Y-55358D01*
X70106Y-55477D01*
X70224Y-55477D01*
X70282Y-55477D01*
X70401Y-55477D01*
X70401Y-55575D01*
X70282Y-55575D01*
X70224Y-55575D01*
X70106Y-55575D01*
X70106Y-55752D01*
X70148Y-55794D01*
X70188Y-55795D01*
X70251Y-55769D01*
X70253Y-55766D01*
X70255Y-55769D01*
X70318Y-55795D01*
X70358Y-55794D01*
X70401Y-55752D01*
X70401Y-56405D01*
X70382Y-56452D01*
X70381Y-56539D01*
X70391Y-56563D01*
X70325Y-56536D01*
X70238Y-56535D01*
X70157Y-56569D01*
X70095Y-56631D01*
X70062Y-56712D01*
X70061Y-56799D01*
X70095Y-56880D01*
X70157Y-56942D01*
X70238Y-56975D01*
X70325Y-56976D01*
X70406Y-56942D01*
X70468Y-56880D01*
X70501Y-56799D01*
X70502Y-56712D01*
X70492Y-56688D01*
X70558Y-56715D01*
X70645Y-56716D01*
X70726Y-56682D01*
X70788Y-56620D01*
X70821Y-56539D01*
X70822Y-56452D01*
X70822Y-57922D01*
X70782Y-57883D01*
X70701Y-57850D01*
X70614Y-57849D01*
X70533Y-57883D01*
X70471Y-57945D01*
X70438Y-58026D01*
X70437Y-58113D01*
X70444Y-58128D01*
X70395Y-58177D01*
X70362Y-58258D01*
X70361Y-58345D01*
X70395Y-58426D01*
X70457Y-58488D01*
X70538Y-58521D01*
X70625Y-58522D01*
X70706Y-58488D01*
X70768Y-58426D01*
X70801Y-58345D01*
X70802Y-58258D01*
X70795Y-58243D01*
X70844Y-58194D01*
X70877Y-58113D01*
X70878Y-58026D01*
X70878Y-59457D01*
X70841Y-59370D01*
X70767Y-59295D01*
X70686Y-59262D01*
X70758Y-59190D01*
X70798Y-59092D01*
X70799Y-58987D01*
X70758Y-58890D01*
X70684Y-58815D01*
X70586Y-58775D01*
X70481Y-58774D01*
X70384Y-58815D01*
X70309Y-58889D01*
X70269Y-58987D01*
X70268Y-59092D01*
X70309Y-59189D01*
X70383Y-59264D01*
X70464Y-59297D01*
X70392Y-59369D01*
X70352Y-59467D01*
X70351Y-59572D01*
X70392Y-59669D01*
X70466Y-59744D01*
X70564Y-59784D01*
X70669Y-59785D01*
X70766Y-59744D01*
X70841Y-59670D01*
X70881Y-59572D01*
X70882Y-59467D01*
X70882Y-61460D01*
X70870Y-61465D01*
X70795Y-61539D01*
X70755Y-61637D01*
X70754Y-61742D01*
X70795Y-61839D01*
X70869Y-61914D01*
X70952Y-61948D01*
X70881Y-62019D01*
X70854Y-62085D01*
X70775Y-62084D01*
X70678Y-62125D01*
X70603Y-62199D01*
X70563Y-62297D01*
X70562Y-62402D01*
X70603Y-62499D01*
X70677Y-62574D01*
X70775Y-62614D01*
X70880Y-62615D01*
X70977Y-62574D01*
X71052Y-62500D01*
X71079Y-62434D01*
X71158Y-62435D01*
X71255Y-62394D01*
X71330Y-62320D01*
X71370Y-62222D01*
X71371Y-62117D01*
X71371Y-62860D01*
X70562Y-62860D01*
X70566Y-62848D01*
X70567Y-62743D01*
X70526Y-62646D01*
X70452Y-62571D01*
X70354Y-62531D01*
X70249Y-62530D01*
X70152Y-62571D01*
X70099Y-62623D01*
X70099Y-62106D01*
X70099Y-61791D01*
X70099Y-61476D01*
X70090Y-61383D01*
X70079Y-61356D01*
X70079Y-58151D01*
X70057Y-58098D01*
X70057Y-56869D01*
X70016Y-56772D01*
X70007Y-56762D01*
X70007Y-55752D01*
X70007Y-55575D01*
X70007Y-55477D01*
X70007Y-55358D01*
X70007Y-55300D01*
X70007Y-55182D01*
X70007Y-55083D01*
X70007Y-54965D01*
X70007Y-54906D01*
X70007Y-54788D01*
X70007Y-54689D01*
X70007Y-54571D01*
X70007Y-54513D01*
X70007Y-54394D01*
X70007Y-54296D01*
X70007Y-54119D01*
X69965Y-54077D01*
X69924Y-54076D01*
X69862Y-54102D01*
X69860Y-54105D01*
X69857Y-54102D01*
X69795Y-54076D01*
X69754Y-54077D01*
X69712Y-54119D01*
X69712Y-54296D01*
X69830Y-54296D01*
X69889Y-54296D01*
X70007Y-54296D01*
X70007Y-54394D01*
X69889Y-54394D01*
X69830Y-54394D01*
X69712Y-54394D01*
X69712Y-54513D01*
X69712Y-54571D01*
X69712Y-54689D01*
X69830Y-54689D01*
X69889Y-54689D01*
X70007Y-54689D01*
X70007Y-54788D01*
X69889Y-54788D01*
X69830Y-54788D01*
X69712Y-54788D01*
X69712Y-54906D01*
X69712Y-54965D01*
X69712Y-55083D01*
X69830Y-55083D01*
X69889Y-55083D01*
X70007Y-55083D01*
X70007Y-55182D01*
X69889Y-55182D01*
X69830Y-55182D01*
X69712Y-55182D01*
X69712Y-55300D01*
X69712Y-55358D01*
X69712Y-55477D01*
X69830Y-55477D01*
X69889Y-55477D01*
X70007Y-55477D01*
X70007Y-55575D01*
X69889Y-55575D01*
X69830Y-55575D01*
X69712Y-55575D01*
X69712Y-55752D01*
X69754Y-55794D01*
X69795Y-55795D01*
X69857Y-55769D01*
X69860Y-55766D01*
X69862Y-55769D01*
X69924Y-55795D01*
X69965Y-55794D01*
X70007Y-55752D01*
X70007Y-56762D01*
X69942Y-56697D01*
X69844Y-56657D01*
X69739Y-56656D01*
X69680Y-56681D01*
X69680Y-53274D01*
X69637Y-53171D01*
X69558Y-53092D01*
X69455Y-53050D01*
X69417Y-53050D01*
X69417Y-50719D01*
X69376Y-50622D01*
X69302Y-50547D01*
X69204Y-50507D01*
X69123Y-50506D01*
X69123Y-49815D01*
X69082Y-49718D01*
X69011Y-49646D01*
X69011Y-48787D01*
X68988Y-48731D01*
X68988Y-44463D01*
X68941Y-44350D01*
X68855Y-44263D01*
X68742Y-44217D01*
X68620Y-44216D01*
X68507Y-44263D01*
X68420Y-44349D01*
X68374Y-44462D01*
X68373Y-44584D01*
X68420Y-44697D01*
X68506Y-44784D01*
X68619Y-44830D01*
X68741Y-44831D01*
X68854Y-44784D01*
X68941Y-44698D01*
X68987Y-44585D01*
X68988Y-44463D01*
X68988Y-48731D01*
X68984Y-48722D01*
X68984Y-46935D01*
X68937Y-46822D01*
X68851Y-46735D01*
X68738Y-46689D01*
X68616Y-46688D01*
X68517Y-46729D01*
X68517Y-45875D01*
X68476Y-45778D01*
X68402Y-45703D01*
X68304Y-45663D01*
X68281Y-45663D01*
X68281Y-44611D01*
X68240Y-44514D01*
X68166Y-44439D01*
X68068Y-44399D01*
X67963Y-44398D01*
X67866Y-44439D01*
X67806Y-44499D01*
X67806Y-44463D01*
X67759Y-44350D01*
X67673Y-44263D01*
X67560Y-44217D01*
X67438Y-44216D01*
X67325Y-44263D01*
X67238Y-44349D01*
X67192Y-44462D01*
X67191Y-44584D01*
X67238Y-44697D01*
X67324Y-44784D01*
X67437Y-44830D01*
X67559Y-44831D01*
X67672Y-44784D01*
X67750Y-44706D01*
X67750Y-44716D01*
X67791Y-44813D01*
X67865Y-44888D01*
X67963Y-44928D01*
X68068Y-44929D01*
X68165Y-44888D01*
X68240Y-44814D01*
X68280Y-44716D01*
X68281Y-44611D01*
X68281Y-45663D01*
X68199Y-45662D01*
X68102Y-45703D01*
X68027Y-45777D01*
X67987Y-45875D01*
X67986Y-45980D01*
X68027Y-46077D01*
X68101Y-46152D01*
X68199Y-46192D01*
X68304Y-46193D01*
X68401Y-46152D01*
X68476Y-46078D01*
X68516Y-45980D01*
X68517Y-45875D01*
X68517Y-46729D01*
X68503Y-46735D01*
X68416Y-46821D01*
X68370Y-46934D01*
X68369Y-47056D01*
X68384Y-47093D01*
X68285Y-47092D01*
X68188Y-47133D01*
X68113Y-47207D01*
X68073Y-47305D01*
X68072Y-47410D01*
X68113Y-47507D01*
X68187Y-47582D01*
X68285Y-47622D01*
X68390Y-47623D01*
X68487Y-47582D01*
X68562Y-47508D01*
X68602Y-47410D01*
X68603Y-47305D01*
X68599Y-47296D01*
X68615Y-47302D01*
X68737Y-47303D01*
X68850Y-47256D01*
X68937Y-47170D01*
X68983Y-47057D01*
X68984Y-46935D01*
X68984Y-48722D01*
X68970Y-48690D01*
X68896Y-48615D01*
X68798Y-48575D01*
X68693Y-48574D01*
X68596Y-48615D01*
X68521Y-48689D01*
X68481Y-48787D01*
X68480Y-48892D01*
X68521Y-48989D01*
X68595Y-49064D01*
X68693Y-49104D01*
X68798Y-49105D01*
X68895Y-49064D01*
X68970Y-48990D01*
X69010Y-48892D01*
X69011Y-48787D01*
X69011Y-49646D01*
X69008Y-49643D01*
X68961Y-49623D01*
X68987Y-49559D01*
X68988Y-49437D01*
X68941Y-49324D01*
X68855Y-49237D01*
X68742Y-49191D01*
X68620Y-49190D01*
X68507Y-49237D01*
X68420Y-49323D01*
X68374Y-49436D01*
X68373Y-49558D01*
X68420Y-49671D01*
X68506Y-49758D01*
X68600Y-49797D01*
X68593Y-49815D01*
X68592Y-49920D01*
X68633Y-50017D01*
X68707Y-50092D01*
X68805Y-50132D01*
X68910Y-50133D01*
X69007Y-50092D01*
X69082Y-50018D01*
X69122Y-49920D01*
X69123Y-49815D01*
X69123Y-50506D01*
X69099Y-50506D01*
X69002Y-50547D01*
X68927Y-50621D01*
X68887Y-50719D01*
X68886Y-50824D01*
X68927Y-50921D01*
X69001Y-50996D01*
X69099Y-51036D01*
X69204Y-51037D01*
X69301Y-50996D01*
X69376Y-50922D01*
X69416Y-50824D01*
X69417Y-50719D01*
X69417Y-53050D01*
X69344Y-53049D01*
X69241Y-53092D01*
X69162Y-53171D01*
X69120Y-53274D01*
X69119Y-53385D01*
X69162Y-53488D01*
X69241Y-53567D01*
X69344Y-53609D01*
X69455Y-53610D01*
X69558Y-53567D01*
X69637Y-53488D01*
X69679Y-53385D01*
X69680Y-53274D01*
X69680Y-56681D01*
X69642Y-56697D01*
X69613Y-56725D01*
X69613Y-55752D01*
X69613Y-55575D01*
X69613Y-55477D01*
X69613Y-55358D01*
X69613Y-55300D01*
X69613Y-55182D01*
X69613Y-55083D01*
X69613Y-54965D01*
X69613Y-54906D01*
X69613Y-54788D01*
X69613Y-54689D01*
X69613Y-54571D01*
X69613Y-54513D01*
X69613Y-54394D01*
X69613Y-54296D01*
X69613Y-54119D01*
X69571Y-54077D01*
X69531Y-54076D01*
X69468Y-54102D01*
X69466Y-54105D01*
X69464Y-54102D01*
X69401Y-54076D01*
X69361Y-54077D01*
X69318Y-54119D01*
X69318Y-54296D01*
X69437Y-54296D01*
X69495Y-54296D01*
X69613Y-54296D01*
X69613Y-54394D01*
X69495Y-54394D01*
X69437Y-54394D01*
X69318Y-54394D01*
X69318Y-54513D01*
X69318Y-54571D01*
X69318Y-54689D01*
X69437Y-54689D01*
X69495Y-54689D01*
X69613Y-54689D01*
X69613Y-54788D01*
X69495Y-54788D01*
X69437Y-54788D01*
X69318Y-54788D01*
X69318Y-54906D01*
X69318Y-54965D01*
X69318Y-55083D01*
X69437Y-55083D01*
X69495Y-55083D01*
X69613Y-55083D01*
X69613Y-55182D01*
X69495Y-55182D01*
X69437Y-55182D01*
X69318Y-55182D01*
X69318Y-55300D01*
X69318Y-55358D01*
X69318Y-55477D01*
X69437Y-55477D01*
X69495Y-55477D01*
X69613Y-55477D01*
X69613Y-55575D01*
X69495Y-55575D01*
X69437Y-55575D01*
X69318Y-55575D01*
X69318Y-55752D01*
X69361Y-55794D01*
X69401Y-55795D01*
X69464Y-55769D01*
X69466Y-55766D01*
X69468Y-55769D01*
X69531Y-55795D01*
X69571Y-55794D01*
X69613Y-55752D01*
X69613Y-56725D01*
X69567Y-56771D01*
X69527Y-56869D01*
X69526Y-56974D01*
X69567Y-57071D01*
X69641Y-57146D01*
X69739Y-57186D01*
X69844Y-57187D01*
X69941Y-57146D01*
X70016Y-57072D01*
X70056Y-56974D01*
X70057Y-56869D01*
X70057Y-58098D01*
X70038Y-58054D01*
X69964Y-57979D01*
X69866Y-57939D01*
X69761Y-57938D01*
X69664Y-57979D01*
X69655Y-57988D01*
X69655Y-57623D01*
X69614Y-57526D01*
X69540Y-57451D01*
X69453Y-57415D01*
X69453Y-56909D01*
X69412Y-56812D01*
X69338Y-56737D01*
X69240Y-56697D01*
X69220Y-56697D01*
X69220Y-55752D01*
X69220Y-55575D01*
X69220Y-55477D01*
X69220Y-55358D01*
X69220Y-55300D01*
X69220Y-55182D01*
X69220Y-55083D01*
X69220Y-54965D01*
X69220Y-54906D01*
X69220Y-54788D01*
X69220Y-54689D01*
X69220Y-54571D01*
X69220Y-54513D01*
X69220Y-54394D01*
X69220Y-54296D01*
X69220Y-54119D01*
X69177Y-54077D01*
X69137Y-54076D01*
X69074Y-54102D01*
X69026Y-54150D01*
X69001Y-54213D01*
X69000Y-54280D01*
X69001Y-54253D01*
X69043Y-54296D01*
X69220Y-54296D01*
X69220Y-54394D01*
X69043Y-54394D01*
X69001Y-54437D01*
X69000Y-54410D01*
X69001Y-54477D01*
X69026Y-54540D01*
X69028Y-54542D01*
X69026Y-54544D01*
X69001Y-54606D01*
X69000Y-54674D01*
X69001Y-54647D01*
X69043Y-54689D01*
X69220Y-54689D01*
X69220Y-54788D01*
X69043Y-54788D01*
X69001Y-54830D01*
X69000Y-54803D01*
X69001Y-54871D01*
X69026Y-54933D01*
X69028Y-54936D01*
X69026Y-54938D01*
X69001Y-55000D01*
X69000Y-55068D01*
X69001Y-55041D01*
X69043Y-55083D01*
X69220Y-55083D01*
X69220Y-55182D01*
X69043Y-55182D01*
X69001Y-55224D01*
X69000Y-55197D01*
X69001Y-55265D01*
X69026Y-55327D01*
X69028Y-55329D01*
X69026Y-55331D01*
X69001Y-55394D01*
X69000Y-55461D01*
X69001Y-55434D01*
X69043Y-55477D01*
X69220Y-55477D01*
X69220Y-55575D01*
X69043Y-55575D01*
X69001Y-55618D01*
X69000Y-55591D01*
X69001Y-55658D01*
X69026Y-55721D01*
X69074Y-55769D01*
X69137Y-55795D01*
X69177Y-55794D01*
X69220Y-55752D01*
X69220Y-56697D01*
X69135Y-56696D01*
X69038Y-56737D01*
X68977Y-56798D01*
X68977Y-53651D01*
X68936Y-53554D01*
X68862Y-53479D01*
X68764Y-53439D01*
X68659Y-53438D01*
X68562Y-53479D01*
X68487Y-53553D01*
X68480Y-53571D01*
X68480Y-50342D01*
X68446Y-50261D01*
X68384Y-50199D01*
X68303Y-50166D01*
X68216Y-50165D01*
X68135Y-50199D01*
X68073Y-50261D01*
X68040Y-50342D01*
X68039Y-50429D01*
X68073Y-50510D01*
X68135Y-50572D01*
X68216Y-50605D01*
X68303Y-50606D01*
X68384Y-50572D01*
X68446Y-50510D01*
X68479Y-50429D01*
X68480Y-50342D01*
X68480Y-53571D01*
X68447Y-53651D01*
X68446Y-53756D01*
X68487Y-53853D01*
X68561Y-53928D01*
X68659Y-53968D01*
X68764Y-53969D01*
X68861Y-53928D01*
X68936Y-53854D01*
X68976Y-53756D01*
X68977Y-53651D01*
X68977Y-56798D01*
X68963Y-56811D01*
X68923Y-56909D01*
X68922Y-57014D01*
X68963Y-57111D01*
X69037Y-57186D01*
X69135Y-57226D01*
X69240Y-57227D01*
X69337Y-57186D01*
X69412Y-57112D01*
X69452Y-57014D01*
X69453Y-56909D01*
X69453Y-57415D01*
X69442Y-57411D01*
X69337Y-57410D01*
X69240Y-57451D01*
X69165Y-57525D01*
X69125Y-57623D01*
X69124Y-57728D01*
X69165Y-57825D01*
X69239Y-57900D01*
X69337Y-57940D01*
X69442Y-57941D01*
X69539Y-57900D01*
X69614Y-57826D01*
X69654Y-57728D01*
X69655Y-57623D01*
X69655Y-57988D01*
X69589Y-58053D01*
X69549Y-58151D01*
X69548Y-58256D01*
X69589Y-58353D01*
X69663Y-58428D01*
X69761Y-58468D01*
X69866Y-58469D01*
X69963Y-58428D01*
X70038Y-58354D01*
X70078Y-58256D01*
X70079Y-58151D01*
X70079Y-61356D01*
X70072Y-61339D01*
X70021Y-61338D01*
X69975Y-61384D01*
X69975Y-61292D01*
X69974Y-61241D01*
X69884Y-61214D01*
X69791Y-61223D01*
X69747Y-61241D01*
X69746Y-61292D01*
X69861Y-61407D01*
X69975Y-61292D01*
X69975Y-61384D01*
X69906Y-61453D01*
X70021Y-61567D01*
X70072Y-61566D01*
X70099Y-61476D01*
X70099Y-61791D01*
X70090Y-61698D01*
X70072Y-61654D01*
X70021Y-61653D01*
X69906Y-61768D01*
X70021Y-61882D01*
X70072Y-61881D01*
X70099Y-61791D01*
X70099Y-62106D01*
X70090Y-62013D01*
X70072Y-61969D01*
X70021Y-61968D01*
X69975Y-62014D01*
X69975Y-61928D01*
X69972Y-61925D01*
X69975Y-61922D01*
X69974Y-61871D01*
X69894Y-61847D01*
X69861Y-61813D01*
X69843Y-61831D01*
X69797Y-61785D01*
X69815Y-61768D01*
X69797Y-61750D01*
X69843Y-61704D01*
X69861Y-61722D01*
X69897Y-61685D01*
X69930Y-61682D01*
X69974Y-61664D01*
X69975Y-61613D01*
X69972Y-61610D01*
X69975Y-61607D01*
X69974Y-61556D01*
X69894Y-61532D01*
X69861Y-61498D01*
X69843Y-61516D01*
X69797Y-61470D01*
X69815Y-61453D01*
X69778Y-61416D01*
X69775Y-61383D01*
X69757Y-61339D01*
X69706Y-61338D01*
X69703Y-61341D01*
X69700Y-61338D01*
X69660Y-61339D01*
X69660Y-61292D01*
X69659Y-61241D01*
X69569Y-61214D01*
X69505Y-61220D01*
X69505Y-58497D01*
X69464Y-58400D01*
X69390Y-58325D01*
X69292Y-58285D01*
X69187Y-58284D01*
X69090Y-58325D01*
X69018Y-58397D01*
X69018Y-57739D01*
X68971Y-57626D01*
X68885Y-57539D01*
X68775Y-57494D01*
X68794Y-57446D01*
X68795Y-57341D01*
X68779Y-57302D01*
X68779Y-56471D01*
X68738Y-56374D01*
X68664Y-56299D01*
X68575Y-56262D01*
X68575Y-55617D01*
X68534Y-55520D01*
X68460Y-55445D01*
X68400Y-55420D01*
X68400Y-54067D01*
X68359Y-53970D01*
X68285Y-53895D01*
X68187Y-53855D01*
X68082Y-53854D01*
X67985Y-53895D01*
X67910Y-53969D01*
X67870Y-54067D01*
X67869Y-54172D01*
X67910Y-54269D01*
X67984Y-54344D01*
X67984Y-54344D01*
X67906Y-54377D01*
X67831Y-54451D01*
X67806Y-54512D01*
X67806Y-49437D01*
X67802Y-49427D01*
X67802Y-46935D01*
X67755Y-46822D01*
X67669Y-46735D01*
X67556Y-46689D01*
X67434Y-46688D01*
X67321Y-46735D01*
X67234Y-46821D01*
X67188Y-46934D01*
X67187Y-47056D01*
X67234Y-47169D01*
X67320Y-47256D01*
X67433Y-47302D01*
X67555Y-47303D01*
X67668Y-47256D01*
X67755Y-47170D01*
X67801Y-47057D01*
X67802Y-46935D01*
X67802Y-49427D01*
X67759Y-49324D01*
X67673Y-49237D01*
X67560Y-49191D01*
X67438Y-49190D01*
X67325Y-49237D01*
X67238Y-49323D01*
X67192Y-49436D01*
X67191Y-49558D01*
X67238Y-49671D01*
X67324Y-49758D01*
X67437Y-49804D01*
X67559Y-49805D01*
X67672Y-49758D01*
X67759Y-49672D01*
X67805Y-49559D01*
X67806Y-49437D01*
X67806Y-54512D01*
X67791Y-54549D01*
X67790Y-54654D01*
X67831Y-54751D01*
X67905Y-54826D01*
X68003Y-54866D01*
X68108Y-54867D01*
X68205Y-54826D01*
X68280Y-54752D01*
X68320Y-54654D01*
X68321Y-54549D01*
X68280Y-54452D01*
X68206Y-54377D01*
X68206Y-54377D01*
X68284Y-54344D01*
X68359Y-54270D01*
X68399Y-54172D01*
X68400Y-54067D01*
X68400Y-55420D01*
X68362Y-55405D01*
X68257Y-55404D01*
X68160Y-55445D01*
X68085Y-55519D01*
X68045Y-55617D01*
X68045Y-55632D01*
X68026Y-55613D01*
X67928Y-55573D01*
X67823Y-55572D01*
X67726Y-55613D01*
X67651Y-55687D01*
X67611Y-55785D01*
X67610Y-55890D01*
X67651Y-55987D01*
X67725Y-56062D01*
X67823Y-56102D01*
X67928Y-56103D01*
X68025Y-56062D01*
X68100Y-55988D01*
X68140Y-55890D01*
X68140Y-55875D01*
X68159Y-55894D01*
X68257Y-55934D01*
X68362Y-55935D01*
X68459Y-55894D01*
X68534Y-55820D01*
X68574Y-55722D01*
X68575Y-55617D01*
X68575Y-56262D01*
X68566Y-56259D01*
X68461Y-56258D01*
X68364Y-56299D01*
X68289Y-56373D01*
X68249Y-56471D01*
X68248Y-56576D01*
X68289Y-56673D01*
X68363Y-56748D01*
X68461Y-56788D01*
X68566Y-56789D01*
X68663Y-56748D01*
X68738Y-56674D01*
X68778Y-56576D01*
X68779Y-56471D01*
X68779Y-57302D01*
X68754Y-57244D01*
X68680Y-57169D01*
X68582Y-57129D01*
X68477Y-57128D01*
X68380Y-57169D01*
X68305Y-57243D01*
X68284Y-57295D01*
X68284Y-56724D01*
X68243Y-56627D01*
X68169Y-56552D01*
X68071Y-56512D01*
X67966Y-56511D01*
X67869Y-56552D01*
X67794Y-56626D01*
X67754Y-56724D01*
X67753Y-56829D01*
X67794Y-56926D01*
X67868Y-57001D01*
X67966Y-57041D01*
X68071Y-57042D01*
X68168Y-57001D01*
X68243Y-56927D01*
X68283Y-56829D01*
X68284Y-56724D01*
X68284Y-57295D01*
X68265Y-57341D01*
X68264Y-57446D01*
X68305Y-57543D01*
X68379Y-57618D01*
X68443Y-57644D01*
X68404Y-57738D01*
X68403Y-57860D01*
X68450Y-57973D01*
X68536Y-58060D01*
X68649Y-58106D01*
X68771Y-58107D01*
X68884Y-58060D01*
X68971Y-57974D01*
X69017Y-57861D01*
X69018Y-57739D01*
X69018Y-58397D01*
X69015Y-58399D01*
X68975Y-58497D01*
X68974Y-58602D01*
X69015Y-58699D01*
X69062Y-58747D01*
X69035Y-58813D01*
X69034Y-58900D01*
X69068Y-58981D01*
X69130Y-59043D01*
X69211Y-59076D01*
X69298Y-59077D01*
X69379Y-59043D01*
X69441Y-58981D01*
X69474Y-58900D01*
X69475Y-58813D01*
X69441Y-58732D01*
X69436Y-58727D01*
X69464Y-58700D01*
X69504Y-58602D01*
X69505Y-58497D01*
X69505Y-61220D01*
X69496Y-61221D01*
X69496Y-60513D01*
X69455Y-60416D01*
X69381Y-60341D01*
X69283Y-60301D01*
X69178Y-60300D01*
X69081Y-60341D01*
X69006Y-60415D01*
X68966Y-60513D01*
X68965Y-60618D01*
X69006Y-60715D01*
X69080Y-60790D01*
X69178Y-60830D01*
X69283Y-60831D01*
X69380Y-60790D01*
X69455Y-60716D01*
X69495Y-60618D01*
X69496Y-60513D01*
X69496Y-61221D01*
X69476Y-61223D01*
X69432Y-61241D01*
X69431Y-61292D01*
X69546Y-61407D01*
X69660Y-61292D01*
X69660Y-61339D01*
X69649Y-61339D01*
X69625Y-61419D01*
X69591Y-61453D01*
X69609Y-61470D01*
X69563Y-61516D01*
X69546Y-61498D01*
X69528Y-61516D01*
X69482Y-61470D01*
X69500Y-61453D01*
X69463Y-61416D01*
X69460Y-61383D01*
X69442Y-61339D01*
X69391Y-61338D01*
X69388Y-61341D01*
X69385Y-61338D01*
X69345Y-61339D01*
X69345Y-61292D01*
X69344Y-61241D01*
X69254Y-61214D01*
X69161Y-61223D01*
X69117Y-61241D01*
X69116Y-61292D01*
X69231Y-61407D01*
X69345Y-61292D01*
X69345Y-61339D01*
X69334Y-61339D01*
X69310Y-61419D01*
X69276Y-61453D01*
X69294Y-61470D01*
X69248Y-61516D01*
X69231Y-61498D01*
X69194Y-61535D01*
X69185Y-61536D01*
X69185Y-61453D01*
X69113Y-61381D01*
X69113Y-60961D01*
X69072Y-60864D01*
X68998Y-60789D01*
X68900Y-60749D01*
X68795Y-60748D01*
X68698Y-60789D01*
X68623Y-60863D01*
X68583Y-60961D01*
X68582Y-61066D01*
X68623Y-61163D01*
X68697Y-61238D01*
X68795Y-61278D01*
X68900Y-61279D01*
X68997Y-61238D01*
X69072Y-61164D01*
X69112Y-61066D01*
X69113Y-60961D01*
X69113Y-61381D01*
X69070Y-61338D01*
X69019Y-61339D01*
X68992Y-61429D01*
X69001Y-61522D01*
X69019Y-61566D01*
X69070Y-61567D01*
X69185Y-61453D01*
X69185Y-61536D01*
X69161Y-61538D01*
X69117Y-61556D01*
X69116Y-61607D01*
X69119Y-61610D01*
X69116Y-61613D01*
X69117Y-61664D01*
X69197Y-61688D01*
X69231Y-61722D01*
X69248Y-61704D01*
X69294Y-61750D01*
X69276Y-61768D01*
X69294Y-61785D01*
X69248Y-61831D01*
X69231Y-61813D01*
X69194Y-61850D01*
X69185Y-61851D01*
X69185Y-61768D01*
X69070Y-61653D01*
X69019Y-61654D01*
X68992Y-61744D01*
X69001Y-61837D01*
X69019Y-61881D01*
X69070Y-61882D01*
X69185Y-61768D01*
X69185Y-61851D01*
X69161Y-61853D01*
X69117Y-61871D01*
X69116Y-61922D01*
X69119Y-61925D01*
X69116Y-61928D01*
X69117Y-61979D01*
X69197Y-62003D01*
X69231Y-62037D01*
X69248Y-62019D01*
X69294Y-62065D01*
X69276Y-62083D01*
X69313Y-62119D01*
X69316Y-62152D01*
X69334Y-62196D01*
X69385Y-62197D01*
X69388Y-62194D01*
X69391Y-62197D01*
X69442Y-62196D01*
X69466Y-62116D01*
X69500Y-62083D01*
X69482Y-62065D01*
X69528Y-62019D01*
X69546Y-62037D01*
X69563Y-62019D01*
X69609Y-62065D01*
X69591Y-62083D01*
X69628Y-62119D01*
X69631Y-62152D01*
X69649Y-62196D01*
X69700Y-62197D01*
X69703Y-62194D01*
X69706Y-62197D01*
X69757Y-62196D01*
X69781Y-62116D01*
X69815Y-62083D01*
X69797Y-62065D01*
X69843Y-62019D01*
X69861Y-62037D01*
X69897Y-62000D01*
X69930Y-61997D01*
X69974Y-61979D01*
X69975Y-61928D01*
X69975Y-62014D01*
X69906Y-62083D01*
X70021Y-62197D01*
X70072Y-62196D01*
X70099Y-62106D01*
X70099Y-62623D01*
X70077Y-62645D01*
X70037Y-62743D01*
X70036Y-62848D01*
X70041Y-62860D01*
X69975Y-62860D01*
X69975Y-62243D01*
X69861Y-62128D01*
X69746Y-62243D01*
X69747Y-62294D01*
X69837Y-62321D01*
X69930Y-62312D01*
X69974Y-62294D01*
X69975Y-62243D01*
X69975Y-62860D01*
X69660Y-62860D01*
X69660Y-62243D01*
X69546Y-62128D01*
X69431Y-62243D01*
X69432Y-62294D01*
X69522Y-62321D01*
X69615Y-62312D01*
X69659Y-62294D01*
X69660Y-62243D01*
X69660Y-62860D01*
X69345Y-62860D01*
X69345Y-62243D01*
X69231Y-62128D01*
X69185Y-62174D01*
X69185Y-62083D01*
X69070Y-61968D01*
X69019Y-61969D01*
X68992Y-62059D01*
X69001Y-62152D01*
X69019Y-62196D01*
X69070Y-62197D01*
X69185Y-62083D01*
X69185Y-62174D01*
X69116Y-62243D01*
X69117Y-62294D01*
X69207Y-62321D01*
X69300Y-62312D01*
X69344Y-62294D01*
X69345Y-62243D01*
X69345Y-62860D01*
X69138Y-62860D01*
X69160Y-62804D01*
X69161Y-62699D01*
X69120Y-62602D01*
X69046Y-62527D01*
X68948Y-62487D01*
X68843Y-62486D01*
X68746Y-62527D01*
X68671Y-62601D01*
X68631Y-62699D01*
X68630Y-62804D01*
X68653Y-62860D01*
X68599Y-62860D01*
X68614Y-62822D01*
X68615Y-62717D01*
X68574Y-62620D01*
X68500Y-62545D01*
X68402Y-62505D01*
X68297Y-62504D01*
X68278Y-62512D01*
X68278Y-59833D01*
X68189Y-59619D01*
X68026Y-59456D01*
X67836Y-59377D01*
X67836Y-57739D01*
X67789Y-57626D01*
X67703Y-57539D01*
X67590Y-57493D01*
X67468Y-57492D01*
X67355Y-57539D01*
X67268Y-57625D01*
X67222Y-57738D01*
X67221Y-57860D01*
X67268Y-57973D01*
X67354Y-58060D01*
X67467Y-58106D01*
X67589Y-58107D01*
X67702Y-58060D01*
X67789Y-57974D01*
X67835Y-57861D01*
X67836Y-57739D01*
X67836Y-59377D01*
X67813Y-59368D01*
X67583Y-59367D01*
X67369Y-59456D01*
X67206Y-59619D01*
X67118Y-59832D01*
X67117Y-60062D01*
X67206Y-60276D01*
X67369Y-60439D01*
X67582Y-60527D01*
X67812Y-60528D01*
X68026Y-60439D01*
X68189Y-60276D01*
X68277Y-60063D01*
X68278Y-59833D01*
X68278Y-62512D01*
X68200Y-62545D01*
X68125Y-62619D01*
X68085Y-62717D01*
X68084Y-62822D01*
X68100Y-62860D01*
X67844Y-62860D01*
X67844Y-61934D01*
X67061Y-61934D01*
X67061Y-43439D01*
X68072Y-43439D01*
X68059Y-43451D01*
X68019Y-43549D01*
X68018Y-43654D01*
X68059Y-43751D01*
X68133Y-43826D01*
X68231Y-43866D01*
X68336Y-43867D01*
X68433Y-43826D01*
X68508Y-43752D01*
X68548Y-43654D01*
X68549Y-43549D01*
X68508Y-43452D01*
X68495Y-43439D01*
X69164Y-43439D01*
X69165Y-45480D01*
X69146Y-45499D01*
X69058Y-45712D01*
X69057Y-45942D01*
X69146Y-46156D01*
X69309Y-46319D01*
X69522Y-46407D01*
X69752Y-46408D01*
X69966Y-46319D01*
X70129Y-46156D01*
X70176Y-46043D01*
X72113Y-46049D01*
X72101Y-46061D01*
X72061Y-46159D01*
X72060Y-46264D01*
X72101Y-46361D01*
X72175Y-46436D01*
X72220Y-46455D01*
X72123Y-46454D01*
X72026Y-46495D01*
X72003Y-46517D01*
X72028Y-46456D01*
X72029Y-46351D01*
X71988Y-46254D01*
X71914Y-46179D01*
X71816Y-46139D01*
X71711Y-46138D01*
X71614Y-46179D01*
X71539Y-46253D01*
X71499Y-46351D01*
X71498Y-46456D01*
X71539Y-46553D01*
X71613Y-46628D01*
X71711Y-46668D01*
X71816Y-46669D01*
X71913Y-46628D01*
X71936Y-46606D01*
X71911Y-46667D01*
X71910Y-46772D01*
X71951Y-46869D01*
X72025Y-46944D01*
X72123Y-46984D01*
X72228Y-46985D01*
X72325Y-46944D01*
X72400Y-46870D01*
X72440Y-46772D01*
X72441Y-46667D01*
X72400Y-46570D01*
X72326Y-46495D01*
X72281Y-46476D01*
X72378Y-46477D01*
X72475Y-46436D01*
X72550Y-46362D01*
X72590Y-46264D01*
X72591Y-46159D01*
X72550Y-46062D01*
X72539Y-46050D01*
X73399Y-46053D01*
X73369Y-46083D01*
X73329Y-46181D01*
X73328Y-46286D01*
X73369Y-46383D01*
X73443Y-46458D01*
X73541Y-46498D01*
X73646Y-46499D01*
X73743Y-46458D01*
X73818Y-46384D01*
X73858Y-46286D01*
X73859Y-46181D01*
X73818Y-46084D01*
X73744Y-46009D01*
X73646Y-45969D01*
X73617Y-45969D01*
X74115Y-45383D01*
X74143Y-45449D01*
X74217Y-45524D01*
X74315Y-45564D01*
X74420Y-45565D01*
X74517Y-45524D01*
X74592Y-45450D01*
X74632Y-45352D01*
X74633Y-45247D01*
X74592Y-45150D01*
X74518Y-45075D01*
X74420Y-45035D01*
X74412Y-45035D01*
X74799Y-44581D01*
X74935Y-44717D01*
X75148Y-44805D01*
X75329Y-44806D01*
X75309Y-44825D01*
X75269Y-44923D01*
X75268Y-45028D01*
X75309Y-45125D01*
X75383Y-45200D01*
X75481Y-45240D01*
X75586Y-45241D01*
X75683Y-45200D01*
X75758Y-45126D01*
X75798Y-45028D01*
X75799Y-44923D01*
X75758Y-44826D01*
X75684Y-44751D01*
X75595Y-44714D01*
X75755Y-44554D01*
X75843Y-44341D01*
X75844Y-44111D01*
X75755Y-43897D01*
X75592Y-43734D01*
X75379Y-43646D01*
X75149Y-43645D01*
X74935Y-43734D01*
X74818Y-43850D01*
X74808Y-43439D01*
X78608Y-43439D01*
X78608Y-54994D01*
X78511Y-54954D01*
X78454Y-54953D01*
X78454Y-49383D01*
X78413Y-49286D01*
X78339Y-49211D01*
X78337Y-49210D01*
X78337Y-48527D01*
X78296Y-48430D01*
X78222Y-48355D01*
X78124Y-48315D01*
X78019Y-48314D01*
X77922Y-48355D01*
X77847Y-48429D01*
X77807Y-48527D01*
X77806Y-48632D01*
X77847Y-48729D01*
X77921Y-48804D01*
X78019Y-48844D01*
X78124Y-48845D01*
X78221Y-48804D01*
X78296Y-48730D01*
X78336Y-48632D01*
X78337Y-48527D01*
X78337Y-49210D01*
X78241Y-49171D01*
X78136Y-49170D01*
X78039Y-49211D01*
X77964Y-49285D01*
X77924Y-49383D01*
X77923Y-49488D01*
X77964Y-49585D01*
X78038Y-49660D01*
X78136Y-49700D01*
X78241Y-49701D01*
X78338Y-49660D01*
X78413Y-49586D01*
X78453Y-49488D01*
X78454Y-49383D01*
X78454Y-54953D01*
X78400Y-54953D01*
X78297Y-54996D01*
X78225Y-55068D01*
X78225Y-54135D01*
X78184Y-54038D01*
X78114Y-53968D01*
X78136Y-53914D01*
X78137Y-53809D01*
X78096Y-53712D01*
X78022Y-53637D01*
X77924Y-53597D01*
X77909Y-53597D01*
X77909Y-53273D01*
X77868Y-53176D01*
X77794Y-53101D01*
X77749Y-53082D01*
X77749Y-46697D01*
X77708Y-46600D01*
X77702Y-46593D01*
X77702Y-45978D01*
X77668Y-45897D01*
X77606Y-45835D01*
X77555Y-45814D01*
X77555Y-45097D01*
X77514Y-45000D01*
X77440Y-44925D01*
X77342Y-44885D01*
X77237Y-44884D01*
X77140Y-44925D01*
X77065Y-44999D01*
X77064Y-45003D01*
X77064Y-43804D01*
X77023Y-43707D01*
X76949Y-43632D01*
X76851Y-43592D01*
X76746Y-43591D01*
X76649Y-43632D01*
X76574Y-43706D01*
X76534Y-43804D01*
X76533Y-43909D01*
X76574Y-44006D01*
X76648Y-44081D01*
X76746Y-44121D01*
X76851Y-44122D01*
X76948Y-44081D01*
X77023Y-44007D01*
X77063Y-43909D01*
X77064Y-43804D01*
X77064Y-45003D01*
X77025Y-45097D01*
X77024Y-45202D01*
X77065Y-45299D01*
X77139Y-45374D01*
X77237Y-45414D01*
X77342Y-45415D01*
X77439Y-45374D01*
X77514Y-45300D01*
X77554Y-45202D01*
X77555Y-45097D01*
X77555Y-45814D01*
X77525Y-45802D01*
X77438Y-45801D01*
X77357Y-45835D01*
X77295Y-45897D01*
X77262Y-45978D01*
X77261Y-46065D01*
X77295Y-46146D01*
X77357Y-46208D01*
X77438Y-46241D01*
X77525Y-46242D01*
X77606Y-46208D01*
X77668Y-46146D01*
X77701Y-46065D01*
X77702Y-45978D01*
X77702Y-46593D01*
X77634Y-46525D01*
X77536Y-46485D01*
X77431Y-46484D01*
X77361Y-46513D01*
X77386Y-46452D01*
X77387Y-46347D01*
X77346Y-46250D01*
X77272Y-46175D01*
X77174Y-46135D01*
X77069Y-46134D01*
X76972Y-46175D01*
X76897Y-46249D01*
X76857Y-46347D01*
X76856Y-46452D01*
X76897Y-46549D01*
X76971Y-46624D01*
X77069Y-46664D01*
X77174Y-46665D01*
X77244Y-46636D01*
X77219Y-46697D01*
X77218Y-46802D01*
X77259Y-46899D01*
X77333Y-46974D01*
X77431Y-47014D01*
X77536Y-47015D01*
X77633Y-46974D01*
X77708Y-46900D01*
X77748Y-46802D01*
X77749Y-46697D01*
X77749Y-53082D01*
X77696Y-53061D01*
X77591Y-53060D01*
X77563Y-53072D01*
X77563Y-53021D01*
X77522Y-52924D01*
X77448Y-52849D01*
X77350Y-52809D01*
X77303Y-52809D01*
X77303Y-49891D01*
X77262Y-49794D01*
X77188Y-49719D01*
X77090Y-49679D01*
X77088Y-49679D01*
X77088Y-48230D01*
X77054Y-48149D01*
X76992Y-48087D01*
X76911Y-48054D01*
X76824Y-48053D01*
X76743Y-48087D01*
X76681Y-48149D01*
X76648Y-48230D01*
X76647Y-48317D01*
X76681Y-48398D01*
X76743Y-48460D01*
X76824Y-48493D01*
X76911Y-48494D01*
X76992Y-48460D01*
X77054Y-48398D01*
X77087Y-48317D01*
X77088Y-48230D01*
X77088Y-49679D01*
X77049Y-49679D01*
X77062Y-49646D01*
X77063Y-49541D01*
X77022Y-49444D01*
X76948Y-49369D01*
X76850Y-49329D01*
X76745Y-49328D01*
X76648Y-49369D01*
X76573Y-49443D01*
X76533Y-49541D01*
X76532Y-49646D01*
X76573Y-49743D01*
X76647Y-49818D01*
X76745Y-49858D01*
X76786Y-49858D01*
X76773Y-49891D01*
X76772Y-49996D01*
X76813Y-50093D01*
X76887Y-50168D01*
X76985Y-50208D01*
X77090Y-50209D01*
X77187Y-50168D01*
X77262Y-50094D01*
X77302Y-49996D01*
X77303Y-49891D01*
X77303Y-52809D01*
X77245Y-52808D01*
X77148Y-52849D01*
X77073Y-52923D01*
X77033Y-53021D01*
X77032Y-53126D01*
X77069Y-53214D01*
X77064Y-53213D01*
X76959Y-53212D01*
X76862Y-53253D01*
X76787Y-53327D01*
X76747Y-53425D01*
X76746Y-53530D01*
X76787Y-53627D01*
X76861Y-53702D01*
X76915Y-53724D01*
X76899Y-53765D01*
X76898Y-53870D01*
X76939Y-53967D01*
X77013Y-54042D01*
X77111Y-54082D01*
X77216Y-54083D01*
X77313Y-54042D01*
X77388Y-53968D01*
X77428Y-53870D01*
X77429Y-53765D01*
X77388Y-53668D01*
X77314Y-53593D01*
X77260Y-53571D01*
X77276Y-53530D01*
X77277Y-53425D01*
X77240Y-53337D01*
X77245Y-53338D01*
X77350Y-53339D01*
X77378Y-53327D01*
X77378Y-53378D01*
X77419Y-53475D01*
X77493Y-53550D01*
X77591Y-53590D01*
X77696Y-53591D01*
X77793Y-53550D01*
X77868Y-53476D01*
X77908Y-53378D01*
X77909Y-53273D01*
X77909Y-53597D01*
X77819Y-53596D01*
X77722Y-53637D01*
X77647Y-53711D01*
X77607Y-53809D01*
X77606Y-53914D01*
X77647Y-54011D01*
X77717Y-54081D01*
X77695Y-54135D01*
X77694Y-54190D01*
X77672Y-54167D01*
X77574Y-54127D01*
X77469Y-54126D01*
X77372Y-54167D01*
X77297Y-54241D01*
X77257Y-54339D01*
X77256Y-54444D01*
X77297Y-54541D01*
X77371Y-54616D01*
X77469Y-54656D01*
X77574Y-54657D01*
X77671Y-54616D01*
X77746Y-54542D01*
X77786Y-54444D01*
X77787Y-54389D01*
X77809Y-54412D01*
X77907Y-54452D01*
X78012Y-54453D01*
X78109Y-54412D01*
X78184Y-54338D01*
X78224Y-54240D01*
X78225Y-54135D01*
X78225Y-55068D01*
X78218Y-55075D01*
X78176Y-55178D01*
X78175Y-55289D01*
X78218Y-55392D01*
X78297Y-55471D01*
X78400Y-55513D01*
X78511Y-55514D01*
X78608Y-55474D01*
X78608Y-62860D01*
X78608Y-62860D01*
G37*
G54D28*
X78608Y-62860D02*
X78588Y-62860D01*
X78588Y-60555D01*
X78499Y-60341D01*
X78441Y-60283D01*
X78441Y-57539D01*
X78441Y-57039D01*
X78441Y-56039D01*
X78427Y-55888D01*
X78396Y-55812D01*
X78332Y-55792D01*
X78261Y-55862D01*
X78261Y-55721D01*
X78241Y-55657D01*
X78151Y-55629D01*
X78151Y-55147D01*
X78110Y-55050D01*
X78036Y-54975D01*
X77938Y-54935D01*
X77833Y-54934D01*
X77736Y-54975D01*
X77661Y-55049D01*
X77628Y-55128D01*
X77602Y-55066D01*
X77528Y-54991D01*
X77430Y-54951D01*
X77325Y-54950D01*
X77309Y-54957D01*
X77309Y-54737D01*
X77268Y-54640D01*
X77194Y-54565D01*
X77096Y-54525D01*
X76991Y-54524D01*
X76894Y-54565D01*
X76819Y-54639D01*
X76779Y-54737D01*
X76778Y-54842D01*
X76819Y-54939D01*
X76893Y-55014D01*
X76991Y-55054D01*
X77096Y-55055D01*
X77193Y-55014D01*
X77268Y-54940D01*
X77308Y-54842D01*
X77309Y-54737D01*
X77309Y-54957D01*
X77228Y-54991D01*
X77153Y-55065D01*
X77113Y-55163D01*
X77112Y-55268D01*
X77153Y-55365D01*
X77227Y-55440D01*
X77325Y-55480D01*
X77430Y-55481D01*
X77527Y-55440D01*
X77602Y-55366D01*
X77635Y-55287D01*
X77661Y-55349D01*
X77735Y-55424D01*
X77833Y-55464D01*
X77938Y-55465D01*
X78035Y-55424D01*
X78110Y-55350D01*
X78150Y-55252D01*
X78151Y-55147D01*
X78151Y-55629D01*
X78097Y-55612D01*
X77946Y-55626D01*
X77870Y-55657D01*
X77850Y-55721D01*
X78056Y-55927D01*
X78261Y-55721D01*
X78261Y-55862D01*
X78126Y-55998D01*
X78332Y-56203D01*
X78396Y-56183D01*
X78441Y-56039D01*
X78441Y-57039D01*
X78427Y-56888D01*
X78396Y-56812D01*
X78332Y-56792D01*
X78126Y-56998D01*
X78332Y-57203D01*
X78396Y-57183D01*
X78441Y-57039D01*
X78441Y-57539D01*
X78427Y-57388D01*
X78396Y-57312D01*
X78332Y-57292D01*
X78261Y-57362D01*
X78126Y-57498D01*
X78132Y-57503D01*
X78061Y-57574D01*
X78056Y-57568D01*
X78050Y-57574D01*
X77979Y-57503D01*
X77985Y-57498D01*
X77979Y-57492D01*
X78050Y-57421D01*
X78056Y-57427D01*
X78108Y-57374D01*
X78165Y-57369D01*
X78241Y-57338D01*
X78261Y-57274D01*
X78235Y-57248D01*
X78261Y-57221D01*
X78241Y-57157D01*
X78101Y-57114D01*
X78056Y-57068D01*
X78050Y-57074D01*
X77979Y-57003D01*
X77985Y-56998D01*
X77979Y-56992D01*
X78050Y-56921D01*
X78056Y-56927D01*
X78160Y-56822D01*
X78248Y-56786D01*
X78344Y-56690D01*
X78395Y-56565D01*
X78396Y-56430D01*
X78344Y-56305D01*
X78248Y-56209D01*
X78160Y-56173D01*
X78056Y-56068D01*
X78050Y-56074D01*
X77979Y-56003D01*
X77985Y-55998D01*
X77880Y-55893D01*
X77844Y-55805D01*
X77748Y-55709D01*
X77623Y-55658D01*
X77488Y-55657D01*
X77363Y-55709D01*
X77267Y-55805D01*
X77216Y-55930D01*
X77215Y-56065D01*
X77267Y-56190D01*
X77325Y-56248D01*
X77267Y-56305D01*
X77216Y-56430D01*
X77215Y-56565D01*
X77267Y-56690D01*
X77325Y-56748D01*
X77267Y-56805D01*
X77216Y-56930D01*
X77215Y-57065D01*
X77267Y-57190D01*
X77325Y-57248D01*
X77267Y-57305D01*
X77216Y-57430D01*
X77215Y-57565D01*
X77267Y-57690D01*
X77325Y-57748D01*
X77267Y-57805D01*
X77216Y-57930D01*
X77215Y-58065D01*
X77267Y-58190D01*
X77305Y-58228D01*
X77240Y-58255D01*
X77165Y-58329D01*
X77137Y-58396D01*
X77100Y-58381D01*
X77094Y-58381D01*
X77094Y-57376D01*
X77053Y-57279D01*
X76979Y-57204D01*
X76881Y-57164D01*
X76776Y-57163D01*
X76679Y-57204D01*
X76604Y-57278D01*
X76571Y-57358D01*
X76507Y-57357D01*
X76562Y-57303D01*
X76602Y-57205D01*
X76603Y-57100D01*
X76562Y-57003D01*
X76521Y-56961D01*
X76521Y-52141D01*
X76513Y-52122D01*
X76513Y-46327D01*
X76472Y-46230D01*
X76467Y-46224D01*
X76467Y-44043D01*
X76426Y-43946D01*
X76352Y-43871D01*
X76254Y-43831D01*
X76149Y-43830D01*
X76052Y-43871D01*
X75977Y-43945D01*
X75937Y-44043D01*
X75936Y-44148D01*
X75977Y-44245D01*
X76051Y-44320D01*
X76149Y-44360D01*
X76254Y-44361D01*
X76351Y-44320D01*
X76426Y-44246D01*
X76466Y-44148D01*
X76467Y-44043D01*
X76467Y-46224D01*
X76398Y-46155D01*
X76300Y-46115D01*
X76195Y-46114D01*
X76098Y-46155D01*
X76023Y-46229D01*
X75983Y-46327D01*
X75982Y-46432D01*
X76023Y-46529D01*
X76097Y-46604D01*
X76195Y-46644D01*
X76300Y-46645D01*
X76397Y-46604D01*
X76472Y-46530D01*
X76512Y-46432D01*
X76513Y-46327D01*
X76513Y-52122D01*
X76480Y-52044D01*
X76406Y-51969D01*
X76308Y-51929D01*
X76300Y-51929D01*
X76300Y-51924D01*
X76300Y-51524D01*
X76280Y-51476D01*
X76245Y-51441D01*
X76249Y-51437D01*
X76299Y-51315D01*
X76300Y-51184D01*
X76249Y-51063D01*
X76186Y-50999D01*
X76249Y-50937D01*
X76299Y-50815D01*
X76300Y-50684D01*
X76249Y-50563D01*
X76186Y-50499D01*
X76249Y-50437D01*
X76299Y-50315D01*
X76300Y-50184D01*
X76249Y-50063D01*
X76186Y-49999D01*
X76249Y-49937D01*
X76299Y-49815D01*
X76300Y-49684D01*
X76249Y-49563D01*
X76186Y-49499D01*
X76249Y-49437D01*
X76299Y-49315D01*
X76300Y-49184D01*
X76258Y-49085D01*
X76268Y-49085D01*
X76365Y-49044D01*
X76440Y-48970D01*
X76480Y-48872D01*
X76481Y-48767D01*
X76440Y-48670D01*
X76366Y-48595D01*
X76268Y-48555D01*
X76163Y-48554D01*
X76066Y-48595D01*
X75991Y-48669D01*
X75970Y-48721D01*
X75970Y-47366D01*
X75927Y-47263D01*
X75848Y-47184D01*
X75745Y-47142D01*
X75634Y-47141D01*
X75531Y-47184D01*
X75452Y-47263D01*
X75446Y-47279D01*
X75446Y-45945D01*
X75405Y-45848D01*
X75331Y-45773D01*
X75255Y-45741D01*
X75255Y-45235D01*
X75214Y-45138D01*
X75140Y-45063D01*
X75042Y-45023D01*
X74937Y-45022D01*
X74840Y-45063D01*
X74765Y-45137D01*
X74725Y-45235D01*
X74724Y-45340D01*
X74765Y-45437D01*
X74839Y-45512D01*
X74937Y-45552D01*
X75042Y-45553D01*
X75139Y-45512D01*
X75214Y-45438D01*
X75254Y-45340D01*
X75255Y-45235D01*
X75255Y-45741D01*
X75233Y-45733D01*
X75128Y-45732D01*
X75031Y-45773D01*
X74956Y-45847D01*
X74916Y-45945D01*
X74915Y-46050D01*
X74956Y-46147D01*
X75030Y-46222D01*
X75128Y-46262D01*
X75233Y-46263D01*
X75330Y-46222D01*
X75405Y-46148D01*
X75445Y-46050D01*
X75446Y-45945D01*
X75446Y-47279D01*
X75410Y-47366D01*
X75409Y-47477D01*
X75452Y-47580D01*
X75531Y-47659D01*
X75634Y-47701D01*
X75745Y-47702D01*
X75848Y-47659D01*
X75927Y-47580D01*
X75969Y-47477D01*
X75970Y-47366D01*
X75970Y-48721D01*
X75951Y-48767D01*
X75950Y-48872D01*
X75970Y-48920D01*
X75904Y-48919D01*
X75829Y-48951D01*
X75829Y-48475D01*
X75788Y-48378D01*
X75714Y-48303D01*
X75616Y-48263D01*
X75511Y-48262D01*
X75497Y-48268D01*
X75497Y-47845D01*
X75456Y-47748D01*
X75382Y-47673D01*
X75284Y-47633D01*
X75179Y-47632D01*
X75082Y-47673D01*
X75062Y-47693D01*
X75062Y-46890D01*
X75019Y-46787D01*
X74940Y-46708D01*
X74837Y-46666D01*
X74726Y-46665D01*
X74623Y-46708D01*
X74544Y-46787D01*
X74502Y-46890D01*
X74501Y-47001D01*
X74544Y-47104D01*
X74623Y-47183D01*
X74726Y-47225D01*
X74837Y-47226D01*
X74940Y-47183D01*
X75019Y-47104D01*
X75061Y-47001D01*
X75062Y-46890D01*
X75062Y-47693D01*
X75007Y-47747D01*
X74967Y-47845D01*
X74966Y-47950D01*
X74970Y-47959D01*
X74871Y-47958D01*
X74774Y-47999D01*
X74699Y-48073D01*
X74659Y-48171D01*
X74658Y-48276D01*
X74699Y-48373D01*
X74773Y-48448D01*
X74871Y-48488D01*
X74976Y-48489D01*
X75073Y-48448D01*
X75148Y-48374D01*
X75188Y-48276D01*
X75189Y-48171D01*
X75185Y-48162D01*
X75284Y-48163D01*
X75381Y-48122D01*
X75456Y-48048D01*
X75496Y-47950D01*
X75497Y-47845D01*
X75497Y-48268D01*
X75414Y-48303D01*
X75339Y-48377D01*
X75299Y-48475D01*
X75298Y-48580D01*
X75339Y-48677D01*
X75413Y-48752D01*
X75511Y-48792D01*
X75616Y-48793D01*
X75713Y-48752D01*
X75788Y-48678D01*
X75828Y-48580D01*
X75829Y-48475D01*
X75829Y-48951D01*
X75783Y-48970D01*
X75719Y-49033D01*
X75657Y-48970D01*
X75535Y-48920D01*
X75404Y-48919D01*
X75283Y-48970D01*
X75190Y-49062D01*
X75140Y-49184D01*
X75139Y-49315D01*
X75190Y-49436D01*
X75253Y-49500D01*
X75190Y-49562D01*
X75140Y-49684D01*
X75139Y-49815D01*
X75190Y-49936D01*
X75253Y-50000D01*
X75190Y-50062D01*
X75140Y-50184D01*
X75139Y-50315D01*
X75190Y-50436D01*
X75253Y-50500D01*
X75190Y-50562D01*
X75140Y-50684D01*
X75139Y-50815D01*
X75190Y-50936D01*
X75253Y-51000D01*
X75190Y-51062D01*
X75140Y-51184D01*
X75139Y-51315D01*
X75190Y-51436D01*
X75282Y-51529D01*
X75404Y-51579D01*
X75535Y-51580D01*
X75640Y-51536D01*
X75639Y-51575D01*
X75639Y-51975D01*
X75659Y-52023D01*
X75696Y-52060D01*
X75744Y-52079D01*
X75795Y-52080D01*
X76016Y-52080D01*
X75991Y-52141D01*
X75990Y-52246D01*
X76031Y-52343D01*
X76105Y-52418D01*
X76203Y-52458D01*
X76308Y-52459D01*
X76405Y-52418D01*
X76480Y-52344D01*
X76520Y-52246D01*
X76521Y-52141D01*
X76521Y-56961D01*
X76488Y-56928D01*
X76390Y-56888D01*
X76285Y-56887D01*
X76240Y-56906D01*
X76241Y-56809D01*
X76207Y-56727D01*
X76252Y-56682D01*
X76292Y-56584D01*
X76293Y-56479D01*
X76252Y-56382D01*
X76178Y-56307D01*
X76176Y-56306D01*
X76186Y-56296D01*
X76219Y-56215D01*
X76220Y-56128D01*
X76186Y-56047D01*
X76124Y-55985D01*
X76043Y-55952D01*
X75956Y-55951D01*
X75941Y-55958D01*
X75941Y-53929D01*
X75900Y-53832D01*
X75826Y-53757D01*
X75774Y-53735D01*
X75774Y-53734D01*
X75775Y-53629D01*
X75734Y-53532D01*
X75660Y-53457D01*
X75562Y-53417D01*
X75457Y-53416D01*
X75360Y-53457D01*
X75285Y-53531D01*
X75275Y-53555D01*
X75230Y-53537D01*
X75125Y-53536D01*
X75028Y-53577D01*
X74953Y-53651D01*
X74913Y-53749D01*
X74913Y-53750D01*
X74861Y-53750D01*
X74764Y-53791D01*
X74689Y-53865D01*
X74649Y-53963D01*
X74648Y-54068D01*
X74689Y-54165D01*
X74763Y-54240D01*
X74861Y-54280D01*
X74966Y-54281D01*
X75063Y-54240D01*
X75138Y-54166D01*
X75178Y-54068D01*
X75178Y-54067D01*
X75230Y-54067D01*
X75327Y-54026D01*
X75402Y-53952D01*
X75411Y-53931D01*
X75410Y-54034D01*
X75451Y-54131D01*
X75525Y-54206D01*
X75623Y-54246D01*
X75728Y-54247D01*
X75825Y-54206D01*
X75900Y-54132D01*
X75940Y-54034D01*
X75941Y-53929D01*
X75941Y-55958D01*
X75875Y-55985D01*
X75813Y-56047D01*
X75780Y-56128D01*
X75779Y-56215D01*
X75813Y-56296D01*
X75851Y-56334D01*
X75803Y-56381D01*
X75763Y-56479D01*
X75762Y-56584D01*
X75796Y-56666D01*
X75751Y-56711D01*
X75711Y-56809D01*
X75710Y-56914D01*
X75751Y-57011D01*
X75825Y-57086D01*
X75923Y-57126D01*
X76028Y-57127D01*
X76073Y-57108D01*
X76072Y-57205D01*
X76106Y-57286D01*
X76068Y-57248D01*
X75987Y-57215D01*
X75900Y-57214D01*
X75819Y-57248D01*
X75757Y-57310D01*
X75724Y-57391D01*
X75723Y-57478D01*
X75757Y-57559D01*
X75819Y-57621D01*
X75900Y-57654D01*
X75987Y-57655D01*
X76068Y-57621D01*
X76130Y-57559D01*
X76163Y-57478D01*
X76164Y-57391D01*
X76137Y-57327D01*
X76187Y-57377D01*
X76285Y-57417D01*
X76375Y-57418D01*
X76320Y-57472D01*
X76280Y-57570D01*
X76279Y-57675D01*
X76320Y-57772D01*
X76394Y-57847D01*
X76492Y-57887D01*
X76597Y-57888D01*
X76694Y-57847D01*
X76769Y-57773D01*
X76802Y-57693D01*
X76881Y-57694D01*
X76978Y-57653D01*
X77053Y-57579D01*
X77093Y-57481D01*
X77094Y-57376D01*
X77094Y-58381D01*
X77024Y-58380D01*
X76994Y-58308D01*
X76920Y-58233D01*
X76822Y-58193D01*
X76717Y-58192D01*
X76620Y-58233D01*
X76620Y-58233D01*
X76557Y-58170D01*
X76459Y-58130D01*
X76354Y-58129D01*
X76257Y-58170D01*
X76205Y-58222D01*
X76127Y-58190D01*
X76089Y-58190D01*
X76164Y-58158D01*
X76239Y-58084D01*
X76279Y-57986D01*
X76280Y-57881D01*
X76239Y-57784D01*
X76165Y-57709D01*
X76067Y-57669D01*
X75962Y-57668D01*
X75865Y-57709D01*
X75790Y-57783D01*
X75750Y-57881D01*
X75749Y-57986D01*
X75767Y-58029D01*
X75705Y-58028D01*
X75608Y-58069D01*
X75533Y-58143D01*
X75493Y-58241D01*
X75492Y-58346D01*
X75533Y-58443D01*
X75607Y-58518D01*
X75705Y-58558D01*
X75810Y-58559D01*
X75828Y-58551D01*
X75850Y-58604D01*
X75924Y-58679D01*
X76022Y-58719D01*
X76127Y-58720D01*
X76224Y-58679D01*
X76276Y-58627D01*
X76354Y-58659D01*
X76459Y-58660D01*
X76556Y-58619D01*
X76556Y-58619D01*
X76619Y-58682D01*
X76661Y-58699D01*
X76602Y-58724D01*
X76527Y-58798D01*
X76487Y-58896D01*
X76486Y-59001D01*
X76527Y-59098D01*
X76601Y-59173D01*
X76699Y-59213D01*
X76804Y-59214D01*
X76901Y-59173D01*
X76976Y-59099D01*
X77016Y-59001D01*
X77017Y-58910D01*
X77100Y-58911D01*
X77197Y-58870D01*
X77272Y-58796D01*
X77300Y-58729D01*
X77337Y-58744D01*
X77442Y-58745D01*
X77539Y-58704D01*
X77614Y-58630D01*
X77654Y-58532D01*
X77655Y-58427D01*
X77618Y-58338D01*
X77623Y-58338D01*
X77742Y-58288D01*
X77772Y-58318D01*
X77820Y-58337D01*
X77871Y-58338D01*
X78291Y-58338D01*
X78339Y-58318D01*
X78376Y-58281D01*
X78395Y-58233D01*
X78396Y-58182D01*
X78396Y-57762D01*
X78376Y-57714D01*
X78357Y-57695D01*
X78396Y-57683D01*
X78441Y-57539D01*
X78441Y-60283D01*
X78421Y-60262D01*
X78421Y-59643D01*
X78380Y-59546D01*
X78306Y-59471D01*
X78295Y-59467D01*
X78313Y-59423D01*
X78314Y-59312D01*
X78271Y-59209D01*
X78192Y-59130D01*
X78089Y-59088D01*
X77978Y-59087D01*
X77875Y-59130D01*
X77796Y-59209D01*
X77754Y-59312D01*
X77753Y-59409D01*
X77741Y-59404D01*
X77722Y-59404D01*
X77723Y-59325D01*
X77682Y-59228D01*
X77608Y-59153D01*
X77510Y-59113D01*
X77405Y-59112D01*
X77308Y-59153D01*
X77233Y-59227D01*
X77193Y-59325D01*
X77192Y-59430D01*
X77233Y-59527D01*
X77307Y-59602D01*
X77405Y-59642D01*
X77406Y-59642D01*
X77405Y-59739D01*
X77448Y-59842D01*
X77527Y-59921D01*
X77630Y-59963D01*
X77741Y-59964D01*
X77844Y-59921D01*
X77923Y-59842D01*
X77926Y-59834D01*
X77931Y-59845D01*
X78005Y-59920D01*
X78103Y-59960D01*
X78208Y-59961D01*
X78305Y-59920D01*
X78380Y-59846D01*
X78420Y-59748D01*
X78421Y-59643D01*
X78421Y-60262D01*
X78336Y-60178D01*
X78123Y-60090D01*
X77893Y-60089D01*
X77679Y-60178D01*
X77516Y-60341D01*
X77428Y-60554D01*
X77427Y-60784D01*
X77516Y-60998D01*
X77670Y-61153D01*
X77602Y-61221D01*
X77560Y-61324D01*
X77559Y-61435D01*
X77602Y-61538D01*
X77681Y-61617D01*
X77784Y-61659D01*
X77895Y-61660D01*
X77998Y-61617D01*
X78077Y-61538D01*
X78119Y-61435D01*
X78120Y-61324D01*
X78089Y-61250D01*
X78122Y-61250D01*
X78336Y-61161D01*
X78499Y-60998D01*
X78587Y-60785D01*
X78588Y-60555D01*
X78588Y-62860D01*
X77548Y-62860D01*
X77548Y-61146D01*
X77507Y-61049D01*
X77433Y-60974D01*
X77335Y-60934D01*
X77230Y-60933D01*
X77133Y-60974D01*
X77058Y-61048D01*
X77056Y-61054D01*
X77056Y-60702D01*
X77015Y-60605D01*
X76941Y-60530D01*
X76903Y-60514D01*
X76929Y-60416D01*
X76914Y-60302D01*
X76899Y-60267D01*
X76869Y-60262D01*
X76878Y-60254D01*
X76864Y-60239D01*
X76878Y-60225D01*
X76869Y-60217D01*
X76899Y-60212D01*
X76929Y-60101D01*
X76914Y-59987D01*
X76899Y-59952D01*
X76845Y-59943D01*
X76774Y-60014D01*
X76774Y-59873D01*
X76765Y-59818D01*
X76655Y-59789D01*
X76541Y-59804D01*
X76506Y-59818D01*
X76497Y-59873D01*
X76636Y-60011D01*
X76774Y-59873D01*
X76774Y-60014D01*
X76706Y-60082D01*
X76712Y-60088D01*
X76687Y-60112D01*
X76655Y-60104D01*
X76639Y-60106D01*
X76609Y-60101D01*
X76598Y-60111D01*
X76585Y-60113D01*
X76559Y-60088D01*
X76565Y-60082D01*
X76526Y-60043D01*
X76538Y-60030D01*
X76529Y-59976D01*
X76433Y-59950D01*
X76426Y-59943D01*
X76400Y-59948D01*
X76373Y-59943D01*
X76362Y-59954D01*
X76305Y-59961D01*
X76270Y-59976D01*
X76261Y-60030D01*
X76273Y-60043D01*
X76234Y-60082D01*
X76240Y-60088D01*
X76215Y-60112D01*
X76197Y-60108D01*
X76190Y-60101D01*
X76136Y-60110D01*
X76136Y-60110D01*
X76112Y-60113D01*
X76087Y-60088D01*
X76093Y-60082D01*
X76087Y-60076D01*
X76158Y-60006D01*
X76163Y-60011D01*
X76302Y-59873D01*
X76293Y-59818D01*
X76182Y-59789D01*
X76069Y-59804D01*
X76034Y-59818D01*
X76026Y-59866D01*
X75985Y-59767D01*
X75906Y-59688D01*
X75803Y-59646D01*
X75692Y-59645D01*
X75589Y-59688D01*
X75510Y-59767D01*
X75468Y-59870D01*
X75467Y-59981D01*
X75510Y-60084D01*
X75589Y-60163D01*
X75692Y-60205D01*
X75803Y-60206D01*
X75885Y-60172D01*
X75885Y-60177D01*
X75900Y-60212D01*
X75930Y-60217D01*
X75921Y-60225D01*
X75935Y-60239D01*
X75921Y-60254D01*
X75930Y-60262D01*
X75900Y-60267D01*
X75870Y-60378D01*
X75885Y-60492D01*
X75900Y-60527D01*
X75954Y-60536D01*
X76093Y-60397D01*
X76087Y-60391D01*
X76112Y-60367D01*
X76144Y-60375D01*
X76160Y-60373D01*
X76190Y-60378D01*
X76201Y-60368D01*
X76214Y-60366D01*
X76240Y-60391D01*
X76234Y-60397D01*
X76273Y-60436D01*
X76261Y-60449D01*
X76270Y-60503D01*
X76366Y-60529D01*
X76373Y-60536D01*
X76400Y-60531D01*
X76426Y-60536D01*
X76437Y-60525D01*
X76494Y-60518D01*
X76529Y-60503D01*
X76538Y-60449D01*
X76526Y-60436D01*
X76565Y-60397D01*
X76559Y-60391D01*
X76584Y-60367D01*
X76602Y-60371D01*
X76609Y-60378D01*
X76663Y-60369D01*
X76663Y-60369D01*
X76687Y-60366D01*
X76712Y-60391D01*
X76706Y-60397D01*
X76712Y-60403D01*
X76641Y-60473D01*
X76636Y-60468D01*
X76497Y-60606D01*
X76506Y-60661D01*
X76539Y-60669D01*
X76526Y-60702D01*
X76525Y-60807D01*
X76566Y-60904D01*
X76640Y-60979D01*
X76738Y-61019D01*
X76843Y-61020D01*
X76940Y-60979D01*
X77015Y-60905D01*
X77055Y-60807D01*
X77056Y-60702D01*
X77056Y-61054D01*
X77018Y-61146D01*
X77017Y-61251D01*
X77058Y-61348D01*
X77132Y-61423D01*
X77230Y-61463D01*
X77335Y-61464D01*
X77432Y-61423D01*
X77507Y-61349D01*
X77547Y-61251D01*
X77548Y-61146D01*
X77548Y-62860D01*
X76723Y-62860D01*
X76723Y-61681D01*
X76682Y-61584D01*
X76608Y-61509D01*
X76510Y-61469D01*
X76464Y-61469D01*
X76464Y-61456D01*
X76423Y-61359D01*
X76349Y-61284D01*
X76302Y-61265D01*
X76302Y-60606D01*
X76163Y-60468D01*
X76025Y-60606D01*
X76034Y-60661D01*
X76144Y-60690D01*
X76258Y-60675D01*
X76293Y-60661D01*
X76302Y-60606D01*
X76302Y-61265D01*
X76251Y-61244D01*
X76146Y-61243D01*
X76049Y-61284D01*
X75974Y-61358D01*
X75934Y-61456D01*
X75933Y-61561D01*
X75974Y-61658D01*
X76048Y-61733D01*
X76146Y-61773D01*
X76192Y-61773D01*
X76192Y-61786D01*
X76233Y-61883D01*
X76307Y-61958D01*
X76405Y-61998D01*
X76510Y-61999D01*
X76607Y-61958D01*
X76682Y-61884D01*
X76722Y-61786D01*
X76723Y-61681D01*
X76723Y-62860D01*
X76460Y-62860D01*
X76460Y-62682D01*
X76460Y-62282D01*
X76440Y-62234D01*
X76403Y-62197D01*
X76355Y-62178D01*
X76304Y-62177D01*
X75904Y-62177D01*
X75856Y-62197D01*
X75819Y-62234D01*
X75800Y-62282D01*
X75799Y-62333D01*
X75799Y-62733D01*
X75819Y-62781D01*
X75856Y-62818D01*
X75904Y-62837D01*
X75955Y-62838D01*
X76355Y-62838D01*
X76403Y-62818D01*
X76440Y-62781D01*
X76459Y-62733D01*
X76460Y-62682D01*
X76460Y-62860D01*
X75645Y-62860D01*
X75668Y-62850D01*
X75730Y-62788D01*
X75763Y-62707D01*
X75764Y-62620D01*
X75730Y-62539D01*
X75668Y-62477D01*
X75587Y-62444D01*
X75500Y-62443D01*
X75429Y-62473D01*
X75429Y-62289D01*
X75405Y-62171D01*
X75339Y-62072D01*
X75338Y-62071D01*
X75338Y-60103D01*
X75305Y-60022D01*
X75271Y-59988D01*
X75271Y-59197D01*
X75230Y-59100D01*
X75156Y-59025D01*
X75058Y-58985D01*
X75035Y-58985D01*
X75035Y-56099D01*
X74994Y-56002D01*
X74920Y-55927D01*
X74822Y-55887D01*
X74717Y-55886D01*
X74636Y-55920D01*
X74636Y-55490D01*
X74602Y-55409D01*
X74540Y-55347D01*
X74459Y-55314D01*
X74372Y-55313D01*
X74291Y-55347D01*
X74257Y-55381D01*
X74257Y-49597D01*
X74233Y-49539D01*
X74233Y-48221D01*
X74199Y-48141D01*
X74137Y-48079D01*
X74056Y-48045D01*
X73969Y-48045D01*
X73913Y-48068D01*
X73866Y-48021D01*
X73866Y-47512D01*
X73825Y-47415D01*
X73751Y-47340D01*
X73653Y-47300D01*
X73548Y-47299D01*
X73451Y-47340D01*
X73376Y-47414D01*
X73336Y-47512D01*
X73335Y-47617D01*
X73376Y-47714D01*
X73450Y-47789D01*
X73548Y-47829D01*
X73653Y-47830D01*
X73750Y-47789D01*
X73825Y-47715D01*
X73865Y-47617D01*
X73866Y-47512D01*
X73866Y-48021D01*
X73852Y-48007D01*
X73754Y-47967D01*
X73649Y-47966D01*
X73552Y-48007D01*
X73477Y-48081D01*
X73437Y-48179D01*
X73436Y-48284D01*
X73477Y-48381D01*
X73551Y-48456D01*
X73649Y-48496D01*
X73754Y-48497D01*
X73851Y-48456D01*
X73872Y-48436D01*
X73888Y-48451D01*
X73969Y-48485D01*
X74056Y-48485D01*
X74137Y-48452D01*
X74199Y-48390D01*
X74232Y-48309D01*
X74233Y-48221D01*
X74233Y-49539D01*
X74223Y-49516D01*
X74161Y-49454D01*
X74080Y-49421D01*
X73993Y-49420D01*
X73912Y-49454D01*
X73850Y-49516D01*
X73817Y-49597D01*
X73816Y-49684D01*
X73850Y-49765D01*
X73912Y-49827D01*
X73993Y-49860D01*
X74080Y-49861D01*
X74161Y-49827D01*
X74223Y-49765D01*
X74256Y-49684D01*
X74257Y-49597D01*
X74257Y-55381D01*
X74240Y-55398D01*
X74240Y-50956D01*
X74197Y-50853D01*
X74118Y-50774D01*
X74017Y-50732D01*
X74017Y-50303D01*
X73976Y-50206D01*
X73902Y-50131D01*
X73804Y-50091D01*
X73699Y-50090D01*
X73693Y-50093D01*
X73693Y-49477D01*
X73659Y-49396D01*
X73606Y-49342D01*
X73606Y-48934D01*
X73565Y-48837D01*
X73491Y-48762D01*
X73393Y-48722D01*
X73288Y-48721D01*
X73195Y-48760D01*
X73228Y-48678D01*
X73229Y-48573D01*
X73188Y-48476D01*
X73114Y-48401D01*
X73016Y-48361D01*
X72911Y-48360D01*
X72814Y-48401D01*
X72739Y-48475D01*
X72699Y-48573D01*
X72698Y-48678D01*
X72739Y-48775D01*
X72813Y-48850D01*
X72911Y-48890D01*
X73016Y-48891D01*
X73109Y-48852D01*
X73076Y-48934D01*
X73075Y-49039D01*
X73116Y-49136D01*
X73190Y-49211D01*
X73288Y-49251D01*
X73393Y-49252D01*
X73490Y-49211D01*
X73565Y-49137D01*
X73605Y-49039D01*
X73606Y-48934D01*
X73606Y-49342D01*
X73597Y-49334D01*
X73516Y-49301D01*
X73429Y-49300D01*
X73348Y-49334D01*
X73286Y-49396D01*
X73253Y-49477D01*
X73252Y-49564D01*
X73286Y-49645D01*
X73348Y-49707D01*
X73429Y-49740D01*
X73516Y-49741D01*
X73597Y-49707D01*
X73659Y-49645D01*
X73692Y-49564D01*
X73693Y-49477D01*
X73693Y-50093D01*
X73602Y-50131D01*
X73527Y-50205D01*
X73497Y-50278D01*
X73464Y-50200D01*
X73390Y-50125D01*
X73292Y-50085D01*
X73277Y-50085D01*
X73246Y-50009D01*
X73184Y-49947D01*
X73103Y-49914D01*
X73016Y-49913D01*
X72935Y-49947D01*
X72873Y-50009D01*
X72840Y-50090D01*
X72839Y-50153D01*
X72825Y-50159D01*
X72763Y-50221D01*
X72730Y-50302D01*
X72729Y-50389D01*
X72763Y-50470D01*
X72825Y-50532D01*
X72906Y-50565D01*
X72993Y-50566D01*
X73055Y-50540D01*
X73089Y-50574D01*
X73187Y-50614D01*
X73292Y-50615D01*
X73389Y-50574D01*
X73464Y-50500D01*
X73494Y-50427D01*
X73527Y-50505D01*
X73601Y-50580D01*
X73699Y-50620D01*
X73804Y-50621D01*
X73901Y-50580D01*
X73976Y-50506D01*
X74016Y-50408D01*
X74017Y-50303D01*
X74017Y-50732D01*
X74015Y-50732D01*
X73904Y-50731D01*
X73801Y-50774D01*
X73722Y-50853D01*
X73680Y-50956D01*
X73679Y-51067D01*
X73722Y-51170D01*
X73776Y-51224D01*
X73733Y-51267D01*
X73693Y-51365D01*
X73692Y-51470D01*
X73721Y-51539D01*
X73655Y-51604D01*
X73615Y-51702D01*
X73614Y-51807D01*
X73655Y-51904D01*
X73729Y-51979D01*
X73827Y-52019D01*
X73932Y-52020D01*
X74029Y-51979D01*
X74104Y-51905D01*
X74144Y-51807D01*
X74145Y-51702D01*
X74116Y-51633D01*
X74182Y-51568D01*
X74222Y-51470D01*
X74223Y-51365D01*
X74182Y-51268D01*
X74141Y-51226D01*
X74197Y-51170D01*
X74239Y-51067D01*
X74240Y-50956D01*
X74240Y-55398D01*
X74229Y-55409D01*
X74196Y-55490D01*
X74195Y-55577D01*
X74229Y-55658D01*
X74291Y-55720D01*
X74372Y-55753D01*
X74459Y-55754D01*
X74540Y-55720D01*
X74602Y-55658D01*
X74635Y-55577D01*
X74636Y-55490D01*
X74636Y-55920D01*
X74620Y-55927D01*
X74545Y-56001D01*
X74505Y-56099D01*
X74504Y-56204D01*
X74545Y-56301D01*
X74619Y-56376D01*
X74717Y-56416D01*
X74822Y-56417D01*
X74919Y-56376D01*
X74994Y-56302D01*
X75034Y-56204D01*
X75035Y-56099D01*
X75035Y-58985D01*
X74953Y-58984D01*
X74931Y-58994D01*
X74931Y-57039D01*
X74890Y-56942D01*
X74816Y-56867D01*
X74718Y-56827D01*
X74613Y-56826D01*
X74516Y-56867D01*
X74441Y-56941D01*
X74401Y-57039D01*
X74400Y-57144D01*
X74441Y-57241D01*
X74515Y-57316D01*
X74613Y-57356D01*
X74718Y-57357D01*
X74815Y-57316D01*
X74890Y-57242D01*
X74930Y-57144D01*
X74931Y-57039D01*
X74931Y-58994D01*
X74856Y-59025D01*
X74781Y-59099D01*
X74741Y-59197D01*
X74740Y-59302D01*
X74781Y-59399D01*
X74855Y-59474D01*
X74953Y-59514D01*
X75058Y-59515D01*
X75155Y-59474D01*
X75230Y-59400D01*
X75270Y-59302D01*
X75271Y-59197D01*
X75271Y-59988D01*
X75243Y-59960D01*
X75162Y-59927D01*
X75074Y-59926D01*
X74994Y-59960D01*
X74932Y-60022D01*
X74898Y-60103D01*
X74898Y-60190D01*
X74931Y-60271D01*
X74993Y-60333D01*
X75074Y-60366D01*
X75162Y-60367D01*
X75242Y-60333D01*
X75304Y-60271D01*
X75338Y-60190D01*
X75338Y-60103D01*
X75338Y-62071D01*
X75239Y-62005D01*
X75122Y-61982D01*
X75111Y-61984D01*
X75111Y-61373D01*
X75087Y-61251D01*
X75018Y-61148D01*
X74915Y-61080D01*
X74915Y-61080D01*
X74915Y-60431D01*
X74874Y-60334D01*
X74800Y-60259D01*
X74738Y-60233D01*
X74738Y-59690D01*
X74695Y-59587D01*
X74616Y-59508D01*
X74513Y-59466D01*
X74503Y-59466D01*
X74503Y-59419D01*
X74462Y-59322D01*
X74447Y-59307D01*
X74462Y-59292D01*
X74502Y-59194D01*
X74503Y-59089D01*
X74462Y-58992D01*
X74451Y-58981D01*
X74474Y-58958D01*
X74514Y-58860D01*
X74515Y-58755D01*
X74474Y-58658D01*
X74400Y-58583D01*
X74302Y-58543D01*
X74197Y-58542D01*
X74100Y-58583D01*
X74025Y-58657D01*
X73985Y-58755D01*
X73984Y-58860D01*
X74025Y-58957D01*
X74036Y-58968D01*
X74013Y-58991D01*
X73973Y-59089D01*
X73972Y-59194D01*
X74013Y-59291D01*
X74028Y-59306D01*
X74013Y-59321D01*
X73973Y-59419D01*
X73972Y-59504D01*
X73968Y-59499D01*
X73968Y-55528D01*
X73934Y-55447D01*
X73880Y-55392D01*
X73880Y-54330D01*
X73846Y-54249D01*
X73784Y-54187D01*
X73703Y-54154D01*
X73616Y-54153D01*
X73589Y-54165D01*
X73589Y-51401D01*
X73548Y-51304D01*
X73474Y-51229D01*
X73376Y-51189D01*
X73271Y-51188D01*
X73174Y-51229D01*
X73099Y-51303D01*
X73059Y-51401D01*
X73058Y-51506D01*
X73099Y-51603D01*
X73173Y-51678D01*
X73271Y-51718D01*
X73376Y-51719D01*
X73473Y-51678D01*
X73548Y-51604D01*
X73588Y-51506D01*
X73589Y-51401D01*
X73589Y-54165D01*
X73535Y-54187D01*
X73473Y-54249D01*
X73440Y-54330D01*
X73439Y-54417D01*
X73473Y-54498D01*
X73535Y-54560D01*
X73616Y-54593D01*
X73703Y-54594D01*
X73784Y-54560D01*
X73846Y-54498D01*
X73879Y-54417D01*
X73880Y-54330D01*
X73880Y-55392D01*
X73872Y-55385D01*
X73791Y-55352D01*
X73704Y-55351D01*
X73623Y-55385D01*
X73562Y-55446D01*
X73550Y-55418D01*
X73488Y-55356D01*
X73407Y-55323D01*
X73320Y-55322D01*
X73241Y-55355D01*
X73241Y-53093D01*
X73200Y-52996D01*
X73126Y-52921D01*
X73123Y-52920D01*
X73123Y-52283D01*
X73082Y-52186D01*
X73008Y-52111D01*
X72910Y-52071D01*
X72805Y-52070D01*
X72708Y-52111D01*
X72633Y-52185D01*
X72593Y-52283D01*
X72592Y-52388D01*
X72633Y-52485D01*
X72707Y-52560D01*
X72805Y-52600D01*
X72910Y-52601D01*
X73007Y-52560D01*
X73082Y-52486D01*
X73122Y-52388D01*
X73123Y-52283D01*
X73123Y-52920D01*
X73028Y-52881D01*
X72923Y-52880D01*
X72826Y-52921D01*
X72751Y-52995D01*
X72711Y-53093D01*
X72710Y-53198D01*
X72751Y-53295D01*
X72825Y-53370D01*
X72923Y-53410D01*
X73028Y-53411D01*
X73125Y-53370D01*
X73200Y-53296D01*
X73240Y-53198D01*
X73241Y-53093D01*
X73241Y-55355D01*
X73239Y-55356D01*
X73177Y-55418D01*
X73144Y-55499D01*
X73143Y-55586D01*
X73177Y-55667D01*
X73239Y-55729D01*
X73320Y-55762D01*
X73407Y-55763D01*
X73488Y-55729D01*
X73549Y-55668D01*
X73561Y-55696D01*
X73623Y-55758D01*
X73704Y-55791D01*
X73791Y-55792D01*
X73872Y-55758D01*
X73934Y-55696D01*
X73967Y-55615D01*
X73968Y-55528D01*
X73968Y-59499D01*
X73962Y-59493D01*
X73962Y-59031D01*
X73921Y-58934D01*
X73865Y-58877D01*
X73865Y-57037D01*
X73824Y-56940D01*
X73750Y-56865D01*
X73652Y-56825D01*
X73547Y-56824D01*
X73496Y-56845D01*
X73497Y-56759D01*
X73456Y-56662D01*
X73382Y-56587D01*
X73284Y-56547D01*
X73179Y-56546D01*
X73082Y-56587D01*
X73007Y-56661D01*
X72967Y-56759D01*
X72966Y-56864D01*
X73007Y-56961D01*
X73081Y-57036D01*
X73179Y-57076D01*
X73284Y-57077D01*
X73335Y-57056D01*
X73334Y-57142D01*
X73375Y-57239D01*
X73449Y-57314D01*
X73547Y-57354D01*
X73652Y-57355D01*
X73749Y-57314D01*
X73824Y-57240D01*
X73864Y-57142D01*
X73865Y-57037D01*
X73865Y-58877D01*
X73847Y-58859D01*
X73749Y-58819D01*
X73644Y-58818D01*
X73547Y-58859D01*
X73472Y-58933D01*
X73432Y-59031D01*
X73431Y-59136D01*
X73472Y-59233D01*
X73546Y-59308D01*
X73644Y-59348D01*
X73749Y-59349D01*
X73846Y-59308D01*
X73921Y-59234D01*
X73961Y-59136D01*
X73962Y-59031D01*
X73962Y-59493D01*
X73942Y-59473D01*
X73844Y-59433D01*
X73739Y-59432D01*
X73642Y-59473D01*
X73567Y-59547D01*
X73527Y-59645D01*
X73526Y-59750D01*
X73547Y-59799D01*
X73428Y-59799D01*
X73380Y-59819D01*
X73343Y-59856D01*
X73324Y-59904D01*
X73323Y-59955D01*
X73323Y-60355D01*
X73343Y-60403D01*
X73380Y-60440D01*
X73428Y-60459D01*
X73479Y-60460D01*
X73879Y-60460D01*
X73927Y-60440D01*
X73964Y-60403D01*
X73983Y-60355D01*
X73984Y-60304D01*
X73984Y-59904D01*
X73977Y-59887D01*
X74016Y-59848D01*
X74056Y-59750D01*
X74057Y-59665D01*
X74087Y-59696D01*
X74178Y-59734D01*
X74177Y-59801D01*
X74220Y-59904D01*
X74299Y-59983D01*
X74402Y-60025D01*
X74513Y-60026D01*
X74616Y-59983D01*
X74695Y-59904D01*
X74737Y-59801D01*
X74738Y-59690D01*
X74738Y-60233D01*
X74702Y-60219D01*
X74597Y-60218D01*
X74500Y-60259D01*
X74425Y-60333D01*
X74385Y-60431D01*
X74384Y-60536D01*
X74425Y-60633D01*
X74499Y-60708D01*
X74597Y-60748D01*
X74702Y-60749D01*
X74799Y-60708D01*
X74874Y-60634D01*
X74914Y-60536D01*
X74915Y-60431D01*
X74915Y-61080D01*
X74794Y-61056D01*
X74661Y-61056D01*
X74540Y-61080D01*
X74437Y-61148D01*
X74368Y-61251D01*
X74344Y-61373D01*
X74368Y-61494D01*
X74437Y-61597D01*
X74540Y-61665D01*
X74661Y-61690D01*
X74794Y-61690D01*
X74915Y-61665D01*
X75018Y-61597D01*
X75087Y-61494D01*
X75111Y-61373D01*
X75111Y-61984D01*
X75004Y-62005D01*
X74904Y-62072D01*
X74838Y-62171D01*
X74815Y-62289D01*
X74815Y-62582D01*
X74838Y-62700D01*
X74904Y-62799D01*
X74995Y-62860D01*
X73348Y-62860D01*
X73348Y-61600D01*
X73307Y-61503D01*
X73233Y-61428D01*
X73140Y-61389D01*
X73143Y-61373D01*
X73119Y-61251D01*
X73050Y-61148D01*
X72984Y-61104D01*
X72984Y-60064D01*
X72933Y-59943D01*
X72847Y-59856D01*
X72847Y-58905D01*
X72809Y-58813D01*
X72809Y-58274D01*
X72787Y-58221D01*
X72787Y-53751D01*
X72746Y-53654D01*
X72672Y-53579D01*
X72574Y-53539D01*
X72469Y-53538D01*
X72467Y-53539D01*
X72467Y-52703D01*
X72426Y-52606D01*
X72352Y-52531D01*
X72254Y-52491D01*
X72237Y-52491D01*
X72237Y-50583D01*
X72196Y-50486D01*
X72122Y-50411D01*
X72024Y-50371D01*
X71919Y-50370D01*
X71846Y-50401D01*
X71846Y-48620D01*
X71812Y-48539D01*
X71750Y-48477D01*
X71669Y-48444D01*
X71653Y-48444D01*
X71653Y-46991D01*
X71612Y-46894D01*
X71538Y-46819D01*
X71440Y-46779D01*
X71335Y-46778D01*
X71238Y-46819D01*
X71163Y-46893D01*
X71123Y-46991D01*
X71122Y-47096D01*
X71163Y-47193D01*
X71237Y-47268D01*
X71335Y-47308D01*
X71440Y-47309D01*
X71537Y-47268D01*
X71612Y-47194D01*
X71652Y-47096D01*
X71653Y-46991D01*
X71653Y-48444D01*
X71582Y-48443D01*
X71501Y-48477D01*
X71439Y-48539D01*
X71406Y-48620D01*
X71405Y-48707D01*
X71439Y-48788D01*
X71501Y-48850D01*
X71582Y-48883D01*
X71669Y-48884D01*
X71750Y-48850D01*
X71812Y-48788D01*
X71845Y-48707D01*
X71846Y-48620D01*
X71846Y-50401D01*
X71822Y-50411D01*
X71747Y-50485D01*
X71707Y-50583D01*
X71706Y-50688D01*
X71747Y-50785D01*
X71821Y-50860D01*
X71919Y-50900D01*
X72024Y-50901D01*
X72121Y-50860D01*
X72196Y-50786D01*
X72236Y-50688D01*
X72237Y-50583D01*
X72237Y-52491D01*
X72157Y-52490D01*
X72157Y-51557D01*
X72116Y-51460D01*
X72042Y-51385D01*
X71944Y-51345D01*
X71839Y-51344D01*
X71742Y-51385D01*
X71667Y-51459D01*
X71627Y-51557D01*
X71626Y-51662D01*
X71667Y-51759D01*
X71741Y-51834D01*
X71839Y-51874D01*
X71944Y-51875D01*
X72041Y-51834D01*
X72116Y-51760D01*
X72156Y-51662D01*
X72157Y-51557D01*
X72157Y-52490D01*
X72149Y-52490D01*
X72052Y-52531D01*
X71977Y-52605D01*
X71937Y-52703D01*
X71936Y-52808D01*
X71977Y-52905D01*
X72051Y-52980D01*
X72149Y-53020D01*
X72254Y-53021D01*
X72351Y-52980D01*
X72426Y-52906D01*
X72466Y-52808D01*
X72467Y-52703D01*
X72467Y-53539D01*
X72372Y-53579D01*
X72297Y-53653D01*
X72257Y-53751D01*
X72256Y-53856D01*
X72297Y-53953D01*
X72371Y-54028D01*
X72469Y-54068D01*
X72574Y-54069D01*
X72671Y-54028D01*
X72746Y-53954D01*
X72786Y-53856D01*
X72787Y-53751D01*
X72787Y-58221D01*
X72775Y-58193D01*
X72713Y-58131D01*
X72632Y-58098D01*
X72545Y-58097D01*
X72545Y-58098D01*
X72545Y-54391D01*
X72511Y-54310D01*
X72449Y-54248D01*
X72368Y-54215D01*
X72281Y-54214D01*
X72200Y-54248D01*
X72138Y-54310D01*
X72109Y-54381D01*
X72109Y-53917D01*
X72068Y-53820D01*
X71994Y-53745D01*
X71896Y-53705D01*
X71791Y-53704D01*
X71694Y-53745D01*
X71619Y-53819D01*
X71579Y-53917D01*
X71578Y-54022D01*
X71619Y-54119D01*
X71693Y-54194D01*
X71791Y-54234D01*
X71896Y-54235D01*
X71993Y-54194D01*
X72068Y-54120D01*
X72108Y-54022D01*
X72109Y-53917D01*
X72109Y-54381D01*
X72105Y-54391D01*
X72104Y-54478D01*
X72138Y-54559D01*
X72200Y-54621D01*
X72281Y-54654D01*
X72368Y-54655D01*
X72449Y-54621D01*
X72511Y-54559D01*
X72544Y-54478D01*
X72545Y-54391D01*
X72545Y-58098D01*
X72464Y-58131D01*
X72402Y-58193D01*
X72378Y-58252D01*
X72307Y-58223D01*
X72202Y-58222D01*
X72197Y-58225D01*
X72197Y-56415D01*
X72156Y-56318D01*
X72132Y-56293D01*
X72132Y-55808D01*
X72098Y-55727D01*
X72087Y-55715D01*
X72087Y-54503D01*
X72046Y-54406D01*
X71972Y-54331D01*
X71874Y-54291D01*
X71769Y-54290D01*
X71672Y-54331D01*
X71597Y-54405D01*
X71557Y-54503D01*
X71556Y-54608D01*
X71597Y-54705D01*
X71671Y-54780D01*
X71769Y-54820D01*
X71874Y-54821D01*
X71971Y-54780D01*
X72046Y-54706D01*
X72086Y-54608D01*
X72087Y-54503D01*
X72087Y-55715D01*
X72036Y-55665D01*
X72023Y-55660D01*
X72048Y-55598D01*
X72049Y-55493D01*
X72008Y-55396D01*
X71934Y-55321D01*
X71952Y-55276D01*
X71953Y-55171D01*
X71912Y-55074D01*
X71838Y-54999D01*
X71740Y-54959D01*
X71701Y-54959D01*
X71701Y-54945D01*
X71660Y-54848D01*
X71586Y-54773D01*
X71488Y-54733D01*
X71383Y-54732D01*
X71286Y-54773D01*
X71248Y-54811D01*
X71248Y-53476D01*
X71214Y-53395D01*
X71152Y-53333D01*
X71113Y-53317D01*
X71113Y-49955D01*
X71072Y-49858D01*
X70998Y-49783D01*
X70900Y-49743D01*
X70843Y-49742D01*
X70843Y-46409D01*
X70802Y-46312D01*
X70728Y-46237D01*
X70630Y-46197D01*
X70525Y-46196D01*
X70428Y-46237D01*
X70353Y-46311D01*
X70313Y-46409D01*
X70312Y-46514D01*
X70353Y-46611D01*
X70427Y-46686D01*
X70525Y-46726D01*
X70630Y-46727D01*
X70727Y-46686D01*
X70802Y-46612D01*
X70842Y-46514D01*
X70843Y-46409D01*
X70843Y-49742D01*
X70795Y-49742D01*
X70700Y-49782D01*
X70666Y-49747D01*
X70568Y-49707D01*
X70463Y-49706D01*
X70366Y-49747D01*
X70303Y-49810D01*
X70303Y-48037D01*
X70262Y-47940D01*
X70188Y-47865D01*
X70090Y-47825D01*
X69985Y-47824D01*
X69907Y-47857D01*
X69907Y-46703D01*
X69866Y-46606D01*
X69792Y-46531D01*
X69694Y-46491D01*
X69589Y-46490D01*
X69492Y-46531D01*
X69417Y-46605D01*
X69377Y-46703D01*
X69376Y-46808D01*
X69417Y-46905D01*
X69491Y-46980D01*
X69589Y-47020D01*
X69694Y-47021D01*
X69791Y-46980D01*
X69866Y-46906D01*
X69906Y-46808D01*
X69907Y-46703D01*
X69907Y-47857D01*
X69888Y-47865D01*
X69813Y-47939D01*
X69773Y-48037D01*
X69772Y-48142D01*
X69813Y-48239D01*
X69887Y-48314D01*
X69985Y-48354D01*
X70090Y-48355D01*
X70187Y-48314D01*
X70262Y-48240D01*
X70302Y-48142D01*
X70303Y-48037D01*
X70303Y-49810D01*
X70291Y-49821D01*
X70287Y-49832D01*
X70287Y-49571D01*
X70246Y-49474D01*
X70172Y-49399D01*
X70074Y-49359D01*
X69969Y-49358D01*
X69872Y-49399D01*
X69797Y-49473D01*
X69757Y-49571D01*
X69756Y-49676D01*
X69797Y-49773D01*
X69871Y-49848D01*
X69969Y-49888D01*
X70074Y-49889D01*
X70171Y-49848D01*
X70246Y-49774D01*
X70286Y-49676D01*
X70287Y-49571D01*
X70287Y-49832D01*
X70251Y-49919D01*
X70250Y-50024D01*
X70291Y-50121D01*
X70365Y-50196D01*
X70463Y-50236D01*
X70568Y-50237D01*
X70663Y-50197D01*
X70697Y-50232D01*
X70795Y-50272D01*
X70900Y-50273D01*
X70997Y-50232D01*
X71072Y-50158D01*
X71112Y-50060D01*
X71113Y-49955D01*
X71113Y-53317D01*
X71071Y-53300D01*
X70984Y-53299D01*
X70903Y-53333D01*
X70841Y-53395D01*
X70808Y-53476D01*
X70807Y-53563D01*
X70841Y-53644D01*
X70903Y-53706D01*
X70984Y-53739D01*
X71071Y-53740D01*
X71152Y-53706D01*
X71214Y-53644D01*
X71247Y-53563D01*
X71248Y-53476D01*
X71248Y-54811D01*
X71211Y-54847D01*
X71171Y-54945D01*
X71170Y-55050D01*
X71211Y-55147D01*
X71285Y-55222D01*
X71383Y-55262D01*
X71422Y-55262D01*
X71422Y-55276D01*
X71463Y-55373D01*
X71537Y-55448D01*
X71519Y-55493D01*
X71518Y-55598D01*
X71559Y-55695D01*
X71633Y-55770D01*
X71696Y-55796D01*
X71692Y-55808D01*
X71691Y-55895D01*
X71725Y-55976D01*
X71787Y-56038D01*
X71868Y-56071D01*
X71955Y-56072D01*
X72036Y-56038D01*
X72098Y-55976D01*
X72131Y-55895D01*
X72132Y-55808D01*
X72132Y-56293D01*
X72082Y-56243D01*
X71984Y-56203D01*
X71879Y-56202D01*
X71782Y-56243D01*
X71707Y-56317D01*
X71667Y-56415D01*
X71666Y-56520D01*
X71707Y-56617D01*
X71746Y-56656D01*
X71727Y-56675D01*
X71694Y-56756D01*
X71693Y-56843D01*
X71727Y-56924D01*
X71789Y-56986D01*
X71870Y-57019D01*
X71957Y-57020D01*
X72038Y-56986D01*
X72100Y-56924D01*
X72133Y-56843D01*
X72134Y-56756D01*
X72100Y-56675D01*
X72099Y-56674D01*
X72156Y-56618D01*
X72196Y-56520D01*
X72197Y-56415D01*
X72197Y-58225D01*
X72105Y-58263D01*
X72030Y-58337D01*
X71990Y-58435D01*
X71989Y-58530D01*
X71945Y-58485D01*
X71887Y-58461D01*
X71900Y-58428D01*
X71901Y-58323D01*
X71897Y-58314D01*
X71929Y-58300D01*
X72004Y-58226D01*
X72044Y-58128D01*
X72045Y-58023D01*
X72004Y-57926D01*
X71930Y-57851D01*
X71832Y-57811D01*
X71727Y-57810D01*
X71630Y-57851D01*
X71555Y-57925D01*
X71515Y-58023D01*
X71514Y-58128D01*
X71518Y-58137D01*
X71486Y-58151D01*
X71411Y-58225D01*
X71371Y-58323D01*
X71370Y-58428D01*
X71411Y-58525D01*
X71485Y-58600D01*
X71543Y-58624D01*
X71530Y-58657D01*
X71529Y-58762D01*
X71560Y-58837D01*
X71540Y-58829D01*
X71435Y-58828D01*
X71338Y-58869D01*
X71263Y-58943D01*
X71223Y-59041D01*
X71222Y-59146D01*
X71263Y-59243D01*
X71337Y-59318D01*
X71435Y-59358D01*
X71540Y-59359D01*
X71637Y-59318D01*
X71712Y-59244D01*
X71752Y-59146D01*
X71753Y-59041D01*
X71722Y-58966D01*
X71742Y-58974D01*
X71847Y-58975D01*
X71944Y-58934D01*
X72019Y-58860D01*
X72059Y-58762D01*
X72060Y-58667D01*
X72104Y-58712D01*
X72202Y-58752D01*
X72307Y-58753D01*
X72404Y-58712D01*
X72479Y-58638D01*
X72519Y-58540D01*
X72519Y-58527D01*
X72545Y-58537D01*
X72632Y-58538D01*
X72713Y-58504D01*
X72775Y-58442D01*
X72808Y-58361D01*
X72809Y-58274D01*
X72809Y-58813D01*
X72806Y-58808D01*
X72732Y-58733D01*
X72634Y-58693D01*
X72529Y-58692D01*
X72432Y-58733D01*
X72357Y-58807D01*
X72317Y-58905D01*
X72316Y-59010D01*
X72357Y-59107D01*
X72431Y-59182D01*
X72529Y-59222D01*
X72634Y-59223D01*
X72731Y-59182D01*
X72806Y-59108D01*
X72846Y-59010D01*
X72847Y-58905D01*
X72847Y-59856D01*
X72841Y-59850D01*
X72719Y-59800D01*
X72588Y-59799D01*
X72467Y-59850D01*
X72403Y-59913D01*
X72341Y-59850D01*
X72219Y-59800D01*
X72088Y-59799D01*
X71967Y-59850D01*
X71903Y-59913D01*
X71841Y-59850D01*
X71719Y-59800D01*
X71588Y-59799D01*
X71467Y-59850D01*
X71374Y-59942D01*
X71324Y-60064D01*
X71323Y-60195D01*
X71374Y-60316D01*
X71466Y-60409D01*
X71588Y-60459D01*
X71719Y-60460D01*
X71840Y-60409D01*
X71904Y-60346D01*
X71966Y-60409D01*
X72088Y-60459D01*
X72219Y-60460D01*
X72340Y-60409D01*
X72404Y-60346D01*
X72466Y-60409D01*
X72588Y-60459D01*
X72719Y-60460D01*
X72840Y-60409D01*
X72933Y-60317D01*
X72983Y-60195D01*
X72984Y-60064D01*
X72984Y-61104D01*
X72947Y-61080D01*
X72882Y-61067D01*
X72899Y-61050D01*
X72939Y-60952D01*
X72940Y-60847D01*
X72899Y-60750D01*
X72825Y-60675D01*
X72727Y-60635D01*
X72622Y-60634D01*
X72525Y-60675D01*
X72490Y-60710D01*
X72442Y-60662D01*
X72339Y-60620D01*
X72228Y-60619D01*
X72125Y-60662D01*
X72046Y-60741D01*
X72004Y-60844D01*
X72003Y-60955D01*
X72046Y-61058D01*
X72125Y-61137D01*
X72228Y-61179D01*
X72339Y-61180D01*
X72442Y-61137D01*
X72490Y-61089D01*
X72517Y-61116D01*
X72469Y-61148D01*
X72400Y-61251D01*
X72376Y-61373D01*
X72400Y-61494D01*
X72469Y-61597D01*
X72572Y-61665D01*
X72693Y-61690D01*
X72817Y-61690D01*
X72817Y-61705D01*
X72858Y-61802D01*
X72932Y-61877D01*
X73030Y-61917D01*
X73135Y-61918D01*
X73232Y-61877D01*
X73307Y-61803D01*
X73347Y-61705D01*
X73348Y-61600D01*
X73348Y-62860D01*
X72492Y-62860D01*
X72583Y-62799D01*
X72649Y-62700D01*
X72673Y-62582D01*
X72673Y-62289D01*
X72649Y-62171D01*
X72583Y-62072D01*
X72483Y-62005D01*
X72366Y-61982D01*
X72248Y-62005D01*
X72148Y-62072D01*
X72082Y-62171D01*
X72059Y-62289D01*
X72059Y-62582D01*
X72082Y-62700D01*
X72148Y-62799D01*
X72239Y-62860D01*
X71371Y-62860D01*
X71371Y-62117D01*
X71330Y-62020D01*
X71256Y-61945D01*
X71173Y-61911D01*
X71244Y-61840D01*
X71284Y-61742D01*
X71285Y-61637D01*
X71244Y-61540D01*
X71185Y-61480D01*
X71185Y-56104D01*
X71151Y-56023D01*
X71089Y-55961D01*
X71008Y-55928D01*
X70921Y-55927D01*
X70840Y-55961D01*
X70778Y-56023D01*
X70745Y-56104D01*
X70744Y-56191D01*
X70778Y-56272D01*
X70840Y-56334D01*
X70921Y-56367D01*
X71008Y-56368D01*
X71089Y-56334D01*
X71151Y-56272D01*
X71184Y-56191D01*
X71185Y-56104D01*
X71185Y-61480D01*
X71170Y-61465D01*
X71072Y-61425D01*
X70967Y-61424D01*
X70882Y-61460D01*
X70882Y-59467D01*
X70878Y-59457D01*
X70878Y-58026D01*
X70844Y-57945D01*
X70822Y-57922D01*
X70822Y-56452D01*
X70788Y-56371D01*
X70726Y-56309D01*
X70719Y-56306D01*
X70719Y-55591D01*
X70719Y-55461D01*
X70718Y-55394D01*
X70693Y-55331D01*
X70691Y-55329D01*
X70693Y-55327D01*
X70718Y-55265D01*
X70719Y-55197D01*
X70719Y-55068D01*
X70718Y-55000D01*
X70693Y-54938D01*
X70691Y-54936D01*
X70693Y-54933D01*
X70718Y-54871D01*
X70719Y-54803D01*
X70719Y-54674D01*
X70718Y-54606D01*
X70693Y-54544D01*
X70691Y-54542D01*
X70693Y-54540D01*
X70718Y-54477D01*
X70719Y-54410D01*
X70719Y-54280D01*
X70718Y-54213D01*
X70693Y-54150D01*
X70645Y-54102D01*
X70582Y-54076D01*
X70542Y-54077D01*
X70513Y-54106D01*
X70513Y-53243D01*
X70472Y-53146D01*
X70398Y-53071D01*
X70300Y-53031D01*
X70221Y-53030D01*
X70221Y-51141D01*
X70180Y-51044D01*
X70106Y-50969D01*
X70067Y-50953D01*
X70078Y-50926D01*
X70079Y-50821D01*
X70038Y-50724D01*
X69964Y-50649D01*
X69866Y-50609D01*
X69761Y-50608D01*
X69664Y-50649D01*
X69589Y-50723D01*
X69549Y-50821D01*
X69548Y-50926D01*
X69589Y-51023D01*
X69663Y-51098D01*
X69702Y-51114D01*
X69691Y-51141D01*
X69690Y-51246D01*
X69731Y-51343D01*
X69805Y-51418D01*
X69903Y-51458D01*
X70008Y-51459D01*
X70105Y-51418D01*
X70180Y-51344D01*
X70220Y-51246D01*
X70221Y-51141D01*
X70221Y-53030D01*
X70195Y-53030D01*
X70098Y-53071D01*
X70023Y-53145D01*
X69983Y-53243D01*
X69982Y-53348D01*
X70023Y-53445D01*
X70097Y-53520D01*
X70195Y-53560D01*
X70300Y-53561D01*
X70397Y-53520D01*
X70472Y-53446D01*
X70512Y-53348D01*
X70513Y-53243D01*
X70513Y-54106D01*
X70499Y-54119D01*
X70499Y-54296D01*
X70676Y-54296D01*
X70718Y-54253D01*
X70719Y-54280D01*
X70719Y-54410D01*
X70718Y-54437D01*
X70676Y-54394D01*
X70499Y-54394D01*
X70499Y-54513D01*
X70499Y-54571D01*
X70499Y-54689D01*
X70676Y-54689D01*
X70718Y-54647D01*
X70719Y-54674D01*
X70719Y-54803D01*
X70718Y-54830D01*
X70676Y-54788D01*
X70499Y-54788D01*
X70499Y-54906D01*
X70499Y-54965D01*
X70499Y-55083D01*
X70676Y-55083D01*
X70718Y-55041D01*
X70719Y-55068D01*
X70719Y-55197D01*
X70718Y-55224D01*
X70676Y-55182D01*
X70499Y-55182D01*
X70499Y-55300D01*
X70499Y-55358D01*
X70499Y-55477D01*
X70676Y-55477D01*
X70718Y-55434D01*
X70719Y-55461D01*
X70719Y-55591D01*
X70718Y-55618D01*
X70676Y-55575D01*
X70499Y-55575D01*
X70499Y-55752D01*
X70542Y-55794D01*
X70582Y-55795D01*
X70645Y-55769D01*
X70693Y-55721D01*
X70718Y-55658D01*
X70719Y-55591D01*
X70719Y-56306D01*
X70645Y-56276D01*
X70558Y-56275D01*
X70477Y-56309D01*
X70415Y-56371D01*
X70401Y-56405D01*
X70401Y-55752D01*
X70401Y-55575D01*
X70401Y-55477D01*
X70401Y-55358D01*
X70401Y-55300D01*
X70401Y-55182D01*
X70401Y-55083D01*
X70401Y-54965D01*
X70401Y-54906D01*
X70401Y-54788D01*
X70401Y-54689D01*
X70401Y-54571D01*
X70401Y-54513D01*
X70401Y-54394D01*
X70401Y-54296D01*
X70401Y-54119D01*
X70358Y-54077D01*
X70318Y-54076D01*
X70255Y-54102D01*
X70253Y-54105D01*
X70251Y-54102D01*
X70188Y-54076D01*
X70148Y-54077D01*
X70106Y-54119D01*
X70106Y-54296D01*
X70224Y-54296D01*
X70282Y-54296D01*
X70401Y-54296D01*
X70401Y-54394D01*
X70282Y-54394D01*
X70224Y-54394D01*
X70106Y-54394D01*
X70106Y-54513D01*
X70106Y-54571D01*
X70106Y-54689D01*
X70224Y-54689D01*
X70282Y-54689D01*
X70401Y-54689D01*
X70401Y-54788D01*
X70282Y-54788D01*
X70224Y-54788D01*
X70106Y-54788D01*
X70106Y-54906D01*
X70106Y-54965D01*
X70106Y-55083D01*
X70224Y-55083D01*
X70282Y-55083D01*
X70401Y-55083D01*
X70401Y-55182D01*
X70282Y-55182D01*
X70224Y-55182D01*
X70106Y-55182D01*
X70106Y-55300D01*
X70106Y-55358D01*
X70106Y-55477D01*
X70224Y-55477D01*
X70282Y-55477D01*
X70401Y-55477D01*
X70401Y-55575D01*
X70282Y-55575D01*
X70224Y-55575D01*
X70106Y-55575D01*
X70106Y-55752D01*
X70148Y-55794D01*
X70188Y-55795D01*
X70251Y-55769D01*
X70253Y-55766D01*
X70255Y-55769D01*
X70318Y-55795D01*
X70358Y-55794D01*
X70401Y-55752D01*
X70401Y-56405D01*
X70382Y-56452D01*
X70381Y-56539D01*
X70391Y-56563D01*
X70325Y-56536D01*
X70238Y-56535D01*
X70157Y-56569D01*
X70095Y-56631D01*
X70062Y-56712D01*
X70061Y-56799D01*
X70095Y-56880D01*
X70157Y-56942D01*
X70238Y-56975D01*
X70325Y-56976D01*
X70406Y-56942D01*
X70468Y-56880D01*
X70501Y-56799D01*
X70502Y-56712D01*
X70492Y-56688D01*
X70558Y-56715D01*
X70645Y-56716D01*
X70726Y-56682D01*
X70788Y-56620D01*
X70821Y-56539D01*
X70822Y-56452D01*
X70822Y-57922D01*
X70782Y-57883D01*
X70701Y-57850D01*
X70614Y-57849D01*
X70533Y-57883D01*
X70471Y-57945D01*
X70438Y-58026D01*
X70437Y-58113D01*
X70444Y-58128D01*
X70395Y-58177D01*
X70362Y-58258D01*
X70361Y-58345D01*
X70395Y-58426D01*
X70457Y-58488D01*
X70538Y-58521D01*
X70625Y-58522D01*
X70706Y-58488D01*
X70768Y-58426D01*
X70801Y-58345D01*
X70802Y-58258D01*
X70795Y-58243D01*
X70844Y-58194D01*
X70877Y-58113D01*
X70878Y-58026D01*
X70878Y-59457D01*
X70841Y-59370D01*
X70767Y-59295D01*
X70686Y-59262D01*
X70758Y-59190D01*
X70798Y-59092D01*
X70799Y-58987D01*
X70758Y-58890D01*
X70684Y-58815D01*
X70586Y-58775D01*
X70481Y-58774D01*
X70384Y-58815D01*
X70309Y-58889D01*
X70269Y-58987D01*
X70268Y-59092D01*
X70309Y-59189D01*
X70383Y-59264D01*
X70464Y-59297D01*
X70392Y-59369D01*
X70352Y-59467D01*
X70351Y-59572D01*
X70392Y-59669D01*
X70466Y-59744D01*
X70564Y-59784D01*
X70669Y-59785D01*
X70766Y-59744D01*
X70841Y-59670D01*
X70881Y-59572D01*
X70882Y-59467D01*
X70882Y-61460D01*
X70870Y-61465D01*
X70795Y-61539D01*
X70755Y-61637D01*
X70754Y-61742D01*
X70795Y-61839D01*
X70869Y-61914D01*
X70952Y-61948D01*
X70881Y-62019D01*
X70854Y-62085D01*
X70775Y-62084D01*
X70678Y-62125D01*
X70603Y-62199D01*
X70563Y-62297D01*
X70562Y-62402D01*
X70603Y-62499D01*
X70677Y-62574D01*
X70775Y-62614D01*
X70880Y-62615D01*
X70977Y-62574D01*
X71052Y-62500D01*
X71079Y-62434D01*
X71158Y-62435D01*
X71255Y-62394D01*
X71330Y-62320D01*
X71370Y-62222D01*
X71371Y-62117D01*
X71371Y-62860D01*
X70562Y-62860D01*
X70566Y-62848D01*
X70567Y-62743D01*
X70526Y-62646D01*
X70452Y-62571D01*
X70354Y-62531D01*
X70249Y-62530D01*
X70152Y-62571D01*
X70099Y-62623D01*
X70099Y-62106D01*
X70099Y-61791D01*
X70099Y-61476D01*
X70090Y-61383D01*
X70079Y-61356D01*
X70079Y-58151D01*
X70057Y-58098D01*
X70057Y-56869D01*
X70016Y-56772D01*
X70007Y-56762D01*
X70007Y-55752D01*
X70007Y-55575D01*
X70007Y-55477D01*
X70007Y-55358D01*
X70007Y-55300D01*
X70007Y-55182D01*
X70007Y-55083D01*
X70007Y-54965D01*
X70007Y-54906D01*
X70007Y-54788D01*
X70007Y-54689D01*
X70007Y-54571D01*
X70007Y-54513D01*
X70007Y-54394D01*
X70007Y-54296D01*
X70007Y-54119D01*
X69965Y-54077D01*
X69924Y-54076D01*
X69862Y-54102D01*
X69860Y-54105D01*
X69857Y-54102D01*
X69795Y-54076D01*
X69754Y-54077D01*
X69712Y-54119D01*
X69712Y-54296D01*
X69830Y-54296D01*
X69889Y-54296D01*
X70007Y-54296D01*
X70007Y-54394D01*
X69889Y-54394D01*
X69830Y-54394D01*
X69712Y-54394D01*
X69712Y-54513D01*
X69712Y-54571D01*
X69712Y-54689D01*
X69830Y-54689D01*
X69889Y-54689D01*
X70007Y-54689D01*
X70007Y-54788D01*
X69889Y-54788D01*
X69830Y-54788D01*
X69712Y-54788D01*
X69712Y-54906D01*
X69712Y-54965D01*
X69712Y-55083D01*
X69830Y-55083D01*
X69889Y-55083D01*
X70007Y-55083D01*
X70007Y-55182D01*
X69889Y-55182D01*
X69830Y-55182D01*
X69712Y-55182D01*
X69712Y-55300D01*
X69712Y-55358D01*
X69712Y-55477D01*
X69830Y-55477D01*
X69889Y-55477D01*
X70007Y-55477D01*
X70007Y-55575D01*
X69889Y-55575D01*
X69830Y-55575D01*
X69712Y-55575D01*
X69712Y-55752D01*
X69754Y-55794D01*
X69795Y-55795D01*
X69857Y-55769D01*
X69860Y-55766D01*
X69862Y-55769D01*
X69924Y-55795D01*
X69965Y-55794D01*
X70007Y-55752D01*
X70007Y-56762D01*
X69942Y-56697D01*
X69844Y-56657D01*
X69739Y-56656D01*
X69680Y-56681D01*
X69680Y-53274D01*
X69637Y-53171D01*
X69558Y-53092D01*
X69455Y-53050D01*
X69417Y-53050D01*
X69417Y-50719D01*
X69376Y-50622D01*
X69302Y-50547D01*
X69204Y-50507D01*
X69123Y-50506D01*
X69123Y-49815D01*
X69082Y-49718D01*
X69011Y-49646D01*
X69011Y-48787D01*
X68988Y-48731D01*
X68988Y-44463D01*
X68941Y-44350D01*
X68855Y-44263D01*
X68742Y-44217D01*
X68620Y-44216D01*
X68507Y-44263D01*
X68420Y-44349D01*
X68374Y-44462D01*
X68373Y-44584D01*
X68420Y-44697D01*
X68506Y-44784D01*
X68619Y-44830D01*
X68741Y-44831D01*
X68854Y-44784D01*
X68941Y-44698D01*
X68987Y-44585D01*
X68988Y-44463D01*
X68988Y-48731D01*
X68984Y-48722D01*
X68984Y-46935D01*
X68937Y-46822D01*
X68851Y-46735D01*
X68738Y-46689D01*
X68616Y-46688D01*
X68517Y-46729D01*
X68517Y-45875D01*
X68476Y-45778D01*
X68402Y-45703D01*
X68304Y-45663D01*
X68281Y-45663D01*
X68281Y-44611D01*
X68240Y-44514D01*
X68166Y-44439D01*
X68068Y-44399D01*
X67963Y-44398D01*
X67866Y-44439D01*
X67806Y-44499D01*
X67806Y-44463D01*
X67759Y-44350D01*
X67673Y-44263D01*
X67560Y-44217D01*
X67438Y-44216D01*
X67325Y-44263D01*
X67238Y-44349D01*
X67192Y-44462D01*
X67191Y-44584D01*
X67238Y-44697D01*
X67324Y-44784D01*
X67437Y-44830D01*
X67559Y-44831D01*
X67672Y-44784D01*
X67750Y-44706D01*
X67750Y-44716D01*
X67791Y-44813D01*
X67865Y-44888D01*
X67963Y-44928D01*
X68068Y-44929D01*
X68165Y-44888D01*
X68240Y-44814D01*
X68280Y-44716D01*
X68281Y-44611D01*
X68281Y-45663D01*
X68199Y-45662D01*
X68102Y-45703D01*
X68027Y-45777D01*
X67987Y-45875D01*
X67986Y-45980D01*
X68027Y-46077D01*
X68101Y-46152D01*
X68199Y-46192D01*
X68304Y-46193D01*
X68401Y-46152D01*
X68476Y-46078D01*
X68516Y-45980D01*
X68517Y-45875D01*
X68517Y-46729D01*
X68503Y-46735D01*
X68416Y-46821D01*
X68370Y-46934D01*
X68369Y-47056D01*
X68384Y-47093D01*
X68285Y-47092D01*
X68188Y-47133D01*
X68113Y-47207D01*
X68073Y-47305D01*
X68072Y-47410D01*
X68113Y-47507D01*
X68187Y-47582D01*
X68285Y-47622D01*
X68390Y-47623D01*
X68487Y-47582D01*
X68562Y-47508D01*
X68602Y-47410D01*
X68603Y-47305D01*
X68599Y-47296D01*
X68615Y-47302D01*
X68737Y-47303D01*
X68850Y-47256D01*
X68937Y-47170D01*
X68983Y-47057D01*
X68984Y-46935D01*
X68984Y-48722D01*
X68970Y-48690D01*
X68896Y-48615D01*
X68798Y-48575D01*
X68693Y-48574D01*
X68596Y-48615D01*
X68521Y-48689D01*
X68481Y-48787D01*
X68480Y-48892D01*
X68521Y-48989D01*
X68595Y-49064D01*
X68693Y-49104D01*
X68798Y-49105D01*
X68895Y-49064D01*
X68970Y-48990D01*
X69010Y-48892D01*
X69011Y-48787D01*
X69011Y-49646D01*
X69008Y-49643D01*
X68961Y-49623D01*
X68987Y-49559D01*
X68988Y-49437D01*
X68941Y-49324D01*
X68855Y-49237D01*
X68742Y-49191D01*
X68620Y-49190D01*
X68507Y-49237D01*
X68420Y-49323D01*
X68374Y-49436D01*
X68373Y-49558D01*
X68420Y-49671D01*
X68506Y-49758D01*
X68600Y-49797D01*
X68593Y-49815D01*
X68592Y-49920D01*
X68633Y-50017D01*
X68707Y-50092D01*
X68805Y-50132D01*
X68910Y-50133D01*
X69007Y-50092D01*
X69082Y-50018D01*
X69122Y-49920D01*
X69123Y-49815D01*
X69123Y-50506D01*
X69099Y-50506D01*
X69002Y-50547D01*
X68927Y-50621D01*
X68887Y-50719D01*
X68886Y-50824D01*
X68927Y-50921D01*
X69001Y-50996D01*
X69099Y-51036D01*
X69204Y-51037D01*
X69301Y-50996D01*
X69376Y-50922D01*
X69416Y-50824D01*
X69417Y-50719D01*
X69417Y-53050D01*
X69344Y-53049D01*
X69241Y-53092D01*
X69162Y-53171D01*
X69120Y-53274D01*
X69119Y-53385D01*
X69162Y-53488D01*
X69241Y-53567D01*
X69344Y-53609D01*
X69455Y-53610D01*
X69558Y-53567D01*
X69637Y-53488D01*
X69679Y-53385D01*
X69680Y-53274D01*
X69680Y-56681D01*
X69642Y-56697D01*
X69613Y-56725D01*
X69613Y-55752D01*
X69613Y-55575D01*
X69613Y-55477D01*
X69613Y-55358D01*
X69613Y-55300D01*
X69613Y-55182D01*
X69613Y-55083D01*
X69613Y-54965D01*
X69613Y-54906D01*
X69613Y-54788D01*
X69613Y-54689D01*
X69613Y-54571D01*
X69613Y-54513D01*
X69613Y-54394D01*
X69613Y-54296D01*
X69613Y-54119D01*
X69571Y-54077D01*
X69531Y-54076D01*
X69468Y-54102D01*
X69466Y-54105D01*
X69464Y-54102D01*
X69401Y-54076D01*
X69361Y-54077D01*
X69318Y-54119D01*
X69318Y-54296D01*
X69437Y-54296D01*
X69495Y-54296D01*
X69613Y-54296D01*
X69613Y-54394D01*
X69495Y-54394D01*
X69437Y-54394D01*
X69318Y-54394D01*
X69318Y-54513D01*
X69318Y-54571D01*
X69318Y-54689D01*
X69437Y-54689D01*
X69495Y-54689D01*
X69613Y-54689D01*
X69613Y-54788D01*
X69495Y-54788D01*
X69437Y-54788D01*
X69318Y-54788D01*
X69318Y-54906D01*
X69318Y-54965D01*
X69318Y-55083D01*
X69437Y-55083D01*
X69495Y-55083D01*
X69613Y-55083D01*
X69613Y-55182D01*
X69495Y-55182D01*
X69437Y-55182D01*
X69318Y-55182D01*
X69318Y-55300D01*
X69318Y-55358D01*
X69318Y-55477D01*
X69437Y-55477D01*
X69495Y-55477D01*
X69613Y-55477D01*
X69613Y-55575D01*
X69495Y-55575D01*
X69437Y-55575D01*
X69318Y-55575D01*
X69318Y-55752D01*
X69361Y-55794D01*
X69401Y-55795D01*
X69464Y-55769D01*
X69466Y-55766D01*
X69468Y-55769D01*
X69531Y-55795D01*
X69571Y-55794D01*
X69613Y-55752D01*
X69613Y-56725D01*
X69567Y-56771D01*
X69527Y-56869D01*
X69526Y-56974D01*
X69567Y-57071D01*
X69641Y-57146D01*
X69739Y-57186D01*
X69844Y-57187D01*
X69941Y-57146D01*
X70016Y-57072D01*
X70056Y-56974D01*
X70057Y-56869D01*
X70057Y-58098D01*
X70038Y-58054D01*
X69964Y-57979D01*
X69866Y-57939D01*
X69761Y-57938D01*
X69664Y-57979D01*
X69655Y-57988D01*
X69655Y-57623D01*
X69614Y-57526D01*
X69540Y-57451D01*
X69453Y-57415D01*
X69453Y-56909D01*
X69412Y-56812D01*
X69338Y-56737D01*
X69240Y-56697D01*
X69220Y-56697D01*
X69220Y-55752D01*
X69220Y-55575D01*
X69220Y-55477D01*
X69220Y-55358D01*
X69220Y-55300D01*
X69220Y-55182D01*
X69220Y-55083D01*
X69220Y-54965D01*
X69220Y-54906D01*
X69220Y-54788D01*
X69220Y-54689D01*
X69220Y-54571D01*
X69220Y-54513D01*
X69220Y-54394D01*
X69220Y-54296D01*
X69220Y-54119D01*
X69177Y-54077D01*
X69137Y-54076D01*
X69074Y-54102D01*
X69026Y-54150D01*
X69001Y-54213D01*
X69000Y-54280D01*
X69001Y-54253D01*
X69043Y-54296D01*
X69220Y-54296D01*
X69220Y-54394D01*
X69043Y-54394D01*
X69001Y-54437D01*
X69000Y-54410D01*
X69001Y-54477D01*
X69026Y-54540D01*
X69028Y-54542D01*
X69026Y-54544D01*
X69001Y-54606D01*
X69000Y-54674D01*
X69001Y-54647D01*
X69043Y-54689D01*
X69220Y-54689D01*
X69220Y-54788D01*
X69043Y-54788D01*
X69001Y-54830D01*
X69000Y-54803D01*
X69001Y-54871D01*
X69026Y-54933D01*
X69028Y-54936D01*
X69026Y-54938D01*
X69001Y-55000D01*
X69000Y-55068D01*
X69001Y-55041D01*
X69043Y-55083D01*
X69220Y-55083D01*
X69220Y-55182D01*
X69043Y-55182D01*
X69001Y-55224D01*
X69000Y-55197D01*
X69001Y-55265D01*
X69026Y-55327D01*
X69028Y-55329D01*
X69026Y-55331D01*
X69001Y-55394D01*
X69000Y-55461D01*
X69001Y-55434D01*
X69043Y-55477D01*
X69220Y-55477D01*
X69220Y-55575D01*
X69043Y-55575D01*
X69001Y-55618D01*
X69000Y-55591D01*
X69001Y-55658D01*
X69026Y-55721D01*
X69074Y-55769D01*
X69137Y-55795D01*
X69177Y-55794D01*
X69220Y-55752D01*
X69220Y-56697D01*
X69135Y-56696D01*
X69038Y-56737D01*
X68977Y-56798D01*
X68977Y-53651D01*
X68936Y-53554D01*
X68862Y-53479D01*
X68764Y-53439D01*
X68659Y-53438D01*
X68562Y-53479D01*
X68487Y-53553D01*
X68480Y-53571D01*
X68480Y-50342D01*
X68446Y-50261D01*
X68384Y-50199D01*
X68303Y-50166D01*
X68216Y-50165D01*
X68135Y-50199D01*
X68073Y-50261D01*
X68040Y-50342D01*
X68039Y-50429D01*
X68073Y-50510D01*
X68135Y-50572D01*
X68216Y-50605D01*
X68303Y-50606D01*
X68384Y-50572D01*
X68446Y-50510D01*
X68479Y-50429D01*
X68480Y-50342D01*
X68480Y-53571D01*
X68447Y-53651D01*
X68446Y-53756D01*
X68487Y-53853D01*
X68561Y-53928D01*
X68659Y-53968D01*
X68764Y-53969D01*
X68861Y-53928D01*
X68936Y-53854D01*
X68976Y-53756D01*
X68977Y-53651D01*
X68977Y-56798D01*
X68963Y-56811D01*
X68923Y-56909D01*
X68922Y-57014D01*
X68963Y-57111D01*
X69037Y-57186D01*
X69135Y-57226D01*
X69240Y-57227D01*
X69337Y-57186D01*
X69412Y-57112D01*
X69452Y-57014D01*
X69453Y-56909D01*
X69453Y-57415D01*
X69442Y-57411D01*
X69337Y-57410D01*
X69240Y-57451D01*
X69165Y-57525D01*
X69125Y-57623D01*
X69124Y-57728D01*
X69165Y-57825D01*
X69239Y-57900D01*
X69337Y-57940D01*
X69442Y-57941D01*
X69539Y-57900D01*
X69614Y-57826D01*
X69654Y-57728D01*
X69655Y-57623D01*
X69655Y-57988D01*
X69589Y-58053D01*
X69549Y-58151D01*
X69548Y-58256D01*
X69589Y-58353D01*
X69663Y-58428D01*
X69761Y-58468D01*
X69866Y-58469D01*
X69963Y-58428D01*
X70038Y-58354D01*
X70078Y-58256D01*
X70079Y-58151D01*
X70079Y-61356D01*
X70072Y-61339D01*
X70021Y-61338D01*
X69975Y-61384D01*
X69975Y-61292D01*
X69974Y-61241D01*
X69884Y-61214D01*
X69791Y-61223D01*
X69747Y-61241D01*
X69746Y-61292D01*
X69861Y-61407D01*
X69975Y-61292D01*
X69975Y-61384D01*
X69906Y-61453D01*
X70021Y-61567D01*
X70072Y-61566D01*
X70099Y-61476D01*
X70099Y-61791D01*
X70090Y-61698D01*
X70072Y-61654D01*
X70021Y-61653D01*
X69906Y-61768D01*
X70021Y-61882D01*
X70072Y-61881D01*
X70099Y-61791D01*
X70099Y-62106D01*
X70090Y-62013D01*
X70072Y-61969D01*
X70021Y-61968D01*
X69975Y-62014D01*
X69975Y-61928D01*
X69972Y-61925D01*
X69975Y-61922D01*
X69974Y-61871D01*
X69894Y-61847D01*
X69861Y-61813D01*
X69843Y-61831D01*
X69797Y-61785D01*
X69815Y-61768D01*
X69797Y-61750D01*
X69843Y-61704D01*
X69861Y-61722D01*
X69897Y-61685D01*
X69930Y-61682D01*
X69974Y-61664D01*
X69975Y-61613D01*
X69972Y-61610D01*
X69975Y-61607D01*
X69974Y-61556D01*
X69894Y-61532D01*
X69861Y-61498D01*
X69843Y-61516D01*
X69797Y-61470D01*
X69815Y-61453D01*
X69778Y-61416D01*
X69775Y-61383D01*
X69757Y-61339D01*
X69706Y-61338D01*
X69703Y-61341D01*
X69700Y-61338D01*
X69660Y-61339D01*
X69660Y-61292D01*
X69659Y-61241D01*
X69569Y-61214D01*
X69505Y-61220D01*
X69505Y-58497D01*
X69464Y-58400D01*
X69390Y-58325D01*
X69292Y-58285D01*
X69187Y-58284D01*
X69090Y-58325D01*
X69018Y-58397D01*
X69018Y-57739D01*
X68971Y-57626D01*
X68885Y-57539D01*
X68775Y-57494D01*
X68794Y-57446D01*
X68795Y-57341D01*
X68779Y-57302D01*
X68779Y-56471D01*
X68738Y-56374D01*
X68664Y-56299D01*
X68575Y-56262D01*
X68575Y-55617D01*
X68534Y-55520D01*
X68460Y-55445D01*
X68400Y-55420D01*
X68400Y-54067D01*
X68359Y-53970D01*
X68285Y-53895D01*
X68187Y-53855D01*
X68082Y-53854D01*
X67985Y-53895D01*
X67910Y-53969D01*
X67870Y-54067D01*
X67869Y-54172D01*
X67910Y-54269D01*
X67984Y-54344D01*
X67984Y-54344D01*
X67906Y-54377D01*
X67831Y-54451D01*
X67806Y-54512D01*
X67806Y-49437D01*
X67802Y-49427D01*
X67802Y-46935D01*
X67755Y-46822D01*
X67669Y-46735D01*
X67556Y-46689D01*
X67434Y-46688D01*
X67321Y-46735D01*
X67234Y-46821D01*
X67188Y-46934D01*
X67187Y-47056D01*
X67234Y-47169D01*
X67320Y-47256D01*
X67433Y-47302D01*
X67555Y-47303D01*
X67668Y-47256D01*
X67755Y-47170D01*
X67801Y-47057D01*
X67802Y-46935D01*
X67802Y-49427D01*
X67759Y-49324D01*
X67673Y-49237D01*
X67560Y-49191D01*
X67438Y-49190D01*
X67325Y-49237D01*
X67238Y-49323D01*
X67192Y-49436D01*
X67191Y-49558D01*
X67238Y-49671D01*
X67324Y-49758D01*
X67437Y-49804D01*
X67559Y-49805D01*
X67672Y-49758D01*
X67759Y-49672D01*
X67805Y-49559D01*
X67806Y-49437D01*
X67806Y-54512D01*
X67791Y-54549D01*
X67790Y-54654D01*
X67831Y-54751D01*
X67905Y-54826D01*
X68003Y-54866D01*
X68108Y-54867D01*
X68205Y-54826D01*
X68280Y-54752D01*
X68320Y-54654D01*
X68321Y-54549D01*
X68280Y-54452D01*
X68206Y-54377D01*
X68206Y-54377D01*
X68284Y-54344D01*
X68359Y-54270D01*
X68399Y-54172D01*
X68400Y-54067D01*
X68400Y-55420D01*
X68362Y-55405D01*
X68257Y-55404D01*
X68160Y-55445D01*
X68085Y-55519D01*
X68045Y-55617D01*
X68045Y-55632D01*
X68026Y-55613D01*
X67928Y-55573D01*
X67823Y-55572D01*
X67726Y-55613D01*
X67651Y-55687D01*
X67611Y-55785D01*
X67610Y-55890D01*
X67651Y-55987D01*
X67725Y-56062D01*
X67823Y-56102D01*
X67928Y-56103D01*
X68025Y-56062D01*
X68100Y-55988D01*
X68140Y-55890D01*
X68140Y-55875D01*
X68159Y-55894D01*
X68257Y-55934D01*
X68362Y-55935D01*
X68459Y-55894D01*
X68534Y-55820D01*
X68574Y-55722D01*
X68575Y-55617D01*
X68575Y-56262D01*
X68566Y-56259D01*
X68461Y-56258D01*
X68364Y-56299D01*
X68289Y-56373D01*
X68249Y-56471D01*
X68248Y-56576D01*
X68289Y-56673D01*
X68363Y-56748D01*
X68461Y-56788D01*
X68566Y-56789D01*
X68663Y-56748D01*
X68738Y-56674D01*
X68778Y-56576D01*
X68779Y-56471D01*
X68779Y-57302D01*
X68754Y-57244D01*
X68680Y-57169D01*
X68582Y-57129D01*
X68477Y-57128D01*
X68380Y-57169D01*
X68305Y-57243D01*
X68284Y-57295D01*
X68284Y-56724D01*
X68243Y-56627D01*
X68169Y-56552D01*
X68071Y-56512D01*
X67966Y-56511D01*
X67869Y-56552D01*
X67794Y-56626D01*
X67754Y-56724D01*
X67753Y-56829D01*
X67794Y-56926D01*
X67868Y-57001D01*
X67966Y-57041D01*
X68071Y-57042D01*
X68168Y-57001D01*
X68243Y-56927D01*
X68283Y-56829D01*
X68284Y-56724D01*
X68284Y-57295D01*
X68265Y-57341D01*
X68264Y-57446D01*
X68305Y-57543D01*
X68379Y-57618D01*
X68443Y-57644D01*
X68404Y-57738D01*
X68403Y-57860D01*
X68450Y-57973D01*
X68536Y-58060D01*
X68649Y-58106D01*
X68771Y-58107D01*
X68884Y-58060D01*
X68971Y-57974D01*
X69017Y-57861D01*
X69018Y-57739D01*
X69018Y-58397D01*
X69015Y-58399D01*
X68975Y-58497D01*
X68974Y-58602D01*
X69015Y-58699D01*
X69062Y-58747D01*
X69035Y-58813D01*
X69034Y-58900D01*
X69068Y-58981D01*
X69130Y-59043D01*
X69211Y-59076D01*
X69298Y-59077D01*
X69379Y-59043D01*
X69441Y-58981D01*
X69474Y-58900D01*
X69475Y-58813D01*
X69441Y-58732D01*
X69436Y-58727D01*
X69464Y-58700D01*
X69504Y-58602D01*
X69505Y-58497D01*
X69505Y-61220D01*
X69496Y-61221D01*
X69496Y-60513D01*
X69455Y-60416D01*
X69381Y-60341D01*
X69283Y-60301D01*
X69178Y-60300D01*
X69081Y-60341D01*
X69006Y-60415D01*
X68966Y-60513D01*
X68965Y-60618D01*
X69006Y-60715D01*
X69080Y-60790D01*
X69178Y-60830D01*
X69283Y-60831D01*
X69380Y-60790D01*
X69455Y-60716D01*
X69495Y-60618D01*
X69496Y-60513D01*
X69496Y-61221D01*
X69476Y-61223D01*
X69432Y-61241D01*
X69431Y-61292D01*
X69546Y-61407D01*
X69660Y-61292D01*
X69660Y-61339D01*
X69649Y-61339D01*
X69625Y-61419D01*
X69591Y-61453D01*
X69609Y-61470D01*
X69563Y-61516D01*
X69546Y-61498D01*
X69528Y-61516D01*
X69482Y-61470D01*
X69500Y-61453D01*
X69463Y-61416D01*
X69460Y-61383D01*
X69442Y-61339D01*
X69391Y-61338D01*
X69388Y-61341D01*
X69385Y-61338D01*
X69345Y-61339D01*
X69345Y-61292D01*
X69344Y-61241D01*
X69254Y-61214D01*
X69161Y-61223D01*
X69117Y-61241D01*
X69116Y-61292D01*
X69231Y-61407D01*
X69345Y-61292D01*
X69345Y-61339D01*
X69334Y-61339D01*
X69310Y-61419D01*
X69276Y-61453D01*
X69294Y-61470D01*
X69248Y-61516D01*
X69231Y-61498D01*
X69194Y-61535D01*
X69185Y-61536D01*
X69185Y-61453D01*
X69113Y-61381D01*
X69113Y-60961D01*
X69072Y-60864D01*
X68998Y-60789D01*
X68900Y-60749D01*
X68795Y-60748D01*
X68698Y-60789D01*
X68623Y-60863D01*
X68583Y-60961D01*
X68582Y-61066D01*
X68623Y-61163D01*
X68697Y-61238D01*
X68795Y-61278D01*
X68900Y-61279D01*
X68997Y-61238D01*
X69072Y-61164D01*
X69112Y-61066D01*
X69113Y-60961D01*
X69113Y-61381D01*
X69070Y-61338D01*
X69019Y-61339D01*
X68992Y-61429D01*
X69001Y-61522D01*
X69019Y-61566D01*
X69070Y-61567D01*
X69185Y-61453D01*
X69185Y-61536D01*
X69161Y-61538D01*
X69117Y-61556D01*
X69116Y-61607D01*
X69119Y-61610D01*
X69116Y-61613D01*
X69117Y-61664D01*
X69197Y-61688D01*
X69231Y-61722D01*
X69248Y-61704D01*
X69294Y-61750D01*
X69276Y-61768D01*
X69294Y-61785D01*
X69248Y-61831D01*
X69231Y-61813D01*
X69194Y-61850D01*
X69185Y-61851D01*
X69185Y-61768D01*
X69070Y-61653D01*
X69019Y-61654D01*
X68992Y-61744D01*
X69001Y-61837D01*
X69019Y-61881D01*
X69070Y-61882D01*
X69185Y-61768D01*
X69185Y-61851D01*
X69161Y-61853D01*
X69117Y-61871D01*
X69116Y-61922D01*
X69119Y-61925D01*
X69116Y-61928D01*
X69117Y-61979D01*
X69197Y-62003D01*
X69231Y-62037D01*
X69248Y-62019D01*
X69294Y-62065D01*
X69276Y-62083D01*
X69313Y-62119D01*
X69316Y-62152D01*
X69334Y-62196D01*
X69385Y-62197D01*
X69388Y-62194D01*
X69391Y-62197D01*
X69442Y-62196D01*
X69466Y-62116D01*
X69500Y-62083D01*
X69482Y-62065D01*
X69528Y-62019D01*
X69546Y-62037D01*
X69563Y-62019D01*
X69609Y-62065D01*
X69591Y-62083D01*
X69628Y-62119D01*
X69631Y-62152D01*
X69649Y-62196D01*
X69700Y-62197D01*
X69703Y-62194D01*
X69706Y-62197D01*
X69757Y-62196D01*
X69781Y-62116D01*
X69815Y-62083D01*
X69797Y-62065D01*
X69843Y-62019D01*
X69861Y-62037D01*
X69897Y-62000D01*
X69930Y-61997D01*
X69974Y-61979D01*
X69975Y-61928D01*
X69975Y-62014D01*
X69906Y-62083D01*
X70021Y-62197D01*
X70072Y-62196D01*
X70099Y-62106D01*
X70099Y-62623D01*
X70077Y-62645D01*
X70037Y-62743D01*
X70036Y-62848D01*
X70041Y-62860D01*
X69975Y-62860D01*
X69975Y-62243D01*
X69861Y-62128D01*
X69746Y-62243D01*
X69747Y-62294D01*
X69837Y-62321D01*
X69930Y-62312D01*
X69974Y-62294D01*
X69975Y-62243D01*
X69975Y-62860D01*
X69660Y-62860D01*
X69660Y-62243D01*
X69546Y-62128D01*
X69431Y-62243D01*
X69432Y-62294D01*
X69522Y-62321D01*
X69615Y-62312D01*
X69659Y-62294D01*
X69660Y-62243D01*
X69660Y-62860D01*
X69345Y-62860D01*
X69345Y-62243D01*
X69231Y-62128D01*
X69185Y-62174D01*
X69185Y-62083D01*
X69070Y-61968D01*
X69019Y-61969D01*
X68992Y-62059D01*
X69001Y-62152D01*
X69019Y-62196D01*
X69070Y-62197D01*
X69185Y-62083D01*
X69185Y-62174D01*
X69116Y-62243D01*
X69117Y-62294D01*
X69207Y-62321D01*
X69300Y-62312D01*
X69344Y-62294D01*
X69345Y-62243D01*
X69345Y-62860D01*
X69138Y-62860D01*
X69160Y-62804D01*
X69161Y-62699D01*
X69120Y-62602D01*
X69046Y-62527D01*
X68948Y-62487D01*
X68843Y-62486D01*
X68746Y-62527D01*
X68671Y-62601D01*
X68631Y-62699D01*
X68630Y-62804D01*
X68653Y-62860D01*
X68599Y-62860D01*
X68614Y-62822D01*
X68615Y-62717D01*
X68574Y-62620D01*
X68500Y-62545D01*
X68402Y-62505D01*
X68297Y-62504D01*
X68278Y-62512D01*
X68278Y-59833D01*
X68189Y-59619D01*
X68026Y-59456D01*
X67836Y-59377D01*
X67836Y-57739D01*
X67789Y-57626D01*
X67703Y-57539D01*
X67590Y-57493D01*
X67468Y-57492D01*
X67355Y-57539D01*
X67268Y-57625D01*
X67222Y-57738D01*
X67221Y-57860D01*
X67268Y-57973D01*
X67354Y-58060D01*
X67467Y-58106D01*
X67589Y-58107D01*
X67702Y-58060D01*
X67789Y-57974D01*
X67835Y-57861D01*
X67836Y-57739D01*
X67836Y-59377D01*
X67813Y-59368D01*
X67583Y-59367D01*
X67369Y-59456D01*
X67206Y-59619D01*
X67118Y-59832D01*
X67117Y-60062D01*
X67206Y-60276D01*
X67369Y-60439D01*
X67582Y-60527D01*
X67812Y-60528D01*
X68026Y-60439D01*
X68189Y-60276D01*
X68277Y-60063D01*
X68278Y-59833D01*
X68278Y-62512D01*
X68200Y-62545D01*
X68125Y-62619D01*
X68085Y-62717D01*
X68084Y-62822D01*
X68100Y-62860D01*
X67844Y-62860D01*
X67844Y-61934D01*
X67061Y-61934D01*
X67061Y-43439D01*
X68072Y-43439D01*
X68059Y-43451D01*
X68019Y-43549D01*
X68018Y-43654D01*
X68059Y-43751D01*
X68133Y-43826D01*
X68231Y-43866D01*
X68336Y-43867D01*
X68433Y-43826D01*
X68508Y-43752D01*
X68548Y-43654D01*
X68549Y-43549D01*
X68508Y-43452D01*
X68495Y-43439D01*
X69164Y-43439D01*
X69165Y-45480D01*
X69146Y-45499D01*
X69058Y-45712D01*
X69057Y-45942D01*
X69146Y-46156D01*
X69309Y-46319D01*
X69522Y-46407D01*
X69752Y-46408D01*
X69966Y-46319D01*
X70129Y-46156D01*
X70176Y-46043D01*
X72113Y-46049D01*
X72101Y-46061D01*
X72061Y-46159D01*
X72060Y-46264D01*
X72101Y-46361D01*
X72175Y-46436D01*
X72220Y-46455D01*
X72123Y-46454D01*
X72026Y-46495D01*
X72003Y-46517D01*
X72028Y-46456D01*
X72029Y-46351D01*
X71988Y-46254D01*
X71914Y-46179D01*
X71816Y-46139D01*
X71711Y-46138D01*
X71614Y-46179D01*
X71539Y-46253D01*
X71499Y-46351D01*
X71498Y-46456D01*
X71539Y-46553D01*
X71613Y-46628D01*
X71711Y-46668D01*
X71816Y-46669D01*
X71913Y-46628D01*
X71936Y-46606D01*
X71911Y-46667D01*
X71910Y-46772D01*
X71951Y-46869D01*
X72025Y-46944D01*
X72123Y-46984D01*
X72228Y-46985D01*
X72325Y-46944D01*
X72400Y-46870D01*
X72440Y-46772D01*
X72441Y-46667D01*
X72400Y-46570D01*
X72326Y-46495D01*
X72281Y-46476D01*
X72378Y-46477D01*
X72475Y-46436D01*
X72550Y-46362D01*
X72590Y-46264D01*
X72591Y-46159D01*
X72550Y-46062D01*
X72539Y-46050D01*
X73399Y-46053D01*
X73369Y-46083D01*
X73329Y-46181D01*
X73328Y-46286D01*
X73369Y-46383D01*
X73443Y-46458D01*
X73541Y-46498D01*
X73646Y-46499D01*
X73743Y-46458D01*
X73818Y-46384D01*
X73858Y-46286D01*
X73859Y-46181D01*
X73818Y-46084D01*
X73744Y-46009D01*
X73646Y-45969D01*
X73617Y-45969D01*
X74115Y-45383D01*
X74143Y-45449D01*
X74217Y-45524D01*
X74315Y-45564D01*
X74420Y-45565D01*
X74517Y-45524D01*
X74592Y-45450D01*
X74632Y-45352D01*
X74633Y-45247D01*
X74592Y-45150D01*
X74518Y-45075D01*
X74420Y-45035D01*
X74412Y-45035D01*
X74799Y-44581D01*
X74935Y-44717D01*
X75148Y-44805D01*
X75329Y-44806D01*
X75309Y-44825D01*
X75269Y-44923D01*
X75268Y-45028D01*
X75309Y-45125D01*
X75383Y-45200D01*
X75481Y-45240D01*
X75586Y-45241D01*
X75683Y-45200D01*
X75758Y-45126D01*
X75798Y-45028D01*
X75799Y-44923D01*
X75758Y-44826D01*
X75684Y-44751D01*
X75595Y-44714D01*
X75755Y-44554D01*
X75843Y-44341D01*
X75844Y-44111D01*
X75755Y-43897D01*
X75592Y-43734D01*
X75379Y-43646D01*
X75149Y-43645D01*
X74935Y-43734D01*
X74818Y-43850D01*
X74808Y-43439D01*
X78608Y-43439D01*
X78608Y-54994D01*
X78511Y-54954D01*
X78454Y-54953D01*
X78454Y-49383D01*
X78413Y-49286D01*
X78339Y-49211D01*
X78337Y-49210D01*
X78337Y-48527D01*
X78296Y-48430D01*
X78222Y-48355D01*
X78124Y-48315D01*
X78019Y-48314D01*
X77922Y-48355D01*
X77847Y-48429D01*
X77807Y-48527D01*
X77806Y-48632D01*
X77847Y-48729D01*
X77921Y-48804D01*
X78019Y-48844D01*
X78124Y-48845D01*
X78221Y-48804D01*
X78296Y-48730D01*
X78336Y-48632D01*
X78337Y-48527D01*
X78337Y-49210D01*
X78241Y-49171D01*
X78136Y-49170D01*
X78039Y-49211D01*
X77964Y-49285D01*
X77924Y-49383D01*
X77923Y-49488D01*
X77964Y-49585D01*
X78038Y-49660D01*
X78136Y-49700D01*
X78241Y-49701D01*
X78338Y-49660D01*
X78413Y-49586D01*
X78453Y-49488D01*
X78454Y-49383D01*
X78454Y-54953D01*
X78400Y-54953D01*
X78297Y-54996D01*
X78225Y-55068D01*
X78225Y-54135D01*
X78184Y-54038D01*
X78114Y-53968D01*
X78136Y-53914D01*
X78137Y-53809D01*
X78096Y-53712D01*
X78022Y-53637D01*
X77924Y-53597D01*
X77909Y-53597D01*
X77909Y-53273D01*
X77868Y-53176D01*
X77794Y-53101D01*
X77749Y-53082D01*
X77749Y-46697D01*
X77708Y-46600D01*
X77702Y-46593D01*
X77702Y-45978D01*
X77668Y-45897D01*
X77606Y-45835D01*
X77555Y-45814D01*
X77555Y-45097D01*
X77514Y-45000D01*
X77440Y-44925D01*
X77342Y-44885D01*
X77237Y-44884D01*
X77140Y-44925D01*
X77065Y-44999D01*
X77064Y-45003D01*
X77064Y-43804D01*
X77023Y-43707D01*
X76949Y-43632D01*
X76851Y-43592D01*
X76746Y-43591D01*
X76649Y-43632D01*
X76574Y-43706D01*
X76534Y-43804D01*
X76533Y-43909D01*
X76574Y-44006D01*
X76648Y-44081D01*
X76746Y-44121D01*
X76851Y-44122D01*
X76948Y-44081D01*
X77023Y-44007D01*
X77063Y-43909D01*
X77064Y-43804D01*
X77064Y-45003D01*
X77025Y-45097D01*
X77024Y-45202D01*
X77065Y-45299D01*
X77139Y-45374D01*
X77237Y-45414D01*
X77342Y-45415D01*
X77439Y-45374D01*
X77514Y-45300D01*
X77554Y-45202D01*
X77555Y-45097D01*
X77555Y-45814D01*
X77525Y-45802D01*
X77438Y-45801D01*
X77357Y-45835D01*
X77295Y-45897D01*
X77262Y-45978D01*
X77261Y-46065D01*
X77295Y-46146D01*
X77357Y-46208D01*
X77438Y-46241D01*
X77525Y-46242D01*
X77606Y-46208D01*
X77668Y-46146D01*
X77701Y-46065D01*
X77702Y-45978D01*
X77702Y-46593D01*
X77634Y-46525D01*
X77536Y-46485D01*
X77431Y-46484D01*
X77361Y-46513D01*
X77386Y-46452D01*
X77387Y-46347D01*
X77346Y-46250D01*
X77272Y-46175D01*
X77174Y-46135D01*
X77069Y-46134D01*
X76972Y-46175D01*
X76897Y-46249D01*
X76857Y-46347D01*
X76856Y-46452D01*
X76897Y-46549D01*
X76971Y-46624D01*
X77069Y-46664D01*
X77174Y-46665D01*
X77244Y-46636D01*
X77219Y-46697D01*
X77218Y-46802D01*
X77259Y-46899D01*
X77333Y-46974D01*
X77431Y-47014D01*
X77536Y-47015D01*
X77633Y-46974D01*
X77708Y-46900D01*
X77748Y-46802D01*
X77749Y-46697D01*
X77749Y-53082D01*
X77696Y-53061D01*
X77591Y-53060D01*
X77563Y-53072D01*
X77563Y-53021D01*
X77522Y-52924D01*
X77448Y-52849D01*
X77350Y-52809D01*
X77303Y-52809D01*
X77303Y-49891D01*
X77262Y-49794D01*
X77188Y-49719D01*
X77090Y-49679D01*
X77088Y-49679D01*
X77088Y-48230D01*
X77054Y-48149D01*
X76992Y-48087D01*
X76911Y-48054D01*
X76824Y-48053D01*
X76743Y-48087D01*
X76681Y-48149D01*
X76648Y-48230D01*
X76647Y-48317D01*
X76681Y-48398D01*
X76743Y-48460D01*
X76824Y-48493D01*
X76911Y-48494D01*
X76992Y-48460D01*
X77054Y-48398D01*
X77087Y-48317D01*
X77088Y-48230D01*
X77088Y-49679D01*
X77049Y-49679D01*
X77062Y-49646D01*
X77063Y-49541D01*
X77022Y-49444D01*
X76948Y-49369D01*
X76850Y-49329D01*
X76745Y-49328D01*
X76648Y-49369D01*
X76573Y-49443D01*
X76533Y-49541D01*
X76532Y-49646D01*
X76573Y-49743D01*
X76647Y-49818D01*
X76745Y-49858D01*
X76786Y-49858D01*
X76773Y-49891D01*
X76772Y-49996D01*
X76813Y-50093D01*
X76887Y-50168D01*
X76985Y-50208D01*
X77090Y-50209D01*
X77187Y-50168D01*
X77262Y-50094D01*
X77302Y-49996D01*
X77303Y-49891D01*
X77303Y-52809D01*
X77245Y-52808D01*
X77148Y-52849D01*
X77073Y-52923D01*
X77033Y-53021D01*
X77032Y-53126D01*
X77069Y-53214D01*
X77064Y-53213D01*
X76959Y-53212D01*
X76862Y-53253D01*
X76787Y-53327D01*
X76747Y-53425D01*
X76746Y-53530D01*
X76787Y-53627D01*
X76861Y-53702D01*
X76915Y-53724D01*
X76899Y-53765D01*
X76898Y-53870D01*
X76939Y-53967D01*
X77013Y-54042D01*
X77111Y-54082D01*
X77216Y-54083D01*
X77313Y-54042D01*
X77388Y-53968D01*
X77428Y-53870D01*
X77429Y-53765D01*
X77388Y-53668D01*
X77314Y-53593D01*
X77260Y-53571D01*
X77276Y-53530D01*
X77277Y-53425D01*
X77240Y-53337D01*
X77245Y-53338D01*
X77350Y-53339D01*
X77378Y-53327D01*
X77378Y-53378D01*
X77419Y-53475D01*
X77493Y-53550D01*
X77591Y-53590D01*
X77696Y-53591D01*
X77793Y-53550D01*
X77868Y-53476D01*
X77908Y-53378D01*
X77909Y-53273D01*
X77909Y-53597D01*
X77819Y-53596D01*
X77722Y-53637D01*
X77647Y-53711D01*
X77607Y-53809D01*
X77606Y-53914D01*
X77647Y-54011D01*
X77717Y-54081D01*
X77695Y-54135D01*
X77694Y-54190D01*
X77672Y-54167D01*
X77574Y-54127D01*
X77469Y-54126D01*
X77372Y-54167D01*
X77297Y-54241D01*
X77257Y-54339D01*
X77256Y-54444D01*
X77297Y-54541D01*
X77371Y-54616D01*
X77469Y-54656D01*
X77574Y-54657D01*
X77671Y-54616D01*
X77746Y-54542D01*
X77786Y-54444D01*
X77787Y-54389D01*
X77809Y-54412D01*
X77907Y-54452D01*
X78012Y-54453D01*
X78109Y-54412D01*
X78184Y-54338D01*
X78224Y-54240D01*
X78225Y-54135D01*
X78225Y-55068D01*
X78218Y-55075D01*
X78176Y-55178D01*
X78175Y-55289D01*
X78218Y-55392D01*
X78297Y-55471D01*
X78400Y-55513D01*
X78511Y-55514D01*
X78608Y-55474D01*
X78608Y-62860D01*
M02*
