G04 (created by PCBNEW (2013-may-18)-stable) date Fri 27 Sep 2013 03:21:33 PM EDT*
%MOIN*%
G04 Gerber Fmt 3.4, Leading zero omitted, Abs format*
%FSLAX34Y34*%
G01*
G70*
G90*
G04 APERTURE LIST*
%ADD10C,0.00590551*%
%ADD11C,0.011811*%
%ADD12C,0.010811*%
%ADD13C,0.0039*%
%ADD14C,0.0001*%
%ADD15C,0.00669291*%
%ADD16C,0.006*%
%ADD17C,0.0055*%
%ADD18C,0.00787402*%
%ADD19C,0.00725*%
%ADD20C,0.00805138*%
%ADD21R,0.0354331X0.023622*%
%ADD22R,0.023622X0.0354331*%
%ADD23R,0.019685X0.023622*%
%ADD24R,0.023622X0.019685*%
%ADD25C,0.0314*%
%ADD26R,0.0708661X0.0393701*%
%ADD27R,0.0511811X0.0275591*%
%ADD28C,0.04*%
%ADD29R,0.04X0.04*%
%ADD30C,0.042*%
%ADD31R,0.042X0.042*%
%ADD32C,0.0193386*%
%ADD33C,0.09*%
%ADD34R,0.023622X0.015748*%
%ADD35C,0.0669291*%
G04 APERTURE END LIST*
G54D10*
G54D11*
X76628Y-46306D02*
X76791Y-46306D01*
X76791Y-46563D02*
X76791Y-46073D01*
X76558Y-46073D01*
X76277Y-46073D02*
X76184Y-46073D01*
X76137Y-46096D01*
X76091Y-46143D01*
X76067Y-46236D01*
X76067Y-46400D01*
X76091Y-46493D01*
X76137Y-46540D01*
X76184Y-46563D01*
X76277Y-46563D01*
X76324Y-46540D01*
X76371Y-46493D01*
X76394Y-46400D01*
X76394Y-46236D01*
X76371Y-46143D01*
X76324Y-46096D01*
X76277Y-46073D01*
X75577Y-46563D02*
X75740Y-46329D01*
X75857Y-46563D02*
X75857Y-46073D01*
X75670Y-46073D01*
X75623Y-46096D01*
X75600Y-46119D01*
X75577Y-46166D01*
X75577Y-46236D01*
X75600Y-46283D01*
X75623Y-46306D01*
X75670Y-46329D01*
X75857Y-46329D01*
X75086Y-46516D02*
X75109Y-46540D01*
X75180Y-46563D01*
X75226Y-46563D01*
X75296Y-46540D01*
X75343Y-46493D01*
X75366Y-46446D01*
X75390Y-46353D01*
X75390Y-46283D01*
X75366Y-46189D01*
X75343Y-46143D01*
X75296Y-46096D01*
X75226Y-46073D01*
X75180Y-46073D01*
X75109Y-46096D01*
X75086Y-46119D01*
X74876Y-46306D02*
X74712Y-46306D01*
X74642Y-46563D02*
X74876Y-46563D01*
X74876Y-46073D01*
X74642Y-46073D01*
X78353Y-45710D02*
X78283Y-45734D01*
X78166Y-45734D01*
X78120Y-45710D01*
X78096Y-45687D01*
X78073Y-45640D01*
X78073Y-45593D01*
X78096Y-45547D01*
X78120Y-45523D01*
X78166Y-45500D01*
X78260Y-45477D01*
X78307Y-45453D01*
X78330Y-45430D01*
X78353Y-45383D01*
X78353Y-45336D01*
X78330Y-45290D01*
X78307Y-45266D01*
X78260Y-45243D01*
X78143Y-45243D01*
X78073Y-45266D01*
X77933Y-45243D02*
X77653Y-45243D01*
X77793Y-45734D02*
X77793Y-45243D01*
X77209Y-45734D02*
X77372Y-45500D01*
X77489Y-45734D02*
X77489Y-45243D01*
X77302Y-45243D01*
X77255Y-45266D01*
X77232Y-45290D01*
X77209Y-45336D01*
X77209Y-45407D01*
X77232Y-45453D01*
X77255Y-45477D01*
X77302Y-45500D01*
X77489Y-45500D01*
X76998Y-45734D02*
X76998Y-45243D01*
X76765Y-45734D02*
X76765Y-45243D01*
X76485Y-45734D02*
X76695Y-45453D01*
X76485Y-45243D02*
X76765Y-45523D01*
X76274Y-45477D02*
X76111Y-45477D01*
X76041Y-45734D02*
X76274Y-45734D01*
X76274Y-45243D01*
X76041Y-45243D01*
G54D12*
X72654Y-51884D02*
X72634Y-51863D01*
X72592Y-51843D01*
X72489Y-51843D01*
X72448Y-51863D01*
X72427Y-51884D01*
X72407Y-51925D01*
X72407Y-51966D01*
X72427Y-52028D01*
X72675Y-52276D01*
X72407Y-52276D01*
X72139Y-51843D02*
X72097Y-51843D01*
X72056Y-51863D01*
X72036Y-51884D01*
X72015Y-51925D01*
X71994Y-52008D01*
X71994Y-52111D01*
X72015Y-52193D01*
X72036Y-52235D01*
X72056Y-52255D01*
X72097Y-52276D01*
X72139Y-52276D01*
X72180Y-52255D01*
X72201Y-52235D01*
X72221Y-52193D01*
X72242Y-52111D01*
X72242Y-52008D01*
X72221Y-51925D01*
X72201Y-51884D01*
X72180Y-51863D01*
X72139Y-51843D01*
X71582Y-52276D02*
X71829Y-52276D01*
X71706Y-52276D02*
X71706Y-51843D01*
X71747Y-51905D01*
X71788Y-51946D01*
X71829Y-51966D01*
X71438Y-51843D02*
X71169Y-51843D01*
X71314Y-52008D01*
X71252Y-52008D01*
X71211Y-52028D01*
X71190Y-52049D01*
X71169Y-52090D01*
X71169Y-52193D01*
X71190Y-52235D01*
X71211Y-52255D01*
X71252Y-52276D01*
X71376Y-52276D01*
X71417Y-52255D01*
X71438Y-52235D01*
X70654Y-52276D02*
X70654Y-51843D01*
X70510Y-52152D01*
X70365Y-51843D01*
X70365Y-52276D01*
X69973Y-52255D02*
X70015Y-52276D01*
X70097Y-52276D01*
X70138Y-52255D01*
X70159Y-52235D01*
X70180Y-52193D01*
X70180Y-52070D01*
X70159Y-52028D01*
X70138Y-52008D01*
X70097Y-51987D01*
X70015Y-51987D01*
X69973Y-52008D01*
X69561Y-51863D02*
X69602Y-51843D01*
X69664Y-51843D01*
X69726Y-51863D01*
X69767Y-51905D01*
X69788Y-51946D01*
X69808Y-52028D01*
X69808Y-52090D01*
X69788Y-52173D01*
X69767Y-52214D01*
X69726Y-52255D01*
X69664Y-52276D01*
X69623Y-52276D01*
X69561Y-52255D01*
X69540Y-52235D01*
X69540Y-52090D01*
X69623Y-52090D01*
X69355Y-52276D02*
X69355Y-51987D01*
X69355Y-51843D02*
X69375Y-51863D01*
X69355Y-51884D01*
X69334Y-51863D01*
X69355Y-51843D01*
X69355Y-51884D01*
X69087Y-52276D02*
X69128Y-52255D01*
X69148Y-52214D01*
X69148Y-51843D01*
X68860Y-52276D02*
X68901Y-52255D01*
X68922Y-52214D01*
X68922Y-51843D01*
X68365Y-52276D02*
X68365Y-51843D01*
X68159Y-52276D02*
X68159Y-51843D01*
X68014Y-52152D01*
X67870Y-51843D01*
X67870Y-52276D01*
X67457Y-52276D02*
X67664Y-52276D01*
X67664Y-51843D01*
G54D11*
X77234Y-62507D02*
X76785Y-62507D01*
X75155Y-62507D02*
X74706Y-62507D01*
X74931Y-62732D02*
X74931Y-62282D01*
G54D10*
X77611Y-59035D02*
X77611Y-58444D01*
X78024Y-59035D02*
X78024Y-58444D01*
X72506Y-56754D02*
X72506Y-57345D01*
X72093Y-56754D02*
X72093Y-57345D01*
X74702Y-54559D02*
X75293Y-54559D01*
X74702Y-54972D02*
X75293Y-54972D01*
X73010Y-55056D02*
X72419Y-55056D01*
X73010Y-54643D02*
X72419Y-54643D01*
X74587Y-57685D02*
X74587Y-57094D01*
X75000Y-57685D02*
X75000Y-57094D01*
X73070Y-56598D02*
X73070Y-57188D01*
X72657Y-56598D02*
X72657Y-57188D01*
X75356Y-55450D02*
X75356Y-56041D01*
X74943Y-55450D02*
X74943Y-56041D01*
X75073Y-57325D02*
X75073Y-56734D01*
X75486Y-57325D02*
X75486Y-56734D01*
X69880Y-44364D02*
X69880Y-44955D01*
X69467Y-44364D02*
X69467Y-44955D01*
X71681Y-43702D02*
X71288Y-43702D01*
X71681Y-43407D02*
X71288Y-43407D01*
X72982Y-59495D02*
X73375Y-59495D01*
X72982Y-59790D02*
X73375Y-59790D01*
X70687Y-56795D02*
X70687Y-57188D01*
X70392Y-56795D02*
X70392Y-57188D01*
X68899Y-53592D02*
X69292Y-53592D01*
X68899Y-53887D02*
X69292Y-53887D01*
X76183Y-53297D02*
X76183Y-53690D01*
X75888Y-53297D02*
X75888Y-53690D01*
X68237Y-62368D02*
X68630Y-62368D01*
X68237Y-62663D02*
X68630Y-62663D01*
X69571Y-62347D02*
X69571Y-62740D01*
X69276Y-62347D02*
X69276Y-62740D01*
X68938Y-62305D02*
X68545Y-62305D01*
X68938Y-62010D02*
X68545Y-62010D01*
X72233Y-56118D02*
X72626Y-56118D01*
X72233Y-56413D02*
X72626Y-56413D01*
X72709Y-57536D02*
X73102Y-57536D01*
X72709Y-57831D02*
X73102Y-57831D01*
X73983Y-57864D02*
X73589Y-57864D01*
X73983Y-57569D02*
X73589Y-57569D01*
X73877Y-55076D02*
X74270Y-55076D01*
X73877Y-55371D02*
X74270Y-55371D01*
X74075Y-54240D02*
X74468Y-54240D01*
X74075Y-54535D02*
X74468Y-54535D01*
X71240Y-46897D02*
X70847Y-46897D01*
X71240Y-46602D02*
X70847Y-46602D01*
X75483Y-61400D02*
X75876Y-61400D01*
X75483Y-61695D02*
X75876Y-61695D01*
X75619Y-61792D02*
X76012Y-61792D01*
X75619Y-62087D02*
X76012Y-62087D01*
X67950Y-53907D02*
X68305Y-53907D01*
X68305Y-54320D02*
X67950Y-54320D01*
X68246Y-54232D02*
X68246Y-53995D01*
X68246Y-53995D02*
X68009Y-53995D01*
X68009Y-53995D02*
X68009Y-54232D01*
X68009Y-54232D02*
X68246Y-54232D01*
X68423Y-54743D02*
X68423Y-53484D01*
X68423Y-53484D02*
X67832Y-53484D01*
X67832Y-53484D02*
X67832Y-54743D01*
X67832Y-54743D02*
X68423Y-54743D01*
X78455Y-62309D02*
X78455Y-61561D01*
X77884Y-62309D02*
X77884Y-61561D01*
X77388Y-44240D02*
X77388Y-44831D01*
X76975Y-44240D02*
X76975Y-44831D01*
X74983Y-61721D02*
X74392Y-61721D01*
X74983Y-61308D02*
X74392Y-61308D01*
X67570Y-56035D02*
X68161Y-56035D01*
X67570Y-56448D02*
X68161Y-56448D01*
X68320Y-55217D02*
X67927Y-55217D01*
X68320Y-54922D02*
X67927Y-54922D01*
X68693Y-53154D02*
X69086Y-53154D01*
X68693Y-53449D02*
X69086Y-53449D01*
X74270Y-47497D02*
X73877Y-47497D01*
X74270Y-47202D02*
X73877Y-47202D01*
X68265Y-43925D02*
X68265Y-44318D01*
X67970Y-43925D02*
X67970Y-44318D01*
X70178Y-46828D02*
X70178Y-46435D01*
X70473Y-46828D02*
X70473Y-46435D01*
X68275Y-57533D02*
X68275Y-57926D01*
X67980Y-57533D02*
X67980Y-57926D01*
X67653Y-49885D02*
X67653Y-50278D01*
X67358Y-49885D02*
X67358Y-50278D01*
X68219Y-46059D02*
X68219Y-46452D01*
X67924Y-46059D02*
X67924Y-46452D01*
X67988Y-58726D02*
X67988Y-58333D01*
X68283Y-58726D02*
X68283Y-58333D01*
X68067Y-49957D02*
X68067Y-50350D01*
X67772Y-49957D02*
X67772Y-50350D01*
X67930Y-47660D02*
X67930Y-47267D01*
X68225Y-47660D02*
X68225Y-47267D01*
X67597Y-44886D02*
X67990Y-44886D01*
X67597Y-45181D02*
X67990Y-45181D01*
X74693Y-50046D02*
X75086Y-50046D01*
X74693Y-50341D02*
X75086Y-50341D01*
X74689Y-49562D02*
X75082Y-49562D01*
X74689Y-49857D02*
X75082Y-49857D01*
X73502Y-56403D02*
X73109Y-56403D01*
X73502Y-56108D02*
X73109Y-56108D01*
X74488Y-49028D02*
X74488Y-48635D01*
X74783Y-49028D02*
X74783Y-48635D01*
X73958Y-49026D02*
X73958Y-48633D01*
X74253Y-49026D02*
X74253Y-48633D01*
X74227Y-56556D02*
X74620Y-56556D01*
X74227Y-56851D02*
X74620Y-56851D01*
X73975Y-57558D02*
X73582Y-57558D01*
X73975Y-57263D02*
X73582Y-57263D01*
X74029Y-56108D02*
X74422Y-56108D01*
X74029Y-56403D02*
X74422Y-56403D01*
X74248Y-44281D02*
X73855Y-44281D01*
X74248Y-43986D02*
X73855Y-43986D01*
X73214Y-44173D02*
X72821Y-44173D01*
X73214Y-43878D02*
X72821Y-43878D01*
X69804Y-47518D02*
X69804Y-47125D01*
X70099Y-47518D02*
X70099Y-47125D01*
X69847Y-49299D02*
X69847Y-49692D01*
X69552Y-49299D02*
X69552Y-49692D01*
X77821Y-44331D02*
X77821Y-44724D01*
X77526Y-44331D02*
X77526Y-44724D01*
X77753Y-43610D02*
X78146Y-43610D01*
X77753Y-43905D02*
X78146Y-43905D01*
X69282Y-47368D02*
X69282Y-46975D01*
X69577Y-47368D02*
X69577Y-46975D01*
X71032Y-53991D02*
X71032Y-53598D01*
X71327Y-53991D02*
X71327Y-53598D01*
G54D13*
X70154Y-51453D02*
X73698Y-51453D01*
X73698Y-51453D02*
X73698Y-47123D01*
X73698Y-47123D02*
X70154Y-47123D01*
X70154Y-47123D02*
X70154Y-51453D01*
G54D10*
X76598Y-48326D02*
X76598Y-47933D01*
X76893Y-48326D02*
X76893Y-47933D01*
X77354Y-46775D02*
X77748Y-46775D01*
X77354Y-47070D02*
X77748Y-47070D01*
X77347Y-46388D02*
X77740Y-46388D01*
X77347Y-46683D02*
X77740Y-46683D01*
X78147Y-47279D02*
G75*
G03X78147Y-47279I-59J0D01*
G74*
G01*
X77025Y-47161D02*
X77025Y-48736D01*
X77025Y-48736D02*
X78206Y-48736D01*
X78206Y-48736D02*
X78206Y-47161D01*
X78206Y-47161D02*
X77025Y-47161D01*
G54D14*
G36*
X74866Y-48803D02*
X74867Y-48804D01*
X74880Y-48800D01*
X74908Y-48791D01*
X74947Y-48776D01*
X74994Y-48758D01*
X75020Y-48747D01*
X75075Y-48726D01*
X75117Y-48710D01*
X75150Y-48700D01*
X75180Y-48693D01*
X75213Y-48690D01*
X75252Y-48687D01*
X75281Y-48686D01*
X75341Y-48685D01*
X75397Y-48688D01*
X75444Y-48692D01*
X75481Y-48699D01*
X75502Y-48708D01*
X75507Y-48715D01*
X75499Y-48729D01*
X75476Y-48751D01*
X75447Y-48774D01*
X75430Y-48787D01*
X75429Y-48798D01*
X75441Y-48813D01*
X75441Y-48813D01*
X75474Y-48835D01*
X75517Y-48840D01*
X75569Y-48828D01*
X75575Y-48826D01*
X75607Y-48814D01*
X75629Y-48811D01*
X75647Y-48816D01*
X75655Y-48819D01*
X75694Y-48832D01*
X75739Y-48838D01*
X75775Y-48837D01*
X75793Y-48828D01*
X75794Y-48812D01*
X75780Y-48791D01*
X75771Y-48782D01*
X75768Y-48774D01*
X75772Y-48766D01*
X75787Y-48753D01*
X75815Y-48733D01*
X75829Y-48722D01*
X75852Y-48705D01*
X75819Y-48694D01*
X75795Y-48680D01*
X75789Y-48666D01*
X75798Y-48654D01*
X75819Y-48633D01*
X75850Y-48606D01*
X75859Y-48598D01*
X75859Y-48056D01*
X75864Y-48046D01*
X75871Y-48044D01*
X75885Y-48052D01*
X75887Y-48060D01*
X75881Y-48071D01*
X75869Y-48069D01*
X75859Y-48056D01*
X75859Y-48598D01*
X75877Y-48584D01*
X75938Y-48532D01*
X75980Y-48482D01*
X76006Y-48433D01*
X76015Y-48381D01*
X76009Y-48324D01*
X75997Y-48282D01*
X75985Y-48246D01*
X75980Y-48224D01*
X75981Y-48211D01*
X75987Y-48200D01*
X75992Y-48193D01*
X76005Y-48175D01*
X76002Y-48159D01*
X75999Y-48154D01*
X75988Y-48130D01*
X75994Y-48113D01*
X76012Y-48102D01*
X76032Y-48090D01*
X76034Y-48078D01*
X76017Y-48065D01*
X76004Y-48058D01*
X75980Y-48043D01*
X75964Y-48028D01*
X75964Y-48027D01*
X75941Y-48006D01*
X75905Y-47992D01*
X75861Y-47986D01*
X75814Y-47987D01*
X75772Y-47998D01*
X75753Y-48007D01*
X75714Y-48034D01*
X75688Y-48066D01*
X75674Y-48107D01*
X75669Y-48154D01*
X75662Y-48204D01*
X75649Y-48236D01*
X75625Y-48255D01*
X75587Y-48263D01*
X75563Y-48264D01*
X75531Y-48263D01*
X75499Y-48259D01*
X75465Y-48250D01*
X75423Y-48236D01*
X75371Y-48216D01*
X75314Y-48193D01*
X75269Y-48174D01*
X75231Y-48160D01*
X75202Y-48151D01*
X75188Y-48149D01*
X75187Y-48149D01*
X75186Y-48160D01*
X75195Y-48184D01*
X75207Y-48209D01*
X75225Y-48242D01*
X75228Y-48262D01*
X75218Y-48271D01*
X75193Y-48270D01*
X75182Y-48268D01*
X75158Y-48266D01*
X75148Y-48271D01*
X75147Y-48276D01*
X75153Y-48296D01*
X75169Y-48324D01*
X75192Y-48355D01*
X75216Y-48384D01*
X75237Y-48404D01*
X75238Y-48405D01*
X75261Y-48429D01*
X75265Y-48456D01*
X75249Y-48485D01*
X75232Y-48502D01*
X75202Y-48523D01*
X75166Y-48536D01*
X75120Y-48541D01*
X75063Y-48539D01*
X75000Y-48532D01*
X74957Y-48527D01*
X74921Y-48524D01*
X74898Y-48524D01*
X74891Y-48526D01*
X74896Y-48535D01*
X74914Y-48550D01*
X74941Y-48569D01*
X74970Y-48588D01*
X74990Y-48603D01*
X74997Y-48610D01*
X74991Y-48620D01*
X74975Y-48641D01*
X74953Y-48667D01*
X74923Y-48704D01*
X74898Y-48740D01*
X74878Y-48770D01*
X74867Y-48793D01*
X74866Y-48803D01*
X74866Y-48803D01*
X74866Y-48803D01*
G37*
G36*
X74190Y-47830D02*
X74190Y-47831D01*
X74200Y-47828D01*
X74224Y-47819D01*
X74259Y-47805D01*
X74292Y-47790D01*
X74362Y-47760D01*
X74417Y-47738D01*
X74462Y-47722D01*
X74502Y-47711D01*
X74541Y-47705D01*
X74583Y-47702D01*
X74631Y-47700D01*
X74647Y-47700D01*
X74715Y-47702D01*
X74771Y-47706D01*
X74813Y-47713D01*
X74839Y-47723D01*
X74847Y-47734D01*
X74839Y-47744D01*
X74820Y-47761D01*
X74807Y-47771D01*
X74779Y-47793D01*
X74769Y-47811D01*
X74775Y-47826D01*
X74789Y-47838D01*
X74823Y-47851D01*
X74866Y-47853D01*
X74915Y-47843D01*
X74923Y-47841D01*
X74953Y-47832D01*
X74976Y-47834D01*
X74992Y-47840D01*
X75020Y-47848D01*
X75057Y-47853D01*
X75074Y-47853D01*
X75106Y-47853D01*
X75122Y-47848D01*
X75127Y-47839D01*
X75127Y-47837D01*
X75120Y-47817D01*
X75111Y-47803D01*
X75103Y-47792D01*
X75105Y-47782D01*
X75121Y-47769D01*
X75137Y-47759D01*
X75164Y-47738D01*
X75173Y-47721D01*
X75164Y-47710D01*
X75149Y-47706D01*
X75133Y-47700D01*
X75129Y-47690D01*
X75137Y-47673D01*
X75159Y-47649D01*
X75195Y-47616D01*
X75197Y-47613D01*
X75197Y-47079D01*
X75203Y-47063D01*
X75206Y-47059D01*
X75218Y-47060D01*
X75225Y-47072D01*
X75222Y-47084D01*
X75209Y-47094D01*
X75199Y-47088D01*
X75197Y-47079D01*
X75197Y-47613D01*
X75246Y-47573D01*
X75259Y-47562D01*
X75306Y-47512D01*
X75335Y-47454D01*
X75346Y-47389D01*
X75339Y-47320D01*
X75327Y-47283D01*
X75317Y-47254D01*
X75313Y-47236D01*
X75317Y-47225D01*
X75327Y-47213D01*
X75343Y-47195D01*
X75345Y-47183D01*
X75332Y-47168D01*
X75332Y-47167D01*
X75318Y-47148D01*
X75324Y-47133D01*
X75342Y-47122D01*
X75363Y-47107D01*
X75364Y-47091D01*
X75345Y-47075D01*
X75332Y-47068D01*
X75306Y-47054D01*
X75289Y-47037D01*
X75287Y-47035D01*
X75267Y-47017D01*
X75234Y-47006D01*
X75192Y-47002D01*
X75148Y-47005D01*
X75106Y-47015D01*
X75090Y-47022D01*
X75045Y-47053D01*
X75016Y-47092D01*
X75003Y-47142D01*
X75001Y-47170D01*
X74999Y-47210D01*
X74994Y-47235D01*
X74984Y-47251D01*
X74965Y-47265D01*
X74955Y-47270D01*
X74919Y-47281D01*
X74873Y-47280D01*
X74816Y-47269D01*
X74746Y-47245D01*
X74716Y-47234D01*
X74649Y-47207D01*
X74598Y-47187D01*
X74562Y-47175D01*
X74538Y-47167D01*
X74525Y-47166D01*
X74520Y-47167D01*
X74522Y-47178D01*
X74531Y-47201D01*
X74541Y-47218D01*
X74556Y-47245D01*
X74565Y-47266D01*
X74567Y-47273D01*
X74558Y-47280D01*
X74536Y-47284D01*
X74527Y-47284D01*
X74499Y-47286D01*
X74488Y-47294D01*
X74487Y-47300D01*
X74493Y-47320D01*
X74510Y-47349D01*
X74533Y-47380D01*
X74558Y-47408D01*
X74577Y-47424D01*
X74597Y-47443D01*
X74607Y-47461D01*
X74607Y-47464D01*
X74601Y-47480D01*
X74585Y-47502D01*
X74565Y-47525D01*
X74547Y-47541D01*
X74539Y-47544D01*
X74526Y-47546D01*
X74500Y-47551D01*
X74490Y-47553D01*
X74455Y-47556D01*
X74406Y-47554D01*
X74350Y-47548D01*
X74307Y-47542D01*
X74271Y-47538D01*
X74247Y-47535D01*
X74240Y-47534D01*
X74230Y-47539D01*
X74235Y-47551D01*
X74250Y-47566D01*
X74273Y-47582D01*
X74276Y-47583D01*
X74311Y-47603D01*
X74327Y-47620D01*
X74327Y-47638D01*
X74311Y-47662D01*
X74299Y-47676D01*
X74278Y-47701D01*
X74254Y-47732D01*
X74230Y-47764D01*
X74210Y-47794D01*
X74196Y-47817D01*
X74190Y-47830D01*
X74190Y-47830D01*
X74190Y-47830D01*
G37*
G36*
X75591Y-47790D02*
X75598Y-47792D01*
X75620Y-47786D01*
X75652Y-47773D01*
X75666Y-47767D01*
X75713Y-47747D01*
X75768Y-47725D01*
X75822Y-47705D01*
X75832Y-47702D01*
X75877Y-47688D01*
X75916Y-47679D01*
X75955Y-47673D01*
X76002Y-47671D01*
X76032Y-47671D01*
X76091Y-47672D01*
X76144Y-47677D01*
X76186Y-47683D01*
X76214Y-47692D01*
X76227Y-47702D01*
X76227Y-47703D01*
X76220Y-47715D01*
X76202Y-47733D01*
X76189Y-47746D01*
X76163Y-47771D01*
X76156Y-47790D01*
X76166Y-47806D01*
X76187Y-47819D01*
X76207Y-47828D01*
X76223Y-47832D01*
X76244Y-47830D01*
X76274Y-47823D01*
X76296Y-47817D01*
X76336Y-47809D01*
X76365Y-47810D01*
X76380Y-47813D01*
X76408Y-47820D01*
X76441Y-47823D01*
X76474Y-47823D01*
X76501Y-47821D01*
X76516Y-47815D01*
X76517Y-47812D01*
X76511Y-47796D01*
X76500Y-47781D01*
X76488Y-47766D01*
X76490Y-47757D01*
X76501Y-47750D01*
X76537Y-47726D01*
X76559Y-47706D01*
X76565Y-47691D01*
X76555Y-47684D01*
X76548Y-47684D01*
X76527Y-47678D01*
X76519Y-47671D01*
X76514Y-47660D01*
X76520Y-47645D01*
X76537Y-47625D01*
X76568Y-47598D01*
X76585Y-47584D01*
X76585Y-47049D01*
X76593Y-47037D01*
X76596Y-47036D01*
X76605Y-47041D01*
X76607Y-47049D01*
X76602Y-47061D01*
X76596Y-47062D01*
X76586Y-47052D01*
X76585Y-47049D01*
X76585Y-47584D01*
X76603Y-47570D01*
X76665Y-47515D01*
X76706Y-47459D01*
X76729Y-47400D01*
X76732Y-47337D01*
X76717Y-47270D01*
X76706Y-47236D01*
X76702Y-47215D01*
X76705Y-47201D01*
X76713Y-47186D01*
X76723Y-47165D01*
X76720Y-47146D01*
X76716Y-47137D01*
X76708Y-47117D01*
X76713Y-47105D01*
X76721Y-47098D01*
X76741Y-47086D01*
X76751Y-47081D01*
X76755Y-47073D01*
X76747Y-47059D01*
X76734Y-47048D01*
X76722Y-47044D01*
X76707Y-47037D01*
X76691Y-47022D01*
X76652Y-46993D01*
X76603Y-46977D01*
X76549Y-46976D01*
X76495Y-46988D01*
X76477Y-46996D01*
X76431Y-47028D01*
X76402Y-47067D01*
X76388Y-47119D01*
X76387Y-47146D01*
X76386Y-47182D01*
X76380Y-47205D01*
X76369Y-47222D01*
X76362Y-47228D01*
X76335Y-47246D01*
X76308Y-47256D01*
X76264Y-47256D01*
X76207Y-47244D01*
X76139Y-47223D01*
X76062Y-47191D01*
X76058Y-47190D01*
X76014Y-47170D01*
X75972Y-47153D01*
X75940Y-47142D01*
X75924Y-47137D01*
X75893Y-47131D01*
X75925Y-47187D01*
X75941Y-47217D01*
X75953Y-47239D01*
X75957Y-47249D01*
X75948Y-47252D01*
X75925Y-47254D01*
X75911Y-47254D01*
X75884Y-47255D01*
X75871Y-47259D01*
X75871Y-47269D01*
X75873Y-47277D01*
X75880Y-47294D01*
X75891Y-47313D01*
X75911Y-47337D01*
X75941Y-47370D01*
X75955Y-47385D01*
X75999Y-47431D01*
X75983Y-47463D01*
X75958Y-47495D01*
X75922Y-47516D01*
X75872Y-47528D01*
X75808Y-47529D01*
X75728Y-47521D01*
X75718Y-47520D01*
X75675Y-47514D01*
X75639Y-47509D01*
X75616Y-47508D01*
X75610Y-47508D01*
X75610Y-47511D01*
X75616Y-47518D01*
X75631Y-47531D01*
X75657Y-47552D01*
X75696Y-47582D01*
X75700Y-47586D01*
X75722Y-47602D01*
X75680Y-47652D01*
X75649Y-47690D01*
X75623Y-47728D01*
X75602Y-47762D01*
X75592Y-47786D01*
X75591Y-47790D01*
X75591Y-47790D01*
X75591Y-47790D01*
G37*
G36*
X72018Y-45062D02*
X72020Y-45074D01*
X72022Y-45083D01*
X72034Y-45106D01*
X72054Y-45125D01*
X72074Y-45134D01*
X72086Y-45141D01*
X72091Y-45149D01*
X72088Y-45159D01*
X72075Y-45171D01*
X72057Y-45185D01*
X72046Y-45192D01*
X72056Y-45222D01*
X72063Y-45242D01*
X72068Y-45263D01*
X72070Y-45273D01*
X72073Y-45286D01*
X72081Y-45305D01*
X72091Y-45329D01*
X72103Y-45354D01*
X72108Y-45364D01*
X72126Y-45399D01*
X72142Y-45426D01*
X72158Y-45448D01*
X72175Y-45467D01*
X72195Y-45485D01*
X72196Y-45486D01*
X72209Y-45500D01*
X72212Y-45515D01*
X72204Y-45529D01*
X72196Y-45537D01*
X72186Y-45546D01*
X72181Y-45556D01*
X72180Y-45570D01*
X72180Y-45573D01*
X72183Y-45596D01*
X72192Y-45625D01*
X72199Y-45643D01*
X72209Y-45668D01*
X72221Y-45698D01*
X72231Y-45727D01*
X72236Y-45740D01*
X72246Y-45768D01*
X72256Y-45790D01*
X72267Y-45806D01*
X72274Y-45815D01*
X72308Y-45852D01*
X72337Y-45881D01*
X72361Y-45903D01*
X72380Y-45916D01*
X72383Y-45918D01*
X72406Y-45935D01*
X72422Y-45954D01*
X72434Y-45971D01*
X72449Y-45987D01*
X72456Y-45993D01*
X72464Y-45999D01*
X72472Y-46003D01*
X72482Y-46006D01*
X72495Y-46008D01*
X72515Y-46009D01*
X72542Y-46010D01*
X72573Y-46012D01*
X72596Y-46014D01*
X72614Y-46017D01*
X72627Y-46022D01*
X72633Y-46024D01*
X72650Y-46034D01*
X72665Y-46047D01*
X72675Y-46059D01*
X72677Y-46068D01*
X72681Y-46077D01*
X72693Y-46084D01*
X72708Y-46089D01*
X72717Y-46090D01*
X72735Y-46093D01*
X72744Y-46099D01*
X72756Y-46110D01*
X72773Y-46121D01*
X72792Y-46132D01*
X72809Y-46140D01*
X72823Y-46145D01*
X72825Y-46145D01*
X72839Y-46143D01*
X72856Y-46138D01*
X72860Y-46137D01*
X72877Y-46132D01*
X72889Y-46131D01*
X72897Y-46138D01*
X72904Y-46152D01*
X72906Y-46157D01*
X72914Y-46173D01*
X72923Y-46184D01*
X72927Y-46187D01*
X72942Y-46187D01*
X72960Y-46177D01*
X72982Y-46159D01*
X73001Y-46141D01*
X73015Y-46125D01*
X73025Y-46116D01*
X73032Y-46112D01*
X73036Y-46113D01*
X73039Y-46115D01*
X73046Y-46127D01*
X73054Y-46147D01*
X73061Y-46173D01*
X73067Y-46203D01*
X73068Y-46205D01*
X73071Y-46223D01*
X73071Y-46236D01*
X73069Y-46245D01*
X73064Y-46254D01*
X73060Y-46260D01*
X73041Y-46283D01*
X73013Y-46306D01*
X72978Y-46328D01*
X72955Y-46341D01*
X72933Y-46352D01*
X72912Y-46365D01*
X72896Y-46376D01*
X72893Y-46379D01*
X72882Y-46386D01*
X72864Y-46397D01*
X72841Y-46410D01*
X72813Y-46425D01*
X72782Y-46441D01*
X72768Y-46448D01*
X72720Y-46473D01*
X72680Y-46494D01*
X72647Y-46512D01*
X72620Y-46527D01*
X72599Y-46540D01*
X72583Y-46552D01*
X72570Y-46563D01*
X72560Y-46573D01*
X72551Y-46585D01*
X72544Y-46597D01*
X72543Y-46598D01*
X72531Y-46619D01*
X72518Y-46640D01*
X72509Y-46652D01*
X72498Y-46669D01*
X72493Y-46682D01*
X72494Y-46693D01*
X72501Y-46706D01*
X72502Y-46708D01*
X72514Y-46722D01*
X72529Y-46728D01*
X72540Y-46730D01*
X72546Y-46735D01*
X72547Y-46746D01*
X72547Y-46752D01*
X72549Y-46774D01*
X72556Y-46799D01*
X72565Y-46822D01*
X72576Y-46841D01*
X72580Y-46846D01*
X72595Y-46856D01*
X72617Y-46865D01*
X72643Y-46873D01*
X72671Y-46878D01*
X72698Y-46879D01*
X72705Y-46879D01*
X72723Y-46879D01*
X72735Y-46880D01*
X72744Y-46885D01*
X72748Y-46889D01*
X72759Y-46897D01*
X72770Y-46899D01*
X72782Y-46894D01*
X72796Y-46885D01*
X72812Y-46874D01*
X72822Y-46870D01*
X72827Y-46873D01*
X72828Y-46876D01*
X72829Y-46886D01*
X72829Y-46888D01*
X72831Y-46897D01*
X72831Y-46898D01*
X72837Y-46904D01*
X72849Y-46909D01*
X72864Y-46913D01*
X72879Y-46913D01*
X72885Y-46913D01*
X72902Y-46909D01*
X72902Y-46930D01*
X72904Y-46945D01*
X72909Y-46953D01*
X72909Y-46953D01*
X72920Y-46952D01*
X72934Y-46946D01*
X72950Y-46936D01*
X72964Y-46923D01*
X72971Y-46915D01*
X72980Y-46903D01*
X72989Y-46897D01*
X72992Y-46896D01*
X72999Y-46901D01*
X73008Y-46912D01*
X73016Y-46922D01*
X73026Y-46937D01*
X73034Y-46949D01*
X73038Y-46954D01*
X73047Y-46959D01*
X73061Y-46957D01*
X73081Y-46949D01*
X73109Y-46934D01*
X73112Y-46932D01*
X73131Y-46921D01*
X73144Y-46915D01*
X73155Y-46912D01*
X73167Y-46912D01*
X73182Y-46913D01*
X73183Y-46913D01*
X73201Y-46914D01*
X73213Y-46914D01*
X73221Y-46910D01*
X73229Y-46904D01*
X73239Y-46892D01*
X73248Y-46875D01*
X73249Y-46873D01*
X73256Y-46852D01*
X73291Y-46851D01*
X73320Y-46852D01*
X73342Y-46856D01*
X73344Y-46857D01*
X73355Y-46861D01*
X73363Y-46861D01*
X73370Y-46855D01*
X73377Y-46847D01*
X73386Y-46835D01*
X73398Y-46818D01*
X73411Y-46798D01*
X73418Y-46787D01*
X73429Y-46769D01*
X73439Y-46754D01*
X73446Y-46744D01*
X73448Y-46742D01*
X73453Y-46744D01*
X73458Y-46754D01*
X73464Y-46772D01*
X73469Y-46795D01*
X73472Y-46813D01*
X73475Y-46833D01*
X73479Y-46851D01*
X73482Y-46863D01*
X73483Y-46864D01*
X73488Y-46873D01*
X73498Y-46880D01*
X73514Y-46886D01*
X73535Y-46889D01*
X73565Y-46892D01*
X73603Y-46894D01*
X73605Y-46894D01*
X73685Y-46896D01*
X73691Y-46937D01*
X73695Y-46961D01*
X73701Y-46977D01*
X73708Y-46986D01*
X73720Y-46991D01*
X73737Y-46991D01*
X73741Y-46991D01*
X73766Y-46992D01*
X73784Y-47001D01*
X73797Y-47016D01*
X73803Y-47032D01*
X73814Y-47057D01*
X73833Y-47076D01*
X73860Y-47089D01*
X73894Y-47097D01*
X73897Y-47098D01*
X73925Y-47101D01*
X73909Y-47088D01*
X73885Y-47062D01*
X73866Y-47029D01*
X73857Y-47005D01*
X73852Y-46988D01*
X73849Y-46976D01*
X73849Y-46972D01*
X73854Y-46972D01*
X73866Y-46975D01*
X73883Y-46979D01*
X73887Y-46981D01*
X73919Y-46988D01*
X73946Y-46989D01*
X73948Y-46989D01*
X73960Y-46988D01*
X73967Y-46989D01*
X73971Y-46994D01*
X73972Y-47004D01*
X73970Y-47022D01*
X73968Y-47039D01*
X73966Y-47054D01*
X73966Y-47062D01*
X73970Y-47065D01*
X73977Y-47065D01*
X73997Y-47063D01*
X74016Y-47056D01*
X74031Y-47048D01*
X74035Y-47043D01*
X74038Y-47036D01*
X74039Y-47027D01*
X74038Y-47014D01*
X74035Y-47000D01*
X74026Y-46965D01*
X74016Y-46939D01*
X74005Y-46922D01*
X73991Y-46911D01*
X73979Y-46907D01*
X73967Y-46903D01*
X73962Y-46896D01*
X73962Y-46893D01*
X73960Y-46880D01*
X73954Y-46871D01*
X73942Y-46865D01*
X73922Y-46863D01*
X73906Y-46862D01*
X73877Y-46860D01*
X73846Y-46855D01*
X73808Y-46846D01*
X73803Y-46845D01*
X73742Y-46829D01*
X73742Y-46798D01*
X73740Y-46759D01*
X73734Y-46722D01*
X73722Y-46685D01*
X73706Y-46648D01*
X73695Y-46622D01*
X73686Y-46598D01*
X73680Y-46578D01*
X73678Y-46569D01*
X73677Y-46554D01*
X73679Y-46546D01*
X73685Y-46542D01*
X73690Y-46540D01*
X73704Y-46537D01*
X73720Y-46541D01*
X73737Y-46551D01*
X73757Y-46568D01*
X73770Y-46581D01*
X73790Y-46601D01*
X73810Y-46616D01*
X73830Y-46627D01*
X73854Y-46636D01*
X73883Y-46644D01*
X73919Y-46651D01*
X73948Y-46657D01*
X73969Y-46662D01*
X73982Y-46667D01*
X73990Y-46675D01*
X73992Y-46686D01*
X73991Y-46701D01*
X73989Y-46714D01*
X73986Y-46736D01*
X73988Y-46754D01*
X73995Y-46771D01*
X74009Y-46789D01*
X74025Y-46804D01*
X74048Y-46824D01*
X74069Y-46836D01*
X74088Y-46840D01*
X74108Y-46835D01*
X74129Y-46823D01*
X74131Y-46822D01*
X74144Y-46812D01*
X74154Y-46802D01*
X74160Y-46793D01*
X74160Y-46787D01*
X74155Y-46787D01*
X74147Y-46790D01*
X74134Y-46794D01*
X74115Y-46796D01*
X74096Y-46796D01*
X74080Y-46793D01*
X74078Y-46793D01*
X74067Y-46784D01*
X74060Y-46767D01*
X74058Y-46741D01*
X74058Y-46722D01*
X74059Y-46702D01*
X74062Y-46689D01*
X74066Y-46680D01*
X74072Y-46674D01*
X74087Y-46666D01*
X74102Y-46667D01*
X74117Y-46678D01*
X74122Y-46683D01*
X74138Y-46706D01*
X74146Y-46726D01*
X74145Y-46738D01*
X74144Y-46749D01*
X74148Y-46751D01*
X74156Y-46746D01*
X74169Y-46733D01*
X74175Y-46726D01*
X74188Y-46708D01*
X74195Y-46692D01*
X74195Y-46678D01*
X74190Y-46661D01*
X74190Y-46659D01*
X74189Y-46655D01*
X74192Y-46652D01*
X74200Y-46649D01*
X74214Y-46647D01*
X74235Y-46645D01*
X74260Y-46642D01*
X74295Y-46639D01*
X74293Y-46674D01*
X74293Y-46693D01*
X74294Y-46708D01*
X74296Y-46718D01*
X74300Y-46723D01*
X74305Y-46721D01*
X74310Y-46716D01*
X74320Y-46703D01*
X74330Y-46685D01*
X74340Y-46664D01*
X74348Y-46645D01*
X74352Y-46630D01*
X74352Y-46625D01*
X74347Y-46610D01*
X74335Y-46593D01*
X74315Y-46577D01*
X74294Y-46564D01*
X74284Y-46560D01*
X74274Y-46557D01*
X74263Y-46555D01*
X74249Y-46554D01*
X74229Y-46554D01*
X74202Y-46555D01*
X74197Y-46555D01*
X74141Y-46556D01*
X74095Y-46556D01*
X74059Y-46554D01*
X74032Y-46551D01*
X74014Y-46547D01*
X74005Y-46542D01*
X74001Y-46534D01*
X73996Y-46519D01*
X73992Y-46500D01*
X73990Y-46490D01*
X73983Y-46455D01*
X73976Y-46427D01*
X73968Y-46405D01*
X73957Y-46386D01*
X73942Y-46368D01*
X73923Y-46350D01*
X73897Y-46328D01*
X73896Y-46328D01*
X73874Y-46310D01*
X73859Y-46295D01*
X73849Y-46283D01*
X73842Y-46270D01*
X73837Y-46255D01*
X73836Y-46248D01*
X73833Y-46233D01*
X73833Y-46222D01*
X73836Y-46211D01*
X73842Y-46196D01*
X73847Y-46188D01*
X73861Y-46164D01*
X73879Y-46144D01*
X73902Y-46126D01*
X73932Y-46109D01*
X73965Y-46094D01*
X74014Y-46074D01*
X74058Y-46119D01*
X74076Y-46138D01*
X74088Y-46152D01*
X74096Y-46163D01*
X74100Y-46172D01*
X74102Y-46182D01*
X74103Y-46191D01*
X74108Y-46212D01*
X74117Y-46226D01*
X74128Y-46232D01*
X74141Y-46230D01*
X74155Y-46222D01*
X74168Y-46207D01*
X74179Y-46187D01*
X74187Y-46162D01*
X74188Y-46156D01*
X74190Y-46139D01*
X74191Y-46123D01*
X74189Y-46103D01*
X74186Y-46076D01*
X74185Y-46072D01*
X74181Y-46040D01*
X74178Y-46016D01*
X74178Y-45997D01*
X74179Y-45979D01*
X74182Y-45960D01*
X74185Y-45947D01*
X74189Y-45927D01*
X74190Y-45909D01*
X74190Y-45897D01*
X74184Y-45882D01*
X74173Y-45862D01*
X74157Y-45839D01*
X74138Y-45815D01*
X74117Y-45791D01*
X74105Y-45778D01*
X74085Y-45760D01*
X74066Y-45746D01*
X74045Y-45735D01*
X74028Y-45728D01*
X74002Y-45716D01*
X73984Y-45708D01*
X73972Y-45701D01*
X73966Y-45694D01*
X73963Y-45686D01*
X73962Y-45677D01*
X73962Y-45677D01*
X73964Y-45665D01*
X73969Y-45646D01*
X73978Y-45621D01*
X73989Y-45592D01*
X73994Y-45577D01*
X74027Y-45496D01*
X74027Y-45442D01*
X74027Y-45420D01*
X74028Y-45401D01*
X74030Y-45385D01*
X74034Y-45369D01*
X74041Y-45350D01*
X74051Y-45327D01*
X74065Y-45299D01*
X74072Y-45284D01*
X74099Y-45233D01*
X74130Y-45191D01*
X74164Y-45158D01*
X74170Y-45154D01*
X74182Y-45145D01*
X74202Y-45132D01*
X74225Y-45117D01*
X74252Y-45101D01*
X74271Y-45089D01*
X74297Y-45073D01*
X74322Y-45057D01*
X74343Y-45043D01*
X74359Y-45031D01*
X74366Y-45025D01*
X74383Y-45005D01*
X74393Y-44983D01*
X74397Y-44963D01*
X74395Y-44944D01*
X74385Y-44931D01*
X74376Y-44922D01*
X74372Y-44915D01*
X74375Y-44908D01*
X74381Y-44895D01*
X74390Y-44878D01*
X74399Y-44863D01*
X74417Y-44831D01*
X74432Y-44805D01*
X74443Y-44782D01*
X74452Y-44760D01*
X74460Y-44735D01*
X74469Y-44706D01*
X74469Y-44706D01*
X74478Y-44674D01*
X74486Y-44640D01*
X74494Y-44608D01*
X74500Y-44578D01*
X74505Y-44553D01*
X74507Y-44535D01*
X74507Y-44530D01*
X74504Y-44517D01*
X74499Y-44510D01*
X74486Y-44504D01*
X74468Y-44505D01*
X74448Y-44510D01*
X74430Y-44520D01*
X74421Y-44528D01*
X74417Y-44536D01*
X74411Y-44552D01*
X74404Y-44573D01*
X74397Y-44598D01*
X74394Y-44610D01*
X74375Y-44682D01*
X74372Y-44632D01*
X74370Y-44606D01*
X74367Y-44587D01*
X74363Y-44571D01*
X74356Y-44555D01*
X74355Y-44552D01*
X74341Y-44528D01*
X74327Y-44510D01*
X74313Y-44502D01*
X74302Y-44501D01*
X74292Y-44510D01*
X74291Y-44511D01*
X74289Y-44521D01*
X74286Y-44540D01*
X74284Y-44568D01*
X74283Y-44605D01*
X74282Y-44614D01*
X74280Y-44706D01*
X74260Y-44660D01*
X74248Y-44634D01*
X74238Y-44617D01*
X74228Y-44608D01*
X74220Y-44608D01*
X74211Y-44615D01*
X74211Y-44615D01*
X74208Y-44620D01*
X74205Y-44628D01*
X74204Y-44639D01*
X74203Y-44655D01*
X74202Y-44679D01*
X74202Y-44704D01*
X74202Y-44782D01*
X74188Y-44766D01*
X74170Y-44751D01*
X74152Y-44741D01*
X74136Y-44736D01*
X74130Y-44737D01*
X74120Y-44744D01*
X74111Y-44756D01*
X74104Y-44771D01*
X74102Y-44782D01*
X74101Y-44787D01*
X74096Y-44785D01*
X74088Y-44780D01*
X74077Y-44773D01*
X74067Y-44772D01*
X74054Y-44774D01*
X74035Y-44782D01*
X74023Y-44793D01*
X74019Y-44805D01*
X74019Y-44809D01*
X74021Y-44814D01*
X74019Y-44818D01*
X74013Y-44822D01*
X74001Y-44825D01*
X73981Y-44829D01*
X73976Y-44830D01*
X73960Y-44834D01*
X73946Y-44840D01*
X73941Y-44843D01*
X73937Y-44854D01*
X73935Y-44873D01*
X73934Y-44892D01*
X73933Y-44921D01*
X73928Y-44941D01*
X73921Y-44952D01*
X73913Y-44955D01*
X73903Y-44957D01*
X73889Y-44963D01*
X73879Y-44968D01*
X73850Y-44979D01*
X73830Y-44982D01*
X73815Y-44983D01*
X73804Y-44988D01*
X73797Y-44996D01*
X73794Y-45009D01*
X73793Y-45029D01*
X73796Y-45057D01*
X73800Y-45089D01*
X73802Y-45103D01*
X73801Y-45109D01*
X73797Y-45109D01*
X73794Y-45108D01*
X73763Y-45098D01*
X73738Y-45097D01*
X73717Y-45104D01*
X73702Y-45118D01*
X73699Y-45122D01*
X73695Y-45131D01*
X73693Y-45140D01*
X73693Y-45149D01*
X73695Y-45164D01*
X73698Y-45180D01*
X73707Y-45221D01*
X73695Y-45244D01*
X73688Y-45263D01*
X73682Y-45282D01*
X73681Y-45289D01*
X73677Y-45307D01*
X73668Y-45321D01*
X73653Y-45333D01*
X73636Y-45343D01*
X73625Y-45350D01*
X73616Y-45357D01*
X73610Y-45367D01*
X73605Y-45380D01*
X73601Y-45399D01*
X73596Y-45426D01*
X73595Y-45436D01*
X73590Y-45463D01*
X73586Y-45483D01*
X73581Y-45498D01*
X73575Y-45512D01*
X73566Y-45527D01*
X73559Y-45537D01*
X73547Y-45560D01*
X73540Y-45582D01*
X73538Y-45607D01*
X73541Y-45638D01*
X73544Y-45655D01*
X73549Y-45679D01*
X73549Y-45695D01*
X73548Y-45701D01*
X73539Y-45704D01*
X73525Y-45700D01*
X73509Y-45691D01*
X73492Y-45677D01*
X73489Y-45674D01*
X73477Y-45664D01*
X73459Y-45649D01*
X73437Y-45633D01*
X73414Y-45617D01*
X73412Y-45616D01*
X73381Y-45594D01*
X73357Y-45574D01*
X73341Y-45558D01*
X73339Y-45555D01*
X73322Y-45533D01*
X73309Y-45518D01*
X73297Y-45507D01*
X73285Y-45501D01*
X73269Y-45496D01*
X73258Y-45493D01*
X73237Y-45488D01*
X73218Y-45482D01*
X73201Y-45474D01*
X73184Y-45464D01*
X73165Y-45451D01*
X73143Y-45434D01*
X73118Y-45412D01*
X73087Y-45384D01*
X73073Y-45370D01*
X73048Y-45347D01*
X73030Y-45328D01*
X73016Y-45312D01*
X73006Y-45299D01*
X72999Y-45286D01*
X72997Y-45282D01*
X72982Y-45247D01*
X72967Y-45206D01*
X72953Y-45162D01*
X72941Y-45119D01*
X72940Y-45115D01*
X72929Y-45075D01*
X72919Y-45043D01*
X72908Y-45018D01*
X72896Y-44997D01*
X72882Y-44978D01*
X72868Y-44963D01*
X72851Y-44948D01*
X72839Y-44942D01*
X72831Y-44944D01*
X72828Y-44954D01*
X72827Y-44966D01*
X72826Y-44985D01*
X72823Y-45005D01*
X72823Y-45007D01*
X72819Y-45027D01*
X72794Y-44982D01*
X72783Y-44962D01*
X72774Y-44945D01*
X72767Y-44932D01*
X72765Y-44927D01*
X72761Y-44912D01*
X72756Y-44888D01*
X72753Y-44860D01*
X72750Y-44828D01*
X72748Y-44797D01*
X72747Y-44770D01*
X72747Y-44743D01*
X72745Y-44716D01*
X72744Y-44692D01*
X72742Y-44680D01*
X72739Y-44651D01*
X72735Y-44615D01*
X72732Y-44575D01*
X72729Y-44533D01*
X72727Y-44491D01*
X72725Y-44452D01*
X72724Y-44416D01*
X72725Y-44387D01*
X72725Y-44375D01*
X72726Y-44350D01*
X72726Y-44333D01*
X72726Y-44321D01*
X72723Y-44312D01*
X72719Y-44305D01*
X72716Y-44300D01*
X72702Y-44286D01*
X72686Y-44281D01*
X72671Y-44285D01*
X72658Y-44297D01*
X72651Y-44309D01*
X72645Y-44333D01*
X72639Y-44367D01*
X72635Y-44409D01*
X72632Y-44459D01*
X72630Y-44517D01*
X72630Y-44540D01*
X72630Y-44580D01*
X72629Y-44611D01*
X72628Y-44634D01*
X72627Y-44650D01*
X72625Y-44660D01*
X72623Y-44666D01*
X72623Y-44667D01*
X72616Y-44673D01*
X72610Y-44675D01*
X72604Y-44671D01*
X72598Y-44661D01*
X72591Y-44643D01*
X72583Y-44616D01*
X72578Y-44599D01*
X72571Y-44574D01*
X72566Y-44549D01*
X72561Y-44522D01*
X72558Y-44492D01*
X72555Y-44458D01*
X72553Y-44417D01*
X72551Y-44369D01*
X72550Y-44320D01*
X72548Y-44268D01*
X72547Y-44225D01*
X72544Y-44190D01*
X72541Y-44163D01*
X72537Y-44142D01*
X72532Y-44128D01*
X72525Y-44118D01*
X72517Y-44112D01*
X72507Y-44110D01*
X72503Y-44110D01*
X72494Y-44112D01*
X72487Y-44118D01*
X72480Y-44129D01*
X72474Y-44147D01*
X72469Y-44172D01*
X72463Y-44206D01*
X72462Y-44216D01*
X72457Y-44253D01*
X72453Y-44296D01*
X72451Y-44342D01*
X72450Y-44390D01*
X72450Y-44435D01*
X72451Y-44477D01*
X72454Y-44512D01*
X72455Y-44522D01*
X72458Y-44541D01*
X72459Y-44556D01*
X72459Y-44564D01*
X72459Y-44564D01*
X72456Y-44562D01*
X72450Y-44551D01*
X72443Y-44534D01*
X72434Y-44512D01*
X72425Y-44486D01*
X72415Y-44459D01*
X72405Y-44430D01*
X72397Y-44403D01*
X72389Y-44378D01*
X72384Y-44357D01*
X72383Y-44350D01*
X72372Y-44305D01*
X72361Y-44262D01*
X72348Y-44224D01*
X72335Y-44191D01*
X72322Y-44164D01*
X72309Y-44144D01*
X72297Y-44133D01*
X72288Y-44130D01*
X72278Y-44134D01*
X72268Y-44146D01*
X72259Y-44161D01*
X72255Y-44176D01*
X72255Y-44196D01*
X72258Y-44224D01*
X72265Y-44260D01*
X72275Y-44303D01*
X72288Y-44353D01*
X72305Y-44408D01*
X72324Y-44468D01*
X72326Y-44475D01*
X72333Y-44496D01*
X72336Y-44509D01*
X72336Y-44516D01*
X72334Y-44519D01*
X72333Y-44519D01*
X72326Y-44518D01*
X72318Y-44512D01*
X72308Y-44499D01*
X72295Y-44479D01*
X72280Y-44451D01*
X72279Y-44448D01*
X72262Y-44416D01*
X72248Y-44393D01*
X72236Y-44377D01*
X72225Y-44368D01*
X72214Y-44365D01*
X72214Y-44365D01*
X72202Y-44369D01*
X72194Y-44382D01*
X72189Y-44399D01*
X72188Y-44418D01*
X72191Y-44431D01*
X72198Y-44450D01*
X72207Y-44472D01*
X72216Y-44492D01*
X72241Y-44545D01*
X72227Y-44545D01*
X72210Y-44540D01*
X72195Y-44526D01*
X72182Y-44503D01*
X72177Y-44493D01*
X72170Y-44484D01*
X72158Y-44475D01*
X72141Y-44464D01*
X72131Y-44459D01*
X72112Y-44449D01*
X72095Y-44442D01*
X72084Y-44438D01*
X72080Y-44438D01*
X72073Y-44444D01*
X72067Y-44455D01*
X72064Y-44468D01*
X72066Y-44481D01*
X72073Y-44496D01*
X72087Y-44515D01*
X72097Y-44528D01*
X72109Y-44542D01*
X72118Y-44554D01*
X72122Y-44560D01*
X72122Y-44561D01*
X72117Y-44568D01*
X72105Y-44574D01*
X72088Y-44580D01*
X72072Y-44584D01*
X72056Y-44586D01*
X72047Y-44590D01*
X72044Y-44596D01*
X72043Y-44600D01*
X72043Y-44611D01*
X72047Y-44627D01*
X72052Y-44647D01*
X72053Y-44649D01*
X72059Y-44673D01*
X72060Y-44689D01*
X72056Y-44699D01*
X72046Y-44702D01*
X72044Y-44702D01*
X72037Y-44706D01*
X72036Y-44716D01*
X72038Y-44730D01*
X72045Y-44747D01*
X72054Y-44764D01*
X72065Y-44779D01*
X72076Y-44789D01*
X72087Y-44800D01*
X72098Y-44814D01*
X72106Y-44828D01*
X72110Y-44840D01*
X72109Y-44845D01*
X72103Y-44848D01*
X72091Y-44850D01*
X72087Y-44850D01*
X72071Y-44852D01*
X72064Y-44858D01*
X72065Y-44870D01*
X72072Y-44883D01*
X72079Y-44897D01*
X72081Y-44906D01*
X72076Y-44909D01*
X72065Y-44910D01*
X72047Y-44913D01*
X72034Y-44923D01*
X72028Y-44937D01*
X72029Y-44945D01*
X72034Y-44972D01*
X72036Y-44993D01*
X72035Y-45010D01*
X72030Y-45026D01*
X72027Y-45034D01*
X72021Y-45050D01*
X72018Y-45062D01*
X72018Y-45062D01*
X72018Y-45062D01*
G37*
G36*
X70458Y-60495D02*
X70458Y-60538D01*
X70461Y-60570D01*
X70467Y-60592D01*
X70478Y-60609D01*
X70494Y-60623D01*
X70506Y-60631D01*
X70515Y-60634D01*
X70515Y-60491D01*
X70519Y-60458D01*
X70529Y-60431D01*
X70541Y-60416D01*
X70563Y-60406D01*
X70588Y-60408D01*
X70611Y-60419D01*
X70613Y-60421D01*
X70620Y-60435D01*
X70625Y-60459D01*
X70627Y-60488D01*
X70627Y-60517D01*
X70625Y-60542D01*
X70622Y-60552D01*
X70607Y-60573D01*
X70585Y-60584D01*
X70560Y-60583D01*
X70541Y-60574D01*
X70526Y-60553D01*
X70517Y-60524D01*
X70515Y-60491D01*
X70515Y-60634D01*
X70539Y-60643D01*
X70574Y-60641D01*
X70601Y-60631D01*
X70628Y-60617D01*
X70628Y-60727D01*
X70628Y-60837D01*
X70609Y-60822D01*
X70584Y-60810D01*
X70553Y-60806D01*
X70522Y-60811D01*
X70504Y-60818D01*
X70488Y-60829D01*
X70477Y-60841D01*
X70469Y-60858D01*
X70464Y-60880D01*
X70461Y-60911D01*
X70460Y-60953D01*
X70460Y-60985D01*
X70460Y-61100D01*
X70485Y-61100D01*
X70510Y-61100D01*
X70512Y-61001D01*
X70513Y-60961D01*
X70515Y-60933D01*
X70517Y-60914D01*
X70521Y-60901D01*
X70526Y-60892D01*
X70533Y-60884D01*
X70556Y-60868D01*
X70581Y-60866D01*
X70605Y-60878D01*
X70610Y-60883D01*
X70618Y-60891D01*
X70623Y-60900D01*
X70626Y-60911D01*
X70627Y-60929D01*
X70628Y-60957D01*
X70628Y-60995D01*
X70628Y-61000D01*
X70628Y-61100D01*
X70658Y-61100D01*
X70687Y-61100D01*
X70687Y-60726D01*
X70687Y-60352D01*
X70658Y-60352D01*
X70637Y-60354D01*
X70628Y-60360D01*
X70628Y-60362D01*
X70626Y-60367D01*
X70616Y-60365D01*
X70601Y-60358D01*
X70564Y-60346D01*
X70530Y-60348D01*
X70506Y-60359D01*
X70486Y-60372D01*
X70473Y-60387D01*
X70464Y-60406D01*
X70460Y-60432D01*
X70458Y-60469D01*
X70458Y-60495D01*
X70458Y-60495D01*
X70458Y-60495D01*
G37*
G36*
X70181Y-61100D02*
X70210Y-61100D01*
X70230Y-61098D01*
X70239Y-61093D01*
X70240Y-61088D01*
X70240Y-61000D01*
X70240Y-60975D01*
X70282Y-60975D01*
X70317Y-60978D01*
X70342Y-60988D01*
X70355Y-61003D01*
X70357Y-61012D01*
X70350Y-61028D01*
X70333Y-61041D01*
X70308Y-61048D01*
X70298Y-61048D01*
X70276Y-61045D01*
X70256Y-61037D01*
X70256Y-61037D01*
X70243Y-61021D01*
X70240Y-61000D01*
X70240Y-61088D01*
X70241Y-61080D01*
X70246Y-61082D01*
X70253Y-61088D01*
X70271Y-61096D01*
X70298Y-61100D01*
X70328Y-61099D01*
X70357Y-61094D01*
X70376Y-61086D01*
X70399Y-61064D01*
X70412Y-61035D01*
X70414Y-61004D01*
X70404Y-60974D01*
X70386Y-60951D01*
X70374Y-60941D01*
X70362Y-60935D01*
X70346Y-60932D01*
X70321Y-60931D01*
X70302Y-60931D01*
X70240Y-60931D01*
X70240Y-60906D01*
X70242Y-60887D01*
X70248Y-60874D01*
X70249Y-60874D01*
X70273Y-60863D01*
X70302Y-60861D01*
X70331Y-60868D01*
X70350Y-60875D01*
X70362Y-60875D01*
X70376Y-60867D01*
X70380Y-60864D01*
X70394Y-60853D01*
X70396Y-60844D01*
X70393Y-60838D01*
X70371Y-60822D01*
X70340Y-60811D01*
X70303Y-60806D01*
X70266Y-60808D01*
X70233Y-60816D01*
X70228Y-60818D01*
X70211Y-60827D01*
X70199Y-60839D01*
X70191Y-60854D01*
X70186Y-60876D01*
X70183Y-60907D01*
X70181Y-60949D01*
X70181Y-60986D01*
X70181Y-61100D01*
X70181Y-61100D01*
X70181Y-61100D01*
G37*
G36*
X69926Y-60832D02*
X69935Y-60847D01*
X69943Y-60857D01*
X69957Y-60871D01*
X69968Y-60875D01*
X69976Y-60872D01*
X70002Y-60865D01*
X70026Y-60873D01*
X70038Y-60883D01*
X70046Y-60891D01*
X70051Y-60900D01*
X70054Y-60911D01*
X70055Y-60929D01*
X70056Y-60957D01*
X70056Y-60995D01*
X70056Y-61000D01*
X70056Y-61100D01*
X70086Y-61100D01*
X70115Y-61100D01*
X70115Y-60953D01*
X70115Y-60806D01*
X70086Y-60806D01*
X70067Y-60808D01*
X70058Y-60812D01*
X70056Y-60822D01*
X70056Y-60837D01*
X70037Y-60822D01*
X70014Y-60811D01*
X69985Y-60806D01*
X69956Y-60808D01*
X69939Y-60814D01*
X69927Y-60822D01*
X69926Y-60832D01*
X69926Y-60832D01*
X69926Y-60832D01*
G37*
G36*
X69690Y-61100D02*
X69719Y-61100D01*
X69739Y-61098D01*
X69748Y-61092D01*
X69748Y-61091D01*
X69748Y-60975D01*
X69748Y-60942D01*
X69753Y-60911D01*
X69761Y-60888D01*
X69764Y-60884D01*
X69784Y-60868D01*
X69808Y-60865D01*
X69832Y-60874D01*
X69844Y-60885D01*
X69852Y-60898D01*
X69857Y-60911D01*
X69858Y-60931D01*
X69857Y-60960D01*
X69857Y-60963D01*
X69854Y-60998D01*
X69847Y-61021D01*
X69836Y-61034D01*
X69817Y-61040D01*
X69799Y-61041D01*
X69776Y-61038D01*
X69761Y-61026D01*
X69760Y-61025D01*
X69752Y-61004D01*
X69748Y-60975D01*
X69748Y-61091D01*
X69748Y-61088D01*
X69750Y-61081D01*
X69756Y-61083D01*
X69765Y-61088D01*
X69785Y-61096D01*
X69813Y-61099D01*
X69843Y-61098D01*
X69868Y-61091D01*
X69873Y-61089D01*
X69891Y-61076D01*
X69904Y-61059D01*
X69912Y-61035D01*
X69916Y-61001D01*
X69916Y-60957D01*
X69916Y-60943D01*
X69913Y-60857D01*
X69886Y-60832D01*
X69866Y-60816D01*
X69848Y-60808D01*
X69824Y-60806D01*
X69823Y-60806D01*
X69798Y-60809D01*
X69779Y-60814D01*
X69774Y-60817D01*
X69761Y-60826D01*
X69754Y-60828D01*
X69752Y-60821D01*
X69750Y-60803D01*
X69748Y-60777D01*
X69748Y-60759D01*
X69748Y-60689D01*
X69719Y-60689D01*
X69690Y-60689D01*
X69690Y-60894D01*
X69690Y-61100D01*
X69690Y-61100D01*
X69690Y-61100D01*
G37*
G36*
X69244Y-60812D02*
X69244Y-60816D01*
X69247Y-60825D01*
X69254Y-60846D01*
X69264Y-60877D01*
X69276Y-60915D01*
X69289Y-60957D01*
X69291Y-60962D01*
X69334Y-61100D01*
X69361Y-61100D01*
X69371Y-61100D01*
X69380Y-61098D01*
X69386Y-61093D01*
X69393Y-61082D01*
X69400Y-61064D01*
X69408Y-61037D01*
X69419Y-60998D01*
X69426Y-60975D01*
X69434Y-60948D01*
X69441Y-60927D01*
X69446Y-60915D01*
X69447Y-60914D01*
X69451Y-60919D01*
X69458Y-60935D01*
X69467Y-60961D01*
X69477Y-60993D01*
X69481Y-61004D01*
X69509Y-61100D01*
X69537Y-61100D01*
X69555Y-61099D01*
X69565Y-61098D01*
X69565Y-61097D01*
X69567Y-61090D01*
X69573Y-61070D01*
X69582Y-61041D01*
X69594Y-61005D01*
X69607Y-60963D01*
X69609Y-60957D01*
X69623Y-60914D01*
X69634Y-60876D01*
X69644Y-60845D01*
X69650Y-60823D01*
X69653Y-60813D01*
X69653Y-60812D01*
X69647Y-60809D01*
X69630Y-60807D01*
X69622Y-60808D01*
X69592Y-60810D01*
X69564Y-60909D01*
X69554Y-60944D01*
X69545Y-60971D01*
X69538Y-60990D01*
X69534Y-60998D01*
X69533Y-60997D01*
X69529Y-60986D01*
X69522Y-60964D01*
X69512Y-60935D01*
X69501Y-60900D01*
X69501Y-60898D01*
X69489Y-60862D01*
X69481Y-60837D01*
X69474Y-60821D01*
X69467Y-60813D01*
X69460Y-60809D01*
X69450Y-60808D01*
X69450Y-60808D01*
X69427Y-60806D01*
X69396Y-60905D01*
X69383Y-60942D01*
X69373Y-60971D01*
X69365Y-60990D01*
X69360Y-60996D01*
X69359Y-60995D01*
X69355Y-60985D01*
X69349Y-60964D01*
X69340Y-60934D01*
X69331Y-60899D01*
X69330Y-60896D01*
X69306Y-60806D01*
X69273Y-60806D01*
X69252Y-60808D01*
X69244Y-60812D01*
X69244Y-60812D01*
X69244Y-60812D01*
G37*
G36*
X69008Y-61100D02*
X69037Y-61100D01*
X69055Y-61098D01*
X69066Y-61094D01*
X69066Y-61092D01*
X69066Y-61004D01*
X69066Y-60975D01*
X69105Y-60975D01*
X69141Y-60979D01*
X69167Y-60988D01*
X69181Y-61003D01*
X69182Y-61009D01*
X69178Y-61025D01*
X69163Y-61038D01*
X69141Y-61046D01*
X69116Y-61049D01*
X69091Y-61045D01*
X69081Y-61041D01*
X69070Y-61030D01*
X69066Y-61010D01*
X69066Y-61004D01*
X69066Y-61092D01*
X69071Y-61088D01*
X69081Y-61092D01*
X69101Y-61098D01*
X69129Y-61100D01*
X69160Y-61098D01*
X69187Y-61093D01*
X69200Y-61087D01*
X69221Y-61067D01*
X69233Y-61038D01*
X69235Y-61011D01*
X69231Y-60979D01*
X69219Y-60957D01*
X69197Y-60942D01*
X69164Y-60933D01*
X69122Y-60931D01*
X69066Y-60931D01*
X69066Y-60906D01*
X69069Y-60885D01*
X69081Y-60871D01*
X69103Y-60863D01*
X69108Y-60862D01*
X69140Y-60862D01*
X69157Y-60869D01*
X69175Y-60876D01*
X69186Y-60876D01*
X69199Y-60869D01*
X69202Y-60867D01*
X69216Y-60853D01*
X69216Y-60840D01*
X69202Y-60827D01*
X69191Y-60820D01*
X69163Y-60811D01*
X69127Y-60807D01*
X69090Y-60808D01*
X69058Y-60816D01*
X69056Y-60817D01*
X69039Y-60825D01*
X69027Y-60834D01*
X69018Y-60847D01*
X69013Y-60865D01*
X69009Y-60892D01*
X69008Y-60929D01*
X69008Y-60978D01*
X69008Y-60980D01*
X69008Y-61100D01*
X69008Y-61100D01*
X69008Y-61100D01*
G37*
G36*
X68745Y-60825D02*
X68747Y-60832D01*
X68757Y-60845D01*
X68762Y-60852D01*
X68776Y-60868D01*
X68786Y-60874D01*
X68799Y-60871D01*
X68803Y-60870D01*
X68830Y-60866D01*
X68855Y-60874D01*
X68873Y-60893D01*
X68874Y-60894D01*
X68878Y-60912D01*
X68881Y-60943D01*
X68883Y-60986D01*
X68883Y-61006D01*
X68883Y-61100D01*
X68912Y-61100D01*
X68942Y-61100D01*
X68942Y-60953D01*
X68942Y-60806D01*
X68912Y-60806D01*
X68893Y-60808D01*
X68885Y-60813D01*
X68883Y-60821D01*
X68882Y-60830D01*
X68878Y-60831D01*
X68866Y-60825D01*
X68859Y-60821D01*
X68829Y-60810D01*
X68796Y-60807D01*
X68764Y-60814D01*
X68745Y-60825D01*
X68745Y-60825D01*
X68745Y-60825D01*
G37*
G36*
X68500Y-60975D02*
X68564Y-60975D01*
X68564Y-60912D01*
X68572Y-60894D01*
X68584Y-60878D01*
X68598Y-60866D01*
X68600Y-60865D01*
X68627Y-60862D01*
X68653Y-60872D01*
X68672Y-60893D01*
X68673Y-60893D01*
X68680Y-60910D01*
X68682Y-60922D01*
X68681Y-60924D01*
X68672Y-60927D01*
X68653Y-60930D01*
X68628Y-60931D01*
X68602Y-60931D01*
X68580Y-60929D01*
X68566Y-60926D01*
X68564Y-60924D01*
X68564Y-60912D01*
X68564Y-60975D01*
X68593Y-60975D01*
X68687Y-60975D01*
X68682Y-60995D01*
X68668Y-61023D01*
X68646Y-61041D01*
X68618Y-61047D01*
X68586Y-61040D01*
X68576Y-61036D01*
X68548Y-61022D01*
X68528Y-61038D01*
X68515Y-61050D01*
X68509Y-61058D01*
X68509Y-61059D01*
X68514Y-61065D01*
X68528Y-61076D01*
X68536Y-61081D01*
X68568Y-61095D01*
X68605Y-61101D01*
X68643Y-61099D01*
X68676Y-61089D01*
X68685Y-61083D01*
X68711Y-61061D01*
X68728Y-61034D01*
X68737Y-61000D01*
X68740Y-60957D01*
X68735Y-60904D01*
X68722Y-60863D01*
X68699Y-60832D01*
X68667Y-60814D01*
X68627Y-60806D01*
X68623Y-60806D01*
X68581Y-60813D01*
X68547Y-60831D01*
X68522Y-60860D01*
X68507Y-60899D01*
X68503Y-60927D01*
X68500Y-60975D01*
X68500Y-60975D01*
X68500Y-60975D01*
G37*
G36*
X70742Y-60495D02*
X70742Y-60530D01*
X70744Y-60555D01*
X70747Y-60572D01*
X70753Y-60584D01*
X70757Y-60591D01*
X70788Y-60622D01*
X70797Y-60626D01*
X70797Y-60495D01*
X70798Y-60467D01*
X70801Y-60450D01*
X70808Y-60437D01*
X70819Y-60424D01*
X70836Y-60409D01*
X70850Y-60405D01*
X70865Y-60406D01*
X70890Y-60414D01*
X70906Y-60428D01*
X70915Y-60451D01*
X70918Y-60484D01*
X70918Y-60494D01*
X70916Y-60529D01*
X70911Y-60553D01*
X70900Y-60569D01*
X70882Y-60579D01*
X70857Y-60585D01*
X70837Y-60580D01*
X70819Y-60565D01*
X70807Y-60552D01*
X70800Y-60539D01*
X70798Y-60520D01*
X70797Y-60495D01*
X70797Y-60626D01*
X70824Y-60640D01*
X70863Y-60644D01*
X70904Y-60634D01*
X70914Y-60629D01*
X70944Y-60609D01*
X70964Y-60583D01*
X70976Y-60549D01*
X70980Y-60504D01*
X70980Y-60495D01*
X70977Y-60448D01*
X70967Y-60412D01*
X70948Y-60385D01*
X70921Y-60364D01*
X70914Y-60360D01*
X70874Y-60347D01*
X70834Y-60347D01*
X70797Y-60362D01*
X70764Y-60389D01*
X70757Y-60399D01*
X70750Y-60410D01*
X70746Y-60424D01*
X70743Y-60443D01*
X70742Y-60472D01*
X70742Y-60495D01*
X70742Y-60495D01*
X70742Y-60495D01*
G37*
G36*
X70172Y-60520D02*
X70240Y-60520D01*
X70240Y-60453D01*
X70245Y-60436D01*
X70256Y-60420D01*
X70278Y-60406D01*
X70303Y-60403D01*
X70326Y-60412D01*
X70345Y-60429D01*
X70354Y-60449D01*
X70359Y-60469D01*
X70299Y-60469D01*
X70270Y-60469D01*
X70252Y-60467D01*
X70243Y-60464D01*
X70240Y-60459D01*
X70240Y-60453D01*
X70240Y-60520D01*
X70264Y-60520D01*
X70304Y-60521D01*
X70331Y-60522D01*
X70348Y-60524D01*
X70355Y-60530D01*
X70355Y-60538D01*
X70350Y-60550D01*
X70348Y-60552D01*
X70329Y-60575D01*
X70303Y-60586D01*
X70270Y-60584D01*
X70244Y-60574D01*
X70226Y-60567D01*
X70216Y-60566D01*
X70204Y-60574D01*
X70199Y-60579D01*
X70188Y-60593D01*
X70189Y-60605D01*
X70202Y-60617D01*
X70228Y-60631D01*
X70229Y-60631D01*
X70272Y-60643D01*
X70316Y-60641D01*
X70350Y-60629D01*
X70380Y-60606D01*
X70401Y-60572D01*
X70414Y-60531D01*
X70417Y-60484D01*
X70409Y-60434D01*
X70408Y-60429D01*
X70391Y-60394D01*
X70364Y-60367D01*
X70331Y-60351D01*
X70292Y-60346D01*
X70252Y-60354D01*
X70250Y-60355D01*
X70217Y-60374D01*
X70194Y-60403D01*
X70180Y-60443D01*
X70176Y-60473D01*
X70172Y-60520D01*
X70172Y-60520D01*
X70172Y-60520D01*
G37*
G36*
X69487Y-60552D02*
X69492Y-60582D01*
X69508Y-60607D01*
X69534Y-60627D01*
X69567Y-60640D01*
X69606Y-60644D01*
X69649Y-60639D01*
X69660Y-60636D01*
X69690Y-60624D01*
X69724Y-60603D01*
X69733Y-60596D01*
X69731Y-60590D01*
X69721Y-60577D01*
X69716Y-60572D01*
X69695Y-60551D01*
X69675Y-60565D01*
X69650Y-60579D01*
X69620Y-60585D01*
X69592Y-60585D01*
X69567Y-60579D01*
X69551Y-60566D01*
X69550Y-60564D01*
X69548Y-60548D01*
X69558Y-60534D01*
X69578Y-60524D01*
X69605Y-60520D01*
X69634Y-60518D01*
X69662Y-60511D01*
X69667Y-60509D01*
X69694Y-60491D01*
X69711Y-60465D01*
X69717Y-60435D01*
X69711Y-60403D01*
X69697Y-60378D01*
X69673Y-60360D01*
X69641Y-60349D01*
X69603Y-60346D01*
X69563Y-60351D01*
X69525Y-60364D01*
X69521Y-60366D01*
X69492Y-60381D01*
X69508Y-60403D01*
X69522Y-60419D01*
X69534Y-60424D01*
X69551Y-60418D01*
X69558Y-60414D01*
X69582Y-60405D01*
X69609Y-60403D01*
X69633Y-60408D01*
X69648Y-60417D01*
X69657Y-60433D01*
X69652Y-60449D01*
X69640Y-60457D01*
X69626Y-60460D01*
X69603Y-60463D01*
X69583Y-60466D01*
X69546Y-60472D01*
X69521Y-60484D01*
X69503Y-60501D01*
X69494Y-60519D01*
X69487Y-60552D01*
X69487Y-60552D01*
X69487Y-60552D01*
G37*
G36*
X69213Y-60495D02*
X69218Y-60545D01*
X69233Y-60586D01*
X69257Y-60618D01*
X69266Y-60626D01*
X69275Y-60630D01*
X69275Y-60495D01*
X69276Y-60465D01*
X69279Y-60446D01*
X69284Y-60433D01*
X69292Y-60424D01*
X69315Y-60410D01*
X69341Y-60408D01*
X69367Y-60416D01*
X69376Y-60423D01*
X69386Y-60442D01*
X69393Y-60469D01*
X69396Y-60500D01*
X69394Y-60529D01*
X69387Y-60550D01*
X69369Y-60572D01*
X69344Y-60582D01*
X69317Y-60580D01*
X69292Y-60566D01*
X69290Y-60564D01*
X69282Y-60553D01*
X69278Y-60539D01*
X69276Y-60516D01*
X69275Y-60495D01*
X69275Y-60630D01*
X69290Y-60637D01*
X69322Y-60642D01*
X69356Y-60642D01*
X69384Y-60636D01*
X69386Y-60635D01*
X69417Y-60613D01*
X69439Y-60581D01*
X69451Y-60538D01*
X69454Y-60486D01*
X69453Y-60476D01*
X69445Y-60428D01*
X69429Y-60391D01*
X69404Y-60366D01*
X69370Y-60352D01*
X69334Y-60348D01*
X69291Y-60354D01*
X69258Y-60371D01*
X69234Y-60399D01*
X69219Y-60439D01*
X69213Y-60490D01*
X69213Y-60495D01*
X69213Y-60495D01*
X69213Y-60495D01*
G37*
G36*
X68934Y-60638D02*
X68964Y-60638D01*
X68984Y-60636D01*
X68993Y-60630D01*
X68993Y-60627D01*
X68995Y-60621D01*
X69004Y-60623D01*
X69017Y-60630D01*
X69051Y-60643D01*
X69087Y-60641D01*
X69108Y-60634D01*
X69127Y-60624D01*
X69141Y-60611D01*
X69151Y-60594D01*
X69157Y-60569D01*
X69160Y-60534D01*
X69162Y-60488D01*
X69162Y-60464D01*
X69162Y-60352D01*
X69132Y-60352D01*
X69103Y-60352D01*
X69103Y-60450D01*
X69102Y-60497D01*
X69100Y-60532D01*
X69095Y-60556D01*
X69086Y-60571D01*
X69074Y-60579D01*
X69056Y-60582D01*
X69048Y-60582D01*
X69028Y-60580D01*
X69014Y-60574D01*
X69004Y-60562D01*
X68998Y-60542D01*
X68994Y-60511D01*
X68993Y-60468D01*
X68993Y-60450D01*
X68993Y-60352D01*
X68964Y-60352D01*
X68934Y-60352D01*
X68934Y-60495D01*
X68934Y-60638D01*
X68934Y-60638D01*
X68934Y-60638D01*
G37*
G36*
X68439Y-60395D02*
X68460Y-60415D01*
X68474Y-60428D01*
X68484Y-60431D01*
X68493Y-60427D01*
X68526Y-60410D01*
X68557Y-60407D01*
X68583Y-60416D01*
X68603Y-60438D01*
X68615Y-60470D01*
X68617Y-60482D01*
X68616Y-60519D01*
X68605Y-60548D01*
X68587Y-60570D01*
X68564Y-60583D01*
X68537Y-60585D01*
X68511Y-60574D01*
X68500Y-60567D01*
X68484Y-60561D01*
X68465Y-60568D01*
X68451Y-60582D01*
X68446Y-60596D01*
X68453Y-60610D01*
X68470Y-60623D01*
X68494Y-60633D01*
X68522Y-60640D01*
X68553Y-60643D01*
X68582Y-60640D01*
X68593Y-60638D01*
X68624Y-60621D01*
X68649Y-60594D01*
X68667Y-60560D01*
X68676Y-60520D01*
X68677Y-60480D01*
X68670Y-60440D01*
X68654Y-60403D01*
X68628Y-60373D01*
X68627Y-60372D01*
X68595Y-60354D01*
X68557Y-60346D01*
X68517Y-60349D01*
X68480Y-60363D01*
X68460Y-60377D01*
X68439Y-60395D01*
X68439Y-60395D01*
X68439Y-60395D01*
G37*
G36*
X68185Y-60520D02*
X68245Y-60520D01*
X68245Y-60461D01*
X68249Y-60446D01*
X68260Y-60427D01*
X68272Y-60412D01*
X68278Y-60408D01*
X68308Y-60403D01*
X68335Y-60412D01*
X68356Y-60432D01*
X68366Y-60453D01*
X68368Y-60460D01*
X68365Y-60465D01*
X68356Y-60468D01*
X68338Y-60469D01*
X68308Y-60469D01*
X68275Y-60468D01*
X68254Y-60466D01*
X68245Y-60462D01*
X68245Y-60461D01*
X68245Y-60520D01*
X68278Y-60520D01*
X68316Y-60520D01*
X68342Y-60521D01*
X68358Y-60522D01*
X68365Y-60525D01*
X68368Y-60529D01*
X68366Y-60536D01*
X68366Y-60537D01*
X68353Y-60560D01*
X68332Y-60577D01*
X68307Y-60586D01*
X68303Y-60586D01*
X68280Y-60583D01*
X68257Y-60575D01*
X68255Y-60574D01*
X68238Y-60567D01*
X68227Y-60567D01*
X68216Y-60576D01*
X68212Y-60579D01*
X68201Y-60593D01*
X68202Y-60605D01*
X68215Y-60618D01*
X68241Y-60631D01*
X68241Y-60631D01*
X68285Y-60643D01*
X68328Y-60641D01*
X68361Y-60629D01*
X68390Y-60610D01*
X68409Y-60584D01*
X68420Y-60548D01*
X68424Y-60502D01*
X68425Y-60495D01*
X68421Y-60445D01*
X68409Y-60408D01*
X68388Y-60379D01*
X68359Y-60359D01*
X68323Y-60347D01*
X68290Y-60347D01*
X68255Y-60358D01*
X68224Y-60378D01*
X68203Y-60406D01*
X68191Y-60442D01*
X68188Y-60471D01*
X68185Y-60520D01*
X68185Y-60520D01*
X68185Y-60520D01*
G37*
G36*
X69895Y-60638D02*
X69924Y-60638D01*
X69954Y-60638D01*
X69954Y-60540D01*
X69954Y-60493D01*
X69957Y-60460D01*
X69961Y-60437D01*
X69969Y-60421D01*
X69981Y-60412D01*
X69998Y-60407D01*
X70002Y-60406D01*
X70022Y-60406D01*
X70040Y-60415D01*
X70046Y-60420D01*
X70067Y-60438D01*
X70070Y-60538D01*
X70073Y-60638D01*
X70101Y-60638D01*
X70130Y-60638D01*
X70130Y-60495D01*
X70130Y-60352D01*
X70100Y-60352D01*
X70080Y-60354D01*
X70072Y-60359D01*
X70071Y-60363D01*
X70070Y-60371D01*
X70065Y-60372D01*
X70052Y-60366D01*
X70040Y-60359D01*
X70007Y-60347D01*
X69973Y-60347D01*
X69941Y-60359D01*
X69915Y-60382D01*
X69910Y-60390D01*
X69904Y-60401D01*
X69900Y-60413D01*
X69897Y-60430D01*
X69896Y-60454D01*
X69895Y-60487D01*
X69895Y-60526D01*
X69895Y-60638D01*
X69895Y-60638D01*
X69895Y-60638D01*
G37*
G36*
X68670Y-60367D02*
X68689Y-60392D01*
X68702Y-60409D01*
X68710Y-60416D01*
X68718Y-60416D01*
X68731Y-60410D01*
X68732Y-60409D01*
X68756Y-60406D01*
X68780Y-60414D01*
X68798Y-60431D01*
X68801Y-60437D01*
X68805Y-60452D01*
X68808Y-60478D01*
X68809Y-60513D01*
X68810Y-60546D01*
X68810Y-60638D01*
X68839Y-60638D01*
X68868Y-60638D01*
X68868Y-60495D01*
X68868Y-60352D01*
X68839Y-60352D01*
X68819Y-60354D01*
X68810Y-60359D01*
X68810Y-60363D01*
X68808Y-60368D01*
X68799Y-60367D01*
X68782Y-60359D01*
X68747Y-60346D01*
X68713Y-60347D01*
X68692Y-60356D01*
X68670Y-60367D01*
X68670Y-60367D01*
X68670Y-60367D01*
G37*
G36*
X68494Y-59255D02*
X68495Y-59305D01*
X68496Y-59347D01*
X68497Y-59378D01*
X68500Y-59396D01*
X68502Y-59402D01*
X68510Y-59404D01*
X68530Y-59409D01*
X68558Y-59415D01*
X68593Y-59422D01*
X68632Y-59429D01*
X68670Y-59437D01*
X68707Y-59444D01*
X68739Y-59450D01*
X68763Y-59455D01*
X68776Y-59457D01*
X68778Y-59457D01*
X68781Y-59463D01*
X68788Y-59481D01*
X68799Y-59508D01*
X68813Y-59542D01*
X68824Y-59570D01*
X68869Y-59683D01*
X68795Y-59791D01*
X68771Y-59826D01*
X68749Y-59858D01*
X68732Y-59884D01*
X68721Y-59902D01*
X68716Y-59910D01*
X68720Y-59919D01*
X68735Y-59938D01*
X68760Y-59967D01*
X68796Y-60004D01*
X68814Y-60022D01*
X68846Y-60054D01*
X68874Y-60081D01*
X68897Y-60103D01*
X68913Y-60118D01*
X68921Y-60124D01*
X68922Y-60124D01*
X68929Y-60120D01*
X68947Y-60109D01*
X68973Y-60093D01*
X69004Y-60071D01*
X69039Y-60048D01*
X69150Y-59972D01*
X69207Y-60000D01*
X69264Y-60029D01*
X69272Y-60013D01*
X69278Y-60000D01*
X69289Y-59977D01*
X69303Y-59944D01*
X69319Y-59905D01*
X69338Y-59860D01*
X69357Y-59812D01*
X69378Y-59763D01*
X69397Y-59715D01*
X69416Y-59670D01*
X69432Y-59629D01*
X69446Y-59594D01*
X69456Y-59568D01*
X69461Y-59553D01*
X69462Y-59549D01*
X69457Y-59541D01*
X69442Y-59528D01*
X69421Y-59512D01*
X69418Y-59510D01*
X69365Y-59464D01*
X69325Y-59414D01*
X69299Y-59358D01*
X69285Y-59294D01*
X69283Y-59259D01*
X69286Y-59203D01*
X69298Y-59155D01*
X69319Y-59110D01*
X69341Y-59077D01*
X69382Y-59032D01*
X69433Y-58996D01*
X69489Y-58970D01*
X69548Y-58956D01*
X69607Y-58955D01*
X69628Y-58958D01*
X69690Y-58976D01*
X69748Y-59007D01*
X69797Y-59048D01*
X69799Y-59050D01*
X69840Y-59103D01*
X69868Y-59160D01*
X69882Y-59220D01*
X69884Y-59280D01*
X69873Y-59340D01*
X69849Y-59397D01*
X69812Y-59450D01*
X69763Y-59497D01*
X69752Y-59506D01*
X69729Y-59523D01*
X69713Y-59539D01*
X69705Y-59550D01*
X69704Y-59552D01*
X69707Y-59561D01*
X69715Y-59582D01*
X69726Y-59612D01*
X69742Y-59650D01*
X69759Y-59694D01*
X69778Y-59741D01*
X69799Y-59791D01*
X69819Y-59840D01*
X69838Y-59886D01*
X69856Y-59929D01*
X69872Y-59966D01*
X69885Y-59995D01*
X69893Y-60013D01*
X69897Y-60020D01*
X69904Y-60023D01*
X69916Y-60020D01*
X69937Y-60011D01*
X69958Y-60000D01*
X70012Y-59970D01*
X70125Y-60047D01*
X70161Y-60072D01*
X70194Y-60093D01*
X70219Y-60109D01*
X70237Y-60120D01*
X70245Y-60124D01*
X70245Y-60124D01*
X70252Y-60119D01*
X70267Y-60106D01*
X70289Y-60084D01*
X70317Y-60058D01*
X70348Y-60027D01*
X70352Y-60024D01*
X70383Y-59992D01*
X70410Y-59964D01*
X70432Y-59941D01*
X70446Y-59925D01*
X70452Y-59917D01*
X70452Y-59917D01*
X70449Y-59909D01*
X70437Y-59891D01*
X70421Y-59866D01*
X70399Y-59834D01*
X70375Y-59798D01*
X70374Y-59797D01*
X70296Y-59683D01*
X70339Y-59575D01*
X70353Y-59538D01*
X70367Y-59506D01*
X70377Y-59481D01*
X70384Y-59466D01*
X70386Y-59462D01*
X70394Y-59460D01*
X70414Y-59455D01*
X70442Y-59449D01*
X70477Y-59441D01*
X70515Y-59433D01*
X70554Y-59426D01*
X70590Y-59418D01*
X70623Y-59412D01*
X70647Y-59408D01*
X70662Y-59406D01*
X70663Y-59406D01*
X70664Y-59399D01*
X70664Y-59379D01*
X70665Y-59349D01*
X70665Y-59312D01*
X70665Y-59268D01*
X70665Y-59255D01*
X70665Y-59205D01*
X70665Y-59167D01*
X70664Y-59140D01*
X70663Y-59122D01*
X70661Y-59111D01*
X70658Y-59106D01*
X70653Y-59103D01*
X70649Y-59102D01*
X70636Y-59099D01*
X70612Y-59094D01*
X70579Y-59088D01*
X70540Y-59081D01*
X70507Y-59075D01*
X70467Y-59068D01*
X70431Y-59061D01*
X70404Y-59055D01*
X70386Y-59052D01*
X70381Y-59050D01*
X70377Y-59043D01*
X70369Y-59025D01*
X70357Y-58999D01*
X70344Y-58968D01*
X70330Y-58935D01*
X70316Y-58903D01*
X70305Y-58875D01*
X70296Y-58853D01*
X70291Y-58841D01*
X70291Y-58839D01*
X70295Y-58832D01*
X70306Y-58814D01*
X70323Y-58788D01*
X70345Y-58756D01*
X70369Y-58720D01*
X70372Y-58716D01*
X70397Y-58680D01*
X70419Y-58648D01*
X70436Y-58621D01*
X70448Y-58603D01*
X70452Y-58594D01*
X70452Y-58594D01*
X70447Y-58587D01*
X70434Y-58571D01*
X70413Y-58550D01*
X70388Y-58524D01*
X70360Y-58496D01*
X70331Y-58467D01*
X70304Y-58440D01*
X70279Y-58417D01*
X70259Y-58399D01*
X70247Y-58388D01*
X70243Y-58386D01*
X70235Y-58390D01*
X70217Y-58401D01*
X70191Y-58418D01*
X70159Y-58440D01*
X70122Y-58465D01*
X70119Y-58467D01*
X70082Y-58492D01*
X70049Y-58514D01*
X70022Y-58531D01*
X70003Y-58543D01*
X69993Y-58548D01*
X69993Y-58548D01*
X69982Y-58545D01*
X69960Y-58537D01*
X69932Y-58526D01*
X69900Y-58513D01*
X69867Y-58500D01*
X69837Y-58486D01*
X69813Y-58475D01*
X69798Y-58467D01*
X69795Y-58465D01*
X69791Y-58456D01*
X69786Y-58436D01*
X69779Y-58406D01*
X69771Y-58370D01*
X69763Y-58331D01*
X69754Y-58291D01*
X69747Y-58252D01*
X69740Y-58218D01*
X69736Y-58192D01*
X69734Y-58175D01*
X69734Y-58173D01*
X69727Y-58171D01*
X69707Y-58169D01*
X69677Y-58168D01*
X69638Y-58167D01*
X69592Y-58166D01*
X69584Y-58166D01*
X69534Y-58166D01*
X69496Y-58167D01*
X69470Y-58167D01*
X69451Y-58169D01*
X69441Y-58171D01*
X69435Y-58174D01*
X69432Y-58178D01*
X69431Y-58183D01*
X69428Y-58195D01*
X69424Y-58219D01*
X69417Y-58252D01*
X69410Y-58292D01*
X69403Y-58328D01*
X69395Y-58370D01*
X69387Y-58407D01*
X69381Y-58437D01*
X69375Y-58457D01*
X69372Y-58465D01*
X69362Y-58471D01*
X69342Y-58480D01*
X69314Y-58493D01*
X69283Y-58506D01*
X69250Y-58520D01*
X69220Y-58532D01*
X69194Y-58541D01*
X69177Y-58547D01*
X69173Y-58548D01*
X69164Y-58544D01*
X69146Y-58533D01*
X69119Y-58516D01*
X69087Y-58494D01*
X69050Y-58470D01*
X69046Y-58467D01*
X69009Y-58442D01*
X68976Y-58420D01*
X68950Y-58403D01*
X68931Y-58391D01*
X68922Y-58386D01*
X68922Y-58386D01*
X68915Y-58391D01*
X68900Y-58405D01*
X68877Y-58426D01*
X68850Y-58453D01*
X68818Y-58484D01*
X68813Y-58489D01*
X68778Y-58524D01*
X68753Y-58551D01*
X68735Y-58570D01*
X68724Y-58583D01*
X68718Y-58593D01*
X68717Y-58600D01*
X68719Y-58606D01*
X68722Y-58610D01*
X68729Y-58622D01*
X68744Y-58644D01*
X68763Y-58673D01*
X68786Y-58707D01*
X68805Y-58734D01*
X68877Y-58839D01*
X68835Y-58937D01*
X68820Y-58973D01*
X68806Y-59004D01*
X68795Y-59028D01*
X68788Y-59042D01*
X68787Y-59044D01*
X68777Y-59048D01*
X68756Y-59054D01*
X68726Y-59061D01*
X68688Y-59069D01*
X68654Y-59075D01*
X68611Y-59083D01*
X68573Y-59091D01*
X68542Y-59098D01*
X68520Y-59103D01*
X68511Y-59105D01*
X68505Y-59108D01*
X68501Y-59112D01*
X68498Y-59120D01*
X68496Y-59133D01*
X68495Y-59154D01*
X68494Y-59184D01*
X68494Y-59226D01*
X68494Y-59255D01*
X68494Y-59255D01*
X68494Y-59255D01*
G37*
G54D15*
X78414Y-58538D02*
X78428Y-58524D01*
X78442Y-58483D01*
X78442Y-58455D01*
X78428Y-58414D01*
X78400Y-58386D01*
X78373Y-58372D01*
X78318Y-58359D01*
X78276Y-58359D01*
X78221Y-58372D01*
X78193Y-58386D01*
X78166Y-58414D01*
X78152Y-58455D01*
X78152Y-58483D01*
X78166Y-58524D01*
X78180Y-58538D01*
X78152Y-58635D02*
X78152Y-58814D01*
X78262Y-58718D01*
X78262Y-58759D01*
X78276Y-58787D01*
X78290Y-58800D01*
X78318Y-58814D01*
X78387Y-58814D01*
X78414Y-58800D01*
X78428Y-58787D01*
X78442Y-58759D01*
X78442Y-58676D01*
X78428Y-58649D01*
X78414Y-58635D01*
X78276Y-58980D02*
X78262Y-58952D01*
X78249Y-58939D01*
X78221Y-58925D01*
X78207Y-58925D01*
X78180Y-58939D01*
X78166Y-58952D01*
X78152Y-58980D01*
X78152Y-59035D01*
X78166Y-59063D01*
X78180Y-59077D01*
X78207Y-59090D01*
X78221Y-59090D01*
X78249Y-59077D01*
X78262Y-59063D01*
X78276Y-59035D01*
X78276Y-58980D01*
X78290Y-58952D01*
X78304Y-58939D01*
X78331Y-58925D01*
X78387Y-58925D01*
X78414Y-58939D01*
X78428Y-58952D01*
X78442Y-58980D01*
X78442Y-59035D01*
X78428Y-59063D01*
X78414Y-59077D01*
X78387Y-59090D01*
X78331Y-59090D01*
X78304Y-59077D01*
X78290Y-59063D01*
X78276Y-59035D01*
X71914Y-56888D02*
X71928Y-56874D01*
X71942Y-56833D01*
X71942Y-56805D01*
X71928Y-56764D01*
X71900Y-56736D01*
X71873Y-56722D01*
X71818Y-56709D01*
X71776Y-56709D01*
X71721Y-56722D01*
X71693Y-56736D01*
X71666Y-56764D01*
X71652Y-56805D01*
X71652Y-56833D01*
X71666Y-56874D01*
X71680Y-56888D01*
X71749Y-57137D02*
X71942Y-57137D01*
X71638Y-57068D02*
X71845Y-56999D01*
X71845Y-57178D01*
X71652Y-57427D02*
X71652Y-57289D01*
X71790Y-57275D01*
X71776Y-57289D01*
X71762Y-57316D01*
X71762Y-57385D01*
X71776Y-57413D01*
X71790Y-57427D01*
X71818Y-57440D01*
X71887Y-57440D01*
X71914Y-57427D01*
X71928Y-57413D01*
X71942Y-57385D01*
X71942Y-57316D01*
X71928Y-57289D01*
X71914Y-57275D01*
X76062Y-54879D02*
X76076Y-54893D01*
X76117Y-54907D01*
X76145Y-54907D01*
X76186Y-54893D01*
X76214Y-54865D01*
X76228Y-54838D01*
X76241Y-54783D01*
X76241Y-54741D01*
X76228Y-54686D01*
X76214Y-54658D01*
X76186Y-54631D01*
X76145Y-54617D01*
X76117Y-54617D01*
X76076Y-54631D01*
X76062Y-54645D01*
X75813Y-54714D02*
X75813Y-54907D01*
X75882Y-54603D02*
X75951Y-54810D01*
X75772Y-54810D01*
X75537Y-54617D02*
X75592Y-54617D01*
X75620Y-54631D01*
X75634Y-54645D01*
X75661Y-54686D01*
X75675Y-54741D01*
X75675Y-54852D01*
X75661Y-54879D01*
X75648Y-54893D01*
X75620Y-54907D01*
X75565Y-54907D01*
X75537Y-54893D01*
X75523Y-54879D01*
X75510Y-54852D01*
X75510Y-54783D01*
X75523Y-54755D01*
X75537Y-54741D01*
X75565Y-54727D01*
X75620Y-54727D01*
X75648Y-54741D01*
X75661Y-54755D01*
X75675Y-54783D01*
X72920Y-55431D02*
X72934Y-55445D01*
X72975Y-55459D01*
X73003Y-55459D01*
X73044Y-55445D01*
X73072Y-55417D01*
X73086Y-55390D01*
X73099Y-55335D01*
X73099Y-55293D01*
X73086Y-55238D01*
X73072Y-55210D01*
X73044Y-55183D01*
X73003Y-55169D01*
X72975Y-55169D01*
X72934Y-55183D01*
X72920Y-55197D01*
X72671Y-55266D02*
X72671Y-55459D01*
X72740Y-55155D02*
X72809Y-55362D01*
X72630Y-55362D01*
X72547Y-55169D02*
X72354Y-55169D01*
X72478Y-55459D01*
X74994Y-58187D02*
X75008Y-58201D01*
X75049Y-58215D01*
X75077Y-58215D01*
X75118Y-58201D01*
X75146Y-58173D01*
X75160Y-58146D01*
X75173Y-58091D01*
X75173Y-58049D01*
X75160Y-57994D01*
X75146Y-57966D01*
X75118Y-57939D01*
X75077Y-57925D01*
X75049Y-57925D01*
X75008Y-57939D01*
X74994Y-57953D01*
X74745Y-58022D02*
X74745Y-58215D01*
X74814Y-57911D02*
X74883Y-58118D01*
X74704Y-58118D01*
X74621Y-57925D02*
X74442Y-57925D01*
X74538Y-58035D01*
X74497Y-58035D01*
X74469Y-58049D01*
X74455Y-58063D01*
X74442Y-58091D01*
X74442Y-58160D01*
X74455Y-58187D01*
X74469Y-58201D01*
X74497Y-58215D01*
X74580Y-58215D01*
X74607Y-58201D01*
X74621Y-58187D01*
X73387Y-56785D02*
X73401Y-56771D01*
X73415Y-56730D01*
X73415Y-56702D01*
X73401Y-56661D01*
X73373Y-56633D01*
X73346Y-56619D01*
X73291Y-56606D01*
X73249Y-56606D01*
X73194Y-56619D01*
X73166Y-56633D01*
X73139Y-56661D01*
X73125Y-56702D01*
X73125Y-56730D01*
X73139Y-56771D01*
X73153Y-56785D01*
X73222Y-57034D02*
X73415Y-57034D01*
X73111Y-56965D02*
X73318Y-56896D01*
X73318Y-57075D01*
X73222Y-57310D02*
X73415Y-57310D01*
X73111Y-57241D02*
X73318Y-57172D01*
X73318Y-57351D01*
X75714Y-55588D02*
X75728Y-55574D01*
X75742Y-55533D01*
X75742Y-55505D01*
X75728Y-55464D01*
X75700Y-55436D01*
X75673Y-55422D01*
X75618Y-55409D01*
X75576Y-55409D01*
X75521Y-55422D01*
X75493Y-55436D01*
X75466Y-55464D01*
X75452Y-55505D01*
X75452Y-55533D01*
X75466Y-55574D01*
X75480Y-55588D01*
X75549Y-55837D02*
X75742Y-55837D01*
X75438Y-55768D02*
X75645Y-55699D01*
X75645Y-55878D01*
X75742Y-56002D02*
X75742Y-56058D01*
X75728Y-56085D01*
X75714Y-56099D01*
X75673Y-56127D01*
X75618Y-56140D01*
X75507Y-56140D01*
X75480Y-56127D01*
X75466Y-56113D01*
X75452Y-56085D01*
X75452Y-56030D01*
X75466Y-56002D01*
X75480Y-55989D01*
X75507Y-55975D01*
X75576Y-55975D01*
X75604Y-55989D01*
X75618Y-56002D01*
X75631Y-56030D01*
X75631Y-56085D01*
X75618Y-56113D01*
X75604Y-56127D01*
X75576Y-56140D01*
X75833Y-56824D02*
X75847Y-56810D01*
X75861Y-56769D01*
X75861Y-56741D01*
X75847Y-56700D01*
X75819Y-56672D01*
X75792Y-56658D01*
X75737Y-56645D01*
X75695Y-56645D01*
X75640Y-56658D01*
X75612Y-56672D01*
X75585Y-56700D01*
X75571Y-56741D01*
X75571Y-56769D01*
X75585Y-56810D01*
X75599Y-56824D01*
X75668Y-57073D02*
X75861Y-57073D01*
X75557Y-57004D02*
X75764Y-56935D01*
X75764Y-57114D01*
X75695Y-57266D02*
X75681Y-57238D01*
X75668Y-57225D01*
X75640Y-57211D01*
X75626Y-57211D01*
X75599Y-57225D01*
X75585Y-57238D01*
X75571Y-57266D01*
X75571Y-57321D01*
X75585Y-57349D01*
X75599Y-57363D01*
X75626Y-57376D01*
X75640Y-57376D01*
X75668Y-57363D01*
X75681Y-57349D01*
X75695Y-57321D01*
X75695Y-57266D01*
X75709Y-57238D01*
X75723Y-57225D01*
X75750Y-57211D01*
X75806Y-57211D01*
X75833Y-57225D01*
X75847Y-57238D01*
X75861Y-57266D01*
X75861Y-57321D01*
X75847Y-57349D01*
X75833Y-57363D01*
X75806Y-57376D01*
X75750Y-57376D01*
X75723Y-57363D01*
X75709Y-57349D01*
X75695Y-57321D01*
X69290Y-44498D02*
X69304Y-44484D01*
X69318Y-44443D01*
X69318Y-44415D01*
X69304Y-44374D01*
X69276Y-44346D01*
X69249Y-44332D01*
X69194Y-44319D01*
X69152Y-44319D01*
X69097Y-44332D01*
X69069Y-44346D01*
X69042Y-44374D01*
X69028Y-44415D01*
X69028Y-44443D01*
X69042Y-44484D01*
X69056Y-44498D01*
X69028Y-44595D02*
X69028Y-44774D01*
X69138Y-44678D01*
X69138Y-44719D01*
X69152Y-44747D01*
X69166Y-44760D01*
X69194Y-44774D01*
X69263Y-44774D01*
X69290Y-44760D01*
X69304Y-44747D01*
X69318Y-44719D01*
X69318Y-44636D01*
X69304Y-44609D01*
X69290Y-44595D01*
X69028Y-44871D02*
X69028Y-45064D01*
X69318Y-44940D01*
X71622Y-44189D02*
X71719Y-44051D01*
X71788Y-44189D02*
X71788Y-43899D01*
X71677Y-43899D01*
X71650Y-43913D01*
X71636Y-43927D01*
X71622Y-43954D01*
X71622Y-43996D01*
X71636Y-44023D01*
X71650Y-44037D01*
X71677Y-44051D01*
X71788Y-44051D01*
X71511Y-43927D02*
X71498Y-43913D01*
X71470Y-43899D01*
X71401Y-43899D01*
X71373Y-43913D01*
X71360Y-43927D01*
X71346Y-43954D01*
X71346Y-43982D01*
X71360Y-44023D01*
X71525Y-44189D01*
X71346Y-44189D01*
X71070Y-44189D02*
X71235Y-44189D01*
X71152Y-44189D02*
X71152Y-43899D01*
X71180Y-43940D01*
X71208Y-43968D01*
X71235Y-43982D01*
X73367Y-59358D02*
X73464Y-59220D01*
X73533Y-59358D02*
X73533Y-59068D01*
X73422Y-59068D01*
X73395Y-59082D01*
X73381Y-59096D01*
X73367Y-59123D01*
X73367Y-59165D01*
X73381Y-59192D01*
X73395Y-59206D01*
X73422Y-59220D01*
X73533Y-59220D01*
X73091Y-59358D02*
X73256Y-59358D01*
X73174Y-59358D02*
X73174Y-59068D01*
X73201Y-59109D01*
X73229Y-59137D01*
X73256Y-59151D01*
X72842Y-59068D02*
X72897Y-59068D01*
X72925Y-59082D01*
X72939Y-59096D01*
X72966Y-59137D01*
X72980Y-59192D01*
X72980Y-59303D01*
X72966Y-59330D01*
X72953Y-59344D01*
X72925Y-59358D01*
X72870Y-59358D01*
X72842Y-59344D01*
X72828Y-59330D01*
X72815Y-59303D01*
X72815Y-59234D01*
X72828Y-59206D01*
X72842Y-59192D01*
X72870Y-59178D01*
X72925Y-59178D01*
X72953Y-59192D01*
X72966Y-59206D01*
X72980Y-59234D01*
X70223Y-56972D02*
X70085Y-56875D01*
X70223Y-56806D02*
X69933Y-56806D01*
X69933Y-56917D01*
X69947Y-56944D01*
X69961Y-56958D01*
X69988Y-56972D01*
X70030Y-56972D01*
X70057Y-56958D01*
X70071Y-56944D01*
X70085Y-56917D01*
X70085Y-56806D01*
X70223Y-57248D02*
X70223Y-57083D01*
X70223Y-57165D02*
X69933Y-57165D01*
X69974Y-57138D01*
X70002Y-57110D01*
X70016Y-57083D01*
X69933Y-57345D02*
X69933Y-57538D01*
X70223Y-57414D01*
X70061Y-53867D02*
X70158Y-53729D01*
X70227Y-53867D02*
X70227Y-53577D01*
X70116Y-53577D01*
X70089Y-53591D01*
X70075Y-53605D01*
X70061Y-53632D01*
X70061Y-53674D01*
X70075Y-53701D01*
X70089Y-53715D01*
X70116Y-53729D01*
X70227Y-53729D01*
X69785Y-53867D02*
X69950Y-53867D01*
X69868Y-53867D02*
X69868Y-53577D01*
X69895Y-53618D01*
X69923Y-53646D01*
X69950Y-53660D01*
X69619Y-53701D02*
X69647Y-53687D01*
X69660Y-53674D01*
X69674Y-53646D01*
X69674Y-53632D01*
X69660Y-53605D01*
X69647Y-53591D01*
X69619Y-53577D01*
X69564Y-53577D01*
X69536Y-53591D01*
X69522Y-53605D01*
X69509Y-53632D01*
X69509Y-53646D01*
X69522Y-53674D01*
X69536Y-53687D01*
X69564Y-53701D01*
X69619Y-53701D01*
X69647Y-53715D01*
X69660Y-53729D01*
X69674Y-53756D01*
X69674Y-53812D01*
X69660Y-53839D01*
X69647Y-53853D01*
X69619Y-53867D01*
X69564Y-53867D01*
X69536Y-53853D01*
X69522Y-53839D01*
X69509Y-53812D01*
X69509Y-53756D01*
X69522Y-53729D01*
X69536Y-53715D01*
X69564Y-53701D01*
X76558Y-53291D02*
X76572Y-53277D01*
X76586Y-53236D01*
X76586Y-53208D01*
X76572Y-53167D01*
X76544Y-53139D01*
X76517Y-53125D01*
X76462Y-53112D01*
X76420Y-53112D01*
X76365Y-53125D01*
X76337Y-53139D01*
X76310Y-53167D01*
X76296Y-53208D01*
X76296Y-53236D01*
X76310Y-53277D01*
X76324Y-53291D01*
X76296Y-53388D02*
X76296Y-53567D01*
X76406Y-53471D01*
X76406Y-53512D01*
X76420Y-53540D01*
X76434Y-53553D01*
X76462Y-53567D01*
X76531Y-53567D01*
X76558Y-53553D01*
X76572Y-53540D01*
X76586Y-53512D01*
X76586Y-53429D01*
X76572Y-53402D01*
X76558Y-53388D01*
X76586Y-53705D02*
X76586Y-53761D01*
X76572Y-53788D01*
X76558Y-53802D01*
X76517Y-53830D01*
X76462Y-53843D01*
X76351Y-53843D01*
X76324Y-53830D01*
X76310Y-53816D01*
X76296Y-53788D01*
X76296Y-53733D01*
X76310Y-53705D01*
X76324Y-53692D01*
X76351Y-53678D01*
X76420Y-53678D01*
X76448Y-53692D01*
X76462Y-53705D01*
X76475Y-53733D01*
X76475Y-53788D01*
X76462Y-53816D01*
X76448Y-53830D01*
X76420Y-53843D01*
X68146Y-62303D02*
X68243Y-62165D01*
X68312Y-62303D02*
X68312Y-62013D01*
X68201Y-62013D01*
X68174Y-62027D01*
X68160Y-62041D01*
X68146Y-62068D01*
X68146Y-62110D01*
X68160Y-62137D01*
X68174Y-62151D01*
X68201Y-62165D01*
X68312Y-62165D01*
X67870Y-62303D02*
X68035Y-62303D01*
X67953Y-62303D02*
X67953Y-62013D01*
X67980Y-62054D01*
X68008Y-62082D01*
X68035Y-62096D01*
X67607Y-62013D02*
X67745Y-62013D01*
X67759Y-62151D01*
X67745Y-62137D01*
X67718Y-62123D01*
X67649Y-62123D01*
X67621Y-62137D01*
X67607Y-62151D01*
X67594Y-62179D01*
X67594Y-62248D01*
X67607Y-62275D01*
X67621Y-62289D01*
X67649Y-62303D01*
X67718Y-62303D01*
X67745Y-62289D01*
X67759Y-62275D01*
X70516Y-62761D02*
X70613Y-62623D01*
X70682Y-62761D02*
X70682Y-62471D01*
X70571Y-62471D01*
X70544Y-62485D01*
X70530Y-62499D01*
X70516Y-62526D01*
X70516Y-62568D01*
X70530Y-62595D01*
X70544Y-62609D01*
X70571Y-62623D01*
X70682Y-62623D01*
X70240Y-62761D02*
X70405Y-62761D01*
X70323Y-62761D02*
X70323Y-62471D01*
X70350Y-62512D01*
X70378Y-62540D01*
X70405Y-62554D01*
X69991Y-62568D02*
X69991Y-62761D01*
X70060Y-62457D02*
X70129Y-62664D01*
X69950Y-62664D01*
X68694Y-61811D02*
X68708Y-61825D01*
X68749Y-61839D01*
X68777Y-61839D01*
X68818Y-61825D01*
X68846Y-61797D01*
X68860Y-61770D01*
X68873Y-61715D01*
X68873Y-61673D01*
X68860Y-61618D01*
X68846Y-61590D01*
X68818Y-61563D01*
X68777Y-61549D01*
X68749Y-61549D01*
X68708Y-61563D01*
X68694Y-61577D01*
X68583Y-61577D02*
X68570Y-61563D01*
X68542Y-61549D01*
X68473Y-61549D01*
X68445Y-61563D01*
X68432Y-61577D01*
X68418Y-61604D01*
X68418Y-61632D01*
X68432Y-61673D01*
X68597Y-61839D01*
X68418Y-61839D01*
X68169Y-61549D02*
X68224Y-61549D01*
X68252Y-61563D01*
X68266Y-61577D01*
X68293Y-61618D01*
X68307Y-61673D01*
X68307Y-61784D01*
X68293Y-61811D01*
X68280Y-61825D01*
X68252Y-61839D01*
X68197Y-61839D01*
X68169Y-61825D01*
X68155Y-61811D01*
X68142Y-61784D01*
X68142Y-61715D01*
X68155Y-61687D01*
X68169Y-61673D01*
X68197Y-61659D01*
X68252Y-61659D01*
X68280Y-61673D01*
X68293Y-61687D01*
X68307Y-61715D01*
X72611Y-55989D02*
X72625Y-56003D01*
X72666Y-56017D01*
X72694Y-56017D01*
X72735Y-56003D01*
X72763Y-55975D01*
X72777Y-55948D01*
X72790Y-55893D01*
X72790Y-55851D01*
X72777Y-55796D01*
X72763Y-55768D01*
X72735Y-55741D01*
X72694Y-55727D01*
X72666Y-55727D01*
X72625Y-55741D01*
X72611Y-55755D01*
X72349Y-55727D02*
X72487Y-55727D01*
X72500Y-55865D01*
X72487Y-55851D01*
X72459Y-55837D01*
X72390Y-55837D01*
X72362Y-55851D01*
X72349Y-55865D01*
X72335Y-55893D01*
X72335Y-55962D01*
X72349Y-55989D01*
X72362Y-56003D01*
X72390Y-56017D01*
X72459Y-56017D01*
X72487Y-56003D01*
X72500Y-55989D01*
X72086Y-55727D02*
X72141Y-55727D01*
X72169Y-55741D01*
X72183Y-55755D01*
X72210Y-55796D01*
X72224Y-55851D01*
X72224Y-55962D01*
X72210Y-55989D01*
X72197Y-56003D01*
X72169Y-56017D01*
X72114Y-56017D01*
X72086Y-56003D01*
X72072Y-55989D01*
X72059Y-55962D01*
X72059Y-55893D01*
X72072Y-55865D01*
X72086Y-55851D01*
X72114Y-55837D01*
X72169Y-55837D01*
X72197Y-55851D01*
X72210Y-55865D01*
X72224Y-55893D01*
X73122Y-58163D02*
X73136Y-58177D01*
X73177Y-58191D01*
X73205Y-58191D01*
X73246Y-58177D01*
X73274Y-58149D01*
X73288Y-58122D01*
X73301Y-58067D01*
X73301Y-58025D01*
X73288Y-57970D01*
X73274Y-57942D01*
X73246Y-57915D01*
X73205Y-57901D01*
X73177Y-57901D01*
X73136Y-57915D01*
X73122Y-57929D01*
X72860Y-57901D02*
X72998Y-57901D01*
X73011Y-58039D01*
X72998Y-58025D01*
X72970Y-58011D01*
X72901Y-58011D01*
X72873Y-58025D01*
X72860Y-58039D01*
X72846Y-58067D01*
X72846Y-58136D01*
X72860Y-58163D01*
X72873Y-58177D01*
X72901Y-58191D01*
X72970Y-58191D01*
X72998Y-58177D01*
X73011Y-58163D01*
X72749Y-57901D02*
X72556Y-57901D01*
X72680Y-58191D01*
X73986Y-58623D02*
X74000Y-58637D01*
X74041Y-58651D01*
X74069Y-58651D01*
X74110Y-58637D01*
X74138Y-58609D01*
X74152Y-58582D01*
X74165Y-58527D01*
X74165Y-58485D01*
X74152Y-58430D01*
X74138Y-58402D01*
X74110Y-58375D01*
X74069Y-58361D01*
X74041Y-58361D01*
X74000Y-58375D01*
X73986Y-58389D01*
X73724Y-58361D02*
X73862Y-58361D01*
X73875Y-58499D01*
X73862Y-58485D01*
X73834Y-58471D01*
X73765Y-58471D01*
X73737Y-58485D01*
X73724Y-58499D01*
X73710Y-58527D01*
X73710Y-58596D01*
X73724Y-58623D01*
X73737Y-58637D01*
X73765Y-58651D01*
X73834Y-58651D01*
X73862Y-58637D01*
X73875Y-58623D01*
X73544Y-58485D02*
X73572Y-58471D01*
X73585Y-58458D01*
X73599Y-58430D01*
X73599Y-58416D01*
X73585Y-58389D01*
X73572Y-58375D01*
X73544Y-58361D01*
X73489Y-58361D01*
X73461Y-58375D01*
X73447Y-58389D01*
X73434Y-58416D01*
X73434Y-58430D01*
X73447Y-58458D01*
X73461Y-58471D01*
X73489Y-58485D01*
X73544Y-58485D01*
X73572Y-58499D01*
X73585Y-58513D01*
X73599Y-58540D01*
X73599Y-58596D01*
X73585Y-58623D01*
X73572Y-58637D01*
X73544Y-58651D01*
X73489Y-58651D01*
X73461Y-58637D01*
X73447Y-58623D01*
X73434Y-58596D01*
X73434Y-58540D01*
X73447Y-58513D01*
X73461Y-58499D01*
X73489Y-58485D01*
X74136Y-54964D02*
X74150Y-54978D01*
X74191Y-54992D01*
X74219Y-54992D01*
X74260Y-54978D01*
X74288Y-54950D01*
X74302Y-54923D01*
X74315Y-54868D01*
X74315Y-54826D01*
X74302Y-54771D01*
X74288Y-54743D01*
X74260Y-54716D01*
X74219Y-54702D01*
X74191Y-54702D01*
X74150Y-54716D01*
X74136Y-54730D01*
X73874Y-54702D02*
X74012Y-54702D01*
X74025Y-54840D01*
X74012Y-54826D01*
X73984Y-54812D01*
X73915Y-54812D01*
X73887Y-54826D01*
X73874Y-54840D01*
X73860Y-54868D01*
X73860Y-54937D01*
X73874Y-54964D01*
X73887Y-54978D01*
X73915Y-54992D01*
X73984Y-54992D01*
X74012Y-54978D01*
X74025Y-54964D01*
X73611Y-54799D02*
X73611Y-54992D01*
X73680Y-54688D02*
X73749Y-54895D01*
X73570Y-54895D01*
X73711Y-54542D02*
X73808Y-54404D01*
X73877Y-54542D02*
X73877Y-54252D01*
X73766Y-54252D01*
X73739Y-54266D01*
X73725Y-54280D01*
X73711Y-54307D01*
X73711Y-54349D01*
X73725Y-54376D01*
X73739Y-54390D01*
X73766Y-54404D01*
X73877Y-54404D01*
X73600Y-54280D02*
X73587Y-54266D01*
X73559Y-54252D01*
X73490Y-54252D01*
X73462Y-54266D01*
X73449Y-54280D01*
X73435Y-54307D01*
X73435Y-54335D01*
X73449Y-54376D01*
X73614Y-54542D01*
X73435Y-54542D01*
X73324Y-54280D02*
X73310Y-54266D01*
X73283Y-54252D01*
X73214Y-54252D01*
X73186Y-54266D01*
X73172Y-54280D01*
X73159Y-54307D01*
X73159Y-54335D01*
X73172Y-54376D01*
X73338Y-54542D01*
X73159Y-54542D01*
X71073Y-46542D02*
X71170Y-46404D01*
X71239Y-46542D02*
X71239Y-46252D01*
X71128Y-46252D01*
X71100Y-46266D01*
X71087Y-46280D01*
X71073Y-46307D01*
X71073Y-46349D01*
X71087Y-46376D01*
X71100Y-46390D01*
X71128Y-46404D01*
X71239Y-46404D01*
X70810Y-46252D02*
X70949Y-46252D01*
X70962Y-46390D01*
X70949Y-46376D01*
X70921Y-46362D01*
X70852Y-46362D01*
X70824Y-46376D01*
X70810Y-46390D01*
X70797Y-46418D01*
X70797Y-46487D01*
X70810Y-46514D01*
X70824Y-46528D01*
X70852Y-46542D01*
X70921Y-46542D01*
X70949Y-46528D01*
X70962Y-46514D01*
X75673Y-61317D02*
X75770Y-61179D01*
X75839Y-61317D02*
X75839Y-61027D01*
X75728Y-61027D01*
X75700Y-61041D01*
X75687Y-61055D01*
X75673Y-61082D01*
X75673Y-61124D01*
X75687Y-61151D01*
X75700Y-61165D01*
X75728Y-61179D01*
X75839Y-61179D01*
X75507Y-61151D02*
X75535Y-61137D01*
X75549Y-61124D01*
X75562Y-61096D01*
X75562Y-61082D01*
X75549Y-61055D01*
X75535Y-61041D01*
X75507Y-61027D01*
X75452Y-61027D01*
X75424Y-61041D01*
X75410Y-61055D01*
X75397Y-61082D01*
X75397Y-61096D01*
X75410Y-61124D01*
X75424Y-61137D01*
X75452Y-61151D01*
X75507Y-61151D01*
X75535Y-61165D01*
X75549Y-61179D01*
X75562Y-61206D01*
X75562Y-61262D01*
X75549Y-61289D01*
X75535Y-61303D01*
X75507Y-61317D01*
X75452Y-61317D01*
X75424Y-61303D01*
X75410Y-61289D01*
X75397Y-61262D01*
X75397Y-61206D01*
X75410Y-61179D01*
X75424Y-61165D01*
X75452Y-61151D01*
X76780Y-62060D02*
X76877Y-61922D01*
X76946Y-62060D02*
X76946Y-61770D01*
X76835Y-61770D01*
X76808Y-61784D01*
X76794Y-61798D01*
X76780Y-61825D01*
X76780Y-61867D01*
X76794Y-61894D01*
X76808Y-61908D01*
X76835Y-61922D01*
X76946Y-61922D01*
X76504Y-62060D02*
X76669Y-62060D01*
X76587Y-62060D02*
X76587Y-61770D01*
X76614Y-61811D01*
X76642Y-61839D01*
X76669Y-61853D01*
X76324Y-61770D02*
X76297Y-61770D01*
X76269Y-61784D01*
X76255Y-61798D01*
X76241Y-61825D01*
X76228Y-61880D01*
X76228Y-61949D01*
X76241Y-62005D01*
X76255Y-62032D01*
X76269Y-62046D01*
X76297Y-62060D01*
X76324Y-62060D01*
X76352Y-62046D01*
X76366Y-62032D01*
X76379Y-62005D01*
X76393Y-61949D01*
X76393Y-61880D01*
X76379Y-61825D01*
X76366Y-61798D01*
X76352Y-61784D01*
X76324Y-61770D01*
X67267Y-54033D02*
X67567Y-54233D01*
X67267Y-54233D02*
X67567Y-54033D01*
X67296Y-54333D02*
X67281Y-54347D01*
X67267Y-54376D01*
X67267Y-54447D01*
X67281Y-54476D01*
X67296Y-54490D01*
X67324Y-54504D01*
X67353Y-54504D01*
X67396Y-54490D01*
X67567Y-54318D01*
X67567Y-54504D01*
X77534Y-61787D02*
X77548Y-61773D01*
X77562Y-61732D01*
X77562Y-61704D01*
X77548Y-61663D01*
X77520Y-61635D01*
X77493Y-61621D01*
X77438Y-61608D01*
X77396Y-61608D01*
X77341Y-61621D01*
X77313Y-61635D01*
X77286Y-61663D01*
X77272Y-61704D01*
X77272Y-61732D01*
X77286Y-61773D01*
X77300Y-61787D01*
X77300Y-61898D02*
X77286Y-61911D01*
X77272Y-61939D01*
X77272Y-62008D01*
X77286Y-62036D01*
X77300Y-62049D01*
X77327Y-62063D01*
X77355Y-62063D01*
X77396Y-62049D01*
X77562Y-61884D01*
X77562Y-62063D01*
X77300Y-62174D02*
X77286Y-62188D01*
X77272Y-62215D01*
X77272Y-62284D01*
X77286Y-62312D01*
X77300Y-62326D01*
X77327Y-62339D01*
X77355Y-62339D01*
X77396Y-62326D01*
X77562Y-62160D01*
X77562Y-62339D01*
X76850Y-44501D02*
X76864Y-44487D01*
X76878Y-44446D01*
X76878Y-44418D01*
X76864Y-44377D01*
X76836Y-44349D01*
X76809Y-44335D01*
X76754Y-44322D01*
X76712Y-44322D01*
X76657Y-44335D01*
X76629Y-44349D01*
X76602Y-44377D01*
X76588Y-44418D01*
X76588Y-44446D01*
X76602Y-44487D01*
X76616Y-44501D01*
X76588Y-44598D02*
X76588Y-44777D01*
X76698Y-44681D01*
X76698Y-44722D01*
X76712Y-44750D01*
X76726Y-44764D01*
X76754Y-44777D01*
X76823Y-44777D01*
X76850Y-44764D01*
X76864Y-44750D01*
X76878Y-44722D01*
X76878Y-44639D01*
X76864Y-44612D01*
X76850Y-44598D01*
X74874Y-61092D02*
X74888Y-61106D01*
X74929Y-61120D01*
X74957Y-61120D01*
X74998Y-61106D01*
X75026Y-61079D01*
X75040Y-61051D01*
X75053Y-60996D01*
X75053Y-60954D01*
X75040Y-60899D01*
X75026Y-60871D01*
X74998Y-60844D01*
X74957Y-60830D01*
X74929Y-60830D01*
X74888Y-60844D01*
X74874Y-60858D01*
X74763Y-60858D02*
X74750Y-60844D01*
X74722Y-60830D01*
X74653Y-60830D01*
X74625Y-60844D01*
X74612Y-60858D01*
X74598Y-60885D01*
X74598Y-60913D01*
X74612Y-60954D01*
X74777Y-61120D01*
X74598Y-61120D01*
X74418Y-60830D02*
X74391Y-60830D01*
X74363Y-60844D01*
X74349Y-60858D01*
X74335Y-60885D01*
X74322Y-60941D01*
X74322Y-61010D01*
X74335Y-61065D01*
X74349Y-61092D01*
X74363Y-61106D01*
X74391Y-61120D01*
X74418Y-61120D01*
X74446Y-61106D01*
X74460Y-61092D01*
X74473Y-61065D01*
X74487Y-61010D01*
X74487Y-60941D01*
X74473Y-60885D01*
X74460Y-60858D01*
X74446Y-60844D01*
X74418Y-60830D01*
X68936Y-56264D02*
X68950Y-56278D01*
X68991Y-56292D01*
X69019Y-56292D01*
X69060Y-56278D01*
X69088Y-56250D01*
X69102Y-56223D01*
X69115Y-56168D01*
X69115Y-56126D01*
X69102Y-56071D01*
X69088Y-56043D01*
X69060Y-56016D01*
X69019Y-56002D01*
X68991Y-56002D01*
X68950Y-56016D01*
X68936Y-56030D01*
X68825Y-56030D02*
X68812Y-56016D01*
X68784Y-56002D01*
X68715Y-56002D01*
X68687Y-56016D01*
X68674Y-56030D01*
X68660Y-56057D01*
X68660Y-56085D01*
X68674Y-56126D01*
X68839Y-56292D01*
X68660Y-56292D01*
X68563Y-56002D02*
X68370Y-56002D01*
X68494Y-56292D01*
X68061Y-55639D02*
X68075Y-55653D01*
X68116Y-55667D01*
X68144Y-55667D01*
X68185Y-55653D01*
X68213Y-55625D01*
X68227Y-55598D01*
X68240Y-55543D01*
X68240Y-55501D01*
X68227Y-55446D01*
X68213Y-55418D01*
X68185Y-55391D01*
X68144Y-55377D01*
X68116Y-55377D01*
X68075Y-55391D01*
X68061Y-55405D01*
X67950Y-55405D02*
X67937Y-55391D01*
X67909Y-55377D01*
X67840Y-55377D01*
X67812Y-55391D01*
X67799Y-55405D01*
X67785Y-55432D01*
X67785Y-55460D01*
X67799Y-55501D01*
X67964Y-55667D01*
X67785Y-55667D01*
X67619Y-55501D02*
X67647Y-55487D01*
X67660Y-55474D01*
X67674Y-55446D01*
X67674Y-55432D01*
X67660Y-55405D01*
X67647Y-55391D01*
X67619Y-55377D01*
X67564Y-55377D01*
X67536Y-55391D01*
X67522Y-55405D01*
X67509Y-55432D01*
X67509Y-55446D01*
X67522Y-55474D01*
X67536Y-55487D01*
X67564Y-55501D01*
X67619Y-55501D01*
X67647Y-55515D01*
X67660Y-55529D01*
X67674Y-55556D01*
X67674Y-55612D01*
X67660Y-55639D01*
X67647Y-55653D01*
X67619Y-55667D01*
X67564Y-55667D01*
X67536Y-55653D01*
X67522Y-55639D01*
X67509Y-55612D01*
X67509Y-55556D01*
X67522Y-55529D01*
X67536Y-55515D01*
X67564Y-55501D01*
X69107Y-53015D02*
X69121Y-53029D01*
X69162Y-53043D01*
X69190Y-53043D01*
X69231Y-53029D01*
X69259Y-53001D01*
X69273Y-52974D01*
X69286Y-52919D01*
X69286Y-52877D01*
X69273Y-52822D01*
X69259Y-52794D01*
X69231Y-52767D01*
X69190Y-52753D01*
X69162Y-52753D01*
X69121Y-52767D01*
X69107Y-52781D01*
X68996Y-52781D02*
X68983Y-52767D01*
X68955Y-52753D01*
X68886Y-52753D01*
X68858Y-52767D01*
X68845Y-52781D01*
X68831Y-52808D01*
X68831Y-52836D01*
X68845Y-52877D01*
X69010Y-53043D01*
X68831Y-53043D01*
X68693Y-53043D02*
X68637Y-53043D01*
X68610Y-53029D01*
X68596Y-53015D01*
X68568Y-52974D01*
X68555Y-52919D01*
X68555Y-52808D01*
X68568Y-52781D01*
X68582Y-52767D01*
X68610Y-52753D01*
X68665Y-52753D01*
X68693Y-52767D01*
X68706Y-52781D01*
X68720Y-52808D01*
X68720Y-52877D01*
X68706Y-52905D01*
X68693Y-52919D01*
X68665Y-52932D01*
X68610Y-52932D01*
X68582Y-52919D01*
X68568Y-52905D01*
X68555Y-52877D01*
X74760Y-47078D02*
X74774Y-47092D01*
X74815Y-47106D01*
X74843Y-47106D01*
X74884Y-47092D01*
X74912Y-47064D01*
X74926Y-47037D01*
X74939Y-46982D01*
X74939Y-46940D01*
X74926Y-46885D01*
X74912Y-46857D01*
X74884Y-46830D01*
X74843Y-46816D01*
X74815Y-46816D01*
X74774Y-46830D01*
X74760Y-46844D01*
X74484Y-47106D02*
X74649Y-47106D01*
X74567Y-47106D02*
X74567Y-46816D01*
X74594Y-46857D01*
X74622Y-46885D01*
X74649Y-46899D01*
X74235Y-46816D02*
X74290Y-46816D01*
X74318Y-46830D01*
X74332Y-46844D01*
X74359Y-46885D01*
X74373Y-46940D01*
X74373Y-47051D01*
X74359Y-47078D01*
X74346Y-47092D01*
X74318Y-47106D01*
X74263Y-47106D01*
X74235Y-47092D01*
X74221Y-47078D01*
X74208Y-47051D01*
X74208Y-46982D01*
X74221Y-46954D01*
X74235Y-46940D01*
X74263Y-46926D01*
X74318Y-46926D01*
X74346Y-46940D01*
X74359Y-46954D01*
X74373Y-46982D01*
X69011Y-44142D02*
X69108Y-44004D01*
X69177Y-44142D02*
X69177Y-43852D01*
X69066Y-43852D01*
X69039Y-43866D01*
X69025Y-43880D01*
X69011Y-43907D01*
X69011Y-43949D01*
X69025Y-43976D01*
X69039Y-43990D01*
X69066Y-44004D01*
X69177Y-44004D01*
X68914Y-43852D02*
X68735Y-43852D01*
X68831Y-43962D01*
X68790Y-43962D01*
X68762Y-43976D01*
X68749Y-43990D01*
X68735Y-44018D01*
X68735Y-44087D01*
X68749Y-44114D01*
X68762Y-44128D01*
X68790Y-44142D01*
X68873Y-44142D01*
X68900Y-44128D01*
X68914Y-44114D01*
X68555Y-43852D02*
X68528Y-43852D01*
X68500Y-43866D01*
X68486Y-43880D01*
X68472Y-43907D01*
X68459Y-43962D01*
X68459Y-44031D01*
X68472Y-44087D01*
X68486Y-44114D01*
X68500Y-44128D01*
X68528Y-44142D01*
X68555Y-44142D01*
X68583Y-44128D01*
X68597Y-44114D01*
X68610Y-44087D01*
X68624Y-44031D01*
X68624Y-43962D01*
X68610Y-43907D01*
X68597Y-43880D01*
X68583Y-43866D01*
X68555Y-43852D01*
X69927Y-46667D02*
X69941Y-46681D01*
X69982Y-46695D01*
X70010Y-46695D01*
X70051Y-46681D01*
X70079Y-46653D01*
X70093Y-46626D01*
X70106Y-46571D01*
X70106Y-46529D01*
X70093Y-46474D01*
X70079Y-46446D01*
X70051Y-46419D01*
X70010Y-46405D01*
X69982Y-46405D01*
X69941Y-46419D01*
X69927Y-46433D01*
X69651Y-46695D02*
X69816Y-46695D01*
X69734Y-46695D02*
X69734Y-46405D01*
X69761Y-46446D01*
X69789Y-46474D01*
X69816Y-46488D01*
X69554Y-46405D02*
X69375Y-46405D01*
X69471Y-46515D01*
X69430Y-46515D01*
X69402Y-46529D01*
X69388Y-46543D01*
X69375Y-46571D01*
X69375Y-46640D01*
X69388Y-46667D01*
X69402Y-46681D01*
X69430Y-46695D01*
X69513Y-46695D01*
X69540Y-46681D01*
X69554Y-46667D01*
X68082Y-57326D02*
X68179Y-57188D01*
X68248Y-57326D02*
X68248Y-57036D01*
X68137Y-57036D01*
X68110Y-57050D01*
X68096Y-57064D01*
X68082Y-57091D01*
X68082Y-57133D01*
X68096Y-57160D01*
X68110Y-57174D01*
X68137Y-57188D01*
X68248Y-57188D01*
X67985Y-57036D02*
X67806Y-57036D01*
X67902Y-57146D01*
X67861Y-57146D01*
X67833Y-57160D01*
X67820Y-57174D01*
X67806Y-57202D01*
X67806Y-57271D01*
X67820Y-57298D01*
X67833Y-57312D01*
X67861Y-57326D01*
X67944Y-57326D01*
X67971Y-57312D01*
X67985Y-57298D01*
X67709Y-57036D02*
X67530Y-57036D01*
X67626Y-57146D01*
X67585Y-57146D01*
X67557Y-57160D01*
X67543Y-57174D01*
X67530Y-57202D01*
X67530Y-57271D01*
X67543Y-57298D01*
X67557Y-57312D01*
X67585Y-57326D01*
X67668Y-57326D01*
X67695Y-57312D01*
X67709Y-57298D01*
X67692Y-50738D02*
X67554Y-50641D01*
X67692Y-50572D02*
X67402Y-50572D01*
X67402Y-50683D01*
X67416Y-50710D01*
X67430Y-50724D01*
X67457Y-50738D01*
X67499Y-50738D01*
X67526Y-50724D01*
X67540Y-50710D01*
X67554Y-50683D01*
X67554Y-50572D01*
X67402Y-50835D02*
X67402Y-51014D01*
X67512Y-50918D01*
X67512Y-50959D01*
X67526Y-50987D01*
X67540Y-51000D01*
X67568Y-51014D01*
X67637Y-51014D01*
X67664Y-51000D01*
X67678Y-50987D01*
X67692Y-50959D01*
X67692Y-50876D01*
X67678Y-50849D01*
X67664Y-50835D01*
X67430Y-51125D02*
X67416Y-51139D01*
X67402Y-51166D01*
X67402Y-51235D01*
X67416Y-51263D01*
X67430Y-51277D01*
X67457Y-51290D01*
X67485Y-51290D01*
X67526Y-51277D01*
X67692Y-51111D01*
X67692Y-51290D01*
X68773Y-45999D02*
X68635Y-45902D01*
X68773Y-45833D02*
X68483Y-45833D01*
X68483Y-45944D01*
X68497Y-45971D01*
X68511Y-45985D01*
X68538Y-45999D01*
X68580Y-45999D01*
X68607Y-45985D01*
X68621Y-45971D01*
X68635Y-45944D01*
X68635Y-45833D01*
X68483Y-46096D02*
X68483Y-46275D01*
X68593Y-46179D01*
X68593Y-46220D01*
X68607Y-46248D01*
X68621Y-46261D01*
X68649Y-46275D01*
X68718Y-46275D01*
X68745Y-46261D01*
X68759Y-46248D01*
X68773Y-46220D01*
X68773Y-46137D01*
X68759Y-46110D01*
X68745Y-46096D01*
X68773Y-46551D02*
X68773Y-46386D01*
X68773Y-46469D02*
X68483Y-46469D01*
X68524Y-46441D01*
X68552Y-46413D01*
X68566Y-46386D01*
X67789Y-58488D02*
X67803Y-58474D01*
X67817Y-58433D01*
X67817Y-58405D01*
X67803Y-58364D01*
X67775Y-58336D01*
X67748Y-58322D01*
X67693Y-58309D01*
X67651Y-58309D01*
X67596Y-58322D01*
X67568Y-58336D01*
X67541Y-58364D01*
X67527Y-58405D01*
X67527Y-58433D01*
X67541Y-58474D01*
X67555Y-58488D01*
X67527Y-58737D02*
X67527Y-58681D01*
X67541Y-58654D01*
X67555Y-58640D01*
X67596Y-58612D01*
X67651Y-58599D01*
X67762Y-58599D01*
X67789Y-58612D01*
X67803Y-58626D01*
X67817Y-58654D01*
X67817Y-58709D01*
X67803Y-58737D01*
X67789Y-58750D01*
X67762Y-58764D01*
X67693Y-58764D01*
X67665Y-58750D01*
X67651Y-58737D01*
X67637Y-58709D01*
X67637Y-58654D01*
X67651Y-58626D01*
X67665Y-58612D01*
X67693Y-58599D01*
X67624Y-59013D02*
X67817Y-59013D01*
X67513Y-58944D02*
X67720Y-58875D01*
X67720Y-59054D01*
X68539Y-50088D02*
X68553Y-50074D01*
X68567Y-50033D01*
X68567Y-50005D01*
X68553Y-49964D01*
X68525Y-49936D01*
X68498Y-49922D01*
X68443Y-49909D01*
X68401Y-49909D01*
X68346Y-49922D01*
X68318Y-49936D01*
X68291Y-49964D01*
X68277Y-50005D01*
X68277Y-50033D01*
X68291Y-50074D01*
X68305Y-50088D01*
X68277Y-50337D02*
X68277Y-50281D01*
X68291Y-50254D01*
X68305Y-50240D01*
X68346Y-50212D01*
X68401Y-50199D01*
X68512Y-50199D01*
X68539Y-50212D01*
X68553Y-50226D01*
X68567Y-50254D01*
X68567Y-50309D01*
X68553Y-50337D01*
X68539Y-50350D01*
X68512Y-50364D01*
X68443Y-50364D01*
X68415Y-50350D01*
X68401Y-50337D01*
X68387Y-50309D01*
X68387Y-50254D01*
X68401Y-50226D01*
X68415Y-50212D01*
X68443Y-50199D01*
X68277Y-50461D02*
X68277Y-50640D01*
X68387Y-50544D01*
X68387Y-50585D01*
X68401Y-50613D01*
X68415Y-50627D01*
X68443Y-50640D01*
X68512Y-50640D01*
X68539Y-50627D01*
X68553Y-50613D01*
X68567Y-50585D01*
X68567Y-50502D01*
X68553Y-50475D01*
X68539Y-50461D01*
X68214Y-48138D02*
X68228Y-48124D01*
X68242Y-48083D01*
X68242Y-48055D01*
X68228Y-48014D01*
X68200Y-47986D01*
X68173Y-47972D01*
X68118Y-47959D01*
X68076Y-47959D01*
X68021Y-47972D01*
X67993Y-47986D01*
X67966Y-48014D01*
X67952Y-48055D01*
X67952Y-48083D01*
X67966Y-48124D01*
X67980Y-48138D01*
X67952Y-48387D02*
X67952Y-48331D01*
X67966Y-48304D01*
X67980Y-48290D01*
X68021Y-48262D01*
X68076Y-48249D01*
X68187Y-48249D01*
X68214Y-48262D01*
X68228Y-48276D01*
X68242Y-48304D01*
X68242Y-48359D01*
X68228Y-48387D01*
X68214Y-48400D01*
X68187Y-48414D01*
X68118Y-48414D01*
X68090Y-48400D01*
X68076Y-48387D01*
X68062Y-48359D01*
X68062Y-48304D01*
X68076Y-48276D01*
X68090Y-48262D01*
X68118Y-48249D01*
X67980Y-48525D02*
X67966Y-48539D01*
X67952Y-48566D01*
X67952Y-48635D01*
X67966Y-48663D01*
X67980Y-48677D01*
X68007Y-48690D01*
X68035Y-48690D01*
X68076Y-48677D01*
X68242Y-48511D01*
X68242Y-48690D01*
X68036Y-45564D02*
X68050Y-45578D01*
X68091Y-45592D01*
X68119Y-45592D01*
X68160Y-45578D01*
X68188Y-45550D01*
X68202Y-45523D01*
X68215Y-45468D01*
X68215Y-45426D01*
X68202Y-45371D01*
X68188Y-45343D01*
X68160Y-45316D01*
X68119Y-45302D01*
X68091Y-45302D01*
X68050Y-45316D01*
X68036Y-45330D01*
X67787Y-45302D02*
X67843Y-45302D01*
X67870Y-45316D01*
X67884Y-45330D01*
X67912Y-45371D01*
X67925Y-45426D01*
X67925Y-45537D01*
X67912Y-45564D01*
X67898Y-45578D01*
X67870Y-45592D01*
X67815Y-45592D01*
X67787Y-45578D01*
X67774Y-45564D01*
X67760Y-45537D01*
X67760Y-45468D01*
X67774Y-45440D01*
X67787Y-45426D01*
X67815Y-45412D01*
X67870Y-45412D01*
X67898Y-45426D01*
X67912Y-45440D01*
X67925Y-45468D01*
X67484Y-45592D02*
X67649Y-45592D01*
X67566Y-45592D02*
X67566Y-45302D01*
X67594Y-45343D01*
X67622Y-45371D01*
X67649Y-45385D01*
X74861Y-50767D02*
X74958Y-50629D01*
X75027Y-50767D02*
X75027Y-50477D01*
X74916Y-50477D01*
X74889Y-50491D01*
X74875Y-50505D01*
X74861Y-50532D01*
X74861Y-50574D01*
X74875Y-50601D01*
X74889Y-50615D01*
X74916Y-50629D01*
X75027Y-50629D01*
X74764Y-50477D02*
X74585Y-50477D01*
X74681Y-50587D01*
X74640Y-50587D01*
X74612Y-50601D01*
X74599Y-50615D01*
X74585Y-50643D01*
X74585Y-50712D01*
X74599Y-50739D01*
X74612Y-50753D01*
X74640Y-50767D01*
X74723Y-50767D01*
X74750Y-50753D01*
X74764Y-50739D01*
X74322Y-50477D02*
X74460Y-50477D01*
X74474Y-50615D01*
X74460Y-50601D01*
X74433Y-50587D01*
X74364Y-50587D01*
X74336Y-50601D01*
X74322Y-50615D01*
X74309Y-50643D01*
X74309Y-50712D01*
X74322Y-50739D01*
X74336Y-50753D01*
X74364Y-50767D01*
X74433Y-50767D01*
X74460Y-50753D01*
X74474Y-50739D01*
X74342Y-50090D02*
X74439Y-49952D01*
X74508Y-50090D02*
X74508Y-49800D01*
X74397Y-49800D01*
X74370Y-49814D01*
X74356Y-49828D01*
X74342Y-49855D01*
X74342Y-49897D01*
X74356Y-49924D01*
X74370Y-49938D01*
X74397Y-49952D01*
X74508Y-49952D01*
X74245Y-49800D02*
X74066Y-49800D01*
X74162Y-49910D01*
X74121Y-49910D01*
X74093Y-49924D01*
X74080Y-49938D01*
X74066Y-49966D01*
X74066Y-50035D01*
X74080Y-50062D01*
X74093Y-50076D01*
X74121Y-50090D01*
X74204Y-50090D01*
X74231Y-50076D01*
X74245Y-50062D01*
X73817Y-49897D02*
X73817Y-50090D01*
X73886Y-49786D02*
X73955Y-49993D01*
X73776Y-49993D01*
X73514Y-55970D02*
X73528Y-55984D01*
X73569Y-55998D01*
X73597Y-55998D01*
X73638Y-55984D01*
X73666Y-55956D01*
X73680Y-55929D01*
X73693Y-55874D01*
X73693Y-55832D01*
X73680Y-55777D01*
X73666Y-55749D01*
X73638Y-55722D01*
X73597Y-55708D01*
X73569Y-55708D01*
X73528Y-55722D01*
X73514Y-55736D01*
X73252Y-55708D02*
X73390Y-55708D01*
X73403Y-55846D01*
X73390Y-55832D01*
X73362Y-55818D01*
X73293Y-55818D01*
X73265Y-55832D01*
X73252Y-55846D01*
X73238Y-55874D01*
X73238Y-55943D01*
X73252Y-55970D01*
X73265Y-55984D01*
X73293Y-55998D01*
X73362Y-55998D01*
X73390Y-55984D01*
X73403Y-55970D01*
X73127Y-55736D02*
X73113Y-55722D01*
X73086Y-55708D01*
X73017Y-55708D01*
X72989Y-55722D01*
X72975Y-55736D01*
X72962Y-55763D01*
X72962Y-55791D01*
X72975Y-55832D01*
X73141Y-55998D01*
X72962Y-55998D01*
X74742Y-49460D02*
X74756Y-49474D01*
X74797Y-49488D01*
X74825Y-49488D01*
X74866Y-49474D01*
X74894Y-49446D01*
X74908Y-49419D01*
X74921Y-49364D01*
X74921Y-49322D01*
X74908Y-49267D01*
X74894Y-49239D01*
X74866Y-49212D01*
X74825Y-49198D01*
X74797Y-49198D01*
X74756Y-49212D01*
X74742Y-49226D01*
X74631Y-49226D02*
X74618Y-49212D01*
X74590Y-49198D01*
X74521Y-49198D01*
X74493Y-49212D01*
X74479Y-49226D01*
X74466Y-49253D01*
X74466Y-49281D01*
X74479Y-49322D01*
X74645Y-49488D01*
X74466Y-49488D01*
X74082Y-49459D02*
X74096Y-49473D01*
X74137Y-49487D01*
X74165Y-49487D01*
X74206Y-49473D01*
X74234Y-49445D01*
X74248Y-49418D01*
X74261Y-49363D01*
X74261Y-49321D01*
X74248Y-49266D01*
X74234Y-49238D01*
X74206Y-49211D01*
X74165Y-49197D01*
X74137Y-49197D01*
X74096Y-49211D01*
X74082Y-49225D01*
X73806Y-49487D02*
X73971Y-49487D01*
X73889Y-49487D02*
X73889Y-49197D01*
X73916Y-49238D01*
X73944Y-49266D01*
X73971Y-49280D01*
G54D16*
X74299Y-57153D02*
X74310Y-57165D01*
X74345Y-57176D01*
X74367Y-57176D01*
X74402Y-57165D01*
X74425Y-57142D01*
X74436Y-57119D01*
X74447Y-57073D01*
X74447Y-57039D01*
X74436Y-56993D01*
X74425Y-56970D01*
X74402Y-56948D01*
X74367Y-56936D01*
X74345Y-56936D01*
X74310Y-56948D01*
X74299Y-56959D01*
X74082Y-56936D02*
X74196Y-56936D01*
X74207Y-57050D01*
X74196Y-57039D01*
X74173Y-57028D01*
X74116Y-57028D01*
X74093Y-57039D01*
X74082Y-57050D01*
X74070Y-57073D01*
X74070Y-57130D01*
X74082Y-57153D01*
X74093Y-57165D01*
X74116Y-57176D01*
X74173Y-57176D01*
X74196Y-57165D01*
X74207Y-57153D01*
X73990Y-56936D02*
X73842Y-56936D01*
X73922Y-57028D01*
X73887Y-57028D01*
X73865Y-57039D01*
X73853Y-57050D01*
X73842Y-57073D01*
X73842Y-57130D01*
X73853Y-57153D01*
X73865Y-57165D01*
X73887Y-57176D01*
X73956Y-57176D01*
X73979Y-57165D01*
X73990Y-57153D01*
G54D15*
X73984Y-58217D02*
X73998Y-58231D01*
X74039Y-58245D01*
X74067Y-58245D01*
X74108Y-58231D01*
X74136Y-58203D01*
X74150Y-58176D01*
X74163Y-58121D01*
X74163Y-58079D01*
X74150Y-58024D01*
X74136Y-57996D01*
X74108Y-57969D01*
X74067Y-57955D01*
X74039Y-57955D01*
X73998Y-57969D01*
X73984Y-57983D01*
X73722Y-57955D02*
X73860Y-57955D01*
X73873Y-58093D01*
X73860Y-58079D01*
X73832Y-58065D01*
X73763Y-58065D01*
X73735Y-58079D01*
X73722Y-58093D01*
X73708Y-58121D01*
X73708Y-58190D01*
X73722Y-58217D01*
X73735Y-58231D01*
X73763Y-58245D01*
X73832Y-58245D01*
X73860Y-58231D01*
X73873Y-58217D01*
X73528Y-57955D02*
X73501Y-57955D01*
X73473Y-57969D01*
X73459Y-57983D01*
X73445Y-58010D01*
X73432Y-58065D01*
X73432Y-58134D01*
X73445Y-58190D01*
X73459Y-58217D01*
X73473Y-58231D01*
X73501Y-58245D01*
X73528Y-58245D01*
X73556Y-58231D01*
X73570Y-58217D01*
X73583Y-58190D01*
X73597Y-58134D01*
X73597Y-58065D01*
X73583Y-58010D01*
X73570Y-57983D01*
X73556Y-57969D01*
X73528Y-57955D01*
X74418Y-55984D02*
X74432Y-55998D01*
X74473Y-56012D01*
X74501Y-56012D01*
X74542Y-55998D01*
X74570Y-55970D01*
X74584Y-55943D01*
X74597Y-55888D01*
X74597Y-55846D01*
X74584Y-55791D01*
X74570Y-55763D01*
X74542Y-55736D01*
X74501Y-55722D01*
X74473Y-55722D01*
X74432Y-55736D01*
X74418Y-55750D01*
X74156Y-55722D02*
X74294Y-55722D01*
X74307Y-55860D01*
X74294Y-55846D01*
X74266Y-55832D01*
X74197Y-55832D01*
X74169Y-55846D01*
X74156Y-55860D01*
X74142Y-55888D01*
X74142Y-55957D01*
X74156Y-55984D01*
X74169Y-55998D01*
X74197Y-56012D01*
X74266Y-56012D01*
X74294Y-55998D01*
X74307Y-55984D01*
X73866Y-56012D02*
X74031Y-56012D01*
X73948Y-56012D02*
X73948Y-55722D01*
X73976Y-55763D01*
X74004Y-55791D01*
X74031Y-55805D01*
X74076Y-43805D02*
X74090Y-43819D01*
X74131Y-43833D01*
X74159Y-43833D01*
X74200Y-43819D01*
X74228Y-43791D01*
X74242Y-43764D01*
X74255Y-43709D01*
X74255Y-43667D01*
X74242Y-43612D01*
X74228Y-43584D01*
X74200Y-43557D01*
X74159Y-43543D01*
X74131Y-43543D01*
X74090Y-43557D01*
X74076Y-43571D01*
X73979Y-43543D02*
X73800Y-43543D01*
X73896Y-43653D01*
X73855Y-43653D01*
X73827Y-43667D01*
X73814Y-43681D01*
X73800Y-43709D01*
X73800Y-43778D01*
X73814Y-43805D01*
X73827Y-43819D01*
X73855Y-43833D01*
X73938Y-43833D01*
X73965Y-43819D01*
X73979Y-43805D01*
X73551Y-43640D02*
X73551Y-43833D01*
X73620Y-43529D02*
X73689Y-43736D01*
X73510Y-43736D01*
X73204Y-43623D02*
X73218Y-43637D01*
X73259Y-43651D01*
X73287Y-43651D01*
X73328Y-43637D01*
X73356Y-43609D01*
X73370Y-43582D01*
X73383Y-43526D01*
X73383Y-43485D01*
X73370Y-43430D01*
X73356Y-43402D01*
X73328Y-43375D01*
X73287Y-43361D01*
X73259Y-43361D01*
X73218Y-43375D01*
X73204Y-43388D01*
X73107Y-43361D02*
X72928Y-43361D01*
X73024Y-43471D01*
X72983Y-43471D01*
X72955Y-43485D01*
X72942Y-43499D01*
X72928Y-43526D01*
X72928Y-43596D01*
X72942Y-43623D01*
X72955Y-43637D01*
X72983Y-43651D01*
X73066Y-43651D01*
X73093Y-43637D01*
X73107Y-43623D01*
X72665Y-43361D02*
X72803Y-43361D01*
X72817Y-43499D01*
X72803Y-43485D01*
X72776Y-43471D01*
X72707Y-43471D01*
X72679Y-43485D01*
X72665Y-43499D01*
X72652Y-43526D01*
X72652Y-43596D01*
X72665Y-43623D01*
X72679Y-43637D01*
X72707Y-43651D01*
X72776Y-43651D01*
X72803Y-43637D01*
X72817Y-43623D01*
X69921Y-47910D02*
X69935Y-47896D01*
X69949Y-47855D01*
X69949Y-47827D01*
X69935Y-47786D01*
X69907Y-47758D01*
X69880Y-47744D01*
X69825Y-47731D01*
X69783Y-47731D01*
X69728Y-47744D01*
X69700Y-47758D01*
X69673Y-47786D01*
X69659Y-47827D01*
X69659Y-47855D01*
X69673Y-47896D01*
X69687Y-47910D01*
X69949Y-48186D02*
X69949Y-48021D01*
X69949Y-48103D02*
X69659Y-48103D01*
X69700Y-48076D01*
X69728Y-48048D01*
X69742Y-48021D01*
X69659Y-48283D02*
X69659Y-48476D01*
X69949Y-48352D01*
X69297Y-49309D02*
X69311Y-49295D01*
X69325Y-49254D01*
X69325Y-49226D01*
X69311Y-49185D01*
X69283Y-49157D01*
X69256Y-49143D01*
X69200Y-49130D01*
X69159Y-49130D01*
X69104Y-49143D01*
X69076Y-49157D01*
X69049Y-49185D01*
X69035Y-49226D01*
X69035Y-49254D01*
X69049Y-49295D01*
X69062Y-49309D01*
X69325Y-49585D02*
X69325Y-49420D01*
X69325Y-49502D02*
X69035Y-49502D01*
X69076Y-49475D01*
X69104Y-49447D01*
X69118Y-49420D01*
X69035Y-49848D02*
X69035Y-49710D01*
X69173Y-49696D01*
X69159Y-49710D01*
X69145Y-49737D01*
X69145Y-49806D01*
X69159Y-49834D01*
X69173Y-49848D01*
X69200Y-49861D01*
X69270Y-49861D01*
X69297Y-49848D01*
X69311Y-49834D01*
X69325Y-49806D01*
X69325Y-49737D01*
X69311Y-49710D01*
X69297Y-49696D01*
X78188Y-44449D02*
X78202Y-44435D01*
X78216Y-44393D01*
X78216Y-44366D01*
X78202Y-44324D01*
X78174Y-44297D01*
X78147Y-44283D01*
X78092Y-44269D01*
X78050Y-44269D01*
X77995Y-44283D01*
X77967Y-44297D01*
X77940Y-44324D01*
X77926Y-44366D01*
X77926Y-44393D01*
X77940Y-44435D01*
X77954Y-44449D01*
X78216Y-44587D02*
X78216Y-44642D01*
X78202Y-44670D01*
X78188Y-44683D01*
X78147Y-44711D01*
X78092Y-44725D01*
X77981Y-44725D01*
X77954Y-44711D01*
X77940Y-44697D01*
X77926Y-44670D01*
X77926Y-44614D01*
X77940Y-44587D01*
X77954Y-44573D01*
X77981Y-44559D01*
X78050Y-44559D01*
X78078Y-44573D01*
X78092Y-44587D01*
X78105Y-44614D01*
X78105Y-44670D01*
X78092Y-44697D01*
X78078Y-44711D01*
X78050Y-44725D01*
X77376Y-43739D02*
X77390Y-43753D01*
X77431Y-43767D01*
X77459Y-43767D01*
X77500Y-43753D01*
X77528Y-43725D01*
X77542Y-43698D01*
X77555Y-43643D01*
X77555Y-43601D01*
X77542Y-43546D01*
X77528Y-43518D01*
X77500Y-43491D01*
X77459Y-43477D01*
X77431Y-43477D01*
X77390Y-43491D01*
X77376Y-43505D01*
X77100Y-43767D02*
X77265Y-43767D01*
X77183Y-43767D02*
X77183Y-43477D01*
X77210Y-43518D01*
X77238Y-43546D01*
X77265Y-43560D01*
X76824Y-43767D02*
X76989Y-43767D01*
X76906Y-43767D02*
X76906Y-43477D01*
X76934Y-43518D01*
X76962Y-43546D01*
X76989Y-43560D01*
X69164Y-47572D02*
X69178Y-47558D01*
X69192Y-47517D01*
X69192Y-47489D01*
X69178Y-47448D01*
X69150Y-47420D01*
X69123Y-47406D01*
X69068Y-47393D01*
X69026Y-47393D01*
X68971Y-47406D01*
X68943Y-47420D01*
X68916Y-47448D01*
X68902Y-47489D01*
X68902Y-47517D01*
X68916Y-47558D01*
X68930Y-47572D01*
X69192Y-47848D02*
X69192Y-47683D01*
X69192Y-47765D02*
X68902Y-47765D01*
X68943Y-47738D01*
X68971Y-47710D01*
X68985Y-47683D01*
X69026Y-48014D02*
X69012Y-47986D01*
X68999Y-47973D01*
X68971Y-47959D01*
X68957Y-47959D01*
X68930Y-47973D01*
X68916Y-47986D01*
X68902Y-48014D01*
X68902Y-48069D01*
X68916Y-48097D01*
X68930Y-48111D01*
X68957Y-48124D01*
X68971Y-48124D01*
X68999Y-48111D01*
X69012Y-48097D01*
X69026Y-48069D01*
X69026Y-48014D01*
X69040Y-47986D01*
X69054Y-47973D01*
X69081Y-47959D01*
X69137Y-47959D01*
X69164Y-47973D01*
X69178Y-47986D01*
X69192Y-48014D01*
X69192Y-48069D01*
X69178Y-48097D01*
X69164Y-48111D01*
X69137Y-48124D01*
X69081Y-48124D01*
X69054Y-48111D01*
X69040Y-48097D01*
X69026Y-48069D01*
X71761Y-53608D02*
X71775Y-53594D01*
X71789Y-53553D01*
X71789Y-53525D01*
X71775Y-53484D01*
X71748Y-53456D01*
X71720Y-53442D01*
X71665Y-53429D01*
X71623Y-53429D01*
X71568Y-53442D01*
X71540Y-53456D01*
X71513Y-53484D01*
X71499Y-53525D01*
X71499Y-53553D01*
X71513Y-53594D01*
X71527Y-53608D01*
X71499Y-53857D02*
X71499Y-53801D01*
X71513Y-53774D01*
X71527Y-53760D01*
X71568Y-53732D01*
X71623Y-53719D01*
X71734Y-53719D01*
X71761Y-53732D01*
X71775Y-53746D01*
X71789Y-53774D01*
X71789Y-53829D01*
X71775Y-53857D01*
X71761Y-53870D01*
X71734Y-53884D01*
X71665Y-53884D01*
X71637Y-53870D01*
X71623Y-53857D01*
X71609Y-53829D01*
X71609Y-53774D01*
X71623Y-53746D01*
X71637Y-53732D01*
X71665Y-53719D01*
X71623Y-54050D02*
X71609Y-54022D01*
X71596Y-54009D01*
X71568Y-53995D01*
X71554Y-53995D01*
X71527Y-54009D01*
X71513Y-54022D01*
X71499Y-54050D01*
X71499Y-54105D01*
X71513Y-54133D01*
X71527Y-54147D01*
X71554Y-54160D01*
X71568Y-54160D01*
X71596Y-54147D01*
X71609Y-54133D01*
X71623Y-54105D01*
X71623Y-54050D01*
X71637Y-54022D01*
X71651Y-54009D01*
X71679Y-53995D01*
X71734Y-53995D01*
X71761Y-54009D01*
X71775Y-54022D01*
X71789Y-54050D01*
X71789Y-54105D01*
X71775Y-54133D01*
X71761Y-54147D01*
X71734Y-54160D01*
X71679Y-54160D01*
X71651Y-54147D01*
X71637Y-54133D01*
X71623Y-54105D01*
X73504Y-51591D02*
X73504Y-51941D01*
X73483Y-51983D01*
X73463Y-52003D01*
X73421Y-52024D01*
X73339Y-52024D01*
X73298Y-52003D01*
X73277Y-51983D01*
X73256Y-51941D01*
X73256Y-51591D01*
X72823Y-52024D02*
X73071Y-52024D01*
X72947Y-52024D02*
X72947Y-51591D01*
X72988Y-51653D01*
X73030Y-51694D01*
X73071Y-51714D01*
X76695Y-48812D02*
X76709Y-48826D01*
X76750Y-48840D01*
X76778Y-48840D01*
X76819Y-48826D01*
X76847Y-48798D01*
X76861Y-48771D01*
X76874Y-48716D01*
X76874Y-48674D01*
X76861Y-48619D01*
X76847Y-48591D01*
X76819Y-48564D01*
X76778Y-48550D01*
X76750Y-48550D01*
X76709Y-48564D01*
X76695Y-48578D01*
X76433Y-48550D02*
X76571Y-48550D01*
X76584Y-48688D01*
X76571Y-48674D01*
X76543Y-48660D01*
X76474Y-48660D01*
X76446Y-48674D01*
X76433Y-48688D01*
X76419Y-48716D01*
X76419Y-48785D01*
X76433Y-48812D01*
X76446Y-48826D01*
X76474Y-48840D01*
X76543Y-48840D01*
X76571Y-48826D01*
X76584Y-48812D01*
X76156Y-48550D02*
X76294Y-48550D01*
X76308Y-48688D01*
X76294Y-48674D01*
X76267Y-48660D01*
X76198Y-48660D01*
X76170Y-48674D01*
X76156Y-48688D01*
X76143Y-48716D01*
X76143Y-48785D01*
X76156Y-48812D01*
X76170Y-48826D01*
X76198Y-48840D01*
X76267Y-48840D01*
X76294Y-48826D01*
X76308Y-48812D01*
G54D17*
X78375Y-47015D02*
X78448Y-46910D01*
X78501Y-47015D02*
X78501Y-46795D01*
X78417Y-46795D01*
X78396Y-46805D01*
X78385Y-46816D01*
X78375Y-46836D01*
X78375Y-46868D01*
X78385Y-46889D01*
X78396Y-46899D01*
X78417Y-46910D01*
X78501Y-46910D01*
X78165Y-47015D02*
X78291Y-47015D01*
X78228Y-47015D02*
X78228Y-46795D01*
X78249Y-46826D01*
X78270Y-46847D01*
X78291Y-46857D01*
X78061Y-47015D02*
X78019Y-47015D01*
X77998Y-47004D01*
X77987Y-46994D01*
X77966Y-46962D01*
X77956Y-46920D01*
X77956Y-46836D01*
X77966Y-46816D01*
X77977Y-46805D01*
X77998Y-46795D01*
X78040Y-46795D01*
X78061Y-46805D01*
X78071Y-46816D01*
X78082Y-46836D01*
X78082Y-46889D01*
X78071Y-46910D01*
X78061Y-46920D01*
X78040Y-46931D01*
X77998Y-46931D01*
X77977Y-46920D01*
X77966Y-46910D01*
X77956Y-46889D01*
X78387Y-46637D02*
X78460Y-46532D01*
X78513Y-46637D02*
X78513Y-46417D01*
X78429Y-46417D01*
X78408Y-46427D01*
X78397Y-46438D01*
X78387Y-46458D01*
X78387Y-46490D01*
X78397Y-46511D01*
X78408Y-46521D01*
X78429Y-46532D01*
X78513Y-46532D01*
X78314Y-46417D02*
X78177Y-46417D01*
X78251Y-46500D01*
X78219Y-46500D01*
X78198Y-46511D01*
X78188Y-46521D01*
X78177Y-46542D01*
X78177Y-46595D01*
X78188Y-46616D01*
X78198Y-46626D01*
X78219Y-46637D01*
X78282Y-46637D01*
X78303Y-46626D01*
X78314Y-46616D01*
X78073Y-46637D02*
X78031Y-46637D01*
X78010Y-46626D01*
X77999Y-46616D01*
X77978Y-46584D01*
X77968Y-46542D01*
X77968Y-46458D01*
X77978Y-46438D01*
X77989Y-46427D01*
X78010Y-46417D01*
X78052Y-46417D01*
X78073Y-46427D01*
X78083Y-46438D01*
X78094Y-46458D01*
X78094Y-46511D01*
X78083Y-46532D01*
X78073Y-46542D01*
X78052Y-46553D01*
X78010Y-46553D01*
X77989Y-46542D01*
X77978Y-46532D01*
X77968Y-46511D01*
G54D15*
X77846Y-48945D02*
X77846Y-49229D01*
X77829Y-49262D01*
X77813Y-49279D01*
X77779Y-49295D01*
X77713Y-49295D01*
X77679Y-49279D01*
X77663Y-49262D01*
X77646Y-49229D01*
X77646Y-48945D01*
X77296Y-49295D02*
X77496Y-49295D01*
X77396Y-49295D02*
X77396Y-48945D01*
X77429Y-48995D01*
X77463Y-49029D01*
X77496Y-49045D01*
X77163Y-48979D02*
X77146Y-48962D01*
X77113Y-48945D01*
X77029Y-48945D01*
X76996Y-48962D01*
X76979Y-48979D01*
X76963Y-49012D01*
X76963Y-49045D01*
X76979Y-49095D01*
X77179Y-49295D01*
X76963Y-49295D01*
%LPC*%
G54D18*
X71280Y-45466D02*
X71280Y-45262D01*
G54D19*
X71015Y-44588D02*
X70821Y-44588D01*
X71015Y-44878D01*
X70821Y-44878D01*
X70961Y-45813D02*
X70961Y-45951D01*
X71058Y-45661D02*
X70961Y-45813D01*
X70865Y-45661D01*
X70491Y-45280D02*
X70298Y-45570D01*
X70298Y-45280D02*
X70491Y-45570D01*
G54D18*
X70398Y-44905D02*
X70269Y-45034D01*
X70398Y-45168D02*
X70398Y-44905D01*
X70267Y-45038D02*
X70398Y-45168D01*
X71068Y-45038D02*
X70267Y-45038D01*
X71400Y-45943D02*
X71163Y-45943D01*
X71283Y-46060D02*
X71400Y-45943D01*
X71280Y-46066D02*
X71157Y-45943D01*
X71280Y-45375D02*
X71280Y-46066D01*
X71132Y-45192D02*
X71432Y-44892D01*
X71135Y-44883D02*
X71438Y-45186D01*
X71490Y-45042D02*
G75*
G03X71490Y-45042I-210J0D01*
G74*
G01*
G54D11*
X73506Y-62426D02*
X73406Y-62460D01*
X73373Y-62493D01*
X73340Y-62560D01*
X73340Y-62660D01*
X73373Y-62726D01*
X73406Y-62760D01*
X73473Y-62793D01*
X73740Y-62793D01*
X73740Y-62093D01*
X73506Y-62093D01*
X73440Y-62126D01*
X73406Y-62160D01*
X73373Y-62226D01*
X73373Y-62293D01*
X73406Y-62360D01*
X73440Y-62393D01*
X73506Y-62426D01*
X73740Y-62426D01*
X72640Y-62793D02*
X72873Y-62460D01*
X73040Y-62793D02*
X73040Y-62093D01*
X72773Y-62093D01*
X72706Y-62126D01*
X72673Y-62160D01*
X72640Y-62226D01*
X72640Y-62326D01*
X72673Y-62393D01*
X72706Y-62426D01*
X72773Y-62460D01*
X73040Y-62460D01*
X72340Y-62793D02*
X72340Y-62093D01*
X71940Y-62793D01*
X71940Y-62093D01*
G54D20*
X74720Y-48350D02*
X74720Y-48069D01*
X74720Y-48149D02*
X74700Y-48109D01*
X74680Y-48089D01*
X74640Y-48069D01*
X74600Y-48069D01*
X74480Y-47969D02*
X74460Y-47949D01*
X74420Y-47929D01*
X74320Y-47929D01*
X74279Y-47949D01*
X74259Y-47969D01*
X74239Y-48009D01*
X74239Y-48049D01*
X74259Y-48109D01*
X74500Y-48350D01*
X74239Y-48350D01*
X73879Y-48330D02*
X73919Y-48350D01*
X73999Y-48350D01*
X74039Y-48330D01*
X74059Y-48310D01*
X74079Y-48270D01*
X74079Y-48149D01*
X74059Y-48109D01*
X74039Y-48089D01*
X73999Y-48069D01*
X73919Y-48069D01*
X73879Y-48089D01*
G54D21*
X77818Y-58444D03*
X77818Y-59035D03*
X72300Y-57345D03*
X72300Y-56754D03*
G54D22*
X75293Y-54766D03*
X74702Y-54766D03*
X72419Y-54850D03*
X73010Y-54850D03*
G54D21*
X74794Y-57094D03*
X74794Y-57685D03*
X72864Y-57188D03*
X72864Y-56598D03*
X75150Y-56041D03*
X75150Y-55450D03*
X75280Y-56734D03*
X75280Y-57325D03*
X69674Y-44955D03*
X69674Y-44364D03*
G54D23*
X71288Y-43555D03*
X71681Y-43555D03*
X73375Y-59643D03*
X72982Y-59643D03*
G54D24*
X70540Y-57188D03*
X70540Y-56795D03*
G54D23*
X69292Y-53740D03*
X68899Y-53740D03*
G54D24*
X76036Y-53690D03*
X76036Y-53297D03*
G54D23*
X68630Y-62516D03*
X68237Y-62516D03*
G54D24*
X69424Y-62740D03*
X69424Y-62347D03*
G54D23*
X68545Y-62158D03*
X68938Y-62158D03*
X72626Y-56266D03*
X72233Y-56266D03*
X73102Y-57684D03*
X72709Y-57684D03*
X73589Y-57717D03*
X73983Y-57717D03*
X74270Y-55224D03*
X73877Y-55224D03*
X74468Y-54388D03*
X74075Y-54388D03*
X70847Y-46750D03*
X71240Y-46750D03*
X75876Y-61548D03*
X75483Y-61548D03*
X76012Y-61940D03*
X75619Y-61940D03*
G54D25*
X68681Y-44524D03*
X67499Y-44524D03*
X68677Y-46996D03*
X67495Y-46996D03*
X68681Y-49498D03*
X67499Y-49498D03*
X68711Y-57800D03*
X67529Y-57800D03*
G54D26*
X68128Y-53621D03*
X68128Y-54606D03*
G54D27*
X78170Y-61570D03*
X78170Y-62319D03*
G54D21*
X77182Y-44831D03*
X77182Y-44240D03*
G54D22*
X74392Y-61515D03*
X74983Y-61515D03*
X68161Y-56242D03*
X67570Y-56242D03*
G54D23*
X67927Y-55070D03*
X68320Y-55070D03*
X69086Y-53302D03*
X68693Y-53302D03*
X73877Y-47350D03*
X74270Y-47350D03*
G54D24*
X68118Y-44318D03*
X68118Y-43925D03*
X70326Y-46435D03*
X70326Y-46828D03*
X68128Y-57926D03*
X68128Y-57533D03*
X67506Y-50278D03*
X67506Y-49885D03*
X68072Y-46452D03*
X68072Y-46059D03*
X68136Y-58333D03*
X68136Y-58726D03*
X67920Y-50350D03*
X67920Y-49957D03*
X68078Y-47267D03*
X68078Y-47660D03*
G54D23*
X67990Y-45034D03*
X67597Y-45034D03*
G54D28*
X71654Y-60130D03*
X72654Y-60130D03*
X72154Y-60130D03*
X73154Y-60130D03*
G54D29*
X73654Y-60130D03*
G54D28*
X76243Y-62520D03*
G54D29*
X75743Y-62520D03*
G54D28*
X75470Y-51750D03*
X75470Y-51250D03*
X75470Y-50750D03*
X75470Y-49750D03*
X75470Y-50250D03*
X75470Y-49250D03*
X75970Y-49250D03*
X75970Y-50250D03*
X75970Y-49750D03*
X75970Y-50750D03*
X75970Y-51250D03*
G54D29*
X75970Y-51750D03*
G54D23*
X75086Y-50194D03*
X74693Y-50194D03*
X75082Y-49710D03*
X74689Y-49710D03*
G54D30*
X78056Y-55998D03*
X77556Y-55998D03*
X78056Y-56998D03*
X77556Y-56998D03*
X77556Y-56498D03*
X78056Y-56498D03*
X78056Y-57498D03*
X77556Y-57498D03*
X77556Y-57998D03*
G54D31*
X78056Y-57998D03*
G54D23*
X73109Y-56256D03*
X73502Y-56256D03*
G54D24*
X74636Y-48635D03*
X74636Y-49028D03*
X74106Y-48633D03*
X74106Y-49026D03*
G54D23*
X74620Y-56704D03*
X74227Y-56704D03*
X73582Y-57411D03*
X73975Y-57411D03*
X74422Y-56256D03*
X74029Y-56256D03*
X73855Y-44134D03*
X74248Y-44134D03*
X72821Y-44026D03*
X73214Y-44026D03*
G54D24*
X69952Y-47125D03*
X69952Y-47518D03*
X69700Y-49692D03*
X69700Y-49299D03*
X77674Y-44724D03*
X77674Y-44331D03*
G54D23*
X78146Y-43758D03*
X77753Y-43758D03*
G54D24*
X69430Y-46975D03*
X69430Y-47368D03*
X71180Y-53598D03*
X71180Y-53991D03*
G54D32*
X72714Y-50075D03*
X72714Y-49760D03*
X72714Y-49445D03*
X72714Y-48185D03*
X72714Y-48500D03*
X72714Y-49130D03*
X72714Y-48815D03*
X72399Y-48815D03*
X72399Y-49130D03*
X72399Y-48500D03*
X72399Y-48185D03*
X72399Y-49445D03*
X72399Y-49760D03*
X72399Y-50075D03*
X71769Y-50075D03*
X71769Y-49760D03*
X71769Y-49445D03*
X71769Y-48185D03*
X71769Y-48500D03*
X71769Y-49130D03*
X71769Y-48815D03*
X72084Y-48815D03*
X72084Y-49130D03*
X72084Y-48500D03*
X72084Y-48185D03*
X72084Y-49445D03*
X72084Y-49760D03*
X72084Y-50075D03*
X71454Y-50075D03*
X71454Y-49760D03*
X71454Y-49445D03*
X71454Y-48185D03*
X71454Y-48500D03*
X71454Y-49130D03*
X71454Y-48815D03*
X73029Y-51019D03*
X73344Y-50704D03*
X73344Y-51019D03*
X73344Y-47869D03*
X73344Y-47554D03*
X73029Y-47554D03*
X73029Y-47869D03*
X70509Y-47869D03*
X70509Y-47554D03*
X70824Y-47554D03*
X73028Y-50705D03*
X70824Y-51019D03*
X70824Y-47871D03*
X70509Y-50704D03*
X70509Y-51019D03*
X71139Y-48815D03*
X71139Y-49130D03*
X71139Y-48500D03*
X71139Y-48185D03*
X72714Y-50390D03*
X72399Y-50390D03*
X72084Y-50390D03*
X71139Y-49445D03*
X71139Y-49760D03*
X71139Y-50390D03*
X71139Y-50075D03*
X71454Y-50390D03*
X71769Y-50390D03*
G54D33*
X75306Y-44244D03*
X78129Y-60718D03*
X69624Y-45778D03*
X67739Y-60067D03*
G54D24*
X76746Y-47933D03*
X76746Y-48326D03*
G54D23*
X77748Y-46923D03*
X77354Y-46923D03*
X77740Y-46536D03*
X77347Y-46536D03*
G54D34*
X77438Y-47791D03*
X77793Y-47791D03*
X77793Y-47515D03*
X77438Y-47515D03*
G54D35*
X77596Y-48342D03*
M02*
