M48
;DRILL file {Pcbnew (2013-may-18)-stable} date Fri 27 Sep 2013 03:04:01 PM EDT
;FORMAT={2:4/ absolute / inch / keep zeros}
FMAT,2
INCH,TZ
T1C0.010
T2C0.012
T3C0.012
T4C0.013
T5C0.015
T6C0.025
T7C0.028
T8C0.034
T9C0.035
T10C0.043
T11C0.045
%
G90
G05
M72
T1
X067275Y-062475
X067276Y-062278
X067276Y-062664
X067276Y-062838
X067570Y-055235
X068260Y-050386
X069255Y-058857
X069304Y-059406
X070035Y-056716
X070051Y-048110
X070274Y-050008
X070282Y-056756
X070462Y-058493
X070494Y-058167
X070527Y-062520
X070602Y-056496
X070632Y-047291
X070659Y-058338
X070680Y-049581
X070689Y-050835
X070713Y-050004
X070781Y-062204
X070810Y-062526
X070920Y-048685
X070965Y-056148
X071028Y-053520
X071046Y-051034
X071349Y-058364
X071354Y-055263
X071519Y-054510
X071544Y-059284
X071548Y-055118
X071582Y-058378
X071610Y-044714
X071698Y-057249
X071742Y-053858
X071745Y-045168
X071756Y-058182
X071787Y-051886
X071837Y-059295
X071882Y-054432
X071886Y-053649
X071912Y-055852
X071914Y-056800
X071930Y-048975
X071932Y-056468
X072131Y-047013
X072138Y-059178
X072190Y-052720
X072194Y-061826
X072227Y-058960
X072232Y-045946
X072257Y-048358
X072279Y-058586
X072287Y-048073
X072291Y-054348
X072312Y-046422
X072515Y-054160
X072557Y-049288
X072588Y-058444
X072596Y-050594
X072606Y-047342
X072746Y-048005
X072813Y-052484
X073071Y-049464
X073074Y-052209
X073232Y-056812
X073359Y-049866
X073364Y-055543
X073385Y-059052
X073410Y-048405
X073492Y-050260
X073544Y-054023
X073588Y-047424
X073600Y-057090
X073614Y-047730
X073646Y-046905
X073650Y-059658
X073660Y-054374
X073660Y-059057
X073748Y-055572
X073802Y-059244
X073821Y-057088
X073961Y-059426
X073976Y-049336
X074016Y-044676
X074070Y-057160
X074154Y-059608
X074159Y-059293
X074416Y-055534
X074450Y-046988
X074606Y-061274
X074624Y-045764
X074666Y-057092
X074748Y-061747
X074756Y-055786
X074770Y-056152
X074864Y-054070
X075119Y-060147
X075190Y-049040
X075206Y-048786
X075726Y-046217
X075758Y-058294
X075976Y-056862
X076015Y-057934
X076036Y-056423
X076235Y-046331
X076313Y-051985
X076320Y-049525
X076428Y-057360
X076512Y-049956
X076601Y-057143
X076662Y-057384
X076824Y-047250
X076836Y-050769
X076894Y-062294
X077049Y-046503
X077068Y-046922
X077210Y-050442
X077219Y-052484
X077252Y-051374
X077286Y-049010
X077342Y-051976
X077346Y-045884
X077862Y-054154
X077948Y-062768
X078002Y-048882
X078010Y-054844
X078028Y-044074
X078093Y-054240
T2
X069269Y-054345
T3
X067230Y-057416
T4
X067188Y-061054
X067204Y-061834
X067212Y-061446
X067225Y-053765
X067236Y-045034
X067248Y-050794
X067256Y-044038
X067342Y-055868
X067516Y-047500
X067530Y-053765
X067632Y-061048
X067852Y-050788
X067876Y-055838
X067946Y-062274
X067950Y-062738
X068016Y-044664
X068019Y-056777
X068056Y-054602
X068072Y-049580
X068078Y-061070
X068135Y-054120
X068144Y-059044
X068252Y-045928
X068284Y-043602
X068310Y-055670
X068338Y-047358
X068350Y-062770
X068362Y-050884
X068514Y-056524
X068530Y-057394
X068712Y-053704
X068746Y-048840
X068848Y-061014
X068858Y-049868
X068876Y-056514
X068896Y-062752
X068938Y-051312
X069126Y-047206
X069188Y-056962
X069231Y-060566
X069231Y-061453
X069231Y-061768
X069231Y-062083
X069240Y-058550
X069269Y-054739
X069269Y-055133
X069269Y-055527
X069390Y-057676
X069546Y-061453
X069546Y-061768
X069546Y-062083
X069642Y-046756
X069663Y-054345
X069663Y-054739
X069663Y-055133
X069663Y-055527
X069726Y-060412
X069792Y-056922
X069814Y-050874
X069814Y-058204
X069861Y-061453
X069861Y-061768
X069861Y-062083
X069906Y-049280
X069956Y-051194
X070022Y-049624
X070057Y-054345
X070057Y-054739
X070057Y-055133
X070057Y-055527
X070068Y-044308
X070116Y-043998
X070248Y-053296
X070302Y-062796
X070342Y-047308
X070396Y-044178
X070451Y-054345
X070451Y-054739
X070451Y-055133
X070451Y-055527
X070578Y-046462
X070728Y-060420
X071010Y-043540
X071020Y-061690
X071388Y-047044
X071398Y-047756
X071972Y-050636
X071998Y-053378
X072120Y-044610
X072522Y-053804
X072608Y-044768
X072816Y-043552
X072964Y-048626
X072976Y-053146
X073146Y-043518
X073330Y-044614
X073594Y-046234
X073679Y-044676
X073752Y-050356
X073880Y-051755
X074368Y-045300
X074398Y-043848
X074650Y-060484
X074990Y-045288
X075006Y-059250
X075104Y-053278
X075178Y-053802
X075232Y-047898
X075368Y-059784
X075510Y-053682
X075534Y-044976
X075676Y-053982
X076075Y-058455
X076164Y-060083
X076164Y-060397
X076199Y-061509
X076202Y-044096
X076400Y-060240
X076407Y-058395
X076458Y-061734
X076544Y-044116
X076636Y-060083
X076636Y-060397
X076752Y-058949
X076770Y-058458
X076791Y-060755
X076798Y-049594
X076799Y-043857
X077012Y-053478
X077038Y-049944
X077044Y-054790
X077048Y-058646
X077164Y-053818
X077283Y-061199
X077290Y-045150
X077298Y-053074
X077390Y-058480
X077458Y-059378
X077492Y-061469
X077522Y-054392
X077644Y-053326
X077872Y-053862
X077976Y-049167
X078156Y-059696
X078189Y-049436
X078250Y-061945
T5
X069400Y-053330
X070384Y-052216
X073524Y-053278
X073960Y-051012
X074458Y-059746
X074782Y-046946
X075042Y-060478
X075690Y-047422
X075748Y-059926
X077686Y-059684
X077840Y-061380
X078034Y-059368
X078456Y-055234
T6
X077556Y-055998
X077556Y-056498
X077556Y-056998
X077556Y-057498
X077556Y-057998
X078056Y-055998
X078056Y-056498
X078056Y-056998
X078056Y-057498
X078056Y-057998
T7
X071654Y-060130
X072154Y-060130
X072654Y-060130
X073154Y-060130
X073654Y-060130
X075470Y-049250
X075470Y-049750
X075470Y-050250
X075470Y-050750
X075470Y-051250
X075470Y-051750
X075743Y-062520
X075970Y-049250
X075970Y-049750
X075970Y-050250
X075970Y-050750
X075970Y-051250
X075970Y-051750
X076243Y-062520
T9
X067495Y-046996
X067499Y-044524
X067499Y-049498
X067529Y-057800
X068677Y-046996
X068681Y-044524
X068681Y-049498
X068711Y-057800
T10
X077596Y-048343
T8
X071851Y-061419G85X071851Y-061419
G05
X073819Y-061419G85X073819Y-061419
G05
T11
X071457Y-062482G85X071457Y-062482
G05
X074213Y-062482G85X074213Y-062482
G05
T0
M30
