G04 (created by PCBNEW (2013-mar-30)-stable) date Mon 03 Jun 2013 06:42:55 PM EDT*
%MOIN*%
G04 Gerber Fmt 3.4, Leading zero omitted, Abs format*
%FSLAX34Y34*%
G01*
G70*
G90*
G04 APERTURE LIST*
%ADD10C,0.006*%
%ADD11R,0.0551181X0.0866142*%
%ADD12C,0.0230315*%
%ADD13R,0.051748X0.051748*%
%ADD14R,0.047248X0.055148*%
%ADD15R,0.047248X0.035448*%
%ADD16R,0.0511811X0.0787402*%
%ADD17R,0.0669291X0.0433071*%
%ADD18R,0.0393701X0.0511811*%
%ADD19R,0.0511811X0.0393701*%
%ADD20R,0.0354331X0.0393701*%
%ADD21R,0.0393701X0.0354331*%
%ADD22R,0.027548X0.047248*%
%ADD23R,0.047248X0.027548*%
%ADD24R,0.047248X0.023648*%
%ADD25R,0.029548X0.094448*%
%ADD26R,0.025548X0.043348*%
%ADD27R,0.043348X0.025548*%
%ADD28R,0.039348X0.039348*%
%ADD29O,0.064948X0.053148*%
%ADD30R,0.074848X0.078748*%
%ADD31R,0.031448X0.074848*%
%ADD32O,0.051148X0.078748*%
%ADD33C,0.051148*%
%ADD34R,0.055148X0.066948*%
%ADD35R,0.082648X0.173248*%
%ADD36R,0.094448X0.212648*%
%ADD37C,0.028748*%
%ADD38R,0.026748X0.055148*%
%ADD39R,0.055148X0.026748*%
%ADD40R,0.110248X0.110248*%
%ADD41R,0.0433071X0.0275591*%
%ADD42R,0.0531496X0.0492126*%
%ADD43R,0.0275591X0.0433071*%
%ADD44R,0.0452756X0.0433071*%
%ADD45R,0.076378X0.076378*%
%ADD46C,0.055748*%
%ADD47R,0.055748X0.055748*%
%ADD48C,0.057748*%
%ADD49R,0.057748X0.057748*%
%ADD50R,0.023622X0.0629921*%
%ADD51C,0.105748*%
%ADD52C,0.023622*%
%ADD53C,0.0393701*%
%ADD54R,0.0275591X0.0551181*%
%ADD55R,0.0897638X0.0775591*%
%ADD56R,0.0354331X0.0354331*%
%ADD57R,0.0267717X0.0492126*%
%ADD58R,0.0492126X0.0267717*%
%ADD59R,0.192913X0.192913*%
G04 APERTURE END LIST*
G54D10*
G54D11*
X74607Y-53120D03*
X75592Y-53120D03*
G54D12*
X75790Y-54538D03*
X75790Y-54793D03*
X75790Y-55049D03*
X75790Y-55305D03*
X75790Y-55561D03*
X75790Y-55817D03*
X75790Y-56073D03*
X75790Y-56329D03*
X75790Y-56585D03*
X75790Y-56841D03*
X75790Y-57097D03*
X75790Y-57352D03*
X75790Y-57608D03*
X75790Y-57864D03*
X75790Y-58120D03*
X75535Y-54538D03*
X75535Y-54793D03*
X75535Y-55049D03*
X75535Y-55305D03*
X75535Y-55561D03*
X75535Y-55817D03*
X75535Y-56073D03*
X75535Y-56329D03*
X75535Y-56585D03*
X75535Y-56841D03*
X75535Y-57097D03*
X75535Y-57352D03*
X75535Y-57608D03*
X75535Y-57864D03*
X75535Y-58120D03*
X75279Y-54538D03*
X75279Y-54793D03*
X75279Y-55049D03*
X75279Y-55305D03*
X75279Y-55561D03*
X75279Y-55817D03*
X75279Y-56073D03*
X75279Y-56329D03*
X75279Y-56585D03*
X75279Y-56841D03*
X75279Y-57097D03*
X75279Y-57352D03*
X75279Y-57608D03*
X75279Y-57864D03*
X75279Y-58120D03*
X75023Y-54538D03*
X75023Y-54793D03*
X75023Y-55049D03*
X75023Y-55305D03*
X75023Y-55561D03*
X75023Y-55817D03*
X75023Y-56073D03*
X75023Y-56329D03*
X75023Y-56585D03*
X75023Y-56841D03*
X75023Y-57097D03*
X75023Y-57352D03*
X75023Y-57608D03*
X75023Y-57864D03*
X75023Y-58120D03*
X74767Y-54538D03*
X74767Y-54793D03*
X74767Y-55049D03*
X74767Y-55305D03*
X74767Y-57352D03*
X74767Y-57608D03*
X74767Y-57864D03*
X74767Y-58120D03*
X74511Y-54538D03*
X74511Y-54793D03*
X74511Y-55049D03*
X74511Y-55305D03*
X74511Y-55817D03*
X74511Y-56073D03*
X74511Y-56329D03*
X74511Y-56585D03*
X74511Y-56841D03*
X74511Y-57352D03*
X74511Y-57608D03*
X74511Y-57864D03*
X74511Y-58120D03*
X74255Y-54538D03*
X74255Y-54793D03*
X74255Y-55049D03*
X74255Y-55305D03*
X74255Y-55817D03*
X74255Y-56073D03*
X74255Y-56329D03*
X74255Y-56585D03*
X74255Y-56841D03*
X74255Y-57352D03*
X74255Y-57608D03*
X74255Y-57864D03*
X74255Y-58120D03*
X73999Y-54538D03*
X73999Y-54793D03*
X73999Y-55049D03*
X73999Y-55305D03*
X73999Y-55817D03*
X73999Y-56073D03*
X73999Y-56329D03*
X73999Y-56585D03*
X73999Y-56841D03*
X73999Y-57352D03*
X73999Y-57608D03*
X73999Y-57864D03*
X73999Y-58120D03*
X73743Y-54538D03*
X73743Y-54793D03*
X73743Y-55049D03*
X73743Y-55305D03*
X73743Y-55817D03*
X73743Y-56073D03*
X73743Y-56329D03*
X73743Y-56585D03*
X73743Y-56841D03*
X73743Y-57352D03*
X73743Y-57608D03*
X73743Y-57864D03*
X73743Y-58120D03*
X73487Y-54538D03*
X73487Y-54793D03*
X73487Y-55049D03*
X73487Y-55305D03*
X73487Y-55817D03*
X73487Y-56073D03*
X73487Y-56329D03*
X73487Y-56585D03*
X73487Y-56841D03*
X73487Y-57352D03*
X73487Y-57608D03*
X73487Y-57864D03*
X73487Y-58120D03*
X73231Y-54538D03*
X73231Y-54793D03*
X73231Y-55049D03*
X73231Y-55305D03*
X73231Y-57352D03*
X73231Y-57608D03*
X73231Y-57864D03*
X73231Y-58120D03*
X72976Y-54538D03*
X72976Y-54793D03*
X72976Y-55049D03*
X72976Y-55305D03*
X72976Y-55561D03*
X72976Y-55817D03*
X72976Y-56073D03*
X72976Y-56329D03*
X72976Y-56585D03*
X72976Y-56841D03*
X72976Y-57097D03*
X72976Y-57352D03*
X72976Y-57608D03*
X72976Y-57864D03*
X72976Y-58120D03*
X72720Y-54538D03*
X72720Y-54793D03*
X72720Y-55049D03*
X72720Y-55305D03*
X72720Y-55561D03*
X72720Y-55817D03*
X72720Y-56073D03*
X72720Y-56329D03*
X72720Y-56585D03*
X72720Y-56841D03*
X72720Y-57097D03*
X72720Y-57352D03*
X72720Y-57608D03*
X72720Y-57864D03*
X72720Y-58120D03*
X72464Y-54538D03*
X72464Y-54793D03*
X72464Y-55049D03*
X72464Y-55305D03*
X72464Y-55561D03*
X72464Y-55817D03*
X72464Y-56073D03*
X72464Y-56329D03*
X72464Y-56585D03*
X72464Y-56841D03*
X72464Y-57097D03*
X72464Y-57352D03*
X72464Y-57608D03*
X72464Y-57864D03*
X72464Y-58120D03*
X72208Y-54538D03*
X72208Y-54793D03*
X72208Y-55049D03*
X72208Y-55305D03*
X72208Y-55561D03*
X72208Y-55817D03*
X72208Y-56073D03*
X72208Y-56329D03*
X72208Y-56585D03*
X72208Y-56841D03*
X72208Y-57097D03*
X72208Y-57352D03*
X72208Y-57608D03*
X72208Y-57864D03*
X72208Y-58120D03*
G54D13*
X71736Y-45994D03*
X71736Y-45294D03*
X72536Y-45644D03*
X71162Y-45114D03*
X71162Y-45814D03*
X70362Y-45464D03*
G54D14*
X77782Y-59739D03*
X77407Y-58873D03*
X78157Y-58873D03*
G54D15*
X77647Y-45468D03*
X78434Y-45468D03*
G54D16*
X76900Y-61705D03*
X75759Y-61705D03*
G54D17*
X78165Y-61565D03*
X78165Y-62314D03*
G54D18*
X78163Y-51702D03*
X77572Y-51702D03*
G54D19*
X70938Y-61369D03*
X70938Y-60778D03*
X71520Y-61174D03*
X71520Y-61765D03*
X70336Y-60086D03*
X70336Y-60677D03*
G54D18*
X78163Y-52242D03*
X77572Y-52242D03*
X78163Y-52752D03*
X77572Y-52752D03*
G54D19*
X73164Y-46674D03*
X73164Y-47265D03*
G54D18*
X73357Y-45140D03*
X72766Y-45140D03*
G54D19*
X69670Y-43634D03*
X69670Y-44225D03*
G54D20*
X71413Y-49678D03*
X71806Y-49678D03*
X75289Y-52582D03*
X75682Y-52582D03*
X71413Y-49316D03*
X71806Y-49316D03*
X74964Y-52582D03*
X74571Y-52582D03*
X69912Y-58822D03*
X69519Y-58822D03*
X69538Y-59206D03*
X69145Y-59206D03*
X69217Y-56652D03*
X69610Y-56652D03*
X73294Y-58706D03*
X72901Y-58706D03*
X76789Y-52750D03*
X77182Y-52750D03*
X76781Y-52218D03*
X77174Y-52218D03*
X76783Y-51730D03*
X77176Y-51730D03*
X71684Y-50292D03*
X71291Y-50292D03*
X69571Y-57286D03*
X69964Y-57286D03*
X76420Y-43752D03*
X76027Y-43752D03*
G54D21*
X76118Y-44403D03*
X76118Y-44796D03*
G54D20*
X73825Y-53244D03*
X74218Y-53244D03*
X72138Y-48344D03*
X71745Y-48344D03*
G54D21*
X78474Y-59704D03*
X78474Y-59311D03*
G54D20*
X77606Y-62392D03*
X77213Y-62392D03*
X76156Y-58857D03*
X75763Y-58857D03*
G54D21*
X73190Y-53423D03*
X73190Y-53816D03*
X68566Y-60088D03*
X68566Y-59695D03*
G54D22*
X71984Y-51136D03*
X71787Y-51136D03*
X72181Y-51136D03*
X72181Y-52219D03*
X71787Y-52219D03*
X71984Y-52219D03*
G54D23*
X72526Y-51678D03*
X72526Y-51481D03*
X72526Y-51284D03*
X72526Y-51874D03*
X72526Y-52071D03*
X71443Y-52071D03*
X71443Y-51874D03*
X71443Y-51284D03*
X71443Y-51481D03*
X71443Y-51678D03*
G54D24*
X77005Y-44833D03*
X77005Y-44675D03*
X77005Y-44360D03*
X77005Y-44518D03*
X77005Y-44202D03*
X77714Y-44202D03*
X77714Y-44518D03*
X77714Y-44360D03*
X77714Y-44675D03*
X77714Y-44833D03*
G54D25*
X70539Y-44070D03*
X71051Y-44070D03*
X70795Y-44070D03*
X71819Y-44070D03*
X72075Y-44070D03*
X71563Y-44070D03*
X71307Y-44070D03*
X73354Y-44070D03*
X73610Y-44070D03*
X74122Y-44070D03*
X73866Y-44070D03*
X72842Y-44070D03*
X73098Y-44070D03*
X72586Y-44070D03*
X72330Y-44070D03*
G54D26*
X70701Y-46821D03*
X70504Y-46821D03*
X70307Y-46821D03*
X70307Y-47903D03*
X70504Y-47903D03*
X70701Y-47903D03*
G54D27*
X71045Y-46968D03*
X71045Y-47165D03*
X71045Y-47362D03*
X71045Y-47756D03*
X71045Y-47559D03*
X69963Y-47559D03*
X69963Y-47756D03*
X69963Y-47362D03*
X69963Y-47165D03*
X69963Y-46968D03*
G54D28*
X76954Y-50142D03*
X76954Y-50930D03*
X78096Y-50930D03*
X78096Y-50142D03*
G54D29*
X74728Y-61373D03*
G54D30*
X74826Y-62436D03*
X72661Y-62436D03*
X74137Y-62436D03*
G54D31*
X73244Y-61357D03*
X73494Y-61357D03*
X73744Y-61357D03*
X73994Y-61357D03*
X74244Y-61357D03*
G54D32*
X75122Y-62436D03*
X72366Y-62436D03*
G54D30*
X73350Y-62436D03*
G54D29*
X72760Y-61373D03*
G54D33*
X68681Y-44524D03*
G54D34*
X68759Y-45351D03*
X68760Y-43697D03*
X67421Y-43697D03*
X67421Y-45351D03*
G54D33*
X67499Y-44524D03*
X68677Y-46996D03*
G54D34*
X68755Y-47823D03*
X68756Y-46169D03*
X67417Y-46169D03*
X67417Y-47823D03*
G54D33*
X67495Y-46996D03*
X68681Y-49498D03*
G54D34*
X68759Y-50325D03*
X68760Y-48671D03*
X67421Y-48671D03*
X67421Y-50325D03*
G54D33*
X67499Y-49498D03*
X68711Y-57800D03*
G54D34*
X68789Y-58627D03*
X68790Y-56973D03*
X67451Y-56973D03*
X67451Y-58627D03*
G54D33*
X67529Y-57800D03*
G54D35*
X74131Y-46990D03*
G54D36*
X78128Y-46990D03*
G54D37*
X69231Y-61768D03*
X69546Y-61768D03*
X69231Y-62083D03*
X69861Y-62083D03*
X69546Y-62083D03*
X69546Y-61453D03*
X69861Y-61768D03*
X69861Y-61453D03*
X69231Y-61453D03*
G54D38*
X69940Y-60980D03*
X69743Y-60980D03*
X69349Y-60980D03*
X69546Y-60980D03*
X69152Y-60980D03*
X69152Y-62555D03*
X69546Y-62555D03*
X69349Y-62555D03*
X69743Y-62555D03*
X69940Y-62555D03*
G54D39*
X68758Y-61769D03*
X68758Y-61966D03*
X68758Y-62162D03*
X68758Y-61572D03*
X68758Y-61375D03*
X70333Y-61374D03*
X70333Y-61571D03*
X70333Y-62161D03*
X70333Y-61965D03*
G54D40*
X69546Y-61768D03*
G54D39*
X70333Y-61768D03*
G54D23*
X71064Y-49189D03*
X71064Y-49443D03*
X71064Y-49697D03*
X71064Y-49951D03*
X69540Y-49951D03*
X69540Y-49697D03*
X69540Y-49443D03*
X69540Y-49189D03*
G54D22*
X69921Y-48808D03*
X70175Y-48808D03*
X70429Y-48808D03*
X70683Y-48808D03*
X70683Y-50332D03*
X70429Y-50332D03*
X70175Y-50332D03*
X69921Y-50332D03*
G54D41*
X69856Y-52105D03*
X69856Y-51594D03*
X69856Y-51850D03*
X69383Y-52105D03*
X69383Y-51850D03*
X69383Y-51594D03*
G54D42*
X69621Y-60074D03*
X69050Y-60074D03*
X69050Y-59641D03*
X69621Y-59641D03*
G54D43*
X68163Y-61419D03*
X67652Y-61419D03*
X67908Y-61419D03*
X68163Y-61892D03*
X67908Y-61892D03*
X67652Y-61892D03*
G54D42*
X71413Y-53034D03*
X70842Y-53034D03*
X70842Y-52601D03*
X71413Y-52601D03*
G54D44*
X73544Y-54022D03*
X73544Y-53629D03*
X74075Y-53629D03*
X74075Y-54022D03*
G54D45*
X68559Y-52126D03*
X68559Y-52893D03*
X67792Y-52893D03*
X67792Y-52126D03*
G54D19*
X70854Y-51478D03*
X70854Y-52069D03*
X72580Y-50867D03*
X72580Y-50276D03*
X75550Y-60172D03*
X75550Y-60763D03*
G54D18*
X72241Y-47426D03*
X71650Y-47426D03*
G54D19*
X78246Y-44783D03*
X78246Y-44192D03*
G54D18*
X77118Y-43808D03*
X77709Y-43808D03*
X75822Y-45256D03*
X76413Y-45256D03*
X72245Y-47912D03*
X71654Y-47912D03*
G54D21*
X72172Y-50692D03*
X72172Y-50299D03*
X70372Y-52605D03*
X70372Y-52998D03*
X71510Y-53976D03*
X71510Y-53583D03*
X71868Y-53010D03*
X71868Y-52617D03*
G54D20*
X69836Y-48394D03*
X69443Y-48394D03*
G54D46*
X71654Y-60130D03*
X72654Y-60130D03*
X72154Y-60130D03*
X73154Y-60130D03*
G54D47*
X73654Y-60130D03*
G54D46*
X76630Y-62508D03*
G54D47*
X76130Y-62508D03*
G54D46*
X75470Y-51750D03*
X75470Y-51250D03*
X75470Y-50750D03*
X75470Y-49750D03*
X75470Y-50250D03*
X75470Y-49250D03*
X75970Y-49250D03*
X75970Y-50250D03*
X75970Y-49750D03*
X75970Y-50750D03*
X75970Y-51250D03*
G54D47*
X75970Y-51750D03*
G54D48*
X78056Y-55998D03*
X77556Y-55998D03*
X78056Y-56998D03*
X77556Y-56998D03*
X77556Y-56498D03*
X78056Y-56498D03*
X78056Y-57498D03*
X77556Y-57498D03*
X77556Y-57998D03*
G54D49*
X78056Y-57998D03*
G54D20*
X68189Y-51288D03*
X68582Y-51288D03*
G54D21*
X67674Y-50887D03*
X67674Y-51280D03*
G54D50*
X67276Y-62664D03*
G54D51*
X67698Y-59948D03*
X75264Y-44226D03*
X78008Y-60670D03*
X69638Y-45828D03*
G54D52*
X77592Y-61717D03*
X77435Y-61717D03*
X77435Y-61875D03*
X77592Y-61875D03*
X77592Y-62032D03*
X77435Y-62032D03*
G54D21*
X75380Y-45053D03*
X75380Y-45446D03*
G54D19*
X67470Y-54364D03*
X67470Y-54955D03*
G54D53*
X76400Y-60240D03*
X76636Y-60082D03*
X76636Y-60397D03*
X76163Y-60397D03*
G54D54*
X76006Y-59373D03*
X76203Y-59373D03*
X76596Y-59373D03*
X76400Y-59373D03*
X76793Y-59373D03*
X76793Y-61106D03*
X76400Y-61106D03*
X76596Y-61106D03*
X76203Y-61106D03*
X76006Y-61106D03*
G54D55*
X76400Y-60240D03*
G54D53*
X76163Y-60082D03*
G54D56*
X70056Y-55526D03*
X70056Y-54345D03*
X70056Y-54739D03*
X70056Y-55132D03*
X70450Y-55132D03*
X70450Y-54739D03*
X70450Y-54345D03*
X70450Y-55526D03*
X69663Y-55526D03*
X69663Y-54345D03*
X69663Y-54739D03*
X69663Y-55132D03*
X69269Y-55132D03*
X69269Y-54739D03*
X69269Y-54345D03*
X69269Y-55526D03*
G54D57*
X68974Y-56117D03*
X69171Y-56117D03*
X69367Y-56117D03*
X69564Y-56117D03*
X69761Y-56117D03*
X69958Y-56117D03*
X70155Y-56117D03*
X70352Y-56117D03*
X70548Y-56117D03*
X70745Y-56117D03*
G54D58*
X71041Y-55821D03*
X71041Y-55624D03*
X71041Y-55428D03*
X71041Y-55231D03*
X71041Y-55034D03*
X71041Y-54837D03*
X71041Y-54640D03*
X71041Y-54443D03*
X71041Y-54247D03*
X71041Y-54050D03*
G54D57*
X70745Y-53754D03*
X70548Y-53754D03*
X70352Y-53754D03*
X70155Y-53754D03*
X69958Y-53754D03*
X69761Y-53754D03*
X69564Y-53754D03*
X69367Y-53754D03*
X69171Y-53754D03*
X68974Y-53754D03*
G54D58*
X68678Y-54050D03*
X68678Y-54247D03*
X68678Y-54443D03*
X68678Y-54640D03*
X68678Y-54837D03*
X68678Y-55034D03*
X68678Y-55231D03*
X68678Y-55428D03*
X68678Y-55624D03*
X68678Y-55821D03*
G54D59*
X69860Y-54936D03*
M02*
