G04 (created by PCBNEW (2013-mar-30)-stable) date Mon 03 Jun 2013 06:42:55 PM EDT*
%MOIN*%
G04 Gerber Fmt 3.4, Leading zero omitted, Abs format*
%FSLAX34Y34*%
G01*
G70*
G90*
G04 APERTURE LIST*
%ADD10C,0.006*%
%ADD11C,0.00787402*%
%ADD12C,0.011811*%
%ADD13C,0.00590551*%
%ADD14C,0.012*%
%ADD15C,0.0047*%
%ADD16C,0.0031*%
%ADD17C,0.0039*%
%ADD18C,0.0079*%
%ADD19C,0.00669291*%
%ADD20C,0.0051*%
%ADD21C,0.0069*%
%ADD22R,0.0551181X0.0866142*%
%ADD23C,0.0230315*%
%ADD24R,0.051748X0.051748*%
%ADD25R,0.047248X0.055148*%
%ADD26R,0.047248X0.035448*%
%ADD27R,0.0511811X0.0787402*%
%ADD28R,0.0669291X0.0433071*%
%ADD29R,0.0393701X0.0511811*%
%ADD30R,0.0511811X0.0393701*%
%ADD31R,0.0354331X0.0393701*%
%ADD32R,0.0393701X0.0354331*%
%ADD33R,0.027548X0.047248*%
%ADD34R,0.047248X0.027548*%
%ADD35R,0.047248X0.023648*%
%ADD36R,0.029548X0.094448*%
%ADD37R,0.025548X0.043348*%
%ADD38R,0.043348X0.025548*%
%ADD39R,0.039348X0.039348*%
%ADD40O,0.064948X0.053148*%
%ADD41R,0.074848X0.078748*%
%ADD42R,0.031448X0.074848*%
%ADD43O,0.051148X0.078748*%
%ADD44C,0.051148*%
%ADD45R,0.055148X0.066948*%
%ADD46R,0.082648X0.173248*%
%ADD47R,0.094448X0.212648*%
%ADD48C,0.028748*%
%ADD49R,0.026748X0.055148*%
%ADD50R,0.055148X0.026748*%
%ADD51R,0.110248X0.110248*%
%ADD52R,0.0433071X0.0275591*%
%ADD53R,0.0531496X0.0492126*%
%ADD54R,0.0275591X0.0433071*%
%ADD55R,0.0452756X0.0433071*%
%ADD56R,0.076378X0.076378*%
%ADD57C,0.055748*%
%ADD58R,0.055748X0.055748*%
%ADD59C,0.057748*%
%ADD60R,0.057748X0.057748*%
%ADD61R,0.023622X0.0629921*%
%ADD62C,0.105748*%
%ADD63C,0.023622*%
%ADD64C,0.0393701*%
%ADD65R,0.0275591X0.0551181*%
%ADD66R,0.0897638X0.0775591*%
%ADD67R,0.0354331X0.0354331*%
%ADD68R,0.0267717X0.0492126*%
%ADD69R,0.0492126X0.0267717*%
%ADD70R,0.192913X0.192913*%
G04 APERTURE END LIST*
G54D10*
G54D11*
X74194Y-60320D02*
X74373Y-60320D01*
X74284Y-60320D02*
X74284Y-60005D01*
X74313Y-60050D01*
X74343Y-60080D01*
X74373Y-60095D01*
G54D12*
X77229Y-49771D02*
X77032Y-49489D01*
X76892Y-49771D02*
X76892Y-49180D01*
X77117Y-49180D01*
X77173Y-49208D01*
X77201Y-49236D01*
X77229Y-49292D01*
X77229Y-49377D01*
X77201Y-49433D01*
X77173Y-49461D01*
X77117Y-49489D01*
X76892Y-49489D01*
X77454Y-49742D02*
X77538Y-49771D01*
X77679Y-49771D01*
X77735Y-49742D01*
X77763Y-49714D01*
X77792Y-49658D01*
X77792Y-49602D01*
X77763Y-49546D01*
X77735Y-49517D01*
X77679Y-49489D01*
X77567Y-49461D01*
X77510Y-49433D01*
X77482Y-49405D01*
X77454Y-49349D01*
X77454Y-49292D01*
X77482Y-49236D01*
X77510Y-49208D01*
X77567Y-49180D01*
X77707Y-49180D01*
X77792Y-49208D01*
X77960Y-49180D02*
X78298Y-49180D01*
X78129Y-49771D02*
X78129Y-49180D01*
G54D11*
X74160Y-51555D02*
X74122Y-51536D01*
X74066Y-51536D01*
X74010Y-51555D01*
X73972Y-51592D01*
X73953Y-51630D01*
X73935Y-51705D01*
X73935Y-51761D01*
X73953Y-51836D01*
X73972Y-51874D01*
X74010Y-51911D01*
X74066Y-51930D01*
X74103Y-51930D01*
X74160Y-51911D01*
X74178Y-51892D01*
X74178Y-51761D01*
X74103Y-51761D01*
X74347Y-51930D02*
X74347Y-51536D01*
X74572Y-51930D01*
X74572Y-51536D01*
X74760Y-51930D02*
X74760Y-51536D01*
X74853Y-51536D01*
X74910Y-51555D01*
X74947Y-51592D01*
X74966Y-51630D01*
X74985Y-51705D01*
X74985Y-51761D01*
X74966Y-51836D01*
X74947Y-51874D01*
X74910Y-51911D01*
X74853Y-51930D01*
X74760Y-51930D01*
X73840Y-50998D02*
X73971Y-51392D01*
X74103Y-50998D01*
X74234Y-51392D02*
X74234Y-50998D01*
X74234Y-51148D02*
X74271Y-51129D01*
X74346Y-51129D01*
X74384Y-51148D01*
X74403Y-51167D01*
X74421Y-51204D01*
X74421Y-51317D01*
X74403Y-51354D01*
X74384Y-51373D01*
X74346Y-51392D01*
X74271Y-51392D01*
X74234Y-51373D01*
X74759Y-51392D02*
X74759Y-51186D01*
X74740Y-51148D01*
X74703Y-51129D01*
X74628Y-51129D01*
X74590Y-51148D01*
X74759Y-51373D02*
X74721Y-51392D01*
X74628Y-51392D01*
X74590Y-51373D01*
X74571Y-51336D01*
X74571Y-51298D01*
X74590Y-51261D01*
X74628Y-51242D01*
X74721Y-51242D01*
X74759Y-51223D01*
X74890Y-51129D02*
X75040Y-51129D01*
X74946Y-50998D02*
X74946Y-51336D01*
X74965Y-51373D01*
X75003Y-51392D01*
X75040Y-51392D01*
X73748Y-50495D02*
X73880Y-50889D01*
X74011Y-50495D01*
X74142Y-50889D02*
X74142Y-50495D01*
X74142Y-50645D02*
X74180Y-50626D01*
X74255Y-50626D01*
X74292Y-50645D01*
X74311Y-50664D01*
X74330Y-50701D01*
X74330Y-50814D01*
X74311Y-50851D01*
X74292Y-50870D01*
X74255Y-50889D01*
X74180Y-50889D01*
X74142Y-50870D01*
X74667Y-50626D02*
X74667Y-50889D01*
X74498Y-50626D02*
X74498Y-50833D01*
X74517Y-50870D01*
X74555Y-50889D01*
X74611Y-50889D01*
X74648Y-50870D01*
X74667Y-50851D01*
X74836Y-50870D02*
X74873Y-50889D01*
X74948Y-50889D01*
X74986Y-50870D01*
X75005Y-50833D01*
X75005Y-50814D01*
X74986Y-50776D01*
X74948Y-50758D01*
X74892Y-50758D01*
X74855Y-50739D01*
X74836Y-50701D01*
X74836Y-50683D01*
X74855Y-50645D01*
X74892Y-50626D01*
X74948Y-50626D01*
X74986Y-50645D01*
X74397Y-50030D02*
X74528Y-50424D01*
X74659Y-50030D01*
X74753Y-50030D02*
X74997Y-50030D01*
X74865Y-50180D01*
X74922Y-50180D01*
X74959Y-50199D01*
X74978Y-50218D01*
X74997Y-50255D01*
X74997Y-50349D01*
X74978Y-50386D01*
X74959Y-50405D01*
X74922Y-50424D01*
X74809Y-50424D01*
X74772Y-50405D01*
X74753Y-50386D01*
G54D13*
X74893Y-52942D02*
X74893Y-53297D01*
X75306Y-53297D02*
X75306Y-52942D01*
X75218Y-53238D02*
X74981Y-53238D01*
X74981Y-53238D02*
X74981Y-53001D01*
X74981Y-53001D02*
X75218Y-53001D01*
X75218Y-53001D02*
X75218Y-53238D01*
X75729Y-53415D02*
X74470Y-53415D01*
X74470Y-53415D02*
X74470Y-52824D01*
X74470Y-52824D02*
X75729Y-52824D01*
X75729Y-52824D02*
X75729Y-53415D01*
G54D14*
X71958Y-54288D02*
X71958Y-58370D01*
X71958Y-58370D02*
X76040Y-58370D01*
X76040Y-58370D02*
X76040Y-54288D01*
X76040Y-54288D02*
X71958Y-54288D01*
G54D15*
X71986Y-46244D02*
X71986Y-45044D01*
X71986Y-45044D02*
X72286Y-45044D01*
X72286Y-45044D02*
X72286Y-46244D01*
X72286Y-46244D02*
X71986Y-46244D01*
X70912Y-44864D02*
X70912Y-46064D01*
X70912Y-46064D02*
X70612Y-46064D01*
X70612Y-46064D02*
X70612Y-44864D01*
X70612Y-44864D02*
X70912Y-44864D01*
G54D16*
X78307Y-59168D02*
G75*
G03X78307Y-59168I-62J0D01*
G74*
G01*
X77282Y-59506D02*
X77282Y-59106D01*
X78307Y-59506D02*
X78307Y-59106D01*
X77282Y-59106D02*
X78307Y-59106D01*
X78307Y-59506D02*
X77282Y-59506D01*
G54D17*
X78158Y-45192D02*
X78158Y-45744D01*
X78197Y-45744D02*
X78197Y-45192D01*
X78335Y-45173D02*
X77745Y-45173D01*
X77745Y-45173D02*
X77745Y-45763D01*
X77745Y-45763D02*
X78335Y-45763D01*
X78335Y-45763D02*
X78335Y-45173D01*
X78335Y-45173D02*
X78237Y-45173D01*
X78237Y-45173D02*
X78237Y-45763D01*
X78237Y-45763D02*
X78138Y-45763D01*
X78138Y-45763D02*
X78138Y-45173D01*
G54D13*
X75759Y-61360D02*
X76900Y-61360D01*
X75759Y-62049D02*
X76900Y-62049D01*
X77879Y-62304D02*
X77879Y-61556D01*
X78450Y-62304D02*
X78450Y-61556D01*
X77572Y-51908D02*
X78163Y-51908D01*
X77572Y-51495D02*
X78163Y-51495D01*
X70731Y-60778D02*
X70731Y-61369D01*
X71144Y-60778D02*
X71144Y-61369D01*
X71726Y-61765D02*
X71726Y-61174D01*
X71313Y-61765D02*
X71313Y-61174D01*
X70542Y-60677D02*
X70542Y-60086D01*
X70129Y-60677D02*
X70129Y-60086D01*
X77572Y-52448D02*
X78163Y-52448D01*
X77572Y-52035D02*
X78163Y-52035D01*
X77572Y-52958D02*
X78163Y-52958D01*
X77572Y-52545D02*
X78163Y-52545D01*
X73370Y-47265D02*
X73370Y-46674D01*
X72957Y-47265D02*
X72957Y-46674D01*
X72766Y-45346D02*
X73357Y-45346D01*
X72766Y-44933D02*
X73357Y-44933D01*
X69876Y-44225D02*
X69876Y-43634D01*
X69463Y-44225D02*
X69463Y-43634D01*
X71806Y-49530D02*
X71413Y-49530D01*
X71806Y-49825D02*
X71413Y-49825D01*
X75682Y-52434D02*
X75289Y-52434D01*
X75682Y-52729D02*
X75289Y-52729D01*
X71806Y-49168D02*
X71413Y-49168D01*
X71806Y-49463D02*
X71413Y-49463D01*
X74571Y-52729D02*
X74964Y-52729D01*
X74571Y-52434D02*
X74964Y-52434D01*
X69519Y-58969D02*
X69912Y-58969D01*
X69519Y-58674D02*
X69912Y-58674D01*
X69145Y-59353D02*
X69538Y-59353D01*
X69145Y-59058D02*
X69538Y-59058D01*
X69610Y-56504D02*
X69217Y-56504D01*
X69610Y-56799D02*
X69217Y-56799D01*
X72901Y-58853D02*
X73294Y-58853D01*
X72901Y-58558D02*
X73294Y-58558D01*
X77182Y-52602D02*
X76789Y-52602D01*
X77182Y-52897D02*
X76789Y-52897D01*
X77174Y-52070D02*
X76781Y-52070D01*
X77174Y-52365D02*
X76781Y-52365D01*
X77176Y-51582D02*
X76783Y-51582D01*
X77176Y-51877D02*
X76783Y-51877D01*
X71291Y-50439D02*
X71684Y-50439D01*
X71291Y-50144D02*
X71684Y-50144D01*
X69964Y-57138D02*
X69571Y-57138D01*
X69964Y-57433D02*
X69571Y-57433D01*
X76027Y-43899D02*
X76420Y-43899D01*
X76027Y-43604D02*
X76420Y-43604D01*
X76265Y-44796D02*
X76265Y-44403D01*
X75970Y-44796D02*
X75970Y-44403D01*
X74218Y-53096D02*
X73825Y-53096D01*
X74218Y-53391D02*
X73825Y-53391D01*
X71745Y-48491D02*
X72138Y-48491D01*
X71745Y-48196D02*
X72138Y-48196D01*
X78326Y-59311D02*
X78326Y-59704D01*
X78621Y-59311D02*
X78621Y-59704D01*
X77213Y-62539D02*
X77606Y-62539D01*
X77213Y-62244D02*
X77606Y-62244D01*
X75763Y-59004D02*
X76156Y-59004D01*
X75763Y-58709D02*
X76156Y-58709D01*
X73337Y-53816D02*
X73337Y-53423D01*
X73042Y-53816D02*
X73042Y-53423D01*
X68418Y-59695D02*
X68418Y-60088D01*
X68713Y-59695D02*
X68713Y-60088D01*
G54D18*
X71906Y-51531D02*
G75*
G03X71906Y-51531I-69J0D01*
G74*
G01*
X71393Y-51087D02*
X71393Y-52269D01*
X71393Y-52269D02*
X72575Y-52269D01*
X72575Y-52269D02*
X72575Y-51087D01*
X72575Y-51087D02*
X71393Y-51087D01*
G54D17*
X77438Y-44793D02*
G75*
G03X77438Y-44793I-39J0D01*
G74*
G01*
G54D18*
X77754Y-44912D02*
X77754Y-44124D01*
X77754Y-44124D02*
X76966Y-44124D01*
X76966Y-44124D02*
X76966Y-44912D01*
X76966Y-44912D02*
X77754Y-44912D01*
G54D17*
X74633Y-43558D02*
X74633Y-44582D01*
X74633Y-44582D02*
X70027Y-44582D01*
X70027Y-44582D02*
X70027Y-43558D01*
X70027Y-43558D02*
X74633Y-43558D01*
G54D18*
X70376Y-47165D02*
G75*
G03X70376Y-47165I-69J0D01*
G74*
G01*
X69913Y-46771D02*
X69913Y-47953D01*
X69913Y-47953D02*
X71095Y-47953D01*
X71095Y-47953D02*
X71095Y-46771D01*
X71095Y-46771D02*
X69913Y-46771D01*
G54D17*
X77806Y-50536D02*
G75*
G03X77806Y-50536I-300J0D01*
G74*
G01*
X78097Y-50024D02*
X78097Y-51048D01*
X78097Y-51048D02*
X76915Y-51048D01*
X76915Y-51048D02*
X76915Y-50024D01*
X76915Y-50024D02*
X78097Y-50024D01*
X66870Y-45311D02*
X66870Y-43737D01*
X66870Y-43737D02*
X69310Y-43737D01*
X69310Y-43737D02*
X69310Y-45311D01*
X69310Y-45311D02*
X66870Y-45311D01*
X66866Y-47783D02*
X66866Y-46209D01*
X66866Y-46209D02*
X69306Y-46209D01*
X69306Y-46209D02*
X69306Y-47783D01*
X69306Y-47783D02*
X66866Y-47783D01*
X66870Y-50285D02*
X66870Y-48711D01*
X66870Y-48711D02*
X69310Y-48711D01*
X69310Y-48711D02*
X69310Y-50285D01*
X69310Y-50285D02*
X66870Y-50285D01*
X66900Y-58587D02*
X66900Y-57013D01*
X66900Y-57013D02*
X69340Y-57013D01*
X69340Y-57013D02*
X69340Y-58587D01*
X69340Y-58587D02*
X66900Y-58587D01*
X78069Y-48565D02*
X78069Y-49352D01*
X78462Y-48959D02*
X77675Y-48959D01*
X77439Y-46990D02*
G75*
G03X77439Y-46990I-1339J0D01*
G74*
G01*
X70254Y-62437D02*
G75*
G03X70254Y-62437I-39J0D01*
G74*
G01*
X70333Y-62555D02*
X68759Y-62555D01*
X68759Y-62555D02*
X68759Y-60981D01*
X68759Y-60981D02*
X70333Y-60981D01*
X70333Y-60981D02*
X70333Y-62555D01*
G54D18*
X71070Y-50338D02*
X69534Y-50338D01*
X69534Y-48802D02*
X71070Y-48802D01*
X70174Y-49826D02*
G75*
G03X70174Y-49826I-128J0D01*
G74*
G01*
X69534Y-50338D02*
X69534Y-48802D01*
X71070Y-48802D02*
X71070Y-50338D01*
G54D13*
X69560Y-51239D02*
X69560Y-51338D01*
X69570Y-51338D02*
X69679Y-51338D01*
X69679Y-51338D02*
X69679Y-51239D01*
X69679Y-51239D02*
X69570Y-51239D01*
X69413Y-51456D02*
X69856Y-51456D01*
X69856Y-51456D02*
X69856Y-52243D01*
X69856Y-52243D02*
X69413Y-52243D01*
X69413Y-52243D02*
X69413Y-51456D01*
X69847Y-60281D02*
X68824Y-60281D01*
X68824Y-60281D02*
X68824Y-59454D01*
X68824Y-59454D02*
X68824Y-59434D01*
X68824Y-59434D02*
X69847Y-59434D01*
X69847Y-59434D02*
X69847Y-60281D01*
X67297Y-61715D02*
X67396Y-61715D01*
X67396Y-61705D02*
X67396Y-61596D01*
X67396Y-61596D02*
X67297Y-61596D01*
X67297Y-61596D02*
X67297Y-61705D01*
X67514Y-61862D02*
X67514Y-61419D01*
X67514Y-61419D02*
X68301Y-61419D01*
X68301Y-61419D02*
X68301Y-61862D01*
X68301Y-61862D02*
X67514Y-61862D01*
X71639Y-53241D02*
X70616Y-53241D01*
X70616Y-53241D02*
X70616Y-52414D01*
X70616Y-52414D02*
X70616Y-52394D01*
X70616Y-52394D02*
X71639Y-52394D01*
X71639Y-52394D02*
X71639Y-53241D01*
X74203Y-54140D02*
X73416Y-54140D01*
X73416Y-54140D02*
X73416Y-53511D01*
X73416Y-53511D02*
X74203Y-53511D01*
X74203Y-53511D02*
X74203Y-54140D01*
X71060Y-52069D02*
X71060Y-51478D01*
X70647Y-52069D02*
X70647Y-51478D01*
X72373Y-50276D02*
X72373Y-50867D01*
X72786Y-50276D02*
X72786Y-50867D01*
X75756Y-60763D02*
X75756Y-60172D01*
X75343Y-60763D02*
X75343Y-60172D01*
X71650Y-47632D02*
X72241Y-47632D01*
X71650Y-47219D02*
X72241Y-47219D01*
X78039Y-44192D02*
X78039Y-44783D01*
X78452Y-44192D02*
X78452Y-44783D01*
X77709Y-43601D02*
X77118Y-43601D01*
X77709Y-44014D02*
X77118Y-44014D01*
X76413Y-45049D02*
X75822Y-45049D01*
X76413Y-45462D02*
X75822Y-45462D01*
X71654Y-48118D02*
X72245Y-48118D01*
X71654Y-47705D02*
X72245Y-47705D01*
X72024Y-50299D02*
X72024Y-50692D01*
X72319Y-50299D02*
X72319Y-50692D01*
X70519Y-52998D02*
X70519Y-52605D01*
X70224Y-52998D02*
X70224Y-52605D01*
X71362Y-53583D02*
X71362Y-53976D01*
X71657Y-53583D02*
X71657Y-53976D01*
X71720Y-52617D02*
X71720Y-53010D01*
X72015Y-52617D02*
X72015Y-53010D01*
X69443Y-48541D02*
X69836Y-48541D01*
X69443Y-48246D02*
X69836Y-48246D01*
X73404Y-59880D02*
X73904Y-59880D01*
X73904Y-60380D02*
X73404Y-60380D01*
X73404Y-60430D02*
X73904Y-60430D01*
X73904Y-60480D02*
X73404Y-60480D01*
X73404Y-59830D02*
X73904Y-59830D01*
X73904Y-59780D02*
X73454Y-59780D01*
X73904Y-60530D02*
X73904Y-59730D01*
X74004Y-59730D02*
X74004Y-60530D01*
X73404Y-60530D02*
X73404Y-59730D01*
X73954Y-60530D02*
X73954Y-59730D01*
X74054Y-60530D02*
X71254Y-60530D01*
X71254Y-60530D02*
X71254Y-59730D01*
X71254Y-59730D02*
X74054Y-59730D01*
X74054Y-59730D02*
X74054Y-60530D01*
X76380Y-62758D02*
X75880Y-62758D01*
X75880Y-62258D02*
X76380Y-62258D01*
X76380Y-62208D02*
X75880Y-62208D01*
X75880Y-62158D02*
X76380Y-62158D01*
X76380Y-62808D02*
X75880Y-62808D01*
X75880Y-62858D02*
X76330Y-62858D01*
X75880Y-62108D02*
X75880Y-62908D01*
X75780Y-62908D02*
X75780Y-62108D01*
X76380Y-62108D02*
X76380Y-62908D01*
X75830Y-62108D02*
X75830Y-62908D01*
X75730Y-62108D02*
X77030Y-62108D01*
X77030Y-62108D02*
X77030Y-62908D01*
X77030Y-62908D02*
X75730Y-62908D01*
X75730Y-62908D02*
X75730Y-62108D01*
X76320Y-52100D02*
X76320Y-48900D01*
X76320Y-48900D02*
X75120Y-48900D01*
X75120Y-48900D02*
X75120Y-52100D01*
X75120Y-52100D02*
X76320Y-52100D01*
G54D17*
X78406Y-57298D02*
X78806Y-57298D01*
X78806Y-57298D02*
X78806Y-56698D01*
X78806Y-56698D02*
X78406Y-56698D01*
X78406Y-58298D02*
X78406Y-55698D01*
X78406Y-55698D02*
X77206Y-55698D01*
X77206Y-55698D02*
X77206Y-58298D01*
X77206Y-58298D02*
X78406Y-58298D01*
G54D13*
X68582Y-51140D02*
X68189Y-51140D01*
X68582Y-51435D02*
X68189Y-51435D01*
X67821Y-51280D02*
X67821Y-50887D01*
X67526Y-51280D02*
X67526Y-50887D01*
X77907Y-62268D02*
G75*
G03X77907Y-62268I-78J0D01*
G74*
G01*
X77671Y-62111D02*
X77356Y-62111D01*
X77356Y-62111D02*
X77356Y-61638D01*
X77356Y-61638D02*
X77671Y-61638D01*
X77671Y-61638D02*
X77671Y-62111D01*
X75527Y-45446D02*
X75527Y-45053D01*
X75232Y-45446D02*
X75232Y-45053D01*
X67676Y-54955D02*
X67676Y-54364D01*
X67263Y-54955D02*
X67263Y-54364D01*
X75763Y-61027D02*
G75*
G03X75763Y-61027I-111J0D01*
G74*
G01*
X75809Y-60830D02*
X75809Y-59649D01*
X75809Y-59649D02*
X76990Y-59649D01*
X76990Y-59649D02*
X76990Y-60830D01*
X76990Y-60830D02*
X75809Y-60830D01*
X68719Y-56215D02*
G75*
G03X68719Y-56215I-139J0D01*
G74*
G01*
G54D19*
X75421Y-53620D02*
X75710Y-54053D01*
X75710Y-53620D02*
X75421Y-54053D01*
X76081Y-53620D02*
X75875Y-53620D01*
X75854Y-53826D01*
X75875Y-53805D01*
X75916Y-53785D01*
X76019Y-53785D01*
X76060Y-53805D01*
X76081Y-53826D01*
X76101Y-53867D01*
X76101Y-53970D01*
X76081Y-54012D01*
X76060Y-54032D01*
X76019Y-54053D01*
X75916Y-54053D01*
X75875Y-54032D01*
X75854Y-54012D01*
X74475Y-58416D02*
X74475Y-58766D01*
X74496Y-58808D01*
X74517Y-58828D01*
X74558Y-58849D01*
X74640Y-58849D01*
X74682Y-58828D01*
X74702Y-58808D01*
X74723Y-58766D01*
X74723Y-58416D01*
X75156Y-58849D02*
X74908Y-58849D01*
X75032Y-58849D02*
X75032Y-58416D01*
X74991Y-58478D01*
X74950Y-58519D01*
X74908Y-58539D01*
X75568Y-58849D02*
X75321Y-58849D01*
X75445Y-58849D02*
X75445Y-58416D01*
X75403Y-58478D01*
X75362Y-58519D01*
X75321Y-58539D01*
G54D20*
X69783Y-45308D02*
X69754Y-45293D01*
X69726Y-45265D01*
X69683Y-45222D01*
X69654Y-45208D01*
X69626Y-45208D01*
X69640Y-45279D02*
X69612Y-45265D01*
X69583Y-45236D01*
X69569Y-45179D01*
X69569Y-45079D01*
X69583Y-45022D01*
X69612Y-44993D01*
X69640Y-44979D01*
X69697Y-44979D01*
X69726Y-44993D01*
X69754Y-45022D01*
X69769Y-45079D01*
X69769Y-45179D01*
X69754Y-45236D01*
X69726Y-45265D01*
X69697Y-45279D01*
X69640Y-45279D01*
X69883Y-45008D02*
X69897Y-44993D01*
X69926Y-44979D01*
X69997Y-44979D01*
X70026Y-44993D01*
X70040Y-45008D01*
X70054Y-45036D01*
X70054Y-45065D01*
X70040Y-45108D01*
X69869Y-45279D01*
X70054Y-45279D01*
X72421Y-46330D02*
X72392Y-46315D01*
X72364Y-46287D01*
X72321Y-46244D01*
X72292Y-46230D01*
X72264Y-46230D01*
X72278Y-46301D02*
X72250Y-46287D01*
X72221Y-46258D01*
X72207Y-46201D01*
X72207Y-46101D01*
X72221Y-46044D01*
X72250Y-46015D01*
X72278Y-46001D01*
X72335Y-46001D01*
X72364Y-46015D01*
X72392Y-46044D01*
X72407Y-46101D01*
X72407Y-46201D01*
X72392Y-46258D01*
X72364Y-46287D01*
X72335Y-46301D01*
X72278Y-46301D01*
X72692Y-46301D02*
X72521Y-46301D01*
X72607Y-46301D02*
X72607Y-46001D01*
X72578Y-46044D01*
X72550Y-46072D01*
X72521Y-46087D01*
G54D15*
X77141Y-60136D02*
X77384Y-60136D01*
X77412Y-60122D01*
X77427Y-60108D01*
X77441Y-60079D01*
X77441Y-60022D01*
X77427Y-59993D01*
X77412Y-59979D01*
X77384Y-59965D01*
X77141Y-59965D01*
X77141Y-59693D02*
X77141Y-59750D01*
X77155Y-59779D01*
X77170Y-59793D01*
X77212Y-59822D01*
X77270Y-59836D01*
X77384Y-59836D01*
X77412Y-59822D01*
X77427Y-59808D01*
X77441Y-59779D01*
X77441Y-59722D01*
X77427Y-59693D01*
X77412Y-59679D01*
X77384Y-59665D01*
X77312Y-59665D01*
X77284Y-59679D01*
X77270Y-59693D01*
X77255Y-59722D01*
X77255Y-59779D01*
X77270Y-59808D01*
X77284Y-59822D01*
X77312Y-59836D01*
G54D17*
X76734Y-59385D02*
X76734Y-59188D01*
X76800Y-59329D01*
X76865Y-59188D01*
X76865Y-59385D01*
X77072Y-59366D02*
X77062Y-59376D01*
X77034Y-59385D01*
X77015Y-59385D01*
X76987Y-59376D01*
X76969Y-59357D01*
X76959Y-59338D01*
X76950Y-59301D01*
X76950Y-59273D01*
X76959Y-59235D01*
X76969Y-59216D01*
X76987Y-59198D01*
X77015Y-59188D01*
X77034Y-59188D01*
X77062Y-59198D01*
X77072Y-59207D01*
X77156Y-59385D02*
X77156Y-59188D01*
X77231Y-59188D01*
X77250Y-59198D01*
X77259Y-59207D01*
X77269Y-59226D01*
X77269Y-59254D01*
X77259Y-59273D01*
X77250Y-59282D01*
X77231Y-59291D01*
X77156Y-59291D01*
X77456Y-59385D02*
X77344Y-59385D01*
X77400Y-59385D02*
X77400Y-59188D01*
X77381Y-59216D01*
X77363Y-59235D01*
X77344Y-59245D01*
X77644Y-59385D02*
X77531Y-59385D01*
X77588Y-59385D02*
X77588Y-59188D01*
X77569Y-59216D01*
X77550Y-59235D01*
X77531Y-59245D01*
X77832Y-59385D02*
X77719Y-59385D01*
X77775Y-59385D02*
X77775Y-59188D01*
X77757Y-59216D01*
X77738Y-59235D01*
X77719Y-59245D01*
X77888Y-59188D02*
X78000Y-59188D01*
X77944Y-59385D02*
X77944Y-59188D01*
X78066Y-59310D02*
X78216Y-59310D01*
X78291Y-59188D02*
X78413Y-59188D01*
X78348Y-59263D01*
X78376Y-59263D01*
X78394Y-59273D01*
X78404Y-59282D01*
X78413Y-59301D01*
X78413Y-59348D01*
X78404Y-59366D01*
X78394Y-59376D01*
X78376Y-59385D01*
X78319Y-59385D01*
X78301Y-59376D01*
X78291Y-59366D01*
X78601Y-59385D02*
X78488Y-59385D01*
X78545Y-59385D02*
X78545Y-59188D01*
X78526Y-59216D01*
X78507Y-59235D01*
X78488Y-59245D01*
X78779Y-59188D02*
X78685Y-59188D01*
X78676Y-59282D01*
X78685Y-59273D01*
X78704Y-59263D01*
X78751Y-59263D01*
X78770Y-59273D01*
X78779Y-59282D01*
X78788Y-59301D01*
X78788Y-59348D01*
X78779Y-59366D01*
X78770Y-59376D01*
X78751Y-59385D01*
X78704Y-59385D01*
X78685Y-59376D01*
X78676Y-59366D01*
G54D19*
X76688Y-45953D02*
X76688Y-45520D01*
X76791Y-45520D01*
X76853Y-45540D01*
X76894Y-45582D01*
X76915Y-45623D01*
X76935Y-45705D01*
X76935Y-45767D01*
X76915Y-45850D01*
X76894Y-45891D01*
X76853Y-45932D01*
X76791Y-45953D01*
X76688Y-45953D01*
X77348Y-45953D02*
X77100Y-45953D01*
X77224Y-45953D02*
X77224Y-45520D01*
X77183Y-45582D01*
X77142Y-45623D01*
X77100Y-45643D01*
X75441Y-61138D02*
X75336Y-61138D01*
X75336Y-61303D02*
X75336Y-60988D01*
X75486Y-60988D01*
X75770Y-61303D02*
X75590Y-61303D01*
X75680Y-61303D02*
X75680Y-60988D01*
X75650Y-61033D01*
X75620Y-61063D01*
X75590Y-61078D01*
X78250Y-62841D02*
X78118Y-62841D01*
X78118Y-62565D01*
X78486Y-62841D02*
X78328Y-62841D01*
X78407Y-62841D02*
X78407Y-62565D01*
X78381Y-62605D01*
X78355Y-62631D01*
X78328Y-62644D01*
X77716Y-53501D02*
X77716Y-53068D01*
X77819Y-53068D01*
X77881Y-53088D01*
X77922Y-53130D01*
X77943Y-53171D01*
X77963Y-53253D01*
X77963Y-53315D01*
X77943Y-53398D01*
X77922Y-53439D01*
X77881Y-53480D01*
X77819Y-53501D01*
X77716Y-53501D01*
X78128Y-53109D02*
X78149Y-53088D01*
X78190Y-53068D01*
X78293Y-53068D01*
X78335Y-53088D01*
X78355Y-53109D01*
X78376Y-53150D01*
X78376Y-53191D01*
X78355Y-53253D01*
X78108Y-53501D01*
X78376Y-53501D01*
X72254Y-61728D02*
X72274Y-61749D01*
X72295Y-61810D01*
X72295Y-61852D01*
X72274Y-61914D01*
X72233Y-61955D01*
X72192Y-61975D01*
X72109Y-61996D01*
X72047Y-61996D01*
X71965Y-61975D01*
X71924Y-61955D01*
X71882Y-61914D01*
X71862Y-61852D01*
X71862Y-61810D01*
X71882Y-61749D01*
X71903Y-61728D01*
X71903Y-61563D02*
X71882Y-61542D01*
X71862Y-61501D01*
X71862Y-61398D01*
X71882Y-61357D01*
X71903Y-61336D01*
X71944Y-61315D01*
X71985Y-61315D01*
X72047Y-61336D01*
X72295Y-61584D01*
X72295Y-61315D01*
X71862Y-61171D02*
X71862Y-60903D01*
X72027Y-61047D01*
X72027Y-60985D01*
X72047Y-60944D01*
X72068Y-60924D01*
X72109Y-60903D01*
X72212Y-60903D01*
X72254Y-60924D01*
X72274Y-60944D01*
X72295Y-60985D01*
X72295Y-61109D01*
X72274Y-61150D01*
X72254Y-61171D01*
X71351Y-62386D02*
X71145Y-62530D01*
X71351Y-62633D02*
X70918Y-62633D01*
X70918Y-62468D01*
X70938Y-62427D01*
X70959Y-62406D01*
X71000Y-62386D01*
X71062Y-62386D01*
X71103Y-62406D01*
X71124Y-62427D01*
X71145Y-62468D01*
X71145Y-62633D01*
X71351Y-61973D02*
X71351Y-62221D01*
X71351Y-62097D02*
X70918Y-62097D01*
X70980Y-62138D01*
X71021Y-62179D01*
X71041Y-62221D01*
X71117Y-60250D02*
X70911Y-60394D01*
X71117Y-60497D02*
X70684Y-60497D01*
X70684Y-60332D01*
X70704Y-60291D01*
X70725Y-60270D01*
X70766Y-60250D01*
X70828Y-60250D01*
X70869Y-60270D01*
X70890Y-60291D01*
X70911Y-60332D01*
X70911Y-60497D01*
X70725Y-60085D02*
X70704Y-60064D01*
X70684Y-60023D01*
X70684Y-59920D01*
X70704Y-59878D01*
X70725Y-59858D01*
X70766Y-59837D01*
X70807Y-59837D01*
X70869Y-59858D01*
X71117Y-60105D01*
X71117Y-59837D01*
X77724Y-54131D02*
X77724Y-53698D01*
X77827Y-53698D01*
X77889Y-53718D01*
X77930Y-53760D01*
X77951Y-53801D01*
X77971Y-53883D01*
X77971Y-53945D01*
X77951Y-54028D01*
X77930Y-54069D01*
X77889Y-54110D01*
X77827Y-54131D01*
X77724Y-54131D01*
X78116Y-53698D02*
X78384Y-53698D01*
X78239Y-53863D01*
X78301Y-53863D01*
X78343Y-53883D01*
X78363Y-53904D01*
X78384Y-53945D01*
X78384Y-54048D01*
X78363Y-54090D01*
X78343Y-54110D01*
X78301Y-54131D01*
X78178Y-54131D01*
X78136Y-54110D01*
X78116Y-54090D01*
X77730Y-54747D02*
X77730Y-54314D01*
X77833Y-54314D01*
X77895Y-54334D01*
X77936Y-54376D01*
X77957Y-54417D01*
X77977Y-54499D01*
X77977Y-54561D01*
X77957Y-54644D01*
X77936Y-54685D01*
X77895Y-54726D01*
X77833Y-54747D01*
X77730Y-54747D01*
X78349Y-54458D02*
X78349Y-54747D01*
X78245Y-54293D02*
X78142Y-54602D01*
X78410Y-54602D01*
X72815Y-46930D02*
X72835Y-46950D01*
X72856Y-47012D01*
X72856Y-47053D01*
X72835Y-47115D01*
X72794Y-47157D01*
X72753Y-47177D01*
X72670Y-47198D01*
X72608Y-47198D01*
X72526Y-47177D01*
X72485Y-47157D01*
X72443Y-47115D01*
X72423Y-47053D01*
X72423Y-47012D01*
X72443Y-46950D01*
X72464Y-46930D01*
X72464Y-46765D02*
X72443Y-46744D01*
X72423Y-46703D01*
X72423Y-46600D01*
X72443Y-46558D01*
X72464Y-46538D01*
X72505Y-46517D01*
X72546Y-46517D01*
X72608Y-46538D01*
X72856Y-46785D01*
X72856Y-46517D01*
X73165Y-45914D02*
X73144Y-45934D01*
X73083Y-45955D01*
X73041Y-45955D01*
X72979Y-45934D01*
X72938Y-45893D01*
X72918Y-45852D01*
X72897Y-45769D01*
X72897Y-45707D01*
X72918Y-45625D01*
X72938Y-45584D01*
X72979Y-45542D01*
X73041Y-45522D01*
X73083Y-45522D01*
X73144Y-45542D01*
X73165Y-45563D01*
X73309Y-45522D02*
X73578Y-45522D01*
X73433Y-45687D01*
X73495Y-45687D01*
X73536Y-45707D01*
X73557Y-45728D01*
X73578Y-45769D01*
X73578Y-45872D01*
X73557Y-45914D01*
X73536Y-45934D01*
X73495Y-45955D01*
X73371Y-45955D01*
X73330Y-45934D01*
X73309Y-45914D01*
X73722Y-45522D02*
X73990Y-45522D01*
X73846Y-45687D01*
X73908Y-45687D01*
X73949Y-45707D01*
X73969Y-45728D01*
X73990Y-45769D01*
X73990Y-45872D01*
X73969Y-45914D01*
X73949Y-45934D01*
X73908Y-45955D01*
X73784Y-45955D01*
X73743Y-45934D01*
X73722Y-45914D01*
X69511Y-44836D02*
X69490Y-44856D01*
X69429Y-44877D01*
X69387Y-44877D01*
X69325Y-44856D01*
X69284Y-44815D01*
X69264Y-44774D01*
X69243Y-44691D01*
X69243Y-44629D01*
X69264Y-44547D01*
X69284Y-44506D01*
X69325Y-44464D01*
X69387Y-44444D01*
X69429Y-44444D01*
X69490Y-44464D01*
X69511Y-44485D01*
X69655Y-44444D02*
X69924Y-44444D01*
X69779Y-44609D01*
X69841Y-44609D01*
X69882Y-44629D01*
X69903Y-44650D01*
X69924Y-44691D01*
X69924Y-44794D01*
X69903Y-44836D01*
X69882Y-44856D01*
X69841Y-44877D01*
X69717Y-44877D01*
X69676Y-44856D01*
X69655Y-44836D01*
X70295Y-44444D02*
X70212Y-44444D01*
X70171Y-44464D01*
X70150Y-44485D01*
X70109Y-44547D01*
X70089Y-44629D01*
X70089Y-44794D01*
X70109Y-44836D01*
X70130Y-44856D01*
X70171Y-44877D01*
X70254Y-44877D01*
X70295Y-44856D01*
X70315Y-44836D01*
X70336Y-44794D01*
X70336Y-44691D01*
X70315Y-44650D01*
X70295Y-44629D01*
X70254Y-44609D01*
X70171Y-44609D01*
X70130Y-44629D01*
X70109Y-44650D01*
X70089Y-44691D01*
X72377Y-49462D02*
X72233Y-49256D01*
X72130Y-49462D02*
X72130Y-49029D01*
X72295Y-49029D01*
X72336Y-49049D01*
X72357Y-49070D01*
X72377Y-49111D01*
X72377Y-49173D01*
X72357Y-49214D01*
X72336Y-49235D01*
X72295Y-49256D01*
X72130Y-49256D01*
X72522Y-49029D02*
X72790Y-49029D01*
X72645Y-49194D01*
X72707Y-49194D01*
X72749Y-49214D01*
X72769Y-49235D01*
X72790Y-49276D01*
X72790Y-49379D01*
X72769Y-49421D01*
X72749Y-49441D01*
X72707Y-49462D01*
X72584Y-49462D01*
X72542Y-49441D01*
X72522Y-49421D01*
X76265Y-53194D02*
X76285Y-53215D01*
X76306Y-53276D01*
X76306Y-53318D01*
X76285Y-53380D01*
X76244Y-53421D01*
X76203Y-53441D01*
X76120Y-53462D01*
X76058Y-53462D01*
X75976Y-53441D01*
X75935Y-53421D01*
X75893Y-53380D01*
X75873Y-53318D01*
X75873Y-53276D01*
X75893Y-53215D01*
X75914Y-53194D01*
X75873Y-52823D02*
X75873Y-52905D01*
X75893Y-52946D01*
X75914Y-52967D01*
X75976Y-53008D01*
X76058Y-53029D01*
X76223Y-53029D01*
X76265Y-53008D01*
X76285Y-52988D01*
X76306Y-52946D01*
X76306Y-52864D01*
X76285Y-52823D01*
X76265Y-52802D01*
X76223Y-52781D01*
X76120Y-52781D01*
X76079Y-52802D01*
X76058Y-52823D01*
X76038Y-52864D01*
X76038Y-52946D01*
X76058Y-52988D01*
X76079Y-53008D01*
X76120Y-53029D01*
X75873Y-52513D02*
X75873Y-52472D01*
X75893Y-52431D01*
X75914Y-52410D01*
X75955Y-52390D01*
X76038Y-52369D01*
X76141Y-52369D01*
X76223Y-52390D01*
X76265Y-52410D01*
X76285Y-52431D01*
X76306Y-52472D01*
X76306Y-52513D01*
X76285Y-52555D01*
X76265Y-52575D01*
X76223Y-52596D01*
X76141Y-52616D01*
X76038Y-52616D01*
X75955Y-52596D01*
X75914Y-52575D01*
X75893Y-52555D01*
X75873Y-52513D01*
X71541Y-49091D02*
X71397Y-48885D01*
X71294Y-49091D02*
X71294Y-48658D01*
X71459Y-48658D01*
X71500Y-48678D01*
X71521Y-48699D01*
X71541Y-48740D01*
X71541Y-48802D01*
X71521Y-48843D01*
X71500Y-48864D01*
X71459Y-48885D01*
X71294Y-48885D01*
X71913Y-48802D02*
X71913Y-49091D01*
X71809Y-48637D02*
X71706Y-48946D01*
X71974Y-48946D01*
X74216Y-52368D02*
X74199Y-52385D01*
X74148Y-52402D01*
X74114Y-52402D01*
X74064Y-52385D01*
X74030Y-52351D01*
X74013Y-52318D01*
X73996Y-52250D01*
X73996Y-52199D01*
X74013Y-52132D01*
X74030Y-52098D01*
X74064Y-52064D01*
X74114Y-52048D01*
X74148Y-52048D01*
X74199Y-52064D01*
X74216Y-52081D01*
X74536Y-52048D02*
X74368Y-52048D01*
X74351Y-52216D01*
X74368Y-52199D01*
X74401Y-52183D01*
X74486Y-52183D01*
X74519Y-52199D01*
X74536Y-52216D01*
X74553Y-52250D01*
X74553Y-52334D01*
X74536Y-52368D01*
X74519Y-52385D01*
X74486Y-52402D01*
X74401Y-52402D01*
X74368Y-52385D01*
X74351Y-52368D01*
X74722Y-52402D02*
X74789Y-52402D01*
X74823Y-52385D01*
X74840Y-52368D01*
X74874Y-52318D01*
X74891Y-52250D01*
X74891Y-52115D01*
X74874Y-52081D01*
X74857Y-52064D01*
X74823Y-52048D01*
X74756Y-52048D01*
X74722Y-52064D01*
X74705Y-52081D01*
X74688Y-52115D01*
X74688Y-52199D01*
X74705Y-52233D01*
X74722Y-52250D01*
X74756Y-52267D01*
X74823Y-52267D01*
X74857Y-52250D01*
X74874Y-52233D01*
X74891Y-52199D01*
X69633Y-58577D02*
X69489Y-58371D01*
X69386Y-58577D02*
X69386Y-58144D01*
X69551Y-58144D01*
X69592Y-58164D01*
X69612Y-58185D01*
X69633Y-58226D01*
X69633Y-58288D01*
X69612Y-58329D01*
X69592Y-58350D01*
X69551Y-58371D01*
X69386Y-58371D01*
X70046Y-58577D02*
X69798Y-58577D01*
X69922Y-58577D02*
X69922Y-58144D01*
X69881Y-58206D01*
X69839Y-58247D01*
X69798Y-58267D01*
X70190Y-58144D02*
X70458Y-58144D01*
X70314Y-58309D01*
X70376Y-58309D01*
X70417Y-58329D01*
X70437Y-58350D01*
X70458Y-58391D01*
X70458Y-58494D01*
X70437Y-58536D01*
X70417Y-58556D01*
X70376Y-58577D01*
X70252Y-58577D01*
X70211Y-58556D01*
X70190Y-58536D01*
X70393Y-59296D02*
X70372Y-59316D01*
X70311Y-59337D01*
X70269Y-59337D01*
X70207Y-59316D01*
X70166Y-59275D01*
X70146Y-59234D01*
X70125Y-59151D01*
X70125Y-59089D01*
X70146Y-59007D01*
X70166Y-58966D01*
X70207Y-58924D01*
X70269Y-58904D01*
X70311Y-58904D01*
X70372Y-58924D01*
X70393Y-58945D01*
X70558Y-58945D02*
X70579Y-58924D01*
X70620Y-58904D01*
X70723Y-58904D01*
X70764Y-58924D01*
X70785Y-58945D01*
X70806Y-58986D01*
X70806Y-59027D01*
X70785Y-59089D01*
X70537Y-59337D01*
X70806Y-59337D01*
X71177Y-59048D02*
X71177Y-59337D01*
X71074Y-58883D02*
X70971Y-59192D01*
X71239Y-59192D01*
X70111Y-56983D02*
X69967Y-56777D01*
X69864Y-56983D02*
X69864Y-56550D01*
X70029Y-56550D01*
X70070Y-56570D01*
X70090Y-56591D01*
X70111Y-56632D01*
X70111Y-56694D01*
X70090Y-56735D01*
X70070Y-56756D01*
X70029Y-56777D01*
X69864Y-56777D01*
X70276Y-56591D02*
X70297Y-56570D01*
X70338Y-56550D01*
X70441Y-56550D01*
X70482Y-56570D01*
X70503Y-56591D01*
X70524Y-56632D01*
X70524Y-56673D01*
X70503Y-56735D01*
X70255Y-56983D01*
X70524Y-56983D01*
X70668Y-56550D02*
X70936Y-56550D01*
X70792Y-56715D01*
X70854Y-56715D01*
X70895Y-56735D01*
X70915Y-56756D01*
X70936Y-56797D01*
X70936Y-56900D01*
X70915Y-56942D01*
X70895Y-56962D01*
X70854Y-56983D01*
X70730Y-56983D01*
X70689Y-56962D01*
X70668Y-56942D01*
X71919Y-59075D02*
X71898Y-59095D01*
X71837Y-59116D01*
X71795Y-59116D01*
X71733Y-59095D01*
X71692Y-59054D01*
X71672Y-59013D01*
X71651Y-58930D01*
X71651Y-58868D01*
X71672Y-58786D01*
X71692Y-58745D01*
X71733Y-58703D01*
X71795Y-58683D01*
X71837Y-58683D01*
X71898Y-58703D01*
X71919Y-58724D01*
X72311Y-58683D02*
X72105Y-58683D01*
X72084Y-58889D01*
X72105Y-58868D01*
X72146Y-58848D01*
X72249Y-58848D01*
X72290Y-58868D01*
X72311Y-58889D01*
X72332Y-58930D01*
X72332Y-59033D01*
X72311Y-59075D01*
X72290Y-59095D01*
X72249Y-59116D01*
X72146Y-59116D01*
X72105Y-59095D01*
X72084Y-59075D01*
X72723Y-58683D02*
X72517Y-58683D01*
X72497Y-58889D01*
X72517Y-58868D01*
X72558Y-58848D01*
X72662Y-58848D01*
X72703Y-58868D01*
X72723Y-58889D01*
X72744Y-58930D01*
X72744Y-59033D01*
X72723Y-59075D01*
X72703Y-59095D01*
X72662Y-59116D01*
X72558Y-59116D01*
X72517Y-59095D01*
X72497Y-59075D01*
X76651Y-54741D02*
X76507Y-54535D01*
X76404Y-54741D02*
X76404Y-54308D01*
X76569Y-54308D01*
X76610Y-54328D01*
X76630Y-54349D01*
X76651Y-54390D01*
X76651Y-54452D01*
X76630Y-54493D01*
X76610Y-54514D01*
X76569Y-54535D01*
X76404Y-54535D01*
X76816Y-54349D02*
X76837Y-54328D01*
X76878Y-54308D01*
X76981Y-54308D01*
X77022Y-54328D01*
X77043Y-54349D01*
X77064Y-54390D01*
X77064Y-54431D01*
X77043Y-54493D01*
X76795Y-54741D01*
X77064Y-54741D01*
X77270Y-54741D02*
X77352Y-54741D01*
X77394Y-54720D01*
X77414Y-54700D01*
X77455Y-54638D01*
X77476Y-54555D01*
X77476Y-54390D01*
X77455Y-54349D01*
X77435Y-54328D01*
X77394Y-54308D01*
X77311Y-54308D01*
X77270Y-54328D01*
X77249Y-54349D01*
X77229Y-54390D01*
X77229Y-54493D01*
X77249Y-54535D01*
X77270Y-54555D01*
X77311Y-54576D01*
X77394Y-54576D01*
X77435Y-54555D01*
X77455Y-54535D01*
X77476Y-54493D01*
X76659Y-54117D02*
X76515Y-53911D01*
X76412Y-54117D02*
X76412Y-53684D01*
X76577Y-53684D01*
X76618Y-53704D01*
X76638Y-53725D01*
X76659Y-53766D01*
X76659Y-53828D01*
X76638Y-53869D01*
X76618Y-53890D01*
X76577Y-53911D01*
X76412Y-53911D01*
X76824Y-53725D02*
X76845Y-53704D01*
X76886Y-53684D01*
X76989Y-53684D01*
X77030Y-53704D01*
X77051Y-53725D01*
X77072Y-53766D01*
X77072Y-53807D01*
X77051Y-53869D01*
X76803Y-54117D01*
X77072Y-54117D01*
X77319Y-53869D02*
X77278Y-53849D01*
X77257Y-53828D01*
X77237Y-53787D01*
X77237Y-53766D01*
X77257Y-53725D01*
X77278Y-53704D01*
X77319Y-53684D01*
X77402Y-53684D01*
X77443Y-53704D01*
X77463Y-53725D01*
X77484Y-53766D01*
X77484Y-53787D01*
X77463Y-53828D01*
X77443Y-53849D01*
X77402Y-53869D01*
X77319Y-53869D01*
X77278Y-53890D01*
X77257Y-53911D01*
X77237Y-53952D01*
X77237Y-54034D01*
X77257Y-54076D01*
X77278Y-54096D01*
X77319Y-54117D01*
X77402Y-54117D01*
X77443Y-54096D01*
X77463Y-54076D01*
X77484Y-54034D01*
X77484Y-53952D01*
X77463Y-53911D01*
X77443Y-53890D01*
X77402Y-53869D01*
X76659Y-53495D02*
X76515Y-53289D01*
X76412Y-53495D02*
X76412Y-53062D01*
X76577Y-53062D01*
X76618Y-53082D01*
X76638Y-53103D01*
X76659Y-53144D01*
X76659Y-53206D01*
X76638Y-53247D01*
X76618Y-53268D01*
X76577Y-53289D01*
X76412Y-53289D01*
X76824Y-53103D02*
X76845Y-53082D01*
X76886Y-53062D01*
X76989Y-53062D01*
X77030Y-53082D01*
X77051Y-53103D01*
X77072Y-53144D01*
X77072Y-53185D01*
X77051Y-53247D01*
X76803Y-53495D01*
X77072Y-53495D01*
X77216Y-53062D02*
X77505Y-53062D01*
X77319Y-53495D01*
X71181Y-51057D02*
X71037Y-50851D01*
X70934Y-51057D02*
X70934Y-50624D01*
X71099Y-50624D01*
X71140Y-50644D01*
X71161Y-50665D01*
X71181Y-50706D01*
X71181Y-50768D01*
X71161Y-50809D01*
X71140Y-50830D01*
X71099Y-50851D01*
X70934Y-50851D01*
X71326Y-50624D02*
X71614Y-50624D01*
X71429Y-51057D01*
X69629Y-57969D02*
X69485Y-57763D01*
X69382Y-57969D02*
X69382Y-57536D01*
X69547Y-57536D01*
X69588Y-57556D01*
X69608Y-57577D01*
X69629Y-57618D01*
X69629Y-57680D01*
X69608Y-57721D01*
X69588Y-57742D01*
X69547Y-57763D01*
X69382Y-57763D01*
X69794Y-57577D02*
X69815Y-57556D01*
X69856Y-57536D01*
X69959Y-57536D01*
X70000Y-57556D01*
X70021Y-57577D01*
X70042Y-57618D01*
X70042Y-57659D01*
X70021Y-57721D01*
X69773Y-57969D01*
X70042Y-57969D01*
X70413Y-57680D02*
X70413Y-57969D01*
X70310Y-57515D02*
X70207Y-57824D01*
X70475Y-57824D01*
X75294Y-43687D02*
X75202Y-43556D01*
X75137Y-43687D02*
X75137Y-43411D01*
X75242Y-43411D01*
X75268Y-43425D01*
X75281Y-43438D01*
X75294Y-43464D01*
X75294Y-43503D01*
X75281Y-43530D01*
X75268Y-43543D01*
X75242Y-43556D01*
X75137Y-43556D01*
X75399Y-43438D02*
X75412Y-43425D01*
X75439Y-43411D01*
X75504Y-43411D01*
X75531Y-43425D01*
X75544Y-43438D01*
X75557Y-43464D01*
X75557Y-43490D01*
X75544Y-43530D01*
X75386Y-43687D01*
X75557Y-43687D01*
X75806Y-43411D02*
X75675Y-43411D01*
X75662Y-43543D01*
X75675Y-43530D01*
X75701Y-43516D01*
X75767Y-43516D01*
X75793Y-43530D01*
X75806Y-43543D01*
X75819Y-43569D01*
X75819Y-43635D01*
X75806Y-43661D01*
X75793Y-43674D01*
X75767Y-43687D01*
X75701Y-43687D01*
X75675Y-43674D01*
X75662Y-43661D01*
X76683Y-44753D02*
X76514Y-44871D01*
X76683Y-44956D02*
X76329Y-44956D01*
X76329Y-44821D01*
X76345Y-44787D01*
X76362Y-44770D01*
X76396Y-44753D01*
X76447Y-44753D01*
X76480Y-44770D01*
X76497Y-44787D01*
X76514Y-44821D01*
X76514Y-44956D01*
X76362Y-44618D02*
X76345Y-44601D01*
X76329Y-44568D01*
X76329Y-44483D01*
X76345Y-44450D01*
X76362Y-44433D01*
X76396Y-44416D01*
X76430Y-44416D01*
X76480Y-44433D01*
X76683Y-44635D01*
X76683Y-44416D01*
X76329Y-44112D02*
X76329Y-44180D01*
X76345Y-44213D01*
X76362Y-44230D01*
X76413Y-44264D01*
X76480Y-44281D01*
X76615Y-44281D01*
X76649Y-44264D01*
X76666Y-44247D01*
X76683Y-44213D01*
X76683Y-44146D01*
X76666Y-44112D01*
X76649Y-44095D01*
X76615Y-44078D01*
X76531Y-44078D01*
X76497Y-44095D01*
X76480Y-44112D01*
X76464Y-44146D01*
X76464Y-44213D01*
X76480Y-44247D01*
X76497Y-44264D01*
X76531Y-44281D01*
X73539Y-52932D02*
X73518Y-52952D01*
X73457Y-52973D01*
X73415Y-52973D01*
X73353Y-52952D01*
X73312Y-52911D01*
X73292Y-52870D01*
X73271Y-52787D01*
X73271Y-52725D01*
X73292Y-52643D01*
X73312Y-52602D01*
X73353Y-52560D01*
X73415Y-52540D01*
X73457Y-52540D01*
X73518Y-52560D01*
X73539Y-52581D01*
X73910Y-52684D02*
X73910Y-52973D01*
X73807Y-52519D02*
X73704Y-52828D01*
X73972Y-52828D01*
X74364Y-52973D02*
X74117Y-52973D01*
X74240Y-52973D02*
X74240Y-52540D01*
X74199Y-52602D01*
X74158Y-52643D01*
X74117Y-52663D01*
X72623Y-48689D02*
X72479Y-48483D01*
X72376Y-48689D02*
X72376Y-48256D01*
X72541Y-48256D01*
X72582Y-48276D01*
X72603Y-48297D01*
X72623Y-48338D01*
X72623Y-48400D01*
X72603Y-48441D01*
X72582Y-48462D01*
X72541Y-48483D01*
X72376Y-48483D01*
X72995Y-48256D02*
X72912Y-48256D01*
X72871Y-48276D01*
X72850Y-48297D01*
X72809Y-48359D01*
X72788Y-48441D01*
X72788Y-48606D01*
X72809Y-48648D01*
X72830Y-48668D01*
X72871Y-48689D01*
X72953Y-48689D01*
X72995Y-48668D01*
X73015Y-48648D01*
X73036Y-48606D01*
X73036Y-48503D01*
X73015Y-48462D01*
X72995Y-48441D01*
X72953Y-48421D01*
X72871Y-48421D01*
X72830Y-48441D01*
X72809Y-48462D01*
X72788Y-48503D01*
X78322Y-60159D02*
X78230Y-60028D01*
X78164Y-60159D02*
X78164Y-59883D01*
X78269Y-59883D01*
X78295Y-59897D01*
X78308Y-59910D01*
X78322Y-59936D01*
X78322Y-59975D01*
X78308Y-60002D01*
X78295Y-60015D01*
X78269Y-60028D01*
X78164Y-60028D01*
X78453Y-60159D02*
X78505Y-60159D01*
X78532Y-60146D01*
X78545Y-60133D01*
X78571Y-60093D01*
X78584Y-60041D01*
X78584Y-59936D01*
X78571Y-59910D01*
X78558Y-59897D01*
X78532Y-59883D01*
X78479Y-59883D01*
X78453Y-59897D01*
X78440Y-59910D01*
X78427Y-59936D01*
X78427Y-60002D01*
X78440Y-60028D01*
X78453Y-60041D01*
X78479Y-60054D01*
X78532Y-60054D01*
X78558Y-60041D01*
X78571Y-60028D01*
X78584Y-60002D01*
X77236Y-62887D02*
X77144Y-62756D01*
X77079Y-62887D02*
X77079Y-62611D01*
X77184Y-62611D01*
X77210Y-62625D01*
X77223Y-62638D01*
X77236Y-62664D01*
X77236Y-62703D01*
X77223Y-62730D01*
X77210Y-62743D01*
X77184Y-62756D01*
X77079Y-62756D01*
X77499Y-62887D02*
X77341Y-62887D01*
X77420Y-62887D02*
X77420Y-62611D01*
X77394Y-62651D01*
X77368Y-62677D01*
X77341Y-62690D01*
X77604Y-62638D02*
X77617Y-62625D01*
X77643Y-62611D01*
X77709Y-62611D01*
X77735Y-62625D01*
X77748Y-62638D01*
X77761Y-62664D01*
X77761Y-62690D01*
X77748Y-62730D01*
X77591Y-62887D01*
X77761Y-62887D01*
X76313Y-58593D02*
X76169Y-58387D01*
X76066Y-58593D02*
X76066Y-58160D01*
X76231Y-58160D01*
X76272Y-58180D01*
X76292Y-58201D01*
X76313Y-58242D01*
X76313Y-58304D01*
X76292Y-58345D01*
X76272Y-58366D01*
X76231Y-58387D01*
X76066Y-58387D01*
X76726Y-58593D02*
X76478Y-58593D01*
X76602Y-58593D02*
X76602Y-58160D01*
X76561Y-58222D01*
X76519Y-58263D01*
X76478Y-58283D01*
X77138Y-58593D02*
X76891Y-58593D01*
X77014Y-58593D02*
X77014Y-58160D01*
X76973Y-58222D01*
X76932Y-58263D01*
X76891Y-58283D01*
X72926Y-53968D02*
X72946Y-53989D01*
X72967Y-54050D01*
X72967Y-54092D01*
X72946Y-54154D01*
X72905Y-54195D01*
X72864Y-54215D01*
X72781Y-54236D01*
X72719Y-54236D01*
X72637Y-54215D01*
X72596Y-54195D01*
X72554Y-54154D01*
X72534Y-54092D01*
X72534Y-54050D01*
X72554Y-53989D01*
X72575Y-53968D01*
X72678Y-53597D02*
X72967Y-53597D01*
X72513Y-53700D02*
X72822Y-53803D01*
X72822Y-53535D01*
X72575Y-53390D02*
X72554Y-53370D01*
X72534Y-53329D01*
X72534Y-53225D01*
X72554Y-53184D01*
X72575Y-53164D01*
X72616Y-53143D01*
X72657Y-53143D01*
X72719Y-53164D01*
X72967Y-53411D01*
X72967Y-53143D01*
X68203Y-60782D02*
X68182Y-60802D01*
X68121Y-60823D01*
X68079Y-60823D01*
X68017Y-60802D01*
X67976Y-60761D01*
X67956Y-60720D01*
X67935Y-60637D01*
X67935Y-60575D01*
X67956Y-60493D01*
X67976Y-60452D01*
X68017Y-60410D01*
X68079Y-60390D01*
X68121Y-60390D01*
X68182Y-60410D01*
X68203Y-60431D01*
X68368Y-60431D02*
X68389Y-60410D01*
X68430Y-60390D01*
X68533Y-60390D01*
X68574Y-60410D01*
X68595Y-60431D01*
X68616Y-60472D01*
X68616Y-60513D01*
X68595Y-60575D01*
X68347Y-60823D01*
X68616Y-60823D01*
X69007Y-60390D02*
X68801Y-60390D01*
X68781Y-60596D01*
X68801Y-60575D01*
X68842Y-60555D01*
X68946Y-60555D01*
X68987Y-60575D01*
X69007Y-60596D01*
X69028Y-60637D01*
X69028Y-60740D01*
X69007Y-60782D01*
X68987Y-60802D01*
X68946Y-60823D01*
X68842Y-60823D01*
X68801Y-60802D01*
X68781Y-60782D01*
X72836Y-51744D02*
X72836Y-52094D01*
X72856Y-52136D01*
X72877Y-52156D01*
X72918Y-52177D01*
X73001Y-52177D01*
X73042Y-52156D01*
X73062Y-52136D01*
X73083Y-52094D01*
X73083Y-51744D01*
X73248Y-51744D02*
X73516Y-51744D01*
X73372Y-51909D01*
X73434Y-51909D01*
X73475Y-51929D01*
X73495Y-51950D01*
X73516Y-51991D01*
X73516Y-52094D01*
X73495Y-52136D01*
X73475Y-52156D01*
X73434Y-52177D01*
X73310Y-52177D01*
X73269Y-52156D01*
X73248Y-52136D01*
X76724Y-45016D02*
X76724Y-45366D01*
X76744Y-45408D01*
X76765Y-45428D01*
X76806Y-45449D01*
X76889Y-45449D01*
X76930Y-45428D01*
X76950Y-45408D01*
X76971Y-45366D01*
X76971Y-45016D01*
X77157Y-45057D02*
X77177Y-45036D01*
X77218Y-45016D01*
X77322Y-45016D01*
X77363Y-45036D01*
X77383Y-45057D01*
X77404Y-45098D01*
X77404Y-45139D01*
X77383Y-45201D01*
X77136Y-45449D01*
X77404Y-45449D01*
X73668Y-44974D02*
X73668Y-45227D01*
X73652Y-45277D01*
X73618Y-45311D01*
X73567Y-45328D01*
X73533Y-45328D01*
X73803Y-44974D02*
X74023Y-44974D01*
X73905Y-45109D01*
X73955Y-45109D01*
X73989Y-45125D01*
X74006Y-45142D01*
X74023Y-45176D01*
X74023Y-45260D01*
X74006Y-45294D01*
X73989Y-45311D01*
X73955Y-45328D01*
X73854Y-45328D01*
X73820Y-45311D01*
X73803Y-45294D01*
G54D21*
X74360Y-44887D02*
X74360Y-45044D01*
X74360Y-44965D02*
X74084Y-44965D01*
X74124Y-44992D01*
X74150Y-45018D01*
X74163Y-45044D01*
G54D19*
X69366Y-46416D02*
X69366Y-46766D01*
X69386Y-46808D01*
X69407Y-46828D01*
X69448Y-46849D01*
X69531Y-46849D01*
X69572Y-46828D01*
X69592Y-46808D01*
X69613Y-46766D01*
X69613Y-46416D01*
X70005Y-46560D02*
X70005Y-46849D01*
X69902Y-46395D02*
X69799Y-46704D01*
X70067Y-46704D01*
X76538Y-51512D02*
X76538Y-51158D01*
X76673Y-51158D01*
X76707Y-51174D01*
X76723Y-51191D01*
X76740Y-51225D01*
X76740Y-51276D01*
X76723Y-51309D01*
X76707Y-51326D01*
X76673Y-51343D01*
X76538Y-51343D01*
X77010Y-51326D02*
X77061Y-51343D01*
X77078Y-51360D01*
X77095Y-51394D01*
X77095Y-51444D01*
X77078Y-51478D01*
X77061Y-51495D01*
X77027Y-51512D01*
X76892Y-51512D01*
X76892Y-51158D01*
X77010Y-51158D01*
X77044Y-51174D01*
X77061Y-51191D01*
X77078Y-51225D01*
X77078Y-51259D01*
X77061Y-51293D01*
X77044Y-51309D01*
X77010Y-51326D01*
X76892Y-51326D01*
X77415Y-51158D02*
X77246Y-51158D01*
X77230Y-51326D01*
X77246Y-51309D01*
X77280Y-51293D01*
X77365Y-51293D01*
X77398Y-51309D01*
X77415Y-51326D01*
X77432Y-51360D01*
X77432Y-51444D01*
X77415Y-51478D01*
X77398Y-51495D01*
X77365Y-51512D01*
X77280Y-51512D01*
X77246Y-51495D01*
X77230Y-51478D01*
X71655Y-62142D02*
X71655Y-62451D01*
X71635Y-62513D01*
X71593Y-62554D01*
X71531Y-62575D01*
X71490Y-62575D01*
X72088Y-62575D02*
X71841Y-62575D01*
X71964Y-62575D02*
X71964Y-62142D01*
X71923Y-62204D01*
X71882Y-62245D01*
X71841Y-62265D01*
X67740Y-45807D02*
X67740Y-45492D01*
X67860Y-45492D01*
X67890Y-45507D01*
X67905Y-45522D01*
X67920Y-45552D01*
X67920Y-45597D01*
X67905Y-45627D01*
X67890Y-45642D01*
X67860Y-45657D01*
X67740Y-45657D01*
X68159Y-45642D02*
X68204Y-45657D01*
X68219Y-45672D01*
X68234Y-45702D01*
X68234Y-45747D01*
X68219Y-45777D01*
X68204Y-45792D01*
X68174Y-45807D01*
X68055Y-45807D01*
X68055Y-45492D01*
X68159Y-45492D01*
X68189Y-45507D01*
X68204Y-45522D01*
X68219Y-45552D01*
X68219Y-45582D01*
X68204Y-45612D01*
X68189Y-45627D01*
X68159Y-45642D01*
X68055Y-45642D01*
X68534Y-45807D02*
X68354Y-45807D01*
X68444Y-45807D02*
X68444Y-45492D01*
X68414Y-45537D01*
X68384Y-45567D01*
X68354Y-45582D01*
X67696Y-48203D02*
X67696Y-47888D01*
X67816Y-47888D01*
X67846Y-47903D01*
X67861Y-47918D01*
X67876Y-47948D01*
X67876Y-47993D01*
X67861Y-48023D01*
X67846Y-48038D01*
X67816Y-48053D01*
X67696Y-48053D01*
X68115Y-48038D02*
X68160Y-48053D01*
X68175Y-48068D01*
X68190Y-48098D01*
X68190Y-48143D01*
X68175Y-48173D01*
X68160Y-48188D01*
X68130Y-48203D01*
X68011Y-48203D01*
X68011Y-47888D01*
X68115Y-47888D01*
X68145Y-47903D01*
X68160Y-47918D01*
X68175Y-47948D01*
X68175Y-47978D01*
X68160Y-48008D01*
X68145Y-48023D01*
X68115Y-48038D01*
X68011Y-48038D01*
X68310Y-47918D02*
X68325Y-47903D01*
X68355Y-47888D01*
X68430Y-47888D01*
X68460Y-47903D01*
X68475Y-47918D01*
X68490Y-47948D01*
X68490Y-47978D01*
X68475Y-48023D01*
X68295Y-48203D01*
X68490Y-48203D01*
X69455Y-50915D02*
X69140Y-50915D01*
X69140Y-50795D01*
X69155Y-50765D01*
X69170Y-50750D01*
X69200Y-50735D01*
X69245Y-50735D01*
X69275Y-50750D01*
X69290Y-50765D01*
X69305Y-50795D01*
X69305Y-50915D01*
X69290Y-50496D02*
X69305Y-50451D01*
X69320Y-50436D01*
X69350Y-50421D01*
X69395Y-50421D01*
X69425Y-50436D01*
X69440Y-50451D01*
X69455Y-50481D01*
X69455Y-50600D01*
X69140Y-50600D01*
X69140Y-50496D01*
X69155Y-50466D01*
X69170Y-50451D01*
X69200Y-50436D01*
X69230Y-50436D01*
X69260Y-50451D01*
X69275Y-50466D01*
X69290Y-50496D01*
X69290Y-50600D01*
X69140Y-50316D02*
X69140Y-50121D01*
X69260Y-50226D01*
X69260Y-50181D01*
X69275Y-50151D01*
X69290Y-50136D01*
X69320Y-50121D01*
X69395Y-50121D01*
X69425Y-50136D01*
X69440Y-50151D01*
X69455Y-50181D01*
X69455Y-50271D01*
X69440Y-50301D01*
X69425Y-50316D01*
X67219Y-56551D02*
X67219Y-56118D01*
X67384Y-56118D01*
X67426Y-56138D01*
X67446Y-56159D01*
X67467Y-56200D01*
X67467Y-56262D01*
X67446Y-56303D01*
X67426Y-56324D01*
X67384Y-56345D01*
X67219Y-56345D01*
X67797Y-56324D02*
X67859Y-56345D01*
X67879Y-56365D01*
X67900Y-56406D01*
X67900Y-56468D01*
X67879Y-56510D01*
X67859Y-56530D01*
X67817Y-56551D01*
X67652Y-56551D01*
X67652Y-56118D01*
X67797Y-56118D01*
X67838Y-56138D01*
X67859Y-56159D01*
X67879Y-56200D01*
X67879Y-56241D01*
X67859Y-56283D01*
X67838Y-56303D01*
X67797Y-56324D01*
X67652Y-56324D01*
X68271Y-56262D02*
X68271Y-56551D01*
X68168Y-56097D02*
X68065Y-56406D01*
X68333Y-56406D01*
X77581Y-48564D02*
X77560Y-48584D01*
X77499Y-48605D01*
X77457Y-48605D01*
X77395Y-48584D01*
X77354Y-48543D01*
X77334Y-48502D01*
X77313Y-48419D01*
X77313Y-48357D01*
X77334Y-48275D01*
X77354Y-48234D01*
X77395Y-48192D01*
X77457Y-48172D01*
X77499Y-48172D01*
X77560Y-48192D01*
X77581Y-48213D01*
X77952Y-48316D02*
X77952Y-48605D01*
X77849Y-48151D02*
X77746Y-48460D01*
X78014Y-48460D01*
X78262Y-48172D02*
X78303Y-48172D01*
X78344Y-48192D01*
X78365Y-48213D01*
X78385Y-48254D01*
X78406Y-48337D01*
X78406Y-48440D01*
X78385Y-48522D01*
X78365Y-48564D01*
X78344Y-48584D01*
X78303Y-48605D01*
X78262Y-48605D01*
X78220Y-48584D01*
X78200Y-48564D01*
X78179Y-48522D01*
X78159Y-48440D01*
X78159Y-48337D01*
X78179Y-48254D01*
X78200Y-48213D01*
X78220Y-48192D01*
X78262Y-48172D01*
X68278Y-62404D02*
X68278Y-62754D01*
X68298Y-62796D01*
X68319Y-62816D01*
X68360Y-62837D01*
X68443Y-62837D01*
X68484Y-62816D01*
X68504Y-62796D01*
X68525Y-62754D01*
X68525Y-62404D01*
X68752Y-62837D02*
X68834Y-62837D01*
X68876Y-62816D01*
X68896Y-62796D01*
X68937Y-62734D01*
X68958Y-62651D01*
X68958Y-62486D01*
X68937Y-62445D01*
X68917Y-62424D01*
X68876Y-62404D01*
X68793Y-62404D01*
X68752Y-62424D01*
X68731Y-62445D01*
X68711Y-62486D01*
X68711Y-62589D01*
X68731Y-62631D01*
X68752Y-62651D01*
X68793Y-62672D01*
X68876Y-62672D01*
X68917Y-62651D01*
X68937Y-62631D01*
X68958Y-62589D01*
X68745Y-49899D02*
X69095Y-49899D01*
X69136Y-49879D01*
X69157Y-49858D01*
X69178Y-49817D01*
X69178Y-49734D01*
X69157Y-49693D01*
X69136Y-49673D01*
X69095Y-49652D01*
X68745Y-49652D01*
X68745Y-49240D02*
X68745Y-49446D01*
X68951Y-49466D01*
X68930Y-49446D01*
X68909Y-49405D01*
X68909Y-49301D01*
X68930Y-49260D01*
X68951Y-49240D01*
X68992Y-49219D01*
X69095Y-49219D01*
X69136Y-49240D01*
X69157Y-49260D01*
X69178Y-49301D01*
X69178Y-49405D01*
X69157Y-49446D01*
X69136Y-49466D01*
X69794Y-51078D02*
X69856Y-51099D01*
X69877Y-51119D01*
X69897Y-51160D01*
X69897Y-51222D01*
X69877Y-51264D01*
X69856Y-51284D01*
X69815Y-51305D01*
X69650Y-51305D01*
X69650Y-50872D01*
X69794Y-50872D01*
X69835Y-50892D01*
X69856Y-50913D01*
X69877Y-50954D01*
X69877Y-50995D01*
X69856Y-51037D01*
X69835Y-51057D01*
X69794Y-51078D01*
X69650Y-51078D01*
X70062Y-50913D02*
X70083Y-50892D01*
X70124Y-50872D01*
X70227Y-50872D01*
X70269Y-50892D01*
X70289Y-50913D01*
X70310Y-50954D01*
X70310Y-50995D01*
X70289Y-51057D01*
X70042Y-51305D01*
X70310Y-51305D01*
X69955Y-59428D02*
X70244Y-59861D01*
X70244Y-59428D02*
X69955Y-59861D01*
X70635Y-59861D02*
X70388Y-59861D01*
X70512Y-59861D02*
X70512Y-59428D01*
X70470Y-59490D01*
X70429Y-59531D01*
X70388Y-59551D01*
X67466Y-60904D02*
X67528Y-60925D01*
X67549Y-60945D01*
X67569Y-60986D01*
X67569Y-61048D01*
X67549Y-61090D01*
X67528Y-61110D01*
X67487Y-61131D01*
X67322Y-61131D01*
X67322Y-60698D01*
X67466Y-60698D01*
X67507Y-60718D01*
X67528Y-60739D01*
X67549Y-60780D01*
X67549Y-60821D01*
X67528Y-60863D01*
X67507Y-60883D01*
X67466Y-60904D01*
X67322Y-60904D01*
X67982Y-61131D02*
X67734Y-61131D01*
X67858Y-61131D02*
X67858Y-60698D01*
X67817Y-60760D01*
X67776Y-60801D01*
X67734Y-60821D01*
X71721Y-53328D02*
X72010Y-53761D01*
X72010Y-53328D02*
X71721Y-53761D01*
X72133Y-53328D02*
X72401Y-53328D01*
X72257Y-53493D01*
X72319Y-53493D01*
X72360Y-53513D01*
X72381Y-53534D01*
X72401Y-53575D01*
X72401Y-53678D01*
X72381Y-53720D01*
X72360Y-53740D01*
X72319Y-53761D01*
X72195Y-53761D01*
X72154Y-53740D01*
X72133Y-53720D01*
X74341Y-53630D02*
X74630Y-54063D01*
X74630Y-53630D02*
X74341Y-54063D01*
X74980Y-53774D02*
X74980Y-54063D01*
X74877Y-53609D02*
X74774Y-53918D01*
X75042Y-53918D01*
X68151Y-54861D02*
X68151Y-54654D01*
X68275Y-54902D02*
X67842Y-54758D01*
X68275Y-54613D01*
X68275Y-54469D02*
X67842Y-54469D01*
X68275Y-54221D01*
X67842Y-54221D01*
X67842Y-54077D02*
X67842Y-53830D01*
X68275Y-53953D02*
X67842Y-53953D01*
X67883Y-53706D02*
X67862Y-53685D01*
X67842Y-53644D01*
X67842Y-53541D01*
X67862Y-53500D01*
X67883Y-53479D01*
X67924Y-53458D01*
X67965Y-53458D01*
X68027Y-53479D01*
X68275Y-53726D01*
X68275Y-53458D01*
X70550Y-51822D02*
X70570Y-51842D01*
X70591Y-51904D01*
X70591Y-51945D01*
X70570Y-52007D01*
X70529Y-52049D01*
X70488Y-52069D01*
X70405Y-52090D01*
X70343Y-52090D01*
X70261Y-52069D01*
X70220Y-52049D01*
X70178Y-52007D01*
X70158Y-51945D01*
X70158Y-51904D01*
X70178Y-51842D01*
X70199Y-51822D01*
X70343Y-51574D02*
X70323Y-51615D01*
X70302Y-51636D01*
X70261Y-51657D01*
X70240Y-51657D01*
X70199Y-51636D01*
X70178Y-51615D01*
X70158Y-51574D01*
X70158Y-51492D01*
X70178Y-51450D01*
X70199Y-51430D01*
X70240Y-51409D01*
X70261Y-51409D01*
X70302Y-51430D01*
X70323Y-51450D01*
X70343Y-51492D01*
X70343Y-51574D01*
X70364Y-51615D01*
X70385Y-51636D01*
X70426Y-51657D01*
X70508Y-51657D01*
X70550Y-51636D01*
X70570Y-51615D01*
X70591Y-51574D01*
X70591Y-51492D01*
X70570Y-51450D01*
X70550Y-51430D01*
X70508Y-51409D01*
X70426Y-51409D01*
X70385Y-51430D01*
X70364Y-51450D01*
X70343Y-51492D01*
X73225Y-50850D02*
X73246Y-50871D01*
X73267Y-50932D01*
X73267Y-50974D01*
X73246Y-51036D01*
X73205Y-51077D01*
X73163Y-51097D01*
X73081Y-51118D01*
X73019Y-51118D01*
X72937Y-51097D01*
X72895Y-51077D01*
X72854Y-51036D01*
X72834Y-50974D01*
X72834Y-50932D01*
X72854Y-50871D01*
X72875Y-50850D01*
X73267Y-50437D02*
X73267Y-50685D01*
X73267Y-50561D02*
X72834Y-50561D01*
X72895Y-50602D01*
X72937Y-50644D01*
X72957Y-50685D01*
X72978Y-50066D02*
X73267Y-50066D01*
X72813Y-50169D02*
X73122Y-50272D01*
X73122Y-50004D01*
X75172Y-60746D02*
X75192Y-60767D01*
X75213Y-60828D01*
X75213Y-60870D01*
X75192Y-60932D01*
X75151Y-60973D01*
X75110Y-60993D01*
X75027Y-61014D01*
X74966Y-61014D01*
X74883Y-60993D01*
X74842Y-60973D01*
X74801Y-60932D01*
X74780Y-60870D01*
X74780Y-60828D01*
X74801Y-60767D01*
X74821Y-60746D01*
X74821Y-60581D02*
X74801Y-60560D01*
X74780Y-60519D01*
X74780Y-60416D01*
X74801Y-60375D01*
X74821Y-60354D01*
X74862Y-60333D01*
X74904Y-60333D01*
X74966Y-60354D01*
X75213Y-60602D01*
X75213Y-60333D01*
X75213Y-59921D02*
X75213Y-60168D01*
X75213Y-60045D02*
X74780Y-60045D01*
X74842Y-60086D01*
X74883Y-60127D01*
X74904Y-60168D01*
X71817Y-47094D02*
X71797Y-47114D01*
X71735Y-47135D01*
X71694Y-47135D01*
X71632Y-47114D01*
X71590Y-47073D01*
X71570Y-47032D01*
X71549Y-46949D01*
X71549Y-46887D01*
X71570Y-46805D01*
X71590Y-46764D01*
X71632Y-46722D01*
X71694Y-46702D01*
X71735Y-46702D01*
X71797Y-46722D01*
X71817Y-46743D01*
X72189Y-46846D02*
X72189Y-47135D01*
X72085Y-46681D02*
X71982Y-46990D01*
X72250Y-46990D01*
X78205Y-43920D02*
X78185Y-43940D01*
X78123Y-43961D01*
X78082Y-43961D01*
X78020Y-43940D01*
X77978Y-43899D01*
X77958Y-43858D01*
X77937Y-43775D01*
X77937Y-43713D01*
X77958Y-43631D01*
X77978Y-43590D01*
X78020Y-43548D01*
X78082Y-43528D01*
X78123Y-43528D01*
X78185Y-43548D01*
X78205Y-43569D01*
X78597Y-43528D02*
X78391Y-43528D01*
X78370Y-43734D01*
X78391Y-43713D01*
X78432Y-43693D01*
X78535Y-43693D01*
X78577Y-43713D01*
X78597Y-43734D01*
X78618Y-43775D01*
X78618Y-43878D01*
X78597Y-43920D01*
X78577Y-43940D01*
X78535Y-43961D01*
X78432Y-43961D01*
X78391Y-43940D01*
X78370Y-43920D01*
X76865Y-43931D02*
X76878Y-43944D01*
X76891Y-43983D01*
X76891Y-44009D01*
X76878Y-44049D01*
X76852Y-44075D01*
X76825Y-44088D01*
X76773Y-44101D01*
X76734Y-44101D01*
X76681Y-44088D01*
X76655Y-44075D01*
X76629Y-44049D01*
X76615Y-44009D01*
X76615Y-43983D01*
X76629Y-43944D01*
X76642Y-43931D01*
X76891Y-43668D02*
X76891Y-43826D01*
X76891Y-43747D02*
X76615Y-43747D01*
X76655Y-43773D01*
X76681Y-43799D01*
X76694Y-43826D01*
X76615Y-43498D02*
X76615Y-43471D01*
X76629Y-43445D01*
X76642Y-43432D01*
X76668Y-43419D01*
X76720Y-43406D01*
X76786Y-43406D01*
X76839Y-43419D01*
X76865Y-43432D01*
X76878Y-43445D01*
X76891Y-43471D01*
X76891Y-43498D01*
X76878Y-43524D01*
X76865Y-43537D01*
X76839Y-43550D01*
X76786Y-43563D01*
X76720Y-43563D01*
X76668Y-43550D01*
X76642Y-43537D01*
X76629Y-43524D01*
X76615Y-43498D01*
X76045Y-45901D02*
X76025Y-45922D01*
X75963Y-45943D01*
X75922Y-45943D01*
X75860Y-45922D01*
X75818Y-45881D01*
X75798Y-45839D01*
X75777Y-45757D01*
X75777Y-45695D01*
X75798Y-45613D01*
X75818Y-45571D01*
X75860Y-45530D01*
X75922Y-45510D01*
X75963Y-45510D01*
X76025Y-45530D01*
X76045Y-45551D01*
X76190Y-45510D02*
X76478Y-45510D01*
X76293Y-45943D01*
X72733Y-48084D02*
X72712Y-48104D01*
X72651Y-48125D01*
X72609Y-48125D01*
X72547Y-48104D01*
X72506Y-48063D01*
X72486Y-48022D01*
X72465Y-47939D01*
X72465Y-47877D01*
X72486Y-47795D01*
X72506Y-47754D01*
X72547Y-47712D01*
X72609Y-47692D01*
X72651Y-47692D01*
X72712Y-47712D01*
X72733Y-47733D01*
X73146Y-48125D02*
X72898Y-48125D01*
X73022Y-48125D02*
X73022Y-47692D01*
X72981Y-47754D01*
X72939Y-47795D01*
X72898Y-47815D01*
X73311Y-47733D02*
X73331Y-47712D01*
X73372Y-47692D01*
X73476Y-47692D01*
X73517Y-47712D01*
X73537Y-47733D01*
X73558Y-47774D01*
X73558Y-47815D01*
X73537Y-47877D01*
X73290Y-48125D01*
X73558Y-48125D01*
X72359Y-49990D02*
X72339Y-50010D01*
X72277Y-50031D01*
X72236Y-50031D01*
X72174Y-50010D01*
X72132Y-49969D01*
X72112Y-49928D01*
X72091Y-49845D01*
X72091Y-49783D01*
X72112Y-49701D01*
X72132Y-49660D01*
X72174Y-49618D01*
X72236Y-49598D01*
X72277Y-49598D01*
X72339Y-49618D01*
X72359Y-49639D01*
X72731Y-49598D02*
X72648Y-49598D01*
X72607Y-49618D01*
X72586Y-49639D01*
X72545Y-49701D01*
X72524Y-49783D01*
X72524Y-49948D01*
X72545Y-49990D01*
X72566Y-50010D01*
X72607Y-50031D01*
X72689Y-50031D01*
X72731Y-50010D01*
X72751Y-49990D01*
X72772Y-49948D01*
X72772Y-49845D01*
X72751Y-49804D01*
X72731Y-49783D01*
X72689Y-49763D01*
X72607Y-49763D01*
X72566Y-49783D01*
X72545Y-49804D01*
X72524Y-49845D01*
X70010Y-53108D02*
X70030Y-53129D01*
X70051Y-53190D01*
X70051Y-53232D01*
X70030Y-53294D01*
X69989Y-53335D01*
X69948Y-53355D01*
X69865Y-53376D01*
X69803Y-53376D01*
X69721Y-53355D01*
X69680Y-53335D01*
X69638Y-53294D01*
X69618Y-53232D01*
X69618Y-53190D01*
X69638Y-53129D01*
X69659Y-53108D01*
X69618Y-52964D02*
X69618Y-52695D01*
X69783Y-52840D01*
X69783Y-52778D01*
X69803Y-52737D01*
X69824Y-52716D01*
X69865Y-52695D01*
X69968Y-52695D01*
X70010Y-52716D01*
X70030Y-52737D01*
X70051Y-52778D01*
X70051Y-52902D01*
X70030Y-52943D01*
X70010Y-52964D01*
X70051Y-52283D02*
X70051Y-52530D01*
X70051Y-52407D02*
X69618Y-52407D01*
X69680Y-52448D01*
X69721Y-52489D01*
X69741Y-52530D01*
X71766Y-55054D02*
X71786Y-55075D01*
X71807Y-55136D01*
X71807Y-55178D01*
X71786Y-55240D01*
X71745Y-55281D01*
X71704Y-55301D01*
X71621Y-55322D01*
X71559Y-55322D01*
X71477Y-55301D01*
X71436Y-55281D01*
X71394Y-55240D01*
X71374Y-55178D01*
X71374Y-55136D01*
X71394Y-55075D01*
X71415Y-55054D01*
X71374Y-54910D02*
X71374Y-54641D01*
X71539Y-54786D01*
X71539Y-54724D01*
X71559Y-54683D01*
X71580Y-54662D01*
X71621Y-54641D01*
X71724Y-54641D01*
X71766Y-54662D01*
X71786Y-54683D01*
X71807Y-54724D01*
X71807Y-54848D01*
X71786Y-54889D01*
X71766Y-54910D01*
X71374Y-54373D02*
X71374Y-54332D01*
X71394Y-54291D01*
X71415Y-54270D01*
X71456Y-54250D01*
X71539Y-54229D01*
X71642Y-54229D01*
X71724Y-54250D01*
X71766Y-54270D01*
X71786Y-54291D01*
X71807Y-54332D01*
X71807Y-54373D01*
X71786Y-54415D01*
X71766Y-54435D01*
X71724Y-54456D01*
X71642Y-54476D01*
X71539Y-54476D01*
X71456Y-54456D01*
X71415Y-54435D01*
X71394Y-54415D01*
X71374Y-54373D01*
X72339Y-52936D02*
X72318Y-52956D01*
X72257Y-52977D01*
X72215Y-52977D01*
X72153Y-52956D01*
X72112Y-52915D01*
X72092Y-52874D01*
X72071Y-52791D01*
X72071Y-52729D01*
X72092Y-52647D01*
X72112Y-52606D01*
X72153Y-52564D01*
X72215Y-52544D01*
X72257Y-52544D01*
X72318Y-52564D01*
X72339Y-52585D01*
X72483Y-52544D02*
X72752Y-52544D01*
X72607Y-52709D01*
X72669Y-52709D01*
X72710Y-52729D01*
X72731Y-52750D01*
X72752Y-52791D01*
X72752Y-52894D01*
X72731Y-52936D01*
X72710Y-52956D01*
X72669Y-52977D01*
X72545Y-52977D01*
X72504Y-52956D01*
X72483Y-52936D01*
X72917Y-52585D02*
X72937Y-52564D01*
X72978Y-52544D01*
X73082Y-52544D01*
X73123Y-52564D01*
X73143Y-52585D01*
X73164Y-52626D01*
X73164Y-52667D01*
X73143Y-52729D01*
X72896Y-52977D01*
X73164Y-52977D01*
X69673Y-47906D02*
X69693Y-47927D01*
X69714Y-47988D01*
X69714Y-48030D01*
X69693Y-48092D01*
X69652Y-48133D01*
X69611Y-48153D01*
X69528Y-48174D01*
X69466Y-48174D01*
X69384Y-48153D01*
X69343Y-48133D01*
X69301Y-48092D01*
X69281Y-48030D01*
X69281Y-47988D01*
X69301Y-47927D01*
X69322Y-47906D01*
X69714Y-47493D02*
X69714Y-47741D01*
X69714Y-47617D02*
X69281Y-47617D01*
X69343Y-47658D01*
X69384Y-47700D01*
X69404Y-47741D01*
X69714Y-47287D02*
X69714Y-47205D01*
X69693Y-47163D01*
X69673Y-47143D01*
X69611Y-47102D01*
X69528Y-47081D01*
X69363Y-47081D01*
X69322Y-47102D01*
X69301Y-47122D01*
X69281Y-47163D01*
X69281Y-47246D01*
X69301Y-47287D01*
X69322Y-47308D01*
X69363Y-47328D01*
X69466Y-47328D01*
X69508Y-47308D01*
X69528Y-47287D01*
X69549Y-47246D01*
X69549Y-47163D01*
X69528Y-47122D01*
X69508Y-47102D01*
X69466Y-47081D01*
X72605Y-59162D02*
X72605Y-59471D01*
X72585Y-59533D01*
X72543Y-59574D01*
X72481Y-59595D01*
X72440Y-59595D01*
X73018Y-59162D02*
X72811Y-59162D01*
X72791Y-59368D01*
X72811Y-59347D01*
X72853Y-59327D01*
X72956Y-59327D01*
X72997Y-59347D01*
X73018Y-59368D01*
X73038Y-59409D01*
X73038Y-59512D01*
X73018Y-59554D01*
X72997Y-59574D01*
X72956Y-59595D01*
X72853Y-59595D01*
X72811Y-59574D01*
X72791Y-59554D01*
X75387Y-62581D02*
X75584Y-62581D01*
X75624Y-62594D01*
X75650Y-62621D01*
X75663Y-62660D01*
X75663Y-62686D01*
X75414Y-62463D02*
X75401Y-62450D01*
X75387Y-62424D01*
X75387Y-62358D01*
X75401Y-62332D01*
X75414Y-62319D01*
X75440Y-62306D01*
X75466Y-62306D01*
X75506Y-62319D01*
X75663Y-62476D01*
X75663Y-62306D01*
X74462Y-50644D02*
X74771Y-50644D01*
X74833Y-50664D01*
X74874Y-50706D01*
X74895Y-50768D01*
X74895Y-50809D01*
X74462Y-50252D02*
X74462Y-50335D01*
X74482Y-50376D01*
X74503Y-50396D01*
X74565Y-50438D01*
X74647Y-50458D01*
X74812Y-50458D01*
X74854Y-50438D01*
X74874Y-50417D01*
X74895Y-50376D01*
X74895Y-50293D01*
X74874Y-50252D01*
X74854Y-50231D01*
X74812Y-50211D01*
X74709Y-50211D01*
X74668Y-50231D01*
X74647Y-50252D01*
X74627Y-50293D01*
X74627Y-50376D01*
X74647Y-50417D01*
X74668Y-50438D01*
X74709Y-50458D01*
X76671Y-57582D02*
X76671Y-57891D01*
X76651Y-57953D01*
X76609Y-57994D01*
X76547Y-58015D01*
X76506Y-58015D01*
X77063Y-57726D02*
X77063Y-58015D01*
X76960Y-57561D02*
X76857Y-57870D01*
X77125Y-57870D01*
X68146Y-51013D02*
X68129Y-51030D01*
X68078Y-51047D01*
X68044Y-51047D01*
X67994Y-51030D01*
X67960Y-50996D01*
X67943Y-50963D01*
X67926Y-50895D01*
X67926Y-50844D01*
X67943Y-50777D01*
X67960Y-50743D01*
X67994Y-50709D01*
X68044Y-50693D01*
X68078Y-50693D01*
X68129Y-50709D01*
X68146Y-50726D01*
X68449Y-50693D02*
X68382Y-50693D01*
X68348Y-50709D01*
X68331Y-50726D01*
X68298Y-50777D01*
X68281Y-50844D01*
X68281Y-50979D01*
X68298Y-51013D01*
X68314Y-51030D01*
X68348Y-51047D01*
X68416Y-51047D01*
X68449Y-51030D01*
X68466Y-51013D01*
X68483Y-50979D01*
X68483Y-50895D01*
X68466Y-50861D01*
X68449Y-50844D01*
X68416Y-50828D01*
X68348Y-50828D01*
X68314Y-50844D01*
X68298Y-50861D01*
X68281Y-50895D01*
X68804Y-50693D02*
X68635Y-50693D01*
X68618Y-50861D01*
X68635Y-50844D01*
X68669Y-50828D01*
X68753Y-50828D01*
X68787Y-50844D01*
X68804Y-50861D01*
X68821Y-50895D01*
X68821Y-50979D01*
X68804Y-51013D01*
X68787Y-51030D01*
X68753Y-51047D01*
X68669Y-51047D01*
X68635Y-51030D01*
X68618Y-51013D01*
X67345Y-51466D02*
X67360Y-51481D01*
X67375Y-51526D01*
X67375Y-51556D01*
X67360Y-51601D01*
X67330Y-51631D01*
X67300Y-51646D01*
X67240Y-51661D01*
X67195Y-51661D01*
X67135Y-51646D01*
X67105Y-51631D01*
X67075Y-51601D01*
X67060Y-51556D01*
X67060Y-51526D01*
X67075Y-51481D01*
X67090Y-51466D01*
X67060Y-51196D02*
X67060Y-51256D01*
X67075Y-51286D01*
X67090Y-51301D01*
X67135Y-51331D01*
X67195Y-51346D01*
X67315Y-51346D01*
X67345Y-51331D01*
X67360Y-51316D01*
X67375Y-51286D01*
X67375Y-51226D01*
X67360Y-51196D01*
X67345Y-51181D01*
X67315Y-51166D01*
X67240Y-51166D01*
X67210Y-51181D01*
X67195Y-51196D01*
X67180Y-51226D01*
X67180Y-51286D01*
X67195Y-51316D01*
X67210Y-51331D01*
X67240Y-51346D01*
X67060Y-50896D02*
X67060Y-50956D01*
X67075Y-50986D01*
X67090Y-51001D01*
X67135Y-51031D01*
X67195Y-51046D01*
X67315Y-51046D01*
X67345Y-51031D01*
X67360Y-51016D01*
X67375Y-50986D01*
X67375Y-50926D01*
X67360Y-50896D01*
X67345Y-50881D01*
X67315Y-50866D01*
X67240Y-50866D01*
X67210Y-50881D01*
X67195Y-50896D01*
X67180Y-50926D01*
X67180Y-50986D01*
X67195Y-51016D01*
X67210Y-51031D01*
X67240Y-51046D01*
X77290Y-61247D02*
X77290Y-61471D01*
X77303Y-61497D01*
X77316Y-61510D01*
X77342Y-61523D01*
X77395Y-61523D01*
X77421Y-61510D01*
X77434Y-61497D01*
X77447Y-61471D01*
X77447Y-61247D01*
X77618Y-61366D02*
X77591Y-61352D01*
X77578Y-61339D01*
X77565Y-61313D01*
X77565Y-61300D01*
X77578Y-61274D01*
X77591Y-61261D01*
X77618Y-61247D01*
X77670Y-61247D01*
X77696Y-61261D01*
X77709Y-61274D01*
X77723Y-61300D01*
X77723Y-61313D01*
X77709Y-61339D01*
X77696Y-61352D01*
X77670Y-61366D01*
X77618Y-61366D01*
X77591Y-61379D01*
X77578Y-61392D01*
X77565Y-61418D01*
X77565Y-61471D01*
X77578Y-61497D01*
X77591Y-61510D01*
X77618Y-61523D01*
X77670Y-61523D01*
X77696Y-61510D01*
X77709Y-61497D01*
X77723Y-61471D01*
X77723Y-61418D01*
X77709Y-61392D01*
X77696Y-61379D01*
X77670Y-61366D01*
X75063Y-45528D02*
X74856Y-45672D01*
X75063Y-45775D02*
X74630Y-45775D01*
X74630Y-45610D01*
X74650Y-45569D01*
X74671Y-45549D01*
X74712Y-45528D01*
X74774Y-45528D01*
X74815Y-45549D01*
X74836Y-45569D01*
X74856Y-45610D01*
X74856Y-45775D01*
X74630Y-45384D02*
X74630Y-45115D01*
X74795Y-45260D01*
X74795Y-45198D01*
X74815Y-45157D01*
X74836Y-45136D01*
X74877Y-45115D01*
X74980Y-45115D01*
X75021Y-45136D01*
X75042Y-45157D01*
X75063Y-45198D01*
X75063Y-45322D01*
X75042Y-45363D01*
X75021Y-45384D01*
X74630Y-44744D02*
X74630Y-44827D01*
X74650Y-44868D01*
X74671Y-44889D01*
X74733Y-44930D01*
X74815Y-44950D01*
X74980Y-44950D01*
X75021Y-44930D01*
X75042Y-44909D01*
X75063Y-44868D01*
X75063Y-44785D01*
X75042Y-44744D01*
X75021Y-44724D01*
X74980Y-44703D01*
X74877Y-44703D01*
X74836Y-44724D01*
X74815Y-44744D01*
X74795Y-44785D01*
X74795Y-44868D01*
X74815Y-44909D01*
X74836Y-44930D01*
X74877Y-44950D01*
X67383Y-55652D02*
X67362Y-55672D01*
X67301Y-55693D01*
X67259Y-55693D01*
X67197Y-55672D01*
X67156Y-55631D01*
X67136Y-55590D01*
X67115Y-55507D01*
X67115Y-55445D01*
X67136Y-55363D01*
X67156Y-55322D01*
X67197Y-55280D01*
X67259Y-55260D01*
X67301Y-55260D01*
X67362Y-55280D01*
X67383Y-55301D01*
X67754Y-55260D02*
X67672Y-55260D01*
X67631Y-55280D01*
X67610Y-55301D01*
X67569Y-55363D01*
X67548Y-55445D01*
X67548Y-55610D01*
X67569Y-55652D01*
X67589Y-55672D01*
X67631Y-55693D01*
X67713Y-55693D01*
X67754Y-55672D01*
X67775Y-55652D01*
X67796Y-55610D01*
X67796Y-55507D01*
X67775Y-55466D01*
X67754Y-55445D01*
X67713Y-55425D01*
X67631Y-55425D01*
X67589Y-55445D01*
X67569Y-55466D01*
X67548Y-55507D01*
X67940Y-55260D02*
X68229Y-55260D01*
X68043Y-55693D01*
X75036Y-59187D02*
X75036Y-59537D01*
X75056Y-59579D01*
X75077Y-59599D01*
X75118Y-59620D01*
X75201Y-59620D01*
X75242Y-59599D01*
X75262Y-59579D01*
X75283Y-59537D01*
X75283Y-59187D01*
X75448Y-59187D02*
X75737Y-59187D01*
X75551Y-59620D01*
X71128Y-57138D02*
X71478Y-57138D01*
X71520Y-57117D01*
X71540Y-57096D01*
X71561Y-57055D01*
X71561Y-56973D01*
X71540Y-56931D01*
X71520Y-56911D01*
X71478Y-56890D01*
X71128Y-56890D01*
X71561Y-56457D02*
X71561Y-56705D01*
X71561Y-56581D02*
X71128Y-56581D01*
X71190Y-56622D01*
X71231Y-56663D01*
X71251Y-56705D01*
X71128Y-56189D02*
X71128Y-56148D01*
X71148Y-56107D01*
X71169Y-56086D01*
X71210Y-56065D01*
X71293Y-56045D01*
X71396Y-56045D01*
X71478Y-56065D01*
X71520Y-56086D01*
X71540Y-56107D01*
X71561Y-56148D01*
X71561Y-56189D01*
X71540Y-56230D01*
X71520Y-56251D01*
X71478Y-56272D01*
X71396Y-56292D01*
X71293Y-56292D01*
X71210Y-56272D01*
X71169Y-56251D01*
X71148Y-56230D01*
X71128Y-56189D01*
%LPC*%
G54D22*
X74607Y-53120D03*
X75592Y-53120D03*
G54D23*
X75790Y-54538D03*
X75790Y-54793D03*
X75790Y-55049D03*
X75790Y-55305D03*
X75790Y-55561D03*
X75790Y-55817D03*
X75790Y-56073D03*
X75790Y-56329D03*
X75790Y-56585D03*
X75790Y-56841D03*
X75790Y-57097D03*
X75790Y-57352D03*
X75790Y-57608D03*
X75790Y-57864D03*
X75790Y-58120D03*
X75535Y-54538D03*
X75535Y-54793D03*
X75535Y-55049D03*
X75535Y-55305D03*
X75535Y-55561D03*
X75535Y-55817D03*
X75535Y-56073D03*
X75535Y-56329D03*
X75535Y-56585D03*
X75535Y-56841D03*
X75535Y-57097D03*
X75535Y-57352D03*
X75535Y-57608D03*
X75535Y-57864D03*
X75535Y-58120D03*
X75279Y-54538D03*
X75279Y-54793D03*
X75279Y-55049D03*
X75279Y-55305D03*
X75279Y-55561D03*
X75279Y-55817D03*
X75279Y-56073D03*
X75279Y-56329D03*
X75279Y-56585D03*
X75279Y-56841D03*
X75279Y-57097D03*
X75279Y-57352D03*
X75279Y-57608D03*
X75279Y-57864D03*
X75279Y-58120D03*
X75023Y-54538D03*
X75023Y-54793D03*
X75023Y-55049D03*
X75023Y-55305D03*
X75023Y-55561D03*
X75023Y-55817D03*
X75023Y-56073D03*
X75023Y-56329D03*
X75023Y-56585D03*
X75023Y-56841D03*
X75023Y-57097D03*
X75023Y-57352D03*
X75023Y-57608D03*
X75023Y-57864D03*
X75023Y-58120D03*
X74767Y-54538D03*
X74767Y-54793D03*
X74767Y-55049D03*
X74767Y-55305D03*
X74767Y-57352D03*
X74767Y-57608D03*
X74767Y-57864D03*
X74767Y-58120D03*
X74511Y-54538D03*
X74511Y-54793D03*
X74511Y-55049D03*
X74511Y-55305D03*
X74511Y-55817D03*
X74511Y-56073D03*
X74511Y-56329D03*
X74511Y-56585D03*
X74511Y-56841D03*
X74511Y-57352D03*
X74511Y-57608D03*
X74511Y-57864D03*
X74511Y-58120D03*
X74255Y-54538D03*
X74255Y-54793D03*
X74255Y-55049D03*
X74255Y-55305D03*
X74255Y-55817D03*
X74255Y-56073D03*
X74255Y-56329D03*
X74255Y-56585D03*
X74255Y-56841D03*
X74255Y-57352D03*
X74255Y-57608D03*
X74255Y-57864D03*
X74255Y-58120D03*
X73999Y-54538D03*
X73999Y-54793D03*
X73999Y-55049D03*
X73999Y-55305D03*
X73999Y-55817D03*
X73999Y-56073D03*
X73999Y-56329D03*
X73999Y-56585D03*
X73999Y-56841D03*
X73999Y-57352D03*
X73999Y-57608D03*
X73999Y-57864D03*
X73999Y-58120D03*
X73743Y-54538D03*
X73743Y-54793D03*
X73743Y-55049D03*
X73743Y-55305D03*
X73743Y-55817D03*
X73743Y-56073D03*
X73743Y-56329D03*
X73743Y-56585D03*
X73743Y-56841D03*
X73743Y-57352D03*
X73743Y-57608D03*
X73743Y-57864D03*
X73743Y-58120D03*
X73487Y-54538D03*
X73487Y-54793D03*
X73487Y-55049D03*
X73487Y-55305D03*
X73487Y-55817D03*
X73487Y-56073D03*
X73487Y-56329D03*
X73487Y-56585D03*
X73487Y-56841D03*
X73487Y-57352D03*
X73487Y-57608D03*
X73487Y-57864D03*
X73487Y-58120D03*
X73231Y-54538D03*
X73231Y-54793D03*
X73231Y-55049D03*
X73231Y-55305D03*
X73231Y-57352D03*
X73231Y-57608D03*
X73231Y-57864D03*
X73231Y-58120D03*
X72976Y-54538D03*
X72976Y-54793D03*
X72976Y-55049D03*
X72976Y-55305D03*
X72976Y-55561D03*
X72976Y-55817D03*
X72976Y-56073D03*
X72976Y-56329D03*
X72976Y-56585D03*
X72976Y-56841D03*
X72976Y-57097D03*
X72976Y-57352D03*
X72976Y-57608D03*
X72976Y-57864D03*
X72976Y-58120D03*
X72720Y-54538D03*
X72720Y-54793D03*
X72720Y-55049D03*
X72720Y-55305D03*
X72720Y-55561D03*
X72720Y-55817D03*
X72720Y-56073D03*
X72720Y-56329D03*
X72720Y-56585D03*
X72720Y-56841D03*
X72720Y-57097D03*
X72720Y-57352D03*
X72720Y-57608D03*
X72720Y-57864D03*
X72720Y-58120D03*
X72464Y-54538D03*
X72464Y-54793D03*
X72464Y-55049D03*
X72464Y-55305D03*
X72464Y-55561D03*
X72464Y-55817D03*
X72464Y-56073D03*
X72464Y-56329D03*
X72464Y-56585D03*
X72464Y-56841D03*
X72464Y-57097D03*
X72464Y-57352D03*
X72464Y-57608D03*
X72464Y-57864D03*
X72464Y-58120D03*
X72208Y-54538D03*
X72208Y-54793D03*
X72208Y-55049D03*
X72208Y-55305D03*
X72208Y-55561D03*
X72208Y-55817D03*
X72208Y-56073D03*
X72208Y-56329D03*
X72208Y-56585D03*
X72208Y-56841D03*
X72208Y-57097D03*
X72208Y-57352D03*
X72208Y-57608D03*
X72208Y-57864D03*
X72208Y-58120D03*
G54D24*
X71736Y-45994D03*
X71736Y-45294D03*
X72536Y-45644D03*
X71162Y-45114D03*
X71162Y-45814D03*
X70362Y-45464D03*
G54D25*
X77782Y-59739D03*
X77407Y-58873D03*
X78157Y-58873D03*
G54D26*
X77647Y-45468D03*
X78434Y-45468D03*
G54D27*
X76900Y-61705D03*
X75759Y-61705D03*
G54D28*
X78165Y-61565D03*
X78165Y-62314D03*
G54D29*
X78163Y-51702D03*
X77572Y-51702D03*
G54D30*
X70938Y-61369D03*
X70938Y-60778D03*
X71520Y-61174D03*
X71520Y-61765D03*
X70336Y-60086D03*
X70336Y-60677D03*
G54D29*
X78163Y-52242D03*
X77572Y-52242D03*
X78163Y-52752D03*
X77572Y-52752D03*
G54D30*
X73164Y-46674D03*
X73164Y-47265D03*
G54D29*
X73357Y-45140D03*
X72766Y-45140D03*
G54D30*
X69670Y-43634D03*
X69670Y-44225D03*
G54D31*
X71413Y-49678D03*
X71806Y-49678D03*
X75289Y-52582D03*
X75682Y-52582D03*
X71413Y-49316D03*
X71806Y-49316D03*
X74964Y-52582D03*
X74571Y-52582D03*
X69912Y-58822D03*
X69519Y-58822D03*
X69538Y-59206D03*
X69145Y-59206D03*
X69217Y-56652D03*
X69610Y-56652D03*
X73294Y-58706D03*
X72901Y-58706D03*
X76789Y-52750D03*
X77182Y-52750D03*
X76781Y-52218D03*
X77174Y-52218D03*
X76783Y-51730D03*
X77176Y-51730D03*
X71684Y-50292D03*
X71291Y-50292D03*
X69571Y-57286D03*
X69964Y-57286D03*
X76420Y-43752D03*
X76027Y-43752D03*
G54D32*
X76118Y-44403D03*
X76118Y-44796D03*
G54D31*
X73825Y-53244D03*
X74218Y-53244D03*
X72138Y-48344D03*
X71745Y-48344D03*
G54D32*
X78474Y-59704D03*
X78474Y-59311D03*
G54D31*
X77606Y-62392D03*
X77213Y-62392D03*
X76156Y-58857D03*
X75763Y-58857D03*
G54D32*
X73190Y-53423D03*
X73190Y-53816D03*
X68566Y-60088D03*
X68566Y-59695D03*
G54D33*
X71984Y-51136D03*
X71787Y-51136D03*
X72181Y-51136D03*
X72181Y-52219D03*
X71787Y-52219D03*
X71984Y-52219D03*
G54D34*
X72526Y-51678D03*
X72526Y-51481D03*
X72526Y-51284D03*
X72526Y-51874D03*
X72526Y-52071D03*
X71443Y-52071D03*
X71443Y-51874D03*
X71443Y-51284D03*
X71443Y-51481D03*
X71443Y-51678D03*
G54D35*
X77005Y-44833D03*
X77005Y-44675D03*
X77005Y-44360D03*
X77005Y-44518D03*
X77005Y-44202D03*
X77714Y-44202D03*
X77714Y-44518D03*
X77714Y-44360D03*
X77714Y-44675D03*
X77714Y-44833D03*
G54D36*
X70539Y-44070D03*
X71051Y-44070D03*
X70795Y-44070D03*
X71819Y-44070D03*
X72075Y-44070D03*
X71563Y-44070D03*
X71307Y-44070D03*
X73354Y-44070D03*
X73610Y-44070D03*
X74122Y-44070D03*
X73866Y-44070D03*
X72842Y-44070D03*
X73098Y-44070D03*
X72586Y-44070D03*
X72330Y-44070D03*
G54D37*
X70701Y-46821D03*
X70504Y-46821D03*
X70307Y-46821D03*
X70307Y-47903D03*
X70504Y-47903D03*
X70701Y-47903D03*
G54D38*
X71045Y-46968D03*
X71045Y-47165D03*
X71045Y-47362D03*
X71045Y-47756D03*
X71045Y-47559D03*
X69963Y-47559D03*
X69963Y-47756D03*
X69963Y-47362D03*
X69963Y-47165D03*
X69963Y-46968D03*
G54D39*
X76954Y-50142D03*
X76954Y-50930D03*
X78096Y-50930D03*
X78096Y-50142D03*
G54D40*
X74728Y-61373D03*
G54D41*
X74826Y-62436D03*
X72661Y-62436D03*
X74137Y-62436D03*
G54D42*
X73244Y-61357D03*
X73494Y-61357D03*
X73744Y-61357D03*
X73994Y-61357D03*
X74244Y-61357D03*
G54D43*
X75122Y-62436D03*
X72366Y-62436D03*
G54D41*
X73350Y-62436D03*
G54D40*
X72760Y-61373D03*
G54D44*
X68681Y-44524D03*
G54D45*
X68759Y-45351D03*
X68760Y-43697D03*
X67421Y-43697D03*
X67421Y-45351D03*
G54D44*
X67499Y-44524D03*
X68677Y-46996D03*
G54D45*
X68755Y-47823D03*
X68756Y-46169D03*
X67417Y-46169D03*
X67417Y-47823D03*
G54D44*
X67495Y-46996D03*
X68681Y-49498D03*
G54D45*
X68759Y-50325D03*
X68760Y-48671D03*
X67421Y-48671D03*
X67421Y-50325D03*
G54D44*
X67499Y-49498D03*
X68711Y-57800D03*
G54D45*
X68789Y-58627D03*
X68790Y-56973D03*
X67451Y-56973D03*
X67451Y-58627D03*
G54D44*
X67529Y-57800D03*
G54D46*
X74131Y-46990D03*
G54D47*
X78128Y-46990D03*
G54D48*
X69231Y-61768D03*
X69546Y-61768D03*
X69231Y-62083D03*
X69861Y-62083D03*
X69546Y-62083D03*
X69546Y-61453D03*
X69861Y-61768D03*
X69861Y-61453D03*
X69231Y-61453D03*
G54D49*
X69940Y-60980D03*
X69743Y-60980D03*
X69349Y-60980D03*
X69546Y-60980D03*
X69152Y-60980D03*
X69152Y-62555D03*
X69546Y-62555D03*
X69349Y-62555D03*
X69743Y-62555D03*
X69940Y-62555D03*
G54D50*
X68758Y-61769D03*
X68758Y-61966D03*
X68758Y-62162D03*
X68758Y-61572D03*
X68758Y-61375D03*
X70333Y-61374D03*
X70333Y-61571D03*
X70333Y-62161D03*
X70333Y-61965D03*
G54D51*
X69546Y-61768D03*
G54D50*
X70333Y-61768D03*
G54D34*
X71064Y-49189D03*
X71064Y-49443D03*
X71064Y-49697D03*
X71064Y-49951D03*
X69540Y-49951D03*
X69540Y-49697D03*
X69540Y-49443D03*
X69540Y-49189D03*
G54D33*
X69921Y-48808D03*
X70175Y-48808D03*
X70429Y-48808D03*
X70683Y-48808D03*
X70683Y-50332D03*
X70429Y-50332D03*
X70175Y-50332D03*
X69921Y-50332D03*
G54D52*
X69856Y-52105D03*
X69856Y-51594D03*
X69856Y-51850D03*
X69383Y-52105D03*
X69383Y-51850D03*
X69383Y-51594D03*
G54D53*
X69621Y-60074D03*
X69050Y-60074D03*
X69050Y-59641D03*
X69621Y-59641D03*
G54D54*
X68163Y-61419D03*
X67652Y-61419D03*
X67908Y-61419D03*
X68163Y-61892D03*
X67908Y-61892D03*
X67652Y-61892D03*
G54D53*
X71413Y-53034D03*
X70842Y-53034D03*
X70842Y-52601D03*
X71413Y-52601D03*
G54D55*
X73544Y-54022D03*
X73544Y-53629D03*
X74075Y-53629D03*
X74075Y-54022D03*
G54D56*
X68559Y-52126D03*
X68559Y-52893D03*
X67792Y-52893D03*
X67792Y-52126D03*
G54D30*
X70854Y-51478D03*
X70854Y-52069D03*
X72580Y-50867D03*
X72580Y-50276D03*
X75550Y-60172D03*
X75550Y-60763D03*
G54D29*
X72241Y-47426D03*
X71650Y-47426D03*
G54D30*
X78246Y-44783D03*
X78246Y-44192D03*
G54D29*
X77118Y-43808D03*
X77709Y-43808D03*
X75822Y-45256D03*
X76413Y-45256D03*
X72245Y-47912D03*
X71654Y-47912D03*
G54D32*
X72172Y-50692D03*
X72172Y-50299D03*
X70372Y-52605D03*
X70372Y-52998D03*
X71510Y-53976D03*
X71510Y-53583D03*
X71868Y-53010D03*
X71868Y-52617D03*
G54D31*
X69836Y-48394D03*
X69443Y-48394D03*
G54D57*
X71654Y-60130D03*
X72654Y-60130D03*
X72154Y-60130D03*
X73154Y-60130D03*
G54D58*
X73654Y-60130D03*
G54D57*
X76630Y-62508D03*
G54D58*
X76130Y-62508D03*
G54D57*
X75470Y-51750D03*
X75470Y-51250D03*
X75470Y-50750D03*
X75470Y-49750D03*
X75470Y-50250D03*
X75470Y-49250D03*
X75970Y-49250D03*
X75970Y-50250D03*
X75970Y-49750D03*
X75970Y-50750D03*
X75970Y-51250D03*
G54D58*
X75970Y-51750D03*
G54D59*
X78056Y-55998D03*
X77556Y-55998D03*
X78056Y-56998D03*
X77556Y-56998D03*
X77556Y-56498D03*
X78056Y-56498D03*
X78056Y-57498D03*
X77556Y-57498D03*
X77556Y-57998D03*
G54D60*
X78056Y-57998D03*
G54D31*
X68189Y-51288D03*
X68582Y-51288D03*
G54D32*
X67674Y-50887D03*
X67674Y-51280D03*
G54D61*
X67276Y-62664D03*
G54D62*
X67698Y-59948D03*
X75264Y-44226D03*
X78008Y-60670D03*
X69638Y-45828D03*
G54D63*
X77592Y-61717D03*
X77435Y-61717D03*
X77435Y-61875D03*
X77592Y-61875D03*
X77592Y-62032D03*
X77435Y-62032D03*
G54D32*
X75380Y-45053D03*
X75380Y-45446D03*
G54D30*
X67470Y-54364D03*
X67470Y-54955D03*
G54D64*
X76400Y-60240D03*
X76636Y-60082D03*
X76636Y-60397D03*
X76163Y-60397D03*
G54D65*
X76006Y-59373D03*
X76203Y-59373D03*
X76596Y-59373D03*
X76400Y-59373D03*
X76793Y-59373D03*
X76793Y-61106D03*
X76400Y-61106D03*
X76596Y-61106D03*
X76203Y-61106D03*
X76006Y-61106D03*
G54D66*
X76400Y-60240D03*
G54D64*
X76163Y-60082D03*
G54D67*
X70056Y-55526D03*
X70056Y-54345D03*
X70056Y-54739D03*
X70056Y-55132D03*
X70450Y-55132D03*
X70450Y-54739D03*
X70450Y-54345D03*
X70450Y-55526D03*
X69663Y-55526D03*
X69663Y-54345D03*
X69663Y-54739D03*
X69663Y-55132D03*
X69269Y-55132D03*
X69269Y-54739D03*
X69269Y-54345D03*
X69269Y-55526D03*
G54D68*
X68974Y-56117D03*
X69171Y-56117D03*
X69367Y-56117D03*
X69564Y-56117D03*
X69761Y-56117D03*
X69958Y-56117D03*
X70155Y-56117D03*
X70352Y-56117D03*
X70548Y-56117D03*
X70745Y-56117D03*
G54D69*
X71041Y-55821D03*
X71041Y-55624D03*
X71041Y-55428D03*
X71041Y-55231D03*
X71041Y-55034D03*
X71041Y-54837D03*
X71041Y-54640D03*
X71041Y-54443D03*
X71041Y-54247D03*
X71041Y-54050D03*
G54D68*
X70745Y-53754D03*
X70548Y-53754D03*
X70352Y-53754D03*
X70155Y-53754D03*
X69958Y-53754D03*
X69761Y-53754D03*
X69564Y-53754D03*
X69367Y-53754D03*
X69171Y-53754D03*
X68974Y-53754D03*
G54D69*
X68678Y-54050D03*
X68678Y-54247D03*
X68678Y-54443D03*
X68678Y-54640D03*
X68678Y-54837D03*
X68678Y-55034D03*
X68678Y-55231D03*
X68678Y-55428D03*
X68678Y-55624D03*
X68678Y-55821D03*
G54D70*
X69860Y-54936D03*
M02*
