G04 (created by PCBNEW (2013-may-18)-stable) date Tue 16 Jul 2013 10:20:31 AM EDT*
%MOIN*%
G04 Gerber Fmt 3.4, Leading zero omitted, Abs format*
%FSLAX34Y34*%
G01*
G70*
G90*
G04 APERTURE LIST*
%ADD10C,0.00590551*%
%ADD11C,0.00787402*%
%ADD12C,0.011811*%
%ADD13C,0.0047*%
%ADD14C,0.0031*%
%ADD15C,0.0039*%
%ADD16C,0.0079*%
%ADD17C,0.012*%
%ADD18C,0.00669291*%
%ADD19C,0.0051*%
%ADD20C,0.0069*%
%ADD21R,0.0393701X0.0708661*%
%ADD22R,0.036X0.036*%
%ADD23R,0.0315X0.0394*%
%ADD24R,0.0315X0.0197*%
%ADD25R,0.0354331X0.0629921*%
%ADD26R,0.0511811X0.0275591*%
%ADD27R,0.023622X0.0354331*%
%ADD28R,0.0354331X0.023622*%
%ADD29R,0.019685X0.023622*%
%ADD30R,0.023622X0.019685*%
%ADD31R,0.0118X0.0315*%
%ADD32R,0.0315X0.0118*%
%ADD33R,0.0315X0.0079*%
%ADD34R,0.0118X0.0767*%
%ADD35R,0.0098X0.0276*%
%ADD36R,0.0276X0.0098*%
%ADD37R,0.0236X0.0236*%
%ADD38O,0.0452X0.0334*%
%ADD39R,0.0551X0.059*%
%ADD40R,0.0117X0.0551*%
%ADD41O,0.0314X0.059*%
%ADD42C,0.0314*%
%ADD43R,0.0354X0.0472*%
%ADD44R,0.0609X0.1515*%
%ADD45R,0.0727X0.1909*%
%ADD46C,0.013*%
%ADD47R,0.011X0.0394*%
%ADD48R,0.0394X0.011*%
%ADD49R,0.0945X0.0945*%
%ADD50R,0.0275591X0.011811*%
%ADD51R,0.0374016X0.0334646*%
%ADD52R,0.011811X0.0275591*%
%ADD53R,0.0295276X0.0275591*%
%ADD54R,0.0606299X0.0606299*%
%ADD55C,0.04*%
%ADD56R,0.04X0.04*%
%ADD57C,0.042*%
%ADD58R,0.042X0.042*%
%ADD59R,0.023622X0.0629921*%
%ADD60C,0.09*%
%ADD61C,0.023622*%
%ADD62R,0.011811X0.0393701*%
%ADD63R,0.0740157X0.061811*%
%ADD64R,0.019685X0.019685*%
%ADD65R,0.0110236X0.0334646*%
%ADD66R,0.0334646X0.0110236*%
%ADD67R,0.177165X0.177165*%
%ADD68C,0.0135*%
%ADD69R,0.0197X0.0315*%
%ADD70C,0.0123614*%
G04 APERTURE END LIST*
G54D10*
G54D11*
X74194Y-60320D02*
X74373Y-60320D01*
X74284Y-60320D02*
X74284Y-60005D01*
X74313Y-60050D01*
X74343Y-60080D01*
X74373Y-60095D01*
G54D12*
X76826Y-49714D02*
X76629Y-49432D01*
X76489Y-49714D02*
X76489Y-49123D01*
X76714Y-49123D01*
X76770Y-49151D01*
X76798Y-49179D01*
X76826Y-49235D01*
X76826Y-49320D01*
X76798Y-49376D01*
X76770Y-49404D01*
X76714Y-49432D01*
X76489Y-49432D01*
X77051Y-49685D02*
X77135Y-49714D01*
X77276Y-49714D01*
X77332Y-49685D01*
X77360Y-49657D01*
X77389Y-49601D01*
X77389Y-49545D01*
X77360Y-49489D01*
X77332Y-49460D01*
X77276Y-49432D01*
X77164Y-49404D01*
X77107Y-49376D01*
X77079Y-49348D01*
X77051Y-49292D01*
X77051Y-49235D01*
X77079Y-49179D01*
X77107Y-49151D01*
X77164Y-49123D01*
X77304Y-49123D01*
X77389Y-49151D01*
X77557Y-49123D02*
X77895Y-49123D01*
X77726Y-49714D02*
X77726Y-49123D01*
G54D11*
X74160Y-51555D02*
X74122Y-51536D01*
X74066Y-51536D01*
X74010Y-51555D01*
X73972Y-51592D01*
X73953Y-51630D01*
X73935Y-51705D01*
X73935Y-51761D01*
X73953Y-51836D01*
X73972Y-51874D01*
X74010Y-51911D01*
X74066Y-51930D01*
X74103Y-51930D01*
X74160Y-51911D01*
X74178Y-51892D01*
X74178Y-51761D01*
X74103Y-51761D01*
X74347Y-51930D02*
X74347Y-51536D01*
X74572Y-51930D01*
X74572Y-51536D01*
X74760Y-51930D02*
X74760Y-51536D01*
X74853Y-51536D01*
X74910Y-51555D01*
X74947Y-51592D01*
X74966Y-51630D01*
X74985Y-51705D01*
X74985Y-51761D01*
X74966Y-51836D01*
X74947Y-51874D01*
X74910Y-51911D01*
X74853Y-51930D01*
X74760Y-51930D01*
X73809Y-51002D02*
X73940Y-51396D01*
X74072Y-51002D01*
X74203Y-51396D02*
X74203Y-51002D01*
X74203Y-51152D02*
X74240Y-51133D01*
X74315Y-51133D01*
X74353Y-51152D01*
X74372Y-51171D01*
X74390Y-51208D01*
X74390Y-51321D01*
X74372Y-51358D01*
X74353Y-51377D01*
X74315Y-51396D01*
X74240Y-51396D01*
X74203Y-51377D01*
X74728Y-51396D02*
X74728Y-51190D01*
X74709Y-51152D01*
X74672Y-51133D01*
X74597Y-51133D01*
X74559Y-51152D01*
X74728Y-51377D02*
X74690Y-51396D01*
X74597Y-51396D01*
X74559Y-51377D01*
X74540Y-51340D01*
X74540Y-51302D01*
X74559Y-51265D01*
X74597Y-51246D01*
X74690Y-51246D01*
X74728Y-51227D01*
X74859Y-51133D02*
X75009Y-51133D01*
X74915Y-51002D02*
X74915Y-51340D01*
X74934Y-51377D01*
X74972Y-51396D01*
X75009Y-51396D01*
X73748Y-50495D02*
X73880Y-50889D01*
X74011Y-50495D01*
X74142Y-50889D02*
X74142Y-50495D01*
X74142Y-50645D02*
X74180Y-50626D01*
X74255Y-50626D01*
X74292Y-50645D01*
X74311Y-50664D01*
X74330Y-50701D01*
X74330Y-50814D01*
X74311Y-50851D01*
X74292Y-50870D01*
X74255Y-50889D01*
X74180Y-50889D01*
X74142Y-50870D01*
X74667Y-50626D02*
X74667Y-50889D01*
X74498Y-50626D02*
X74498Y-50833D01*
X74517Y-50870D01*
X74555Y-50889D01*
X74611Y-50889D01*
X74648Y-50870D01*
X74667Y-50851D01*
X74836Y-50870D02*
X74873Y-50889D01*
X74948Y-50889D01*
X74986Y-50870D01*
X75005Y-50833D01*
X75005Y-50814D01*
X74986Y-50776D01*
X74948Y-50758D01*
X74892Y-50758D01*
X74855Y-50739D01*
X74836Y-50701D01*
X74836Y-50683D01*
X74855Y-50645D01*
X74892Y-50626D01*
X74948Y-50626D01*
X74986Y-50645D01*
X74397Y-50030D02*
X74528Y-50424D01*
X74659Y-50030D01*
X74753Y-50030D02*
X74997Y-50030D01*
X74865Y-50180D01*
X74922Y-50180D01*
X74959Y-50199D01*
X74978Y-50218D01*
X74997Y-50255D01*
X74997Y-50349D01*
X74978Y-50386D01*
X74959Y-50405D01*
X74922Y-50424D01*
X74809Y-50424D01*
X74772Y-50405D01*
X74753Y-50386D01*
G54D10*
X74893Y-52942D02*
X74893Y-53297D01*
X75306Y-53297D02*
X75306Y-52942D01*
X75218Y-53238D02*
X74981Y-53238D01*
X74981Y-53238D02*
X74981Y-53001D01*
X74981Y-53001D02*
X75218Y-53001D01*
X75218Y-53001D02*
X75218Y-53238D01*
X75729Y-53415D02*
X74470Y-53415D01*
X74470Y-53415D02*
X74470Y-52824D01*
X74470Y-52824D02*
X75729Y-52824D01*
X75729Y-52824D02*
X75729Y-53415D01*
G54D13*
X71986Y-46244D02*
X71986Y-45044D01*
X71986Y-45044D02*
X72286Y-45044D01*
X72286Y-45044D02*
X72286Y-46244D01*
X72286Y-46244D02*
X71986Y-46244D01*
X70912Y-44864D02*
X70912Y-46064D01*
X70912Y-46064D02*
X70612Y-46064D01*
X70612Y-46064D02*
X70612Y-44864D01*
X70612Y-44864D02*
X70912Y-44864D01*
G54D14*
X78307Y-59168D02*
G75*
G03X78307Y-59168I-62J0D01*
G74*
G01*
X77282Y-59506D02*
X77282Y-59106D01*
X78307Y-59506D02*
X78307Y-59106D01*
X77282Y-59106D02*
X78307Y-59106D01*
X78307Y-59506D02*
X77282Y-59506D01*
G54D15*
X78158Y-45192D02*
X78158Y-45744D01*
X78197Y-45744D02*
X78197Y-45192D01*
X78335Y-45173D02*
X77745Y-45173D01*
X77745Y-45173D02*
X77745Y-45763D01*
X77745Y-45763D02*
X78335Y-45763D01*
X78335Y-45763D02*
X78335Y-45173D01*
X78335Y-45173D02*
X78237Y-45173D01*
X78237Y-45173D02*
X78237Y-45763D01*
X78237Y-45763D02*
X78138Y-45763D01*
X78138Y-45763D02*
X78138Y-45173D01*
G54D10*
X75759Y-61360D02*
X76900Y-61360D01*
X75759Y-62049D02*
X76900Y-62049D01*
X77879Y-62304D02*
X77879Y-61556D01*
X78450Y-62304D02*
X78450Y-61556D01*
X77572Y-51908D02*
X78163Y-51908D01*
X77572Y-51495D02*
X78163Y-51495D01*
X71726Y-61765D02*
X71726Y-61174D01*
X71313Y-61765D02*
X71313Y-61174D01*
X70542Y-60677D02*
X70542Y-60086D01*
X70129Y-60677D02*
X70129Y-60086D01*
X77572Y-52448D02*
X78163Y-52448D01*
X77572Y-52035D02*
X78163Y-52035D01*
X77572Y-52958D02*
X78163Y-52958D01*
X77572Y-52545D02*
X78163Y-52545D01*
X72766Y-45346D02*
X73357Y-45346D01*
X72766Y-44933D02*
X73357Y-44933D01*
X69876Y-44225D02*
X69876Y-43634D01*
X69463Y-44225D02*
X69463Y-43634D01*
X71806Y-49530D02*
X71413Y-49530D01*
X71806Y-49825D02*
X71413Y-49825D01*
X75682Y-52434D02*
X75289Y-52434D01*
X75682Y-52729D02*
X75289Y-52729D01*
X71806Y-49168D02*
X71413Y-49168D01*
X71806Y-49463D02*
X71413Y-49463D01*
X74571Y-52729D02*
X74964Y-52729D01*
X74571Y-52434D02*
X74964Y-52434D01*
X69519Y-58969D02*
X69912Y-58969D01*
X69519Y-58674D02*
X69912Y-58674D01*
X69433Y-59346D02*
X69826Y-59346D01*
X69433Y-59051D02*
X69826Y-59051D01*
X69610Y-56504D02*
X69217Y-56504D01*
X69610Y-56799D02*
X69217Y-56799D01*
X72901Y-58853D02*
X73294Y-58853D01*
X72901Y-58558D02*
X73294Y-58558D01*
X77182Y-52602D02*
X76789Y-52602D01*
X77182Y-52897D02*
X76789Y-52897D01*
X77174Y-52070D02*
X76781Y-52070D01*
X77174Y-52365D02*
X76781Y-52365D01*
X77176Y-51582D02*
X76783Y-51582D01*
X77176Y-51877D02*
X76783Y-51877D01*
X71290Y-50535D02*
X71683Y-50535D01*
X71290Y-50240D02*
X71683Y-50240D01*
X69964Y-57138D02*
X69571Y-57138D01*
X69964Y-57433D02*
X69571Y-57433D01*
X76027Y-43899D02*
X76420Y-43899D01*
X76027Y-43604D02*
X76420Y-43604D01*
X76265Y-44796D02*
X76265Y-44403D01*
X75970Y-44796D02*
X75970Y-44403D01*
X74218Y-53096D02*
X73825Y-53096D01*
X74218Y-53391D02*
X73825Y-53391D01*
X71745Y-48491D02*
X72138Y-48491D01*
X71745Y-48196D02*
X72138Y-48196D01*
X78326Y-59311D02*
X78326Y-59704D01*
X78621Y-59311D02*
X78621Y-59704D01*
X77213Y-62539D02*
X77606Y-62539D01*
X77213Y-62244D02*
X77606Y-62244D01*
X75763Y-59004D02*
X76156Y-59004D01*
X75763Y-58709D02*
X76156Y-58709D01*
X73337Y-53816D02*
X73337Y-53423D01*
X73042Y-53816D02*
X73042Y-53423D01*
X69136Y-59054D02*
X68743Y-59054D01*
X69136Y-59349D02*
X68743Y-59349D01*
G54D16*
X71906Y-51531D02*
G75*
G03X71906Y-51531I-69J0D01*
G74*
G01*
X71393Y-51087D02*
X71393Y-52269D01*
X71393Y-52269D02*
X72575Y-52269D01*
X72575Y-52269D02*
X72575Y-51087D01*
X72575Y-51087D02*
X71393Y-51087D01*
G54D15*
X77438Y-44793D02*
G75*
G03X77438Y-44793I-39J0D01*
G74*
G01*
G54D16*
X77754Y-44912D02*
X77754Y-44124D01*
X77754Y-44124D02*
X76966Y-44124D01*
X76966Y-44124D02*
X76966Y-44912D01*
X76966Y-44912D02*
X77754Y-44912D01*
G54D15*
X74633Y-43558D02*
X74633Y-44582D01*
X74633Y-44582D02*
X70027Y-44582D01*
X70027Y-44582D02*
X70027Y-43558D01*
X70027Y-43558D02*
X74633Y-43558D01*
G54D16*
X70376Y-47165D02*
G75*
G03X70376Y-47165I-69J0D01*
G74*
G01*
X69913Y-46771D02*
X69913Y-47953D01*
X69913Y-47953D02*
X71095Y-47953D01*
X71095Y-47953D02*
X71095Y-46771D01*
X71095Y-46771D02*
X69913Y-46771D01*
G54D15*
X77806Y-50536D02*
G75*
G03X77806Y-50536I-300J0D01*
G74*
G01*
X78097Y-50024D02*
X78097Y-51048D01*
X78097Y-51048D02*
X76915Y-51048D01*
X76915Y-51048D02*
X76915Y-50024D01*
X76915Y-50024D02*
X78097Y-50024D01*
X66870Y-45311D02*
X66870Y-43737D01*
X66870Y-43737D02*
X69310Y-43737D01*
X69310Y-43737D02*
X69310Y-45311D01*
X69310Y-45311D02*
X66870Y-45311D01*
X66866Y-47783D02*
X66866Y-46209D01*
X66866Y-46209D02*
X69306Y-46209D01*
X69306Y-46209D02*
X69306Y-47783D01*
X69306Y-47783D02*
X66866Y-47783D01*
X66870Y-50285D02*
X66870Y-48711D01*
X66870Y-48711D02*
X69310Y-48711D01*
X69310Y-48711D02*
X69310Y-50285D01*
X69310Y-50285D02*
X66870Y-50285D01*
X66900Y-58587D02*
X66900Y-57013D01*
X66900Y-57013D02*
X69340Y-57013D01*
X69340Y-57013D02*
X69340Y-58587D01*
X69340Y-58587D02*
X66900Y-58587D01*
X78069Y-48565D02*
X78069Y-49352D01*
X78462Y-48959D02*
X77675Y-48959D01*
X77439Y-46990D02*
G75*
G03X77439Y-46990I-1339J0D01*
G74*
G01*
X70254Y-62437D02*
G75*
G03X70254Y-62437I-39J0D01*
G74*
G01*
X70333Y-62555D02*
X68759Y-62555D01*
X68759Y-62555D02*
X68759Y-60981D01*
X68759Y-60981D02*
X70333Y-60981D01*
X70333Y-60981D02*
X70333Y-62555D01*
G54D16*
X71070Y-50338D02*
X69534Y-50338D01*
X69534Y-48802D02*
X71070Y-48802D01*
X70174Y-49826D02*
G75*
G03X70174Y-49826I-128J0D01*
G74*
G01*
X69534Y-50338D02*
X69534Y-48802D01*
X71070Y-48802D02*
X71070Y-50338D01*
G54D10*
X69560Y-51239D02*
X69560Y-51338D01*
X69570Y-51338D02*
X69679Y-51338D01*
X69679Y-51338D02*
X69679Y-51239D01*
X69679Y-51239D02*
X69570Y-51239D01*
X69413Y-51456D02*
X69856Y-51456D01*
X69856Y-51456D02*
X69856Y-52243D01*
X69856Y-52243D02*
X69413Y-52243D01*
X69413Y-52243D02*
X69413Y-51456D01*
X69847Y-60281D02*
X68824Y-60281D01*
X68824Y-60281D02*
X68824Y-59454D01*
X68824Y-59454D02*
X68824Y-59434D01*
X68824Y-59434D02*
X69847Y-59434D01*
X69847Y-59434D02*
X69847Y-60281D01*
X67297Y-61715D02*
X67396Y-61715D01*
X67396Y-61705D02*
X67396Y-61596D01*
X67396Y-61596D02*
X67297Y-61596D01*
X67297Y-61596D02*
X67297Y-61705D01*
X67514Y-61862D02*
X67514Y-61419D01*
X67514Y-61419D02*
X68301Y-61419D01*
X68301Y-61419D02*
X68301Y-61862D01*
X68301Y-61862D02*
X67514Y-61862D01*
X71639Y-53241D02*
X70616Y-53241D01*
X70616Y-53241D02*
X70616Y-52414D01*
X70616Y-52414D02*
X70616Y-52394D01*
X70616Y-52394D02*
X71639Y-52394D01*
X71639Y-52394D02*
X71639Y-53241D01*
X74203Y-54140D02*
X73416Y-54140D01*
X73416Y-54140D02*
X73416Y-53511D01*
X73416Y-53511D02*
X74203Y-53511D01*
X74203Y-53511D02*
X74203Y-54140D01*
X72373Y-50276D02*
X72373Y-50867D01*
X72786Y-50276D02*
X72786Y-50867D01*
X75756Y-60763D02*
X75756Y-60172D01*
X75343Y-60763D02*
X75343Y-60172D01*
X72024Y-50299D02*
X72024Y-50692D01*
X72319Y-50299D02*
X72319Y-50692D01*
X70519Y-52998D02*
X70519Y-52605D01*
X70224Y-52998D02*
X70224Y-52605D01*
X71362Y-53583D02*
X71362Y-53976D01*
X71657Y-53583D02*
X71657Y-53976D01*
X71720Y-52617D02*
X71720Y-53010D01*
X72015Y-52617D02*
X72015Y-53010D01*
X69443Y-48541D02*
X69836Y-48541D01*
X69443Y-48246D02*
X69836Y-48246D01*
X73404Y-59880D02*
X73904Y-59880D01*
X73904Y-60380D02*
X73404Y-60380D01*
X73404Y-60430D02*
X73904Y-60430D01*
X73904Y-60480D02*
X73404Y-60480D01*
X73404Y-59830D02*
X73904Y-59830D01*
X73904Y-59780D02*
X73454Y-59780D01*
X73904Y-60530D02*
X73904Y-59730D01*
X74004Y-59730D02*
X74004Y-60530D01*
X73404Y-60530D02*
X73404Y-59730D01*
X73954Y-60530D02*
X73954Y-59730D01*
X74054Y-60530D02*
X71254Y-60530D01*
X71254Y-60530D02*
X71254Y-59730D01*
X71254Y-59730D02*
X74054Y-59730D01*
X74054Y-59730D02*
X74054Y-60530D01*
X76380Y-62758D02*
X75880Y-62758D01*
X75880Y-62258D02*
X76380Y-62258D01*
X76380Y-62208D02*
X75880Y-62208D01*
X75880Y-62158D02*
X76380Y-62158D01*
X76380Y-62808D02*
X75880Y-62808D01*
X75880Y-62858D02*
X76330Y-62858D01*
X75880Y-62108D02*
X75880Y-62908D01*
X75780Y-62908D02*
X75780Y-62108D01*
X76380Y-62108D02*
X76380Y-62908D01*
X75830Y-62108D02*
X75830Y-62908D01*
X75730Y-62108D02*
X77030Y-62108D01*
X77030Y-62108D02*
X77030Y-62908D01*
X77030Y-62908D02*
X75730Y-62908D01*
X75730Y-62908D02*
X75730Y-62108D01*
X76320Y-52100D02*
X76320Y-48900D01*
X76320Y-48900D02*
X75120Y-48900D01*
X75120Y-48900D02*
X75120Y-52100D01*
X75120Y-52100D02*
X76320Y-52100D01*
G54D15*
X78406Y-57298D02*
X78806Y-57298D01*
X78806Y-57298D02*
X78806Y-56698D01*
X78806Y-56698D02*
X78406Y-56698D01*
X78406Y-58298D02*
X78406Y-55698D01*
X78406Y-55698D02*
X77206Y-55698D01*
X77206Y-55698D02*
X77206Y-58298D01*
X77206Y-58298D02*
X78406Y-58298D01*
G54D10*
X68582Y-51140D02*
X68189Y-51140D01*
X68582Y-51435D02*
X68189Y-51435D01*
X67821Y-51280D02*
X67821Y-50887D01*
X67526Y-51280D02*
X67526Y-50887D01*
X71670Y-48635D02*
X71670Y-49028D01*
X71965Y-48635D02*
X71965Y-49028D01*
X75763Y-61027D02*
G75*
G03X75763Y-61027I-111J0D01*
G74*
G01*
X75809Y-60830D02*
X75809Y-59649D01*
X75809Y-59649D02*
X76990Y-59649D01*
X76990Y-59649D02*
X76990Y-60830D01*
X76990Y-60830D02*
X75809Y-60830D01*
X68719Y-56215D02*
G75*
G03X68719Y-56215I-139J0D01*
G74*
G01*
G54D17*
X71958Y-54288D02*
X71958Y-58370D01*
X71958Y-58370D02*
X76040Y-58370D01*
X76040Y-58370D02*
X76040Y-54288D01*
X76040Y-54288D02*
X71958Y-54288D01*
G54D15*
X73770Y-48299D02*
X74322Y-48299D01*
X74322Y-48260D02*
X73770Y-48260D01*
X73751Y-48122D02*
X73751Y-48712D01*
X73751Y-48712D02*
X74341Y-48712D01*
X74341Y-48712D02*
X74341Y-48122D01*
X74341Y-48122D02*
X73751Y-48122D01*
X73751Y-48122D02*
X73751Y-48220D01*
X73751Y-48220D02*
X74341Y-48220D01*
X74341Y-48220D02*
X74341Y-48319D01*
X74341Y-48319D02*
X73751Y-48319D01*
G54D10*
X72664Y-49747D02*
X72664Y-48999D01*
X73234Y-49747D02*
X73234Y-48999D01*
X72012Y-49748D02*
X72012Y-49000D01*
X72583Y-49748D02*
X72583Y-49000D01*
X70782Y-57286D02*
X70782Y-57679D01*
X71078Y-57286D02*
X71078Y-57679D01*
X70452Y-56771D02*
X70452Y-57164D01*
X70747Y-56771D02*
X70747Y-57164D01*
X70939Y-56721D02*
X71332Y-56721D01*
X70939Y-56426D02*
X71332Y-56426D01*
X77907Y-62268D02*
G75*
G03X77907Y-62268I-78J0D01*
G74*
G01*
X77671Y-62111D02*
X77356Y-62111D01*
X77356Y-62111D02*
X77356Y-61638D01*
X77356Y-61638D02*
X77671Y-61638D01*
X77671Y-61638D02*
X77671Y-62111D01*
X70790Y-60877D02*
X70790Y-61270D01*
X71085Y-60877D02*
X71085Y-61270D01*
X71001Y-51970D02*
X71001Y-51577D01*
X70706Y-51970D02*
X70706Y-51577D01*
X71749Y-47573D02*
X72142Y-47573D01*
X71749Y-47278D02*
X72142Y-47278D01*
X78098Y-44291D02*
X78098Y-44684D01*
X78393Y-44291D02*
X78393Y-44684D01*
X77610Y-43660D02*
X77217Y-43660D01*
X77610Y-43955D02*
X77217Y-43955D01*
X76314Y-45108D02*
X75921Y-45108D01*
X76314Y-45403D02*
X75921Y-45403D01*
X71753Y-48059D02*
X72146Y-48059D01*
X71753Y-47764D02*
X72146Y-47764D01*
X67617Y-54856D02*
X67617Y-54463D01*
X67322Y-54856D02*
X67322Y-54463D01*
G54D18*
X75614Y-53574D02*
X75814Y-53874D01*
X75814Y-53574D02*
X75614Y-53874D01*
X76071Y-53574D02*
X75928Y-53574D01*
X75914Y-53717D01*
X75928Y-53703D01*
X75957Y-53688D01*
X76028Y-53688D01*
X76057Y-53703D01*
X76071Y-53717D01*
X76085Y-53745D01*
X76085Y-53817D01*
X76071Y-53845D01*
X76057Y-53860D01*
X76028Y-53874D01*
X75957Y-53874D01*
X75928Y-53860D01*
X75914Y-53845D01*
G54D19*
X70896Y-46632D02*
X70868Y-46618D01*
X70841Y-46590D01*
X70799Y-46549D01*
X70772Y-46535D01*
X70744Y-46535D01*
X70758Y-46604D02*
X70730Y-46590D01*
X70703Y-46562D01*
X70689Y-46507D01*
X70689Y-46411D01*
X70703Y-46355D01*
X70730Y-46328D01*
X70758Y-46314D01*
X70813Y-46314D01*
X70841Y-46328D01*
X70868Y-46355D01*
X70882Y-46411D01*
X70882Y-46507D01*
X70868Y-46562D01*
X70841Y-46590D01*
X70813Y-46604D01*
X70758Y-46604D01*
X70993Y-46342D02*
X71006Y-46328D01*
X71034Y-46314D01*
X71103Y-46314D01*
X71131Y-46328D01*
X71144Y-46342D01*
X71158Y-46369D01*
X71158Y-46397D01*
X71144Y-46438D01*
X70979Y-46604D01*
X71158Y-46604D01*
X72643Y-46718D02*
X72614Y-46703D01*
X72586Y-46675D01*
X72543Y-46632D01*
X72514Y-46618D01*
X72486Y-46618D01*
X72500Y-46689D02*
X72472Y-46675D01*
X72443Y-46646D01*
X72429Y-46589D01*
X72429Y-46489D01*
X72443Y-46432D01*
X72472Y-46403D01*
X72500Y-46389D01*
X72557Y-46389D01*
X72586Y-46403D01*
X72614Y-46432D01*
X72629Y-46489D01*
X72629Y-46589D01*
X72614Y-46646D01*
X72586Y-46675D01*
X72557Y-46689D01*
X72500Y-46689D01*
X72914Y-46689D02*
X72743Y-46689D01*
X72829Y-46689D02*
X72829Y-46389D01*
X72800Y-46432D01*
X72772Y-46460D01*
X72743Y-46475D01*
G54D13*
X77078Y-60445D02*
X77362Y-60445D01*
X77395Y-60429D01*
X77412Y-60412D01*
X77428Y-60379D01*
X77428Y-60312D01*
X77412Y-60279D01*
X77395Y-60262D01*
X77362Y-60245D01*
X77078Y-60245D01*
X77078Y-59929D02*
X77078Y-59995D01*
X77095Y-60029D01*
X77112Y-60045D01*
X77162Y-60079D01*
X77228Y-60095D01*
X77362Y-60095D01*
X77395Y-60079D01*
X77412Y-60062D01*
X77428Y-60029D01*
X77428Y-59962D01*
X77412Y-59929D01*
X77395Y-59912D01*
X77362Y-59895D01*
X77278Y-59895D01*
X77245Y-59912D01*
X77228Y-59929D01*
X77212Y-59962D01*
X77212Y-60029D01*
X77228Y-60062D01*
X77245Y-60079D01*
X77278Y-60095D01*
G54D18*
X77037Y-45785D02*
X77037Y-45495D01*
X77107Y-45495D01*
X77148Y-45509D01*
X77176Y-45536D01*
X77189Y-45564D01*
X77203Y-45619D01*
X77203Y-45661D01*
X77189Y-45716D01*
X77176Y-45743D01*
X77148Y-45771D01*
X77107Y-45785D01*
X77037Y-45785D01*
X77479Y-45785D02*
X77314Y-45785D01*
X77397Y-45785D02*
X77397Y-45495D01*
X77369Y-45536D01*
X77341Y-45564D01*
X77314Y-45578D01*
X75397Y-61163D02*
X75292Y-61163D01*
X75292Y-61328D02*
X75292Y-61013D01*
X75442Y-61013D01*
X75726Y-61328D02*
X75546Y-61328D01*
X75636Y-61328D02*
X75636Y-61013D01*
X75606Y-61058D01*
X75576Y-61088D01*
X75546Y-61103D01*
X78250Y-62841D02*
X78118Y-62841D01*
X78118Y-62565D01*
X78486Y-62841D02*
X78328Y-62841D01*
X78407Y-62841D02*
X78407Y-62565D01*
X78381Y-62605D01*
X78355Y-62631D01*
X78328Y-62644D01*
X77821Y-53443D02*
X77821Y-53153D01*
X77891Y-53153D01*
X77932Y-53167D01*
X77960Y-53194D01*
X77973Y-53222D01*
X77987Y-53277D01*
X77987Y-53319D01*
X77973Y-53374D01*
X77960Y-53401D01*
X77932Y-53429D01*
X77891Y-53443D01*
X77821Y-53443D01*
X78098Y-53181D02*
X78111Y-53167D01*
X78139Y-53153D01*
X78208Y-53153D01*
X78236Y-53167D01*
X78250Y-53181D01*
X78263Y-53208D01*
X78263Y-53236D01*
X78250Y-53277D01*
X78084Y-53443D01*
X78263Y-53443D01*
X72135Y-61469D02*
X71997Y-61566D01*
X72135Y-61635D02*
X71845Y-61635D01*
X71845Y-61524D01*
X71859Y-61496D01*
X71873Y-61483D01*
X71900Y-61469D01*
X71942Y-61469D01*
X71969Y-61483D01*
X71983Y-61496D01*
X71997Y-61524D01*
X71997Y-61635D01*
X72135Y-61193D02*
X72135Y-61358D01*
X72135Y-61276D02*
X71845Y-61276D01*
X71886Y-61303D01*
X71914Y-61331D01*
X71928Y-61358D01*
X70979Y-60015D02*
X70841Y-60112D01*
X70979Y-60181D02*
X70689Y-60181D01*
X70689Y-60070D01*
X70703Y-60042D01*
X70717Y-60029D01*
X70744Y-60015D01*
X70786Y-60015D01*
X70813Y-60029D01*
X70827Y-60042D01*
X70841Y-60070D01*
X70841Y-60181D01*
X70717Y-59904D02*
X70703Y-59891D01*
X70689Y-59863D01*
X70689Y-59794D01*
X70703Y-59766D01*
X70717Y-59752D01*
X70744Y-59739D01*
X70772Y-59739D01*
X70813Y-59752D01*
X70979Y-59918D01*
X70979Y-59739D01*
X77829Y-54073D02*
X77829Y-53783D01*
X77899Y-53783D01*
X77940Y-53797D01*
X77968Y-53824D01*
X77981Y-53852D01*
X77995Y-53907D01*
X77995Y-53949D01*
X77981Y-54004D01*
X77968Y-54031D01*
X77940Y-54059D01*
X77899Y-54073D01*
X77829Y-54073D01*
X78092Y-53783D02*
X78271Y-53783D01*
X78175Y-53893D01*
X78216Y-53893D01*
X78244Y-53907D01*
X78258Y-53921D01*
X78271Y-53949D01*
X78271Y-54018D01*
X78258Y-54045D01*
X78244Y-54059D01*
X78216Y-54073D01*
X78133Y-54073D01*
X78106Y-54059D01*
X78092Y-54045D01*
X77835Y-54689D02*
X77835Y-54399D01*
X77905Y-54399D01*
X77946Y-54413D01*
X77974Y-54440D01*
X77987Y-54468D01*
X78001Y-54523D01*
X78001Y-54565D01*
X77987Y-54620D01*
X77974Y-54647D01*
X77946Y-54675D01*
X77905Y-54689D01*
X77835Y-54689D01*
X78250Y-54496D02*
X78250Y-54689D01*
X78181Y-54385D02*
X78112Y-54592D01*
X78291Y-54592D01*
X73257Y-45869D02*
X73243Y-45883D01*
X73202Y-45897D01*
X73174Y-45897D01*
X73133Y-45883D01*
X73105Y-45855D01*
X73091Y-45828D01*
X73078Y-45773D01*
X73078Y-45731D01*
X73091Y-45676D01*
X73105Y-45648D01*
X73133Y-45621D01*
X73174Y-45607D01*
X73202Y-45607D01*
X73243Y-45621D01*
X73257Y-45635D01*
X73354Y-45607D02*
X73533Y-45607D01*
X73437Y-45717D01*
X73478Y-45717D01*
X73506Y-45731D01*
X73519Y-45745D01*
X73533Y-45773D01*
X73533Y-45842D01*
X73519Y-45869D01*
X73506Y-45883D01*
X73478Y-45897D01*
X73395Y-45897D01*
X73368Y-45883D01*
X73354Y-45869D01*
X73630Y-45607D02*
X73809Y-45607D01*
X73713Y-45717D01*
X73754Y-45717D01*
X73782Y-45731D01*
X73796Y-45745D01*
X73809Y-45773D01*
X73809Y-45842D01*
X73796Y-45869D01*
X73782Y-45883D01*
X73754Y-45897D01*
X73671Y-45897D01*
X73644Y-45883D01*
X73630Y-45869D01*
X69753Y-44993D02*
X69767Y-45007D01*
X69781Y-45048D01*
X69781Y-45076D01*
X69767Y-45117D01*
X69739Y-45145D01*
X69712Y-45159D01*
X69657Y-45172D01*
X69615Y-45172D01*
X69560Y-45159D01*
X69532Y-45145D01*
X69505Y-45117D01*
X69491Y-45076D01*
X69491Y-45048D01*
X69505Y-45007D01*
X69519Y-44993D01*
X69491Y-44896D02*
X69491Y-44717D01*
X69601Y-44813D01*
X69601Y-44772D01*
X69615Y-44744D01*
X69629Y-44731D01*
X69657Y-44717D01*
X69726Y-44717D01*
X69753Y-44731D01*
X69767Y-44744D01*
X69781Y-44772D01*
X69781Y-44855D01*
X69767Y-44882D01*
X69753Y-44896D01*
X69491Y-44468D02*
X69491Y-44523D01*
X69505Y-44551D01*
X69519Y-44565D01*
X69560Y-44592D01*
X69615Y-44606D01*
X69726Y-44606D01*
X69753Y-44592D01*
X69767Y-44579D01*
X69781Y-44551D01*
X69781Y-44496D01*
X69767Y-44468D01*
X69753Y-44454D01*
X69726Y-44441D01*
X69657Y-44441D01*
X69629Y-44454D01*
X69615Y-44468D01*
X69601Y-44496D01*
X69601Y-44551D01*
X69615Y-44579D01*
X69629Y-44592D01*
X69657Y-44606D01*
X71555Y-50175D02*
X71459Y-50037D01*
X71389Y-50175D02*
X71389Y-49885D01*
X71500Y-49885D01*
X71528Y-49899D01*
X71541Y-49913D01*
X71555Y-49940D01*
X71555Y-49982D01*
X71541Y-50009D01*
X71528Y-50023D01*
X71500Y-50037D01*
X71389Y-50037D01*
X71652Y-49885D02*
X71831Y-49885D01*
X71735Y-49995D01*
X71776Y-49995D01*
X71804Y-50009D01*
X71818Y-50023D01*
X71831Y-50051D01*
X71831Y-50120D01*
X71818Y-50147D01*
X71804Y-50161D01*
X71776Y-50175D01*
X71693Y-50175D01*
X71666Y-50161D01*
X71652Y-50147D01*
X76220Y-53102D02*
X76234Y-53116D01*
X76248Y-53157D01*
X76248Y-53185D01*
X76234Y-53226D01*
X76206Y-53254D01*
X76179Y-53268D01*
X76124Y-53281D01*
X76082Y-53281D01*
X76027Y-53268D01*
X75999Y-53254D01*
X75972Y-53226D01*
X75958Y-53185D01*
X75958Y-53157D01*
X75972Y-53116D01*
X75986Y-53102D01*
X75958Y-52853D02*
X75958Y-52909D01*
X75972Y-52936D01*
X75986Y-52950D01*
X76027Y-52978D01*
X76082Y-52991D01*
X76193Y-52991D01*
X76220Y-52978D01*
X76234Y-52964D01*
X76248Y-52936D01*
X76248Y-52881D01*
X76234Y-52853D01*
X76220Y-52840D01*
X76193Y-52826D01*
X76124Y-52826D01*
X76096Y-52840D01*
X76082Y-52853D01*
X76068Y-52881D01*
X76068Y-52936D01*
X76082Y-52964D01*
X76096Y-52978D01*
X76124Y-52991D01*
X75958Y-52646D02*
X75958Y-52619D01*
X75972Y-52591D01*
X75986Y-52577D01*
X76013Y-52563D01*
X76068Y-52550D01*
X76137Y-52550D01*
X76193Y-52563D01*
X76220Y-52577D01*
X76234Y-52591D01*
X76248Y-52619D01*
X76248Y-52646D01*
X76234Y-52674D01*
X76220Y-52688D01*
X76193Y-52701D01*
X76137Y-52715D01*
X76068Y-52715D01*
X76013Y-52701D01*
X75986Y-52688D01*
X75972Y-52674D01*
X75958Y-52646D01*
X71327Y-49056D02*
X71231Y-48918D01*
X71161Y-49056D02*
X71161Y-48766D01*
X71272Y-48766D01*
X71300Y-48780D01*
X71313Y-48794D01*
X71327Y-48821D01*
X71327Y-48863D01*
X71313Y-48890D01*
X71300Y-48904D01*
X71272Y-48918D01*
X71161Y-48918D01*
X71576Y-48863D02*
X71576Y-49056D01*
X71507Y-48752D02*
X71438Y-48959D01*
X71617Y-48959D01*
X74482Y-52295D02*
X74468Y-52309D01*
X74427Y-52323D01*
X74399Y-52323D01*
X74358Y-52309D01*
X74330Y-52281D01*
X74316Y-52254D01*
X74303Y-52199D01*
X74303Y-52157D01*
X74316Y-52102D01*
X74330Y-52074D01*
X74358Y-52047D01*
X74399Y-52033D01*
X74427Y-52033D01*
X74468Y-52047D01*
X74482Y-52061D01*
X74744Y-52033D02*
X74606Y-52033D01*
X74593Y-52171D01*
X74606Y-52157D01*
X74634Y-52143D01*
X74703Y-52143D01*
X74731Y-52157D01*
X74744Y-52171D01*
X74758Y-52199D01*
X74758Y-52268D01*
X74744Y-52295D01*
X74731Y-52309D01*
X74703Y-52323D01*
X74634Y-52323D01*
X74606Y-52309D01*
X74593Y-52295D01*
X74896Y-52323D02*
X74952Y-52323D01*
X74979Y-52309D01*
X74993Y-52295D01*
X75021Y-52254D01*
X75034Y-52199D01*
X75034Y-52088D01*
X75021Y-52061D01*
X75007Y-52047D01*
X74979Y-52033D01*
X74924Y-52033D01*
X74896Y-52047D01*
X74883Y-52061D01*
X74869Y-52088D01*
X74869Y-52157D01*
X74883Y-52185D01*
X74896Y-52199D01*
X74924Y-52212D01*
X74979Y-52212D01*
X75007Y-52199D01*
X75021Y-52185D01*
X75034Y-52157D01*
X70274Y-58806D02*
X70177Y-58668D01*
X70108Y-58806D02*
X70108Y-58516D01*
X70219Y-58516D01*
X70246Y-58530D01*
X70260Y-58544D01*
X70274Y-58571D01*
X70274Y-58613D01*
X70260Y-58640D01*
X70246Y-58654D01*
X70219Y-58668D01*
X70108Y-58668D01*
X70550Y-58806D02*
X70385Y-58806D01*
X70467Y-58806D02*
X70467Y-58516D01*
X70440Y-58557D01*
X70412Y-58585D01*
X70385Y-58599D01*
X70647Y-58516D02*
X70826Y-58516D01*
X70730Y-58626D01*
X70771Y-58626D01*
X70799Y-58640D01*
X70813Y-58654D01*
X70826Y-58682D01*
X70826Y-58751D01*
X70813Y-58778D01*
X70799Y-58792D01*
X70771Y-58806D01*
X70688Y-58806D01*
X70661Y-58792D01*
X70647Y-58778D01*
X70225Y-59314D02*
X70211Y-59328D01*
X70170Y-59342D01*
X70142Y-59342D01*
X70101Y-59328D01*
X70073Y-59300D01*
X70059Y-59273D01*
X70046Y-59218D01*
X70046Y-59176D01*
X70059Y-59121D01*
X70073Y-59093D01*
X70101Y-59066D01*
X70142Y-59052D01*
X70170Y-59052D01*
X70211Y-59066D01*
X70225Y-59080D01*
X70336Y-59080D02*
X70349Y-59066D01*
X70377Y-59052D01*
X70446Y-59052D01*
X70474Y-59066D01*
X70487Y-59080D01*
X70501Y-59107D01*
X70501Y-59135D01*
X70487Y-59176D01*
X70322Y-59342D01*
X70501Y-59342D01*
X70750Y-59149D02*
X70750Y-59342D01*
X70681Y-59038D02*
X70612Y-59245D01*
X70791Y-59245D01*
X69929Y-56661D02*
X69832Y-56523D01*
X69763Y-56661D02*
X69763Y-56371D01*
X69874Y-56371D01*
X69901Y-56385D01*
X69915Y-56399D01*
X69929Y-56426D01*
X69929Y-56468D01*
X69915Y-56495D01*
X69901Y-56509D01*
X69874Y-56523D01*
X69763Y-56523D01*
X70040Y-56399D02*
X70053Y-56385D01*
X70081Y-56371D01*
X70150Y-56371D01*
X70178Y-56385D01*
X70191Y-56399D01*
X70205Y-56426D01*
X70205Y-56454D01*
X70191Y-56495D01*
X70026Y-56661D01*
X70205Y-56661D01*
X70302Y-56371D02*
X70481Y-56371D01*
X70385Y-56481D01*
X70426Y-56481D01*
X70454Y-56495D01*
X70468Y-56509D01*
X70481Y-56537D01*
X70481Y-56606D01*
X70468Y-56633D01*
X70454Y-56647D01*
X70426Y-56661D01*
X70343Y-56661D01*
X70316Y-56647D01*
X70302Y-56633D01*
X73649Y-58832D02*
X73635Y-58846D01*
X73594Y-58860D01*
X73566Y-58860D01*
X73525Y-58846D01*
X73497Y-58818D01*
X73483Y-58791D01*
X73470Y-58736D01*
X73470Y-58694D01*
X73483Y-58639D01*
X73497Y-58611D01*
X73525Y-58584D01*
X73566Y-58570D01*
X73594Y-58570D01*
X73635Y-58584D01*
X73649Y-58598D01*
X73911Y-58570D02*
X73773Y-58570D01*
X73760Y-58708D01*
X73773Y-58694D01*
X73801Y-58680D01*
X73870Y-58680D01*
X73898Y-58694D01*
X73911Y-58708D01*
X73925Y-58736D01*
X73925Y-58805D01*
X73911Y-58832D01*
X73898Y-58846D01*
X73870Y-58860D01*
X73801Y-58860D01*
X73773Y-58846D01*
X73760Y-58832D01*
X74188Y-58570D02*
X74050Y-58570D01*
X74036Y-58708D01*
X74050Y-58694D01*
X74077Y-58680D01*
X74146Y-58680D01*
X74174Y-58694D01*
X74188Y-58708D01*
X74201Y-58736D01*
X74201Y-58805D01*
X74188Y-58832D01*
X74174Y-58846D01*
X74146Y-58860D01*
X74077Y-58860D01*
X74050Y-58846D01*
X74036Y-58832D01*
X76743Y-54683D02*
X76646Y-54545D01*
X76577Y-54683D02*
X76577Y-54393D01*
X76688Y-54393D01*
X76715Y-54407D01*
X76729Y-54421D01*
X76743Y-54448D01*
X76743Y-54490D01*
X76729Y-54517D01*
X76715Y-54531D01*
X76688Y-54545D01*
X76577Y-54545D01*
X76854Y-54421D02*
X76867Y-54407D01*
X76895Y-54393D01*
X76964Y-54393D01*
X76992Y-54407D01*
X77005Y-54421D01*
X77019Y-54448D01*
X77019Y-54476D01*
X77005Y-54517D01*
X76840Y-54683D01*
X77019Y-54683D01*
X77157Y-54683D02*
X77213Y-54683D01*
X77240Y-54669D01*
X77254Y-54655D01*
X77282Y-54614D01*
X77295Y-54559D01*
X77295Y-54448D01*
X77282Y-54421D01*
X77268Y-54407D01*
X77240Y-54393D01*
X77185Y-54393D01*
X77157Y-54407D01*
X77144Y-54421D01*
X77130Y-54448D01*
X77130Y-54517D01*
X77144Y-54545D01*
X77157Y-54559D01*
X77185Y-54572D01*
X77240Y-54572D01*
X77268Y-54559D01*
X77282Y-54545D01*
X77295Y-54517D01*
X76751Y-54059D02*
X76654Y-53921D01*
X76585Y-54059D02*
X76585Y-53769D01*
X76696Y-53769D01*
X76723Y-53783D01*
X76737Y-53797D01*
X76751Y-53824D01*
X76751Y-53866D01*
X76737Y-53893D01*
X76723Y-53907D01*
X76696Y-53921D01*
X76585Y-53921D01*
X76862Y-53797D02*
X76875Y-53783D01*
X76903Y-53769D01*
X76972Y-53769D01*
X77000Y-53783D01*
X77013Y-53797D01*
X77027Y-53824D01*
X77027Y-53852D01*
X77013Y-53893D01*
X76848Y-54059D01*
X77027Y-54059D01*
X77193Y-53893D02*
X77165Y-53879D01*
X77152Y-53866D01*
X77138Y-53838D01*
X77138Y-53824D01*
X77152Y-53797D01*
X77165Y-53783D01*
X77193Y-53769D01*
X77248Y-53769D01*
X77276Y-53783D01*
X77290Y-53797D01*
X77303Y-53824D01*
X77303Y-53838D01*
X77290Y-53866D01*
X77276Y-53879D01*
X77248Y-53893D01*
X77193Y-53893D01*
X77165Y-53907D01*
X77152Y-53921D01*
X77138Y-53948D01*
X77138Y-54004D01*
X77152Y-54031D01*
X77165Y-54045D01*
X77193Y-54059D01*
X77248Y-54059D01*
X77276Y-54045D01*
X77290Y-54031D01*
X77303Y-54004D01*
X77303Y-53948D01*
X77290Y-53921D01*
X77276Y-53907D01*
X77248Y-53893D01*
X76751Y-53437D02*
X76654Y-53299D01*
X76585Y-53437D02*
X76585Y-53147D01*
X76696Y-53147D01*
X76723Y-53161D01*
X76737Y-53175D01*
X76751Y-53202D01*
X76751Y-53244D01*
X76737Y-53271D01*
X76723Y-53285D01*
X76696Y-53299D01*
X76585Y-53299D01*
X76862Y-53175D02*
X76875Y-53161D01*
X76903Y-53147D01*
X76972Y-53147D01*
X77000Y-53161D01*
X77013Y-53175D01*
X77027Y-53202D01*
X77027Y-53230D01*
X77013Y-53271D01*
X76848Y-53437D01*
X77027Y-53437D01*
X77124Y-53147D02*
X77317Y-53147D01*
X77193Y-53437D01*
X70925Y-50904D02*
X70829Y-50766D01*
X70759Y-50904D02*
X70759Y-50614D01*
X70870Y-50614D01*
X70898Y-50628D01*
X70911Y-50642D01*
X70925Y-50669D01*
X70925Y-50711D01*
X70911Y-50738D01*
X70898Y-50752D01*
X70870Y-50766D01*
X70759Y-50766D01*
X71022Y-50614D02*
X71215Y-50614D01*
X71091Y-50904D01*
X69721Y-57911D02*
X69624Y-57773D01*
X69555Y-57911D02*
X69555Y-57621D01*
X69666Y-57621D01*
X69693Y-57635D01*
X69707Y-57649D01*
X69721Y-57676D01*
X69721Y-57718D01*
X69707Y-57745D01*
X69693Y-57759D01*
X69666Y-57773D01*
X69555Y-57773D01*
X69832Y-57649D02*
X69845Y-57635D01*
X69873Y-57621D01*
X69942Y-57621D01*
X69970Y-57635D01*
X69983Y-57649D01*
X69997Y-57676D01*
X69997Y-57704D01*
X69983Y-57745D01*
X69818Y-57911D01*
X69997Y-57911D01*
X70246Y-57718D02*
X70246Y-57911D01*
X70177Y-57607D02*
X70108Y-57814D01*
X70287Y-57814D01*
X75285Y-43693D02*
X75188Y-43555D01*
X75119Y-43693D02*
X75119Y-43403D01*
X75230Y-43403D01*
X75257Y-43417D01*
X75271Y-43431D01*
X75285Y-43458D01*
X75285Y-43500D01*
X75271Y-43527D01*
X75257Y-43541D01*
X75230Y-43555D01*
X75119Y-43555D01*
X75396Y-43431D02*
X75409Y-43417D01*
X75437Y-43403D01*
X75506Y-43403D01*
X75534Y-43417D01*
X75547Y-43431D01*
X75561Y-43458D01*
X75561Y-43486D01*
X75547Y-43527D01*
X75382Y-43693D01*
X75561Y-43693D01*
X75824Y-43403D02*
X75686Y-43403D01*
X75672Y-43541D01*
X75686Y-43527D01*
X75713Y-43513D01*
X75782Y-43513D01*
X75810Y-43527D01*
X75824Y-43541D01*
X75837Y-43569D01*
X75837Y-43638D01*
X75824Y-43665D01*
X75810Y-43679D01*
X75782Y-43693D01*
X75713Y-43693D01*
X75686Y-43679D01*
X75672Y-43665D01*
X76657Y-44712D02*
X76519Y-44809D01*
X76657Y-44878D02*
X76367Y-44878D01*
X76367Y-44767D01*
X76381Y-44740D01*
X76395Y-44726D01*
X76422Y-44712D01*
X76464Y-44712D01*
X76491Y-44726D01*
X76505Y-44740D01*
X76519Y-44767D01*
X76519Y-44878D01*
X76395Y-44601D02*
X76381Y-44588D01*
X76367Y-44560D01*
X76367Y-44491D01*
X76381Y-44463D01*
X76395Y-44450D01*
X76422Y-44436D01*
X76450Y-44436D01*
X76491Y-44450D01*
X76657Y-44615D01*
X76657Y-44436D01*
X76367Y-44187D02*
X76367Y-44242D01*
X76381Y-44270D01*
X76395Y-44284D01*
X76436Y-44311D01*
X76491Y-44325D01*
X76602Y-44325D01*
X76629Y-44311D01*
X76643Y-44298D01*
X76657Y-44270D01*
X76657Y-44215D01*
X76643Y-44187D01*
X76629Y-44173D01*
X76602Y-44160D01*
X76533Y-44160D01*
X76505Y-44173D01*
X76491Y-44187D01*
X76477Y-44215D01*
X76477Y-44270D01*
X76491Y-44298D01*
X76505Y-44311D01*
X76533Y-44325D01*
X73631Y-52887D02*
X73617Y-52901D01*
X73576Y-52915D01*
X73548Y-52915D01*
X73507Y-52901D01*
X73479Y-52873D01*
X73465Y-52846D01*
X73452Y-52791D01*
X73452Y-52749D01*
X73465Y-52694D01*
X73479Y-52666D01*
X73507Y-52639D01*
X73548Y-52625D01*
X73576Y-52625D01*
X73617Y-52639D01*
X73631Y-52653D01*
X73880Y-52722D02*
X73880Y-52915D01*
X73811Y-52611D02*
X73742Y-52818D01*
X73921Y-52818D01*
X74183Y-52915D02*
X74018Y-52915D01*
X74101Y-52915D02*
X74101Y-52625D01*
X74073Y-52666D01*
X74045Y-52694D01*
X74018Y-52708D01*
X72524Y-48411D02*
X72428Y-48273D01*
X72358Y-48411D02*
X72358Y-48121D01*
X72469Y-48121D01*
X72497Y-48135D01*
X72510Y-48149D01*
X72524Y-48176D01*
X72524Y-48218D01*
X72510Y-48245D01*
X72497Y-48259D01*
X72469Y-48273D01*
X72358Y-48273D01*
X72773Y-48121D02*
X72718Y-48121D01*
X72690Y-48135D01*
X72676Y-48149D01*
X72648Y-48190D01*
X72635Y-48245D01*
X72635Y-48356D01*
X72648Y-48383D01*
X72662Y-48397D01*
X72690Y-48411D01*
X72745Y-48411D01*
X72773Y-48397D01*
X72787Y-48383D01*
X72800Y-48356D01*
X72800Y-48287D01*
X72787Y-48259D01*
X72773Y-48245D01*
X72745Y-48231D01*
X72690Y-48231D01*
X72662Y-48245D01*
X72648Y-48259D01*
X72635Y-48287D01*
X78319Y-60165D02*
X78223Y-60027D01*
X78153Y-60165D02*
X78153Y-59875D01*
X78264Y-59875D01*
X78292Y-59889D01*
X78305Y-59903D01*
X78319Y-59930D01*
X78319Y-59972D01*
X78305Y-59999D01*
X78292Y-60013D01*
X78264Y-60027D01*
X78153Y-60027D01*
X78457Y-60165D02*
X78513Y-60165D01*
X78540Y-60151D01*
X78554Y-60137D01*
X78582Y-60096D01*
X78595Y-60041D01*
X78595Y-59930D01*
X78582Y-59903D01*
X78568Y-59889D01*
X78540Y-59875D01*
X78485Y-59875D01*
X78457Y-59889D01*
X78443Y-59903D01*
X78430Y-59930D01*
X78430Y-59999D01*
X78443Y-60027D01*
X78457Y-60041D01*
X78485Y-60054D01*
X78540Y-60054D01*
X78568Y-60041D01*
X78582Y-60027D01*
X78595Y-59999D01*
X77343Y-62889D02*
X77246Y-62751D01*
X77177Y-62889D02*
X77177Y-62599D01*
X77288Y-62599D01*
X77315Y-62613D01*
X77329Y-62627D01*
X77343Y-62654D01*
X77343Y-62696D01*
X77329Y-62723D01*
X77315Y-62737D01*
X77288Y-62751D01*
X77177Y-62751D01*
X77619Y-62889D02*
X77454Y-62889D01*
X77536Y-62889D02*
X77536Y-62599D01*
X77509Y-62640D01*
X77481Y-62668D01*
X77454Y-62682D01*
X77730Y-62627D02*
X77744Y-62613D01*
X77771Y-62599D01*
X77840Y-62599D01*
X77868Y-62613D01*
X77882Y-62627D01*
X77895Y-62654D01*
X77895Y-62682D01*
X77882Y-62723D01*
X77716Y-62889D01*
X77895Y-62889D01*
X76496Y-58854D02*
X76399Y-58716D01*
X76330Y-58854D02*
X76330Y-58564D01*
X76441Y-58564D01*
X76468Y-58578D01*
X76482Y-58592D01*
X76496Y-58619D01*
X76496Y-58661D01*
X76482Y-58688D01*
X76468Y-58702D01*
X76441Y-58716D01*
X76330Y-58716D01*
X76772Y-58854D02*
X76607Y-58854D01*
X76689Y-58854D02*
X76689Y-58564D01*
X76662Y-58605D01*
X76634Y-58633D01*
X76607Y-58647D01*
X77048Y-58854D02*
X76883Y-58854D01*
X76966Y-58854D02*
X76966Y-58564D01*
X76938Y-58605D01*
X76910Y-58633D01*
X76883Y-58647D01*
X72881Y-53876D02*
X72895Y-53890D01*
X72909Y-53931D01*
X72909Y-53959D01*
X72895Y-54000D01*
X72867Y-54028D01*
X72840Y-54042D01*
X72785Y-54055D01*
X72743Y-54055D01*
X72688Y-54042D01*
X72660Y-54028D01*
X72633Y-54000D01*
X72619Y-53959D01*
X72619Y-53931D01*
X72633Y-53890D01*
X72647Y-53876D01*
X72716Y-53627D02*
X72909Y-53627D01*
X72605Y-53696D02*
X72812Y-53765D01*
X72812Y-53586D01*
X72647Y-53489D02*
X72633Y-53475D01*
X72619Y-53448D01*
X72619Y-53379D01*
X72633Y-53351D01*
X72647Y-53337D01*
X72674Y-53324D01*
X72702Y-53324D01*
X72743Y-53337D01*
X72909Y-53503D01*
X72909Y-53324D01*
X68679Y-60006D02*
X68693Y-60020D01*
X68707Y-60061D01*
X68707Y-60089D01*
X68693Y-60130D01*
X68665Y-60158D01*
X68638Y-60172D01*
X68583Y-60185D01*
X68541Y-60185D01*
X68486Y-60172D01*
X68458Y-60158D01*
X68431Y-60130D01*
X68417Y-60089D01*
X68417Y-60061D01*
X68431Y-60020D01*
X68445Y-60006D01*
X68445Y-59895D02*
X68431Y-59882D01*
X68417Y-59854D01*
X68417Y-59785D01*
X68431Y-59757D01*
X68445Y-59744D01*
X68472Y-59730D01*
X68500Y-59730D01*
X68541Y-59744D01*
X68707Y-59909D01*
X68707Y-59730D01*
X68417Y-59467D02*
X68417Y-59605D01*
X68555Y-59619D01*
X68541Y-59605D01*
X68527Y-59578D01*
X68527Y-59509D01*
X68541Y-59481D01*
X68555Y-59467D01*
X68583Y-59454D01*
X68652Y-59454D01*
X68679Y-59467D01*
X68693Y-59481D01*
X68707Y-59509D01*
X68707Y-59578D01*
X68693Y-59605D01*
X68679Y-59619D01*
X72899Y-51793D02*
X72899Y-52077D01*
X72916Y-52110D01*
X72932Y-52127D01*
X72966Y-52143D01*
X73032Y-52143D01*
X73066Y-52127D01*
X73082Y-52110D01*
X73099Y-52077D01*
X73099Y-51793D01*
X73232Y-51793D02*
X73449Y-51793D01*
X73332Y-51927D01*
X73382Y-51927D01*
X73416Y-51943D01*
X73432Y-51960D01*
X73449Y-51993D01*
X73449Y-52077D01*
X73432Y-52110D01*
X73416Y-52127D01*
X73382Y-52143D01*
X73282Y-52143D01*
X73249Y-52127D01*
X73232Y-52110D01*
X76656Y-45060D02*
X76656Y-45344D01*
X76673Y-45377D01*
X76689Y-45394D01*
X76723Y-45410D01*
X76789Y-45410D01*
X76823Y-45394D01*
X76839Y-45377D01*
X76856Y-45344D01*
X76856Y-45060D01*
X77006Y-45094D02*
X77023Y-45077D01*
X77056Y-45060D01*
X77139Y-45060D01*
X77173Y-45077D01*
X77189Y-45094D01*
X77206Y-45127D01*
X77206Y-45160D01*
X77189Y-45210D01*
X76989Y-45410D01*
X77206Y-45410D01*
X74619Y-44688D02*
X74619Y-44938D01*
X74602Y-44988D01*
X74569Y-45022D01*
X74519Y-45038D01*
X74486Y-45038D01*
X74752Y-44688D02*
X74969Y-44688D01*
X74852Y-44822D01*
X74902Y-44822D01*
X74936Y-44838D01*
X74952Y-44855D01*
X74969Y-44888D01*
X74969Y-44972D01*
X74952Y-45005D01*
X74936Y-45022D01*
X74902Y-45038D01*
X74802Y-45038D01*
X74769Y-45022D01*
X74752Y-45005D01*
G54D20*
G54D18*
X69429Y-46465D02*
X69429Y-46749D01*
X69446Y-46782D01*
X69462Y-46799D01*
X69496Y-46815D01*
X69562Y-46815D01*
X69596Y-46799D01*
X69612Y-46782D01*
X69629Y-46749D01*
X69629Y-46465D01*
X69946Y-46582D02*
X69946Y-46815D01*
X69862Y-46449D02*
X69779Y-46699D01*
X69996Y-46699D01*
X76613Y-51458D02*
X76613Y-51168D01*
X76724Y-51168D01*
X76752Y-51182D01*
X76765Y-51196D01*
X76779Y-51223D01*
X76779Y-51265D01*
X76765Y-51292D01*
X76752Y-51306D01*
X76724Y-51320D01*
X76613Y-51320D01*
X77000Y-51306D02*
X77042Y-51320D01*
X77055Y-51334D01*
X77069Y-51361D01*
X77069Y-51403D01*
X77055Y-51430D01*
X77042Y-51444D01*
X77014Y-51458D01*
X76903Y-51458D01*
X76903Y-51168D01*
X77000Y-51168D01*
X77028Y-51182D01*
X77042Y-51196D01*
X77055Y-51223D01*
X77055Y-51251D01*
X77042Y-51278D01*
X77028Y-51292D01*
X77000Y-51306D01*
X76903Y-51306D01*
X77332Y-51168D02*
X77193Y-51168D01*
X77180Y-51306D01*
X77193Y-51292D01*
X77221Y-51278D01*
X77290Y-51278D01*
X77318Y-51292D01*
X77332Y-51306D01*
X77345Y-51334D01*
X77345Y-51403D01*
X77332Y-51430D01*
X77318Y-51444D01*
X77290Y-51458D01*
X77221Y-51458D01*
X77193Y-51444D01*
X77180Y-51430D01*
X71460Y-62215D02*
X71460Y-62465D01*
X71443Y-62515D01*
X71410Y-62549D01*
X71360Y-62565D01*
X71327Y-62565D01*
X71810Y-62565D02*
X71610Y-62565D01*
X71710Y-62565D02*
X71710Y-62215D01*
X71677Y-62265D01*
X71643Y-62299D01*
X71610Y-62315D01*
X67770Y-45797D02*
X67770Y-45507D01*
X67881Y-45507D01*
X67909Y-45521D01*
X67922Y-45535D01*
X67936Y-45562D01*
X67936Y-45604D01*
X67922Y-45631D01*
X67909Y-45645D01*
X67881Y-45659D01*
X67770Y-45659D01*
X68157Y-45645D02*
X68199Y-45659D01*
X68212Y-45673D01*
X68226Y-45700D01*
X68226Y-45742D01*
X68212Y-45769D01*
X68199Y-45783D01*
X68171Y-45797D01*
X68060Y-45797D01*
X68060Y-45507D01*
X68157Y-45507D01*
X68185Y-45521D01*
X68199Y-45535D01*
X68212Y-45562D01*
X68212Y-45590D01*
X68199Y-45617D01*
X68185Y-45631D01*
X68157Y-45645D01*
X68060Y-45645D01*
X68502Y-45797D02*
X68337Y-45797D01*
X68420Y-45797D02*
X68420Y-45507D01*
X68392Y-45548D01*
X68364Y-45576D01*
X68337Y-45590D01*
X67726Y-48193D02*
X67726Y-47903D01*
X67837Y-47903D01*
X67865Y-47917D01*
X67878Y-47931D01*
X67892Y-47958D01*
X67892Y-48000D01*
X67878Y-48027D01*
X67865Y-48041D01*
X67837Y-48055D01*
X67726Y-48055D01*
X68113Y-48041D02*
X68155Y-48055D01*
X68168Y-48069D01*
X68182Y-48096D01*
X68182Y-48138D01*
X68168Y-48165D01*
X68155Y-48179D01*
X68127Y-48193D01*
X68016Y-48193D01*
X68016Y-47903D01*
X68113Y-47903D01*
X68141Y-47917D01*
X68155Y-47931D01*
X68168Y-47958D01*
X68168Y-47986D01*
X68155Y-48013D01*
X68141Y-48027D01*
X68113Y-48041D01*
X68016Y-48041D01*
X68293Y-47931D02*
X68306Y-47917D01*
X68334Y-47903D01*
X68403Y-47903D01*
X68431Y-47917D01*
X68445Y-47931D01*
X68458Y-47958D01*
X68458Y-47986D01*
X68445Y-48027D01*
X68279Y-48193D01*
X68458Y-48193D01*
X67720Y-48617D02*
X67720Y-48327D01*
X67831Y-48327D01*
X67859Y-48341D01*
X67872Y-48355D01*
X67886Y-48382D01*
X67886Y-48424D01*
X67872Y-48451D01*
X67859Y-48465D01*
X67831Y-48479D01*
X67720Y-48479D01*
X68107Y-48465D02*
X68149Y-48479D01*
X68162Y-48493D01*
X68176Y-48520D01*
X68176Y-48562D01*
X68162Y-48589D01*
X68149Y-48603D01*
X68121Y-48617D01*
X68010Y-48617D01*
X68010Y-48327D01*
X68107Y-48327D01*
X68135Y-48341D01*
X68149Y-48355D01*
X68162Y-48382D01*
X68162Y-48410D01*
X68149Y-48437D01*
X68135Y-48451D01*
X68107Y-48465D01*
X68010Y-48465D01*
X68273Y-48327D02*
X68452Y-48327D01*
X68356Y-48437D01*
X68397Y-48437D01*
X68425Y-48451D01*
X68439Y-48465D01*
X68452Y-48493D01*
X68452Y-48562D01*
X68439Y-48589D01*
X68425Y-48603D01*
X68397Y-48617D01*
X68314Y-48617D01*
X68287Y-48603D01*
X68273Y-48589D01*
X67396Y-56493D02*
X67396Y-56203D01*
X67507Y-56203D01*
X67535Y-56217D01*
X67548Y-56231D01*
X67562Y-56258D01*
X67562Y-56300D01*
X67548Y-56327D01*
X67535Y-56341D01*
X67507Y-56355D01*
X67396Y-56355D01*
X67783Y-56341D02*
X67825Y-56355D01*
X67838Y-56369D01*
X67852Y-56396D01*
X67852Y-56438D01*
X67838Y-56465D01*
X67825Y-56479D01*
X67797Y-56493D01*
X67686Y-56493D01*
X67686Y-56203D01*
X67783Y-56203D01*
X67811Y-56217D01*
X67825Y-56231D01*
X67838Y-56258D01*
X67838Y-56286D01*
X67825Y-56313D01*
X67811Y-56327D01*
X67783Y-56341D01*
X67686Y-56341D01*
X68101Y-56300D02*
X68101Y-56493D01*
X68032Y-56189D02*
X67963Y-56396D01*
X68142Y-56396D01*
X77673Y-48519D02*
X77659Y-48533D01*
X77618Y-48547D01*
X77590Y-48547D01*
X77549Y-48533D01*
X77521Y-48505D01*
X77507Y-48478D01*
X77494Y-48423D01*
X77494Y-48381D01*
X77507Y-48326D01*
X77521Y-48298D01*
X77549Y-48271D01*
X77590Y-48257D01*
X77618Y-48257D01*
X77659Y-48271D01*
X77673Y-48285D01*
X77922Y-48354D02*
X77922Y-48547D01*
X77853Y-48243D02*
X77784Y-48450D01*
X77963Y-48450D01*
X78129Y-48257D02*
X78156Y-48257D01*
X78184Y-48271D01*
X78198Y-48285D01*
X78212Y-48312D01*
X78225Y-48367D01*
X78225Y-48436D01*
X78212Y-48492D01*
X78198Y-48519D01*
X78184Y-48533D01*
X78156Y-48547D01*
X78129Y-48547D01*
X78101Y-48533D01*
X78087Y-48519D01*
X78074Y-48492D01*
X78060Y-48436D01*
X78060Y-48367D01*
X78074Y-48312D01*
X78087Y-48285D01*
X78101Y-48271D01*
X78129Y-48257D01*
X68074Y-62329D02*
X68074Y-62613D01*
X68091Y-62646D01*
X68107Y-62663D01*
X68141Y-62679D01*
X68207Y-62679D01*
X68241Y-62663D01*
X68257Y-62646D01*
X68274Y-62613D01*
X68274Y-62329D01*
X68457Y-62679D02*
X68524Y-62679D01*
X68557Y-62663D01*
X68574Y-62646D01*
X68607Y-62596D01*
X68624Y-62529D01*
X68624Y-62396D01*
X68607Y-62363D01*
X68591Y-62346D01*
X68557Y-62329D01*
X68491Y-62329D01*
X68457Y-62346D01*
X68441Y-62363D01*
X68424Y-62396D01*
X68424Y-62479D01*
X68441Y-62513D01*
X68457Y-62529D01*
X68491Y-62546D01*
X68557Y-62546D01*
X68591Y-62529D01*
X68607Y-62513D01*
X68624Y-62479D01*
X70001Y-50623D02*
X70001Y-50907D01*
X70018Y-50940D01*
X70034Y-50957D01*
X70068Y-50973D01*
X70134Y-50973D01*
X70168Y-50957D01*
X70184Y-50940D01*
X70201Y-50907D01*
X70201Y-50623D01*
X70534Y-50623D02*
X70368Y-50623D01*
X70351Y-50790D01*
X70368Y-50773D01*
X70401Y-50757D01*
X70484Y-50757D01*
X70518Y-50773D01*
X70534Y-50790D01*
X70551Y-50823D01*
X70551Y-50907D01*
X70534Y-50940D01*
X70518Y-50957D01*
X70484Y-50973D01*
X70401Y-50973D01*
X70368Y-50957D01*
X70351Y-50940D01*
X69405Y-52707D02*
X69419Y-52665D01*
X69433Y-52652D01*
X69460Y-52638D01*
X69502Y-52638D01*
X69529Y-52652D01*
X69543Y-52665D01*
X69557Y-52693D01*
X69557Y-52804D01*
X69267Y-52804D01*
X69267Y-52707D01*
X69281Y-52679D01*
X69295Y-52665D01*
X69322Y-52652D01*
X69350Y-52652D01*
X69377Y-52665D01*
X69391Y-52679D01*
X69405Y-52707D01*
X69405Y-52804D01*
X69295Y-52527D02*
X69281Y-52514D01*
X69267Y-52486D01*
X69267Y-52417D01*
X69281Y-52389D01*
X69295Y-52375D01*
X69322Y-52362D01*
X69350Y-52362D01*
X69391Y-52375D01*
X69557Y-52541D01*
X69557Y-52362D01*
X70063Y-59507D02*
X70263Y-59807D01*
X70263Y-59507D02*
X70063Y-59807D01*
X70534Y-59807D02*
X70363Y-59807D01*
X70448Y-59807D02*
X70448Y-59507D01*
X70420Y-59550D01*
X70391Y-59578D01*
X70363Y-59593D01*
X68342Y-61054D02*
X68384Y-61068D01*
X68397Y-61082D01*
X68411Y-61109D01*
X68411Y-61151D01*
X68397Y-61178D01*
X68384Y-61192D01*
X68356Y-61206D01*
X68245Y-61206D01*
X68245Y-60916D01*
X68342Y-60916D01*
X68370Y-60930D01*
X68384Y-60944D01*
X68397Y-60971D01*
X68397Y-60999D01*
X68384Y-61026D01*
X68370Y-61040D01*
X68342Y-61054D01*
X68245Y-61054D01*
X68687Y-61206D02*
X68522Y-61206D01*
X68605Y-61206D02*
X68605Y-60916D01*
X68577Y-60957D01*
X68549Y-60985D01*
X68522Y-60999D01*
X71829Y-53407D02*
X72029Y-53707D01*
X72029Y-53407D02*
X71829Y-53707D01*
X72114Y-53407D02*
X72300Y-53407D01*
X72200Y-53521D01*
X72243Y-53521D01*
X72272Y-53536D01*
X72286Y-53550D01*
X72300Y-53578D01*
X72300Y-53650D01*
X72286Y-53678D01*
X72272Y-53693D01*
X72243Y-53707D01*
X72157Y-53707D01*
X72129Y-53693D01*
X72114Y-53678D01*
X74340Y-53677D02*
X74540Y-53977D01*
X74540Y-53677D02*
X74340Y-53977D01*
X74783Y-53777D02*
X74783Y-53977D01*
X74711Y-53663D02*
X74640Y-53877D01*
X74825Y-53877D01*
X68151Y-54861D02*
X68151Y-54654D01*
X68275Y-54902D02*
X67842Y-54758D01*
X68275Y-54613D01*
X68275Y-54469D02*
X67842Y-54469D01*
X68275Y-54221D01*
X67842Y-54221D01*
X67842Y-54077D02*
X67842Y-53830D01*
X68275Y-53953D02*
X67842Y-53953D01*
X67883Y-53706D02*
X67862Y-53685D01*
X67842Y-53644D01*
X67842Y-53541D01*
X67862Y-53500D01*
X67883Y-53479D01*
X67924Y-53458D01*
X67965Y-53458D01*
X68027Y-53479D01*
X68275Y-53726D01*
X68275Y-53458D01*
X73138Y-50955D02*
X73152Y-50969D01*
X73166Y-51010D01*
X73166Y-51038D01*
X73152Y-51079D01*
X73124Y-51107D01*
X73097Y-51121D01*
X73042Y-51134D01*
X73000Y-51134D01*
X72945Y-51121D01*
X72917Y-51107D01*
X72890Y-51079D01*
X72876Y-51038D01*
X72876Y-51010D01*
X72890Y-50969D01*
X72904Y-50955D01*
X73166Y-50679D02*
X73166Y-50844D01*
X73166Y-50762D02*
X72876Y-50762D01*
X72917Y-50789D01*
X72945Y-50817D01*
X72959Y-50844D01*
X72973Y-50430D02*
X73166Y-50430D01*
X72862Y-50499D02*
X73069Y-50568D01*
X73069Y-50389D01*
X75127Y-60654D02*
X75141Y-60668D01*
X75155Y-60709D01*
X75155Y-60737D01*
X75141Y-60778D01*
X75114Y-60806D01*
X75086Y-60820D01*
X75031Y-60833D01*
X74989Y-60833D01*
X74934Y-60820D01*
X74906Y-60806D01*
X74879Y-60778D01*
X74865Y-60737D01*
X74865Y-60709D01*
X74879Y-60668D01*
X74893Y-60654D01*
X74893Y-60543D02*
X74879Y-60530D01*
X74865Y-60502D01*
X74865Y-60433D01*
X74879Y-60405D01*
X74893Y-60392D01*
X74920Y-60378D01*
X74948Y-60378D01*
X74989Y-60392D01*
X75155Y-60557D01*
X75155Y-60378D01*
X75155Y-60102D02*
X75155Y-60267D01*
X75155Y-60184D02*
X74865Y-60184D01*
X74906Y-60212D01*
X74934Y-60240D01*
X74948Y-60267D01*
X71639Y-50894D02*
X71625Y-50908D01*
X71584Y-50922D01*
X71556Y-50922D01*
X71515Y-50908D01*
X71487Y-50880D01*
X71473Y-50853D01*
X71460Y-50798D01*
X71460Y-50756D01*
X71473Y-50701D01*
X71487Y-50673D01*
X71515Y-50646D01*
X71556Y-50632D01*
X71584Y-50632D01*
X71625Y-50646D01*
X71639Y-50660D01*
X71888Y-50632D02*
X71833Y-50632D01*
X71805Y-50646D01*
X71791Y-50660D01*
X71763Y-50701D01*
X71750Y-50756D01*
X71750Y-50867D01*
X71763Y-50894D01*
X71777Y-50908D01*
X71805Y-50922D01*
X71860Y-50922D01*
X71888Y-50908D01*
X71902Y-50894D01*
X71915Y-50867D01*
X71915Y-50798D01*
X71902Y-50770D01*
X71888Y-50756D01*
X71860Y-50742D01*
X71805Y-50742D01*
X71777Y-50756D01*
X71763Y-50770D01*
X71750Y-50798D01*
X70099Y-52976D02*
X70113Y-52990D01*
X70127Y-53031D01*
X70127Y-53059D01*
X70113Y-53100D01*
X70085Y-53128D01*
X70058Y-53142D01*
X70003Y-53155D01*
X69961Y-53155D01*
X69906Y-53142D01*
X69878Y-53128D01*
X69851Y-53100D01*
X69837Y-53059D01*
X69837Y-53031D01*
X69851Y-52990D01*
X69865Y-52976D01*
X69837Y-52879D02*
X69837Y-52700D01*
X69947Y-52796D01*
X69947Y-52755D01*
X69961Y-52727D01*
X69975Y-52714D01*
X70003Y-52700D01*
X70072Y-52700D01*
X70099Y-52714D01*
X70113Y-52727D01*
X70127Y-52755D01*
X70127Y-52838D01*
X70113Y-52865D01*
X70099Y-52879D01*
X70127Y-52424D02*
X70127Y-52589D01*
X70127Y-52506D02*
X69837Y-52506D01*
X69878Y-52534D01*
X69906Y-52562D01*
X69920Y-52589D01*
X71721Y-54962D02*
X71735Y-54976D01*
X71749Y-55017D01*
X71749Y-55045D01*
X71735Y-55086D01*
X71707Y-55114D01*
X71680Y-55128D01*
X71625Y-55141D01*
X71583Y-55141D01*
X71528Y-55128D01*
X71500Y-55114D01*
X71473Y-55086D01*
X71459Y-55045D01*
X71459Y-55017D01*
X71473Y-54976D01*
X71487Y-54962D01*
X71459Y-54865D02*
X71459Y-54686D01*
X71569Y-54782D01*
X71569Y-54741D01*
X71583Y-54713D01*
X71597Y-54700D01*
X71625Y-54686D01*
X71694Y-54686D01*
X71721Y-54700D01*
X71735Y-54713D01*
X71749Y-54741D01*
X71749Y-54824D01*
X71735Y-54851D01*
X71721Y-54865D01*
X71459Y-54506D02*
X71459Y-54479D01*
X71473Y-54451D01*
X71487Y-54437D01*
X71514Y-54423D01*
X71569Y-54410D01*
X71638Y-54410D01*
X71694Y-54423D01*
X71721Y-54437D01*
X71735Y-54451D01*
X71749Y-54479D01*
X71749Y-54506D01*
X71735Y-54534D01*
X71721Y-54548D01*
X71694Y-54561D01*
X71638Y-54575D01*
X71569Y-54575D01*
X71514Y-54561D01*
X71487Y-54548D01*
X71473Y-54534D01*
X71459Y-54506D01*
X72431Y-52891D02*
X72417Y-52905D01*
X72376Y-52919D01*
X72348Y-52919D01*
X72307Y-52905D01*
X72279Y-52877D01*
X72265Y-52850D01*
X72252Y-52795D01*
X72252Y-52753D01*
X72265Y-52698D01*
X72279Y-52670D01*
X72307Y-52643D01*
X72348Y-52629D01*
X72376Y-52629D01*
X72417Y-52643D01*
X72431Y-52657D01*
X72528Y-52629D02*
X72707Y-52629D01*
X72611Y-52739D01*
X72652Y-52739D01*
X72680Y-52753D01*
X72693Y-52767D01*
X72707Y-52795D01*
X72707Y-52864D01*
X72693Y-52891D01*
X72680Y-52905D01*
X72652Y-52919D01*
X72569Y-52919D01*
X72542Y-52905D01*
X72528Y-52891D01*
X72818Y-52657D02*
X72832Y-52643D01*
X72859Y-52629D01*
X72928Y-52629D01*
X72956Y-52643D01*
X72970Y-52657D01*
X72983Y-52684D01*
X72983Y-52712D01*
X72970Y-52753D01*
X72804Y-52919D01*
X72983Y-52919D01*
X69628Y-47814D02*
X69642Y-47828D01*
X69656Y-47869D01*
X69656Y-47897D01*
X69642Y-47938D01*
X69614Y-47966D01*
X69587Y-47980D01*
X69532Y-47993D01*
X69490Y-47993D01*
X69435Y-47980D01*
X69407Y-47966D01*
X69380Y-47938D01*
X69366Y-47897D01*
X69366Y-47869D01*
X69380Y-47828D01*
X69394Y-47814D01*
X69656Y-47538D02*
X69656Y-47703D01*
X69656Y-47621D02*
X69366Y-47621D01*
X69407Y-47648D01*
X69435Y-47676D01*
X69449Y-47703D01*
X69656Y-47400D02*
X69656Y-47344D01*
X69642Y-47317D01*
X69628Y-47303D01*
X69587Y-47275D01*
X69532Y-47262D01*
X69421Y-47262D01*
X69394Y-47275D01*
X69380Y-47289D01*
X69366Y-47317D01*
X69366Y-47372D01*
X69380Y-47400D01*
X69394Y-47413D01*
X69421Y-47427D01*
X69490Y-47427D01*
X69518Y-47413D01*
X69532Y-47400D01*
X69545Y-47372D01*
X69545Y-47317D01*
X69532Y-47289D01*
X69518Y-47275D01*
X69490Y-47262D01*
X72633Y-59211D02*
X72633Y-59461D01*
X72616Y-59511D01*
X72583Y-59545D01*
X72533Y-59561D01*
X72500Y-59561D01*
X72966Y-59211D02*
X72800Y-59211D01*
X72783Y-59378D01*
X72800Y-59361D01*
X72833Y-59345D01*
X72916Y-59345D01*
X72950Y-59361D01*
X72966Y-59378D01*
X72983Y-59411D01*
X72983Y-59495D01*
X72966Y-59528D01*
X72950Y-59545D01*
X72916Y-59561D01*
X72833Y-59561D01*
X72800Y-59545D01*
X72783Y-59528D01*
X75343Y-62606D02*
X75593Y-62606D01*
X75643Y-62623D01*
X75677Y-62656D01*
X75693Y-62706D01*
X75693Y-62740D01*
X75377Y-62456D02*
X75360Y-62440D01*
X75343Y-62406D01*
X75343Y-62323D01*
X75360Y-62290D01*
X75377Y-62273D01*
X75410Y-62256D01*
X75443Y-62256D01*
X75493Y-62273D01*
X75693Y-62473D01*
X75693Y-62256D01*
X75008Y-48416D02*
X75008Y-48666D01*
X74991Y-48716D01*
X74958Y-48750D01*
X74908Y-48766D01*
X74875Y-48766D01*
X75325Y-48416D02*
X75258Y-48416D01*
X75225Y-48433D01*
X75208Y-48450D01*
X75175Y-48500D01*
X75158Y-48566D01*
X75158Y-48700D01*
X75175Y-48733D01*
X75191Y-48750D01*
X75225Y-48766D01*
X75291Y-48766D01*
X75325Y-48750D01*
X75341Y-48733D01*
X75358Y-48700D01*
X75358Y-48616D01*
X75341Y-48583D01*
X75325Y-48566D01*
X75291Y-48550D01*
X75225Y-48550D01*
X75191Y-48566D01*
X75175Y-48583D01*
X75158Y-48616D01*
X76792Y-55315D02*
X76792Y-55565D01*
X76775Y-55615D01*
X76742Y-55649D01*
X76692Y-55665D01*
X76659Y-55665D01*
X77109Y-55432D02*
X77109Y-55665D01*
X77025Y-55299D02*
X76942Y-55549D01*
X77159Y-55549D01*
X68187Y-50993D02*
X68173Y-51007D01*
X68132Y-51021D01*
X68104Y-51021D01*
X68063Y-51007D01*
X68035Y-50979D01*
X68021Y-50952D01*
X68008Y-50897D01*
X68008Y-50855D01*
X68021Y-50800D01*
X68035Y-50772D01*
X68063Y-50745D01*
X68104Y-50731D01*
X68132Y-50731D01*
X68173Y-50745D01*
X68187Y-50759D01*
X68436Y-50731D02*
X68380Y-50731D01*
X68353Y-50745D01*
X68339Y-50759D01*
X68311Y-50800D01*
X68298Y-50855D01*
X68298Y-50966D01*
X68311Y-50993D01*
X68325Y-51007D01*
X68353Y-51021D01*
X68408Y-51021D01*
X68436Y-51007D01*
X68449Y-50993D01*
X68463Y-50966D01*
X68463Y-50897D01*
X68449Y-50869D01*
X68436Y-50855D01*
X68408Y-50841D01*
X68353Y-50841D01*
X68325Y-50855D01*
X68311Y-50869D01*
X68298Y-50897D01*
X68726Y-50731D02*
X68588Y-50731D01*
X68574Y-50869D01*
X68588Y-50855D01*
X68615Y-50841D01*
X68684Y-50841D01*
X68712Y-50855D01*
X68726Y-50869D01*
X68739Y-50897D01*
X68739Y-50966D01*
X68726Y-50993D01*
X68712Y-51007D01*
X68684Y-51021D01*
X68615Y-51021D01*
X68588Y-51007D01*
X68574Y-50993D01*
X67405Y-51558D02*
X67419Y-51572D01*
X67433Y-51613D01*
X67433Y-51641D01*
X67419Y-51682D01*
X67391Y-51710D01*
X67364Y-51724D01*
X67309Y-51737D01*
X67267Y-51737D01*
X67212Y-51724D01*
X67184Y-51710D01*
X67157Y-51682D01*
X67143Y-51641D01*
X67143Y-51613D01*
X67157Y-51572D01*
X67171Y-51558D01*
X67143Y-51309D02*
X67143Y-51365D01*
X67157Y-51392D01*
X67171Y-51406D01*
X67212Y-51434D01*
X67267Y-51447D01*
X67378Y-51447D01*
X67405Y-51434D01*
X67419Y-51420D01*
X67433Y-51392D01*
X67433Y-51337D01*
X67419Y-51309D01*
X67405Y-51296D01*
X67378Y-51282D01*
X67309Y-51282D01*
X67281Y-51296D01*
X67267Y-51309D01*
X67253Y-51337D01*
X67253Y-51392D01*
X67267Y-51420D01*
X67281Y-51434D01*
X67309Y-51447D01*
X67143Y-51033D02*
X67143Y-51088D01*
X67157Y-51116D01*
X67171Y-51130D01*
X67212Y-51157D01*
X67267Y-51171D01*
X67378Y-51171D01*
X67405Y-51157D01*
X67419Y-51144D01*
X67433Y-51116D01*
X67433Y-51061D01*
X67419Y-51033D01*
X67405Y-51019D01*
X67378Y-51006D01*
X67309Y-51006D01*
X67281Y-51019D01*
X67267Y-51033D01*
X67253Y-51061D01*
X67253Y-51116D01*
X67267Y-51144D01*
X67281Y-51157D01*
X67309Y-51171D01*
X70946Y-48705D02*
X70849Y-48567D01*
X70780Y-48705D02*
X70780Y-48415D01*
X70891Y-48415D01*
X70918Y-48429D01*
X70932Y-48443D01*
X70946Y-48470D01*
X70946Y-48512D01*
X70932Y-48539D01*
X70918Y-48553D01*
X70891Y-48567D01*
X70780Y-48567D01*
X71043Y-48415D02*
X71222Y-48415D01*
X71126Y-48525D01*
X71167Y-48525D01*
X71195Y-48539D01*
X71208Y-48553D01*
X71222Y-48581D01*
X71222Y-48650D01*
X71208Y-48677D01*
X71195Y-48691D01*
X71167Y-48705D01*
X71084Y-48705D01*
X71057Y-48691D01*
X71043Y-48677D01*
X71471Y-48415D02*
X71416Y-48415D01*
X71388Y-48429D01*
X71374Y-48443D01*
X71347Y-48484D01*
X71333Y-48539D01*
X71333Y-48650D01*
X71347Y-48677D01*
X71360Y-48691D01*
X71388Y-48705D01*
X71443Y-48705D01*
X71471Y-48691D01*
X71485Y-48677D01*
X71498Y-48650D01*
X71498Y-48581D01*
X71485Y-48553D01*
X71471Y-48539D01*
X71443Y-48525D01*
X71388Y-48525D01*
X71360Y-48539D01*
X71347Y-48553D01*
X71333Y-48581D01*
X75099Y-59236D02*
X75099Y-59520D01*
X75116Y-59553D01*
X75132Y-59570D01*
X75166Y-59586D01*
X75232Y-59586D01*
X75266Y-59570D01*
X75282Y-59553D01*
X75299Y-59520D01*
X75299Y-59236D01*
X75432Y-59236D02*
X75666Y-59236D01*
X75516Y-59586D01*
X71331Y-56524D02*
X71615Y-56524D01*
X71648Y-56507D01*
X71665Y-56491D01*
X71681Y-56457D01*
X71681Y-56391D01*
X71665Y-56357D01*
X71648Y-56341D01*
X71615Y-56324D01*
X71331Y-56324D01*
X71681Y-55974D02*
X71681Y-56174D01*
X71681Y-56074D02*
X71331Y-56074D01*
X71381Y-56107D01*
X71415Y-56141D01*
X71431Y-56174D01*
X71331Y-55757D02*
X71331Y-55724D01*
X71348Y-55691D01*
X71365Y-55674D01*
X71398Y-55657D01*
X71465Y-55641D01*
X71548Y-55641D01*
X71615Y-55657D01*
X71648Y-55674D01*
X71665Y-55691D01*
X71681Y-55724D01*
X71681Y-55757D01*
X71665Y-55791D01*
X71648Y-55807D01*
X71615Y-55824D01*
X71548Y-55841D01*
X71465Y-55841D01*
X71398Y-55824D01*
X71365Y-55807D01*
X71348Y-55791D01*
X71331Y-55757D01*
X74719Y-58474D02*
X74719Y-58758D01*
X74736Y-58791D01*
X74753Y-58808D01*
X74786Y-58824D01*
X74853Y-58824D01*
X74886Y-58808D01*
X74903Y-58791D01*
X74919Y-58758D01*
X74919Y-58474D01*
X75269Y-58824D02*
X75069Y-58824D01*
X75169Y-58824D02*
X75169Y-58474D01*
X75136Y-58524D01*
X75103Y-58558D01*
X75069Y-58574D01*
X75603Y-58824D02*
X75403Y-58824D01*
X75503Y-58824D02*
X75503Y-58474D01*
X75469Y-58524D01*
X75436Y-58558D01*
X75403Y-58574D01*
X74308Y-49140D02*
X74308Y-48850D01*
X74378Y-48850D01*
X74419Y-48864D01*
X74447Y-48891D01*
X74460Y-48919D01*
X74474Y-48974D01*
X74474Y-49016D01*
X74460Y-49071D01*
X74447Y-49098D01*
X74419Y-49126D01*
X74378Y-49140D01*
X74308Y-49140D01*
X74737Y-48850D02*
X74598Y-48850D01*
X74585Y-48988D01*
X74598Y-48974D01*
X74626Y-48960D01*
X74695Y-48960D01*
X74723Y-48974D01*
X74737Y-48988D01*
X74750Y-49016D01*
X74750Y-49085D01*
X74737Y-49112D01*
X74723Y-49126D01*
X74695Y-49140D01*
X74626Y-49140D01*
X74598Y-49126D01*
X74585Y-49112D01*
X73750Y-49627D02*
X73764Y-49641D01*
X73778Y-49682D01*
X73778Y-49710D01*
X73764Y-49751D01*
X73736Y-49779D01*
X73709Y-49793D01*
X73654Y-49806D01*
X73612Y-49806D01*
X73557Y-49793D01*
X73529Y-49779D01*
X73502Y-49751D01*
X73488Y-49710D01*
X73488Y-49682D01*
X73502Y-49641D01*
X73516Y-49627D01*
X73488Y-49530D02*
X73488Y-49337D01*
X73778Y-49461D01*
X73488Y-49171D02*
X73488Y-49144D01*
X73502Y-49116D01*
X73516Y-49102D01*
X73543Y-49088D01*
X73598Y-49075D01*
X73667Y-49075D01*
X73723Y-49088D01*
X73750Y-49102D01*
X73764Y-49116D01*
X73778Y-49144D01*
X73778Y-49171D01*
X73764Y-49199D01*
X73750Y-49213D01*
X73723Y-49226D01*
X73667Y-49240D01*
X73598Y-49240D01*
X73543Y-49226D01*
X73516Y-49213D01*
X73502Y-49199D01*
X73488Y-49171D01*
X72389Y-48761D02*
X72375Y-48775D01*
X72334Y-48789D01*
X72306Y-48789D01*
X72265Y-48775D01*
X72237Y-48747D01*
X72223Y-48720D01*
X72210Y-48665D01*
X72210Y-48623D01*
X72223Y-48568D01*
X72237Y-48540D01*
X72265Y-48513D01*
X72306Y-48499D01*
X72334Y-48499D01*
X72375Y-48513D01*
X72389Y-48527D01*
X72638Y-48499D02*
X72582Y-48499D01*
X72555Y-48513D01*
X72541Y-48527D01*
X72513Y-48568D01*
X72500Y-48623D01*
X72500Y-48734D01*
X72513Y-48761D01*
X72527Y-48775D01*
X72555Y-48789D01*
X72610Y-48789D01*
X72638Y-48775D01*
X72651Y-48761D01*
X72665Y-48734D01*
X72665Y-48665D01*
X72651Y-48637D01*
X72638Y-48623D01*
X72610Y-48609D01*
X72555Y-48609D01*
X72527Y-48623D01*
X72513Y-48637D01*
X72500Y-48665D01*
X72803Y-48789D02*
X72859Y-48789D01*
X72886Y-48775D01*
X72900Y-48761D01*
X72928Y-48720D01*
X72941Y-48665D01*
X72941Y-48554D01*
X72928Y-48527D01*
X72914Y-48513D01*
X72886Y-48499D01*
X72831Y-48499D01*
X72803Y-48513D01*
X72790Y-48527D01*
X72776Y-48554D01*
X72776Y-48623D01*
X72790Y-48651D01*
X72803Y-48665D01*
X72831Y-48678D01*
X72886Y-48678D01*
X72914Y-48665D01*
X72928Y-48651D01*
X72941Y-48623D01*
X71008Y-58203D02*
X70911Y-58065D01*
X70842Y-58203D02*
X70842Y-57913D01*
X70953Y-57913D01*
X70980Y-57927D01*
X70994Y-57941D01*
X71008Y-57968D01*
X71008Y-58010D01*
X70994Y-58037D01*
X70980Y-58051D01*
X70953Y-58065D01*
X70842Y-58065D01*
X71105Y-57913D02*
X71284Y-57913D01*
X71188Y-58023D01*
X71229Y-58023D01*
X71257Y-58037D01*
X71270Y-58051D01*
X71284Y-58079D01*
X71284Y-58148D01*
X71270Y-58175D01*
X71257Y-58189D01*
X71229Y-58203D01*
X71146Y-58203D01*
X71119Y-58189D01*
X71105Y-58175D01*
X71381Y-57913D02*
X71574Y-57913D01*
X71450Y-58203D01*
X70704Y-57939D02*
X70566Y-58036D01*
X70704Y-58105D02*
X70414Y-58105D01*
X70414Y-57994D01*
X70428Y-57967D01*
X70442Y-57953D01*
X70469Y-57939D01*
X70511Y-57939D01*
X70538Y-57953D01*
X70552Y-57967D01*
X70566Y-57994D01*
X70566Y-58105D01*
X70414Y-57842D02*
X70414Y-57663D01*
X70524Y-57759D01*
X70524Y-57718D01*
X70538Y-57690D01*
X70552Y-57677D01*
X70580Y-57663D01*
X70649Y-57663D01*
X70676Y-57677D01*
X70690Y-57690D01*
X70704Y-57718D01*
X70704Y-57801D01*
X70690Y-57828D01*
X70676Y-57842D01*
X70538Y-57497D02*
X70524Y-57525D01*
X70511Y-57538D01*
X70483Y-57552D01*
X70469Y-57552D01*
X70442Y-57538D01*
X70428Y-57525D01*
X70414Y-57497D01*
X70414Y-57442D01*
X70428Y-57414D01*
X70442Y-57400D01*
X70469Y-57387D01*
X70483Y-57387D01*
X70511Y-57400D01*
X70524Y-57414D01*
X70538Y-57442D01*
X70538Y-57497D01*
X70552Y-57525D01*
X70566Y-57538D01*
X70593Y-57552D01*
X70649Y-57552D01*
X70676Y-57538D01*
X70690Y-57525D01*
X70704Y-57497D01*
X70704Y-57442D01*
X70690Y-57414D01*
X70676Y-57400D01*
X70649Y-57387D01*
X70593Y-57387D01*
X70566Y-57400D01*
X70552Y-57414D01*
X70538Y-57442D01*
X71684Y-57282D02*
X71698Y-57296D01*
X71712Y-57337D01*
X71712Y-57365D01*
X71698Y-57406D01*
X71670Y-57434D01*
X71643Y-57448D01*
X71588Y-57461D01*
X71546Y-57461D01*
X71491Y-57448D01*
X71463Y-57434D01*
X71436Y-57406D01*
X71422Y-57365D01*
X71422Y-57337D01*
X71436Y-57296D01*
X71450Y-57282D01*
X71422Y-57185D02*
X71422Y-56992D01*
X71712Y-57116D01*
X71712Y-56730D02*
X71712Y-56895D01*
X71712Y-56812D02*
X71422Y-56812D01*
X71463Y-56840D01*
X71491Y-56868D01*
X71505Y-56895D01*
X77181Y-61117D02*
X77181Y-61401D01*
X77198Y-61434D01*
X77214Y-61451D01*
X77248Y-61467D01*
X77314Y-61467D01*
X77348Y-61451D01*
X77364Y-61434D01*
X77381Y-61401D01*
X77381Y-61117D01*
X77598Y-61267D02*
X77564Y-61251D01*
X77548Y-61234D01*
X77531Y-61201D01*
X77531Y-61184D01*
X77548Y-61151D01*
X77564Y-61134D01*
X77598Y-61117D01*
X77664Y-61117D01*
X77698Y-61134D01*
X77714Y-61151D01*
X77731Y-61184D01*
X77731Y-61201D01*
X77714Y-61234D01*
X77698Y-61251D01*
X77664Y-61267D01*
X77598Y-61267D01*
X77564Y-61284D01*
X77548Y-61301D01*
X77531Y-61334D01*
X77531Y-61401D01*
X77548Y-61434D01*
X77564Y-61451D01*
X77598Y-61467D01*
X77664Y-61467D01*
X77698Y-61451D01*
X77714Y-61434D01*
X77731Y-61401D01*
X77731Y-61334D01*
X77714Y-61301D01*
X77698Y-61284D01*
X77664Y-61267D01*
X71363Y-60899D02*
X71349Y-60913D01*
X71308Y-60927D01*
X71280Y-60927D01*
X71239Y-60913D01*
X71211Y-60885D01*
X71197Y-60858D01*
X71184Y-60803D01*
X71184Y-60761D01*
X71197Y-60706D01*
X71211Y-60678D01*
X71239Y-60651D01*
X71280Y-60637D01*
X71308Y-60637D01*
X71349Y-60651D01*
X71363Y-60665D01*
X71474Y-60665D02*
X71487Y-60651D01*
X71515Y-60637D01*
X71584Y-60637D01*
X71612Y-60651D01*
X71625Y-60665D01*
X71639Y-60692D01*
X71639Y-60720D01*
X71625Y-60761D01*
X71460Y-60927D01*
X71639Y-60927D01*
X71736Y-60637D02*
X71915Y-60637D01*
X71819Y-60747D01*
X71860Y-60747D01*
X71888Y-60761D01*
X71902Y-60775D01*
X71915Y-60803D01*
X71915Y-60872D01*
X71902Y-60899D01*
X71888Y-60913D01*
X71860Y-60927D01*
X71777Y-60927D01*
X71750Y-60913D01*
X71736Y-60899D01*
X70451Y-51822D02*
X70465Y-51836D01*
X70479Y-51877D01*
X70479Y-51905D01*
X70465Y-51946D01*
X70437Y-51974D01*
X70410Y-51988D01*
X70354Y-52001D01*
X70313Y-52001D01*
X70258Y-51988D01*
X70230Y-51974D01*
X70203Y-51946D01*
X70189Y-51905D01*
X70189Y-51877D01*
X70203Y-51836D01*
X70216Y-51822D01*
X70313Y-51656D02*
X70299Y-51684D01*
X70285Y-51698D01*
X70258Y-51711D01*
X70244Y-51711D01*
X70216Y-51698D01*
X70203Y-51684D01*
X70189Y-51656D01*
X70189Y-51601D01*
X70203Y-51573D01*
X70216Y-51559D01*
X70244Y-51546D01*
X70258Y-51546D01*
X70285Y-51559D01*
X70299Y-51573D01*
X70313Y-51601D01*
X70313Y-51656D01*
X70327Y-51684D01*
X70341Y-51698D01*
X70368Y-51711D01*
X70424Y-51711D01*
X70451Y-51698D01*
X70465Y-51684D01*
X70479Y-51656D01*
X70479Y-51601D01*
X70465Y-51573D01*
X70451Y-51559D01*
X70424Y-51546D01*
X70368Y-51546D01*
X70341Y-51559D01*
X70327Y-51573D01*
X70313Y-51601D01*
X72524Y-47552D02*
X72510Y-47566D01*
X72469Y-47580D01*
X72441Y-47580D01*
X72400Y-47566D01*
X72372Y-47538D01*
X72358Y-47511D01*
X72345Y-47456D01*
X72345Y-47414D01*
X72358Y-47359D01*
X72372Y-47331D01*
X72400Y-47304D01*
X72441Y-47290D01*
X72469Y-47290D01*
X72510Y-47304D01*
X72524Y-47318D01*
X72773Y-47387D02*
X72773Y-47580D01*
X72704Y-47276D02*
X72635Y-47483D01*
X72814Y-47483D01*
X78225Y-45134D02*
X78211Y-45148D01*
X78170Y-45162D01*
X78142Y-45162D01*
X78101Y-45148D01*
X78073Y-45120D01*
X78059Y-45093D01*
X78046Y-45038D01*
X78046Y-44996D01*
X78059Y-44941D01*
X78073Y-44913D01*
X78101Y-44886D01*
X78142Y-44872D01*
X78170Y-44872D01*
X78211Y-44886D01*
X78225Y-44900D01*
X78488Y-44872D02*
X78349Y-44872D01*
X78336Y-45010D01*
X78349Y-44996D01*
X78377Y-44982D01*
X78446Y-44982D01*
X78474Y-44996D01*
X78488Y-45010D01*
X78501Y-45038D01*
X78501Y-45107D01*
X78488Y-45134D01*
X78474Y-45148D01*
X78446Y-45162D01*
X78377Y-45162D01*
X78349Y-45148D01*
X78336Y-45134D01*
X78028Y-43906D02*
X78014Y-43920D01*
X77973Y-43934D01*
X77945Y-43934D01*
X77904Y-43920D01*
X77876Y-43892D01*
X77862Y-43865D01*
X77849Y-43810D01*
X77849Y-43768D01*
X77862Y-43713D01*
X77876Y-43685D01*
X77904Y-43658D01*
X77945Y-43644D01*
X77973Y-43644D01*
X78014Y-43658D01*
X78028Y-43672D01*
X78304Y-43934D02*
X78139Y-43934D01*
X78221Y-43934D02*
X78221Y-43644D01*
X78194Y-43685D01*
X78166Y-43713D01*
X78139Y-43727D01*
X78484Y-43644D02*
X78511Y-43644D01*
X78539Y-43658D01*
X78553Y-43672D01*
X78567Y-43699D01*
X78580Y-43754D01*
X78580Y-43823D01*
X78567Y-43879D01*
X78553Y-43906D01*
X78539Y-43920D01*
X78511Y-43934D01*
X78484Y-43934D01*
X78456Y-43920D01*
X78442Y-43906D01*
X78429Y-43879D01*
X78415Y-43823D01*
X78415Y-43754D01*
X78429Y-43699D01*
X78442Y-43672D01*
X78456Y-43658D01*
X78484Y-43644D01*
X75502Y-45470D02*
X75488Y-45484D01*
X75447Y-45498D01*
X75419Y-45498D01*
X75378Y-45484D01*
X75350Y-45456D01*
X75336Y-45429D01*
X75323Y-45374D01*
X75323Y-45332D01*
X75336Y-45277D01*
X75350Y-45249D01*
X75378Y-45222D01*
X75419Y-45208D01*
X75447Y-45208D01*
X75488Y-45222D01*
X75502Y-45236D01*
X75599Y-45208D02*
X75792Y-45208D01*
X75668Y-45498D01*
X72524Y-47984D02*
X72510Y-47998D01*
X72469Y-48012D01*
X72441Y-48012D01*
X72400Y-47998D01*
X72372Y-47970D01*
X72358Y-47943D01*
X72345Y-47888D01*
X72345Y-47846D01*
X72358Y-47791D01*
X72372Y-47763D01*
X72400Y-47736D01*
X72441Y-47722D01*
X72469Y-47722D01*
X72510Y-47736D01*
X72524Y-47750D01*
X72800Y-48012D02*
X72635Y-48012D01*
X72717Y-48012D02*
X72717Y-47722D01*
X72690Y-47763D01*
X72662Y-47791D01*
X72635Y-47805D01*
X72911Y-47750D02*
X72925Y-47736D01*
X72952Y-47722D01*
X73021Y-47722D01*
X73049Y-47736D01*
X73063Y-47750D01*
X73076Y-47777D01*
X73076Y-47805D01*
X73063Y-47846D01*
X72897Y-48012D01*
X73076Y-48012D01*
X67363Y-55347D02*
X67349Y-55361D01*
X67308Y-55375D01*
X67280Y-55375D01*
X67239Y-55361D01*
X67211Y-55333D01*
X67197Y-55306D01*
X67184Y-55251D01*
X67184Y-55209D01*
X67197Y-55154D01*
X67211Y-55126D01*
X67239Y-55099D01*
X67280Y-55085D01*
X67308Y-55085D01*
X67349Y-55099D01*
X67363Y-55113D01*
X67612Y-55085D02*
X67556Y-55085D01*
X67529Y-55099D01*
X67515Y-55113D01*
X67487Y-55154D01*
X67474Y-55209D01*
X67474Y-55320D01*
X67487Y-55347D01*
X67501Y-55361D01*
X67529Y-55375D01*
X67584Y-55375D01*
X67612Y-55361D01*
X67625Y-55347D01*
X67639Y-55320D01*
X67639Y-55251D01*
X67625Y-55223D01*
X67612Y-55209D01*
X67584Y-55195D01*
X67529Y-55195D01*
X67501Y-55209D01*
X67487Y-55223D01*
X67474Y-55251D01*
X67736Y-55085D02*
X67929Y-55085D01*
X67805Y-55375D01*
%LPC*%
G54D21*
X74607Y-53120D03*
X75592Y-53120D03*
G54D22*
X71736Y-45994D03*
X71736Y-45294D03*
X72536Y-45644D03*
X71162Y-45114D03*
X71162Y-45814D03*
X70362Y-45464D03*
G54D23*
X77782Y-59739D03*
X77407Y-58873D03*
X78157Y-58873D03*
G54D24*
X77647Y-45468D03*
X78434Y-45468D03*
G54D25*
X76900Y-61705D03*
X75759Y-61705D03*
G54D26*
X78165Y-61565D03*
X78165Y-62314D03*
G54D27*
X78163Y-51702D03*
X77572Y-51702D03*
G54D28*
X71520Y-61174D03*
X71520Y-61765D03*
X70336Y-60086D03*
X70336Y-60677D03*
G54D27*
X78163Y-52242D03*
X77572Y-52242D03*
X78163Y-52752D03*
X77572Y-52752D03*
X73357Y-45140D03*
X72766Y-45140D03*
G54D28*
X69670Y-43634D03*
X69670Y-44225D03*
G54D29*
X71413Y-49678D03*
X71806Y-49678D03*
X75289Y-52582D03*
X75682Y-52582D03*
X71413Y-49316D03*
X71806Y-49316D03*
X74964Y-52582D03*
X74571Y-52582D03*
X69912Y-58822D03*
X69519Y-58822D03*
X69826Y-59199D03*
X69433Y-59199D03*
X69217Y-56652D03*
X69610Y-56652D03*
X73294Y-58706D03*
X72901Y-58706D03*
X76789Y-52750D03*
X77182Y-52750D03*
X76781Y-52218D03*
X77174Y-52218D03*
X76783Y-51730D03*
X77176Y-51730D03*
X71683Y-50388D03*
X71290Y-50388D03*
X69571Y-57286D03*
X69964Y-57286D03*
X76420Y-43752D03*
X76027Y-43752D03*
G54D30*
X76118Y-44403D03*
X76118Y-44796D03*
G54D29*
X73825Y-53244D03*
X74218Y-53244D03*
X72138Y-48344D03*
X71745Y-48344D03*
G54D30*
X78474Y-59704D03*
X78474Y-59311D03*
G54D29*
X77606Y-62392D03*
X77213Y-62392D03*
X76156Y-58857D03*
X75763Y-58857D03*
G54D30*
X73190Y-53423D03*
X73190Y-53816D03*
G54D29*
X68743Y-59202D03*
X69136Y-59202D03*
G54D31*
X71984Y-51136D03*
X71787Y-51136D03*
X72181Y-51136D03*
X72181Y-52219D03*
X71787Y-52219D03*
X71984Y-52219D03*
G54D32*
X72526Y-51678D03*
X72526Y-51481D03*
X72526Y-51284D03*
X72526Y-51874D03*
X72526Y-52071D03*
X71443Y-52071D03*
X71443Y-51874D03*
X71443Y-51284D03*
X71443Y-51481D03*
X71443Y-51678D03*
G54D33*
X77005Y-44833D03*
X77005Y-44675D03*
X77005Y-44360D03*
X77005Y-44518D03*
X77005Y-44202D03*
X77714Y-44202D03*
X77714Y-44518D03*
X77714Y-44360D03*
X77714Y-44675D03*
X77714Y-44833D03*
G54D34*
X70539Y-44070D03*
X71051Y-44070D03*
X70795Y-44070D03*
X71819Y-44070D03*
X72075Y-44070D03*
X71563Y-44070D03*
X71307Y-44070D03*
X73354Y-44070D03*
X73610Y-44070D03*
X74122Y-44070D03*
X73866Y-44070D03*
X72842Y-44070D03*
X73098Y-44070D03*
X72586Y-44070D03*
X72330Y-44070D03*
G54D35*
X70701Y-46821D03*
X70504Y-46821D03*
X70307Y-46821D03*
X70307Y-47903D03*
X70504Y-47903D03*
X70701Y-47903D03*
G54D36*
X71045Y-46968D03*
X71045Y-47165D03*
X71045Y-47362D03*
X71045Y-47756D03*
X71045Y-47559D03*
X69963Y-47559D03*
X69963Y-47756D03*
X69963Y-47362D03*
X69963Y-47165D03*
X69963Y-46968D03*
G54D37*
X76954Y-50142D03*
X76954Y-50930D03*
X78096Y-50930D03*
X78096Y-50142D03*
G54D38*
X74728Y-61373D03*
G54D39*
X74826Y-62436D03*
X72661Y-62436D03*
X74137Y-62436D03*
G54D40*
X73244Y-61357D03*
X73494Y-61357D03*
X73744Y-61357D03*
X73994Y-61357D03*
X74244Y-61357D03*
G54D41*
X75122Y-62436D03*
X72366Y-62436D03*
G54D39*
X73350Y-62436D03*
G54D38*
X72760Y-61373D03*
G54D42*
X68681Y-44524D03*
G54D43*
X68759Y-45351D03*
X68760Y-43697D03*
X67421Y-43697D03*
X67421Y-45351D03*
G54D42*
X67499Y-44524D03*
X68677Y-46996D03*
G54D43*
X68755Y-47823D03*
X68756Y-46169D03*
X67417Y-46169D03*
X67417Y-47823D03*
G54D42*
X67495Y-46996D03*
X68681Y-49498D03*
G54D43*
X68759Y-50325D03*
X68760Y-48671D03*
X67421Y-48671D03*
X67421Y-50325D03*
G54D42*
X67499Y-49498D03*
X68711Y-57800D03*
G54D43*
X68789Y-58627D03*
X68790Y-56973D03*
X67451Y-56973D03*
X67451Y-58627D03*
G54D42*
X67529Y-57800D03*
G54D44*
X74131Y-46990D03*
G54D45*
X78128Y-46990D03*
G54D46*
X69231Y-61768D03*
X69546Y-61768D03*
X69231Y-62083D03*
X69861Y-62083D03*
X69546Y-62083D03*
X69546Y-61453D03*
X69861Y-61768D03*
X69861Y-61453D03*
X69231Y-61453D03*
G54D47*
X69940Y-60980D03*
X69743Y-60980D03*
X69349Y-60980D03*
X69546Y-60980D03*
X69152Y-60980D03*
X69152Y-62555D03*
X69546Y-62555D03*
X69349Y-62555D03*
X69743Y-62555D03*
X69940Y-62555D03*
G54D48*
X68758Y-61769D03*
X68758Y-61966D03*
X68758Y-62162D03*
X68758Y-61572D03*
X68758Y-61375D03*
X70333Y-61374D03*
X70333Y-61571D03*
X70333Y-62161D03*
X70333Y-61965D03*
G54D49*
X69546Y-61768D03*
G54D48*
X70333Y-61768D03*
G54D32*
X71064Y-49189D03*
X71064Y-49443D03*
X71064Y-49697D03*
X71064Y-49951D03*
X69540Y-49951D03*
X69540Y-49697D03*
X69540Y-49443D03*
X69540Y-49189D03*
G54D31*
X69921Y-48808D03*
X70175Y-48808D03*
X70429Y-48808D03*
X70683Y-48808D03*
X70683Y-50332D03*
X70429Y-50332D03*
X70175Y-50332D03*
X69921Y-50332D03*
G54D50*
X69856Y-52105D03*
X69856Y-51594D03*
X69856Y-51850D03*
X69383Y-52105D03*
X69383Y-51850D03*
X69383Y-51594D03*
G54D51*
X69621Y-60074D03*
X69050Y-60074D03*
X69050Y-59641D03*
X69621Y-59641D03*
G54D52*
X68163Y-61419D03*
X67652Y-61419D03*
X67908Y-61419D03*
X68163Y-61892D03*
X67908Y-61892D03*
X67652Y-61892D03*
G54D51*
X71413Y-53034D03*
X70842Y-53034D03*
X70842Y-52601D03*
X71413Y-52601D03*
G54D53*
X73544Y-54022D03*
X73544Y-53629D03*
X74075Y-53629D03*
X74075Y-54022D03*
G54D54*
X68559Y-52126D03*
X68559Y-52893D03*
X67792Y-52893D03*
X67792Y-52126D03*
G54D28*
X72580Y-50867D03*
X72580Y-50276D03*
X75550Y-60172D03*
X75550Y-60763D03*
G54D30*
X72172Y-50692D03*
X72172Y-50299D03*
X70372Y-52605D03*
X70372Y-52998D03*
X71510Y-53976D03*
X71510Y-53583D03*
X71868Y-53010D03*
X71868Y-52617D03*
G54D29*
X69836Y-48394D03*
X69443Y-48394D03*
G54D55*
X71654Y-60130D03*
X72654Y-60130D03*
X72154Y-60130D03*
X73154Y-60130D03*
G54D56*
X73654Y-60130D03*
G54D55*
X76630Y-62508D03*
G54D56*
X76130Y-62508D03*
G54D55*
X75470Y-51750D03*
X75470Y-51250D03*
X75470Y-50750D03*
X75470Y-49750D03*
X75470Y-50250D03*
X75470Y-49250D03*
X75970Y-49250D03*
X75970Y-50250D03*
X75970Y-49750D03*
X75970Y-50750D03*
X75970Y-51250D03*
G54D56*
X75970Y-51750D03*
G54D57*
X78056Y-55998D03*
X77556Y-55998D03*
X78056Y-56998D03*
X77556Y-56998D03*
X77556Y-56498D03*
X78056Y-56498D03*
X78056Y-57498D03*
X77556Y-57498D03*
X77556Y-57998D03*
G54D58*
X78056Y-57998D03*
G54D29*
X68189Y-51288D03*
X68582Y-51288D03*
G54D30*
X67674Y-50887D03*
X67674Y-51280D03*
G54D59*
X67276Y-62664D03*
G54D60*
X67698Y-59948D03*
X75264Y-44226D03*
X78008Y-60670D03*
X69638Y-45828D03*
G54D30*
X71818Y-49028D03*
X71818Y-48635D03*
G54D61*
X76400Y-60240D03*
X76636Y-60082D03*
X76636Y-60397D03*
X76163Y-60397D03*
G54D62*
X76006Y-59373D03*
X76203Y-59373D03*
X76596Y-59373D03*
X76400Y-59373D03*
X76793Y-59373D03*
X76793Y-61106D03*
X76400Y-61106D03*
X76596Y-61106D03*
X76203Y-61106D03*
X76006Y-61106D03*
G54D63*
X76400Y-60240D03*
G54D61*
X76163Y-60082D03*
G54D64*
X70056Y-55526D03*
X70056Y-54345D03*
X70056Y-54739D03*
X70056Y-55132D03*
X70450Y-55132D03*
X70450Y-54739D03*
X70450Y-54345D03*
X70450Y-55526D03*
X69663Y-55526D03*
X69663Y-54345D03*
X69663Y-54739D03*
X69663Y-55132D03*
X69269Y-55132D03*
X69269Y-54739D03*
X69269Y-54345D03*
X69269Y-55526D03*
G54D65*
X68974Y-56117D03*
X69171Y-56117D03*
X69367Y-56117D03*
X69564Y-56117D03*
X69761Y-56117D03*
X69958Y-56117D03*
X70155Y-56117D03*
X70352Y-56117D03*
X70548Y-56117D03*
X70745Y-56117D03*
G54D66*
X71041Y-55821D03*
X71041Y-55624D03*
X71041Y-55428D03*
X71041Y-55231D03*
X71041Y-55034D03*
X71041Y-54837D03*
X71041Y-54640D03*
X71041Y-54443D03*
X71041Y-54247D03*
X71041Y-54050D03*
G54D65*
X70745Y-53754D03*
X70548Y-53754D03*
X70352Y-53754D03*
X70155Y-53754D03*
X69958Y-53754D03*
X69761Y-53754D03*
X69564Y-53754D03*
X69367Y-53754D03*
X69171Y-53754D03*
X68974Y-53754D03*
G54D66*
X68678Y-54050D03*
X68678Y-54247D03*
X68678Y-54443D03*
X68678Y-54640D03*
X68678Y-54837D03*
X68678Y-55034D03*
X68678Y-55231D03*
X68678Y-55428D03*
X68678Y-55624D03*
X68678Y-55821D03*
G54D67*
X69860Y-54936D03*
G54D68*
X75790Y-54538D03*
X75790Y-54793D03*
X75790Y-55049D03*
X75790Y-55305D03*
X75790Y-55561D03*
X75790Y-55817D03*
X75790Y-56073D03*
X75790Y-56329D03*
X75790Y-56585D03*
X75790Y-56841D03*
X75790Y-57097D03*
X75790Y-57352D03*
X75790Y-57608D03*
X75790Y-57864D03*
X75790Y-58120D03*
X75534Y-54538D03*
X75534Y-54793D03*
X75534Y-55049D03*
X75534Y-55305D03*
X75534Y-55561D03*
X75534Y-55817D03*
X75534Y-56073D03*
X75534Y-56329D03*
X75534Y-56585D03*
X75534Y-56841D03*
X75534Y-57097D03*
X75534Y-57352D03*
X75534Y-57608D03*
X75534Y-57864D03*
X75534Y-58120D03*
X75278Y-54538D03*
X75278Y-54793D03*
X75278Y-55049D03*
X75278Y-55305D03*
X75278Y-55561D03*
X75278Y-55817D03*
X75278Y-56073D03*
X75278Y-56329D03*
X75278Y-56585D03*
X75278Y-56841D03*
X75278Y-57097D03*
X75278Y-57352D03*
X75278Y-57608D03*
X75278Y-57864D03*
X75278Y-58120D03*
X75022Y-54538D03*
X75022Y-54793D03*
X75022Y-55049D03*
X75022Y-55305D03*
X75022Y-55561D03*
X75022Y-55817D03*
X75022Y-56073D03*
X75022Y-56329D03*
X75022Y-56585D03*
X75022Y-56841D03*
X75022Y-57097D03*
X75022Y-57352D03*
X75022Y-57608D03*
X75022Y-57864D03*
X75022Y-58120D03*
X74766Y-54538D03*
X74766Y-54793D03*
X74766Y-55049D03*
X74766Y-55305D03*
X74766Y-57352D03*
X74766Y-57608D03*
X74766Y-57864D03*
X74766Y-58120D03*
X74510Y-54538D03*
X74510Y-54793D03*
X74510Y-55049D03*
X74510Y-55305D03*
X74510Y-55817D03*
X74510Y-56073D03*
X74510Y-56329D03*
X74510Y-56585D03*
X74510Y-56841D03*
X74510Y-57352D03*
X74510Y-57608D03*
X74510Y-57864D03*
X74510Y-58120D03*
X74254Y-54538D03*
X74254Y-54793D03*
X74254Y-55049D03*
X74254Y-55305D03*
X74254Y-55817D03*
X74254Y-56073D03*
X74254Y-56329D03*
X74254Y-56585D03*
X74254Y-56841D03*
X74254Y-57352D03*
X74254Y-57608D03*
X74254Y-57864D03*
X74254Y-58120D03*
X73998Y-54538D03*
X73998Y-54793D03*
X73998Y-55049D03*
X73998Y-55305D03*
X73998Y-55817D03*
X73998Y-56073D03*
X73998Y-56329D03*
X73998Y-56585D03*
X73998Y-56841D03*
X73998Y-57352D03*
X73998Y-57608D03*
X73998Y-57864D03*
X73998Y-58120D03*
X73742Y-54538D03*
X73742Y-54793D03*
X73742Y-55049D03*
X73742Y-55305D03*
X73742Y-55817D03*
X73742Y-56073D03*
X73742Y-56329D03*
X73742Y-56585D03*
X73742Y-56841D03*
X73742Y-57352D03*
X73742Y-57608D03*
X73742Y-57864D03*
X73742Y-58120D03*
X73487Y-54538D03*
X73487Y-54793D03*
X73487Y-55049D03*
X73487Y-55305D03*
X73487Y-55817D03*
X73487Y-56073D03*
X73487Y-56329D03*
X73487Y-56585D03*
X73487Y-56841D03*
X73487Y-57352D03*
X73487Y-57608D03*
X73487Y-57864D03*
X73487Y-58120D03*
X73230Y-54538D03*
X73230Y-54793D03*
X73230Y-55049D03*
X73230Y-55305D03*
X73230Y-57352D03*
X73230Y-57608D03*
X73230Y-57864D03*
X73230Y-58120D03*
X72975Y-54538D03*
X72975Y-54793D03*
X72975Y-55049D03*
X72975Y-55305D03*
X72975Y-55561D03*
X72975Y-55817D03*
X72975Y-56073D03*
X72975Y-56329D03*
X72975Y-56585D03*
X72975Y-56841D03*
X72975Y-57097D03*
X72975Y-57352D03*
X72975Y-57608D03*
X72975Y-57864D03*
X72975Y-58120D03*
X72719Y-54538D03*
X72719Y-54793D03*
X72719Y-55049D03*
X72719Y-55305D03*
X72719Y-55561D03*
X72719Y-55817D03*
X72719Y-56073D03*
X72719Y-56329D03*
X72719Y-56585D03*
X72719Y-56841D03*
X72719Y-57097D03*
X72719Y-57352D03*
X72719Y-57608D03*
X72719Y-57864D03*
X72719Y-58120D03*
X72463Y-54538D03*
X72463Y-54793D03*
X72463Y-55049D03*
X72463Y-55305D03*
X72463Y-55561D03*
X72463Y-55817D03*
X72463Y-56073D03*
X72463Y-56329D03*
X72463Y-56585D03*
X72463Y-56841D03*
X72463Y-57097D03*
X72463Y-57352D03*
X72463Y-57608D03*
X72463Y-57864D03*
X72463Y-58120D03*
X72207Y-54538D03*
X72207Y-54793D03*
X72207Y-55049D03*
X72207Y-55305D03*
X72207Y-55561D03*
X72207Y-55817D03*
X72207Y-56073D03*
X72207Y-56329D03*
X72207Y-56585D03*
X72207Y-56841D03*
X72207Y-57097D03*
X72207Y-57352D03*
X72207Y-57608D03*
X72207Y-57864D03*
X72207Y-58120D03*
G54D69*
X74046Y-48810D03*
X74046Y-48023D03*
G54D26*
X72949Y-49008D03*
X72949Y-49757D03*
X72298Y-49009D03*
X72298Y-49758D03*
G54D30*
X70930Y-57679D03*
X70930Y-57286D03*
X70600Y-57164D03*
X70600Y-56771D03*
G54D29*
X71332Y-56574D03*
X70939Y-56574D03*
G54D70*
X77592Y-61717D03*
X77435Y-61717D03*
X77435Y-61875D03*
X77592Y-61875D03*
X77592Y-62032D03*
X77435Y-62032D03*
G54D30*
X70938Y-61270D03*
X70938Y-60877D03*
X70854Y-51577D03*
X70854Y-51970D03*
G54D29*
X72142Y-47426D03*
X71749Y-47426D03*
G54D30*
X78246Y-44684D03*
X78246Y-44291D03*
G54D29*
X77217Y-43808D03*
X77610Y-43808D03*
X75921Y-45256D03*
X76314Y-45256D03*
X72146Y-47912D03*
X71753Y-47912D03*
G54D30*
X67470Y-54463D03*
X67470Y-54856D03*
M02*
