G04 (created by PCBNEW (2013-may-18)-stable) date Tue 16 Jul 2013 10:20:31 AM EDT*
%MOIN*%
G04 Gerber Fmt 3.4, Leading zero omitted, Abs format*
%FSLAX34Y34*%
G01*
G70*
G90*
G04 APERTURE LIST*
%ADD10C,0.00590551*%
%ADD11O,0.0492X0.0374*%
%ADD12O,0.0354X0.063*%
%ADD13C,0.0354*%
%ADD14C,0.013*%
%ADD15C,0.04*%
%ADD16R,0.04X0.04*%
%ADD17C,0.042*%
%ADD18R,0.042X0.042*%
%ADD19C,0.09*%
%ADD20C,0.023622*%
%ADD21R,0.019685X0.019685*%
%ADD22C,0.027*%
%ADD23C,0.018*%
%ADD24C,0.03*%
%ADD25C,0.012*%
%ADD26C,0.01*%
%ADD27C,0.016*%
%ADD28C,0.009*%
%ADD29C,0.008*%
%ADD30C,0.006*%
%ADD31C,0.007*%
%ADD32C,0.02*%
%ADD33C,0.04*%
%ADD34C,0.03*%
%ADD35C,0.024*%
G04 APERTURE END LIST*
G54D10*
G54D11*
X74728Y-61373D03*
G54D12*
X75122Y-62436D03*
X72366Y-62436D03*
G54D11*
X72760Y-61373D03*
G54D13*
X68681Y-44524D03*
X67499Y-44524D03*
X68677Y-46996D03*
X67495Y-46996D03*
X68681Y-49498D03*
X67499Y-49498D03*
X68711Y-57800D03*
X67529Y-57800D03*
G54D14*
X69231Y-61768D03*
X69546Y-61768D03*
X69231Y-62083D03*
X69861Y-62083D03*
X69546Y-62083D03*
X69546Y-61453D03*
X69861Y-61768D03*
X69861Y-61453D03*
X69231Y-61453D03*
G54D15*
X71654Y-60130D03*
X72654Y-60130D03*
X72154Y-60130D03*
X73154Y-60130D03*
G54D16*
X73654Y-60130D03*
G54D15*
X76630Y-62508D03*
G54D16*
X76130Y-62508D03*
G54D15*
X75470Y-51750D03*
X75470Y-51250D03*
X75470Y-50750D03*
X75470Y-49750D03*
X75470Y-50250D03*
X75470Y-49250D03*
X75970Y-49250D03*
X75970Y-50250D03*
X75970Y-49750D03*
X75970Y-50750D03*
X75970Y-51250D03*
G54D16*
X75970Y-51750D03*
G54D17*
X78056Y-55998D03*
X77556Y-55998D03*
X78056Y-56998D03*
X77556Y-56998D03*
X77556Y-56498D03*
X78056Y-56498D03*
X78056Y-57498D03*
X77556Y-57498D03*
X77556Y-57998D03*
G54D18*
X78056Y-57998D03*
G54D19*
X67698Y-59948D03*
X75264Y-44226D03*
X78008Y-60670D03*
X69638Y-45828D03*
G54D20*
X76400Y-60240D03*
X76636Y-60082D03*
X76636Y-60397D03*
X76163Y-60397D03*
X76163Y-60082D03*
G54D21*
X70056Y-55526D03*
X70056Y-54345D03*
X70056Y-54739D03*
X70056Y-55132D03*
X70450Y-55132D03*
X70450Y-54739D03*
X70450Y-54345D03*
X70450Y-55526D03*
X69663Y-55526D03*
X69663Y-54345D03*
X69663Y-54739D03*
X69663Y-55132D03*
X69269Y-55132D03*
X69269Y-54739D03*
X69269Y-54345D03*
X69269Y-55526D03*
G54D22*
X68019Y-56777D03*
G54D23*
X69255Y-58857D03*
G54D22*
X67876Y-55838D03*
X69814Y-58204D03*
G54D23*
X70282Y-56756D03*
G54D22*
X71844Y-53970D03*
X75181Y-45998D03*
X71394Y-45572D03*
X72816Y-43552D03*
X71996Y-44932D03*
X70116Y-43998D03*
X70248Y-45172D03*
X70068Y-44308D03*
X77122Y-46400D03*
X76545Y-57623D03*
X71660Y-44904D03*
X77484Y-46750D03*
X76829Y-57429D03*
G54D23*
X75944Y-57435D03*
G54D22*
X73108Y-45570D03*
X71286Y-44718D03*
X73792Y-59698D03*
G54D23*
X75544Y-62664D03*
G54D22*
X71932Y-56468D03*
G54D23*
X73473Y-49521D03*
G54D22*
X72522Y-53804D03*
X69814Y-50874D03*
X68016Y-44664D03*
X73324Y-51454D03*
G54D23*
X71912Y-55852D03*
G54D22*
X72976Y-53146D03*
G54D23*
X68260Y-50386D03*
G54D22*
X68338Y-47358D03*
X74914Y-54016D03*
X69390Y-57676D03*
G54D23*
X71914Y-56800D03*
G54D22*
X69240Y-58550D03*
G54D23*
X71626Y-48664D03*
G54D22*
X76248Y-46380D03*
X77644Y-53326D03*
X73958Y-51418D03*
X77044Y-54790D03*
G54D23*
X72950Y-50346D03*
G54D22*
X70848Y-50008D03*
G54D23*
X73748Y-55572D03*
X70602Y-56496D03*
G54D22*
X69188Y-56962D03*
G54D23*
X73364Y-55543D03*
G54D22*
X78072Y-48580D03*
X75564Y-48528D03*
X77390Y-58480D03*
X74238Y-59142D03*
X74924Y-48224D03*
G54D23*
X76868Y-48274D03*
G54D22*
X77458Y-59378D03*
X74238Y-59472D03*
X73880Y-51755D03*
X73594Y-46234D03*
X71764Y-46404D03*
X71782Y-44594D03*
X71822Y-54556D03*
X73752Y-50356D03*
X72326Y-46212D03*
X72120Y-44610D03*
X74368Y-45300D03*
X75178Y-53802D03*
X76752Y-58949D03*
X74250Y-58808D03*
X73697Y-59084D03*
X76791Y-60755D03*
X72582Y-58958D03*
X77048Y-58646D03*
X77872Y-53862D03*
G54D23*
X72589Y-58318D03*
G54D22*
X76075Y-58455D03*
X76407Y-58395D03*
X77960Y-54188D03*
X72255Y-58488D03*
X71488Y-59094D03*
G54D23*
X70658Y-58070D03*
G54D22*
X76770Y-58458D03*
X76256Y-52194D03*
X76338Y-57153D03*
X76216Y-48820D03*
X76015Y-57934D03*
X75758Y-58294D03*
X75976Y-56862D03*
X76028Y-56532D03*
G54D23*
X76000Y-56172D03*
G54D22*
X77378Y-55216D03*
X76798Y-49594D03*
X75006Y-59250D03*
X74650Y-60484D03*
X77298Y-53074D03*
X69956Y-51194D03*
X76202Y-44096D03*
X76799Y-43857D03*
X71892Y-51610D03*
X77012Y-53478D03*
X77164Y-53818D03*
X72858Y-52336D03*
X69152Y-50772D03*
X72202Y-52756D03*
X71780Y-58076D03*
X70534Y-59040D03*
X70828Y-62350D03*
X71784Y-55546D03*
G54D23*
X73060Y-50134D03*
G54D22*
X70617Y-59520D03*
X71106Y-62170D03*
X71636Y-58376D03*
X71688Y-55224D03*
X72176Y-46720D03*
X71795Y-58710D03*
X71436Y-54998D03*
X70038Y-48090D03*
X73240Y-50350D03*
X70516Y-49972D03*
X75676Y-53982D03*
X75232Y-47898D03*
X73702Y-48232D03*
G54D23*
X74013Y-48265D03*
G54D22*
X73341Y-48987D03*
G54D23*
X69304Y-59406D03*
X78028Y-44074D03*
X75190Y-49040D03*
X73359Y-49866D03*
X72596Y-50594D03*
X70035Y-56716D03*
G54D22*
X77492Y-61469D03*
X73667Y-47903D03*
X77976Y-49167D03*
G54D23*
X70858Y-46202D03*
G54D22*
X70342Y-47308D03*
X68072Y-49580D03*
X72888Y-51904D03*
X68876Y-56514D03*
X69906Y-49280D03*
X67225Y-53765D03*
X67530Y-53765D03*
G54D23*
X67570Y-55235D03*
G54D24*
X73524Y-53278D03*
G54D22*
X72515Y-54160D03*
G54D23*
X73544Y-54022D03*
G54D22*
X78250Y-61945D03*
X77290Y-62581D03*
X75368Y-59784D03*
X70906Y-44806D03*
G54D23*
X71272Y-46366D03*
G54D22*
X67342Y-55868D03*
X76544Y-44116D03*
X67950Y-62738D03*
X67946Y-62274D03*
X67204Y-61834D03*
X67212Y-61446D03*
X67188Y-61054D03*
X67632Y-61048D03*
X68938Y-51312D03*
X68362Y-50884D03*
X67852Y-50788D03*
X67248Y-50794D03*
X74662Y-47274D03*
X74756Y-55786D03*
G54D24*
X76726Y-50698D03*
X73336Y-59100D03*
G54D23*
X73976Y-49336D03*
G54D22*
X71398Y-47756D03*
X71998Y-53378D03*
X68078Y-61070D03*
X75104Y-53278D03*
G54D24*
X75042Y-60478D03*
X70384Y-52216D03*
G54D22*
X69126Y-47206D03*
X67516Y-47500D03*
X67236Y-45034D03*
X67256Y-44038D03*
X70618Y-48516D03*
X67230Y-57416D03*
X70728Y-60420D03*
X68144Y-59044D03*
X69726Y-60412D03*
X74070Y-57160D03*
X77038Y-49944D03*
X78189Y-49436D03*
X77522Y-54392D03*
G54D23*
X73660Y-54374D03*
G54D22*
X70578Y-46462D03*
X76199Y-61509D03*
X76458Y-61734D03*
X77283Y-61199D03*
X78156Y-59696D03*
X68896Y-62752D03*
X68350Y-62770D03*
X68135Y-54120D03*
X68056Y-54602D03*
X68712Y-53704D03*
X68514Y-56524D03*
X70396Y-44178D03*
X71010Y-43540D03*
X73330Y-44614D03*
X74398Y-43848D03*
G54D23*
X74016Y-44676D03*
G54D22*
X73679Y-44676D03*
X68530Y-57394D03*
X68858Y-49868D03*
X68746Y-48840D03*
X68252Y-45928D03*
X68284Y-43602D03*
X73232Y-56812D03*
X75510Y-53682D03*
X74990Y-45288D03*
G54D23*
X77482Y-46022D03*
G54D22*
X74666Y-57092D03*
X77886Y-55200D03*
G54D23*
X71028Y-53520D03*
G54D22*
X72964Y-48626D03*
G54D23*
X74037Y-49641D03*
G54D22*
X71972Y-50636D03*
X70248Y-53296D03*
G54D23*
X70965Y-56148D03*
G54D22*
X72675Y-60900D03*
G54D24*
X72284Y-60900D03*
G54D22*
X70302Y-62796D03*
X71020Y-61690D03*
X69231Y-60566D03*
X68848Y-61014D03*
X69792Y-56922D03*
X73601Y-47565D03*
X75534Y-44976D03*
X72608Y-44768D03*
X68310Y-55670D03*
X74770Y-56152D03*
G54D23*
X72325Y-54435D03*
G54D24*
X77840Y-61380D03*
G54D22*
X77290Y-45150D03*
G54D24*
X69400Y-53330D03*
G54D22*
X71388Y-47044D03*
G54D23*
X74416Y-55534D03*
G54D22*
X70022Y-49624D03*
X69642Y-46756D03*
X73600Y-57090D03*
G54D23*
X75118Y-60147D03*
X70582Y-58302D03*
G54D24*
X74782Y-46946D03*
G54D22*
X73146Y-43518D03*
G54D24*
X77686Y-59684D03*
X75748Y-59926D03*
X78034Y-59368D03*
X78456Y-55234D03*
X75690Y-47422D03*
G54D22*
X73083Y-61653D03*
G54D24*
X73960Y-51012D03*
X74458Y-59746D03*
G54D25*
X69528Y-58677D02*
X69528Y-58424D01*
X69348Y-58857D02*
X69528Y-58677D01*
X69255Y-58857D02*
X69348Y-58857D01*
X67876Y-55838D02*
X67876Y-56260D01*
X67876Y-56260D02*
X69082Y-57466D01*
X69082Y-57466D02*
X69082Y-57978D01*
X69082Y-57978D02*
X69528Y-58424D01*
G54D26*
X76545Y-57623D02*
X76474Y-57552D01*
X76474Y-57410D02*
X76596Y-57288D01*
X76474Y-57552D02*
X76474Y-57410D01*
G54D27*
X77368Y-49840D02*
X77368Y-52008D01*
X77160Y-46866D02*
X77122Y-46828D01*
X77160Y-49632D02*
X77160Y-46866D01*
X77368Y-49840D02*
X77160Y-49632D01*
X77122Y-46828D02*
X77122Y-46400D01*
G54D25*
X76596Y-57288D02*
X76596Y-52848D01*
X77368Y-52076D02*
X77368Y-52008D01*
X76596Y-52848D02*
X77368Y-52076D01*
G54D26*
X76790Y-55139D02*
X76766Y-55139D01*
X76792Y-55137D02*
X76790Y-55139D01*
G54D25*
X76792Y-57338D02*
X76792Y-55137D01*
G54D26*
X76766Y-52918D02*
X77592Y-52092D01*
G54D25*
X77592Y-51974D02*
X77592Y-49964D01*
G54D26*
X77592Y-52092D02*
X77592Y-51974D01*
X76766Y-55139D02*
X76766Y-52918D01*
G54D25*
X77592Y-49750D02*
X77370Y-49528D01*
X77370Y-49528D02*
X77370Y-46864D01*
X77370Y-46864D02*
X77484Y-46750D01*
X77592Y-49964D02*
X77592Y-49750D01*
X76792Y-57392D02*
X76792Y-57338D01*
X76829Y-57429D02*
X76792Y-57392D01*
G54D27*
X72480Y-45574D02*
X73104Y-45574D01*
X73104Y-45574D02*
X73108Y-45570D01*
X72048Y-45574D02*
X71810Y-45574D01*
X71810Y-45574D02*
X71380Y-45144D01*
X71380Y-45064D02*
X71380Y-44812D01*
X71380Y-45064D02*
X71380Y-45144D01*
X71380Y-44812D02*
X71286Y-44718D01*
X72048Y-45574D02*
X72480Y-45574D01*
G54D28*
X75544Y-62292D02*
X75544Y-62664D01*
X75230Y-61978D02*
X75544Y-62292D01*
X74636Y-61978D02*
X75230Y-61978D01*
X73978Y-61320D02*
X74636Y-61978D01*
X73978Y-59884D02*
X73978Y-61320D01*
G54D29*
X73792Y-59698D02*
X73978Y-59884D01*
G54D26*
X73500Y-49548D02*
X73518Y-49548D01*
X73473Y-49521D02*
X73500Y-49548D01*
G54D30*
X72522Y-53804D02*
X72641Y-53685D01*
X72641Y-53685D02*
X72680Y-53685D01*
G54D26*
X72680Y-53685D02*
X72680Y-52595D01*
X72680Y-52595D02*
X72678Y-52593D01*
X72546Y-52461D02*
X72546Y-51802D01*
X72678Y-52593D02*
X72546Y-52461D01*
X72530Y-53835D02*
X72680Y-53685D01*
G54D28*
X72618Y-51725D02*
X73368Y-50976D01*
G54D29*
X72618Y-51729D02*
X72618Y-51725D01*
G54D26*
X72546Y-51802D02*
X72618Y-51729D01*
G54D28*
X73368Y-50976D02*
X73592Y-50976D01*
G54D26*
X73592Y-50976D02*
X74052Y-50516D01*
X73755Y-49958D02*
X73518Y-49721D01*
X73518Y-49721D02*
X73518Y-49548D01*
X74052Y-50516D02*
X74052Y-50255D01*
X73755Y-49958D02*
X74052Y-50255D01*
X68016Y-44664D02*
X67843Y-44837D01*
X68374Y-48704D02*
X67843Y-48173D01*
X68374Y-50058D02*
X68374Y-48704D01*
X67843Y-48173D02*
X67843Y-44837D01*
G54D27*
X69656Y-50716D02*
X69262Y-50322D01*
X69262Y-50322D02*
X68638Y-50322D01*
G54D28*
X73213Y-52304D02*
X73213Y-51564D01*
X73213Y-51564D02*
X73324Y-51454D01*
G54D26*
X73013Y-53647D02*
X73256Y-53404D01*
X73256Y-52842D02*
X73213Y-52799D01*
X73256Y-53404D02*
X73256Y-52842D01*
G54D28*
X73213Y-52530D02*
X73213Y-52304D01*
G54D26*
X73213Y-52799D02*
X73213Y-52530D01*
G54D27*
X69814Y-50874D02*
X69656Y-50716D01*
G54D26*
X71912Y-55852D02*
X72272Y-55482D01*
X72272Y-55482D02*
X72272Y-54867D01*
X72272Y-54867D02*
X72770Y-54369D01*
X72770Y-54369D02*
X72770Y-53890D01*
X72770Y-53890D02*
X73013Y-53647D01*
X68638Y-50322D02*
X68374Y-50058D01*
G54D28*
X77044Y-54408D02*
X77044Y-54284D01*
X77644Y-53684D02*
X77644Y-53326D01*
X77044Y-54284D02*
X77644Y-53684D01*
G54D26*
X77044Y-54408D02*
X77044Y-54790D01*
G54D28*
X78210Y-49062D02*
X78210Y-48718D01*
X78210Y-48718D02*
X78072Y-48580D01*
G54D29*
X78154Y-55468D02*
X78154Y-55323D01*
X78009Y-55613D02*
X78154Y-55468D01*
G54D28*
X78470Y-49322D02*
X78210Y-49062D01*
G54D29*
X77140Y-55770D02*
X77297Y-55613D01*
X77140Y-57122D02*
X77140Y-55770D01*
X77240Y-57222D02*
X77140Y-57122D01*
X77240Y-57815D02*
X77240Y-57222D01*
X77058Y-57998D02*
X77240Y-57815D01*
X77058Y-58172D02*
X77058Y-57998D01*
G54D26*
X77390Y-58480D02*
X77366Y-58480D01*
X77366Y-58480D02*
X77058Y-58172D01*
G54D25*
X78480Y-54776D02*
X78480Y-49332D01*
X78480Y-49332D02*
X78470Y-49322D01*
X78154Y-55323D02*
X78164Y-55313D01*
X78164Y-55313D02*
X78164Y-55092D01*
X78164Y-55092D02*
X78480Y-54776D01*
G54D29*
X77297Y-55613D02*
X78009Y-55613D01*
X74037Y-51755D02*
X74230Y-51561D01*
X73880Y-51755D02*
X74037Y-51755D01*
X74230Y-49504D02*
X74230Y-46870D01*
X74230Y-46870D02*
X73594Y-46234D01*
X74230Y-51561D02*
X74230Y-49504D01*
X74230Y-49504D02*
X74230Y-49476D01*
G54D31*
X72075Y-53756D02*
X72075Y-53671D01*
X72250Y-53496D02*
X72250Y-53246D01*
X72075Y-53671D02*
X72250Y-53496D01*
X71805Y-54364D02*
X71805Y-54345D01*
X72078Y-54071D02*
X72075Y-54071D01*
X71805Y-54345D02*
X72078Y-54071D01*
G54D29*
X71805Y-54539D02*
X71805Y-54364D01*
X71805Y-54364D02*
X71805Y-54337D01*
X71822Y-54556D02*
X71805Y-54539D01*
G54D31*
X71895Y-52634D02*
X72400Y-52129D01*
X72400Y-52129D02*
X72400Y-51710D01*
X72075Y-54071D02*
X72075Y-53756D01*
G54D26*
X73752Y-50534D02*
X73752Y-50356D01*
G54D31*
X71895Y-52977D02*
X71895Y-52634D01*
X72006Y-53088D02*
X71895Y-52977D01*
X72092Y-53088D02*
X72006Y-53088D01*
X72250Y-53246D02*
X72092Y-53088D01*
G54D26*
X73328Y-50782D02*
X73504Y-50782D01*
X73504Y-50782D02*
X73752Y-50534D01*
X72400Y-51710D02*
X73328Y-50782D01*
G54D31*
X72075Y-54067D02*
X72075Y-54071D01*
G54D29*
X71805Y-54445D02*
X71805Y-54337D01*
X74368Y-45950D02*
X75070Y-46652D01*
X74368Y-45300D02*
X74368Y-45950D01*
X74166Y-52800D02*
X73904Y-52538D01*
X73904Y-52538D02*
X73904Y-52085D01*
X73904Y-52085D02*
X74370Y-51619D01*
X74370Y-51619D02*
X74370Y-47917D01*
X74370Y-47917D02*
X75070Y-47217D01*
X75070Y-47217D02*
X75070Y-46652D01*
G54D30*
X75178Y-53802D02*
X74203Y-52827D01*
X74203Y-52827D02*
X74192Y-52827D01*
G54D28*
X74164Y-60008D02*
X74164Y-60471D01*
X74632Y-60940D02*
X74164Y-60471D01*
X74632Y-60940D02*
X76315Y-60940D01*
X76595Y-60940D02*
X76470Y-60940D01*
X76315Y-60940D02*
X76470Y-60940D01*
G54D31*
X73697Y-59257D02*
X73954Y-59514D01*
X73697Y-59084D02*
X73697Y-59257D01*
G54D29*
X73954Y-59514D02*
X74028Y-59588D01*
G54D31*
X74164Y-59869D02*
X74028Y-59733D01*
X74028Y-59733D02*
X74028Y-59588D01*
X74164Y-60008D02*
X74164Y-59869D01*
G54D28*
X76606Y-60940D02*
X76478Y-60940D01*
X76791Y-60755D02*
X76606Y-60940D01*
G54D31*
X76898Y-58007D02*
X76898Y-57931D01*
X77076Y-57753D02*
X77076Y-57486D01*
X76898Y-57931D02*
X77076Y-57753D01*
G54D29*
X77048Y-58380D02*
X76898Y-58230D01*
X77048Y-58646D02*
X77048Y-58380D01*
G54D28*
X77522Y-54082D02*
X77652Y-54082D01*
X77652Y-54082D02*
X77872Y-53862D01*
G54D31*
X77228Y-55008D02*
X77282Y-54954D01*
X77282Y-54284D02*
X77334Y-54232D01*
X77282Y-54954D02*
X77282Y-54284D01*
X77004Y-55626D02*
X77106Y-55524D01*
X77106Y-55130D02*
X77228Y-55008D01*
X77106Y-55524D02*
X77106Y-55130D01*
G54D29*
X76898Y-58230D02*
X76898Y-58007D01*
G54D28*
X77484Y-54082D02*
X77334Y-54232D01*
X77522Y-54082D02*
X77484Y-54082D01*
G54D29*
X76960Y-55670D02*
X77004Y-55626D01*
X76960Y-57166D02*
X76960Y-55670D01*
X77076Y-57282D02*
X76960Y-57166D01*
X77076Y-57486D02*
X77076Y-57282D01*
G54D31*
X76075Y-58455D02*
X76075Y-58385D01*
X76272Y-58188D02*
X76272Y-57426D01*
X76075Y-58385D02*
X76272Y-58188D01*
G54D26*
X76408Y-51250D02*
X75970Y-51250D01*
X76650Y-52258D02*
X76650Y-51492D01*
G54D30*
X76265Y-56747D02*
X76265Y-56289D01*
X76265Y-56289D02*
X76245Y-56269D01*
G54D31*
X76245Y-56269D02*
X76245Y-56236D01*
G54D26*
X76245Y-52662D02*
X76650Y-52258D01*
G54D29*
X76245Y-56236D02*
X76245Y-52662D01*
G54D26*
X76650Y-51492D02*
X76408Y-51250D01*
G54D30*
X76265Y-56899D02*
X76264Y-56899D01*
X76264Y-56899D02*
X76071Y-57093D01*
X76265Y-56747D02*
X76265Y-56899D01*
G54D31*
X76272Y-57426D02*
X76272Y-57417D01*
X76272Y-57417D02*
X76071Y-57216D01*
X76071Y-57216D02*
X76071Y-57093D01*
G54D25*
X72255Y-58769D02*
X72170Y-58854D01*
X72255Y-58488D02*
X72255Y-58769D01*
X72170Y-58854D02*
X71930Y-59094D01*
X71930Y-59094D02*
X71488Y-59094D01*
G54D26*
X76395Y-58707D02*
X75779Y-58707D01*
X76615Y-58707D02*
X76395Y-58707D01*
X76770Y-58552D02*
X76615Y-58707D01*
X76770Y-58458D02*
X76770Y-58552D01*
X75564Y-58050D02*
X75408Y-58206D01*
X76054Y-53410D02*
X76054Y-52474D01*
G54D30*
X76115Y-53471D02*
X76054Y-53410D01*
X76115Y-53858D02*
X76115Y-53471D01*
X76095Y-53878D02*
X76115Y-53858D01*
G54D26*
X76095Y-55680D02*
X76095Y-53878D01*
X75694Y-56082D02*
X76095Y-55680D01*
X75694Y-57920D02*
X75694Y-56082D01*
X75564Y-58050D02*
X75694Y-57920D01*
X75408Y-58206D02*
X75408Y-58336D01*
X75408Y-58336D02*
X75779Y-58707D01*
X76054Y-52474D02*
X76054Y-52396D01*
X76054Y-52396D02*
X76256Y-52194D01*
X75779Y-58707D02*
X75520Y-58448D01*
X75773Y-58701D02*
X75520Y-58448D01*
X76054Y-52474D02*
X76054Y-52456D01*
G54D25*
X76415Y-57075D02*
X76415Y-56967D01*
X76338Y-57153D02*
X76415Y-57075D01*
X76415Y-52774D02*
X77038Y-52152D01*
X76528Y-49132D02*
X76216Y-48820D01*
X76528Y-49926D02*
X76528Y-49132D01*
X77038Y-50436D02*
X76528Y-49926D01*
X77038Y-52152D02*
X77038Y-50436D01*
X76415Y-56967D02*
X76415Y-52774D01*
X76415Y-57092D02*
X76415Y-56967D01*
X74650Y-60484D02*
X74650Y-60281D01*
X75006Y-59925D02*
X75006Y-59250D01*
X74650Y-60281D02*
X75006Y-59925D01*
G54D29*
X77966Y-49566D02*
X77966Y-49553D01*
X77733Y-47118D02*
X78064Y-46787D01*
X77733Y-49320D02*
X77733Y-47118D01*
X77966Y-49553D02*
X77733Y-49320D01*
G54D31*
X77278Y-52940D02*
X77298Y-52960D01*
X77298Y-52960D02*
X77298Y-53074D01*
G54D26*
X78064Y-46787D02*
X78064Y-45080D01*
X78064Y-45080D02*
X77442Y-44458D01*
X77442Y-44458D02*
X77442Y-44100D01*
X77442Y-44100D02*
X76932Y-43590D01*
X76932Y-43590D02*
X76708Y-43590D01*
X76708Y-43590D02*
X76202Y-44096D01*
G54D29*
X77966Y-49566D02*
X77966Y-52187D01*
X77278Y-52831D02*
X77855Y-52254D01*
X77855Y-52254D02*
X77900Y-52254D01*
X77900Y-52254D02*
X77966Y-52187D01*
X77278Y-53074D02*
X77278Y-52940D01*
X77278Y-52940D02*
X77278Y-52831D01*
G54D25*
X77794Y-49788D02*
X77794Y-49680D01*
X77756Y-45176D02*
X77128Y-44548D01*
X77756Y-46862D02*
X77756Y-45176D01*
X77562Y-47056D02*
X77756Y-46862D01*
X77562Y-49448D02*
X77562Y-47056D01*
X77794Y-49680D02*
X77562Y-49448D01*
G54D29*
X76814Y-43872D02*
X76814Y-43928D01*
X76799Y-43857D02*
X76814Y-43872D01*
G54D26*
X77128Y-44548D02*
X77128Y-44242D01*
X77128Y-44242D02*
X76814Y-43928D01*
X76814Y-43928D02*
X76780Y-43894D01*
G54D28*
X77012Y-53478D02*
X77012Y-52892D01*
G54D29*
X77702Y-52195D02*
X77768Y-52128D01*
X77702Y-52202D02*
X77702Y-52195D01*
G54D28*
X77012Y-52892D02*
X77702Y-52202D01*
X77794Y-52103D02*
X77794Y-51988D01*
G54D25*
X77794Y-51988D02*
X77794Y-49788D01*
G54D28*
X77768Y-52128D02*
X77794Y-52103D01*
X72408Y-52840D02*
X72286Y-52840D01*
X71784Y-55478D02*
X72092Y-55170D01*
X71784Y-55546D02*
X71784Y-55478D01*
X72092Y-55170D02*
X72092Y-54820D01*
X72270Y-53696D02*
X72463Y-53503D01*
X72463Y-53503D02*
X72463Y-52895D01*
X72463Y-52895D02*
X72408Y-52840D01*
X72270Y-53710D02*
X72270Y-53696D01*
G54D26*
X72072Y-54799D02*
X72072Y-54290D01*
X72072Y-54290D02*
X72238Y-54124D01*
X72238Y-54124D02*
X72238Y-53742D01*
X72238Y-53742D02*
X72270Y-53710D01*
X72092Y-54820D02*
X72072Y-54799D01*
G54D28*
X72286Y-52840D02*
X72202Y-52756D01*
G54D29*
X71676Y-57972D02*
X71676Y-55653D01*
X71780Y-58076D02*
X71676Y-57972D01*
X71676Y-55653D02*
X71784Y-55546D01*
X70512Y-62350D02*
X70828Y-62350D01*
X70224Y-62062D02*
X70512Y-62350D01*
X70224Y-59350D02*
X70224Y-62062D01*
X70534Y-59040D02*
X70224Y-59350D01*
G54D26*
X73356Y-50104D02*
X73498Y-50246D01*
X73090Y-50104D02*
X73356Y-50104D01*
X73060Y-50134D02*
X73090Y-50104D01*
X71750Y-52672D02*
X71750Y-52563D01*
X73289Y-50594D02*
X73355Y-50594D01*
X72238Y-51645D02*
X73289Y-50594D01*
X72238Y-52076D02*
X72238Y-51645D01*
X71750Y-52563D02*
X72238Y-52076D01*
X73355Y-50594D02*
X73498Y-50452D01*
X73498Y-50452D02*
X73498Y-50246D01*
X71750Y-53694D02*
X71750Y-52672D01*
X71562Y-53882D02*
X71562Y-54726D01*
X71562Y-53882D02*
X71750Y-53694D01*
G54D29*
X70364Y-60134D02*
X70364Y-59772D01*
X70364Y-59772D02*
X70617Y-59520D01*
G54D26*
X71688Y-55224D02*
X71688Y-54852D01*
X71688Y-54852D02*
X71562Y-54726D01*
G54D29*
X71688Y-54852D02*
X71562Y-54726D01*
X70364Y-60134D02*
X70364Y-61774D01*
X70364Y-61774D02*
X70678Y-62088D01*
X70678Y-62088D02*
X71024Y-62088D01*
X71024Y-62088D02*
X71106Y-62170D01*
X71536Y-58282D02*
X71542Y-58282D01*
X71542Y-58282D02*
X71636Y-58376D01*
X71536Y-55356D02*
X71536Y-58282D01*
X71536Y-55312D02*
X71536Y-55356D01*
X71624Y-55224D02*
X71536Y-55312D01*
X71688Y-55224D02*
X71624Y-55224D01*
G54D26*
X71873Y-51137D02*
X71984Y-51026D01*
X72614Y-50976D02*
X73240Y-50350D01*
X72614Y-51026D02*
X72614Y-50976D01*
X71984Y-51026D02*
X72614Y-51026D01*
X71729Y-58644D02*
X71536Y-58644D01*
X71795Y-58710D02*
X71729Y-58644D01*
X71402Y-54964D02*
X71402Y-53816D01*
X71436Y-54998D02*
X71402Y-54964D01*
X71402Y-53816D02*
X71448Y-53769D01*
X71402Y-53816D02*
X71402Y-55060D01*
X71536Y-58644D02*
X71350Y-58458D01*
X71350Y-58458D02*
X71350Y-55112D01*
X71350Y-55112D02*
X71402Y-55060D01*
X71842Y-58644D02*
X71536Y-58644D01*
X71590Y-51419D02*
X71873Y-51137D01*
X71448Y-53769D02*
X71590Y-53628D01*
X71590Y-53628D02*
X71590Y-51419D01*
X71402Y-53816D02*
X71448Y-53769D01*
G54D31*
X75676Y-53982D02*
X75736Y-53982D01*
X75736Y-53982D02*
X75766Y-53982D01*
X75766Y-53982D02*
X75824Y-53924D01*
X75824Y-53894D02*
X75824Y-53924D01*
G54D29*
X74838Y-47912D02*
X75218Y-47912D01*
X75218Y-47912D02*
X75232Y-47898D01*
X75686Y-53976D02*
X75742Y-53976D01*
X75742Y-53976D02*
X75824Y-53894D01*
X75824Y-53894D02*
X75978Y-53740D01*
X75978Y-53740D02*
X75978Y-53600D01*
X75978Y-53600D02*
X75030Y-52652D01*
X75030Y-52652D02*
X74428Y-52652D01*
X74428Y-52652D02*
X74194Y-52418D01*
X74194Y-52418D02*
X74194Y-52206D01*
X74194Y-52206D02*
X74660Y-51740D01*
X74660Y-51740D02*
X74660Y-48089D01*
X74660Y-48089D02*
X74838Y-47912D01*
G54D28*
X78269Y-50028D02*
X78288Y-50028D01*
X78288Y-50009D02*
X78269Y-50028D01*
X78288Y-49535D02*
X78288Y-50009D01*
X78189Y-49436D02*
X78288Y-49535D01*
X77522Y-54392D02*
X77566Y-54436D01*
X77566Y-54436D02*
X78190Y-54436D01*
X78190Y-54436D02*
X78288Y-54338D01*
X78288Y-54338D02*
X78288Y-50028D01*
X78288Y-50028D02*
X78288Y-49930D01*
X69024Y-49118D02*
X68908Y-49002D01*
X69024Y-49702D02*
X69024Y-49118D01*
X68858Y-49868D02*
X69024Y-49702D01*
G54D26*
X68908Y-49002D02*
X68746Y-48840D01*
G54D28*
X75516Y-53676D02*
X75516Y-53346D01*
G54D29*
X75516Y-53346D02*
X74967Y-52797D01*
G54D28*
X75510Y-53682D02*
X75516Y-53676D01*
X74817Y-46193D02*
X74817Y-45460D01*
X74817Y-45460D02*
X74990Y-45288D01*
G54D30*
X75538Y-53378D02*
X75538Y-53368D01*
G54D28*
X75538Y-53368D02*
X74967Y-52797D01*
X74967Y-52797D02*
X74368Y-52797D01*
X74368Y-52797D02*
X74049Y-52478D01*
X74049Y-52478D02*
X74049Y-52146D01*
X74049Y-52146D02*
X74515Y-51680D01*
X74515Y-51680D02*
X74515Y-47978D01*
X74515Y-47978D02*
X75215Y-47278D01*
X75215Y-47278D02*
X75215Y-46591D01*
X75215Y-46591D02*
X74817Y-46193D01*
G54D26*
X73936Y-49641D02*
X73726Y-49431D01*
X73314Y-48626D02*
X72964Y-48626D01*
G54D30*
X72964Y-48626D02*
X72853Y-48515D01*
G54D26*
X73726Y-49038D02*
X73314Y-48626D01*
X73726Y-49431D02*
X73726Y-49038D01*
X74037Y-49641D02*
X73936Y-49641D01*
G54D32*
X70325Y-57380D02*
X70250Y-57380D01*
X71000Y-57380D02*
X70325Y-57380D01*
G54D33*
X71734Y-49548D02*
X72767Y-48515D01*
G54D30*
X72853Y-48515D02*
X72767Y-48515D01*
G54D26*
X71796Y-50636D02*
X71734Y-50698D01*
X71972Y-50636D02*
X71796Y-50636D01*
G54D33*
X71734Y-50834D02*
X71734Y-50698D01*
X71734Y-50698D02*
X71734Y-49548D01*
X71280Y-51288D02*
X71734Y-50834D01*
G54D27*
X70426Y-53118D02*
X71280Y-53118D01*
X70248Y-53296D02*
X70426Y-53118D01*
G54D33*
X71280Y-53118D02*
X71280Y-51288D01*
X71280Y-53500D02*
X71280Y-53118D01*
G54D32*
X70022Y-49624D02*
X70022Y-50554D01*
X71280Y-51812D02*
X71280Y-53500D01*
X70022Y-50554D02*
X71280Y-51812D01*
G54D33*
X71000Y-53780D02*
X71280Y-53500D01*
G54D29*
X71070Y-53710D02*
X71000Y-53780D01*
X71000Y-53780D02*
X71010Y-53780D01*
X71095Y-53695D02*
X71000Y-53695D01*
X71010Y-53780D02*
X71095Y-53695D01*
G54D33*
X71000Y-56248D02*
X71000Y-53695D01*
X71000Y-53695D02*
X71000Y-53780D01*
G54D28*
X70998Y-56157D02*
X71000Y-56157D01*
X71000Y-56159D02*
X70998Y-56157D01*
X71000Y-56183D02*
X71000Y-56159D01*
X70965Y-56148D02*
X71000Y-56183D01*
G54D33*
X72675Y-60900D02*
X72284Y-60900D01*
X71000Y-56248D02*
X71000Y-56157D01*
X71000Y-56157D02*
X71000Y-57380D01*
X71000Y-57380D02*
X71000Y-59062D01*
X71758Y-60900D02*
X72284Y-60900D01*
X71098Y-60240D02*
X71758Y-60900D01*
X71098Y-59160D02*
X71098Y-60240D01*
X71000Y-59062D02*
X71098Y-59160D01*
G54D30*
X70968Y-56248D02*
X71000Y-56248D01*
X70966Y-56250D02*
X70968Y-56248D01*
G54D32*
X70250Y-57380D02*
X69792Y-56922D01*
G54D33*
X72767Y-48515D02*
X73156Y-48126D01*
X73156Y-48126D02*
X73156Y-47592D01*
G54D34*
X73156Y-46362D02*
X73156Y-46072D01*
X73156Y-46072D02*
X73510Y-45718D01*
G54D33*
X73156Y-46362D02*
X73156Y-46466D01*
G54D26*
X73156Y-47592D02*
X73574Y-47592D01*
X73574Y-47592D02*
X73601Y-47565D01*
X73180Y-47568D02*
X73156Y-47592D01*
G54D32*
X71346Y-46846D02*
X71582Y-46846D01*
X72328Y-47592D02*
X73156Y-47592D01*
X71582Y-46846D02*
X72328Y-47592D01*
G54D33*
X73156Y-47592D02*
X73156Y-46362D01*
G54D34*
X73510Y-45426D02*
X73510Y-45718D01*
X73350Y-45266D02*
X73510Y-45426D01*
G54D32*
X72608Y-44768D02*
X73106Y-45266D01*
X73106Y-45266D02*
X73350Y-45266D01*
G54D27*
X68310Y-55670D02*
X68392Y-55670D01*
X68392Y-55670D02*
X68750Y-55312D01*
G54D25*
X74195Y-56152D02*
X74195Y-55755D01*
X74195Y-55755D02*
X74416Y-55534D01*
G54D34*
X73600Y-57090D02*
X73600Y-56747D01*
X74195Y-56152D02*
X74770Y-56152D01*
X73600Y-56747D02*
X74195Y-56152D01*
G54D27*
X77840Y-61380D02*
X77840Y-61344D01*
X77365Y-60869D02*
X77365Y-59933D01*
X77840Y-61344D02*
X77365Y-60869D01*
G54D34*
X72956Y-58170D02*
X73600Y-57526D01*
G54D32*
X72654Y-59331D02*
X72956Y-59028D01*
X72654Y-60130D02*
X72654Y-59331D01*
G54D34*
X72956Y-59028D02*
X72956Y-58170D01*
X73600Y-57526D02*
X73600Y-57090D01*
G54D35*
X77365Y-59933D02*
X77098Y-59666D01*
X77356Y-59924D02*
X77098Y-59666D01*
G54D34*
X78056Y-58456D02*
X78056Y-57998D01*
X77624Y-58888D02*
X78056Y-58456D01*
X77360Y-58888D02*
X77624Y-58888D01*
X77098Y-59150D02*
X77360Y-58888D01*
X77098Y-59666D02*
X77098Y-59150D01*
G54D27*
X69400Y-53416D02*
X69400Y-53330D01*
X68750Y-54066D02*
X69400Y-53416D01*
X68750Y-55312D02*
X68750Y-54066D01*
G54D25*
X71346Y-47002D02*
X71346Y-46846D01*
X71388Y-47044D02*
X71346Y-47002D01*
G54D27*
X69642Y-46756D02*
X70150Y-46756D01*
X70240Y-46846D02*
X71346Y-46846D01*
X70150Y-46756D02*
X70240Y-46846D01*
G54D32*
X73120Y-44846D02*
X72984Y-44710D01*
X73504Y-44936D02*
X73210Y-44936D01*
X73860Y-45292D02*
X73504Y-44936D01*
X73860Y-45764D02*
X73860Y-45292D01*
X73120Y-44846D02*
X73210Y-44936D01*
X74782Y-46686D02*
X73860Y-45764D01*
X74782Y-46946D02*
X74782Y-46686D01*
X73146Y-43769D02*
X73146Y-43518D01*
X72984Y-44710D02*
X72984Y-43931D01*
X72984Y-43931D02*
X73146Y-43769D01*
X78534Y-58628D02*
X78534Y-58868D01*
X78534Y-58716D02*
X78534Y-58628D01*
X78534Y-58628D02*
X78534Y-55312D01*
X78034Y-59368D02*
X78534Y-58868D01*
X78534Y-58868D02*
X78534Y-58778D01*
G54D27*
X74966Y-48608D02*
X75690Y-47884D01*
X75690Y-47884D02*
X75690Y-47422D01*
X75470Y-51250D02*
X75124Y-51250D01*
X74966Y-51092D02*
X74966Y-48608D01*
X75124Y-51250D02*
X74966Y-51092D01*
G54D32*
X78534Y-55312D02*
X78456Y-55234D01*
G54D27*
X73528Y-51970D02*
X73600Y-51898D01*
X73528Y-52762D02*
X73528Y-51970D01*
X73600Y-51372D02*
X73960Y-51012D01*
X73600Y-51898D02*
X73600Y-51372D01*
G54D32*
X74458Y-59746D02*
X74586Y-59618D01*
X74586Y-59618D02*
X74586Y-58642D01*
X74586Y-58642D02*
X75456Y-57772D01*
X75456Y-57772D02*
X75456Y-55106D01*
X75456Y-55106D02*
X74245Y-53895D01*
G54D27*
X74062Y-53712D02*
X74062Y-53296D01*
X74062Y-53296D02*
X73528Y-52762D01*
X74245Y-53895D02*
X74062Y-53712D01*
G54D10*
G36*
X75186Y-57581D02*
X75061Y-57581D01*
X75061Y-55725D01*
X75014Y-55613D01*
X74928Y-55527D01*
X74816Y-55481D01*
X74695Y-55480D01*
X74583Y-55527D01*
X74497Y-55613D01*
X74451Y-55725D01*
X74450Y-55846D01*
X74497Y-55958D01*
X74583Y-56044D01*
X74695Y-56090D01*
X74816Y-56091D01*
X74928Y-56044D01*
X75014Y-55958D01*
X75060Y-55846D01*
X75061Y-55725D01*
X75061Y-57581D01*
X74971Y-57580D01*
X74971Y-57031D01*
X74924Y-56919D01*
X74838Y-56833D01*
X74726Y-56787D01*
X74605Y-56786D01*
X74493Y-56833D01*
X74407Y-56919D01*
X74361Y-57031D01*
X74361Y-57065D01*
X74328Y-56987D01*
X74242Y-56901D01*
X74130Y-56855D01*
X74009Y-56854D01*
X74008Y-56855D01*
X74008Y-55520D01*
X73968Y-55424D01*
X73895Y-55351D01*
X73799Y-55312D01*
X73696Y-55311D01*
X73600Y-55351D01*
X73570Y-55381D01*
X73511Y-55322D01*
X73415Y-55283D01*
X73312Y-55282D01*
X73216Y-55322D01*
X73143Y-55395D01*
X73104Y-55491D01*
X73103Y-55594D01*
X73143Y-55690D01*
X73216Y-55763D01*
X73312Y-55802D01*
X73415Y-55803D01*
X73511Y-55763D01*
X73541Y-55733D01*
X73600Y-55792D01*
X73696Y-55831D01*
X73799Y-55832D01*
X73895Y-55792D01*
X73968Y-55719D01*
X74007Y-55623D01*
X74008Y-55520D01*
X74008Y-56855D01*
X73897Y-56901D01*
X73811Y-56987D01*
X73765Y-57099D01*
X73764Y-57220D01*
X73811Y-57332D01*
X73897Y-57418D01*
X74009Y-57464D01*
X74130Y-57465D01*
X74242Y-57418D01*
X74328Y-57332D01*
X74374Y-57220D01*
X74374Y-57186D01*
X74407Y-57264D01*
X74493Y-57350D01*
X74605Y-57396D01*
X74726Y-57397D01*
X74838Y-57350D01*
X74924Y-57264D01*
X74970Y-57152D01*
X74971Y-57031D01*
X74971Y-57580D01*
X73537Y-57576D01*
X73537Y-56751D01*
X73490Y-56639D01*
X73404Y-56553D01*
X73292Y-56507D01*
X73171Y-56506D01*
X73059Y-56553D01*
X72973Y-56639D01*
X72927Y-56751D01*
X72926Y-56872D01*
X72973Y-56984D01*
X73059Y-57070D01*
X73171Y-57116D01*
X73292Y-57117D01*
X73404Y-57070D01*
X73490Y-56984D01*
X73536Y-56872D01*
X73537Y-56751D01*
X73537Y-57576D01*
X72773Y-57574D01*
X72738Y-55111D01*
X75060Y-55092D01*
X75186Y-55217D01*
X75186Y-57581D01*
X75186Y-57581D01*
G37*
G54D26*
X75186Y-57581D02*
X75061Y-57581D01*
X75061Y-55725D01*
X75014Y-55613D01*
X74928Y-55527D01*
X74816Y-55481D01*
X74695Y-55480D01*
X74583Y-55527D01*
X74497Y-55613D01*
X74451Y-55725D01*
X74450Y-55846D01*
X74497Y-55958D01*
X74583Y-56044D01*
X74695Y-56090D01*
X74816Y-56091D01*
X74928Y-56044D01*
X75014Y-55958D01*
X75060Y-55846D01*
X75061Y-55725D01*
X75061Y-57581D01*
X74971Y-57580D01*
X74971Y-57031D01*
X74924Y-56919D01*
X74838Y-56833D01*
X74726Y-56787D01*
X74605Y-56786D01*
X74493Y-56833D01*
X74407Y-56919D01*
X74361Y-57031D01*
X74361Y-57065D01*
X74328Y-56987D01*
X74242Y-56901D01*
X74130Y-56855D01*
X74009Y-56854D01*
X74008Y-56855D01*
X74008Y-55520D01*
X73968Y-55424D01*
X73895Y-55351D01*
X73799Y-55312D01*
X73696Y-55311D01*
X73600Y-55351D01*
X73570Y-55381D01*
X73511Y-55322D01*
X73415Y-55283D01*
X73312Y-55282D01*
X73216Y-55322D01*
X73143Y-55395D01*
X73104Y-55491D01*
X73103Y-55594D01*
X73143Y-55690D01*
X73216Y-55763D01*
X73312Y-55802D01*
X73415Y-55803D01*
X73511Y-55763D01*
X73541Y-55733D01*
X73600Y-55792D01*
X73696Y-55831D01*
X73799Y-55832D01*
X73895Y-55792D01*
X73968Y-55719D01*
X74007Y-55623D01*
X74008Y-55520D01*
X74008Y-56855D01*
X73897Y-56901D01*
X73811Y-56987D01*
X73765Y-57099D01*
X73764Y-57220D01*
X73811Y-57332D01*
X73897Y-57418D01*
X74009Y-57464D01*
X74130Y-57465D01*
X74242Y-57418D01*
X74328Y-57332D01*
X74374Y-57220D01*
X74374Y-57186D01*
X74407Y-57264D01*
X74493Y-57350D01*
X74605Y-57396D01*
X74726Y-57397D01*
X74838Y-57350D01*
X74924Y-57264D01*
X74970Y-57152D01*
X74971Y-57031D01*
X74971Y-57580D01*
X73537Y-57576D01*
X73537Y-56751D01*
X73490Y-56639D01*
X73404Y-56553D01*
X73292Y-56507D01*
X73171Y-56506D01*
X73059Y-56553D01*
X72973Y-56639D01*
X72927Y-56751D01*
X72926Y-56872D01*
X72973Y-56984D01*
X73059Y-57070D01*
X73171Y-57116D01*
X73292Y-57117D01*
X73404Y-57070D01*
X73490Y-56984D01*
X73536Y-56872D01*
X73537Y-56751D01*
X73537Y-57576D01*
X72773Y-57574D01*
X72738Y-55111D01*
X75060Y-55092D01*
X75186Y-55217D01*
X75186Y-57581D01*
M02*
